G04 #@! TF.GenerationSoftware,KiCad,Pcbnew,(5.1.10)-1*
G04 #@! TF.CreationDate,2022-05-03T13:10:24+02:00*
G04 #@! TF.ProjectId,psoc_shield,70736f63-5f73-4686-9965-6c642e6b6963,rev?*
G04 #@! TF.SameCoordinates,Original*
G04 #@! TF.FileFunction,Copper,L2,Bot*
G04 #@! TF.FilePolarity,Positive*
%FSLAX46Y46*%
G04 Gerber Fmt 4.6, Leading zero omitted, Abs format (unit mm)*
G04 Created by KiCad (PCBNEW (5.1.10)-1) date 2022-05-03 13:10:24*
%MOMM*%
%LPD*%
G01*
G04 APERTURE LIST*
G04 #@! TA.AperFunction,ComponentPad*
%ADD10O,1.700000X1.700000*%
G04 #@! TD*
G04 #@! TA.AperFunction,ComponentPad*
%ADD11R,1.700000X1.700000*%
G04 #@! TD*
G04 #@! TA.AperFunction,Conductor*
%ADD12C,0.800000*%
G04 #@! TD*
G04 #@! TA.AperFunction,Conductor*
%ADD13C,0.254000*%
G04 #@! TD*
G04 #@! TA.AperFunction,Conductor*
%ADD14C,0.100000*%
G04 #@! TD*
G04 APERTURE END LIST*
D10*
X153700000Y-77697400D03*
X153700000Y-75157400D03*
X151160000Y-77697400D03*
X151160000Y-75157400D03*
X148620000Y-77697400D03*
X148620000Y-75157400D03*
X146080000Y-77697400D03*
X146080000Y-75157400D03*
X143540000Y-77697400D03*
X143540000Y-75157400D03*
X141000000Y-77697400D03*
X141000000Y-75157400D03*
X138460000Y-77697400D03*
X138460000Y-75157400D03*
X135920000Y-77697400D03*
D11*
X135920000Y-75157400D03*
D10*
X131800900Y-77680100D03*
X131800900Y-75140100D03*
X129260900Y-77680100D03*
X129260900Y-75140100D03*
X126720900Y-77680100D03*
X126720900Y-75140100D03*
X124180900Y-77680100D03*
X124180900Y-75140100D03*
X121640900Y-77680100D03*
X121640900Y-75140100D03*
X119100900Y-77680100D03*
X119100900Y-75140100D03*
X116560900Y-77680100D03*
X116560900Y-75140100D03*
X114020900Y-77680100D03*
X114020900Y-75140100D03*
X111480900Y-77680100D03*
X111480900Y-75140100D03*
X108940900Y-77680100D03*
D11*
X108940900Y-75140100D03*
D10*
X143800000Y-100540000D03*
D11*
X143800000Y-98000000D03*
D10*
X143800000Y-109700000D03*
D11*
X143800000Y-107160000D03*
D10*
X136600000Y-109500000D03*
D11*
X136600000Y-106960000D03*
D10*
X136600000Y-100440000D03*
D11*
X136600000Y-97900000D03*
X118140000Y-125965000D03*
D10*
X120680000Y-125965000D03*
X123220000Y-125965000D03*
X125760000Y-125965000D03*
X128300000Y-125965000D03*
X130840000Y-125965000D03*
X133380000Y-125965000D03*
X135920000Y-125965000D03*
X163860000Y-125965000D03*
X163860000Y-123425000D03*
X161320000Y-125965000D03*
X161320000Y-123425000D03*
X158780000Y-125965000D03*
X158780000Y-123425000D03*
X156240000Y-125965000D03*
X156240000Y-123425000D03*
X153700000Y-125965000D03*
X153700000Y-123425000D03*
X151160000Y-125965000D03*
X151160000Y-123425000D03*
X148620000Y-125965000D03*
X148620000Y-123425000D03*
X146080000Y-125965000D03*
X146080000Y-123425000D03*
X143540000Y-125965000D03*
X143540000Y-123425000D03*
X141000000Y-125965000D03*
D11*
X141000000Y-123425000D03*
D12*
X143800000Y-100540000D02*
X143800000Y-107160000D01*
X168700000Y-127400000D02*
X166200000Y-129900000D01*
X144800000Y-129900000D02*
X143540000Y-128640000D01*
X168700000Y-95000000D02*
X168700000Y-127400000D01*
X142000000Y-93600000D02*
X167300000Y-93600000D01*
X140600000Y-95000000D02*
X142000000Y-93600000D01*
X167300000Y-93600000D02*
X168700000Y-95000000D01*
X143540000Y-128640000D02*
X143540000Y-125965000D01*
X142260000Y-107160000D02*
X140600000Y-105500000D01*
X143800000Y-107160000D02*
X142260000Y-107160000D01*
X166200000Y-129900000D02*
X144800000Y-129900000D01*
X140600000Y-105500000D02*
X140600000Y-95000000D01*
X136600000Y-100440000D02*
X136600000Y-106960000D01*
X166614218Y-130900011D02*
X143200010Y-130900010D01*
X169700011Y-127814218D02*
X166614218Y-130900011D01*
X167714218Y-92599989D02*
X169700011Y-94585782D01*
X141000000Y-128700000D02*
X141000000Y-125965000D01*
X141585782Y-92599989D02*
X167714218Y-92599989D01*
X169700011Y-94585782D02*
X169700011Y-127814218D01*
X139599989Y-94585782D02*
X141585782Y-92599989D01*
X139599989Y-105600011D02*
X139599989Y-94585782D01*
X138240000Y-106960000D02*
X139599989Y-105600011D01*
X143200010Y-130900010D02*
X141000000Y-128700000D01*
X136600000Y-106960000D02*
X138240000Y-106960000D01*
X143800000Y-98000000D02*
X145700000Y-98000000D01*
X148620000Y-100920000D02*
X148620000Y-123425000D01*
X145700000Y-98000000D02*
X148620000Y-100920000D01*
X136600000Y-97900000D02*
X134000000Y-97900000D01*
X134000000Y-97900000D02*
X132000000Y-99900000D01*
X132000000Y-99900000D02*
X132000000Y-116200000D01*
X132000000Y-116200000D02*
X134000000Y-118200000D01*
X134000000Y-118200000D02*
X143600000Y-118200000D01*
X146080000Y-120680000D02*
X146080000Y-123425000D01*
X143600000Y-118200000D02*
X146080000Y-120680000D01*
D13*
X180016870Y-66883130D02*
X180048001Y-66921063D01*
X180048000Y-134078938D01*
X180016870Y-134116870D01*
X179978938Y-134148000D01*
X103221062Y-134148000D01*
X103183130Y-134116870D01*
X103152000Y-134078938D01*
X103152000Y-125115000D01*
X116961418Y-125115000D01*
X116961418Y-126815000D01*
X116967732Y-126879103D01*
X116986430Y-126940743D01*
X117016794Y-126997550D01*
X117057657Y-127047343D01*
X117107450Y-127088206D01*
X117164257Y-127118570D01*
X117225897Y-127137268D01*
X117290000Y-127143582D01*
X118990000Y-127143582D01*
X119054103Y-127137268D01*
X119115743Y-127118570D01*
X119172550Y-127088206D01*
X119222343Y-127047343D01*
X119263206Y-126997550D01*
X119293570Y-126940743D01*
X119312268Y-126879103D01*
X119318582Y-126815000D01*
X119318582Y-125849076D01*
X119503000Y-125849076D01*
X119503000Y-126080924D01*
X119548231Y-126308318D01*
X119636956Y-126522519D01*
X119765764Y-126715294D01*
X119929706Y-126879236D01*
X120122481Y-127008044D01*
X120336682Y-127096769D01*
X120564076Y-127142000D01*
X120795924Y-127142000D01*
X121023318Y-127096769D01*
X121237519Y-127008044D01*
X121430294Y-126879236D01*
X121594236Y-126715294D01*
X121723044Y-126522519D01*
X121811769Y-126308318D01*
X121857000Y-126080924D01*
X121857000Y-125849076D01*
X122043000Y-125849076D01*
X122043000Y-126080924D01*
X122088231Y-126308318D01*
X122176956Y-126522519D01*
X122305764Y-126715294D01*
X122469706Y-126879236D01*
X122662481Y-127008044D01*
X122876682Y-127096769D01*
X123104076Y-127142000D01*
X123335924Y-127142000D01*
X123563318Y-127096769D01*
X123777519Y-127008044D01*
X123970294Y-126879236D01*
X124134236Y-126715294D01*
X124263044Y-126522519D01*
X124351769Y-126308318D01*
X124397000Y-126080924D01*
X124397000Y-125849076D01*
X124583000Y-125849076D01*
X124583000Y-126080924D01*
X124628231Y-126308318D01*
X124716956Y-126522519D01*
X124845764Y-126715294D01*
X125009706Y-126879236D01*
X125202481Y-127008044D01*
X125416682Y-127096769D01*
X125644076Y-127142000D01*
X125875924Y-127142000D01*
X126103318Y-127096769D01*
X126317519Y-127008044D01*
X126510294Y-126879236D01*
X126674236Y-126715294D01*
X126803044Y-126522519D01*
X126891769Y-126308318D01*
X126937000Y-126080924D01*
X126937000Y-125849076D01*
X127123000Y-125849076D01*
X127123000Y-126080924D01*
X127168231Y-126308318D01*
X127256956Y-126522519D01*
X127385764Y-126715294D01*
X127549706Y-126879236D01*
X127742481Y-127008044D01*
X127956682Y-127096769D01*
X128184076Y-127142000D01*
X128415924Y-127142000D01*
X128643318Y-127096769D01*
X128857519Y-127008044D01*
X129050294Y-126879236D01*
X129214236Y-126715294D01*
X129343044Y-126522519D01*
X129411264Y-126357821D01*
X129495843Y-126596252D01*
X129644822Y-126846355D01*
X129839731Y-127062588D01*
X130073080Y-127236641D01*
X130335901Y-127361825D01*
X130483110Y-127406476D01*
X130713000Y-127285155D01*
X130713000Y-126092000D01*
X130693000Y-126092000D01*
X130693000Y-125838000D01*
X130713000Y-125838000D01*
X130713000Y-124644845D01*
X130967000Y-124644845D01*
X130967000Y-125838000D01*
X130987000Y-125838000D01*
X130987000Y-126092000D01*
X130967000Y-126092000D01*
X130967000Y-127285155D01*
X131196890Y-127406476D01*
X131344099Y-127361825D01*
X131606920Y-127236641D01*
X131840269Y-127062588D01*
X132035178Y-126846355D01*
X132184157Y-126596252D01*
X132268736Y-126357821D01*
X132336956Y-126522519D01*
X132465764Y-126715294D01*
X132629706Y-126879236D01*
X132822481Y-127008044D01*
X133036682Y-127096769D01*
X133264076Y-127142000D01*
X133495924Y-127142000D01*
X133723318Y-127096769D01*
X133937519Y-127008044D01*
X134130294Y-126879236D01*
X134294236Y-126715294D01*
X134423044Y-126522519D01*
X134511769Y-126308318D01*
X134557000Y-126080924D01*
X134557000Y-125849076D01*
X134743000Y-125849076D01*
X134743000Y-126080924D01*
X134788231Y-126308318D01*
X134876956Y-126522519D01*
X135005764Y-126715294D01*
X135169706Y-126879236D01*
X135362481Y-127008044D01*
X135576682Y-127096769D01*
X135804076Y-127142000D01*
X136035924Y-127142000D01*
X136263318Y-127096769D01*
X136477519Y-127008044D01*
X136670294Y-126879236D01*
X136834236Y-126715294D01*
X136963044Y-126522519D01*
X137051769Y-126308318D01*
X137097000Y-126080924D01*
X137097000Y-125849076D01*
X137051769Y-125621682D01*
X136963044Y-125407481D01*
X136834236Y-125214706D01*
X136670294Y-125050764D01*
X136477519Y-124921956D01*
X136263318Y-124833231D01*
X136035924Y-124788000D01*
X135804076Y-124788000D01*
X135576682Y-124833231D01*
X135362481Y-124921956D01*
X135169706Y-125050764D01*
X135005764Y-125214706D01*
X134876956Y-125407481D01*
X134788231Y-125621682D01*
X134743000Y-125849076D01*
X134557000Y-125849076D01*
X134511769Y-125621682D01*
X134423044Y-125407481D01*
X134294236Y-125214706D01*
X134130294Y-125050764D01*
X133937519Y-124921956D01*
X133723318Y-124833231D01*
X133495924Y-124788000D01*
X133264076Y-124788000D01*
X133036682Y-124833231D01*
X132822481Y-124921956D01*
X132629706Y-125050764D01*
X132465764Y-125214706D01*
X132336956Y-125407481D01*
X132268736Y-125572179D01*
X132184157Y-125333748D01*
X132035178Y-125083645D01*
X131840269Y-124867412D01*
X131606920Y-124693359D01*
X131344099Y-124568175D01*
X131196890Y-124523524D01*
X130967000Y-124644845D01*
X130713000Y-124644845D01*
X130483110Y-124523524D01*
X130335901Y-124568175D01*
X130073080Y-124693359D01*
X129839731Y-124867412D01*
X129644822Y-125083645D01*
X129495843Y-125333748D01*
X129411264Y-125572179D01*
X129343044Y-125407481D01*
X129214236Y-125214706D01*
X129050294Y-125050764D01*
X128857519Y-124921956D01*
X128643318Y-124833231D01*
X128415924Y-124788000D01*
X128184076Y-124788000D01*
X127956682Y-124833231D01*
X127742481Y-124921956D01*
X127549706Y-125050764D01*
X127385764Y-125214706D01*
X127256956Y-125407481D01*
X127168231Y-125621682D01*
X127123000Y-125849076D01*
X126937000Y-125849076D01*
X126891769Y-125621682D01*
X126803044Y-125407481D01*
X126674236Y-125214706D01*
X126510294Y-125050764D01*
X126317519Y-124921956D01*
X126103318Y-124833231D01*
X125875924Y-124788000D01*
X125644076Y-124788000D01*
X125416682Y-124833231D01*
X125202481Y-124921956D01*
X125009706Y-125050764D01*
X124845764Y-125214706D01*
X124716956Y-125407481D01*
X124628231Y-125621682D01*
X124583000Y-125849076D01*
X124397000Y-125849076D01*
X124351769Y-125621682D01*
X124263044Y-125407481D01*
X124134236Y-125214706D01*
X123970294Y-125050764D01*
X123777519Y-124921956D01*
X123563318Y-124833231D01*
X123335924Y-124788000D01*
X123104076Y-124788000D01*
X122876682Y-124833231D01*
X122662481Y-124921956D01*
X122469706Y-125050764D01*
X122305764Y-125214706D01*
X122176956Y-125407481D01*
X122088231Y-125621682D01*
X122043000Y-125849076D01*
X121857000Y-125849076D01*
X121811769Y-125621682D01*
X121723044Y-125407481D01*
X121594236Y-125214706D01*
X121430294Y-125050764D01*
X121237519Y-124921956D01*
X121023318Y-124833231D01*
X120795924Y-124788000D01*
X120564076Y-124788000D01*
X120336682Y-124833231D01*
X120122481Y-124921956D01*
X119929706Y-125050764D01*
X119765764Y-125214706D01*
X119636956Y-125407481D01*
X119548231Y-125621682D01*
X119503000Y-125849076D01*
X119318582Y-125849076D01*
X119318582Y-125115000D01*
X119312268Y-125050897D01*
X119293570Y-124989257D01*
X119263206Y-124932450D01*
X119222343Y-124882657D01*
X119172550Y-124841794D01*
X119115743Y-124811430D01*
X119054103Y-124792732D01*
X118990000Y-124786418D01*
X117290000Y-124786418D01*
X117225897Y-124792732D01*
X117164257Y-124811430D01*
X117107450Y-124841794D01*
X117057657Y-124882657D01*
X117016794Y-124932450D01*
X116986430Y-124989257D01*
X116967732Y-125050897D01*
X116961418Y-125115000D01*
X103152000Y-125115000D01*
X103152000Y-122575000D01*
X139821418Y-122575000D01*
X139821418Y-124275000D01*
X139827732Y-124339103D01*
X139846430Y-124400743D01*
X139876794Y-124457550D01*
X139917657Y-124507343D01*
X139967450Y-124548206D01*
X140024257Y-124578570D01*
X140085897Y-124597268D01*
X140150000Y-124603582D01*
X141850000Y-124603582D01*
X141914103Y-124597268D01*
X141975743Y-124578570D01*
X142032550Y-124548206D01*
X142082343Y-124507343D01*
X142123206Y-124457550D01*
X142153570Y-124400743D01*
X142172268Y-124339103D01*
X142178582Y-124275000D01*
X142178582Y-123309076D01*
X142363000Y-123309076D01*
X142363000Y-123540924D01*
X142408231Y-123768318D01*
X142496956Y-123982519D01*
X142625764Y-124175294D01*
X142789706Y-124339236D01*
X142982481Y-124468044D01*
X143196682Y-124556769D01*
X143424076Y-124602000D01*
X143655924Y-124602000D01*
X143883318Y-124556769D01*
X144097519Y-124468044D01*
X144290294Y-124339236D01*
X144454236Y-124175294D01*
X144583044Y-123982519D01*
X144671769Y-123768318D01*
X144717000Y-123540924D01*
X144717000Y-123309076D01*
X144671769Y-123081682D01*
X144583044Y-122867481D01*
X144454236Y-122674706D01*
X144290294Y-122510764D01*
X144097519Y-122381956D01*
X143883318Y-122293231D01*
X143655924Y-122248000D01*
X143424076Y-122248000D01*
X143196682Y-122293231D01*
X142982481Y-122381956D01*
X142789706Y-122510764D01*
X142625764Y-122674706D01*
X142496956Y-122867481D01*
X142408231Y-123081682D01*
X142363000Y-123309076D01*
X142178582Y-123309076D01*
X142178582Y-122575000D01*
X142172268Y-122510897D01*
X142153570Y-122449257D01*
X142123206Y-122392450D01*
X142082343Y-122342657D01*
X142032550Y-122301794D01*
X141975743Y-122271430D01*
X141914103Y-122252732D01*
X141850000Y-122246418D01*
X140150000Y-122246418D01*
X140085897Y-122252732D01*
X140024257Y-122271430D01*
X139967450Y-122301794D01*
X139917657Y-122342657D01*
X139876794Y-122392450D01*
X139846430Y-122449257D01*
X139827732Y-122510897D01*
X139821418Y-122575000D01*
X103152000Y-122575000D01*
X103152000Y-99900000D01*
X131269483Y-99900000D01*
X131273000Y-99935708D01*
X131273001Y-116164282D01*
X131269483Y-116200000D01*
X131283520Y-116342517D01*
X131325090Y-116479556D01*
X131325091Y-116479557D01*
X131392598Y-116605853D01*
X131483447Y-116716554D01*
X131511189Y-116739321D01*
X133460679Y-118688812D01*
X133483446Y-118716554D01*
X133594147Y-118807403D01*
X133720443Y-118874910D01*
X133825587Y-118906805D01*
X133857482Y-118916480D01*
X133999999Y-118930517D01*
X134035707Y-118927000D01*
X143298868Y-118927000D01*
X145353000Y-120981134D01*
X145353001Y-122495199D01*
X145329706Y-122510764D01*
X145165764Y-122674706D01*
X145036956Y-122867481D01*
X144948231Y-123081682D01*
X144903000Y-123309076D01*
X144903000Y-123540924D01*
X144948231Y-123768318D01*
X145036956Y-123982519D01*
X145165764Y-124175294D01*
X145329706Y-124339236D01*
X145522481Y-124468044D01*
X145736682Y-124556769D01*
X145964076Y-124602000D01*
X146195924Y-124602000D01*
X146423318Y-124556769D01*
X146637519Y-124468044D01*
X146830294Y-124339236D01*
X146994236Y-124175294D01*
X147123044Y-123982519D01*
X147211769Y-123768318D01*
X147257000Y-123540924D01*
X147257000Y-123309076D01*
X147211769Y-123081682D01*
X147123044Y-122867481D01*
X146994236Y-122674706D01*
X146830294Y-122510764D01*
X146807000Y-122495199D01*
X146807000Y-120715708D01*
X146810517Y-120680000D01*
X146796480Y-120537482D01*
X146754910Y-120400443D01*
X146687403Y-120274147D01*
X146645981Y-120223674D01*
X146619316Y-120191182D01*
X146619312Y-120191178D01*
X146596553Y-120163446D01*
X146568822Y-120140688D01*
X144139326Y-117711194D01*
X144116554Y-117683446D01*
X144005853Y-117592597D01*
X143879557Y-117525090D01*
X143742517Y-117483520D01*
X143635708Y-117473000D01*
X143600000Y-117469483D01*
X143564292Y-117473000D01*
X134301133Y-117473000D01*
X132727000Y-115898868D01*
X132727000Y-109856890D01*
X135158524Y-109856890D01*
X135203175Y-110004099D01*
X135328359Y-110266920D01*
X135502412Y-110500269D01*
X135718645Y-110695178D01*
X135968748Y-110844157D01*
X136243109Y-110941481D01*
X136473000Y-110820814D01*
X136473000Y-109627000D01*
X136727000Y-109627000D01*
X136727000Y-110820814D01*
X136956891Y-110941481D01*
X137231252Y-110844157D01*
X137481355Y-110695178D01*
X137697588Y-110500269D01*
X137871641Y-110266920D01*
X137971680Y-110056890D01*
X142358524Y-110056890D01*
X142403175Y-110204099D01*
X142528359Y-110466920D01*
X142702412Y-110700269D01*
X142918645Y-110895178D01*
X143168748Y-111044157D01*
X143443109Y-111141481D01*
X143673000Y-111020814D01*
X143673000Y-109827000D01*
X143927000Y-109827000D01*
X143927000Y-111020814D01*
X144156891Y-111141481D01*
X144431252Y-111044157D01*
X144681355Y-110895178D01*
X144897588Y-110700269D01*
X145071641Y-110466920D01*
X145196825Y-110204099D01*
X145241476Y-110056890D01*
X145120155Y-109827000D01*
X143927000Y-109827000D01*
X143673000Y-109827000D01*
X142479845Y-109827000D01*
X142358524Y-110056890D01*
X137971680Y-110056890D01*
X137996825Y-110004099D01*
X138041476Y-109856890D01*
X137920155Y-109627000D01*
X136727000Y-109627000D01*
X136473000Y-109627000D01*
X135279845Y-109627000D01*
X135158524Y-109856890D01*
X132727000Y-109856890D01*
X132727000Y-109143110D01*
X135158524Y-109143110D01*
X135279845Y-109373000D01*
X136473000Y-109373000D01*
X136473000Y-109353000D01*
X136727000Y-109353000D01*
X136727000Y-109373000D01*
X137920155Y-109373000D01*
X138041476Y-109143110D01*
X137996825Y-108995901D01*
X137871641Y-108733080D01*
X137697588Y-108499731D01*
X137481355Y-108304822D01*
X137231252Y-108155843D01*
X137182592Y-108138582D01*
X137450000Y-108138582D01*
X137514103Y-108132268D01*
X137575743Y-108113570D01*
X137632550Y-108083206D01*
X137682343Y-108042343D01*
X137723206Y-107992550D01*
X137753570Y-107935743D01*
X137772268Y-107874103D01*
X137778582Y-107810000D01*
X137778582Y-107687000D01*
X138204292Y-107687000D01*
X138240000Y-107690517D01*
X138382517Y-107676480D01*
X138519557Y-107634910D01*
X138645853Y-107567403D01*
X138756554Y-107476554D01*
X138779325Y-107448807D01*
X140088811Y-106139323D01*
X140116542Y-106116565D01*
X140139301Y-106088833D01*
X140139305Y-106088829D01*
X140148947Y-106077080D01*
X141720679Y-107648812D01*
X141743446Y-107676554D01*
X141854147Y-107767403D01*
X141980443Y-107834910D01*
X142117482Y-107876480D01*
X142260000Y-107890518D01*
X142295716Y-107887000D01*
X142621418Y-107887000D01*
X142621418Y-108010000D01*
X142627732Y-108074103D01*
X142646430Y-108135743D01*
X142676794Y-108192550D01*
X142717657Y-108242343D01*
X142767450Y-108283206D01*
X142824257Y-108313570D01*
X142885897Y-108332268D01*
X142950000Y-108338582D01*
X143217408Y-108338582D01*
X143168748Y-108355843D01*
X142918645Y-108504822D01*
X142702412Y-108699731D01*
X142528359Y-108933080D01*
X142403175Y-109195901D01*
X142358524Y-109343110D01*
X142479845Y-109573000D01*
X143673000Y-109573000D01*
X143673000Y-109553000D01*
X143927000Y-109553000D01*
X143927000Y-109573000D01*
X145120155Y-109573000D01*
X145241476Y-109343110D01*
X145196825Y-109195901D01*
X145071641Y-108933080D01*
X144897588Y-108699731D01*
X144681355Y-108504822D01*
X144431252Y-108355843D01*
X144382592Y-108338582D01*
X144650000Y-108338582D01*
X144714103Y-108332268D01*
X144775743Y-108313570D01*
X144832550Y-108283206D01*
X144882343Y-108242343D01*
X144923206Y-108192550D01*
X144953570Y-108135743D01*
X144972268Y-108074103D01*
X144978582Y-108010000D01*
X144978582Y-106310000D01*
X144972268Y-106245897D01*
X144953570Y-106184257D01*
X144923206Y-106127450D01*
X144882343Y-106077657D01*
X144832550Y-106036794D01*
X144775743Y-106006430D01*
X144714103Y-105987732D01*
X144650000Y-105981418D01*
X144527000Y-105981418D01*
X144527000Y-101469801D01*
X144550294Y-101454236D01*
X144714236Y-101290294D01*
X144843044Y-101097519D01*
X144931769Y-100883318D01*
X144977000Y-100655924D01*
X144977000Y-100424076D01*
X144931769Y-100196682D01*
X144843044Y-99982481D01*
X144714236Y-99789706D01*
X144550294Y-99625764D01*
X144357519Y-99496956D01*
X144143318Y-99408231D01*
X143915924Y-99363000D01*
X143684076Y-99363000D01*
X143456682Y-99408231D01*
X143242481Y-99496956D01*
X143049706Y-99625764D01*
X142885764Y-99789706D01*
X142756956Y-99982481D01*
X142668231Y-100196682D01*
X142623000Y-100424076D01*
X142623000Y-100655924D01*
X142668231Y-100883318D01*
X142756956Y-101097519D01*
X142885764Y-101290294D01*
X143049706Y-101454236D01*
X143073000Y-101469801D01*
X143073001Y-105981418D01*
X142950000Y-105981418D01*
X142885897Y-105987732D01*
X142824257Y-106006430D01*
X142767450Y-106036794D01*
X142717657Y-106077657D01*
X142676794Y-106127450D01*
X142646430Y-106184257D01*
X142627732Y-106245897D01*
X142621418Y-106310000D01*
X142621418Y-106433000D01*
X142561133Y-106433000D01*
X141327000Y-105198868D01*
X141327000Y-97150000D01*
X142621418Y-97150000D01*
X142621418Y-98850000D01*
X142627732Y-98914103D01*
X142646430Y-98975743D01*
X142676794Y-99032550D01*
X142717657Y-99082343D01*
X142767450Y-99123206D01*
X142824257Y-99153570D01*
X142885897Y-99172268D01*
X142950000Y-99178582D01*
X144650000Y-99178582D01*
X144714103Y-99172268D01*
X144775743Y-99153570D01*
X144832550Y-99123206D01*
X144882343Y-99082343D01*
X144923206Y-99032550D01*
X144953570Y-98975743D01*
X144972268Y-98914103D01*
X144978582Y-98850000D01*
X144978582Y-98727000D01*
X145398868Y-98727000D01*
X147893000Y-101221133D01*
X147893001Y-122495199D01*
X147869706Y-122510764D01*
X147705764Y-122674706D01*
X147576956Y-122867481D01*
X147488231Y-123081682D01*
X147443000Y-123309076D01*
X147443000Y-123540924D01*
X147488231Y-123768318D01*
X147576956Y-123982519D01*
X147705764Y-124175294D01*
X147869706Y-124339236D01*
X148062481Y-124468044D01*
X148276682Y-124556769D01*
X148504076Y-124602000D01*
X148735924Y-124602000D01*
X148963318Y-124556769D01*
X149177519Y-124468044D01*
X149370294Y-124339236D01*
X149534236Y-124175294D01*
X149663044Y-123982519D01*
X149751769Y-123768318D01*
X149797000Y-123540924D01*
X149797000Y-123309076D01*
X149983000Y-123309076D01*
X149983000Y-123540924D01*
X150028231Y-123768318D01*
X150116956Y-123982519D01*
X150245764Y-124175294D01*
X150409706Y-124339236D01*
X150602481Y-124468044D01*
X150816682Y-124556769D01*
X151044076Y-124602000D01*
X151275924Y-124602000D01*
X151503318Y-124556769D01*
X151717519Y-124468044D01*
X151910294Y-124339236D01*
X152074236Y-124175294D01*
X152203044Y-123982519D01*
X152291769Y-123768318D01*
X152337000Y-123540924D01*
X152337000Y-123309076D01*
X152523000Y-123309076D01*
X152523000Y-123540924D01*
X152568231Y-123768318D01*
X152656956Y-123982519D01*
X152785764Y-124175294D01*
X152949706Y-124339236D01*
X153142481Y-124468044D01*
X153356682Y-124556769D01*
X153584076Y-124602000D01*
X153815924Y-124602000D01*
X154043318Y-124556769D01*
X154257519Y-124468044D01*
X154450294Y-124339236D01*
X154614236Y-124175294D01*
X154743044Y-123982519D01*
X154831769Y-123768318D01*
X154877000Y-123540924D01*
X154877000Y-123309076D01*
X155063000Y-123309076D01*
X155063000Y-123540924D01*
X155108231Y-123768318D01*
X155196956Y-123982519D01*
X155325764Y-124175294D01*
X155489706Y-124339236D01*
X155682481Y-124468044D01*
X155896682Y-124556769D01*
X156124076Y-124602000D01*
X156355924Y-124602000D01*
X156583318Y-124556769D01*
X156797519Y-124468044D01*
X156990294Y-124339236D01*
X157154236Y-124175294D01*
X157283044Y-123982519D01*
X157371769Y-123768318D01*
X157417000Y-123540924D01*
X157417000Y-123309076D01*
X157603000Y-123309076D01*
X157603000Y-123540924D01*
X157648231Y-123768318D01*
X157736956Y-123982519D01*
X157865764Y-124175294D01*
X158029706Y-124339236D01*
X158222481Y-124468044D01*
X158436682Y-124556769D01*
X158664076Y-124602000D01*
X158895924Y-124602000D01*
X159123318Y-124556769D01*
X159337519Y-124468044D01*
X159530294Y-124339236D01*
X159694236Y-124175294D01*
X159823044Y-123982519D01*
X159911769Y-123768318D01*
X159957000Y-123540924D01*
X159957000Y-123309076D01*
X160143000Y-123309076D01*
X160143000Y-123540924D01*
X160188231Y-123768318D01*
X160276956Y-123982519D01*
X160405764Y-124175294D01*
X160569706Y-124339236D01*
X160762481Y-124468044D01*
X160976682Y-124556769D01*
X161204076Y-124602000D01*
X161435924Y-124602000D01*
X161663318Y-124556769D01*
X161877519Y-124468044D01*
X162070294Y-124339236D01*
X162234236Y-124175294D01*
X162363044Y-123982519D01*
X162451769Y-123768318D01*
X162497000Y-123540924D01*
X162497000Y-123309076D01*
X162683000Y-123309076D01*
X162683000Y-123540924D01*
X162728231Y-123768318D01*
X162816956Y-123982519D01*
X162945764Y-124175294D01*
X163109706Y-124339236D01*
X163302481Y-124468044D01*
X163516682Y-124556769D01*
X163744076Y-124602000D01*
X163975924Y-124602000D01*
X164203318Y-124556769D01*
X164417519Y-124468044D01*
X164610294Y-124339236D01*
X164774236Y-124175294D01*
X164903044Y-123982519D01*
X164991769Y-123768318D01*
X165037000Y-123540924D01*
X165037000Y-123309076D01*
X164991769Y-123081682D01*
X164903044Y-122867481D01*
X164774236Y-122674706D01*
X164610294Y-122510764D01*
X164417519Y-122381956D01*
X164203318Y-122293231D01*
X163975924Y-122248000D01*
X163744076Y-122248000D01*
X163516682Y-122293231D01*
X163302481Y-122381956D01*
X163109706Y-122510764D01*
X162945764Y-122674706D01*
X162816956Y-122867481D01*
X162728231Y-123081682D01*
X162683000Y-123309076D01*
X162497000Y-123309076D01*
X162451769Y-123081682D01*
X162363044Y-122867481D01*
X162234236Y-122674706D01*
X162070294Y-122510764D01*
X161877519Y-122381956D01*
X161663318Y-122293231D01*
X161435924Y-122248000D01*
X161204076Y-122248000D01*
X160976682Y-122293231D01*
X160762481Y-122381956D01*
X160569706Y-122510764D01*
X160405764Y-122674706D01*
X160276956Y-122867481D01*
X160188231Y-123081682D01*
X160143000Y-123309076D01*
X159957000Y-123309076D01*
X159911769Y-123081682D01*
X159823044Y-122867481D01*
X159694236Y-122674706D01*
X159530294Y-122510764D01*
X159337519Y-122381956D01*
X159123318Y-122293231D01*
X158895924Y-122248000D01*
X158664076Y-122248000D01*
X158436682Y-122293231D01*
X158222481Y-122381956D01*
X158029706Y-122510764D01*
X157865764Y-122674706D01*
X157736956Y-122867481D01*
X157648231Y-123081682D01*
X157603000Y-123309076D01*
X157417000Y-123309076D01*
X157371769Y-123081682D01*
X157283044Y-122867481D01*
X157154236Y-122674706D01*
X156990294Y-122510764D01*
X156797519Y-122381956D01*
X156583318Y-122293231D01*
X156355924Y-122248000D01*
X156124076Y-122248000D01*
X155896682Y-122293231D01*
X155682481Y-122381956D01*
X155489706Y-122510764D01*
X155325764Y-122674706D01*
X155196956Y-122867481D01*
X155108231Y-123081682D01*
X155063000Y-123309076D01*
X154877000Y-123309076D01*
X154831769Y-123081682D01*
X154743044Y-122867481D01*
X154614236Y-122674706D01*
X154450294Y-122510764D01*
X154257519Y-122381956D01*
X154043318Y-122293231D01*
X153815924Y-122248000D01*
X153584076Y-122248000D01*
X153356682Y-122293231D01*
X153142481Y-122381956D01*
X152949706Y-122510764D01*
X152785764Y-122674706D01*
X152656956Y-122867481D01*
X152568231Y-123081682D01*
X152523000Y-123309076D01*
X152337000Y-123309076D01*
X152291769Y-123081682D01*
X152203044Y-122867481D01*
X152074236Y-122674706D01*
X151910294Y-122510764D01*
X151717519Y-122381956D01*
X151503318Y-122293231D01*
X151275924Y-122248000D01*
X151044076Y-122248000D01*
X150816682Y-122293231D01*
X150602481Y-122381956D01*
X150409706Y-122510764D01*
X150245764Y-122674706D01*
X150116956Y-122867481D01*
X150028231Y-123081682D01*
X149983000Y-123309076D01*
X149797000Y-123309076D01*
X149751769Y-123081682D01*
X149663044Y-122867481D01*
X149534236Y-122674706D01*
X149370294Y-122510764D01*
X149347000Y-122495199D01*
X149347000Y-100955708D01*
X149350517Y-100920000D01*
X149336480Y-100777482D01*
X149294910Y-100640443D01*
X149282101Y-100616480D01*
X149227403Y-100514147D01*
X149136553Y-100403446D01*
X149108816Y-100380683D01*
X146239326Y-97511194D01*
X146216554Y-97483446D01*
X146105853Y-97392597D01*
X145979557Y-97325090D01*
X145842517Y-97283520D01*
X145735708Y-97273000D01*
X145700000Y-97269483D01*
X145664292Y-97273000D01*
X144978582Y-97273000D01*
X144978582Y-97150000D01*
X144972268Y-97085897D01*
X144953570Y-97024257D01*
X144923206Y-96967450D01*
X144882343Y-96917657D01*
X144832550Y-96876794D01*
X144775743Y-96846430D01*
X144714103Y-96827732D01*
X144650000Y-96821418D01*
X142950000Y-96821418D01*
X142885897Y-96827732D01*
X142824257Y-96846430D01*
X142767450Y-96876794D01*
X142717657Y-96917657D01*
X142676794Y-96967450D01*
X142646430Y-97024257D01*
X142627732Y-97085897D01*
X142621418Y-97150000D01*
X141327000Y-97150000D01*
X141327000Y-95301132D01*
X142301134Y-94327000D01*
X166998868Y-94327000D01*
X167973000Y-95301134D01*
X167973001Y-127098865D01*
X165898868Y-129173000D01*
X145101133Y-129173000D01*
X144267000Y-128338868D01*
X144267000Y-126894801D01*
X144290294Y-126879236D01*
X144454236Y-126715294D01*
X144583044Y-126522519D01*
X144671769Y-126308318D01*
X144717000Y-126080924D01*
X144717000Y-125849076D01*
X144903000Y-125849076D01*
X144903000Y-126080924D01*
X144948231Y-126308318D01*
X145036956Y-126522519D01*
X145165764Y-126715294D01*
X145329706Y-126879236D01*
X145522481Y-127008044D01*
X145736682Y-127096769D01*
X145964076Y-127142000D01*
X146195924Y-127142000D01*
X146423318Y-127096769D01*
X146637519Y-127008044D01*
X146830294Y-126879236D01*
X146994236Y-126715294D01*
X147123044Y-126522519D01*
X147211769Y-126308318D01*
X147257000Y-126080924D01*
X147257000Y-125849076D01*
X147443000Y-125849076D01*
X147443000Y-126080924D01*
X147488231Y-126308318D01*
X147576956Y-126522519D01*
X147705764Y-126715294D01*
X147869706Y-126879236D01*
X148062481Y-127008044D01*
X148276682Y-127096769D01*
X148504076Y-127142000D01*
X148735924Y-127142000D01*
X148963318Y-127096769D01*
X149177519Y-127008044D01*
X149370294Y-126879236D01*
X149534236Y-126715294D01*
X149663044Y-126522519D01*
X149751769Y-126308318D01*
X149797000Y-126080924D01*
X149797000Y-125849076D01*
X149983000Y-125849076D01*
X149983000Y-126080924D01*
X150028231Y-126308318D01*
X150116956Y-126522519D01*
X150245764Y-126715294D01*
X150409706Y-126879236D01*
X150602481Y-127008044D01*
X150816682Y-127096769D01*
X151044076Y-127142000D01*
X151275924Y-127142000D01*
X151503318Y-127096769D01*
X151717519Y-127008044D01*
X151910294Y-126879236D01*
X152074236Y-126715294D01*
X152203044Y-126522519D01*
X152291769Y-126308318D01*
X152337000Y-126080924D01*
X152337000Y-125849076D01*
X152523000Y-125849076D01*
X152523000Y-126080924D01*
X152568231Y-126308318D01*
X152656956Y-126522519D01*
X152785764Y-126715294D01*
X152949706Y-126879236D01*
X153142481Y-127008044D01*
X153356682Y-127096769D01*
X153584076Y-127142000D01*
X153815924Y-127142000D01*
X154043318Y-127096769D01*
X154257519Y-127008044D01*
X154450294Y-126879236D01*
X154614236Y-126715294D01*
X154743044Y-126522519D01*
X154831769Y-126308318D01*
X154877000Y-126080924D01*
X154877000Y-125849076D01*
X155063000Y-125849076D01*
X155063000Y-126080924D01*
X155108231Y-126308318D01*
X155196956Y-126522519D01*
X155325764Y-126715294D01*
X155489706Y-126879236D01*
X155682481Y-127008044D01*
X155896682Y-127096769D01*
X156124076Y-127142000D01*
X156355924Y-127142000D01*
X156583318Y-127096769D01*
X156797519Y-127008044D01*
X156990294Y-126879236D01*
X157154236Y-126715294D01*
X157283044Y-126522519D01*
X157371769Y-126308318D01*
X157417000Y-126080924D01*
X157417000Y-125849076D01*
X157603000Y-125849076D01*
X157603000Y-126080924D01*
X157648231Y-126308318D01*
X157736956Y-126522519D01*
X157865764Y-126715294D01*
X158029706Y-126879236D01*
X158222481Y-127008044D01*
X158436682Y-127096769D01*
X158664076Y-127142000D01*
X158895924Y-127142000D01*
X159123318Y-127096769D01*
X159337519Y-127008044D01*
X159530294Y-126879236D01*
X159694236Y-126715294D01*
X159823044Y-126522519D01*
X159911769Y-126308318D01*
X159957000Y-126080924D01*
X159957000Y-125849076D01*
X160143000Y-125849076D01*
X160143000Y-126080924D01*
X160188231Y-126308318D01*
X160276956Y-126522519D01*
X160405764Y-126715294D01*
X160569706Y-126879236D01*
X160762481Y-127008044D01*
X160976682Y-127096769D01*
X161204076Y-127142000D01*
X161435924Y-127142000D01*
X161663318Y-127096769D01*
X161877519Y-127008044D01*
X162070294Y-126879236D01*
X162234236Y-126715294D01*
X162363044Y-126522519D01*
X162451769Y-126308318D01*
X162497000Y-126080924D01*
X162497000Y-125849076D01*
X162683000Y-125849076D01*
X162683000Y-126080924D01*
X162728231Y-126308318D01*
X162816956Y-126522519D01*
X162945764Y-126715294D01*
X163109706Y-126879236D01*
X163302481Y-127008044D01*
X163516682Y-127096769D01*
X163744076Y-127142000D01*
X163975924Y-127142000D01*
X164203318Y-127096769D01*
X164417519Y-127008044D01*
X164610294Y-126879236D01*
X164774236Y-126715294D01*
X164903044Y-126522519D01*
X164991769Y-126308318D01*
X165037000Y-126080924D01*
X165037000Y-125849076D01*
X164991769Y-125621682D01*
X164903044Y-125407481D01*
X164774236Y-125214706D01*
X164610294Y-125050764D01*
X164417519Y-124921956D01*
X164203318Y-124833231D01*
X163975924Y-124788000D01*
X163744076Y-124788000D01*
X163516682Y-124833231D01*
X163302481Y-124921956D01*
X163109706Y-125050764D01*
X162945764Y-125214706D01*
X162816956Y-125407481D01*
X162728231Y-125621682D01*
X162683000Y-125849076D01*
X162497000Y-125849076D01*
X162451769Y-125621682D01*
X162363044Y-125407481D01*
X162234236Y-125214706D01*
X162070294Y-125050764D01*
X161877519Y-124921956D01*
X161663318Y-124833231D01*
X161435924Y-124788000D01*
X161204076Y-124788000D01*
X160976682Y-124833231D01*
X160762481Y-124921956D01*
X160569706Y-125050764D01*
X160405764Y-125214706D01*
X160276956Y-125407481D01*
X160188231Y-125621682D01*
X160143000Y-125849076D01*
X159957000Y-125849076D01*
X159911769Y-125621682D01*
X159823044Y-125407481D01*
X159694236Y-125214706D01*
X159530294Y-125050764D01*
X159337519Y-124921956D01*
X159123318Y-124833231D01*
X158895924Y-124788000D01*
X158664076Y-124788000D01*
X158436682Y-124833231D01*
X158222481Y-124921956D01*
X158029706Y-125050764D01*
X157865764Y-125214706D01*
X157736956Y-125407481D01*
X157648231Y-125621682D01*
X157603000Y-125849076D01*
X157417000Y-125849076D01*
X157371769Y-125621682D01*
X157283044Y-125407481D01*
X157154236Y-125214706D01*
X156990294Y-125050764D01*
X156797519Y-124921956D01*
X156583318Y-124833231D01*
X156355924Y-124788000D01*
X156124076Y-124788000D01*
X155896682Y-124833231D01*
X155682481Y-124921956D01*
X155489706Y-125050764D01*
X155325764Y-125214706D01*
X155196956Y-125407481D01*
X155108231Y-125621682D01*
X155063000Y-125849076D01*
X154877000Y-125849076D01*
X154831769Y-125621682D01*
X154743044Y-125407481D01*
X154614236Y-125214706D01*
X154450294Y-125050764D01*
X154257519Y-124921956D01*
X154043318Y-124833231D01*
X153815924Y-124788000D01*
X153584076Y-124788000D01*
X153356682Y-124833231D01*
X153142481Y-124921956D01*
X152949706Y-125050764D01*
X152785764Y-125214706D01*
X152656956Y-125407481D01*
X152568231Y-125621682D01*
X152523000Y-125849076D01*
X152337000Y-125849076D01*
X152291769Y-125621682D01*
X152203044Y-125407481D01*
X152074236Y-125214706D01*
X151910294Y-125050764D01*
X151717519Y-124921956D01*
X151503318Y-124833231D01*
X151275924Y-124788000D01*
X151044076Y-124788000D01*
X150816682Y-124833231D01*
X150602481Y-124921956D01*
X150409706Y-125050764D01*
X150245764Y-125214706D01*
X150116956Y-125407481D01*
X150028231Y-125621682D01*
X149983000Y-125849076D01*
X149797000Y-125849076D01*
X149751769Y-125621682D01*
X149663044Y-125407481D01*
X149534236Y-125214706D01*
X149370294Y-125050764D01*
X149177519Y-124921956D01*
X148963318Y-124833231D01*
X148735924Y-124788000D01*
X148504076Y-124788000D01*
X148276682Y-124833231D01*
X148062481Y-124921956D01*
X147869706Y-125050764D01*
X147705764Y-125214706D01*
X147576956Y-125407481D01*
X147488231Y-125621682D01*
X147443000Y-125849076D01*
X147257000Y-125849076D01*
X147211769Y-125621682D01*
X147123044Y-125407481D01*
X146994236Y-125214706D01*
X146830294Y-125050764D01*
X146637519Y-124921956D01*
X146423318Y-124833231D01*
X146195924Y-124788000D01*
X145964076Y-124788000D01*
X145736682Y-124833231D01*
X145522481Y-124921956D01*
X145329706Y-125050764D01*
X145165764Y-125214706D01*
X145036956Y-125407481D01*
X144948231Y-125621682D01*
X144903000Y-125849076D01*
X144717000Y-125849076D01*
X144671769Y-125621682D01*
X144583044Y-125407481D01*
X144454236Y-125214706D01*
X144290294Y-125050764D01*
X144097519Y-124921956D01*
X143883318Y-124833231D01*
X143655924Y-124788000D01*
X143424076Y-124788000D01*
X143196682Y-124833231D01*
X142982481Y-124921956D01*
X142789706Y-125050764D01*
X142625764Y-125214706D01*
X142496956Y-125407481D01*
X142408231Y-125621682D01*
X142363000Y-125849076D01*
X142363000Y-126080924D01*
X142408231Y-126308318D01*
X142496956Y-126522519D01*
X142625764Y-126715294D01*
X142789706Y-126879236D01*
X142813001Y-126894801D01*
X142813000Y-128604292D01*
X142809483Y-128640000D01*
X142823520Y-128782517D01*
X142841721Y-128842517D01*
X142865090Y-128919556D01*
X142932597Y-129045852D01*
X143023446Y-129156553D01*
X143051189Y-129179321D01*
X144044877Y-130173010D01*
X143501144Y-130173010D01*
X141727000Y-128398868D01*
X141727000Y-126894801D01*
X141750294Y-126879236D01*
X141914236Y-126715294D01*
X142043044Y-126522519D01*
X142131769Y-126308318D01*
X142177000Y-126080924D01*
X142177000Y-125849076D01*
X142131769Y-125621682D01*
X142043044Y-125407481D01*
X141914236Y-125214706D01*
X141750294Y-125050764D01*
X141557519Y-124921956D01*
X141343318Y-124833231D01*
X141115924Y-124788000D01*
X140884076Y-124788000D01*
X140656682Y-124833231D01*
X140442481Y-124921956D01*
X140249706Y-125050764D01*
X140085764Y-125214706D01*
X139956956Y-125407481D01*
X139868231Y-125621682D01*
X139823000Y-125849076D01*
X139823000Y-126080924D01*
X139868231Y-126308318D01*
X139956956Y-126522519D01*
X140085764Y-126715294D01*
X140249706Y-126879236D01*
X140273001Y-126894801D01*
X140273000Y-128664292D01*
X140269483Y-128700000D01*
X140273000Y-128735707D01*
X140283520Y-128842516D01*
X140325090Y-128979556D01*
X140392597Y-129105852D01*
X140483446Y-129216553D01*
X140511189Y-129239321D01*
X142660698Y-131388832D01*
X142683456Y-131416563D01*
X142711187Y-131439321D01*
X142711192Y-131439326D01*
X142794156Y-131507412D01*
X142920453Y-131574920D01*
X143057492Y-131616490D01*
X143200010Y-131630527D01*
X143235728Y-131627009D01*
X166578510Y-131627011D01*
X166614218Y-131630528D01*
X166756735Y-131616491D01*
X166893774Y-131574921D01*
X166893778Y-131574919D01*
X167020070Y-131507414D01*
X167130771Y-131416565D01*
X167153538Y-131388823D01*
X170188823Y-128353539D01*
X170216565Y-128330772D01*
X170307414Y-128220071D01*
X170374921Y-128093775D01*
X170416491Y-127956735D01*
X170427011Y-127849926D01*
X170427011Y-127849924D01*
X170430528Y-127814219D01*
X170427011Y-127778513D01*
X170427011Y-94621487D01*
X170430528Y-94585781D01*
X170423180Y-94511182D01*
X170416491Y-94443265D01*
X170374921Y-94306225D01*
X170307414Y-94179929D01*
X170216564Y-94069228D01*
X170188827Y-94046465D01*
X168253544Y-92111183D01*
X168230772Y-92083435D01*
X168120071Y-91992586D01*
X167993775Y-91925079D01*
X167856735Y-91883509D01*
X167749926Y-91872989D01*
X167714218Y-91869472D01*
X167678510Y-91872989D01*
X141621487Y-91872989D01*
X141585781Y-91869472D01*
X141550076Y-91872989D01*
X141550074Y-91872989D01*
X141443265Y-91883509D01*
X141306225Y-91925079D01*
X141179929Y-91992586D01*
X141069228Y-92083435D01*
X141046461Y-92111177D01*
X139111178Y-94046461D01*
X139083436Y-94069228D01*
X138992588Y-94179928D01*
X138992587Y-94179929D01*
X138925079Y-94306226D01*
X138883509Y-94443265D01*
X138869472Y-94585782D01*
X138872990Y-94621500D01*
X138872989Y-105298877D01*
X137938868Y-106233000D01*
X137778582Y-106233000D01*
X137778582Y-106110000D01*
X137772268Y-106045897D01*
X137753570Y-105984257D01*
X137723206Y-105927450D01*
X137682343Y-105877657D01*
X137632550Y-105836794D01*
X137575743Y-105806430D01*
X137514103Y-105787732D01*
X137450000Y-105781418D01*
X137327000Y-105781418D01*
X137327000Y-101369801D01*
X137350294Y-101354236D01*
X137514236Y-101190294D01*
X137643044Y-100997519D01*
X137731769Y-100783318D01*
X137777000Y-100555924D01*
X137777000Y-100324076D01*
X137731769Y-100096682D01*
X137643044Y-99882481D01*
X137514236Y-99689706D01*
X137350294Y-99525764D01*
X137157519Y-99396956D01*
X136943318Y-99308231D01*
X136715924Y-99263000D01*
X136484076Y-99263000D01*
X136256682Y-99308231D01*
X136042481Y-99396956D01*
X135849706Y-99525764D01*
X135685764Y-99689706D01*
X135556956Y-99882481D01*
X135468231Y-100096682D01*
X135423000Y-100324076D01*
X135423000Y-100555924D01*
X135468231Y-100783318D01*
X135556956Y-100997519D01*
X135685764Y-101190294D01*
X135849706Y-101354236D01*
X135873000Y-101369801D01*
X135873001Y-105781418D01*
X135750000Y-105781418D01*
X135685897Y-105787732D01*
X135624257Y-105806430D01*
X135567450Y-105836794D01*
X135517657Y-105877657D01*
X135476794Y-105927450D01*
X135446430Y-105984257D01*
X135427732Y-106045897D01*
X135421418Y-106110000D01*
X135421418Y-107810000D01*
X135427732Y-107874103D01*
X135446430Y-107935743D01*
X135476794Y-107992550D01*
X135517657Y-108042343D01*
X135567450Y-108083206D01*
X135624257Y-108113570D01*
X135685897Y-108132268D01*
X135750000Y-108138582D01*
X136017408Y-108138582D01*
X135968748Y-108155843D01*
X135718645Y-108304822D01*
X135502412Y-108499731D01*
X135328359Y-108733080D01*
X135203175Y-108995901D01*
X135158524Y-109143110D01*
X132727000Y-109143110D01*
X132727000Y-100201132D01*
X134301133Y-98627000D01*
X135421418Y-98627000D01*
X135421418Y-98750000D01*
X135427732Y-98814103D01*
X135446430Y-98875743D01*
X135476794Y-98932550D01*
X135517657Y-98982343D01*
X135567450Y-99023206D01*
X135624257Y-99053570D01*
X135685897Y-99072268D01*
X135750000Y-99078582D01*
X137450000Y-99078582D01*
X137514103Y-99072268D01*
X137575743Y-99053570D01*
X137632550Y-99023206D01*
X137682343Y-98982343D01*
X137723206Y-98932550D01*
X137753570Y-98875743D01*
X137772268Y-98814103D01*
X137778582Y-98750000D01*
X137778582Y-97050000D01*
X137772268Y-96985897D01*
X137753570Y-96924257D01*
X137723206Y-96867450D01*
X137682343Y-96817657D01*
X137632550Y-96776794D01*
X137575743Y-96746430D01*
X137514103Y-96727732D01*
X137450000Y-96721418D01*
X135750000Y-96721418D01*
X135685897Y-96727732D01*
X135624257Y-96746430D01*
X135567450Y-96776794D01*
X135517657Y-96817657D01*
X135476794Y-96867450D01*
X135446430Y-96924257D01*
X135427732Y-96985897D01*
X135421418Y-97050000D01*
X135421418Y-97173000D01*
X134035707Y-97173000D01*
X133999999Y-97169483D01*
X133857482Y-97183520D01*
X133825587Y-97193195D01*
X133720443Y-97225090D01*
X133594147Y-97292597D01*
X133483446Y-97383446D01*
X133460679Y-97411188D01*
X131511189Y-99360679D01*
X131483446Y-99383447D01*
X131392597Y-99494148D01*
X131375698Y-99525764D01*
X131325090Y-99620444D01*
X131283520Y-99757483D01*
X131269483Y-99900000D01*
X103152000Y-99900000D01*
X103152000Y-77564176D01*
X107763900Y-77564176D01*
X107763900Y-77796024D01*
X107809131Y-78023418D01*
X107897856Y-78237619D01*
X108026664Y-78430394D01*
X108190606Y-78594336D01*
X108383381Y-78723144D01*
X108597582Y-78811869D01*
X108824976Y-78857100D01*
X109056824Y-78857100D01*
X109284218Y-78811869D01*
X109498419Y-78723144D01*
X109691194Y-78594336D01*
X109855136Y-78430394D01*
X109983944Y-78237619D01*
X110072669Y-78023418D01*
X110117900Y-77796024D01*
X110117900Y-77564176D01*
X110303900Y-77564176D01*
X110303900Y-77796024D01*
X110349131Y-78023418D01*
X110437856Y-78237619D01*
X110566664Y-78430394D01*
X110730606Y-78594336D01*
X110923381Y-78723144D01*
X111137582Y-78811869D01*
X111364976Y-78857100D01*
X111596824Y-78857100D01*
X111824218Y-78811869D01*
X112038419Y-78723144D01*
X112231194Y-78594336D01*
X112395136Y-78430394D01*
X112523944Y-78237619D01*
X112612669Y-78023418D01*
X112657900Y-77796024D01*
X112657900Y-77564176D01*
X112843900Y-77564176D01*
X112843900Y-77796024D01*
X112889131Y-78023418D01*
X112977856Y-78237619D01*
X113106664Y-78430394D01*
X113270606Y-78594336D01*
X113463381Y-78723144D01*
X113677582Y-78811869D01*
X113904976Y-78857100D01*
X114136824Y-78857100D01*
X114364218Y-78811869D01*
X114578419Y-78723144D01*
X114771194Y-78594336D01*
X114935136Y-78430394D01*
X115063944Y-78237619D01*
X115152669Y-78023418D01*
X115197900Y-77796024D01*
X115197900Y-77564176D01*
X115383900Y-77564176D01*
X115383900Y-77796024D01*
X115429131Y-78023418D01*
X115517856Y-78237619D01*
X115646664Y-78430394D01*
X115810606Y-78594336D01*
X116003381Y-78723144D01*
X116217582Y-78811869D01*
X116444976Y-78857100D01*
X116676824Y-78857100D01*
X116904218Y-78811869D01*
X117118419Y-78723144D01*
X117311194Y-78594336D01*
X117475136Y-78430394D01*
X117603944Y-78237619D01*
X117692669Y-78023418D01*
X117737900Y-77796024D01*
X117737900Y-77564176D01*
X117923900Y-77564176D01*
X117923900Y-77796024D01*
X117969131Y-78023418D01*
X118057856Y-78237619D01*
X118186664Y-78430394D01*
X118350606Y-78594336D01*
X118543381Y-78723144D01*
X118757582Y-78811869D01*
X118984976Y-78857100D01*
X119216824Y-78857100D01*
X119444218Y-78811869D01*
X119658419Y-78723144D01*
X119851194Y-78594336D01*
X120015136Y-78430394D01*
X120143944Y-78237619D01*
X120232669Y-78023418D01*
X120277900Y-77796024D01*
X120277900Y-77564176D01*
X120232669Y-77336782D01*
X120143944Y-77122581D01*
X120015136Y-76929806D01*
X119851194Y-76765864D01*
X119658419Y-76637056D01*
X119444218Y-76548331D01*
X119216824Y-76503100D01*
X118984976Y-76503100D01*
X118757582Y-76548331D01*
X118543381Y-76637056D01*
X118350606Y-76765864D01*
X118186664Y-76929806D01*
X118057856Y-77122581D01*
X117969131Y-77336782D01*
X117923900Y-77564176D01*
X117737900Y-77564176D01*
X117692669Y-77336782D01*
X117603944Y-77122581D01*
X117475136Y-76929806D01*
X117311194Y-76765864D01*
X117118419Y-76637056D01*
X116904218Y-76548331D01*
X116676824Y-76503100D01*
X116444976Y-76503100D01*
X116217582Y-76548331D01*
X116003381Y-76637056D01*
X115810606Y-76765864D01*
X115646664Y-76929806D01*
X115517856Y-77122581D01*
X115429131Y-77336782D01*
X115383900Y-77564176D01*
X115197900Y-77564176D01*
X115152669Y-77336782D01*
X115063944Y-77122581D01*
X114935136Y-76929806D01*
X114771194Y-76765864D01*
X114578419Y-76637056D01*
X114364218Y-76548331D01*
X114136824Y-76503100D01*
X113904976Y-76503100D01*
X113677582Y-76548331D01*
X113463381Y-76637056D01*
X113270606Y-76765864D01*
X113106664Y-76929806D01*
X112977856Y-77122581D01*
X112889131Y-77336782D01*
X112843900Y-77564176D01*
X112657900Y-77564176D01*
X112612669Y-77336782D01*
X112523944Y-77122581D01*
X112395136Y-76929806D01*
X112231194Y-76765864D01*
X112038419Y-76637056D01*
X111824218Y-76548331D01*
X111596824Y-76503100D01*
X111364976Y-76503100D01*
X111137582Y-76548331D01*
X110923381Y-76637056D01*
X110730606Y-76765864D01*
X110566664Y-76929806D01*
X110437856Y-77122581D01*
X110349131Y-77336782D01*
X110303900Y-77564176D01*
X110117900Y-77564176D01*
X110072669Y-77336782D01*
X109983944Y-77122581D01*
X109855136Y-76929806D01*
X109691194Y-76765864D01*
X109498419Y-76637056D01*
X109284218Y-76548331D01*
X109056824Y-76503100D01*
X108824976Y-76503100D01*
X108597582Y-76548331D01*
X108383381Y-76637056D01*
X108190606Y-76765864D01*
X108026664Y-76929806D01*
X107897856Y-77122581D01*
X107809131Y-77336782D01*
X107763900Y-77564176D01*
X103152000Y-77564176D01*
X103152000Y-74290100D01*
X107762318Y-74290100D01*
X107762318Y-75990100D01*
X107768632Y-76054203D01*
X107787330Y-76115843D01*
X107817694Y-76172650D01*
X107858557Y-76222443D01*
X107908350Y-76263306D01*
X107965157Y-76293670D01*
X108026797Y-76312368D01*
X108090900Y-76318682D01*
X109790900Y-76318682D01*
X109855003Y-76312368D01*
X109916643Y-76293670D01*
X109973450Y-76263306D01*
X110023243Y-76222443D01*
X110064106Y-76172650D01*
X110094470Y-76115843D01*
X110113168Y-76054203D01*
X110119482Y-75990100D01*
X110119482Y-75024176D01*
X110303900Y-75024176D01*
X110303900Y-75256024D01*
X110349131Y-75483418D01*
X110437856Y-75697619D01*
X110566664Y-75890394D01*
X110730606Y-76054336D01*
X110923381Y-76183144D01*
X111137582Y-76271869D01*
X111364976Y-76317100D01*
X111596824Y-76317100D01*
X111824218Y-76271869D01*
X112038419Y-76183144D01*
X112231194Y-76054336D01*
X112395136Y-75890394D01*
X112523944Y-75697619D01*
X112612669Y-75483418D01*
X112657900Y-75256024D01*
X112657900Y-75024176D01*
X112843900Y-75024176D01*
X112843900Y-75256024D01*
X112889131Y-75483418D01*
X112977856Y-75697619D01*
X113106664Y-75890394D01*
X113270606Y-76054336D01*
X113463381Y-76183144D01*
X113677582Y-76271869D01*
X113904976Y-76317100D01*
X114136824Y-76317100D01*
X114364218Y-76271869D01*
X114578419Y-76183144D01*
X114771194Y-76054336D01*
X114935136Y-75890394D01*
X115063944Y-75697619D01*
X115152669Y-75483418D01*
X115197900Y-75256024D01*
X115197900Y-75024176D01*
X115383900Y-75024176D01*
X115383900Y-75256024D01*
X115429131Y-75483418D01*
X115517856Y-75697619D01*
X115646664Y-75890394D01*
X115810606Y-76054336D01*
X116003381Y-76183144D01*
X116217582Y-76271869D01*
X116444976Y-76317100D01*
X116676824Y-76317100D01*
X116904218Y-76271869D01*
X117118419Y-76183144D01*
X117311194Y-76054336D01*
X117475136Y-75890394D01*
X117603944Y-75697619D01*
X117692669Y-75483418D01*
X117737900Y-75256024D01*
X117737900Y-75024176D01*
X117923900Y-75024176D01*
X117923900Y-75256024D01*
X117969131Y-75483418D01*
X118057856Y-75697619D01*
X118186664Y-75890394D01*
X118350606Y-76054336D01*
X118543381Y-76183144D01*
X118757582Y-76271869D01*
X118984976Y-76317100D01*
X119216824Y-76317100D01*
X119444218Y-76271869D01*
X119658419Y-76183144D01*
X119851194Y-76054336D01*
X120015136Y-75890394D01*
X120143944Y-75697619D01*
X120212164Y-75532921D01*
X120296743Y-75771352D01*
X120445722Y-76021455D01*
X120640631Y-76237688D01*
X120873980Y-76411741D01*
X121136801Y-76536925D01*
X121245512Y-76569899D01*
X121083381Y-76637056D01*
X120890606Y-76765864D01*
X120726664Y-76929806D01*
X120597856Y-77122581D01*
X120509131Y-77336782D01*
X120463900Y-77564176D01*
X120463900Y-77796024D01*
X120509131Y-78023418D01*
X120597856Y-78237619D01*
X120726664Y-78430394D01*
X120890606Y-78594336D01*
X121083381Y-78723144D01*
X121297582Y-78811869D01*
X121524976Y-78857100D01*
X121756824Y-78857100D01*
X121984218Y-78811869D01*
X122198419Y-78723144D01*
X122391194Y-78594336D01*
X122555136Y-78430394D01*
X122683944Y-78237619D01*
X122772669Y-78023418D01*
X122817900Y-77796024D01*
X122817900Y-77564176D01*
X123003900Y-77564176D01*
X123003900Y-77796024D01*
X123049131Y-78023418D01*
X123137856Y-78237619D01*
X123266664Y-78430394D01*
X123430606Y-78594336D01*
X123623381Y-78723144D01*
X123837582Y-78811869D01*
X124064976Y-78857100D01*
X124296824Y-78857100D01*
X124524218Y-78811869D01*
X124738419Y-78723144D01*
X124931194Y-78594336D01*
X125095136Y-78430394D01*
X125223944Y-78237619D01*
X125312669Y-78023418D01*
X125357900Y-77796024D01*
X125357900Y-77564176D01*
X125543900Y-77564176D01*
X125543900Y-77796024D01*
X125589131Y-78023418D01*
X125677856Y-78237619D01*
X125806664Y-78430394D01*
X125970606Y-78594336D01*
X126163381Y-78723144D01*
X126377582Y-78811869D01*
X126604976Y-78857100D01*
X126836824Y-78857100D01*
X127064218Y-78811869D01*
X127278419Y-78723144D01*
X127471194Y-78594336D01*
X127635136Y-78430394D01*
X127763944Y-78237619D01*
X127852669Y-78023418D01*
X127897900Y-77796024D01*
X127897900Y-77564176D01*
X128083900Y-77564176D01*
X128083900Y-77796024D01*
X128129131Y-78023418D01*
X128217856Y-78237619D01*
X128346664Y-78430394D01*
X128510606Y-78594336D01*
X128703381Y-78723144D01*
X128917582Y-78811869D01*
X129144976Y-78857100D01*
X129376824Y-78857100D01*
X129604218Y-78811869D01*
X129818419Y-78723144D01*
X130011194Y-78594336D01*
X130175136Y-78430394D01*
X130303944Y-78237619D01*
X130392669Y-78023418D01*
X130437900Y-77796024D01*
X130437900Y-77564176D01*
X130623900Y-77564176D01*
X130623900Y-77796024D01*
X130669131Y-78023418D01*
X130757856Y-78237619D01*
X130886664Y-78430394D01*
X131050606Y-78594336D01*
X131243381Y-78723144D01*
X131457582Y-78811869D01*
X131684976Y-78857100D01*
X131916824Y-78857100D01*
X132144218Y-78811869D01*
X132358419Y-78723144D01*
X132551194Y-78594336D01*
X132715136Y-78430394D01*
X132843944Y-78237619D01*
X132932669Y-78023418D01*
X132977900Y-77796024D01*
X132977900Y-77581476D01*
X134743000Y-77581476D01*
X134743000Y-77813324D01*
X134788231Y-78040718D01*
X134876956Y-78254919D01*
X135005764Y-78447694D01*
X135169706Y-78611636D01*
X135362481Y-78740444D01*
X135576682Y-78829169D01*
X135804076Y-78874400D01*
X136035924Y-78874400D01*
X136263318Y-78829169D01*
X136477519Y-78740444D01*
X136670294Y-78611636D01*
X136834236Y-78447694D01*
X136963044Y-78254919D01*
X137051769Y-78040718D01*
X137097000Y-77813324D01*
X137097000Y-77581476D01*
X137283000Y-77581476D01*
X137283000Y-77813324D01*
X137328231Y-78040718D01*
X137416956Y-78254919D01*
X137545764Y-78447694D01*
X137709706Y-78611636D01*
X137902481Y-78740444D01*
X138116682Y-78829169D01*
X138344076Y-78874400D01*
X138575924Y-78874400D01*
X138803318Y-78829169D01*
X139017519Y-78740444D01*
X139210294Y-78611636D01*
X139374236Y-78447694D01*
X139503044Y-78254919D01*
X139591769Y-78040718D01*
X139637000Y-77813324D01*
X139637000Y-77581476D01*
X139823000Y-77581476D01*
X139823000Y-77813324D01*
X139868231Y-78040718D01*
X139956956Y-78254919D01*
X140085764Y-78447694D01*
X140249706Y-78611636D01*
X140442481Y-78740444D01*
X140656682Y-78829169D01*
X140884076Y-78874400D01*
X141115924Y-78874400D01*
X141343318Y-78829169D01*
X141557519Y-78740444D01*
X141750294Y-78611636D01*
X141914236Y-78447694D01*
X142043044Y-78254919D01*
X142131769Y-78040718D01*
X142177000Y-77813324D01*
X142177000Y-77581476D01*
X142363000Y-77581476D01*
X142363000Y-77813324D01*
X142408231Y-78040718D01*
X142496956Y-78254919D01*
X142625764Y-78447694D01*
X142789706Y-78611636D01*
X142982481Y-78740444D01*
X143196682Y-78829169D01*
X143424076Y-78874400D01*
X143655924Y-78874400D01*
X143883318Y-78829169D01*
X144097519Y-78740444D01*
X144290294Y-78611636D01*
X144454236Y-78447694D01*
X144583044Y-78254919D01*
X144671769Y-78040718D01*
X144717000Y-77813324D01*
X144717000Y-77581476D01*
X144903000Y-77581476D01*
X144903000Y-77813324D01*
X144948231Y-78040718D01*
X145036956Y-78254919D01*
X145165764Y-78447694D01*
X145329706Y-78611636D01*
X145522481Y-78740444D01*
X145736682Y-78829169D01*
X145964076Y-78874400D01*
X146195924Y-78874400D01*
X146423318Y-78829169D01*
X146637519Y-78740444D01*
X146830294Y-78611636D01*
X146994236Y-78447694D01*
X147123044Y-78254919D01*
X147211769Y-78040718D01*
X147257000Y-77813324D01*
X147257000Y-77581476D01*
X147443000Y-77581476D01*
X147443000Y-77813324D01*
X147488231Y-78040718D01*
X147576956Y-78254919D01*
X147705764Y-78447694D01*
X147869706Y-78611636D01*
X148062481Y-78740444D01*
X148276682Y-78829169D01*
X148504076Y-78874400D01*
X148735924Y-78874400D01*
X148963318Y-78829169D01*
X149177519Y-78740444D01*
X149370294Y-78611636D01*
X149534236Y-78447694D01*
X149663044Y-78254919D01*
X149751769Y-78040718D01*
X149797000Y-77813324D01*
X149797000Y-77581476D01*
X149983000Y-77581476D01*
X149983000Y-77813324D01*
X150028231Y-78040718D01*
X150116956Y-78254919D01*
X150245764Y-78447694D01*
X150409706Y-78611636D01*
X150602481Y-78740444D01*
X150816682Y-78829169D01*
X151044076Y-78874400D01*
X151275924Y-78874400D01*
X151503318Y-78829169D01*
X151717519Y-78740444D01*
X151910294Y-78611636D01*
X152074236Y-78447694D01*
X152203044Y-78254919D01*
X152291769Y-78040718D01*
X152337000Y-77813324D01*
X152337000Y-77581476D01*
X152523000Y-77581476D01*
X152523000Y-77813324D01*
X152568231Y-78040718D01*
X152656956Y-78254919D01*
X152785764Y-78447694D01*
X152949706Y-78611636D01*
X153142481Y-78740444D01*
X153356682Y-78829169D01*
X153584076Y-78874400D01*
X153815924Y-78874400D01*
X154043318Y-78829169D01*
X154257519Y-78740444D01*
X154450294Y-78611636D01*
X154614236Y-78447694D01*
X154743044Y-78254919D01*
X154831769Y-78040718D01*
X154877000Y-77813324D01*
X154877000Y-77581476D01*
X154831769Y-77354082D01*
X154743044Y-77139881D01*
X154614236Y-76947106D01*
X154450294Y-76783164D01*
X154257519Y-76654356D01*
X154043318Y-76565631D01*
X153815924Y-76520400D01*
X153584076Y-76520400D01*
X153356682Y-76565631D01*
X153142481Y-76654356D01*
X152949706Y-76783164D01*
X152785764Y-76947106D01*
X152656956Y-77139881D01*
X152568231Y-77354082D01*
X152523000Y-77581476D01*
X152337000Y-77581476D01*
X152291769Y-77354082D01*
X152203044Y-77139881D01*
X152074236Y-76947106D01*
X151910294Y-76783164D01*
X151717519Y-76654356D01*
X151503318Y-76565631D01*
X151275924Y-76520400D01*
X151044076Y-76520400D01*
X150816682Y-76565631D01*
X150602481Y-76654356D01*
X150409706Y-76783164D01*
X150245764Y-76947106D01*
X150116956Y-77139881D01*
X150028231Y-77354082D01*
X149983000Y-77581476D01*
X149797000Y-77581476D01*
X149751769Y-77354082D01*
X149663044Y-77139881D01*
X149534236Y-76947106D01*
X149370294Y-76783164D01*
X149177519Y-76654356D01*
X148963318Y-76565631D01*
X148735924Y-76520400D01*
X148504076Y-76520400D01*
X148276682Y-76565631D01*
X148062481Y-76654356D01*
X147869706Y-76783164D01*
X147705764Y-76947106D01*
X147576956Y-77139881D01*
X147488231Y-77354082D01*
X147443000Y-77581476D01*
X147257000Y-77581476D01*
X147211769Y-77354082D01*
X147123044Y-77139881D01*
X146994236Y-76947106D01*
X146830294Y-76783164D01*
X146637519Y-76654356D01*
X146423318Y-76565631D01*
X146195924Y-76520400D01*
X145964076Y-76520400D01*
X145736682Y-76565631D01*
X145522481Y-76654356D01*
X145329706Y-76783164D01*
X145165764Y-76947106D01*
X145036956Y-77139881D01*
X144948231Y-77354082D01*
X144903000Y-77581476D01*
X144717000Y-77581476D01*
X144671769Y-77354082D01*
X144583044Y-77139881D01*
X144454236Y-76947106D01*
X144290294Y-76783164D01*
X144097519Y-76654356D01*
X143883318Y-76565631D01*
X143655924Y-76520400D01*
X143424076Y-76520400D01*
X143196682Y-76565631D01*
X142982481Y-76654356D01*
X142789706Y-76783164D01*
X142625764Y-76947106D01*
X142496956Y-77139881D01*
X142408231Y-77354082D01*
X142363000Y-77581476D01*
X142177000Y-77581476D01*
X142131769Y-77354082D01*
X142043044Y-77139881D01*
X141914236Y-76947106D01*
X141750294Y-76783164D01*
X141557519Y-76654356D01*
X141343318Y-76565631D01*
X141115924Y-76520400D01*
X140884076Y-76520400D01*
X140656682Y-76565631D01*
X140442481Y-76654356D01*
X140249706Y-76783164D01*
X140085764Y-76947106D01*
X139956956Y-77139881D01*
X139868231Y-77354082D01*
X139823000Y-77581476D01*
X139637000Y-77581476D01*
X139591769Y-77354082D01*
X139503044Y-77139881D01*
X139374236Y-76947106D01*
X139210294Y-76783164D01*
X139017519Y-76654356D01*
X138803318Y-76565631D01*
X138575924Y-76520400D01*
X138344076Y-76520400D01*
X138116682Y-76565631D01*
X137902481Y-76654356D01*
X137709706Y-76783164D01*
X137545764Y-76947106D01*
X137416956Y-77139881D01*
X137328231Y-77354082D01*
X137283000Y-77581476D01*
X137097000Y-77581476D01*
X137051769Y-77354082D01*
X136963044Y-77139881D01*
X136834236Y-76947106D01*
X136670294Y-76783164D01*
X136477519Y-76654356D01*
X136263318Y-76565631D01*
X136035924Y-76520400D01*
X135804076Y-76520400D01*
X135576682Y-76565631D01*
X135362481Y-76654356D01*
X135169706Y-76783164D01*
X135005764Y-76947106D01*
X134876956Y-77139881D01*
X134788231Y-77354082D01*
X134743000Y-77581476D01*
X132977900Y-77581476D01*
X132977900Y-77564176D01*
X132932669Y-77336782D01*
X132843944Y-77122581D01*
X132715136Y-76929806D01*
X132551194Y-76765864D01*
X132358419Y-76637056D01*
X132144218Y-76548331D01*
X131916824Y-76503100D01*
X131684976Y-76503100D01*
X131457582Y-76548331D01*
X131243381Y-76637056D01*
X131050606Y-76765864D01*
X130886664Y-76929806D01*
X130757856Y-77122581D01*
X130669131Y-77336782D01*
X130623900Y-77564176D01*
X130437900Y-77564176D01*
X130392669Y-77336782D01*
X130303944Y-77122581D01*
X130175136Y-76929806D01*
X130011194Y-76765864D01*
X129818419Y-76637056D01*
X129604218Y-76548331D01*
X129376824Y-76503100D01*
X129144976Y-76503100D01*
X128917582Y-76548331D01*
X128703381Y-76637056D01*
X128510606Y-76765864D01*
X128346664Y-76929806D01*
X128217856Y-77122581D01*
X128129131Y-77336782D01*
X128083900Y-77564176D01*
X127897900Y-77564176D01*
X127852669Y-77336782D01*
X127763944Y-77122581D01*
X127635136Y-76929806D01*
X127471194Y-76765864D01*
X127278419Y-76637056D01*
X127064218Y-76548331D01*
X126836824Y-76503100D01*
X126604976Y-76503100D01*
X126377582Y-76548331D01*
X126163381Y-76637056D01*
X125970606Y-76765864D01*
X125806664Y-76929806D01*
X125677856Y-77122581D01*
X125589131Y-77336782D01*
X125543900Y-77564176D01*
X125357900Y-77564176D01*
X125312669Y-77336782D01*
X125223944Y-77122581D01*
X125095136Y-76929806D01*
X124931194Y-76765864D01*
X124738419Y-76637056D01*
X124524218Y-76548331D01*
X124296824Y-76503100D01*
X124064976Y-76503100D01*
X123837582Y-76548331D01*
X123623381Y-76637056D01*
X123430606Y-76765864D01*
X123266664Y-76929806D01*
X123137856Y-77122581D01*
X123049131Y-77336782D01*
X123003900Y-77564176D01*
X122817900Y-77564176D01*
X122772669Y-77336782D01*
X122683944Y-77122581D01*
X122555136Y-76929806D01*
X122391194Y-76765864D01*
X122198419Y-76637056D01*
X122036288Y-76569899D01*
X122144999Y-76536925D01*
X122407820Y-76411741D01*
X122641169Y-76237688D01*
X122836078Y-76021455D01*
X122985057Y-75771352D01*
X123069636Y-75532921D01*
X123137856Y-75697619D01*
X123266664Y-75890394D01*
X123430606Y-76054336D01*
X123623381Y-76183144D01*
X123837582Y-76271869D01*
X124064976Y-76317100D01*
X124296824Y-76317100D01*
X124524218Y-76271869D01*
X124738419Y-76183144D01*
X124931194Y-76054336D01*
X125095136Y-75890394D01*
X125223944Y-75697619D01*
X125312669Y-75483418D01*
X125357900Y-75256024D01*
X125357900Y-75024176D01*
X125543900Y-75024176D01*
X125543900Y-75256024D01*
X125589131Y-75483418D01*
X125677856Y-75697619D01*
X125806664Y-75890394D01*
X125970606Y-76054336D01*
X126163381Y-76183144D01*
X126377582Y-76271869D01*
X126604976Y-76317100D01*
X126836824Y-76317100D01*
X127064218Y-76271869D01*
X127278419Y-76183144D01*
X127471194Y-76054336D01*
X127635136Y-75890394D01*
X127763944Y-75697619D01*
X127852669Y-75483418D01*
X127897900Y-75256024D01*
X127897900Y-75024176D01*
X128083900Y-75024176D01*
X128083900Y-75256024D01*
X128129131Y-75483418D01*
X128217856Y-75697619D01*
X128346664Y-75890394D01*
X128510606Y-76054336D01*
X128703381Y-76183144D01*
X128917582Y-76271869D01*
X129144976Y-76317100D01*
X129376824Y-76317100D01*
X129604218Y-76271869D01*
X129818419Y-76183144D01*
X130011194Y-76054336D01*
X130175136Y-75890394D01*
X130303944Y-75697619D01*
X130392669Y-75483418D01*
X130437900Y-75256024D01*
X130437900Y-75024176D01*
X130623900Y-75024176D01*
X130623900Y-75256024D01*
X130669131Y-75483418D01*
X130757856Y-75697619D01*
X130886664Y-75890394D01*
X131050606Y-76054336D01*
X131243381Y-76183144D01*
X131457582Y-76271869D01*
X131684976Y-76317100D01*
X131916824Y-76317100D01*
X132144218Y-76271869D01*
X132358419Y-76183144D01*
X132551194Y-76054336D01*
X132715136Y-75890394D01*
X132843944Y-75697619D01*
X132932669Y-75483418D01*
X132977900Y-75256024D01*
X132977900Y-75024176D01*
X132932669Y-74796782D01*
X132843944Y-74582581D01*
X132715136Y-74389806D01*
X132632730Y-74307400D01*
X134741418Y-74307400D01*
X134741418Y-76007400D01*
X134747732Y-76071503D01*
X134766430Y-76133143D01*
X134796794Y-76189950D01*
X134837657Y-76239743D01*
X134887450Y-76280606D01*
X134944257Y-76310970D01*
X135005897Y-76329668D01*
X135070000Y-76335982D01*
X136770000Y-76335982D01*
X136834103Y-76329668D01*
X136895743Y-76310970D01*
X136952550Y-76280606D01*
X137002343Y-76239743D01*
X137043206Y-76189950D01*
X137073570Y-76133143D01*
X137092268Y-76071503D01*
X137098582Y-76007400D01*
X137098582Y-75041476D01*
X137283000Y-75041476D01*
X137283000Y-75273324D01*
X137328231Y-75500718D01*
X137416956Y-75714919D01*
X137545764Y-75907694D01*
X137709706Y-76071636D01*
X137902481Y-76200444D01*
X138116682Y-76289169D01*
X138344076Y-76334400D01*
X138575924Y-76334400D01*
X138803318Y-76289169D01*
X139017519Y-76200444D01*
X139210294Y-76071636D01*
X139374236Y-75907694D01*
X139503044Y-75714919D01*
X139591769Y-75500718D01*
X139637000Y-75273324D01*
X139637000Y-75041476D01*
X139823000Y-75041476D01*
X139823000Y-75273324D01*
X139868231Y-75500718D01*
X139956956Y-75714919D01*
X140085764Y-75907694D01*
X140249706Y-76071636D01*
X140442481Y-76200444D01*
X140656682Y-76289169D01*
X140884076Y-76334400D01*
X141115924Y-76334400D01*
X141343318Y-76289169D01*
X141557519Y-76200444D01*
X141750294Y-76071636D01*
X141914236Y-75907694D01*
X142043044Y-75714919D01*
X142131769Y-75500718D01*
X142177000Y-75273324D01*
X142177000Y-75041476D01*
X142363000Y-75041476D01*
X142363000Y-75273324D01*
X142408231Y-75500718D01*
X142496956Y-75714919D01*
X142625764Y-75907694D01*
X142789706Y-76071636D01*
X142982481Y-76200444D01*
X143196682Y-76289169D01*
X143424076Y-76334400D01*
X143655924Y-76334400D01*
X143883318Y-76289169D01*
X144097519Y-76200444D01*
X144290294Y-76071636D01*
X144454236Y-75907694D01*
X144583044Y-75714919D01*
X144671769Y-75500718D01*
X144717000Y-75273324D01*
X144717000Y-75041476D01*
X144903000Y-75041476D01*
X144903000Y-75273324D01*
X144948231Y-75500718D01*
X145036956Y-75714919D01*
X145165764Y-75907694D01*
X145329706Y-76071636D01*
X145522481Y-76200444D01*
X145736682Y-76289169D01*
X145964076Y-76334400D01*
X146195924Y-76334400D01*
X146423318Y-76289169D01*
X146637519Y-76200444D01*
X146830294Y-76071636D01*
X146994236Y-75907694D01*
X147123044Y-75714919D01*
X147211769Y-75500718D01*
X147257000Y-75273324D01*
X147257000Y-75041476D01*
X147443000Y-75041476D01*
X147443000Y-75273324D01*
X147488231Y-75500718D01*
X147576956Y-75714919D01*
X147705764Y-75907694D01*
X147869706Y-76071636D01*
X148062481Y-76200444D01*
X148276682Y-76289169D01*
X148504076Y-76334400D01*
X148735924Y-76334400D01*
X148963318Y-76289169D01*
X149177519Y-76200444D01*
X149370294Y-76071636D01*
X149534236Y-75907694D01*
X149663044Y-75714919D01*
X149751769Y-75500718D01*
X149797000Y-75273324D01*
X149797000Y-75041476D01*
X149983000Y-75041476D01*
X149983000Y-75273324D01*
X150028231Y-75500718D01*
X150116956Y-75714919D01*
X150245764Y-75907694D01*
X150409706Y-76071636D01*
X150602481Y-76200444D01*
X150816682Y-76289169D01*
X151044076Y-76334400D01*
X151275924Y-76334400D01*
X151503318Y-76289169D01*
X151717519Y-76200444D01*
X151910294Y-76071636D01*
X152074236Y-75907694D01*
X152203044Y-75714919D01*
X152291769Y-75500718D01*
X152337000Y-75273324D01*
X152337000Y-75041476D01*
X152523000Y-75041476D01*
X152523000Y-75273324D01*
X152568231Y-75500718D01*
X152656956Y-75714919D01*
X152785764Y-75907694D01*
X152949706Y-76071636D01*
X153142481Y-76200444D01*
X153356682Y-76289169D01*
X153584076Y-76334400D01*
X153815924Y-76334400D01*
X154043318Y-76289169D01*
X154257519Y-76200444D01*
X154450294Y-76071636D01*
X154614236Y-75907694D01*
X154743044Y-75714919D01*
X154831769Y-75500718D01*
X154877000Y-75273324D01*
X154877000Y-75041476D01*
X154831769Y-74814082D01*
X154743044Y-74599881D01*
X154614236Y-74407106D01*
X154450294Y-74243164D01*
X154257519Y-74114356D01*
X154043318Y-74025631D01*
X153815924Y-73980400D01*
X153584076Y-73980400D01*
X153356682Y-74025631D01*
X153142481Y-74114356D01*
X152949706Y-74243164D01*
X152785764Y-74407106D01*
X152656956Y-74599881D01*
X152568231Y-74814082D01*
X152523000Y-75041476D01*
X152337000Y-75041476D01*
X152291769Y-74814082D01*
X152203044Y-74599881D01*
X152074236Y-74407106D01*
X151910294Y-74243164D01*
X151717519Y-74114356D01*
X151503318Y-74025631D01*
X151275924Y-73980400D01*
X151044076Y-73980400D01*
X150816682Y-74025631D01*
X150602481Y-74114356D01*
X150409706Y-74243164D01*
X150245764Y-74407106D01*
X150116956Y-74599881D01*
X150028231Y-74814082D01*
X149983000Y-75041476D01*
X149797000Y-75041476D01*
X149751769Y-74814082D01*
X149663044Y-74599881D01*
X149534236Y-74407106D01*
X149370294Y-74243164D01*
X149177519Y-74114356D01*
X148963318Y-74025631D01*
X148735924Y-73980400D01*
X148504076Y-73980400D01*
X148276682Y-74025631D01*
X148062481Y-74114356D01*
X147869706Y-74243164D01*
X147705764Y-74407106D01*
X147576956Y-74599881D01*
X147488231Y-74814082D01*
X147443000Y-75041476D01*
X147257000Y-75041476D01*
X147211769Y-74814082D01*
X147123044Y-74599881D01*
X146994236Y-74407106D01*
X146830294Y-74243164D01*
X146637519Y-74114356D01*
X146423318Y-74025631D01*
X146195924Y-73980400D01*
X145964076Y-73980400D01*
X145736682Y-74025631D01*
X145522481Y-74114356D01*
X145329706Y-74243164D01*
X145165764Y-74407106D01*
X145036956Y-74599881D01*
X144948231Y-74814082D01*
X144903000Y-75041476D01*
X144717000Y-75041476D01*
X144671769Y-74814082D01*
X144583044Y-74599881D01*
X144454236Y-74407106D01*
X144290294Y-74243164D01*
X144097519Y-74114356D01*
X143883318Y-74025631D01*
X143655924Y-73980400D01*
X143424076Y-73980400D01*
X143196682Y-74025631D01*
X142982481Y-74114356D01*
X142789706Y-74243164D01*
X142625764Y-74407106D01*
X142496956Y-74599881D01*
X142408231Y-74814082D01*
X142363000Y-75041476D01*
X142177000Y-75041476D01*
X142131769Y-74814082D01*
X142043044Y-74599881D01*
X141914236Y-74407106D01*
X141750294Y-74243164D01*
X141557519Y-74114356D01*
X141343318Y-74025631D01*
X141115924Y-73980400D01*
X140884076Y-73980400D01*
X140656682Y-74025631D01*
X140442481Y-74114356D01*
X140249706Y-74243164D01*
X140085764Y-74407106D01*
X139956956Y-74599881D01*
X139868231Y-74814082D01*
X139823000Y-75041476D01*
X139637000Y-75041476D01*
X139591769Y-74814082D01*
X139503044Y-74599881D01*
X139374236Y-74407106D01*
X139210294Y-74243164D01*
X139017519Y-74114356D01*
X138803318Y-74025631D01*
X138575924Y-73980400D01*
X138344076Y-73980400D01*
X138116682Y-74025631D01*
X137902481Y-74114356D01*
X137709706Y-74243164D01*
X137545764Y-74407106D01*
X137416956Y-74599881D01*
X137328231Y-74814082D01*
X137283000Y-75041476D01*
X137098582Y-75041476D01*
X137098582Y-74307400D01*
X137092268Y-74243297D01*
X137073570Y-74181657D01*
X137043206Y-74124850D01*
X137002343Y-74075057D01*
X136952550Y-74034194D01*
X136895743Y-74003830D01*
X136834103Y-73985132D01*
X136770000Y-73978818D01*
X135070000Y-73978818D01*
X135005897Y-73985132D01*
X134944257Y-74003830D01*
X134887450Y-74034194D01*
X134837657Y-74075057D01*
X134796794Y-74124850D01*
X134766430Y-74181657D01*
X134747732Y-74243297D01*
X134741418Y-74307400D01*
X132632730Y-74307400D01*
X132551194Y-74225864D01*
X132358419Y-74097056D01*
X132144218Y-74008331D01*
X131916824Y-73963100D01*
X131684976Y-73963100D01*
X131457582Y-74008331D01*
X131243381Y-74097056D01*
X131050606Y-74225864D01*
X130886664Y-74389806D01*
X130757856Y-74582581D01*
X130669131Y-74796782D01*
X130623900Y-75024176D01*
X130437900Y-75024176D01*
X130392669Y-74796782D01*
X130303944Y-74582581D01*
X130175136Y-74389806D01*
X130011194Y-74225864D01*
X129818419Y-74097056D01*
X129604218Y-74008331D01*
X129376824Y-73963100D01*
X129144976Y-73963100D01*
X128917582Y-74008331D01*
X128703381Y-74097056D01*
X128510606Y-74225864D01*
X128346664Y-74389806D01*
X128217856Y-74582581D01*
X128129131Y-74796782D01*
X128083900Y-75024176D01*
X127897900Y-75024176D01*
X127852669Y-74796782D01*
X127763944Y-74582581D01*
X127635136Y-74389806D01*
X127471194Y-74225864D01*
X127278419Y-74097056D01*
X127064218Y-74008331D01*
X126836824Y-73963100D01*
X126604976Y-73963100D01*
X126377582Y-74008331D01*
X126163381Y-74097056D01*
X125970606Y-74225864D01*
X125806664Y-74389806D01*
X125677856Y-74582581D01*
X125589131Y-74796782D01*
X125543900Y-75024176D01*
X125357900Y-75024176D01*
X125312669Y-74796782D01*
X125223944Y-74582581D01*
X125095136Y-74389806D01*
X124931194Y-74225864D01*
X124738419Y-74097056D01*
X124524218Y-74008331D01*
X124296824Y-73963100D01*
X124064976Y-73963100D01*
X123837582Y-74008331D01*
X123623381Y-74097056D01*
X123430606Y-74225864D01*
X123266664Y-74389806D01*
X123137856Y-74582581D01*
X123069636Y-74747279D01*
X122985057Y-74508848D01*
X122836078Y-74258745D01*
X122641169Y-74042512D01*
X122407820Y-73868459D01*
X122144999Y-73743275D01*
X121997790Y-73698624D01*
X121767900Y-73819945D01*
X121767900Y-75013100D01*
X121787900Y-75013100D01*
X121787900Y-75267100D01*
X121767900Y-75267100D01*
X121767900Y-75287100D01*
X121513900Y-75287100D01*
X121513900Y-75267100D01*
X121493900Y-75267100D01*
X121493900Y-75013100D01*
X121513900Y-75013100D01*
X121513900Y-73819945D01*
X121284010Y-73698624D01*
X121136801Y-73743275D01*
X120873980Y-73868459D01*
X120640631Y-74042512D01*
X120445722Y-74258745D01*
X120296743Y-74508848D01*
X120212164Y-74747279D01*
X120143944Y-74582581D01*
X120015136Y-74389806D01*
X119851194Y-74225864D01*
X119658419Y-74097056D01*
X119444218Y-74008331D01*
X119216824Y-73963100D01*
X118984976Y-73963100D01*
X118757582Y-74008331D01*
X118543381Y-74097056D01*
X118350606Y-74225864D01*
X118186664Y-74389806D01*
X118057856Y-74582581D01*
X117969131Y-74796782D01*
X117923900Y-75024176D01*
X117737900Y-75024176D01*
X117692669Y-74796782D01*
X117603944Y-74582581D01*
X117475136Y-74389806D01*
X117311194Y-74225864D01*
X117118419Y-74097056D01*
X116904218Y-74008331D01*
X116676824Y-73963100D01*
X116444976Y-73963100D01*
X116217582Y-74008331D01*
X116003381Y-74097056D01*
X115810606Y-74225864D01*
X115646664Y-74389806D01*
X115517856Y-74582581D01*
X115429131Y-74796782D01*
X115383900Y-75024176D01*
X115197900Y-75024176D01*
X115152669Y-74796782D01*
X115063944Y-74582581D01*
X114935136Y-74389806D01*
X114771194Y-74225864D01*
X114578419Y-74097056D01*
X114364218Y-74008331D01*
X114136824Y-73963100D01*
X113904976Y-73963100D01*
X113677582Y-74008331D01*
X113463381Y-74097056D01*
X113270606Y-74225864D01*
X113106664Y-74389806D01*
X112977856Y-74582581D01*
X112889131Y-74796782D01*
X112843900Y-75024176D01*
X112657900Y-75024176D01*
X112612669Y-74796782D01*
X112523944Y-74582581D01*
X112395136Y-74389806D01*
X112231194Y-74225864D01*
X112038419Y-74097056D01*
X111824218Y-74008331D01*
X111596824Y-73963100D01*
X111364976Y-73963100D01*
X111137582Y-74008331D01*
X110923381Y-74097056D01*
X110730606Y-74225864D01*
X110566664Y-74389806D01*
X110437856Y-74582581D01*
X110349131Y-74796782D01*
X110303900Y-75024176D01*
X110119482Y-75024176D01*
X110119482Y-74290100D01*
X110113168Y-74225997D01*
X110094470Y-74164357D01*
X110064106Y-74107550D01*
X110023243Y-74057757D01*
X109973450Y-74016894D01*
X109916643Y-73986530D01*
X109855003Y-73967832D01*
X109790900Y-73961518D01*
X108090900Y-73961518D01*
X108026797Y-73967832D01*
X107965157Y-73986530D01*
X107908350Y-74016894D01*
X107858557Y-74057757D01*
X107817694Y-74107550D01*
X107787330Y-74164357D01*
X107768632Y-74225997D01*
X107762318Y-74290100D01*
X103152000Y-74290100D01*
X103152000Y-66921062D01*
X103183130Y-66883130D01*
X103221062Y-66852000D01*
X179978938Y-66852000D01*
X180016870Y-66883130D01*
G04 #@! TA.AperFunction,Conductor*
D14*
G36*
X180016870Y-66883130D02*
G01*
X180048001Y-66921063D01*
X180048000Y-134078938D01*
X180016870Y-134116870D01*
X179978938Y-134148000D01*
X103221062Y-134148000D01*
X103183130Y-134116870D01*
X103152000Y-134078938D01*
X103152000Y-125115000D01*
X116961418Y-125115000D01*
X116961418Y-126815000D01*
X116967732Y-126879103D01*
X116986430Y-126940743D01*
X117016794Y-126997550D01*
X117057657Y-127047343D01*
X117107450Y-127088206D01*
X117164257Y-127118570D01*
X117225897Y-127137268D01*
X117290000Y-127143582D01*
X118990000Y-127143582D01*
X119054103Y-127137268D01*
X119115743Y-127118570D01*
X119172550Y-127088206D01*
X119222343Y-127047343D01*
X119263206Y-126997550D01*
X119293570Y-126940743D01*
X119312268Y-126879103D01*
X119318582Y-126815000D01*
X119318582Y-125849076D01*
X119503000Y-125849076D01*
X119503000Y-126080924D01*
X119548231Y-126308318D01*
X119636956Y-126522519D01*
X119765764Y-126715294D01*
X119929706Y-126879236D01*
X120122481Y-127008044D01*
X120336682Y-127096769D01*
X120564076Y-127142000D01*
X120795924Y-127142000D01*
X121023318Y-127096769D01*
X121237519Y-127008044D01*
X121430294Y-126879236D01*
X121594236Y-126715294D01*
X121723044Y-126522519D01*
X121811769Y-126308318D01*
X121857000Y-126080924D01*
X121857000Y-125849076D01*
X122043000Y-125849076D01*
X122043000Y-126080924D01*
X122088231Y-126308318D01*
X122176956Y-126522519D01*
X122305764Y-126715294D01*
X122469706Y-126879236D01*
X122662481Y-127008044D01*
X122876682Y-127096769D01*
X123104076Y-127142000D01*
X123335924Y-127142000D01*
X123563318Y-127096769D01*
X123777519Y-127008044D01*
X123970294Y-126879236D01*
X124134236Y-126715294D01*
X124263044Y-126522519D01*
X124351769Y-126308318D01*
X124397000Y-126080924D01*
X124397000Y-125849076D01*
X124583000Y-125849076D01*
X124583000Y-126080924D01*
X124628231Y-126308318D01*
X124716956Y-126522519D01*
X124845764Y-126715294D01*
X125009706Y-126879236D01*
X125202481Y-127008044D01*
X125416682Y-127096769D01*
X125644076Y-127142000D01*
X125875924Y-127142000D01*
X126103318Y-127096769D01*
X126317519Y-127008044D01*
X126510294Y-126879236D01*
X126674236Y-126715294D01*
X126803044Y-126522519D01*
X126891769Y-126308318D01*
X126937000Y-126080924D01*
X126937000Y-125849076D01*
X127123000Y-125849076D01*
X127123000Y-126080924D01*
X127168231Y-126308318D01*
X127256956Y-126522519D01*
X127385764Y-126715294D01*
X127549706Y-126879236D01*
X127742481Y-127008044D01*
X127956682Y-127096769D01*
X128184076Y-127142000D01*
X128415924Y-127142000D01*
X128643318Y-127096769D01*
X128857519Y-127008044D01*
X129050294Y-126879236D01*
X129214236Y-126715294D01*
X129343044Y-126522519D01*
X129411264Y-126357821D01*
X129495843Y-126596252D01*
X129644822Y-126846355D01*
X129839731Y-127062588D01*
X130073080Y-127236641D01*
X130335901Y-127361825D01*
X130483110Y-127406476D01*
X130713000Y-127285155D01*
X130713000Y-126092000D01*
X130693000Y-126092000D01*
X130693000Y-125838000D01*
X130713000Y-125838000D01*
X130713000Y-124644845D01*
X130967000Y-124644845D01*
X130967000Y-125838000D01*
X130987000Y-125838000D01*
X130987000Y-126092000D01*
X130967000Y-126092000D01*
X130967000Y-127285155D01*
X131196890Y-127406476D01*
X131344099Y-127361825D01*
X131606920Y-127236641D01*
X131840269Y-127062588D01*
X132035178Y-126846355D01*
X132184157Y-126596252D01*
X132268736Y-126357821D01*
X132336956Y-126522519D01*
X132465764Y-126715294D01*
X132629706Y-126879236D01*
X132822481Y-127008044D01*
X133036682Y-127096769D01*
X133264076Y-127142000D01*
X133495924Y-127142000D01*
X133723318Y-127096769D01*
X133937519Y-127008044D01*
X134130294Y-126879236D01*
X134294236Y-126715294D01*
X134423044Y-126522519D01*
X134511769Y-126308318D01*
X134557000Y-126080924D01*
X134557000Y-125849076D01*
X134743000Y-125849076D01*
X134743000Y-126080924D01*
X134788231Y-126308318D01*
X134876956Y-126522519D01*
X135005764Y-126715294D01*
X135169706Y-126879236D01*
X135362481Y-127008044D01*
X135576682Y-127096769D01*
X135804076Y-127142000D01*
X136035924Y-127142000D01*
X136263318Y-127096769D01*
X136477519Y-127008044D01*
X136670294Y-126879236D01*
X136834236Y-126715294D01*
X136963044Y-126522519D01*
X137051769Y-126308318D01*
X137097000Y-126080924D01*
X137097000Y-125849076D01*
X137051769Y-125621682D01*
X136963044Y-125407481D01*
X136834236Y-125214706D01*
X136670294Y-125050764D01*
X136477519Y-124921956D01*
X136263318Y-124833231D01*
X136035924Y-124788000D01*
X135804076Y-124788000D01*
X135576682Y-124833231D01*
X135362481Y-124921956D01*
X135169706Y-125050764D01*
X135005764Y-125214706D01*
X134876956Y-125407481D01*
X134788231Y-125621682D01*
X134743000Y-125849076D01*
X134557000Y-125849076D01*
X134511769Y-125621682D01*
X134423044Y-125407481D01*
X134294236Y-125214706D01*
X134130294Y-125050764D01*
X133937519Y-124921956D01*
X133723318Y-124833231D01*
X133495924Y-124788000D01*
X133264076Y-124788000D01*
X133036682Y-124833231D01*
X132822481Y-124921956D01*
X132629706Y-125050764D01*
X132465764Y-125214706D01*
X132336956Y-125407481D01*
X132268736Y-125572179D01*
X132184157Y-125333748D01*
X132035178Y-125083645D01*
X131840269Y-124867412D01*
X131606920Y-124693359D01*
X131344099Y-124568175D01*
X131196890Y-124523524D01*
X130967000Y-124644845D01*
X130713000Y-124644845D01*
X130483110Y-124523524D01*
X130335901Y-124568175D01*
X130073080Y-124693359D01*
X129839731Y-124867412D01*
X129644822Y-125083645D01*
X129495843Y-125333748D01*
X129411264Y-125572179D01*
X129343044Y-125407481D01*
X129214236Y-125214706D01*
X129050294Y-125050764D01*
X128857519Y-124921956D01*
X128643318Y-124833231D01*
X128415924Y-124788000D01*
X128184076Y-124788000D01*
X127956682Y-124833231D01*
X127742481Y-124921956D01*
X127549706Y-125050764D01*
X127385764Y-125214706D01*
X127256956Y-125407481D01*
X127168231Y-125621682D01*
X127123000Y-125849076D01*
X126937000Y-125849076D01*
X126891769Y-125621682D01*
X126803044Y-125407481D01*
X126674236Y-125214706D01*
X126510294Y-125050764D01*
X126317519Y-124921956D01*
X126103318Y-124833231D01*
X125875924Y-124788000D01*
X125644076Y-124788000D01*
X125416682Y-124833231D01*
X125202481Y-124921956D01*
X125009706Y-125050764D01*
X124845764Y-125214706D01*
X124716956Y-125407481D01*
X124628231Y-125621682D01*
X124583000Y-125849076D01*
X124397000Y-125849076D01*
X124351769Y-125621682D01*
X124263044Y-125407481D01*
X124134236Y-125214706D01*
X123970294Y-125050764D01*
X123777519Y-124921956D01*
X123563318Y-124833231D01*
X123335924Y-124788000D01*
X123104076Y-124788000D01*
X122876682Y-124833231D01*
X122662481Y-124921956D01*
X122469706Y-125050764D01*
X122305764Y-125214706D01*
X122176956Y-125407481D01*
X122088231Y-125621682D01*
X122043000Y-125849076D01*
X121857000Y-125849076D01*
X121811769Y-125621682D01*
X121723044Y-125407481D01*
X121594236Y-125214706D01*
X121430294Y-125050764D01*
X121237519Y-124921956D01*
X121023318Y-124833231D01*
X120795924Y-124788000D01*
X120564076Y-124788000D01*
X120336682Y-124833231D01*
X120122481Y-124921956D01*
X119929706Y-125050764D01*
X119765764Y-125214706D01*
X119636956Y-125407481D01*
X119548231Y-125621682D01*
X119503000Y-125849076D01*
X119318582Y-125849076D01*
X119318582Y-125115000D01*
X119312268Y-125050897D01*
X119293570Y-124989257D01*
X119263206Y-124932450D01*
X119222343Y-124882657D01*
X119172550Y-124841794D01*
X119115743Y-124811430D01*
X119054103Y-124792732D01*
X118990000Y-124786418D01*
X117290000Y-124786418D01*
X117225897Y-124792732D01*
X117164257Y-124811430D01*
X117107450Y-124841794D01*
X117057657Y-124882657D01*
X117016794Y-124932450D01*
X116986430Y-124989257D01*
X116967732Y-125050897D01*
X116961418Y-125115000D01*
X103152000Y-125115000D01*
X103152000Y-122575000D01*
X139821418Y-122575000D01*
X139821418Y-124275000D01*
X139827732Y-124339103D01*
X139846430Y-124400743D01*
X139876794Y-124457550D01*
X139917657Y-124507343D01*
X139967450Y-124548206D01*
X140024257Y-124578570D01*
X140085897Y-124597268D01*
X140150000Y-124603582D01*
X141850000Y-124603582D01*
X141914103Y-124597268D01*
X141975743Y-124578570D01*
X142032550Y-124548206D01*
X142082343Y-124507343D01*
X142123206Y-124457550D01*
X142153570Y-124400743D01*
X142172268Y-124339103D01*
X142178582Y-124275000D01*
X142178582Y-123309076D01*
X142363000Y-123309076D01*
X142363000Y-123540924D01*
X142408231Y-123768318D01*
X142496956Y-123982519D01*
X142625764Y-124175294D01*
X142789706Y-124339236D01*
X142982481Y-124468044D01*
X143196682Y-124556769D01*
X143424076Y-124602000D01*
X143655924Y-124602000D01*
X143883318Y-124556769D01*
X144097519Y-124468044D01*
X144290294Y-124339236D01*
X144454236Y-124175294D01*
X144583044Y-123982519D01*
X144671769Y-123768318D01*
X144717000Y-123540924D01*
X144717000Y-123309076D01*
X144671769Y-123081682D01*
X144583044Y-122867481D01*
X144454236Y-122674706D01*
X144290294Y-122510764D01*
X144097519Y-122381956D01*
X143883318Y-122293231D01*
X143655924Y-122248000D01*
X143424076Y-122248000D01*
X143196682Y-122293231D01*
X142982481Y-122381956D01*
X142789706Y-122510764D01*
X142625764Y-122674706D01*
X142496956Y-122867481D01*
X142408231Y-123081682D01*
X142363000Y-123309076D01*
X142178582Y-123309076D01*
X142178582Y-122575000D01*
X142172268Y-122510897D01*
X142153570Y-122449257D01*
X142123206Y-122392450D01*
X142082343Y-122342657D01*
X142032550Y-122301794D01*
X141975743Y-122271430D01*
X141914103Y-122252732D01*
X141850000Y-122246418D01*
X140150000Y-122246418D01*
X140085897Y-122252732D01*
X140024257Y-122271430D01*
X139967450Y-122301794D01*
X139917657Y-122342657D01*
X139876794Y-122392450D01*
X139846430Y-122449257D01*
X139827732Y-122510897D01*
X139821418Y-122575000D01*
X103152000Y-122575000D01*
X103152000Y-99900000D01*
X131269483Y-99900000D01*
X131273000Y-99935708D01*
X131273001Y-116164282D01*
X131269483Y-116200000D01*
X131283520Y-116342517D01*
X131325090Y-116479556D01*
X131325091Y-116479557D01*
X131392598Y-116605853D01*
X131483447Y-116716554D01*
X131511189Y-116739321D01*
X133460679Y-118688812D01*
X133483446Y-118716554D01*
X133594147Y-118807403D01*
X133720443Y-118874910D01*
X133825587Y-118906805D01*
X133857482Y-118916480D01*
X133999999Y-118930517D01*
X134035707Y-118927000D01*
X143298868Y-118927000D01*
X145353000Y-120981134D01*
X145353001Y-122495199D01*
X145329706Y-122510764D01*
X145165764Y-122674706D01*
X145036956Y-122867481D01*
X144948231Y-123081682D01*
X144903000Y-123309076D01*
X144903000Y-123540924D01*
X144948231Y-123768318D01*
X145036956Y-123982519D01*
X145165764Y-124175294D01*
X145329706Y-124339236D01*
X145522481Y-124468044D01*
X145736682Y-124556769D01*
X145964076Y-124602000D01*
X146195924Y-124602000D01*
X146423318Y-124556769D01*
X146637519Y-124468044D01*
X146830294Y-124339236D01*
X146994236Y-124175294D01*
X147123044Y-123982519D01*
X147211769Y-123768318D01*
X147257000Y-123540924D01*
X147257000Y-123309076D01*
X147211769Y-123081682D01*
X147123044Y-122867481D01*
X146994236Y-122674706D01*
X146830294Y-122510764D01*
X146807000Y-122495199D01*
X146807000Y-120715708D01*
X146810517Y-120680000D01*
X146796480Y-120537482D01*
X146754910Y-120400443D01*
X146687403Y-120274147D01*
X146645981Y-120223674D01*
X146619316Y-120191182D01*
X146619312Y-120191178D01*
X146596553Y-120163446D01*
X146568822Y-120140688D01*
X144139326Y-117711194D01*
X144116554Y-117683446D01*
X144005853Y-117592597D01*
X143879557Y-117525090D01*
X143742517Y-117483520D01*
X143635708Y-117473000D01*
X143600000Y-117469483D01*
X143564292Y-117473000D01*
X134301133Y-117473000D01*
X132727000Y-115898868D01*
X132727000Y-109856890D01*
X135158524Y-109856890D01*
X135203175Y-110004099D01*
X135328359Y-110266920D01*
X135502412Y-110500269D01*
X135718645Y-110695178D01*
X135968748Y-110844157D01*
X136243109Y-110941481D01*
X136473000Y-110820814D01*
X136473000Y-109627000D01*
X136727000Y-109627000D01*
X136727000Y-110820814D01*
X136956891Y-110941481D01*
X137231252Y-110844157D01*
X137481355Y-110695178D01*
X137697588Y-110500269D01*
X137871641Y-110266920D01*
X137971680Y-110056890D01*
X142358524Y-110056890D01*
X142403175Y-110204099D01*
X142528359Y-110466920D01*
X142702412Y-110700269D01*
X142918645Y-110895178D01*
X143168748Y-111044157D01*
X143443109Y-111141481D01*
X143673000Y-111020814D01*
X143673000Y-109827000D01*
X143927000Y-109827000D01*
X143927000Y-111020814D01*
X144156891Y-111141481D01*
X144431252Y-111044157D01*
X144681355Y-110895178D01*
X144897588Y-110700269D01*
X145071641Y-110466920D01*
X145196825Y-110204099D01*
X145241476Y-110056890D01*
X145120155Y-109827000D01*
X143927000Y-109827000D01*
X143673000Y-109827000D01*
X142479845Y-109827000D01*
X142358524Y-110056890D01*
X137971680Y-110056890D01*
X137996825Y-110004099D01*
X138041476Y-109856890D01*
X137920155Y-109627000D01*
X136727000Y-109627000D01*
X136473000Y-109627000D01*
X135279845Y-109627000D01*
X135158524Y-109856890D01*
X132727000Y-109856890D01*
X132727000Y-109143110D01*
X135158524Y-109143110D01*
X135279845Y-109373000D01*
X136473000Y-109373000D01*
X136473000Y-109353000D01*
X136727000Y-109353000D01*
X136727000Y-109373000D01*
X137920155Y-109373000D01*
X138041476Y-109143110D01*
X137996825Y-108995901D01*
X137871641Y-108733080D01*
X137697588Y-108499731D01*
X137481355Y-108304822D01*
X137231252Y-108155843D01*
X137182592Y-108138582D01*
X137450000Y-108138582D01*
X137514103Y-108132268D01*
X137575743Y-108113570D01*
X137632550Y-108083206D01*
X137682343Y-108042343D01*
X137723206Y-107992550D01*
X137753570Y-107935743D01*
X137772268Y-107874103D01*
X137778582Y-107810000D01*
X137778582Y-107687000D01*
X138204292Y-107687000D01*
X138240000Y-107690517D01*
X138382517Y-107676480D01*
X138519557Y-107634910D01*
X138645853Y-107567403D01*
X138756554Y-107476554D01*
X138779325Y-107448807D01*
X140088811Y-106139323D01*
X140116542Y-106116565D01*
X140139301Y-106088833D01*
X140139305Y-106088829D01*
X140148947Y-106077080D01*
X141720679Y-107648812D01*
X141743446Y-107676554D01*
X141854147Y-107767403D01*
X141980443Y-107834910D01*
X142117482Y-107876480D01*
X142260000Y-107890518D01*
X142295716Y-107887000D01*
X142621418Y-107887000D01*
X142621418Y-108010000D01*
X142627732Y-108074103D01*
X142646430Y-108135743D01*
X142676794Y-108192550D01*
X142717657Y-108242343D01*
X142767450Y-108283206D01*
X142824257Y-108313570D01*
X142885897Y-108332268D01*
X142950000Y-108338582D01*
X143217408Y-108338582D01*
X143168748Y-108355843D01*
X142918645Y-108504822D01*
X142702412Y-108699731D01*
X142528359Y-108933080D01*
X142403175Y-109195901D01*
X142358524Y-109343110D01*
X142479845Y-109573000D01*
X143673000Y-109573000D01*
X143673000Y-109553000D01*
X143927000Y-109553000D01*
X143927000Y-109573000D01*
X145120155Y-109573000D01*
X145241476Y-109343110D01*
X145196825Y-109195901D01*
X145071641Y-108933080D01*
X144897588Y-108699731D01*
X144681355Y-108504822D01*
X144431252Y-108355843D01*
X144382592Y-108338582D01*
X144650000Y-108338582D01*
X144714103Y-108332268D01*
X144775743Y-108313570D01*
X144832550Y-108283206D01*
X144882343Y-108242343D01*
X144923206Y-108192550D01*
X144953570Y-108135743D01*
X144972268Y-108074103D01*
X144978582Y-108010000D01*
X144978582Y-106310000D01*
X144972268Y-106245897D01*
X144953570Y-106184257D01*
X144923206Y-106127450D01*
X144882343Y-106077657D01*
X144832550Y-106036794D01*
X144775743Y-106006430D01*
X144714103Y-105987732D01*
X144650000Y-105981418D01*
X144527000Y-105981418D01*
X144527000Y-101469801D01*
X144550294Y-101454236D01*
X144714236Y-101290294D01*
X144843044Y-101097519D01*
X144931769Y-100883318D01*
X144977000Y-100655924D01*
X144977000Y-100424076D01*
X144931769Y-100196682D01*
X144843044Y-99982481D01*
X144714236Y-99789706D01*
X144550294Y-99625764D01*
X144357519Y-99496956D01*
X144143318Y-99408231D01*
X143915924Y-99363000D01*
X143684076Y-99363000D01*
X143456682Y-99408231D01*
X143242481Y-99496956D01*
X143049706Y-99625764D01*
X142885764Y-99789706D01*
X142756956Y-99982481D01*
X142668231Y-100196682D01*
X142623000Y-100424076D01*
X142623000Y-100655924D01*
X142668231Y-100883318D01*
X142756956Y-101097519D01*
X142885764Y-101290294D01*
X143049706Y-101454236D01*
X143073000Y-101469801D01*
X143073001Y-105981418D01*
X142950000Y-105981418D01*
X142885897Y-105987732D01*
X142824257Y-106006430D01*
X142767450Y-106036794D01*
X142717657Y-106077657D01*
X142676794Y-106127450D01*
X142646430Y-106184257D01*
X142627732Y-106245897D01*
X142621418Y-106310000D01*
X142621418Y-106433000D01*
X142561133Y-106433000D01*
X141327000Y-105198868D01*
X141327000Y-97150000D01*
X142621418Y-97150000D01*
X142621418Y-98850000D01*
X142627732Y-98914103D01*
X142646430Y-98975743D01*
X142676794Y-99032550D01*
X142717657Y-99082343D01*
X142767450Y-99123206D01*
X142824257Y-99153570D01*
X142885897Y-99172268D01*
X142950000Y-99178582D01*
X144650000Y-99178582D01*
X144714103Y-99172268D01*
X144775743Y-99153570D01*
X144832550Y-99123206D01*
X144882343Y-99082343D01*
X144923206Y-99032550D01*
X144953570Y-98975743D01*
X144972268Y-98914103D01*
X144978582Y-98850000D01*
X144978582Y-98727000D01*
X145398868Y-98727000D01*
X147893000Y-101221133D01*
X147893001Y-122495199D01*
X147869706Y-122510764D01*
X147705764Y-122674706D01*
X147576956Y-122867481D01*
X147488231Y-123081682D01*
X147443000Y-123309076D01*
X147443000Y-123540924D01*
X147488231Y-123768318D01*
X147576956Y-123982519D01*
X147705764Y-124175294D01*
X147869706Y-124339236D01*
X148062481Y-124468044D01*
X148276682Y-124556769D01*
X148504076Y-124602000D01*
X148735924Y-124602000D01*
X148963318Y-124556769D01*
X149177519Y-124468044D01*
X149370294Y-124339236D01*
X149534236Y-124175294D01*
X149663044Y-123982519D01*
X149751769Y-123768318D01*
X149797000Y-123540924D01*
X149797000Y-123309076D01*
X149983000Y-123309076D01*
X149983000Y-123540924D01*
X150028231Y-123768318D01*
X150116956Y-123982519D01*
X150245764Y-124175294D01*
X150409706Y-124339236D01*
X150602481Y-124468044D01*
X150816682Y-124556769D01*
X151044076Y-124602000D01*
X151275924Y-124602000D01*
X151503318Y-124556769D01*
X151717519Y-124468044D01*
X151910294Y-124339236D01*
X152074236Y-124175294D01*
X152203044Y-123982519D01*
X152291769Y-123768318D01*
X152337000Y-123540924D01*
X152337000Y-123309076D01*
X152523000Y-123309076D01*
X152523000Y-123540924D01*
X152568231Y-123768318D01*
X152656956Y-123982519D01*
X152785764Y-124175294D01*
X152949706Y-124339236D01*
X153142481Y-124468044D01*
X153356682Y-124556769D01*
X153584076Y-124602000D01*
X153815924Y-124602000D01*
X154043318Y-124556769D01*
X154257519Y-124468044D01*
X154450294Y-124339236D01*
X154614236Y-124175294D01*
X154743044Y-123982519D01*
X154831769Y-123768318D01*
X154877000Y-123540924D01*
X154877000Y-123309076D01*
X155063000Y-123309076D01*
X155063000Y-123540924D01*
X155108231Y-123768318D01*
X155196956Y-123982519D01*
X155325764Y-124175294D01*
X155489706Y-124339236D01*
X155682481Y-124468044D01*
X155896682Y-124556769D01*
X156124076Y-124602000D01*
X156355924Y-124602000D01*
X156583318Y-124556769D01*
X156797519Y-124468044D01*
X156990294Y-124339236D01*
X157154236Y-124175294D01*
X157283044Y-123982519D01*
X157371769Y-123768318D01*
X157417000Y-123540924D01*
X157417000Y-123309076D01*
X157603000Y-123309076D01*
X157603000Y-123540924D01*
X157648231Y-123768318D01*
X157736956Y-123982519D01*
X157865764Y-124175294D01*
X158029706Y-124339236D01*
X158222481Y-124468044D01*
X158436682Y-124556769D01*
X158664076Y-124602000D01*
X158895924Y-124602000D01*
X159123318Y-124556769D01*
X159337519Y-124468044D01*
X159530294Y-124339236D01*
X159694236Y-124175294D01*
X159823044Y-123982519D01*
X159911769Y-123768318D01*
X159957000Y-123540924D01*
X159957000Y-123309076D01*
X160143000Y-123309076D01*
X160143000Y-123540924D01*
X160188231Y-123768318D01*
X160276956Y-123982519D01*
X160405764Y-124175294D01*
X160569706Y-124339236D01*
X160762481Y-124468044D01*
X160976682Y-124556769D01*
X161204076Y-124602000D01*
X161435924Y-124602000D01*
X161663318Y-124556769D01*
X161877519Y-124468044D01*
X162070294Y-124339236D01*
X162234236Y-124175294D01*
X162363044Y-123982519D01*
X162451769Y-123768318D01*
X162497000Y-123540924D01*
X162497000Y-123309076D01*
X162683000Y-123309076D01*
X162683000Y-123540924D01*
X162728231Y-123768318D01*
X162816956Y-123982519D01*
X162945764Y-124175294D01*
X163109706Y-124339236D01*
X163302481Y-124468044D01*
X163516682Y-124556769D01*
X163744076Y-124602000D01*
X163975924Y-124602000D01*
X164203318Y-124556769D01*
X164417519Y-124468044D01*
X164610294Y-124339236D01*
X164774236Y-124175294D01*
X164903044Y-123982519D01*
X164991769Y-123768318D01*
X165037000Y-123540924D01*
X165037000Y-123309076D01*
X164991769Y-123081682D01*
X164903044Y-122867481D01*
X164774236Y-122674706D01*
X164610294Y-122510764D01*
X164417519Y-122381956D01*
X164203318Y-122293231D01*
X163975924Y-122248000D01*
X163744076Y-122248000D01*
X163516682Y-122293231D01*
X163302481Y-122381956D01*
X163109706Y-122510764D01*
X162945764Y-122674706D01*
X162816956Y-122867481D01*
X162728231Y-123081682D01*
X162683000Y-123309076D01*
X162497000Y-123309076D01*
X162451769Y-123081682D01*
X162363044Y-122867481D01*
X162234236Y-122674706D01*
X162070294Y-122510764D01*
X161877519Y-122381956D01*
X161663318Y-122293231D01*
X161435924Y-122248000D01*
X161204076Y-122248000D01*
X160976682Y-122293231D01*
X160762481Y-122381956D01*
X160569706Y-122510764D01*
X160405764Y-122674706D01*
X160276956Y-122867481D01*
X160188231Y-123081682D01*
X160143000Y-123309076D01*
X159957000Y-123309076D01*
X159911769Y-123081682D01*
X159823044Y-122867481D01*
X159694236Y-122674706D01*
X159530294Y-122510764D01*
X159337519Y-122381956D01*
X159123318Y-122293231D01*
X158895924Y-122248000D01*
X158664076Y-122248000D01*
X158436682Y-122293231D01*
X158222481Y-122381956D01*
X158029706Y-122510764D01*
X157865764Y-122674706D01*
X157736956Y-122867481D01*
X157648231Y-123081682D01*
X157603000Y-123309076D01*
X157417000Y-123309076D01*
X157371769Y-123081682D01*
X157283044Y-122867481D01*
X157154236Y-122674706D01*
X156990294Y-122510764D01*
X156797519Y-122381956D01*
X156583318Y-122293231D01*
X156355924Y-122248000D01*
X156124076Y-122248000D01*
X155896682Y-122293231D01*
X155682481Y-122381956D01*
X155489706Y-122510764D01*
X155325764Y-122674706D01*
X155196956Y-122867481D01*
X155108231Y-123081682D01*
X155063000Y-123309076D01*
X154877000Y-123309076D01*
X154831769Y-123081682D01*
X154743044Y-122867481D01*
X154614236Y-122674706D01*
X154450294Y-122510764D01*
X154257519Y-122381956D01*
X154043318Y-122293231D01*
X153815924Y-122248000D01*
X153584076Y-122248000D01*
X153356682Y-122293231D01*
X153142481Y-122381956D01*
X152949706Y-122510764D01*
X152785764Y-122674706D01*
X152656956Y-122867481D01*
X152568231Y-123081682D01*
X152523000Y-123309076D01*
X152337000Y-123309076D01*
X152291769Y-123081682D01*
X152203044Y-122867481D01*
X152074236Y-122674706D01*
X151910294Y-122510764D01*
X151717519Y-122381956D01*
X151503318Y-122293231D01*
X151275924Y-122248000D01*
X151044076Y-122248000D01*
X150816682Y-122293231D01*
X150602481Y-122381956D01*
X150409706Y-122510764D01*
X150245764Y-122674706D01*
X150116956Y-122867481D01*
X150028231Y-123081682D01*
X149983000Y-123309076D01*
X149797000Y-123309076D01*
X149751769Y-123081682D01*
X149663044Y-122867481D01*
X149534236Y-122674706D01*
X149370294Y-122510764D01*
X149347000Y-122495199D01*
X149347000Y-100955708D01*
X149350517Y-100920000D01*
X149336480Y-100777482D01*
X149294910Y-100640443D01*
X149282101Y-100616480D01*
X149227403Y-100514147D01*
X149136553Y-100403446D01*
X149108816Y-100380683D01*
X146239326Y-97511194D01*
X146216554Y-97483446D01*
X146105853Y-97392597D01*
X145979557Y-97325090D01*
X145842517Y-97283520D01*
X145735708Y-97273000D01*
X145700000Y-97269483D01*
X145664292Y-97273000D01*
X144978582Y-97273000D01*
X144978582Y-97150000D01*
X144972268Y-97085897D01*
X144953570Y-97024257D01*
X144923206Y-96967450D01*
X144882343Y-96917657D01*
X144832550Y-96876794D01*
X144775743Y-96846430D01*
X144714103Y-96827732D01*
X144650000Y-96821418D01*
X142950000Y-96821418D01*
X142885897Y-96827732D01*
X142824257Y-96846430D01*
X142767450Y-96876794D01*
X142717657Y-96917657D01*
X142676794Y-96967450D01*
X142646430Y-97024257D01*
X142627732Y-97085897D01*
X142621418Y-97150000D01*
X141327000Y-97150000D01*
X141327000Y-95301132D01*
X142301134Y-94327000D01*
X166998868Y-94327000D01*
X167973000Y-95301134D01*
X167973001Y-127098865D01*
X165898868Y-129173000D01*
X145101133Y-129173000D01*
X144267000Y-128338868D01*
X144267000Y-126894801D01*
X144290294Y-126879236D01*
X144454236Y-126715294D01*
X144583044Y-126522519D01*
X144671769Y-126308318D01*
X144717000Y-126080924D01*
X144717000Y-125849076D01*
X144903000Y-125849076D01*
X144903000Y-126080924D01*
X144948231Y-126308318D01*
X145036956Y-126522519D01*
X145165764Y-126715294D01*
X145329706Y-126879236D01*
X145522481Y-127008044D01*
X145736682Y-127096769D01*
X145964076Y-127142000D01*
X146195924Y-127142000D01*
X146423318Y-127096769D01*
X146637519Y-127008044D01*
X146830294Y-126879236D01*
X146994236Y-126715294D01*
X147123044Y-126522519D01*
X147211769Y-126308318D01*
X147257000Y-126080924D01*
X147257000Y-125849076D01*
X147443000Y-125849076D01*
X147443000Y-126080924D01*
X147488231Y-126308318D01*
X147576956Y-126522519D01*
X147705764Y-126715294D01*
X147869706Y-126879236D01*
X148062481Y-127008044D01*
X148276682Y-127096769D01*
X148504076Y-127142000D01*
X148735924Y-127142000D01*
X148963318Y-127096769D01*
X149177519Y-127008044D01*
X149370294Y-126879236D01*
X149534236Y-126715294D01*
X149663044Y-126522519D01*
X149751769Y-126308318D01*
X149797000Y-126080924D01*
X149797000Y-125849076D01*
X149983000Y-125849076D01*
X149983000Y-126080924D01*
X150028231Y-126308318D01*
X150116956Y-126522519D01*
X150245764Y-126715294D01*
X150409706Y-126879236D01*
X150602481Y-127008044D01*
X150816682Y-127096769D01*
X151044076Y-127142000D01*
X151275924Y-127142000D01*
X151503318Y-127096769D01*
X151717519Y-127008044D01*
X151910294Y-126879236D01*
X152074236Y-126715294D01*
X152203044Y-126522519D01*
X152291769Y-126308318D01*
X152337000Y-126080924D01*
X152337000Y-125849076D01*
X152523000Y-125849076D01*
X152523000Y-126080924D01*
X152568231Y-126308318D01*
X152656956Y-126522519D01*
X152785764Y-126715294D01*
X152949706Y-126879236D01*
X153142481Y-127008044D01*
X153356682Y-127096769D01*
X153584076Y-127142000D01*
X153815924Y-127142000D01*
X154043318Y-127096769D01*
X154257519Y-127008044D01*
X154450294Y-126879236D01*
X154614236Y-126715294D01*
X154743044Y-126522519D01*
X154831769Y-126308318D01*
X154877000Y-126080924D01*
X154877000Y-125849076D01*
X155063000Y-125849076D01*
X155063000Y-126080924D01*
X155108231Y-126308318D01*
X155196956Y-126522519D01*
X155325764Y-126715294D01*
X155489706Y-126879236D01*
X155682481Y-127008044D01*
X155896682Y-127096769D01*
X156124076Y-127142000D01*
X156355924Y-127142000D01*
X156583318Y-127096769D01*
X156797519Y-127008044D01*
X156990294Y-126879236D01*
X157154236Y-126715294D01*
X157283044Y-126522519D01*
X157371769Y-126308318D01*
X157417000Y-126080924D01*
X157417000Y-125849076D01*
X157603000Y-125849076D01*
X157603000Y-126080924D01*
X157648231Y-126308318D01*
X157736956Y-126522519D01*
X157865764Y-126715294D01*
X158029706Y-126879236D01*
X158222481Y-127008044D01*
X158436682Y-127096769D01*
X158664076Y-127142000D01*
X158895924Y-127142000D01*
X159123318Y-127096769D01*
X159337519Y-127008044D01*
X159530294Y-126879236D01*
X159694236Y-126715294D01*
X159823044Y-126522519D01*
X159911769Y-126308318D01*
X159957000Y-126080924D01*
X159957000Y-125849076D01*
X160143000Y-125849076D01*
X160143000Y-126080924D01*
X160188231Y-126308318D01*
X160276956Y-126522519D01*
X160405764Y-126715294D01*
X160569706Y-126879236D01*
X160762481Y-127008044D01*
X160976682Y-127096769D01*
X161204076Y-127142000D01*
X161435924Y-127142000D01*
X161663318Y-127096769D01*
X161877519Y-127008044D01*
X162070294Y-126879236D01*
X162234236Y-126715294D01*
X162363044Y-126522519D01*
X162451769Y-126308318D01*
X162497000Y-126080924D01*
X162497000Y-125849076D01*
X162683000Y-125849076D01*
X162683000Y-126080924D01*
X162728231Y-126308318D01*
X162816956Y-126522519D01*
X162945764Y-126715294D01*
X163109706Y-126879236D01*
X163302481Y-127008044D01*
X163516682Y-127096769D01*
X163744076Y-127142000D01*
X163975924Y-127142000D01*
X164203318Y-127096769D01*
X164417519Y-127008044D01*
X164610294Y-126879236D01*
X164774236Y-126715294D01*
X164903044Y-126522519D01*
X164991769Y-126308318D01*
X165037000Y-126080924D01*
X165037000Y-125849076D01*
X164991769Y-125621682D01*
X164903044Y-125407481D01*
X164774236Y-125214706D01*
X164610294Y-125050764D01*
X164417519Y-124921956D01*
X164203318Y-124833231D01*
X163975924Y-124788000D01*
X163744076Y-124788000D01*
X163516682Y-124833231D01*
X163302481Y-124921956D01*
X163109706Y-125050764D01*
X162945764Y-125214706D01*
X162816956Y-125407481D01*
X162728231Y-125621682D01*
X162683000Y-125849076D01*
X162497000Y-125849076D01*
X162451769Y-125621682D01*
X162363044Y-125407481D01*
X162234236Y-125214706D01*
X162070294Y-125050764D01*
X161877519Y-124921956D01*
X161663318Y-124833231D01*
X161435924Y-124788000D01*
X161204076Y-124788000D01*
X160976682Y-124833231D01*
X160762481Y-124921956D01*
X160569706Y-125050764D01*
X160405764Y-125214706D01*
X160276956Y-125407481D01*
X160188231Y-125621682D01*
X160143000Y-125849076D01*
X159957000Y-125849076D01*
X159911769Y-125621682D01*
X159823044Y-125407481D01*
X159694236Y-125214706D01*
X159530294Y-125050764D01*
X159337519Y-124921956D01*
X159123318Y-124833231D01*
X158895924Y-124788000D01*
X158664076Y-124788000D01*
X158436682Y-124833231D01*
X158222481Y-124921956D01*
X158029706Y-125050764D01*
X157865764Y-125214706D01*
X157736956Y-125407481D01*
X157648231Y-125621682D01*
X157603000Y-125849076D01*
X157417000Y-125849076D01*
X157371769Y-125621682D01*
X157283044Y-125407481D01*
X157154236Y-125214706D01*
X156990294Y-125050764D01*
X156797519Y-124921956D01*
X156583318Y-124833231D01*
X156355924Y-124788000D01*
X156124076Y-124788000D01*
X155896682Y-124833231D01*
X155682481Y-124921956D01*
X155489706Y-125050764D01*
X155325764Y-125214706D01*
X155196956Y-125407481D01*
X155108231Y-125621682D01*
X155063000Y-125849076D01*
X154877000Y-125849076D01*
X154831769Y-125621682D01*
X154743044Y-125407481D01*
X154614236Y-125214706D01*
X154450294Y-125050764D01*
X154257519Y-124921956D01*
X154043318Y-124833231D01*
X153815924Y-124788000D01*
X153584076Y-124788000D01*
X153356682Y-124833231D01*
X153142481Y-124921956D01*
X152949706Y-125050764D01*
X152785764Y-125214706D01*
X152656956Y-125407481D01*
X152568231Y-125621682D01*
X152523000Y-125849076D01*
X152337000Y-125849076D01*
X152291769Y-125621682D01*
X152203044Y-125407481D01*
X152074236Y-125214706D01*
X151910294Y-125050764D01*
X151717519Y-124921956D01*
X151503318Y-124833231D01*
X151275924Y-124788000D01*
X151044076Y-124788000D01*
X150816682Y-124833231D01*
X150602481Y-124921956D01*
X150409706Y-125050764D01*
X150245764Y-125214706D01*
X150116956Y-125407481D01*
X150028231Y-125621682D01*
X149983000Y-125849076D01*
X149797000Y-125849076D01*
X149751769Y-125621682D01*
X149663044Y-125407481D01*
X149534236Y-125214706D01*
X149370294Y-125050764D01*
X149177519Y-124921956D01*
X148963318Y-124833231D01*
X148735924Y-124788000D01*
X148504076Y-124788000D01*
X148276682Y-124833231D01*
X148062481Y-124921956D01*
X147869706Y-125050764D01*
X147705764Y-125214706D01*
X147576956Y-125407481D01*
X147488231Y-125621682D01*
X147443000Y-125849076D01*
X147257000Y-125849076D01*
X147211769Y-125621682D01*
X147123044Y-125407481D01*
X146994236Y-125214706D01*
X146830294Y-125050764D01*
X146637519Y-124921956D01*
X146423318Y-124833231D01*
X146195924Y-124788000D01*
X145964076Y-124788000D01*
X145736682Y-124833231D01*
X145522481Y-124921956D01*
X145329706Y-125050764D01*
X145165764Y-125214706D01*
X145036956Y-125407481D01*
X144948231Y-125621682D01*
X144903000Y-125849076D01*
X144717000Y-125849076D01*
X144671769Y-125621682D01*
X144583044Y-125407481D01*
X144454236Y-125214706D01*
X144290294Y-125050764D01*
X144097519Y-124921956D01*
X143883318Y-124833231D01*
X143655924Y-124788000D01*
X143424076Y-124788000D01*
X143196682Y-124833231D01*
X142982481Y-124921956D01*
X142789706Y-125050764D01*
X142625764Y-125214706D01*
X142496956Y-125407481D01*
X142408231Y-125621682D01*
X142363000Y-125849076D01*
X142363000Y-126080924D01*
X142408231Y-126308318D01*
X142496956Y-126522519D01*
X142625764Y-126715294D01*
X142789706Y-126879236D01*
X142813001Y-126894801D01*
X142813000Y-128604292D01*
X142809483Y-128640000D01*
X142823520Y-128782517D01*
X142841721Y-128842517D01*
X142865090Y-128919556D01*
X142932597Y-129045852D01*
X143023446Y-129156553D01*
X143051189Y-129179321D01*
X144044877Y-130173010D01*
X143501144Y-130173010D01*
X141727000Y-128398868D01*
X141727000Y-126894801D01*
X141750294Y-126879236D01*
X141914236Y-126715294D01*
X142043044Y-126522519D01*
X142131769Y-126308318D01*
X142177000Y-126080924D01*
X142177000Y-125849076D01*
X142131769Y-125621682D01*
X142043044Y-125407481D01*
X141914236Y-125214706D01*
X141750294Y-125050764D01*
X141557519Y-124921956D01*
X141343318Y-124833231D01*
X141115924Y-124788000D01*
X140884076Y-124788000D01*
X140656682Y-124833231D01*
X140442481Y-124921956D01*
X140249706Y-125050764D01*
X140085764Y-125214706D01*
X139956956Y-125407481D01*
X139868231Y-125621682D01*
X139823000Y-125849076D01*
X139823000Y-126080924D01*
X139868231Y-126308318D01*
X139956956Y-126522519D01*
X140085764Y-126715294D01*
X140249706Y-126879236D01*
X140273001Y-126894801D01*
X140273000Y-128664292D01*
X140269483Y-128700000D01*
X140273000Y-128735707D01*
X140283520Y-128842516D01*
X140325090Y-128979556D01*
X140392597Y-129105852D01*
X140483446Y-129216553D01*
X140511189Y-129239321D01*
X142660698Y-131388832D01*
X142683456Y-131416563D01*
X142711187Y-131439321D01*
X142711192Y-131439326D01*
X142794156Y-131507412D01*
X142920453Y-131574920D01*
X143057492Y-131616490D01*
X143200010Y-131630527D01*
X143235728Y-131627009D01*
X166578510Y-131627011D01*
X166614218Y-131630528D01*
X166756735Y-131616491D01*
X166893774Y-131574921D01*
X166893778Y-131574919D01*
X167020070Y-131507414D01*
X167130771Y-131416565D01*
X167153538Y-131388823D01*
X170188823Y-128353539D01*
X170216565Y-128330772D01*
X170307414Y-128220071D01*
X170374921Y-128093775D01*
X170416491Y-127956735D01*
X170427011Y-127849926D01*
X170427011Y-127849924D01*
X170430528Y-127814219D01*
X170427011Y-127778513D01*
X170427011Y-94621487D01*
X170430528Y-94585781D01*
X170423180Y-94511182D01*
X170416491Y-94443265D01*
X170374921Y-94306225D01*
X170307414Y-94179929D01*
X170216564Y-94069228D01*
X170188827Y-94046465D01*
X168253544Y-92111183D01*
X168230772Y-92083435D01*
X168120071Y-91992586D01*
X167993775Y-91925079D01*
X167856735Y-91883509D01*
X167749926Y-91872989D01*
X167714218Y-91869472D01*
X167678510Y-91872989D01*
X141621487Y-91872989D01*
X141585781Y-91869472D01*
X141550076Y-91872989D01*
X141550074Y-91872989D01*
X141443265Y-91883509D01*
X141306225Y-91925079D01*
X141179929Y-91992586D01*
X141069228Y-92083435D01*
X141046461Y-92111177D01*
X139111178Y-94046461D01*
X139083436Y-94069228D01*
X138992588Y-94179928D01*
X138992587Y-94179929D01*
X138925079Y-94306226D01*
X138883509Y-94443265D01*
X138869472Y-94585782D01*
X138872990Y-94621500D01*
X138872989Y-105298877D01*
X137938868Y-106233000D01*
X137778582Y-106233000D01*
X137778582Y-106110000D01*
X137772268Y-106045897D01*
X137753570Y-105984257D01*
X137723206Y-105927450D01*
X137682343Y-105877657D01*
X137632550Y-105836794D01*
X137575743Y-105806430D01*
X137514103Y-105787732D01*
X137450000Y-105781418D01*
X137327000Y-105781418D01*
X137327000Y-101369801D01*
X137350294Y-101354236D01*
X137514236Y-101190294D01*
X137643044Y-100997519D01*
X137731769Y-100783318D01*
X137777000Y-100555924D01*
X137777000Y-100324076D01*
X137731769Y-100096682D01*
X137643044Y-99882481D01*
X137514236Y-99689706D01*
X137350294Y-99525764D01*
X137157519Y-99396956D01*
X136943318Y-99308231D01*
X136715924Y-99263000D01*
X136484076Y-99263000D01*
X136256682Y-99308231D01*
X136042481Y-99396956D01*
X135849706Y-99525764D01*
X135685764Y-99689706D01*
X135556956Y-99882481D01*
X135468231Y-100096682D01*
X135423000Y-100324076D01*
X135423000Y-100555924D01*
X135468231Y-100783318D01*
X135556956Y-100997519D01*
X135685764Y-101190294D01*
X135849706Y-101354236D01*
X135873000Y-101369801D01*
X135873001Y-105781418D01*
X135750000Y-105781418D01*
X135685897Y-105787732D01*
X135624257Y-105806430D01*
X135567450Y-105836794D01*
X135517657Y-105877657D01*
X135476794Y-105927450D01*
X135446430Y-105984257D01*
X135427732Y-106045897D01*
X135421418Y-106110000D01*
X135421418Y-107810000D01*
X135427732Y-107874103D01*
X135446430Y-107935743D01*
X135476794Y-107992550D01*
X135517657Y-108042343D01*
X135567450Y-108083206D01*
X135624257Y-108113570D01*
X135685897Y-108132268D01*
X135750000Y-108138582D01*
X136017408Y-108138582D01*
X135968748Y-108155843D01*
X135718645Y-108304822D01*
X135502412Y-108499731D01*
X135328359Y-108733080D01*
X135203175Y-108995901D01*
X135158524Y-109143110D01*
X132727000Y-109143110D01*
X132727000Y-100201132D01*
X134301133Y-98627000D01*
X135421418Y-98627000D01*
X135421418Y-98750000D01*
X135427732Y-98814103D01*
X135446430Y-98875743D01*
X135476794Y-98932550D01*
X135517657Y-98982343D01*
X135567450Y-99023206D01*
X135624257Y-99053570D01*
X135685897Y-99072268D01*
X135750000Y-99078582D01*
X137450000Y-99078582D01*
X137514103Y-99072268D01*
X137575743Y-99053570D01*
X137632550Y-99023206D01*
X137682343Y-98982343D01*
X137723206Y-98932550D01*
X137753570Y-98875743D01*
X137772268Y-98814103D01*
X137778582Y-98750000D01*
X137778582Y-97050000D01*
X137772268Y-96985897D01*
X137753570Y-96924257D01*
X137723206Y-96867450D01*
X137682343Y-96817657D01*
X137632550Y-96776794D01*
X137575743Y-96746430D01*
X137514103Y-96727732D01*
X137450000Y-96721418D01*
X135750000Y-96721418D01*
X135685897Y-96727732D01*
X135624257Y-96746430D01*
X135567450Y-96776794D01*
X135517657Y-96817657D01*
X135476794Y-96867450D01*
X135446430Y-96924257D01*
X135427732Y-96985897D01*
X135421418Y-97050000D01*
X135421418Y-97173000D01*
X134035707Y-97173000D01*
X133999999Y-97169483D01*
X133857482Y-97183520D01*
X133825587Y-97193195D01*
X133720443Y-97225090D01*
X133594147Y-97292597D01*
X133483446Y-97383446D01*
X133460679Y-97411188D01*
X131511189Y-99360679D01*
X131483446Y-99383447D01*
X131392597Y-99494148D01*
X131375698Y-99525764D01*
X131325090Y-99620444D01*
X131283520Y-99757483D01*
X131269483Y-99900000D01*
X103152000Y-99900000D01*
X103152000Y-77564176D01*
X107763900Y-77564176D01*
X107763900Y-77796024D01*
X107809131Y-78023418D01*
X107897856Y-78237619D01*
X108026664Y-78430394D01*
X108190606Y-78594336D01*
X108383381Y-78723144D01*
X108597582Y-78811869D01*
X108824976Y-78857100D01*
X109056824Y-78857100D01*
X109284218Y-78811869D01*
X109498419Y-78723144D01*
X109691194Y-78594336D01*
X109855136Y-78430394D01*
X109983944Y-78237619D01*
X110072669Y-78023418D01*
X110117900Y-77796024D01*
X110117900Y-77564176D01*
X110303900Y-77564176D01*
X110303900Y-77796024D01*
X110349131Y-78023418D01*
X110437856Y-78237619D01*
X110566664Y-78430394D01*
X110730606Y-78594336D01*
X110923381Y-78723144D01*
X111137582Y-78811869D01*
X111364976Y-78857100D01*
X111596824Y-78857100D01*
X111824218Y-78811869D01*
X112038419Y-78723144D01*
X112231194Y-78594336D01*
X112395136Y-78430394D01*
X112523944Y-78237619D01*
X112612669Y-78023418D01*
X112657900Y-77796024D01*
X112657900Y-77564176D01*
X112843900Y-77564176D01*
X112843900Y-77796024D01*
X112889131Y-78023418D01*
X112977856Y-78237619D01*
X113106664Y-78430394D01*
X113270606Y-78594336D01*
X113463381Y-78723144D01*
X113677582Y-78811869D01*
X113904976Y-78857100D01*
X114136824Y-78857100D01*
X114364218Y-78811869D01*
X114578419Y-78723144D01*
X114771194Y-78594336D01*
X114935136Y-78430394D01*
X115063944Y-78237619D01*
X115152669Y-78023418D01*
X115197900Y-77796024D01*
X115197900Y-77564176D01*
X115383900Y-77564176D01*
X115383900Y-77796024D01*
X115429131Y-78023418D01*
X115517856Y-78237619D01*
X115646664Y-78430394D01*
X115810606Y-78594336D01*
X116003381Y-78723144D01*
X116217582Y-78811869D01*
X116444976Y-78857100D01*
X116676824Y-78857100D01*
X116904218Y-78811869D01*
X117118419Y-78723144D01*
X117311194Y-78594336D01*
X117475136Y-78430394D01*
X117603944Y-78237619D01*
X117692669Y-78023418D01*
X117737900Y-77796024D01*
X117737900Y-77564176D01*
X117923900Y-77564176D01*
X117923900Y-77796024D01*
X117969131Y-78023418D01*
X118057856Y-78237619D01*
X118186664Y-78430394D01*
X118350606Y-78594336D01*
X118543381Y-78723144D01*
X118757582Y-78811869D01*
X118984976Y-78857100D01*
X119216824Y-78857100D01*
X119444218Y-78811869D01*
X119658419Y-78723144D01*
X119851194Y-78594336D01*
X120015136Y-78430394D01*
X120143944Y-78237619D01*
X120232669Y-78023418D01*
X120277900Y-77796024D01*
X120277900Y-77564176D01*
X120232669Y-77336782D01*
X120143944Y-77122581D01*
X120015136Y-76929806D01*
X119851194Y-76765864D01*
X119658419Y-76637056D01*
X119444218Y-76548331D01*
X119216824Y-76503100D01*
X118984976Y-76503100D01*
X118757582Y-76548331D01*
X118543381Y-76637056D01*
X118350606Y-76765864D01*
X118186664Y-76929806D01*
X118057856Y-77122581D01*
X117969131Y-77336782D01*
X117923900Y-77564176D01*
X117737900Y-77564176D01*
X117692669Y-77336782D01*
X117603944Y-77122581D01*
X117475136Y-76929806D01*
X117311194Y-76765864D01*
X117118419Y-76637056D01*
X116904218Y-76548331D01*
X116676824Y-76503100D01*
X116444976Y-76503100D01*
X116217582Y-76548331D01*
X116003381Y-76637056D01*
X115810606Y-76765864D01*
X115646664Y-76929806D01*
X115517856Y-77122581D01*
X115429131Y-77336782D01*
X115383900Y-77564176D01*
X115197900Y-77564176D01*
X115152669Y-77336782D01*
X115063944Y-77122581D01*
X114935136Y-76929806D01*
X114771194Y-76765864D01*
X114578419Y-76637056D01*
X114364218Y-76548331D01*
X114136824Y-76503100D01*
X113904976Y-76503100D01*
X113677582Y-76548331D01*
X113463381Y-76637056D01*
X113270606Y-76765864D01*
X113106664Y-76929806D01*
X112977856Y-77122581D01*
X112889131Y-77336782D01*
X112843900Y-77564176D01*
X112657900Y-77564176D01*
X112612669Y-77336782D01*
X112523944Y-77122581D01*
X112395136Y-76929806D01*
X112231194Y-76765864D01*
X112038419Y-76637056D01*
X111824218Y-76548331D01*
X111596824Y-76503100D01*
X111364976Y-76503100D01*
X111137582Y-76548331D01*
X110923381Y-76637056D01*
X110730606Y-76765864D01*
X110566664Y-76929806D01*
X110437856Y-77122581D01*
X110349131Y-77336782D01*
X110303900Y-77564176D01*
X110117900Y-77564176D01*
X110072669Y-77336782D01*
X109983944Y-77122581D01*
X109855136Y-76929806D01*
X109691194Y-76765864D01*
X109498419Y-76637056D01*
X109284218Y-76548331D01*
X109056824Y-76503100D01*
X108824976Y-76503100D01*
X108597582Y-76548331D01*
X108383381Y-76637056D01*
X108190606Y-76765864D01*
X108026664Y-76929806D01*
X107897856Y-77122581D01*
X107809131Y-77336782D01*
X107763900Y-77564176D01*
X103152000Y-77564176D01*
X103152000Y-74290100D01*
X107762318Y-74290100D01*
X107762318Y-75990100D01*
X107768632Y-76054203D01*
X107787330Y-76115843D01*
X107817694Y-76172650D01*
X107858557Y-76222443D01*
X107908350Y-76263306D01*
X107965157Y-76293670D01*
X108026797Y-76312368D01*
X108090900Y-76318682D01*
X109790900Y-76318682D01*
X109855003Y-76312368D01*
X109916643Y-76293670D01*
X109973450Y-76263306D01*
X110023243Y-76222443D01*
X110064106Y-76172650D01*
X110094470Y-76115843D01*
X110113168Y-76054203D01*
X110119482Y-75990100D01*
X110119482Y-75024176D01*
X110303900Y-75024176D01*
X110303900Y-75256024D01*
X110349131Y-75483418D01*
X110437856Y-75697619D01*
X110566664Y-75890394D01*
X110730606Y-76054336D01*
X110923381Y-76183144D01*
X111137582Y-76271869D01*
X111364976Y-76317100D01*
X111596824Y-76317100D01*
X111824218Y-76271869D01*
X112038419Y-76183144D01*
X112231194Y-76054336D01*
X112395136Y-75890394D01*
X112523944Y-75697619D01*
X112612669Y-75483418D01*
X112657900Y-75256024D01*
X112657900Y-75024176D01*
X112843900Y-75024176D01*
X112843900Y-75256024D01*
X112889131Y-75483418D01*
X112977856Y-75697619D01*
X113106664Y-75890394D01*
X113270606Y-76054336D01*
X113463381Y-76183144D01*
X113677582Y-76271869D01*
X113904976Y-76317100D01*
X114136824Y-76317100D01*
X114364218Y-76271869D01*
X114578419Y-76183144D01*
X114771194Y-76054336D01*
X114935136Y-75890394D01*
X115063944Y-75697619D01*
X115152669Y-75483418D01*
X115197900Y-75256024D01*
X115197900Y-75024176D01*
X115383900Y-75024176D01*
X115383900Y-75256024D01*
X115429131Y-75483418D01*
X115517856Y-75697619D01*
X115646664Y-75890394D01*
X115810606Y-76054336D01*
X116003381Y-76183144D01*
X116217582Y-76271869D01*
X116444976Y-76317100D01*
X116676824Y-76317100D01*
X116904218Y-76271869D01*
X117118419Y-76183144D01*
X117311194Y-76054336D01*
X117475136Y-75890394D01*
X117603944Y-75697619D01*
X117692669Y-75483418D01*
X117737900Y-75256024D01*
X117737900Y-75024176D01*
X117923900Y-75024176D01*
X117923900Y-75256024D01*
X117969131Y-75483418D01*
X118057856Y-75697619D01*
X118186664Y-75890394D01*
X118350606Y-76054336D01*
X118543381Y-76183144D01*
X118757582Y-76271869D01*
X118984976Y-76317100D01*
X119216824Y-76317100D01*
X119444218Y-76271869D01*
X119658419Y-76183144D01*
X119851194Y-76054336D01*
X120015136Y-75890394D01*
X120143944Y-75697619D01*
X120212164Y-75532921D01*
X120296743Y-75771352D01*
X120445722Y-76021455D01*
X120640631Y-76237688D01*
X120873980Y-76411741D01*
X121136801Y-76536925D01*
X121245512Y-76569899D01*
X121083381Y-76637056D01*
X120890606Y-76765864D01*
X120726664Y-76929806D01*
X120597856Y-77122581D01*
X120509131Y-77336782D01*
X120463900Y-77564176D01*
X120463900Y-77796024D01*
X120509131Y-78023418D01*
X120597856Y-78237619D01*
X120726664Y-78430394D01*
X120890606Y-78594336D01*
X121083381Y-78723144D01*
X121297582Y-78811869D01*
X121524976Y-78857100D01*
X121756824Y-78857100D01*
X121984218Y-78811869D01*
X122198419Y-78723144D01*
X122391194Y-78594336D01*
X122555136Y-78430394D01*
X122683944Y-78237619D01*
X122772669Y-78023418D01*
X122817900Y-77796024D01*
X122817900Y-77564176D01*
X123003900Y-77564176D01*
X123003900Y-77796024D01*
X123049131Y-78023418D01*
X123137856Y-78237619D01*
X123266664Y-78430394D01*
X123430606Y-78594336D01*
X123623381Y-78723144D01*
X123837582Y-78811869D01*
X124064976Y-78857100D01*
X124296824Y-78857100D01*
X124524218Y-78811869D01*
X124738419Y-78723144D01*
X124931194Y-78594336D01*
X125095136Y-78430394D01*
X125223944Y-78237619D01*
X125312669Y-78023418D01*
X125357900Y-77796024D01*
X125357900Y-77564176D01*
X125543900Y-77564176D01*
X125543900Y-77796024D01*
X125589131Y-78023418D01*
X125677856Y-78237619D01*
X125806664Y-78430394D01*
X125970606Y-78594336D01*
X126163381Y-78723144D01*
X126377582Y-78811869D01*
X126604976Y-78857100D01*
X126836824Y-78857100D01*
X127064218Y-78811869D01*
X127278419Y-78723144D01*
X127471194Y-78594336D01*
X127635136Y-78430394D01*
X127763944Y-78237619D01*
X127852669Y-78023418D01*
X127897900Y-77796024D01*
X127897900Y-77564176D01*
X128083900Y-77564176D01*
X128083900Y-77796024D01*
X128129131Y-78023418D01*
X128217856Y-78237619D01*
X128346664Y-78430394D01*
X128510606Y-78594336D01*
X128703381Y-78723144D01*
X128917582Y-78811869D01*
X129144976Y-78857100D01*
X129376824Y-78857100D01*
X129604218Y-78811869D01*
X129818419Y-78723144D01*
X130011194Y-78594336D01*
X130175136Y-78430394D01*
X130303944Y-78237619D01*
X130392669Y-78023418D01*
X130437900Y-77796024D01*
X130437900Y-77564176D01*
X130623900Y-77564176D01*
X130623900Y-77796024D01*
X130669131Y-78023418D01*
X130757856Y-78237619D01*
X130886664Y-78430394D01*
X131050606Y-78594336D01*
X131243381Y-78723144D01*
X131457582Y-78811869D01*
X131684976Y-78857100D01*
X131916824Y-78857100D01*
X132144218Y-78811869D01*
X132358419Y-78723144D01*
X132551194Y-78594336D01*
X132715136Y-78430394D01*
X132843944Y-78237619D01*
X132932669Y-78023418D01*
X132977900Y-77796024D01*
X132977900Y-77581476D01*
X134743000Y-77581476D01*
X134743000Y-77813324D01*
X134788231Y-78040718D01*
X134876956Y-78254919D01*
X135005764Y-78447694D01*
X135169706Y-78611636D01*
X135362481Y-78740444D01*
X135576682Y-78829169D01*
X135804076Y-78874400D01*
X136035924Y-78874400D01*
X136263318Y-78829169D01*
X136477519Y-78740444D01*
X136670294Y-78611636D01*
X136834236Y-78447694D01*
X136963044Y-78254919D01*
X137051769Y-78040718D01*
X137097000Y-77813324D01*
X137097000Y-77581476D01*
X137283000Y-77581476D01*
X137283000Y-77813324D01*
X137328231Y-78040718D01*
X137416956Y-78254919D01*
X137545764Y-78447694D01*
X137709706Y-78611636D01*
X137902481Y-78740444D01*
X138116682Y-78829169D01*
X138344076Y-78874400D01*
X138575924Y-78874400D01*
X138803318Y-78829169D01*
X139017519Y-78740444D01*
X139210294Y-78611636D01*
X139374236Y-78447694D01*
X139503044Y-78254919D01*
X139591769Y-78040718D01*
X139637000Y-77813324D01*
X139637000Y-77581476D01*
X139823000Y-77581476D01*
X139823000Y-77813324D01*
X139868231Y-78040718D01*
X139956956Y-78254919D01*
X140085764Y-78447694D01*
X140249706Y-78611636D01*
X140442481Y-78740444D01*
X140656682Y-78829169D01*
X140884076Y-78874400D01*
X141115924Y-78874400D01*
X141343318Y-78829169D01*
X141557519Y-78740444D01*
X141750294Y-78611636D01*
X141914236Y-78447694D01*
X142043044Y-78254919D01*
X142131769Y-78040718D01*
X142177000Y-77813324D01*
X142177000Y-77581476D01*
X142363000Y-77581476D01*
X142363000Y-77813324D01*
X142408231Y-78040718D01*
X142496956Y-78254919D01*
X142625764Y-78447694D01*
X142789706Y-78611636D01*
X142982481Y-78740444D01*
X143196682Y-78829169D01*
X143424076Y-78874400D01*
X143655924Y-78874400D01*
X143883318Y-78829169D01*
X144097519Y-78740444D01*
X144290294Y-78611636D01*
X144454236Y-78447694D01*
X144583044Y-78254919D01*
X144671769Y-78040718D01*
X144717000Y-77813324D01*
X144717000Y-77581476D01*
X144903000Y-77581476D01*
X144903000Y-77813324D01*
X144948231Y-78040718D01*
X145036956Y-78254919D01*
X145165764Y-78447694D01*
X145329706Y-78611636D01*
X145522481Y-78740444D01*
X145736682Y-78829169D01*
X145964076Y-78874400D01*
X146195924Y-78874400D01*
X146423318Y-78829169D01*
X146637519Y-78740444D01*
X146830294Y-78611636D01*
X146994236Y-78447694D01*
X147123044Y-78254919D01*
X147211769Y-78040718D01*
X147257000Y-77813324D01*
X147257000Y-77581476D01*
X147443000Y-77581476D01*
X147443000Y-77813324D01*
X147488231Y-78040718D01*
X147576956Y-78254919D01*
X147705764Y-78447694D01*
X147869706Y-78611636D01*
X148062481Y-78740444D01*
X148276682Y-78829169D01*
X148504076Y-78874400D01*
X148735924Y-78874400D01*
X148963318Y-78829169D01*
X149177519Y-78740444D01*
X149370294Y-78611636D01*
X149534236Y-78447694D01*
X149663044Y-78254919D01*
X149751769Y-78040718D01*
X149797000Y-77813324D01*
X149797000Y-77581476D01*
X149983000Y-77581476D01*
X149983000Y-77813324D01*
X150028231Y-78040718D01*
X150116956Y-78254919D01*
X150245764Y-78447694D01*
X150409706Y-78611636D01*
X150602481Y-78740444D01*
X150816682Y-78829169D01*
X151044076Y-78874400D01*
X151275924Y-78874400D01*
X151503318Y-78829169D01*
X151717519Y-78740444D01*
X151910294Y-78611636D01*
X152074236Y-78447694D01*
X152203044Y-78254919D01*
X152291769Y-78040718D01*
X152337000Y-77813324D01*
X152337000Y-77581476D01*
X152523000Y-77581476D01*
X152523000Y-77813324D01*
X152568231Y-78040718D01*
X152656956Y-78254919D01*
X152785764Y-78447694D01*
X152949706Y-78611636D01*
X153142481Y-78740444D01*
X153356682Y-78829169D01*
X153584076Y-78874400D01*
X153815924Y-78874400D01*
X154043318Y-78829169D01*
X154257519Y-78740444D01*
X154450294Y-78611636D01*
X154614236Y-78447694D01*
X154743044Y-78254919D01*
X154831769Y-78040718D01*
X154877000Y-77813324D01*
X154877000Y-77581476D01*
X154831769Y-77354082D01*
X154743044Y-77139881D01*
X154614236Y-76947106D01*
X154450294Y-76783164D01*
X154257519Y-76654356D01*
X154043318Y-76565631D01*
X153815924Y-76520400D01*
X153584076Y-76520400D01*
X153356682Y-76565631D01*
X153142481Y-76654356D01*
X152949706Y-76783164D01*
X152785764Y-76947106D01*
X152656956Y-77139881D01*
X152568231Y-77354082D01*
X152523000Y-77581476D01*
X152337000Y-77581476D01*
X152291769Y-77354082D01*
X152203044Y-77139881D01*
X152074236Y-76947106D01*
X151910294Y-76783164D01*
X151717519Y-76654356D01*
X151503318Y-76565631D01*
X151275924Y-76520400D01*
X151044076Y-76520400D01*
X150816682Y-76565631D01*
X150602481Y-76654356D01*
X150409706Y-76783164D01*
X150245764Y-76947106D01*
X150116956Y-77139881D01*
X150028231Y-77354082D01*
X149983000Y-77581476D01*
X149797000Y-77581476D01*
X149751769Y-77354082D01*
X149663044Y-77139881D01*
X149534236Y-76947106D01*
X149370294Y-76783164D01*
X149177519Y-76654356D01*
X148963318Y-76565631D01*
X148735924Y-76520400D01*
X148504076Y-76520400D01*
X148276682Y-76565631D01*
X148062481Y-76654356D01*
X147869706Y-76783164D01*
X147705764Y-76947106D01*
X147576956Y-77139881D01*
X147488231Y-77354082D01*
X147443000Y-77581476D01*
X147257000Y-77581476D01*
X147211769Y-77354082D01*
X147123044Y-77139881D01*
X146994236Y-76947106D01*
X146830294Y-76783164D01*
X146637519Y-76654356D01*
X146423318Y-76565631D01*
X146195924Y-76520400D01*
X145964076Y-76520400D01*
X145736682Y-76565631D01*
X145522481Y-76654356D01*
X145329706Y-76783164D01*
X145165764Y-76947106D01*
X145036956Y-77139881D01*
X144948231Y-77354082D01*
X144903000Y-77581476D01*
X144717000Y-77581476D01*
X144671769Y-77354082D01*
X144583044Y-77139881D01*
X144454236Y-76947106D01*
X144290294Y-76783164D01*
X144097519Y-76654356D01*
X143883318Y-76565631D01*
X143655924Y-76520400D01*
X143424076Y-76520400D01*
X143196682Y-76565631D01*
X142982481Y-76654356D01*
X142789706Y-76783164D01*
X142625764Y-76947106D01*
X142496956Y-77139881D01*
X142408231Y-77354082D01*
X142363000Y-77581476D01*
X142177000Y-77581476D01*
X142131769Y-77354082D01*
X142043044Y-77139881D01*
X141914236Y-76947106D01*
X141750294Y-76783164D01*
X141557519Y-76654356D01*
X141343318Y-76565631D01*
X141115924Y-76520400D01*
X140884076Y-76520400D01*
X140656682Y-76565631D01*
X140442481Y-76654356D01*
X140249706Y-76783164D01*
X140085764Y-76947106D01*
X139956956Y-77139881D01*
X139868231Y-77354082D01*
X139823000Y-77581476D01*
X139637000Y-77581476D01*
X139591769Y-77354082D01*
X139503044Y-77139881D01*
X139374236Y-76947106D01*
X139210294Y-76783164D01*
X139017519Y-76654356D01*
X138803318Y-76565631D01*
X138575924Y-76520400D01*
X138344076Y-76520400D01*
X138116682Y-76565631D01*
X137902481Y-76654356D01*
X137709706Y-76783164D01*
X137545764Y-76947106D01*
X137416956Y-77139881D01*
X137328231Y-77354082D01*
X137283000Y-77581476D01*
X137097000Y-77581476D01*
X137051769Y-77354082D01*
X136963044Y-77139881D01*
X136834236Y-76947106D01*
X136670294Y-76783164D01*
X136477519Y-76654356D01*
X136263318Y-76565631D01*
X136035924Y-76520400D01*
X135804076Y-76520400D01*
X135576682Y-76565631D01*
X135362481Y-76654356D01*
X135169706Y-76783164D01*
X135005764Y-76947106D01*
X134876956Y-77139881D01*
X134788231Y-77354082D01*
X134743000Y-77581476D01*
X132977900Y-77581476D01*
X132977900Y-77564176D01*
X132932669Y-77336782D01*
X132843944Y-77122581D01*
X132715136Y-76929806D01*
X132551194Y-76765864D01*
X132358419Y-76637056D01*
X132144218Y-76548331D01*
X131916824Y-76503100D01*
X131684976Y-76503100D01*
X131457582Y-76548331D01*
X131243381Y-76637056D01*
X131050606Y-76765864D01*
X130886664Y-76929806D01*
X130757856Y-77122581D01*
X130669131Y-77336782D01*
X130623900Y-77564176D01*
X130437900Y-77564176D01*
X130392669Y-77336782D01*
X130303944Y-77122581D01*
X130175136Y-76929806D01*
X130011194Y-76765864D01*
X129818419Y-76637056D01*
X129604218Y-76548331D01*
X129376824Y-76503100D01*
X129144976Y-76503100D01*
X128917582Y-76548331D01*
X128703381Y-76637056D01*
X128510606Y-76765864D01*
X128346664Y-76929806D01*
X128217856Y-77122581D01*
X128129131Y-77336782D01*
X128083900Y-77564176D01*
X127897900Y-77564176D01*
X127852669Y-77336782D01*
X127763944Y-77122581D01*
X127635136Y-76929806D01*
X127471194Y-76765864D01*
X127278419Y-76637056D01*
X127064218Y-76548331D01*
X126836824Y-76503100D01*
X126604976Y-76503100D01*
X126377582Y-76548331D01*
X126163381Y-76637056D01*
X125970606Y-76765864D01*
X125806664Y-76929806D01*
X125677856Y-77122581D01*
X125589131Y-77336782D01*
X125543900Y-77564176D01*
X125357900Y-77564176D01*
X125312669Y-77336782D01*
X125223944Y-77122581D01*
X125095136Y-76929806D01*
X124931194Y-76765864D01*
X124738419Y-76637056D01*
X124524218Y-76548331D01*
X124296824Y-76503100D01*
X124064976Y-76503100D01*
X123837582Y-76548331D01*
X123623381Y-76637056D01*
X123430606Y-76765864D01*
X123266664Y-76929806D01*
X123137856Y-77122581D01*
X123049131Y-77336782D01*
X123003900Y-77564176D01*
X122817900Y-77564176D01*
X122772669Y-77336782D01*
X122683944Y-77122581D01*
X122555136Y-76929806D01*
X122391194Y-76765864D01*
X122198419Y-76637056D01*
X122036288Y-76569899D01*
X122144999Y-76536925D01*
X122407820Y-76411741D01*
X122641169Y-76237688D01*
X122836078Y-76021455D01*
X122985057Y-75771352D01*
X123069636Y-75532921D01*
X123137856Y-75697619D01*
X123266664Y-75890394D01*
X123430606Y-76054336D01*
X123623381Y-76183144D01*
X123837582Y-76271869D01*
X124064976Y-76317100D01*
X124296824Y-76317100D01*
X124524218Y-76271869D01*
X124738419Y-76183144D01*
X124931194Y-76054336D01*
X125095136Y-75890394D01*
X125223944Y-75697619D01*
X125312669Y-75483418D01*
X125357900Y-75256024D01*
X125357900Y-75024176D01*
X125543900Y-75024176D01*
X125543900Y-75256024D01*
X125589131Y-75483418D01*
X125677856Y-75697619D01*
X125806664Y-75890394D01*
X125970606Y-76054336D01*
X126163381Y-76183144D01*
X126377582Y-76271869D01*
X126604976Y-76317100D01*
X126836824Y-76317100D01*
X127064218Y-76271869D01*
X127278419Y-76183144D01*
X127471194Y-76054336D01*
X127635136Y-75890394D01*
X127763944Y-75697619D01*
X127852669Y-75483418D01*
X127897900Y-75256024D01*
X127897900Y-75024176D01*
X128083900Y-75024176D01*
X128083900Y-75256024D01*
X128129131Y-75483418D01*
X128217856Y-75697619D01*
X128346664Y-75890394D01*
X128510606Y-76054336D01*
X128703381Y-76183144D01*
X128917582Y-76271869D01*
X129144976Y-76317100D01*
X129376824Y-76317100D01*
X129604218Y-76271869D01*
X129818419Y-76183144D01*
X130011194Y-76054336D01*
X130175136Y-75890394D01*
X130303944Y-75697619D01*
X130392669Y-75483418D01*
X130437900Y-75256024D01*
X130437900Y-75024176D01*
X130623900Y-75024176D01*
X130623900Y-75256024D01*
X130669131Y-75483418D01*
X130757856Y-75697619D01*
X130886664Y-75890394D01*
X131050606Y-76054336D01*
X131243381Y-76183144D01*
X131457582Y-76271869D01*
X131684976Y-76317100D01*
X131916824Y-76317100D01*
X132144218Y-76271869D01*
X132358419Y-76183144D01*
X132551194Y-76054336D01*
X132715136Y-75890394D01*
X132843944Y-75697619D01*
X132932669Y-75483418D01*
X132977900Y-75256024D01*
X132977900Y-75024176D01*
X132932669Y-74796782D01*
X132843944Y-74582581D01*
X132715136Y-74389806D01*
X132632730Y-74307400D01*
X134741418Y-74307400D01*
X134741418Y-76007400D01*
X134747732Y-76071503D01*
X134766430Y-76133143D01*
X134796794Y-76189950D01*
X134837657Y-76239743D01*
X134887450Y-76280606D01*
X134944257Y-76310970D01*
X135005897Y-76329668D01*
X135070000Y-76335982D01*
X136770000Y-76335982D01*
X136834103Y-76329668D01*
X136895743Y-76310970D01*
X136952550Y-76280606D01*
X137002343Y-76239743D01*
X137043206Y-76189950D01*
X137073570Y-76133143D01*
X137092268Y-76071503D01*
X137098582Y-76007400D01*
X137098582Y-75041476D01*
X137283000Y-75041476D01*
X137283000Y-75273324D01*
X137328231Y-75500718D01*
X137416956Y-75714919D01*
X137545764Y-75907694D01*
X137709706Y-76071636D01*
X137902481Y-76200444D01*
X138116682Y-76289169D01*
X138344076Y-76334400D01*
X138575924Y-76334400D01*
X138803318Y-76289169D01*
X139017519Y-76200444D01*
X139210294Y-76071636D01*
X139374236Y-75907694D01*
X139503044Y-75714919D01*
X139591769Y-75500718D01*
X139637000Y-75273324D01*
X139637000Y-75041476D01*
X139823000Y-75041476D01*
X139823000Y-75273324D01*
X139868231Y-75500718D01*
X139956956Y-75714919D01*
X140085764Y-75907694D01*
X140249706Y-76071636D01*
X140442481Y-76200444D01*
X140656682Y-76289169D01*
X140884076Y-76334400D01*
X141115924Y-76334400D01*
X141343318Y-76289169D01*
X141557519Y-76200444D01*
X141750294Y-76071636D01*
X141914236Y-75907694D01*
X142043044Y-75714919D01*
X142131769Y-75500718D01*
X142177000Y-75273324D01*
X142177000Y-75041476D01*
X142363000Y-75041476D01*
X142363000Y-75273324D01*
X142408231Y-75500718D01*
X142496956Y-75714919D01*
X142625764Y-75907694D01*
X142789706Y-76071636D01*
X142982481Y-76200444D01*
X143196682Y-76289169D01*
X143424076Y-76334400D01*
X143655924Y-76334400D01*
X143883318Y-76289169D01*
X144097519Y-76200444D01*
X144290294Y-76071636D01*
X144454236Y-75907694D01*
X144583044Y-75714919D01*
X144671769Y-75500718D01*
X144717000Y-75273324D01*
X144717000Y-75041476D01*
X144903000Y-75041476D01*
X144903000Y-75273324D01*
X144948231Y-75500718D01*
X145036956Y-75714919D01*
X145165764Y-75907694D01*
X145329706Y-76071636D01*
X145522481Y-76200444D01*
X145736682Y-76289169D01*
X145964076Y-76334400D01*
X146195924Y-76334400D01*
X146423318Y-76289169D01*
X146637519Y-76200444D01*
X146830294Y-76071636D01*
X146994236Y-75907694D01*
X147123044Y-75714919D01*
X147211769Y-75500718D01*
X147257000Y-75273324D01*
X147257000Y-75041476D01*
X147443000Y-75041476D01*
X147443000Y-75273324D01*
X147488231Y-75500718D01*
X147576956Y-75714919D01*
X147705764Y-75907694D01*
X147869706Y-76071636D01*
X148062481Y-76200444D01*
X148276682Y-76289169D01*
X148504076Y-76334400D01*
X148735924Y-76334400D01*
X148963318Y-76289169D01*
X149177519Y-76200444D01*
X149370294Y-76071636D01*
X149534236Y-75907694D01*
X149663044Y-75714919D01*
X149751769Y-75500718D01*
X149797000Y-75273324D01*
X149797000Y-75041476D01*
X149983000Y-75041476D01*
X149983000Y-75273324D01*
X150028231Y-75500718D01*
X150116956Y-75714919D01*
X150245764Y-75907694D01*
X150409706Y-76071636D01*
X150602481Y-76200444D01*
X150816682Y-76289169D01*
X151044076Y-76334400D01*
X151275924Y-76334400D01*
X151503318Y-76289169D01*
X151717519Y-76200444D01*
X151910294Y-76071636D01*
X152074236Y-75907694D01*
X152203044Y-75714919D01*
X152291769Y-75500718D01*
X152337000Y-75273324D01*
X152337000Y-75041476D01*
X152523000Y-75041476D01*
X152523000Y-75273324D01*
X152568231Y-75500718D01*
X152656956Y-75714919D01*
X152785764Y-75907694D01*
X152949706Y-76071636D01*
X153142481Y-76200444D01*
X153356682Y-76289169D01*
X153584076Y-76334400D01*
X153815924Y-76334400D01*
X154043318Y-76289169D01*
X154257519Y-76200444D01*
X154450294Y-76071636D01*
X154614236Y-75907694D01*
X154743044Y-75714919D01*
X154831769Y-75500718D01*
X154877000Y-75273324D01*
X154877000Y-75041476D01*
X154831769Y-74814082D01*
X154743044Y-74599881D01*
X154614236Y-74407106D01*
X154450294Y-74243164D01*
X154257519Y-74114356D01*
X154043318Y-74025631D01*
X153815924Y-73980400D01*
X153584076Y-73980400D01*
X153356682Y-74025631D01*
X153142481Y-74114356D01*
X152949706Y-74243164D01*
X152785764Y-74407106D01*
X152656956Y-74599881D01*
X152568231Y-74814082D01*
X152523000Y-75041476D01*
X152337000Y-75041476D01*
X152291769Y-74814082D01*
X152203044Y-74599881D01*
X152074236Y-74407106D01*
X151910294Y-74243164D01*
X151717519Y-74114356D01*
X151503318Y-74025631D01*
X151275924Y-73980400D01*
X151044076Y-73980400D01*
X150816682Y-74025631D01*
X150602481Y-74114356D01*
X150409706Y-74243164D01*
X150245764Y-74407106D01*
X150116956Y-74599881D01*
X150028231Y-74814082D01*
X149983000Y-75041476D01*
X149797000Y-75041476D01*
X149751769Y-74814082D01*
X149663044Y-74599881D01*
X149534236Y-74407106D01*
X149370294Y-74243164D01*
X149177519Y-74114356D01*
X148963318Y-74025631D01*
X148735924Y-73980400D01*
X148504076Y-73980400D01*
X148276682Y-74025631D01*
X148062481Y-74114356D01*
X147869706Y-74243164D01*
X147705764Y-74407106D01*
X147576956Y-74599881D01*
X147488231Y-74814082D01*
X147443000Y-75041476D01*
X147257000Y-75041476D01*
X147211769Y-74814082D01*
X147123044Y-74599881D01*
X146994236Y-74407106D01*
X146830294Y-74243164D01*
X146637519Y-74114356D01*
X146423318Y-74025631D01*
X146195924Y-73980400D01*
X145964076Y-73980400D01*
X145736682Y-74025631D01*
X145522481Y-74114356D01*
X145329706Y-74243164D01*
X145165764Y-74407106D01*
X145036956Y-74599881D01*
X144948231Y-74814082D01*
X144903000Y-75041476D01*
X144717000Y-75041476D01*
X144671769Y-74814082D01*
X144583044Y-74599881D01*
X144454236Y-74407106D01*
X144290294Y-74243164D01*
X144097519Y-74114356D01*
X143883318Y-74025631D01*
X143655924Y-73980400D01*
X143424076Y-73980400D01*
X143196682Y-74025631D01*
X142982481Y-74114356D01*
X142789706Y-74243164D01*
X142625764Y-74407106D01*
X142496956Y-74599881D01*
X142408231Y-74814082D01*
X142363000Y-75041476D01*
X142177000Y-75041476D01*
X142131769Y-74814082D01*
X142043044Y-74599881D01*
X141914236Y-74407106D01*
X141750294Y-74243164D01*
X141557519Y-74114356D01*
X141343318Y-74025631D01*
X141115924Y-73980400D01*
X140884076Y-73980400D01*
X140656682Y-74025631D01*
X140442481Y-74114356D01*
X140249706Y-74243164D01*
X140085764Y-74407106D01*
X139956956Y-74599881D01*
X139868231Y-74814082D01*
X139823000Y-75041476D01*
X139637000Y-75041476D01*
X139591769Y-74814082D01*
X139503044Y-74599881D01*
X139374236Y-74407106D01*
X139210294Y-74243164D01*
X139017519Y-74114356D01*
X138803318Y-74025631D01*
X138575924Y-73980400D01*
X138344076Y-73980400D01*
X138116682Y-74025631D01*
X137902481Y-74114356D01*
X137709706Y-74243164D01*
X137545764Y-74407106D01*
X137416956Y-74599881D01*
X137328231Y-74814082D01*
X137283000Y-75041476D01*
X137098582Y-75041476D01*
X137098582Y-74307400D01*
X137092268Y-74243297D01*
X137073570Y-74181657D01*
X137043206Y-74124850D01*
X137002343Y-74075057D01*
X136952550Y-74034194D01*
X136895743Y-74003830D01*
X136834103Y-73985132D01*
X136770000Y-73978818D01*
X135070000Y-73978818D01*
X135005897Y-73985132D01*
X134944257Y-74003830D01*
X134887450Y-74034194D01*
X134837657Y-74075057D01*
X134796794Y-74124850D01*
X134766430Y-74181657D01*
X134747732Y-74243297D01*
X134741418Y-74307400D01*
X132632730Y-74307400D01*
X132551194Y-74225864D01*
X132358419Y-74097056D01*
X132144218Y-74008331D01*
X131916824Y-73963100D01*
X131684976Y-73963100D01*
X131457582Y-74008331D01*
X131243381Y-74097056D01*
X131050606Y-74225864D01*
X130886664Y-74389806D01*
X130757856Y-74582581D01*
X130669131Y-74796782D01*
X130623900Y-75024176D01*
X130437900Y-75024176D01*
X130392669Y-74796782D01*
X130303944Y-74582581D01*
X130175136Y-74389806D01*
X130011194Y-74225864D01*
X129818419Y-74097056D01*
X129604218Y-74008331D01*
X129376824Y-73963100D01*
X129144976Y-73963100D01*
X128917582Y-74008331D01*
X128703381Y-74097056D01*
X128510606Y-74225864D01*
X128346664Y-74389806D01*
X128217856Y-74582581D01*
X128129131Y-74796782D01*
X128083900Y-75024176D01*
X127897900Y-75024176D01*
X127852669Y-74796782D01*
X127763944Y-74582581D01*
X127635136Y-74389806D01*
X127471194Y-74225864D01*
X127278419Y-74097056D01*
X127064218Y-74008331D01*
X126836824Y-73963100D01*
X126604976Y-73963100D01*
X126377582Y-74008331D01*
X126163381Y-74097056D01*
X125970606Y-74225864D01*
X125806664Y-74389806D01*
X125677856Y-74582581D01*
X125589131Y-74796782D01*
X125543900Y-75024176D01*
X125357900Y-75024176D01*
X125312669Y-74796782D01*
X125223944Y-74582581D01*
X125095136Y-74389806D01*
X124931194Y-74225864D01*
X124738419Y-74097056D01*
X124524218Y-74008331D01*
X124296824Y-73963100D01*
X124064976Y-73963100D01*
X123837582Y-74008331D01*
X123623381Y-74097056D01*
X123430606Y-74225864D01*
X123266664Y-74389806D01*
X123137856Y-74582581D01*
X123069636Y-74747279D01*
X122985057Y-74508848D01*
X122836078Y-74258745D01*
X122641169Y-74042512D01*
X122407820Y-73868459D01*
X122144999Y-73743275D01*
X121997790Y-73698624D01*
X121767900Y-73819945D01*
X121767900Y-75013100D01*
X121787900Y-75013100D01*
X121787900Y-75267100D01*
X121767900Y-75267100D01*
X121767900Y-75287100D01*
X121513900Y-75287100D01*
X121513900Y-75267100D01*
X121493900Y-75267100D01*
X121493900Y-75013100D01*
X121513900Y-75013100D01*
X121513900Y-73819945D01*
X121284010Y-73698624D01*
X121136801Y-73743275D01*
X120873980Y-73868459D01*
X120640631Y-74042512D01*
X120445722Y-74258745D01*
X120296743Y-74508848D01*
X120212164Y-74747279D01*
X120143944Y-74582581D01*
X120015136Y-74389806D01*
X119851194Y-74225864D01*
X119658419Y-74097056D01*
X119444218Y-74008331D01*
X119216824Y-73963100D01*
X118984976Y-73963100D01*
X118757582Y-74008331D01*
X118543381Y-74097056D01*
X118350606Y-74225864D01*
X118186664Y-74389806D01*
X118057856Y-74582581D01*
X117969131Y-74796782D01*
X117923900Y-75024176D01*
X117737900Y-75024176D01*
X117692669Y-74796782D01*
X117603944Y-74582581D01*
X117475136Y-74389806D01*
X117311194Y-74225864D01*
X117118419Y-74097056D01*
X116904218Y-74008331D01*
X116676824Y-73963100D01*
X116444976Y-73963100D01*
X116217582Y-74008331D01*
X116003381Y-74097056D01*
X115810606Y-74225864D01*
X115646664Y-74389806D01*
X115517856Y-74582581D01*
X115429131Y-74796782D01*
X115383900Y-75024176D01*
X115197900Y-75024176D01*
X115152669Y-74796782D01*
X115063944Y-74582581D01*
X114935136Y-74389806D01*
X114771194Y-74225864D01*
X114578419Y-74097056D01*
X114364218Y-74008331D01*
X114136824Y-73963100D01*
X113904976Y-73963100D01*
X113677582Y-74008331D01*
X113463381Y-74097056D01*
X113270606Y-74225864D01*
X113106664Y-74389806D01*
X112977856Y-74582581D01*
X112889131Y-74796782D01*
X112843900Y-75024176D01*
X112657900Y-75024176D01*
X112612669Y-74796782D01*
X112523944Y-74582581D01*
X112395136Y-74389806D01*
X112231194Y-74225864D01*
X112038419Y-74097056D01*
X111824218Y-74008331D01*
X111596824Y-73963100D01*
X111364976Y-73963100D01*
X111137582Y-74008331D01*
X110923381Y-74097056D01*
X110730606Y-74225864D01*
X110566664Y-74389806D01*
X110437856Y-74582581D01*
X110349131Y-74796782D01*
X110303900Y-75024176D01*
X110119482Y-75024176D01*
X110119482Y-74290100D01*
X110113168Y-74225997D01*
X110094470Y-74164357D01*
X110064106Y-74107550D01*
X110023243Y-74057757D01*
X109973450Y-74016894D01*
X109916643Y-73986530D01*
X109855003Y-73967832D01*
X109790900Y-73961518D01*
X108090900Y-73961518D01*
X108026797Y-73967832D01*
X107965157Y-73986530D01*
X107908350Y-74016894D01*
X107858557Y-74057757D01*
X107817694Y-74107550D01*
X107787330Y-74164357D01*
X107768632Y-74225997D01*
X107762318Y-74290100D01*
X103152000Y-74290100D01*
X103152000Y-66921062D01*
X103183130Y-66883130D01*
X103221062Y-66852000D01*
X179978938Y-66852000D01*
X180016870Y-66883130D01*
G37*
G04 #@! TD.AperFunction*
M02*
