G04 #@! TF.GenerationSoftware,KiCad,Pcbnew,(5.1.10)-1*
G04 #@! TF.CreationDate,2022-05-03T13:10:24+02:00*
G04 #@! TF.ProjectId,psoc_shield,70736f63-5f73-4686-9965-6c642e6b6963,rev?*
G04 #@! TF.SameCoordinates,Original*
G04 #@! TF.FileFunction,Copper,L1,Top*
G04 #@! TF.FilePolarity,Positive*
%FSLAX46Y46*%
G04 Gerber Fmt 4.6, Leading zero omitted, Abs format (unit mm)*
G04 Created by KiCad (PCBNEW (5.1.10)-1) date 2022-05-03 13:10:24*
%MOMM*%
%LPD*%
G01*
G04 APERTURE LIST*
G04 #@! TA.AperFunction,ComponentPad*
%ADD10O,1.700000X1.700000*%
G04 #@! TD*
G04 #@! TA.AperFunction,ComponentPad*
%ADD11R,1.700000X1.700000*%
G04 #@! TD*
G04 #@! TA.AperFunction,SMDPad,CuDef*
%ADD12R,0.800000X0.300000*%
G04 #@! TD*
G04 #@! TA.AperFunction,SMDPad,CuDef*
%ADD13R,0.800000X0.400000*%
G04 #@! TD*
G04 #@! TA.AperFunction,Conductor*
%ADD14C,0.800000*%
G04 #@! TD*
G04 #@! TA.AperFunction,Conductor*
%ADD15C,0.250000*%
G04 #@! TD*
G04 #@! TA.AperFunction,Conductor*
%ADD16C,0.200000*%
G04 #@! TD*
G04 #@! TA.AperFunction,Conductor*
%ADD17C,0.254000*%
G04 #@! TD*
G04 #@! TA.AperFunction,Conductor*
%ADD18C,0.100000*%
G04 #@! TD*
G04 APERTURE END LIST*
G04 #@! TA.AperFunction,SMDPad,CuDef*
G36*
G01*
X115882500Y-106269999D02*
X115882500Y-107170001D01*
G75*
G02*
X115632501Y-107420000I-249999J0D01*
G01*
X115107499Y-107420000D01*
G75*
G02*
X114857500Y-107170001I0J249999D01*
G01*
X114857500Y-106269999D01*
G75*
G02*
X115107499Y-106020000I249999J0D01*
G01*
X115632501Y-106020000D01*
G75*
G02*
X115882500Y-106269999I0J-249999D01*
G01*
G37*
G04 #@! TD.AperFunction*
G04 #@! TA.AperFunction,SMDPad,CuDef*
G36*
G01*
X117707500Y-106269999D02*
X117707500Y-107170001D01*
G75*
G02*
X117457501Y-107420000I-249999J0D01*
G01*
X116932499Y-107420000D01*
G75*
G02*
X116682500Y-107170001I0J249999D01*
G01*
X116682500Y-106269999D01*
G75*
G02*
X116932499Y-106020000I249999J0D01*
G01*
X117457501Y-106020000D01*
G75*
G02*
X117707500Y-106269999I0J-249999D01*
G01*
G37*
G04 #@! TD.AperFunction*
G04 #@! TA.AperFunction,SMDPad,CuDef*
G36*
G01*
X115880000Y-101739999D02*
X115880000Y-102640001D01*
G75*
G02*
X115630001Y-102890000I-249999J0D01*
G01*
X115104999Y-102890000D01*
G75*
G02*
X114855000Y-102640001I0J249999D01*
G01*
X114855000Y-101739999D01*
G75*
G02*
X115104999Y-101490000I249999J0D01*
G01*
X115630001Y-101490000D01*
G75*
G02*
X115880000Y-101739999I0J-249999D01*
G01*
G37*
G04 #@! TD.AperFunction*
G04 #@! TA.AperFunction,SMDPad,CuDef*
G36*
G01*
X117705000Y-101739999D02*
X117705000Y-102640001D01*
G75*
G02*
X117455001Y-102890000I-249999J0D01*
G01*
X116929999Y-102890000D01*
G75*
G02*
X116680000Y-102640001I0J249999D01*
G01*
X116680000Y-101739999D01*
G75*
G02*
X116929999Y-101490000I249999J0D01*
G01*
X117455001Y-101490000D01*
G75*
G02*
X117705000Y-101739999I0J-249999D01*
G01*
G37*
G04 #@! TD.AperFunction*
G04 #@! TA.AperFunction,SMDPad,CuDef*
G36*
G01*
X115877500Y-97499999D02*
X115877500Y-98400001D01*
G75*
G02*
X115627501Y-98650000I-249999J0D01*
G01*
X115102499Y-98650000D01*
G75*
G02*
X114852500Y-98400001I0J249999D01*
G01*
X114852500Y-97499999D01*
G75*
G02*
X115102499Y-97250000I249999J0D01*
G01*
X115627501Y-97250000D01*
G75*
G02*
X115877500Y-97499999I0J-249999D01*
G01*
G37*
G04 #@! TD.AperFunction*
G04 #@! TA.AperFunction,SMDPad,CuDef*
G36*
G01*
X117702500Y-97499999D02*
X117702500Y-98400001D01*
G75*
G02*
X117452501Y-98650000I-249999J0D01*
G01*
X116927499Y-98650000D01*
G75*
G02*
X116677500Y-98400001I0J249999D01*
G01*
X116677500Y-97499999D01*
G75*
G02*
X116927499Y-97250000I249999J0D01*
G01*
X117452501Y-97250000D01*
G75*
G02*
X117702500Y-97499999I0J-249999D01*
G01*
G37*
G04 #@! TD.AperFunction*
D10*
X153700000Y-77697400D03*
X153700000Y-75157400D03*
X151160000Y-77697400D03*
X151160000Y-75157400D03*
X148620000Y-77697400D03*
X148620000Y-75157400D03*
X146080000Y-77697400D03*
X146080000Y-75157400D03*
X143540000Y-77697400D03*
X143540000Y-75157400D03*
X141000000Y-77697400D03*
X141000000Y-75157400D03*
X138460000Y-77697400D03*
X138460000Y-75157400D03*
X135920000Y-77697400D03*
D11*
X135920000Y-75157400D03*
D10*
X131800900Y-77680100D03*
X131800900Y-75140100D03*
X129260900Y-77680100D03*
X129260900Y-75140100D03*
X126720900Y-77680100D03*
X126720900Y-75140100D03*
X124180900Y-77680100D03*
X124180900Y-75140100D03*
X121640900Y-77680100D03*
X121640900Y-75140100D03*
X119100900Y-77680100D03*
X119100900Y-75140100D03*
X116560900Y-77680100D03*
X116560900Y-75140100D03*
X114020900Y-77680100D03*
X114020900Y-75140100D03*
X111480900Y-77680100D03*
X111480900Y-75140100D03*
X108940900Y-77680100D03*
D11*
X108940900Y-75140100D03*
D12*
X164000000Y-103000000D03*
X164000000Y-102500000D03*
X164000000Y-102000000D03*
X164000000Y-101500000D03*
X164000000Y-101000000D03*
X164000000Y-100500000D03*
X164000000Y-100000000D03*
X164000000Y-99500000D03*
X164000000Y-99000000D03*
X164000000Y-98500000D03*
X164000000Y-98000000D03*
X164000000Y-97500000D03*
X164000000Y-97000000D03*
X164000000Y-96500000D03*
X164000000Y-96000000D03*
X164000000Y-95500000D03*
D13*
X166500000Y-104000000D03*
X166500000Y-94500000D03*
D10*
X143800000Y-100540000D03*
D11*
X143800000Y-98000000D03*
D10*
X143800000Y-109700000D03*
D11*
X143800000Y-107160000D03*
D10*
X136600000Y-109500000D03*
D11*
X136600000Y-106960000D03*
D10*
X136600000Y-100440000D03*
D11*
X136600000Y-97900000D03*
X118140000Y-125965000D03*
D10*
X120680000Y-125965000D03*
X123220000Y-125965000D03*
X125760000Y-125965000D03*
X128300000Y-125965000D03*
X130840000Y-125965000D03*
X133380000Y-125965000D03*
X135920000Y-125965000D03*
X163860000Y-125965000D03*
X163860000Y-123425000D03*
X161320000Y-125965000D03*
X161320000Y-123425000D03*
X158780000Y-125965000D03*
X158780000Y-123425000D03*
X156240000Y-125965000D03*
X156240000Y-123425000D03*
X153700000Y-125965000D03*
X153700000Y-123425000D03*
X151160000Y-125965000D03*
X151160000Y-123425000D03*
X148620000Y-125965000D03*
X148620000Y-123425000D03*
X146080000Y-125965000D03*
X146080000Y-123425000D03*
X143540000Y-125965000D03*
X143540000Y-123425000D03*
X141000000Y-125965000D03*
D11*
X141000000Y-123425000D03*
D14*
X117190000Y-102187500D02*
X117192500Y-102190000D01*
X117190000Y-97950000D02*
X117190000Y-102187500D01*
X117192500Y-106717500D02*
X117195000Y-106720000D01*
X117192500Y-102190000D02*
X117192500Y-106717500D01*
X125760000Y-120260000D02*
X125760000Y-125965000D01*
X117195000Y-111695000D02*
X125760000Y-120260000D01*
X117195000Y-106720000D02*
X117195000Y-111695000D01*
D15*
X148937312Y-72300088D02*
X146080000Y-75157400D01*
X155954957Y-72300088D02*
X148937312Y-72300088D01*
X172550077Y-88895208D02*
X155954957Y-72300088D01*
X172550077Y-95604800D02*
X172550077Y-88895208D01*
X169154877Y-99000000D02*
X172550077Y-95604800D01*
X164000000Y-99000000D02*
X169154877Y-99000000D01*
X167081540Y-127800000D02*
X165695000Y-127800000D01*
X165695000Y-127800000D02*
X163860000Y-125965000D01*
X168200000Y-121500000D02*
X168200000Y-126681540D01*
X155499912Y-108799912D02*
X168200000Y-121500000D01*
X155499912Y-104254958D02*
X155499912Y-108799912D01*
X160754870Y-99000000D02*
X155499912Y-104254958D01*
X168200000Y-126681540D02*
X167081540Y-127800000D01*
X164000000Y-99000000D02*
X160754870Y-99000000D01*
X155049902Y-104068558D02*
X155049903Y-108986313D01*
X160618460Y-98500000D02*
X155049902Y-104068558D01*
X164000000Y-98500000D02*
X160618460Y-98500000D01*
X155049903Y-108986313D02*
X163860000Y-117796410D01*
X163860000Y-117796410D02*
X163860000Y-123425000D01*
X164000000Y-98500000D02*
X169018466Y-98500000D01*
X151027301Y-72750099D02*
X148620000Y-75157400D01*
X172100066Y-89081608D02*
X155768557Y-72750099D01*
X155768557Y-72750099D02*
X151027301Y-72750099D01*
X172100066Y-95418400D02*
X172100066Y-89081608D01*
X169018466Y-98500000D02*
X172100066Y-95418400D01*
D16*
X161300000Y-123405000D02*
X161320000Y-123425000D01*
D15*
X161320000Y-115892820D02*
X161320000Y-123425000D01*
X154599892Y-103882159D02*
X154599894Y-109172714D01*
X154599894Y-109172714D02*
X161320000Y-115892820D01*
X160482050Y-98000000D02*
X154599892Y-103882159D01*
X164000000Y-98000000D02*
X160482050Y-98000000D01*
X164000000Y-98000000D02*
X168882055Y-98000000D01*
X168882055Y-98000000D02*
X171650055Y-95232000D01*
X171650055Y-95232000D02*
X171650055Y-89268008D01*
X171650055Y-89268008D02*
X155582157Y-73200110D01*
X155582157Y-73200110D02*
X153117290Y-73200110D01*
X153117290Y-73200110D02*
X151160000Y-75157400D01*
X158780000Y-113989230D02*
X158780000Y-123425000D01*
X154149885Y-109359115D02*
X158780000Y-113989230D01*
X154149884Y-109349884D02*
X154149885Y-109359115D01*
X154149879Y-109349879D02*
X154149884Y-109349884D01*
X164000000Y-97500000D02*
X160345640Y-97500000D01*
X160345640Y-97500000D02*
X154149879Y-103695761D01*
X154149879Y-103695761D02*
X154149879Y-109349879D01*
X164000000Y-97500000D02*
X168745644Y-97500000D01*
X168745644Y-97500000D02*
X171200044Y-95045600D01*
X171200044Y-95045600D02*
X171200044Y-89454404D01*
X171200044Y-89454404D02*
X156903040Y-75157400D01*
X156903040Y-75157400D02*
X153700000Y-75157400D01*
X153699868Y-103509362D02*
X153699868Y-123424868D01*
X160209230Y-97000000D02*
X153699868Y-103509362D01*
X164000000Y-97000000D02*
X160209230Y-97000000D01*
X153699868Y-123424868D02*
X153700000Y-123425000D01*
X164000000Y-97000000D02*
X168609233Y-97000000D01*
X168609233Y-97000000D02*
X170750033Y-94859200D01*
X170750033Y-94859200D02*
X170750033Y-89640800D01*
X170750033Y-89640800D02*
X161759200Y-80649967D01*
X161759200Y-80649967D02*
X146492567Y-80649967D01*
X146492567Y-80649967D02*
X143540000Y-77697400D01*
X151160000Y-116840000D02*
X151160000Y-123425000D01*
X153249857Y-114750143D02*
X151160000Y-116840000D01*
X153249857Y-103322963D02*
X153249857Y-114750143D01*
X160072820Y-96500000D02*
X153249857Y-103322963D01*
X164000000Y-96500000D02*
X160072820Y-96500000D01*
X170300022Y-89827200D02*
X161572800Y-81099978D01*
X164000000Y-96500000D02*
X168472822Y-96500000D01*
X168472822Y-96500000D02*
X170300022Y-94672800D01*
X170300022Y-94672800D02*
X170300022Y-89827200D01*
X161572800Y-81099978D02*
X144402578Y-81099978D01*
X144402578Y-81099978D02*
X141000000Y-77697400D01*
D16*
X143600000Y-123365000D02*
X143540000Y-123425000D01*
D15*
X159936410Y-96000000D02*
X164000000Y-96000000D01*
X152799846Y-103136564D02*
X159936410Y-96000000D01*
X152799846Y-112200154D02*
X152799846Y-103136564D01*
X143540000Y-121460000D02*
X152799846Y-112200154D01*
X143540000Y-123425000D02*
X143540000Y-121460000D01*
X168336411Y-96000000D02*
X169850011Y-94486400D01*
X169850011Y-94486400D02*
X169850011Y-90013600D01*
X169850011Y-90013600D02*
X161386400Y-81549989D01*
X161386400Y-81549989D02*
X142312589Y-81549989D01*
X142312589Y-81549989D02*
X139309999Y-78547399D01*
X139309999Y-78547399D02*
X138460000Y-77697400D01*
X164000000Y-96000000D02*
X168336411Y-96000000D01*
X164000000Y-95500000D02*
X168200000Y-95500000D01*
X140222600Y-82000000D02*
X135920000Y-77697400D01*
X169400000Y-94300000D02*
X169400000Y-90200000D01*
X168200000Y-95500000D02*
X169400000Y-94300000D01*
X169400000Y-90200000D02*
X161200000Y-82000000D01*
X161200000Y-82000000D02*
X140222600Y-82000000D01*
X164000000Y-95500000D02*
X159800000Y-95500000D01*
X141000000Y-122325000D02*
X141000000Y-123425000D01*
X159800000Y-95500000D02*
X152349835Y-102950165D01*
X152349835Y-102950165D02*
X152349835Y-109913754D01*
X141000000Y-121263589D02*
X141000000Y-122325000D01*
X152349835Y-109913754D02*
X141000000Y-121263589D01*
X160891280Y-99500000D02*
X155949923Y-104441357D01*
X155949923Y-104441357D02*
X155949923Y-108613513D01*
X155949923Y-108613513D02*
X168650011Y-121313600D01*
X166067947Y-129450003D02*
X164805003Y-129450003D01*
X164000000Y-99500000D02*
X160891280Y-99500000D01*
X168650011Y-126867940D02*
X166067947Y-129450003D01*
X164805003Y-129450003D02*
X161320000Y-125965000D01*
X168650011Y-121313600D02*
X168650011Y-126867940D01*
X156141357Y-71850077D02*
X146847323Y-71850077D01*
X173000088Y-88708808D02*
X156141357Y-71850077D01*
X146847323Y-71850077D02*
X143540000Y-75157400D01*
X173000088Y-95791200D02*
X173000088Y-88708808D01*
X169291288Y-99500000D02*
X173000088Y-95791200D01*
X164000000Y-99500000D02*
X169291288Y-99500000D01*
X156399934Y-108427113D02*
X169100022Y-121127200D01*
X162715014Y-129900014D02*
X158780000Y-125965000D01*
X166254347Y-129900014D02*
X162715014Y-129900014D01*
X169100022Y-127054340D02*
X166254347Y-129900014D01*
X169100022Y-121127200D02*
X169100022Y-127054340D01*
X156399934Y-104627756D02*
X156399934Y-108427113D01*
X161027690Y-100000000D02*
X156399934Y-104627756D01*
X164000000Y-100000000D02*
X161027690Y-100000000D01*
X164000000Y-100000000D02*
X169427699Y-100000000D01*
X156327757Y-71400066D02*
X144757334Y-71400066D01*
X169427699Y-100000000D02*
X173450099Y-95977600D01*
X173450099Y-88522408D02*
X156327757Y-71400066D01*
X144757334Y-71400066D02*
X141000000Y-75157400D01*
X173450099Y-95977600D02*
X173450099Y-88522408D01*
X161164100Y-100500000D02*
X156849945Y-104814155D01*
X160625025Y-130350025D02*
X156240000Y-125965000D01*
X166440747Y-130350025D02*
X160625025Y-130350025D01*
X169550033Y-127240740D02*
X166440747Y-130350025D01*
X156849945Y-108240713D02*
X169550033Y-120940800D01*
X156849945Y-104814155D02*
X156849945Y-108240713D01*
X164000000Y-100500000D02*
X161164100Y-100500000D01*
X169550033Y-120940800D02*
X169550033Y-127240740D01*
X142667345Y-70950055D02*
X138460000Y-75157400D01*
X156514157Y-70950055D02*
X142667345Y-70950055D01*
X173900110Y-88336008D02*
X156514157Y-70950055D01*
X173900110Y-96164000D02*
X173900110Y-88336008D01*
X169564110Y-100500000D02*
X173900110Y-96164000D01*
X164000000Y-100500000D02*
X169564110Y-100500000D01*
X157299956Y-105000554D02*
X157299956Y-108054313D01*
X166627147Y-130800036D02*
X158535036Y-130800036D01*
X158535036Y-130800036D02*
X153700000Y-125965000D01*
X157299956Y-108054313D02*
X170000044Y-120754400D01*
X164000000Y-101000000D02*
X161300510Y-101000000D01*
X170000044Y-120754400D02*
X170000044Y-127427140D01*
X170000044Y-127427140D02*
X166627147Y-130800036D01*
X161300510Y-101000000D02*
X157299956Y-105000554D01*
X169700521Y-101000000D02*
X174350121Y-96350400D01*
X174350121Y-96350400D02*
X174350121Y-88149608D01*
X156700557Y-70500044D02*
X140577356Y-70500044D01*
X140577356Y-70500044D02*
X135920000Y-75157400D01*
X174350121Y-88149608D02*
X156700557Y-70500044D01*
X164000000Y-101000000D02*
X169700521Y-101000000D01*
X164000000Y-101500000D02*
X161436920Y-101500000D01*
X161436920Y-101500000D02*
X157749967Y-105186953D01*
X157749967Y-105186953D02*
X157749967Y-107867913D01*
X157749967Y-107867913D02*
X170450055Y-120568000D01*
X170450055Y-127613540D02*
X166813547Y-131250047D01*
X156445047Y-131250047D02*
X151160000Y-125965000D01*
X166813547Y-131250047D02*
X156445047Y-131250047D01*
X170450055Y-120568000D02*
X170450055Y-127613540D01*
X174800132Y-87963208D02*
X156886957Y-70050033D01*
X136890967Y-70050033D02*
X131800900Y-75140100D01*
X164000000Y-101500000D02*
X169836932Y-101500000D01*
X156886957Y-70050033D02*
X136890967Y-70050033D01*
X169836932Y-101500000D02*
X174800132Y-96536800D01*
X174800132Y-96536800D02*
X174800132Y-87963208D01*
X164000000Y-102000000D02*
X161573330Y-102000000D01*
X161573330Y-102000000D02*
X158199978Y-105373352D01*
X158199978Y-105373352D02*
X158199978Y-107681513D01*
X158199978Y-107681513D02*
X170900066Y-120381600D01*
X154355058Y-131700058D02*
X148620000Y-125965000D01*
X170900066Y-120381600D02*
X170900066Y-127799940D01*
X166999947Y-131700058D02*
X154355058Y-131700058D01*
X170900066Y-127799940D02*
X166999947Y-131700058D01*
X164000000Y-102000000D02*
X169973343Y-102000000D01*
X169973343Y-102000000D02*
X175250143Y-96723200D01*
X175250143Y-96723200D02*
X175250143Y-87776808D01*
X157073357Y-69600022D02*
X134800978Y-69600022D01*
X175250143Y-87776808D02*
X157073357Y-69600022D01*
X134800978Y-69600022D02*
X129260900Y-75140100D01*
X152265068Y-132150068D02*
X146080000Y-125965000D01*
X167186347Y-132150069D02*
X152265068Y-132150068D01*
X171350077Y-127986340D02*
X167186347Y-132150069D01*
X161709740Y-102500000D02*
X158649989Y-105559751D01*
X171350077Y-120195200D02*
X171350077Y-127986340D01*
X158649989Y-107495113D02*
X171350077Y-120195200D01*
X158649989Y-105559751D02*
X158649989Y-107495113D01*
X164000000Y-102500000D02*
X161709740Y-102500000D01*
X164000000Y-102500000D02*
X170109754Y-102500000D01*
X157259765Y-69150011D02*
X132710989Y-69150011D01*
X132710989Y-69150011D02*
X126720900Y-75140100D01*
X175700154Y-87590400D02*
X157259765Y-69150011D01*
X175700154Y-96909600D02*
X175700154Y-87590400D01*
X170109754Y-102500000D02*
X175700154Y-96909600D01*
X170246165Y-103000000D02*
X176150165Y-97096000D01*
X130621000Y-68700000D02*
X124180900Y-75140100D01*
X176150165Y-87404000D02*
X157446165Y-68700000D01*
X157446165Y-68700000D02*
X130621000Y-68700000D01*
X164000000Y-103000000D02*
X170246165Y-103000000D01*
X176150165Y-97096000D02*
X176150165Y-87404000D01*
X131800900Y-112400900D02*
X131800900Y-77680100D01*
X141900079Y-132600079D02*
X138500000Y-129200000D01*
X167372746Y-132600079D02*
X141900079Y-132600079D01*
X138500000Y-129200000D02*
X138500000Y-119100000D01*
X171800087Y-120008800D02*
X171800088Y-128172740D01*
X159099999Y-107308712D02*
X171800087Y-120008800D01*
X159099999Y-105746151D02*
X159099999Y-107308712D01*
X171800088Y-128172740D02*
X167372746Y-132600079D01*
X161846150Y-103000000D02*
X159099999Y-105746151D01*
X138500000Y-119100000D02*
X131800900Y-112400900D01*
X164000000Y-103000000D02*
X161846150Y-103000000D01*
D14*
X110380800Y-71500000D02*
X114020900Y-75140100D01*
X107700000Y-71500000D02*
X110380800Y-71500000D01*
X106000000Y-73200000D02*
X107700000Y-71500000D01*
X106000000Y-96500000D02*
X106000000Y-73200000D01*
X111690000Y-102190000D02*
X106000000Y-96500000D01*
X115367500Y-102190000D02*
X111690000Y-102190000D01*
X125641000Y-81300000D02*
X129260900Y-77680100D01*
X114100000Y-81300000D02*
X125641000Y-81300000D01*
X110900000Y-84500000D02*
X114100000Y-81300000D01*
X110900000Y-94900000D02*
X110900000Y-84500000D01*
X113950000Y-97950000D02*
X110900000Y-94900000D01*
X115365000Y-97950000D02*
X113950000Y-97950000D01*
X115370000Y-106720000D02*
X110220000Y-106720000D01*
X104999989Y-72785782D02*
X107285782Y-70499989D01*
X114460789Y-70499989D02*
X118250901Y-74290101D01*
X110220000Y-106720000D02*
X104999989Y-101499989D01*
X104999989Y-101499989D02*
X104999989Y-72785782D01*
X107285782Y-70499989D02*
X114460789Y-70499989D01*
X118250901Y-74290101D02*
X119100900Y-75140100D01*
D17*
X180016870Y-66883130D02*
X180048001Y-66921063D01*
X180048000Y-134078938D01*
X180016870Y-134116870D01*
X179978938Y-134148000D01*
X103221062Y-134148000D01*
X103183130Y-134116870D01*
X103152000Y-134078938D01*
X103152000Y-125115000D01*
X116961418Y-125115000D01*
X116961418Y-126815000D01*
X116967732Y-126879103D01*
X116986430Y-126940743D01*
X117016794Y-126997550D01*
X117057657Y-127047343D01*
X117107450Y-127088206D01*
X117164257Y-127118570D01*
X117225897Y-127137268D01*
X117290000Y-127143582D01*
X118990000Y-127143582D01*
X119054103Y-127137268D01*
X119115743Y-127118570D01*
X119172550Y-127088206D01*
X119222343Y-127047343D01*
X119263206Y-126997550D01*
X119293570Y-126940743D01*
X119312268Y-126879103D01*
X119318582Y-126815000D01*
X119318582Y-125849076D01*
X119503000Y-125849076D01*
X119503000Y-126080924D01*
X119548231Y-126308318D01*
X119636956Y-126522519D01*
X119765764Y-126715294D01*
X119929706Y-126879236D01*
X120122481Y-127008044D01*
X120336682Y-127096769D01*
X120564076Y-127142000D01*
X120795924Y-127142000D01*
X121023318Y-127096769D01*
X121237519Y-127008044D01*
X121430294Y-126879236D01*
X121594236Y-126715294D01*
X121723044Y-126522519D01*
X121811769Y-126308318D01*
X121857000Y-126080924D01*
X121857000Y-125849076D01*
X122043000Y-125849076D01*
X122043000Y-126080924D01*
X122088231Y-126308318D01*
X122176956Y-126522519D01*
X122305764Y-126715294D01*
X122469706Y-126879236D01*
X122662481Y-127008044D01*
X122876682Y-127096769D01*
X123104076Y-127142000D01*
X123335924Y-127142000D01*
X123563318Y-127096769D01*
X123777519Y-127008044D01*
X123970294Y-126879236D01*
X124134236Y-126715294D01*
X124263044Y-126522519D01*
X124351769Y-126308318D01*
X124397000Y-126080924D01*
X124397000Y-125849076D01*
X124351769Y-125621682D01*
X124263044Y-125407481D01*
X124134236Y-125214706D01*
X123970294Y-125050764D01*
X123777519Y-124921956D01*
X123563318Y-124833231D01*
X123335924Y-124788000D01*
X123104076Y-124788000D01*
X122876682Y-124833231D01*
X122662481Y-124921956D01*
X122469706Y-125050764D01*
X122305764Y-125214706D01*
X122176956Y-125407481D01*
X122088231Y-125621682D01*
X122043000Y-125849076D01*
X121857000Y-125849076D01*
X121811769Y-125621682D01*
X121723044Y-125407481D01*
X121594236Y-125214706D01*
X121430294Y-125050764D01*
X121237519Y-124921956D01*
X121023318Y-124833231D01*
X120795924Y-124788000D01*
X120564076Y-124788000D01*
X120336682Y-124833231D01*
X120122481Y-124921956D01*
X119929706Y-125050764D01*
X119765764Y-125214706D01*
X119636956Y-125407481D01*
X119548231Y-125621682D01*
X119503000Y-125849076D01*
X119318582Y-125849076D01*
X119318582Y-125115000D01*
X119312268Y-125050897D01*
X119293570Y-124989257D01*
X119263206Y-124932450D01*
X119222343Y-124882657D01*
X119172550Y-124841794D01*
X119115743Y-124811430D01*
X119054103Y-124792732D01*
X118990000Y-124786418D01*
X117290000Y-124786418D01*
X117225897Y-124792732D01*
X117164257Y-124811430D01*
X117107450Y-124841794D01*
X117057657Y-124882657D01*
X117016794Y-124932450D01*
X116986430Y-124989257D01*
X116967732Y-125050897D01*
X116961418Y-125115000D01*
X103152000Y-125115000D01*
X103152000Y-72785782D01*
X104269472Y-72785782D01*
X104272990Y-72821500D01*
X104272989Y-101464281D01*
X104269472Y-101499989D01*
X104283509Y-101642506D01*
X104301308Y-101701182D01*
X104325079Y-101779545D01*
X104392586Y-101905841D01*
X104483435Y-102016542D01*
X104511179Y-102039311D01*
X109680679Y-107208812D01*
X109703446Y-107236554D01*
X109814147Y-107327403D01*
X109940443Y-107394910D01*
X110077483Y-107436480D01*
X110184292Y-107447000D01*
X110184294Y-107447000D01*
X110219999Y-107450517D01*
X110255705Y-107447000D01*
X114602671Y-107447000D01*
X114626426Y-107491443D01*
X114698380Y-107579120D01*
X114786057Y-107651074D01*
X114886086Y-107704540D01*
X114994623Y-107737465D01*
X115107499Y-107748582D01*
X115632501Y-107748582D01*
X115745377Y-107737465D01*
X115853914Y-107704540D01*
X115953943Y-107651074D01*
X116041620Y-107579120D01*
X116113574Y-107491443D01*
X116167040Y-107391414D01*
X116199965Y-107282877D01*
X116211082Y-107170001D01*
X116211082Y-106269999D01*
X116199965Y-106157123D01*
X116167040Y-106048586D01*
X116113574Y-105948557D01*
X116041620Y-105860880D01*
X115953943Y-105788926D01*
X115853914Y-105735460D01*
X115745377Y-105702535D01*
X115632501Y-105691418D01*
X115107499Y-105691418D01*
X114994623Y-105702535D01*
X114886086Y-105735460D01*
X114786057Y-105788926D01*
X114698380Y-105860880D01*
X114626426Y-105948557D01*
X114602671Y-105993000D01*
X110521133Y-105993000D01*
X105726989Y-101198857D01*
X105726989Y-97255121D01*
X111150679Y-102678812D01*
X111173446Y-102706554D01*
X111284147Y-102797403D01*
X111410443Y-102864910D01*
X111515587Y-102896805D01*
X111547482Y-102906480D01*
X111689999Y-102920517D01*
X111725707Y-102917000D01*
X114600171Y-102917000D01*
X114623926Y-102961443D01*
X114695880Y-103049120D01*
X114783557Y-103121074D01*
X114883586Y-103174540D01*
X114992123Y-103207465D01*
X115104999Y-103218582D01*
X115630001Y-103218582D01*
X115742877Y-103207465D01*
X115851414Y-103174540D01*
X115951443Y-103121074D01*
X116039120Y-103049120D01*
X116111074Y-102961443D01*
X116164540Y-102861414D01*
X116197465Y-102752877D01*
X116208582Y-102640001D01*
X116208582Y-101739999D01*
X116197465Y-101627123D01*
X116164540Y-101518586D01*
X116111074Y-101418557D01*
X116039120Y-101330880D01*
X115951443Y-101258926D01*
X115851414Y-101205460D01*
X115742877Y-101172535D01*
X115630001Y-101161418D01*
X115104999Y-101161418D01*
X114992123Y-101172535D01*
X114883586Y-101205460D01*
X114783557Y-101258926D01*
X114695880Y-101330880D01*
X114623926Y-101418557D01*
X114600171Y-101463000D01*
X111991133Y-101463000D01*
X106727000Y-96198868D01*
X106727000Y-84500000D01*
X110169483Y-84500000D01*
X110173001Y-84535718D01*
X110173000Y-94864292D01*
X110169483Y-94900000D01*
X110183520Y-95042517D01*
X110211333Y-95134206D01*
X110225090Y-95179556D01*
X110292597Y-95305852D01*
X110383446Y-95416553D01*
X110411189Y-95439321D01*
X113410679Y-98438812D01*
X113433446Y-98466554D01*
X113544147Y-98557403D01*
X113670443Y-98624910D01*
X113807483Y-98666480D01*
X113914292Y-98677000D01*
X113914294Y-98677000D01*
X113949999Y-98680517D01*
X113985705Y-98677000D01*
X114597671Y-98677000D01*
X114621426Y-98721443D01*
X114693380Y-98809120D01*
X114781057Y-98881074D01*
X114881086Y-98934540D01*
X114989623Y-98967465D01*
X115102499Y-98978582D01*
X115627501Y-98978582D01*
X115740377Y-98967465D01*
X115848914Y-98934540D01*
X115948943Y-98881074D01*
X116036620Y-98809120D01*
X116108574Y-98721443D01*
X116162040Y-98621414D01*
X116194965Y-98512877D01*
X116206082Y-98400001D01*
X116206082Y-97499999D01*
X116348918Y-97499999D01*
X116348918Y-98400001D01*
X116360035Y-98512877D01*
X116392960Y-98621414D01*
X116446426Y-98721443D01*
X116463000Y-98741639D01*
X116463001Y-101401407D01*
X116448926Y-101418557D01*
X116395460Y-101518586D01*
X116362535Y-101627123D01*
X116351418Y-101739999D01*
X116351418Y-102640001D01*
X116362535Y-102752877D01*
X116395460Y-102861414D01*
X116448926Y-102961443D01*
X116465500Y-102981639D01*
X116465501Y-105931407D01*
X116451426Y-105948557D01*
X116397960Y-106048586D01*
X116365035Y-106157123D01*
X116353918Y-106269999D01*
X116353918Y-107170001D01*
X116365035Y-107282877D01*
X116397960Y-107391414D01*
X116451426Y-107491443D01*
X116468000Y-107511639D01*
X116468001Y-111659282D01*
X116464483Y-111695000D01*
X116478520Y-111837517D01*
X116520090Y-111974556D01*
X116546122Y-112023258D01*
X116587598Y-112100853D01*
X116678447Y-112211554D01*
X116706189Y-112234321D01*
X125033000Y-120561133D01*
X125033001Y-125035199D01*
X125009706Y-125050764D01*
X124845764Y-125214706D01*
X124716956Y-125407481D01*
X124628231Y-125621682D01*
X124583000Y-125849076D01*
X124583000Y-126080924D01*
X124628231Y-126308318D01*
X124716956Y-126522519D01*
X124845764Y-126715294D01*
X125009706Y-126879236D01*
X125202481Y-127008044D01*
X125416682Y-127096769D01*
X125644076Y-127142000D01*
X125875924Y-127142000D01*
X126103318Y-127096769D01*
X126317519Y-127008044D01*
X126510294Y-126879236D01*
X126674236Y-126715294D01*
X126803044Y-126522519D01*
X126891769Y-126308318D01*
X126937000Y-126080924D01*
X126937000Y-125849076D01*
X127123000Y-125849076D01*
X127123000Y-126080924D01*
X127168231Y-126308318D01*
X127256956Y-126522519D01*
X127385764Y-126715294D01*
X127549706Y-126879236D01*
X127742481Y-127008044D01*
X127956682Y-127096769D01*
X128184076Y-127142000D01*
X128415924Y-127142000D01*
X128643318Y-127096769D01*
X128857519Y-127008044D01*
X129050294Y-126879236D01*
X129214236Y-126715294D01*
X129343044Y-126522519D01*
X129411264Y-126357821D01*
X129495843Y-126596252D01*
X129644822Y-126846355D01*
X129839731Y-127062588D01*
X130073080Y-127236641D01*
X130335901Y-127361825D01*
X130483110Y-127406476D01*
X130713000Y-127285155D01*
X130713000Y-126092000D01*
X130693000Y-126092000D01*
X130693000Y-125838000D01*
X130713000Y-125838000D01*
X130713000Y-124644845D01*
X130967000Y-124644845D01*
X130967000Y-125838000D01*
X130987000Y-125838000D01*
X130987000Y-126092000D01*
X130967000Y-126092000D01*
X130967000Y-127285155D01*
X131196890Y-127406476D01*
X131344099Y-127361825D01*
X131606920Y-127236641D01*
X131840269Y-127062588D01*
X132035178Y-126846355D01*
X132184157Y-126596252D01*
X132268736Y-126357821D01*
X132336956Y-126522519D01*
X132465764Y-126715294D01*
X132629706Y-126879236D01*
X132822481Y-127008044D01*
X133036682Y-127096769D01*
X133264076Y-127142000D01*
X133495924Y-127142000D01*
X133723318Y-127096769D01*
X133937519Y-127008044D01*
X134130294Y-126879236D01*
X134294236Y-126715294D01*
X134423044Y-126522519D01*
X134511769Y-126308318D01*
X134557000Y-126080924D01*
X134557000Y-125849076D01*
X134743000Y-125849076D01*
X134743000Y-126080924D01*
X134788231Y-126308318D01*
X134876956Y-126522519D01*
X135005764Y-126715294D01*
X135169706Y-126879236D01*
X135362481Y-127008044D01*
X135576682Y-127096769D01*
X135804076Y-127142000D01*
X136035924Y-127142000D01*
X136263318Y-127096769D01*
X136477519Y-127008044D01*
X136670294Y-126879236D01*
X136834236Y-126715294D01*
X136963044Y-126522519D01*
X137051769Y-126308318D01*
X137097000Y-126080924D01*
X137097000Y-125849076D01*
X137051769Y-125621682D01*
X136963044Y-125407481D01*
X136834236Y-125214706D01*
X136670294Y-125050764D01*
X136477519Y-124921956D01*
X136263318Y-124833231D01*
X136035924Y-124788000D01*
X135804076Y-124788000D01*
X135576682Y-124833231D01*
X135362481Y-124921956D01*
X135169706Y-125050764D01*
X135005764Y-125214706D01*
X134876956Y-125407481D01*
X134788231Y-125621682D01*
X134743000Y-125849076D01*
X134557000Y-125849076D01*
X134511769Y-125621682D01*
X134423044Y-125407481D01*
X134294236Y-125214706D01*
X134130294Y-125050764D01*
X133937519Y-124921956D01*
X133723318Y-124833231D01*
X133495924Y-124788000D01*
X133264076Y-124788000D01*
X133036682Y-124833231D01*
X132822481Y-124921956D01*
X132629706Y-125050764D01*
X132465764Y-125214706D01*
X132336956Y-125407481D01*
X132268736Y-125572179D01*
X132184157Y-125333748D01*
X132035178Y-125083645D01*
X131840269Y-124867412D01*
X131606920Y-124693359D01*
X131344099Y-124568175D01*
X131196890Y-124523524D01*
X130967000Y-124644845D01*
X130713000Y-124644845D01*
X130483110Y-124523524D01*
X130335901Y-124568175D01*
X130073080Y-124693359D01*
X129839731Y-124867412D01*
X129644822Y-125083645D01*
X129495843Y-125333748D01*
X129411264Y-125572179D01*
X129343044Y-125407481D01*
X129214236Y-125214706D01*
X129050294Y-125050764D01*
X128857519Y-124921956D01*
X128643318Y-124833231D01*
X128415924Y-124788000D01*
X128184076Y-124788000D01*
X127956682Y-124833231D01*
X127742481Y-124921956D01*
X127549706Y-125050764D01*
X127385764Y-125214706D01*
X127256956Y-125407481D01*
X127168231Y-125621682D01*
X127123000Y-125849076D01*
X126937000Y-125849076D01*
X126891769Y-125621682D01*
X126803044Y-125407481D01*
X126674236Y-125214706D01*
X126510294Y-125050764D01*
X126487000Y-125035199D01*
X126487000Y-120295707D01*
X126490517Y-120259999D01*
X126476480Y-120117482D01*
X126447331Y-120021391D01*
X126434910Y-119980443D01*
X126367403Y-119854147D01*
X126276553Y-119743446D01*
X126248816Y-119720683D01*
X117922000Y-111393868D01*
X117922000Y-107511639D01*
X117938574Y-107491443D01*
X117992040Y-107391414D01*
X118024965Y-107282877D01*
X118036082Y-107170001D01*
X118036082Y-106269999D01*
X118024965Y-106157123D01*
X117992040Y-106048586D01*
X117938574Y-105948557D01*
X117919500Y-105925315D01*
X117919500Y-102981639D01*
X117936074Y-102961443D01*
X117989540Y-102861414D01*
X118022465Y-102752877D01*
X118033582Y-102640001D01*
X118033582Y-101739999D01*
X118022465Y-101627123D01*
X117989540Y-101518586D01*
X117936074Y-101418557D01*
X117917000Y-101395315D01*
X117917000Y-98741639D01*
X117933574Y-98721443D01*
X117987040Y-98621414D01*
X118019965Y-98512877D01*
X118031082Y-98400001D01*
X118031082Y-97499999D01*
X118019965Y-97387123D01*
X117987040Y-97278586D01*
X117933574Y-97178557D01*
X117861620Y-97090880D01*
X117773943Y-97018926D01*
X117673914Y-96965460D01*
X117565377Y-96932535D01*
X117452501Y-96921418D01*
X116927499Y-96921418D01*
X116814623Y-96932535D01*
X116706086Y-96965460D01*
X116606057Y-97018926D01*
X116518380Y-97090880D01*
X116446426Y-97178557D01*
X116392960Y-97278586D01*
X116360035Y-97387123D01*
X116348918Y-97499999D01*
X116206082Y-97499999D01*
X116194965Y-97387123D01*
X116162040Y-97278586D01*
X116108574Y-97178557D01*
X116036620Y-97090880D01*
X115948943Y-97018926D01*
X115848914Y-96965460D01*
X115740377Y-96932535D01*
X115627501Y-96921418D01*
X115102499Y-96921418D01*
X114989623Y-96932535D01*
X114881086Y-96965460D01*
X114781057Y-97018926D01*
X114693380Y-97090880D01*
X114621426Y-97178557D01*
X114597671Y-97223000D01*
X114251133Y-97223000D01*
X111627000Y-94598868D01*
X111627000Y-84801132D01*
X114401133Y-82027000D01*
X125605292Y-82027000D01*
X125641000Y-82030517D01*
X125783517Y-82016480D01*
X125837848Y-81999999D01*
X125920557Y-81974910D01*
X126046853Y-81907403D01*
X126157554Y-81816554D01*
X126180326Y-81788806D01*
X129117499Y-78851635D01*
X129144976Y-78857100D01*
X129376824Y-78857100D01*
X129604218Y-78811869D01*
X129818419Y-78723144D01*
X130011194Y-78594336D01*
X130175136Y-78430394D01*
X130303944Y-78237619D01*
X130392669Y-78023418D01*
X130437900Y-77796024D01*
X130437900Y-77564176D01*
X130392669Y-77336782D01*
X130303944Y-77122581D01*
X130175136Y-76929806D01*
X130011194Y-76765864D01*
X129818419Y-76637056D01*
X129604218Y-76548331D01*
X129376824Y-76503100D01*
X129144976Y-76503100D01*
X128917582Y-76548331D01*
X128703381Y-76637056D01*
X128510606Y-76765864D01*
X128346664Y-76929806D01*
X128217856Y-77122581D01*
X128129131Y-77336782D01*
X128083900Y-77564176D01*
X128083900Y-77796024D01*
X128089365Y-77823501D01*
X127826662Y-78086205D01*
X127852669Y-78023418D01*
X127897900Y-77796024D01*
X127897900Y-77564176D01*
X127852669Y-77336782D01*
X127763944Y-77122581D01*
X127635136Y-76929806D01*
X127471194Y-76765864D01*
X127278419Y-76637056D01*
X127064218Y-76548331D01*
X126836824Y-76503100D01*
X126604976Y-76503100D01*
X126377582Y-76548331D01*
X126163381Y-76637056D01*
X125970606Y-76765864D01*
X125806664Y-76929806D01*
X125677856Y-77122581D01*
X125589131Y-77336782D01*
X125543900Y-77564176D01*
X125543900Y-77796024D01*
X125589131Y-78023418D01*
X125677856Y-78237619D01*
X125806664Y-78430394D01*
X125970606Y-78594336D01*
X126163381Y-78723144D01*
X126377582Y-78811869D01*
X126604976Y-78857100D01*
X126836824Y-78857100D01*
X127064218Y-78811869D01*
X127127005Y-78785862D01*
X125339868Y-80573000D01*
X114135705Y-80573000D01*
X114099999Y-80569483D01*
X114064294Y-80573000D01*
X114064292Y-80573000D01*
X113957483Y-80583520D01*
X113820443Y-80625090D01*
X113694147Y-80692597D01*
X113583446Y-80783446D01*
X113560679Y-80811188D01*
X110411189Y-83960679D01*
X110383447Y-83983446D01*
X110292598Y-84094147D01*
X110225090Y-84220444D01*
X110183520Y-84357483D01*
X110169483Y-84500000D01*
X106727000Y-84500000D01*
X106727000Y-77564176D01*
X107763900Y-77564176D01*
X107763900Y-77796024D01*
X107809131Y-78023418D01*
X107897856Y-78237619D01*
X108026664Y-78430394D01*
X108190606Y-78594336D01*
X108383381Y-78723144D01*
X108597582Y-78811869D01*
X108824976Y-78857100D01*
X109056824Y-78857100D01*
X109284218Y-78811869D01*
X109498419Y-78723144D01*
X109691194Y-78594336D01*
X109855136Y-78430394D01*
X109983944Y-78237619D01*
X110072669Y-78023418D01*
X110117900Y-77796024D01*
X110117900Y-77564176D01*
X110303900Y-77564176D01*
X110303900Y-77796024D01*
X110349131Y-78023418D01*
X110437856Y-78237619D01*
X110566664Y-78430394D01*
X110730606Y-78594336D01*
X110923381Y-78723144D01*
X111137582Y-78811869D01*
X111364976Y-78857100D01*
X111596824Y-78857100D01*
X111824218Y-78811869D01*
X112038419Y-78723144D01*
X112231194Y-78594336D01*
X112395136Y-78430394D01*
X112523944Y-78237619D01*
X112612669Y-78023418D01*
X112657900Y-77796024D01*
X112657900Y-77564176D01*
X112843900Y-77564176D01*
X112843900Y-77796024D01*
X112889131Y-78023418D01*
X112977856Y-78237619D01*
X113106664Y-78430394D01*
X113270606Y-78594336D01*
X113463381Y-78723144D01*
X113677582Y-78811869D01*
X113904976Y-78857100D01*
X114136824Y-78857100D01*
X114364218Y-78811869D01*
X114578419Y-78723144D01*
X114771194Y-78594336D01*
X114935136Y-78430394D01*
X115063944Y-78237619D01*
X115152669Y-78023418D01*
X115197900Y-77796024D01*
X115197900Y-77564176D01*
X115383900Y-77564176D01*
X115383900Y-77796024D01*
X115429131Y-78023418D01*
X115517856Y-78237619D01*
X115646664Y-78430394D01*
X115810606Y-78594336D01*
X116003381Y-78723144D01*
X116217582Y-78811869D01*
X116444976Y-78857100D01*
X116676824Y-78857100D01*
X116904218Y-78811869D01*
X117118419Y-78723144D01*
X117311194Y-78594336D01*
X117475136Y-78430394D01*
X117603944Y-78237619D01*
X117692669Y-78023418D01*
X117737900Y-77796024D01*
X117737900Y-77564176D01*
X117923900Y-77564176D01*
X117923900Y-77796024D01*
X117969131Y-78023418D01*
X118057856Y-78237619D01*
X118186664Y-78430394D01*
X118350606Y-78594336D01*
X118543381Y-78723144D01*
X118757582Y-78811869D01*
X118984976Y-78857100D01*
X119216824Y-78857100D01*
X119444218Y-78811869D01*
X119658419Y-78723144D01*
X119851194Y-78594336D01*
X120015136Y-78430394D01*
X120143944Y-78237619D01*
X120232669Y-78023418D01*
X120277900Y-77796024D01*
X120277900Y-77564176D01*
X120232669Y-77336782D01*
X120143944Y-77122581D01*
X120015136Y-76929806D01*
X119851194Y-76765864D01*
X119658419Y-76637056D01*
X119444218Y-76548331D01*
X119216824Y-76503100D01*
X118984976Y-76503100D01*
X118757582Y-76548331D01*
X118543381Y-76637056D01*
X118350606Y-76765864D01*
X118186664Y-76929806D01*
X118057856Y-77122581D01*
X117969131Y-77336782D01*
X117923900Y-77564176D01*
X117737900Y-77564176D01*
X117692669Y-77336782D01*
X117603944Y-77122581D01*
X117475136Y-76929806D01*
X117311194Y-76765864D01*
X117118419Y-76637056D01*
X116904218Y-76548331D01*
X116676824Y-76503100D01*
X116444976Y-76503100D01*
X116217582Y-76548331D01*
X116003381Y-76637056D01*
X115810606Y-76765864D01*
X115646664Y-76929806D01*
X115517856Y-77122581D01*
X115429131Y-77336782D01*
X115383900Y-77564176D01*
X115197900Y-77564176D01*
X115152669Y-77336782D01*
X115063944Y-77122581D01*
X114935136Y-76929806D01*
X114771194Y-76765864D01*
X114578419Y-76637056D01*
X114364218Y-76548331D01*
X114136824Y-76503100D01*
X113904976Y-76503100D01*
X113677582Y-76548331D01*
X113463381Y-76637056D01*
X113270606Y-76765864D01*
X113106664Y-76929806D01*
X112977856Y-77122581D01*
X112889131Y-77336782D01*
X112843900Y-77564176D01*
X112657900Y-77564176D01*
X112612669Y-77336782D01*
X112523944Y-77122581D01*
X112395136Y-76929806D01*
X112231194Y-76765864D01*
X112038419Y-76637056D01*
X111824218Y-76548331D01*
X111596824Y-76503100D01*
X111364976Y-76503100D01*
X111137582Y-76548331D01*
X110923381Y-76637056D01*
X110730606Y-76765864D01*
X110566664Y-76929806D01*
X110437856Y-77122581D01*
X110349131Y-77336782D01*
X110303900Y-77564176D01*
X110117900Y-77564176D01*
X110072669Y-77336782D01*
X109983944Y-77122581D01*
X109855136Y-76929806D01*
X109691194Y-76765864D01*
X109498419Y-76637056D01*
X109284218Y-76548331D01*
X109056824Y-76503100D01*
X108824976Y-76503100D01*
X108597582Y-76548331D01*
X108383381Y-76637056D01*
X108190606Y-76765864D01*
X108026664Y-76929806D01*
X107897856Y-77122581D01*
X107809131Y-77336782D01*
X107763900Y-77564176D01*
X106727000Y-77564176D01*
X106727000Y-74290100D01*
X107762318Y-74290100D01*
X107762318Y-75990100D01*
X107768632Y-76054203D01*
X107787330Y-76115843D01*
X107817694Y-76172650D01*
X107858557Y-76222443D01*
X107908350Y-76263306D01*
X107965157Y-76293670D01*
X108026797Y-76312368D01*
X108090900Y-76318682D01*
X109790900Y-76318682D01*
X109855003Y-76312368D01*
X109916643Y-76293670D01*
X109973450Y-76263306D01*
X110023243Y-76222443D01*
X110064106Y-76172650D01*
X110094470Y-76115843D01*
X110113168Y-76054203D01*
X110119482Y-75990100D01*
X110119482Y-74290100D01*
X110113168Y-74225997D01*
X110094470Y-74164357D01*
X110064106Y-74107550D01*
X110023243Y-74057757D01*
X109973450Y-74016894D01*
X109916643Y-73986530D01*
X109855003Y-73967832D01*
X109790900Y-73961518D01*
X108090900Y-73961518D01*
X108026797Y-73967832D01*
X107965157Y-73986530D01*
X107908350Y-74016894D01*
X107858557Y-74057757D01*
X107817694Y-74107550D01*
X107787330Y-74164357D01*
X107768632Y-74225997D01*
X107762318Y-74290100D01*
X106727000Y-74290100D01*
X106727000Y-73501132D01*
X108001133Y-72227000D01*
X110079668Y-72227000D01*
X111887005Y-74034338D01*
X111824218Y-74008331D01*
X111596824Y-73963100D01*
X111364976Y-73963100D01*
X111137582Y-74008331D01*
X110923381Y-74097056D01*
X110730606Y-74225864D01*
X110566664Y-74389806D01*
X110437856Y-74582581D01*
X110349131Y-74796782D01*
X110303900Y-75024176D01*
X110303900Y-75256024D01*
X110349131Y-75483418D01*
X110437856Y-75697619D01*
X110566664Y-75890394D01*
X110730606Y-76054336D01*
X110923381Y-76183144D01*
X111137582Y-76271869D01*
X111364976Y-76317100D01*
X111596824Y-76317100D01*
X111824218Y-76271869D01*
X112038419Y-76183144D01*
X112231194Y-76054336D01*
X112395136Y-75890394D01*
X112523944Y-75697619D01*
X112612669Y-75483418D01*
X112657900Y-75256024D01*
X112657900Y-75024176D01*
X112612669Y-74796782D01*
X112586662Y-74733995D01*
X112849365Y-74996699D01*
X112843900Y-75024176D01*
X112843900Y-75256024D01*
X112889131Y-75483418D01*
X112977856Y-75697619D01*
X113106664Y-75890394D01*
X113270606Y-76054336D01*
X113463381Y-76183144D01*
X113677582Y-76271869D01*
X113904976Y-76317100D01*
X114136824Y-76317100D01*
X114364218Y-76271869D01*
X114578419Y-76183144D01*
X114771194Y-76054336D01*
X114935136Y-75890394D01*
X115063944Y-75697619D01*
X115152669Y-75483418D01*
X115197900Y-75256024D01*
X115197900Y-75024176D01*
X115152669Y-74796782D01*
X115063944Y-74582581D01*
X114935136Y-74389806D01*
X114771194Y-74225864D01*
X114578419Y-74097056D01*
X114364218Y-74008331D01*
X114136824Y-73963100D01*
X113904976Y-73963100D01*
X113877499Y-73968565D01*
X111135921Y-71226989D01*
X114159657Y-71226989D01*
X116967004Y-74034338D01*
X116904218Y-74008331D01*
X116676824Y-73963100D01*
X116444976Y-73963100D01*
X116217582Y-74008331D01*
X116003381Y-74097056D01*
X115810606Y-74225864D01*
X115646664Y-74389806D01*
X115517856Y-74582581D01*
X115429131Y-74796782D01*
X115383900Y-75024176D01*
X115383900Y-75256024D01*
X115429131Y-75483418D01*
X115517856Y-75697619D01*
X115646664Y-75890394D01*
X115810606Y-76054336D01*
X116003381Y-76183144D01*
X116217582Y-76271869D01*
X116444976Y-76317100D01*
X116676824Y-76317100D01*
X116904218Y-76271869D01*
X117118419Y-76183144D01*
X117311194Y-76054336D01*
X117475136Y-75890394D01*
X117603944Y-75697619D01*
X117692669Y-75483418D01*
X117737900Y-75256024D01*
X117737900Y-75024176D01*
X117692669Y-74796782D01*
X117666662Y-74733996D01*
X117762083Y-74829417D01*
X117762094Y-74829426D01*
X117929366Y-74996698D01*
X117923900Y-75024176D01*
X117923900Y-75256024D01*
X117969131Y-75483418D01*
X118057856Y-75697619D01*
X118186664Y-75890394D01*
X118350606Y-76054336D01*
X118543381Y-76183144D01*
X118757582Y-76271869D01*
X118984976Y-76317100D01*
X119216824Y-76317100D01*
X119444218Y-76271869D01*
X119658419Y-76183144D01*
X119851194Y-76054336D01*
X120015136Y-75890394D01*
X120143944Y-75697619D01*
X120212164Y-75532921D01*
X120296743Y-75771352D01*
X120445722Y-76021455D01*
X120640631Y-76237688D01*
X120873980Y-76411741D01*
X121136801Y-76536925D01*
X121245512Y-76569899D01*
X121083381Y-76637056D01*
X120890606Y-76765864D01*
X120726664Y-76929806D01*
X120597856Y-77122581D01*
X120509131Y-77336782D01*
X120463900Y-77564176D01*
X120463900Y-77796024D01*
X120509131Y-78023418D01*
X120597856Y-78237619D01*
X120726664Y-78430394D01*
X120890606Y-78594336D01*
X121083381Y-78723144D01*
X121297582Y-78811869D01*
X121524976Y-78857100D01*
X121756824Y-78857100D01*
X121984218Y-78811869D01*
X122198419Y-78723144D01*
X122391194Y-78594336D01*
X122555136Y-78430394D01*
X122683944Y-78237619D01*
X122772669Y-78023418D01*
X122817900Y-77796024D01*
X122817900Y-77564176D01*
X123003900Y-77564176D01*
X123003900Y-77796024D01*
X123049131Y-78023418D01*
X123137856Y-78237619D01*
X123266664Y-78430394D01*
X123430606Y-78594336D01*
X123623381Y-78723144D01*
X123837582Y-78811869D01*
X124064976Y-78857100D01*
X124296824Y-78857100D01*
X124524218Y-78811869D01*
X124738419Y-78723144D01*
X124931194Y-78594336D01*
X125095136Y-78430394D01*
X125223944Y-78237619D01*
X125312669Y-78023418D01*
X125357900Y-77796024D01*
X125357900Y-77564176D01*
X125312669Y-77336782D01*
X125223944Y-77122581D01*
X125095136Y-76929806D01*
X124931194Y-76765864D01*
X124738419Y-76637056D01*
X124524218Y-76548331D01*
X124296824Y-76503100D01*
X124064976Y-76503100D01*
X123837582Y-76548331D01*
X123623381Y-76637056D01*
X123430606Y-76765864D01*
X123266664Y-76929806D01*
X123137856Y-77122581D01*
X123049131Y-77336782D01*
X123003900Y-77564176D01*
X122817900Y-77564176D01*
X122772669Y-77336782D01*
X122683944Y-77122581D01*
X122555136Y-76929806D01*
X122391194Y-76765864D01*
X122198419Y-76637056D01*
X122036288Y-76569899D01*
X122144999Y-76536925D01*
X122407820Y-76411741D01*
X122641169Y-76237688D01*
X122836078Y-76021455D01*
X122985057Y-75771352D01*
X123069636Y-75532921D01*
X123137856Y-75697619D01*
X123266664Y-75890394D01*
X123430606Y-76054336D01*
X123623381Y-76183144D01*
X123837582Y-76271869D01*
X124064976Y-76317100D01*
X124296824Y-76317100D01*
X124524218Y-76271869D01*
X124738419Y-76183144D01*
X124931194Y-76054336D01*
X125095136Y-75890394D01*
X125223944Y-75697619D01*
X125312669Y-75483418D01*
X125357900Y-75256024D01*
X125357900Y-75024176D01*
X125312669Y-74796782D01*
X125268961Y-74691262D01*
X130808224Y-69152000D01*
X132069775Y-69152000D01*
X127169738Y-74052039D01*
X127064218Y-74008331D01*
X126836824Y-73963100D01*
X126604976Y-73963100D01*
X126377582Y-74008331D01*
X126163381Y-74097056D01*
X125970606Y-74225864D01*
X125806664Y-74389806D01*
X125677856Y-74582581D01*
X125589131Y-74796782D01*
X125543900Y-75024176D01*
X125543900Y-75256024D01*
X125589131Y-75483418D01*
X125677856Y-75697619D01*
X125806664Y-75890394D01*
X125970606Y-76054336D01*
X126163381Y-76183144D01*
X126377582Y-76271869D01*
X126604976Y-76317100D01*
X126836824Y-76317100D01*
X127064218Y-76271869D01*
X127278419Y-76183144D01*
X127471194Y-76054336D01*
X127635136Y-75890394D01*
X127763944Y-75697619D01*
X127852669Y-75483418D01*
X127897900Y-75256024D01*
X127897900Y-75024176D01*
X127852669Y-74796782D01*
X127808961Y-74691262D01*
X132898214Y-69602011D01*
X134159764Y-69602011D01*
X129709738Y-74052039D01*
X129604218Y-74008331D01*
X129376824Y-73963100D01*
X129144976Y-73963100D01*
X128917582Y-74008331D01*
X128703381Y-74097056D01*
X128510606Y-74225864D01*
X128346664Y-74389806D01*
X128217856Y-74582581D01*
X128129131Y-74796782D01*
X128083900Y-75024176D01*
X128083900Y-75256024D01*
X128129131Y-75483418D01*
X128217856Y-75697619D01*
X128346664Y-75890394D01*
X128510606Y-76054336D01*
X128703381Y-76183144D01*
X128917582Y-76271869D01*
X129144976Y-76317100D01*
X129376824Y-76317100D01*
X129604218Y-76271869D01*
X129818419Y-76183144D01*
X130011194Y-76054336D01*
X130175136Y-75890394D01*
X130303944Y-75697619D01*
X130392669Y-75483418D01*
X130437900Y-75256024D01*
X130437900Y-75024176D01*
X130392669Y-74796782D01*
X130348961Y-74691262D01*
X134988203Y-70052022D01*
X136249754Y-70052022D01*
X132249738Y-74052039D01*
X132144218Y-74008331D01*
X131916824Y-73963100D01*
X131684976Y-73963100D01*
X131457582Y-74008331D01*
X131243381Y-74097056D01*
X131050606Y-74225864D01*
X130886664Y-74389806D01*
X130757856Y-74582581D01*
X130669131Y-74796782D01*
X130623900Y-75024176D01*
X130623900Y-75256024D01*
X130669131Y-75483418D01*
X130757856Y-75697619D01*
X130886664Y-75890394D01*
X131050606Y-76054336D01*
X131243381Y-76183144D01*
X131457582Y-76271869D01*
X131684976Y-76317100D01*
X131916824Y-76317100D01*
X132144218Y-76271869D01*
X132358419Y-76183144D01*
X132551194Y-76054336D01*
X132715136Y-75890394D01*
X132843944Y-75697619D01*
X132932669Y-75483418D01*
X132977900Y-75256024D01*
X132977900Y-75024176D01*
X132932669Y-74796782D01*
X132888961Y-74691262D01*
X137078191Y-70502033D01*
X139936143Y-70502033D01*
X136459359Y-73978818D01*
X135070000Y-73978818D01*
X135005897Y-73985132D01*
X134944257Y-74003830D01*
X134887450Y-74034194D01*
X134837657Y-74075057D01*
X134796794Y-74124850D01*
X134766430Y-74181657D01*
X134747732Y-74243297D01*
X134741418Y-74307400D01*
X134741418Y-76007400D01*
X134747732Y-76071503D01*
X134766430Y-76133143D01*
X134796794Y-76189950D01*
X134837657Y-76239743D01*
X134887450Y-76280606D01*
X134944257Y-76310970D01*
X135005897Y-76329668D01*
X135070000Y-76335982D01*
X136770000Y-76335982D01*
X136834103Y-76329668D01*
X136895743Y-76310970D01*
X136952550Y-76280606D01*
X137002343Y-76239743D01*
X137043206Y-76189950D01*
X137073570Y-76133143D01*
X137092268Y-76071503D01*
X137098582Y-76007400D01*
X137098582Y-74618041D01*
X140764580Y-70952044D01*
X142026131Y-70952044D01*
X138908838Y-74069339D01*
X138803318Y-74025631D01*
X138575924Y-73980400D01*
X138344076Y-73980400D01*
X138116682Y-74025631D01*
X137902481Y-74114356D01*
X137709706Y-74243164D01*
X137545764Y-74407106D01*
X137416956Y-74599881D01*
X137328231Y-74814082D01*
X137283000Y-75041476D01*
X137283000Y-75273324D01*
X137328231Y-75500718D01*
X137416956Y-75714919D01*
X137545764Y-75907694D01*
X137709706Y-76071636D01*
X137902481Y-76200444D01*
X138116682Y-76289169D01*
X138344076Y-76334400D01*
X138575924Y-76334400D01*
X138803318Y-76289169D01*
X139017519Y-76200444D01*
X139210294Y-76071636D01*
X139374236Y-75907694D01*
X139503044Y-75714919D01*
X139591769Y-75500718D01*
X139637000Y-75273324D01*
X139637000Y-75041476D01*
X139591769Y-74814082D01*
X139548061Y-74708562D01*
X142854570Y-71402055D01*
X144116121Y-71402055D01*
X141448838Y-74069339D01*
X141343318Y-74025631D01*
X141115924Y-73980400D01*
X140884076Y-73980400D01*
X140656682Y-74025631D01*
X140442481Y-74114356D01*
X140249706Y-74243164D01*
X140085764Y-74407106D01*
X139956956Y-74599881D01*
X139868231Y-74814082D01*
X139823000Y-75041476D01*
X139823000Y-75273324D01*
X139868231Y-75500718D01*
X139956956Y-75714919D01*
X140085764Y-75907694D01*
X140249706Y-76071636D01*
X140442481Y-76200444D01*
X140656682Y-76289169D01*
X140884076Y-76334400D01*
X141115924Y-76334400D01*
X141343318Y-76289169D01*
X141557519Y-76200444D01*
X141750294Y-76071636D01*
X141914236Y-75907694D01*
X142043044Y-75714919D01*
X142131769Y-75500718D01*
X142177000Y-75273324D01*
X142177000Y-75041476D01*
X142131769Y-74814082D01*
X142088061Y-74708562D01*
X144944558Y-71852066D01*
X146206110Y-71852066D01*
X143988838Y-74069339D01*
X143883318Y-74025631D01*
X143655924Y-73980400D01*
X143424076Y-73980400D01*
X143196682Y-74025631D01*
X142982481Y-74114356D01*
X142789706Y-74243164D01*
X142625764Y-74407106D01*
X142496956Y-74599881D01*
X142408231Y-74814082D01*
X142363000Y-75041476D01*
X142363000Y-75273324D01*
X142408231Y-75500718D01*
X142496956Y-75714919D01*
X142625764Y-75907694D01*
X142789706Y-76071636D01*
X142982481Y-76200444D01*
X143196682Y-76289169D01*
X143424076Y-76334400D01*
X143655924Y-76334400D01*
X143883318Y-76289169D01*
X144097519Y-76200444D01*
X144290294Y-76071636D01*
X144454236Y-75907694D01*
X144583044Y-75714919D01*
X144671769Y-75500718D01*
X144717000Y-75273324D01*
X144717000Y-75041476D01*
X144671769Y-74814082D01*
X144628061Y-74708562D01*
X147034547Y-72302077D01*
X148296098Y-72302077D01*
X146528838Y-74069339D01*
X146423318Y-74025631D01*
X146195924Y-73980400D01*
X145964076Y-73980400D01*
X145736682Y-74025631D01*
X145522481Y-74114356D01*
X145329706Y-74243164D01*
X145165764Y-74407106D01*
X145036956Y-74599881D01*
X144948231Y-74814082D01*
X144903000Y-75041476D01*
X144903000Y-75273324D01*
X144948231Y-75500718D01*
X145036956Y-75714919D01*
X145165764Y-75907694D01*
X145329706Y-76071636D01*
X145522481Y-76200444D01*
X145736682Y-76289169D01*
X145964076Y-76334400D01*
X146195924Y-76334400D01*
X146423318Y-76289169D01*
X146637519Y-76200444D01*
X146830294Y-76071636D01*
X146994236Y-75907694D01*
X147123044Y-75714919D01*
X147211769Y-75500718D01*
X147257000Y-75273324D01*
X147257000Y-75041476D01*
X147211769Y-74814082D01*
X147168061Y-74708562D01*
X149124537Y-72752088D01*
X150386088Y-72752088D01*
X149068838Y-74069339D01*
X148963318Y-74025631D01*
X148735924Y-73980400D01*
X148504076Y-73980400D01*
X148276682Y-74025631D01*
X148062481Y-74114356D01*
X147869706Y-74243164D01*
X147705764Y-74407106D01*
X147576956Y-74599881D01*
X147488231Y-74814082D01*
X147443000Y-75041476D01*
X147443000Y-75273324D01*
X147488231Y-75500718D01*
X147576956Y-75714919D01*
X147705764Y-75907694D01*
X147869706Y-76071636D01*
X148062481Y-76200444D01*
X148276682Y-76289169D01*
X148504076Y-76334400D01*
X148735924Y-76334400D01*
X148963318Y-76289169D01*
X149177519Y-76200444D01*
X149370294Y-76071636D01*
X149534236Y-75907694D01*
X149663044Y-75714919D01*
X149751769Y-75500718D01*
X149797000Y-75273324D01*
X149797000Y-75041476D01*
X149751769Y-74814082D01*
X149708061Y-74708562D01*
X151214525Y-73202099D01*
X152476076Y-73202099D01*
X151608838Y-74069339D01*
X151503318Y-74025631D01*
X151275924Y-73980400D01*
X151044076Y-73980400D01*
X150816682Y-74025631D01*
X150602481Y-74114356D01*
X150409706Y-74243164D01*
X150245764Y-74407106D01*
X150116956Y-74599881D01*
X150028231Y-74814082D01*
X149983000Y-75041476D01*
X149983000Y-75273324D01*
X150028231Y-75500718D01*
X150116956Y-75714919D01*
X150245764Y-75907694D01*
X150409706Y-76071636D01*
X150602481Y-76200444D01*
X150816682Y-76289169D01*
X151044076Y-76334400D01*
X151275924Y-76334400D01*
X151503318Y-76289169D01*
X151717519Y-76200444D01*
X151910294Y-76071636D01*
X152074236Y-75907694D01*
X152203044Y-75714919D01*
X152291769Y-75500718D01*
X152337000Y-75273324D01*
X152337000Y-75041476D01*
X152291769Y-74814082D01*
X152248061Y-74708562D01*
X153304515Y-73652110D01*
X155394934Y-73652110D01*
X156448224Y-74705400D01*
X154786751Y-74705400D01*
X154743044Y-74599881D01*
X154614236Y-74407106D01*
X154450294Y-74243164D01*
X154257519Y-74114356D01*
X154043318Y-74025631D01*
X153815924Y-73980400D01*
X153584076Y-73980400D01*
X153356682Y-74025631D01*
X153142481Y-74114356D01*
X152949706Y-74243164D01*
X152785764Y-74407106D01*
X152656956Y-74599881D01*
X152568231Y-74814082D01*
X152523000Y-75041476D01*
X152523000Y-75273324D01*
X152568231Y-75500718D01*
X152656956Y-75714919D01*
X152785764Y-75907694D01*
X152949706Y-76071636D01*
X153142481Y-76200444D01*
X153356682Y-76289169D01*
X153584076Y-76334400D01*
X153815924Y-76334400D01*
X154043318Y-76289169D01*
X154257519Y-76200444D01*
X154450294Y-76071636D01*
X154614236Y-75907694D01*
X154743044Y-75714919D01*
X154786751Y-75609400D01*
X156715817Y-75609400D01*
X161304384Y-80197967D01*
X146679792Y-80197967D01*
X144628061Y-78146238D01*
X144671769Y-78040718D01*
X144717000Y-77813324D01*
X144717000Y-77581476D01*
X144903000Y-77581476D01*
X144903000Y-77813324D01*
X144948231Y-78040718D01*
X145036956Y-78254919D01*
X145165764Y-78447694D01*
X145329706Y-78611636D01*
X145522481Y-78740444D01*
X145736682Y-78829169D01*
X145964076Y-78874400D01*
X146195924Y-78874400D01*
X146423318Y-78829169D01*
X146637519Y-78740444D01*
X146830294Y-78611636D01*
X146994236Y-78447694D01*
X147123044Y-78254919D01*
X147211769Y-78040718D01*
X147257000Y-77813324D01*
X147257000Y-77581476D01*
X147443000Y-77581476D01*
X147443000Y-77813324D01*
X147488231Y-78040718D01*
X147576956Y-78254919D01*
X147705764Y-78447694D01*
X147869706Y-78611636D01*
X148062481Y-78740444D01*
X148276682Y-78829169D01*
X148504076Y-78874400D01*
X148735924Y-78874400D01*
X148963318Y-78829169D01*
X149177519Y-78740444D01*
X149370294Y-78611636D01*
X149534236Y-78447694D01*
X149663044Y-78254919D01*
X149751769Y-78040718D01*
X149797000Y-77813324D01*
X149797000Y-77581476D01*
X149983000Y-77581476D01*
X149983000Y-77813324D01*
X150028231Y-78040718D01*
X150116956Y-78254919D01*
X150245764Y-78447694D01*
X150409706Y-78611636D01*
X150602481Y-78740444D01*
X150816682Y-78829169D01*
X151044076Y-78874400D01*
X151275924Y-78874400D01*
X151503318Y-78829169D01*
X151717519Y-78740444D01*
X151910294Y-78611636D01*
X152074236Y-78447694D01*
X152203044Y-78254919D01*
X152291769Y-78040718D01*
X152337000Y-77813324D01*
X152337000Y-77581476D01*
X152523000Y-77581476D01*
X152523000Y-77813324D01*
X152568231Y-78040718D01*
X152656956Y-78254919D01*
X152785764Y-78447694D01*
X152949706Y-78611636D01*
X153142481Y-78740444D01*
X153356682Y-78829169D01*
X153584076Y-78874400D01*
X153815924Y-78874400D01*
X154043318Y-78829169D01*
X154257519Y-78740444D01*
X154450294Y-78611636D01*
X154614236Y-78447694D01*
X154743044Y-78254919D01*
X154831769Y-78040718D01*
X154877000Y-77813324D01*
X154877000Y-77581476D01*
X154831769Y-77354082D01*
X154743044Y-77139881D01*
X154614236Y-76947106D01*
X154450294Y-76783164D01*
X154257519Y-76654356D01*
X154043318Y-76565631D01*
X153815924Y-76520400D01*
X153584076Y-76520400D01*
X153356682Y-76565631D01*
X153142481Y-76654356D01*
X152949706Y-76783164D01*
X152785764Y-76947106D01*
X152656956Y-77139881D01*
X152568231Y-77354082D01*
X152523000Y-77581476D01*
X152337000Y-77581476D01*
X152291769Y-77354082D01*
X152203044Y-77139881D01*
X152074236Y-76947106D01*
X151910294Y-76783164D01*
X151717519Y-76654356D01*
X151503318Y-76565631D01*
X151275924Y-76520400D01*
X151044076Y-76520400D01*
X150816682Y-76565631D01*
X150602481Y-76654356D01*
X150409706Y-76783164D01*
X150245764Y-76947106D01*
X150116956Y-77139881D01*
X150028231Y-77354082D01*
X149983000Y-77581476D01*
X149797000Y-77581476D01*
X149751769Y-77354082D01*
X149663044Y-77139881D01*
X149534236Y-76947106D01*
X149370294Y-76783164D01*
X149177519Y-76654356D01*
X148963318Y-76565631D01*
X148735924Y-76520400D01*
X148504076Y-76520400D01*
X148276682Y-76565631D01*
X148062481Y-76654356D01*
X147869706Y-76783164D01*
X147705764Y-76947106D01*
X147576956Y-77139881D01*
X147488231Y-77354082D01*
X147443000Y-77581476D01*
X147257000Y-77581476D01*
X147211769Y-77354082D01*
X147123044Y-77139881D01*
X146994236Y-76947106D01*
X146830294Y-76783164D01*
X146637519Y-76654356D01*
X146423318Y-76565631D01*
X146195924Y-76520400D01*
X145964076Y-76520400D01*
X145736682Y-76565631D01*
X145522481Y-76654356D01*
X145329706Y-76783164D01*
X145165764Y-76947106D01*
X145036956Y-77139881D01*
X144948231Y-77354082D01*
X144903000Y-77581476D01*
X144717000Y-77581476D01*
X144671769Y-77354082D01*
X144583044Y-77139881D01*
X144454236Y-76947106D01*
X144290294Y-76783164D01*
X144097519Y-76654356D01*
X143883318Y-76565631D01*
X143655924Y-76520400D01*
X143424076Y-76520400D01*
X143196682Y-76565631D01*
X142982481Y-76654356D01*
X142789706Y-76783164D01*
X142625764Y-76947106D01*
X142496956Y-77139881D01*
X142408231Y-77354082D01*
X142363000Y-77581476D01*
X142363000Y-77813324D01*
X142408231Y-78040718D01*
X142496956Y-78254919D01*
X142625764Y-78447694D01*
X142789706Y-78611636D01*
X142982481Y-78740444D01*
X143196682Y-78829169D01*
X143424076Y-78874400D01*
X143655924Y-78874400D01*
X143883318Y-78829169D01*
X143988838Y-78785461D01*
X145851353Y-80647978D01*
X144589802Y-80647978D01*
X142088061Y-78146238D01*
X142131769Y-78040718D01*
X142177000Y-77813324D01*
X142177000Y-77581476D01*
X142131769Y-77354082D01*
X142043044Y-77139881D01*
X141914236Y-76947106D01*
X141750294Y-76783164D01*
X141557519Y-76654356D01*
X141343318Y-76565631D01*
X141115924Y-76520400D01*
X140884076Y-76520400D01*
X140656682Y-76565631D01*
X140442481Y-76654356D01*
X140249706Y-76783164D01*
X140085764Y-76947106D01*
X139956956Y-77139881D01*
X139868231Y-77354082D01*
X139823000Y-77581476D01*
X139823000Y-77813324D01*
X139868231Y-78040718D01*
X139956956Y-78254919D01*
X140085764Y-78447694D01*
X140249706Y-78611636D01*
X140442481Y-78740444D01*
X140656682Y-78829169D01*
X140884076Y-78874400D01*
X141115924Y-78874400D01*
X141343318Y-78829169D01*
X141448838Y-78785461D01*
X143761365Y-81097989D01*
X142499813Y-81097989D01*
X139645321Y-78243498D01*
X139645312Y-78243487D01*
X139548062Y-78146237D01*
X139591769Y-78040718D01*
X139637000Y-77813324D01*
X139637000Y-77581476D01*
X139591769Y-77354082D01*
X139503044Y-77139881D01*
X139374236Y-76947106D01*
X139210294Y-76783164D01*
X139017519Y-76654356D01*
X138803318Y-76565631D01*
X138575924Y-76520400D01*
X138344076Y-76520400D01*
X138116682Y-76565631D01*
X137902481Y-76654356D01*
X137709706Y-76783164D01*
X137545764Y-76947106D01*
X137416956Y-77139881D01*
X137328231Y-77354082D01*
X137283000Y-77581476D01*
X137283000Y-77813324D01*
X137328231Y-78040718D01*
X137416956Y-78254919D01*
X137545764Y-78447694D01*
X137709706Y-78611636D01*
X137902481Y-78740444D01*
X138116682Y-78829169D01*
X138344076Y-78874400D01*
X138575924Y-78874400D01*
X138803318Y-78829169D01*
X138908837Y-78785462D01*
X139006087Y-78882712D01*
X139006098Y-78882721D01*
X141671376Y-81548000D01*
X140409825Y-81548000D01*
X137008061Y-78146238D01*
X137051769Y-78040718D01*
X137097000Y-77813324D01*
X137097000Y-77581476D01*
X137051769Y-77354082D01*
X136963044Y-77139881D01*
X136834236Y-76947106D01*
X136670294Y-76783164D01*
X136477519Y-76654356D01*
X136263318Y-76565631D01*
X136035924Y-76520400D01*
X135804076Y-76520400D01*
X135576682Y-76565631D01*
X135362481Y-76654356D01*
X135169706Y-76783164D01*
X135005764Y-76947106D01*
X134876956Y-77139881D01*
X134788231Y-77354082D01*
X134743000Y-77581476D01*
X134743000Y-77813324D01*
X134788231Y-78040718D01*
X134876956Y-78254919D01*
X135005764Y-78447694D01*
X135169706Y-78611636D01*
X135362481Y-78740444D01*
X135576682Y-78829169D01*
X135804076Y-78874400D01*
X136035924Y-78874400D01*
X136263318Y-78829169D01*
X136368838Y-78785461D01*
X139887285Y-82303910D01*
X139901441Y-82321159D01*
X139970267Y-82377643D01*
X140048790Y-82419614D01*
X140114162Y-82439444D01*
X140133992Y-82445460D01*
X140222599Y-82454187D01*
X140244804Y-82452000D01*
X161012777Y-82452000D01*
X168948001Y-90387226D01*
X168948000Y-94112775D01*
X168012777Y-95048000D01*
X164528680Y-95048000D01*
X164525743Y-95046430D01*
X164464103Y-95027732D01*
X164400000Y-95021418D01*
X163600000Y-95021418D01*
X163535897Y-95027732D01*
X163474257Y-95046430D01*
X163471320Y-95048000D01*
X159822204Y-95048000D01*
X159799999Y-95045813D01*
X159711392Y-95054540D01*
X159699357Y-95058191D01*
X159626190Y-95080386D01*
X159547667Y-95122357D01*
X159478841Y-95178841D01*
X159464686Y-95196089D01*
X152045935Y-102614842D01*
X152028676Y-102629006D01*
X151972192Y-102697833D01*
X151943061Y-102752334D01*
X151930221Y-102776356D01*
X151904375Y-102861558D01*
X151895648Y-102950165D01*
X151897835Y-102972370D01*
X151897836Y-109726529D01*
X140696100Y-120928266D01*
X140678841Y-120942430D01*
X140622357Y-121011257D01*
X140595626Y-121061268D01*
X140580386Y-121089780D01*
X140554540Y-121174982D01*
X140545813Y-121263589D01*
X140548000Y-121285794D01*
X140548001Y-122246418D01*
X140150000Y-122246418D01*
X140085897Y-122252732D01*
X140024257Y-122271430D01*
X139967450Y-122301794D01*
X139917657Y-122342657D01*
X139876794Y-122392450D01*
X139846430Y-122449257D01*
X139827732Y-122510897D01*
X139821418Y-122575000D01*
X139821418Y-124275000D01*
X139827732Y-124339103D01*
X139846430Y-124400743D01*
X139876794Y-124457550D01*
X139917657Y-124507343D01*
X139967450Y-124548206D01*
X140024257Y-124578570D01*
X140085897Y-124597268D01*
X140150000Y-124603582D01*
X141850000Y-124603582D01*
X141914103Y-124597268D01*
X141975743Y-124578570D01*
X142032550Y-124548206D01*
X142082343Y-124507343D01*
X142123206Y-124457550D01*
X142153570Y-124400743D01*
X142172268Y-124339103D01*
X142178582Y-124275000D01*
X142178582Y-122575000D01*
X142172268Y-122510897D01*
X142153570Y-122449257D01*
X142123206Y-122392450D01*
X142082343Y-122342657D01*
X142032550Y-122301794D01*
X141975743Y-122271430D01*
X141914103Y-122252732D01*
X141850000Y-122246418D01*
X141452000Y-122246418D01*
X141452000Y-121450812D01*
X152347846Y-110554967D01*
X152347846Y-112012930D01*
X143236096Y-121124681D01*
X143218842Y-121138841D01*
X143186015Y-121178841D01*
X143162358Y-121207667D01*
X143120386Y-121286191D01*
X143094540Y-121371393D01*
X143085813Y-121460000D01*
X143088001Y-121482215D01*
X143088001Y-122338248D01*
X142982481Y-122381956D01*
X142789706Y-122510764D01*
X142625764Y-122674706D01*
X142496956Y-122867481D01*
X142408231Y-123081682D01*
X142363000Y-123309076D01*
X142363000Y-123540924D01*
X142408231Y-123768318D01*
X142496956Y-123982519D01*
X142625764Y-124175294D01*
X142789706Y-124339236D01*
X142982481Y-124468044D01*
X143196682Y-124556769D01*
X143424076Y-124602000D01*
X143655924Y-124602000D01*
X143883318Y-124556769D01*
X144097519Y-124468044D01*
X144290294Y-124339236D01*
X144454236Y-124175294D01*
X144583044Y-123982519D01*
X144671769Y-123768318D01*
X144717000Y-123540924D01*
X144717000Y-123309076D01*
X144903000Y-123309076D01*
X144903000Y-123540924D01*
X144948231Y-123768318D01*
X145036956Y-123982519D01*
X145165764Y-124175294D01*
X145329706Y-124339236D01*
X145522481Y-124468044D01*
X145736682Y-124556769D01*
X145964076Y-124602000D01*
X146195924Y-124602000D01*
X146423318Y-124556769D01*
X146637519Y-124468044D01*
X146830294Y-124339236D01*
X146994236Y-124175294D01*
X147123044Y-123982519D01*
X147211769Y-123768318D01*
X147257000Y-123540924D01*
X147257000Y-123309076D01*
X147443000Y-123309076D01*
X147443000Y-123540924D01*
X147488231Y-123768318D01*
X147576956Y-123982519D01*
X147705764Y-124175294D01*
X147869706Y-124339236D01*
X148062481Y-124468044D01*
X148276682Y-124556769D01*
X148504076Y-124602000D01*
X148735924Y-124602000D01*
X148963318Y-124556769D01*
X149177519Y-124468044D01*
X149370294Y-124339236D01*
X149534236Y-124175294D01*
X149663044Y-123982519D01*
X149751769Y-123768318D01*
X149797000Y-123540924D01*
X149797000Y-123309076D01*
X149751769Y-123081682D01*
X149663044Y-122867481D01*
X149534236Y-122674706D01*
X149370294Y-122510764D01*
X149177519Y-122381956D01*
X148963318Y-122293231D01*
X148735924Y-122248000D01*
X148504076Y-122248000D01*
X148276682Y-122293231D01*
X148062481Y-122381956D01*
X147869706Y-122510764D01*
X147705764Y-122674706D01*
X147576956Y-122867481D01*
X147488231Y-123081682D01*
X147443000Y-123309076D01*
X147257000Y-123309076D01*
X147211769Y-123081682D01*
X147123044Y-122867481D01*
X146994236Y-122674706D01*
X146830294Y-122510764D01*
X146637519Y-122381956D01*
X146423318Y-122293231D01*
X146195924Y-122248000D01*
X145964076Y-122248000D01*
X145736682Y-122293231D01*
X145522481Y-122381956D01*
X145329706Y-122510764D01*
X145165764Y-122674706D01*
X145036956Y-122867481D01*
X144948231Y-123081682D01*
X144903000Y-123309076D01*
X144717000Y-123309076D01*
X144671769Y-123081682D01*
X144583044Y-122867481D01*
X144454236Y-122674706D01*
X144290294Y-122510764D01*
X144097519Y-122381956D01*
X143992000Y-122338249D01*
X143992000Y-121647223D01*
X152797858Y-112841366D01*
X152797858Y-114562917D01*
X150856100Y-116504677D01*
X150838841Y-116518841D01*
X150782358Y-116587667D01*
X150740386Y-116666191D01*
X150714540Y-116751393D01*
X150705813Y-116840000D01*
X150708000Y-116862205D01*
X150708001Y-122338248D01*
X150602481Y-122381956D01*
X150409706Y-122510764D01*
X150245764Y-122674706D01*
X150116956Y-122867481D01*
X150028231Y-123081682D01*
X149983000Y-123309076D01*
X149983000Y-123540924D01*
X150028231Y-123768318D01*
X150116956Y-123982519D01*
X150245764Y-124175294D01*
X150409706Y-124339236D01*
X150602481Y-124468044D01*
X150816682Y-124556769D01*
X151044076Y-124602000D01*
X151275924Y-124602000D01*
X151503318Y-124556769D01*
X151717519Y-124468044D01*
X151910294Y-124339236D01*
X152074236Y-124175294D01*
X152203044Y-123982519D01*
X152291769Y-123768318D01*
X152337000Y-123540924D01*
X152337000Y-123309076D01*
X152291769Y-123081682D01*
X152203044Y-122867481D01*
X152074236Y-122674706D01*
X151910294Y-122510764D01*
X151717519Y-122381956D01*
X151612000Y-122338249D01*
X151612000Y-117027223D01*
X153247869Y-115391356D01*
X153247869Y-122338303D01*
X153142481Y-122381956D01*
X152949706Y-122510764D01*
X152785764Y-122674706D01*
X152656956Y-122867481D01*
X152568231Y-123081682D01*
X152523000Y-123309076D01*
X152523000Y-123540924D01*
X152568231Y-123768318D01*
X152656956Y-123982519D01*
X152785764Y-124175294D01*
X152949706Y-124339236D01*
X153142481Y-124468044D01*
X153356682Y-124556769D01*
X153584076Y-124602000D01*
X153815924Y-124602000D01*
X154043318Y-124556769D01*
X154257519Y-124468044D01*
X154450294Y-124339236D01*
X154614236Y-124175294D01*
X154743044Y-123982519D01*
X154831769Y-123768318D01*
X154877000Y-123540924D01*
X154877000Y-123309076D01*
X155063000Y-123309076D01*
X155063000Y-123540924D01*
X155108231Y-123768318D01*
X155196956Y-123982519D01*
X155325764Y-124175294D01*
X155489706Y-124339236D01*
X155682481Y-124468044D01*
X155896682Y-124556769D01*
X156124076Y-124602000D01*
X156355924Y-124602000D01*
X156583318Y-124556769D01*
X156797519Y-124468044D01*
X156990294Y-124339236D01*
X157154236Y-124175294D01*
X157283044Y-123982519D01*
X157371769Y-123768318D01*
X157417000Y-123540924D01*
X157417000Y-123309076D01*
X157371769Y-123081682D01*
X157283044Y-122867481D01*
X157154236Y-122674706D01*
X156990294Y-122510764D01*
X156797519Y-122381956D01*
X156583318Y-122293231D01*
X156355924Y-122248000D01*
X156124076Y-122248000D01*
X155896682Y-122293231D01*
X155682481Y-122381956D01*
X155489706Y-122510764D01*
X155325764Y-122674706D01*
X155196956Y-122867481D01*
X155108231Y-123081682D01*
X155063000Y-123309076D01*
X154877000Y-123309076D01*
X154831769Y-123081682D01*
X154743044Y-122867481D01*
X154614236Y-122674706D01*
X154450294Y-122510764D01*
X154257519Y-122381956D01*
X154151868Y-122338194D01*
X154151868Y-110000321D01*
X158328000Y-114176455D01*
X158328001Y-122338248D01*
X158222481Y-122381956D01*
X158029706Y-122510764D01*
X157865764Y-122674706D01*
X157736956Y-122867481D01*
X157648231Y-123081682D01*
X157603000Y-123309076D01*
X157603000Y-123540924D01*
X157648231Y-123768318D01*
X157736956Y-123982519D01*
X157865764Y-124175294D01*
X158029706Y-124339236D01*
X158222481Y-124468044D01*
X158436682Y-124556769D01*
X158664076Y-124602000D01*
X158895924Y-124602000D01*
X159123318Y-124556769D01*
X159337519Y-124468044D01*
X159530294Y-124339236D01*
X159694236Y-124175294D01*
X159823044Y-123982519D01*
X159911769Y-123768318D01*
X159957000Y-123540924D01*
X159957000Y-123309076D01*
X159911769Y-123081682D01*
X159823044Y-122867481D01*
X159694236Y-122674706D01*
X159530294Y-122510764D01*
X159337519Y-122381956D01*
X159232000Y-122338249D01*
X159232000Y-114444044D01*
X160868000Y-116080044D01*
X160868001Y-122338248D01*
X160762481Y-122381956D01*
X160569706Y-122510764D01*
X160405764Y-122674706D01*
X160276956Y-122867481D01*
X160188231Y-123081682D01*
X160143000Y-123309076D01*
X160143000Y-123540924D01*
X160188231Y-123768318D01*
X160276956Y-123982519D01*
X160405764Y-124175294D01*
X160569706Y-124339236D01*
X160762481Y-124468044D01*
X160976682Y-124556769D01*
X161204076Y-124602000D01*
X161435924Y-124602000D01*
X161663318Y-124556769D01*
X161877519Y-124468044D01*
X162070294Y-124339236D01*
X162234236Y-124175294D01*
X162363044Y-123982519D01*
X162451769Y-123768318D01*
X162497000Y-123540924D01*
X162497000Y-123309076D01*
X162451769Y-123081682D01*
X162363044Y-122867481D01*
X162234236Y-122674706D01*
X162070294Y-122510764D01*
X161877519Y-122381956D01*
X161772000Y-122338249D01*
X161772000Y-116347634D01*
X163408000Y-117983634D01*
X163408001Y-122338248D01*
X163302481Y-122381956D01*
X163109706Y-122510764D01*
X162945764Y-122674706D01*
X162816956Y-122867481D01*
X162728231Y-123081682D01*
X162683000Y-123309076D01*
X162683000Y-123540924D01*
X162728231Y-123768318D01*
X162816956Y-123982519D01*
X162945764Y-124175294D01*
X163109706Y-124339236D01*
X163302481Y-124468044D01*
X163516682Y-124556769D01*
X163744076Y-124602000D01*
X163975924Y-124602000D01*
X164203318Y-124556769D01*
X164417519Y-124468044D01*
X164610294Y-124339236D01*
X164774236Y-124175294D01*
X164903044Y-123982519D01*
X164991769Y-123768318D01*
X165037000Y-123540924D01*
X165037000Y-123309076D01*
X164991769Y-123081682D01*
X164903044Y-122867481D01*
X164774236Y-122674706D01*
X164610294Y-122510764D01*
X164417519Y-122381956D01*
X164312000Y-122338249D01*
X164312000Y-118251224D01*
X167748000Y-121687224D01*
X167748001Y-126494314D01*
X166894317Y-127348000D01*
X165882224Y-127348000D01*
X164948061Y-126413838D01*
X164991769Y-126308318D01*
X165037000Y-126080924D01*
X165037000Y-125849076D01*
X164991769Y-125621682D01*
X164903044Y-125407481D01*
X164774236Y-125214706D01*
X164610294Y-125050764D01*
X164417519Y-124921956D01*
X164203318Y-124833231D01*
X163975924Y-124788000D01*
X163744076Y-124788000D01*
X163516682Y-124833231D01*
X163302481Y-124921956D01*
X163109706Y-125050764D01*
X162945764Y-125214706D01*
X162816956Y-125407481D01*
X162728231Y-125621682D01*
X162683000Y-125849076D01*
X162683000Y-126080924D01*
X162728231Y-126308318D01*
X162816956Y-126522519D01*
X162945764Y-126715294D01*
X163109706Y-126879236D01*
X163302481Y-127008044D01*
X163516682Y-127096769D01*
X163744076Y-127142000D01*
X163975924Y-127142000D01*
X164203318Y-127096769D01*
X164308838Y-127053061D01*
X165359681Y-128103905D01*
X165373841Y-128121159D01*
X165442667Y-128177643D01*
X165521078Y-128219554D01*
X165521190Y-128219614D01*
X165606392Y-128245460D01*
X165695000Y-128254187D01*
X165717205Y-128252000D01*
X166626726Y-128252000D01*
X165880723Y-128998003D01*
X164992227Y-128998003D01*
X162408061Y-126413838D01*
X162451769Y-126308318D01*
X162497000Y-126080924D01*
X162497000Y-125849076D01*
X162451769Y-125621682D01*
X162363044Y-125407481D01*
X162234236Y-125214706D01*
X162070294Y-125050764D01*
X161877519Y-124921956D01*
X161663318Y-124833231D01*
X161435924Y-124788000D01*
X161204076Y-124788000D01*
X160976682Y-124833231D01*
X160762481Y-124921956D01*
X160569706Y-125050764D01*
X160405764Y-125214706D01*
X160276956Y-125407481D01*
X160188231Y-125621682D01*
X160143000Y-125849076D01*
X160143000Y-126080924D01*
X160188231Y-126308318D01*
X160276956Y-126522519D01*
X160405764Y-126715294D01*
X160569706Y-126879236D01*
X160762481Y-127008044D01*
X160976682Y-127096769D01*
X161204076Y-127142000D01*
X161435924Y-127142000D01*
X161663318Y-127096769D01*
X161768838Y-127053061D01*
X164163790Y-129448014D01*
X162902239Y-129448014D01*
X159868061Y-126413838D01*
X159911769Y-126308318D01*
X159957000Y-126080924D01*
X159957000Y-125849076D01*
X159911769Y-125621682D01*
X159823044Y-125407481D01*
X159694236Y-125214706D01*
X159530294Y-125050764D01*
X159337519Y-124921956D01*
X159123318Y-124833231D01*
X158895924Y-124788000D01*
X158664076Y-124788000D01*
X158436682Y-124833231D01*
X158222481Y-124921956D01*
X158029706Y-125050764D01*
X157865764Y-125214706D01*
X157736956Y-125407481D01*
X157648231Y-125621682D01*
X157603000Y-125849076D01*
X157603000Y-126080924D01*
X157648231Y-126308318D01*
X157736956Y-126522519D01*
X157865764Y-126715294D01*
X158029706Y-126879236D01*
X158222481Y-127008044D01*
X158436682Y-127096769D01*
X158664076Y-127142000D01*
X158895924Y-127142000D01*
X159123318Y-127096769D01*
X159228838Y-127053061D01*
X162073800Y-129898025D01*
X160812249Y-129898025D01*
X157328061Y-126413838D01*
X157371769Y-126308318D01*
X157417000Y-126080924D01*
X157417000Y-125849076D01*
X157371769Y-125621682D01*
X157283044Y-125407481D01*
X157154236Y-125214706D01*
X156990294Y-125050764D01*
X156797519Y-124921956D01*
X156583318Y-124833231D01*
X156355924Y-124788000D01*
X156124076Y-124788000D01*
X155896682Y-124833231D01*
X155682481Y-124921956D01*
X155489706Y-125050764D01*
X155325764Y-125214706D01*
X155196956Y-125407481D01*
X155108231Y-125621682D01*
X155063000Y-125849076D01*
X155063000Y-126080924D01*
X155108231Y-126308318D01*
X155196956Y-126522519D01*
X155325764Y-126715294D01*
X155489706Y-126879236D01*
X155682481Y-127008044D01*
X155896682Y-127096769D01*
X156124076Y-127142000D01*
X156355924Y-127142000D01*
X156583318Y-127096769D01*
X156688838Y-127053061D01*
X159983812Y-130348036D01*
X158722261Y-130348036D01*
X154788061Y-126413838D01*
X154831769Y-126308318D01*
X154877000Y-126080924D01*
X154877000Y-125849076D01*
X154831769Y-125621682D01*
X154743044Y-125407481D01*
X154614236Y-125214706D01*
X154450294Y-125050764D01*
X154257519Y-124921956D01*
X154043318Y-124833231D01*
X153815924Y-124788000D01*
X153584076Y-124788000D01*
X153356682Y-124833231D01*
X153142481Y-124921956D01*
X152949706Y-125050764D01*
X152785764Y-125214706D01*
X152656956Y-125407481D01*
X152568231Y-125621682D01*
X152523000Y-125849076D01*
X152523000Y-126080924D01*
X152568231Y-126308318D01*
X152656956Y-126522519D01*
X152785764Y-126715294D01*
X152949706Y-126879236D01*
X153142481Y-127008044D01*
X153356682Y-127096769D01*
X153584076Y-127142000D01*
X153815924Y-127142000D01*
X154043318Y-127096769D01*
X154148838Y-127053061D01*
X157893822Y-130798047D01*
X156632272Y-130798047D01*
X152248061Y-126413838D01*
X152291769Y-126308318D01*
X152337000Y-126080924D01*
X152337000Y-125849076D01*
X152291769Y-125621682D01*
X152203044Y-125407481D01*
X152074236Y-125214706D01*
X151910294Y-125050764D01*
X151717519Y-124921956D01*
X151503318Y-124833231D01*
X151275924Y-124788000D01*
X151044076Y-124788000D01*
X150816682Y-124833231D01*
X150602481Y-124921956D01*
X150409706Y-125050764D01*
X150245764Y-125214706D01*
X150116956Y-125407481D01*
X150028231Y-125621682D01*
X149983000Y-125849076D01*
X149983000Y-126080924D01*
X150028231Y-126308318D01*
X150116956Y-126522519D01*
X150245764Y-126715294D01*
X150409706Y-126879236D01*
X150602481Y-127008044D01*
X150816682Y-127096769D01*
X151044076Y-127142000D01*
X151275924Y-127142000D01*
X151503318Y-127096769D01*
X151608838Y-127053061D01*
X155803833Y-131248058D01*
X154542282Y-131248058D01*
X149708061Y-126413838D01*
X149751769Y-126308318D01*
X149797000Y-126080924D01*
X149797000Y-125849076D01*
X149751769Y-125621682D01*
X149663044Y-125407481D01*
X149534236Y-125214706D01*
X149370294Y-125050764D01*
X149177519Y-124921956D01*
X148963318Y-124833231D01*
X148735924Y-124788000D01*
X148504076Y-124788000D01*
X148276682Y-124833231D01*
X148062481Y-124921956D01*
X147869706Y-125050764D01*
X147705764Y-125214706D01*
X147576956Y-125407481D01*
X147488231Y-125621682D01*
X147443000Y-125849076D01*
X147443000Y-126080924D01*
X147488231Y-126308318D01*
X147576956Y-126522519D01*
X147705764Y-126715294D01*
X147869706Y-126879236D01*
X148062481Y-127008044D01*
X148276682Y-127096769D01*
X148504076Y-127142000D01*
X148735924Y-127142000D01*
X148963318Y-127096769D01*
X149068838Y-127053061D01*
X153713844Y-131698068D01*
X152452292Y-131698068D01*
X147168061Y-126413838D01*
X147211769Y-126308318D01*
X147257000Y-126080924D01*
X147257000Y-125849076D01*
X147211769Y-125621682D01*
X147123044Y-125407481D01*
X146994236Y-125214706D01*
X146830294Y-125050764D01*
X146637519Y-124921956D01*
X146423318Y-124833231D01*
X146195924Y-124788000D01*
X145964076Y-124788000D01*
X145736682Y-124833231D01*
X145522481Y-124921956D01*
X145329706Y-125050764D01*
X145165764Y-125214706D01*
X145036956Y-125407481D01*
X144948231Y-125621682D01*
X144903000Y-125849076D01*
X144903000Y-126080924D01*
X144948231Y-126308318D01*
X145036956Y-126522519D01*
X145165764Y-126715294D01*
X145329706Y-126879236D01*
X145522481Y-127008044D01*
X145736682Y-127096769D01*
X145964076Y-127142000D01*
X146195924Y-127142000D01*
X146423318Y-127096769D01*
X146528838Y-127053061D01*
X151623855Y-132148079D01*
X142087303Y-132148079D01*
X138952000Y-129012777D01*
X138952000Y-125849076D01*
X139823000Y-125849076D01*
X139823000Y-126080924D01*
X139868231Y-126308318D01*
X139956956Y-126522519D01*
X140085764Y-126715294D01*
X140249706Y-126879236D01*
X140442481Y-127008044D01*
X140656682Y-127096769D01*
X140884076Y-127142000D01*
X141115924Y-127142000D01*
X141343318Y-127096769D01*
X141557519Y-127008044D01*
X141750294Y-126879236D01*
X141914236Y-126715294D01*
X142043044Y-126522519D01*
X142131769Y-126308318D01*
X142177000Y-126080924D01*
X142177000Y-125849076D01*
X142363000Y-125849076D01*
X142363000Y-126080924D01*
X142408231Y-126308318D01*
X142496956Y-126522519D01*
X142625764Y-126715294D01*
X142789706Y-126879236D01*
X142982481Y-127008044D01*
X143196682Y-127096769D01*
X143424076Y-127142000D01*
X143655924Y-127142000D01*
X143883318Y-127096769D01*
X144097519Y-127008044D01*
X144290294Y-126879236D01*
X144454236Y-126715294D01*
X144583044Y-126522519D01*
X144671769Y-126308318D01*
X144717000Y-126080924D01*
X144717000Y-125849076D01*
X144671769Y-125621682D01*
X144583044Y-125407481D01*
X144454236Y-125214706D01*
X144290294Y-125050764D01*
X144097519Y-124921956D01*
X143883318Y-124833231D01*
X143655924Y-124788000D01*
X143424076Y-124788000D01*
X143196682Y-124833231D01*
X142982481Y-124921956D01*
X142789706Y-125050764D01*
X142625764Y-125214706D01*
X142496956Y-125407481D01*
X142408231Y-125621682D01*
X142363000Y-125849076D01*
X142177000Y-125849076D01*
X142131769Y-125621682D01*
X142043044Y-125407481D01*
X141914236Y-125214706D01*
X141750294Y-125050764D01*
X141557519Y-124921956D01*
X141343318Y-124833231D01*
X141115924Y-124788000D01*
X140884076Y-124788000D01*
X140656682Y-124833231D01*
X140442481Y-124921956D01*
X140249706Y-125050764D01*
X140085764Y-125214706D01*
X139956956Y-125407481D01*
X139868231Y-125621682D01*
X139823000Y-125849076D01*
X138952000Y-125849076D01*
X138952000Y-119122204D01*
X138954187Y-119099999D01*
X138945460Y-119011392D01*
X138919614Y-118926190D01*
X138877642Y-118847666D01*
X138835313Y-118796088D01*
X138821159Y-118778841D01*
X138803911Y-118764686D01*
X132252900Y-112213677D01*
X132252900Y-109856890D01*
X135158524Y-109856890D01*
X135203175Y-110004099D01*
X135328359Y-110266920D01*
X135502412Y-110500269D01*
X135718645Y-110695178D01*
X135968748Y-110844157D01*
X136243109Y-110941481D01*
X136473000Y-110820814D01*
X136473000Y-109627000D01*
X136727000Y-109627000D01*
X136727000Y-110820814D01*
X136956891Y-110941481D01*
X137231252Y-110844157D01*
X137481355Y-110695178D01*
X137697588Y-110500269D01*
X137871641Y-110266920D01*
X137971680Y-110056890D01*
X142358524Y-110056890D01*
X142403175Y-110204099D01*
X142528359Y-110466920D01*
X142702412Y-110700269D01*
X142918645Y-110895178D01*
X143168748Y-111044157D01*
X143443109Y-111141481D01*
X143673000Y-111020814D01*
X143673000Y-109827000D01*
X143927000Y-109827000D01*
X143927000Y-111020814D01*
X144156891Y-111141481D01*
X144431252Y-111044157D01*
X144681355Y-110895178D01*
X144897588Y-110700269D01*
X145071641Y-110466920D01*
X145196825Y-110204099D01*
X145241476Y-110056890D01*
X145120155Y-109827000D01*
X143927000Y-109827000D01*
X143673000Y-109827000D01*
X142479845Y-109827000D01*
X142358524Y-110056890D01*
X137971680Y-110056890D01*
X137996825Y-110004099D01*
X138041476Y-109856890D01*
X137920155Y-109627000D01*
X136727000Y-109627000D01*
X136473000Y-109627000D01*
X135279845Y-109627000D01*
X135158524Y-109856890D01*
X132252900Y-109856890D01*
X132252900Y-109143110D01*
X135158524Y-109143110D01*
X135279845Y-109373000D01*
X136473000Y-109373000D01*
X136473000Y-109353000D01*
X136727000Y-109353000D01*
X136727000Y-109373000D01*
X137920155Y-109373000D01*
X137935928Y-109343110D01*
X142358524Y-109343110D01*
X142479845Y-109573000D01*
X143673000Y-109573000D01*
X143673000Y-109553000D01*
X143927000Y-109553000D01*
X143927000Y-109573000D01*
X145120155Y-109573000D01*
X145241476Y-109343110D01*
X145196825Y-109195901D01*
X145071641Y-108933080D01*
X144897588Y-108699731D01*
X144681355Y-108504822D01*
X144431252Y-108355843D01*
X144382592Y-108338582D01*
X144650000Y-108338582D01*
X144714103Y-108332268D01*
X144775743Y-108313570D01*
X144832550Y-108283206D01*
X144882343Y-108242343D01*
X144923206Y-108192550D01*
X144953570Y-108135743D01*
X144972268Y-108074103D01*
X144978582Y-108010000D01*
X144978582Y-106310000D01*
X144972268Y-106245897D01*
X144953570Y-106184257D01*
X144923206Y-106127450D01*
X144882343Y-106077657D01*
X144832550Y-106036794D01*
X144775743Y-106006430D01*
X144714103Y-105987732D01*
X144650000Y-105981418D01*
X142950000Y-105981418D01*
X142885897Y-105987732D01*
X142824257Y-106006430D01*
X142767450Y-106036794D01*
X142717657Y-106077657D01*
X142676794Y-106127450D01*
X142646430Y-106184257D01*
X142627732Y-106245897D01*
X142621418Y-106310000D01*
X142621418Y-108010000D01*
X142627732Y-108074103D01*
X142646430Y-108135743D01*
X142676794Y-108192550D01*
X142717657Y-108242343D01*
X142767450Y-108283206D01*
X142824257Y-108313570D01*
X142885897Y-108332268D01*
X142950000Y-108338582D01*
X143217408Y-108338582D01*
X143168748Y-108355843D01*
X142918645Y-108504822D01*
X142702412Y-108699731D01*
X142528359Y-108933080D01*
X142403175Y-109195901D01*
X142358524Y-109343110D01*
X137935928Y-109343110D01*
X138041476Y-109143110D01*
X137996825Y-108995901D01*
X137871641Y-108733080D01*
X137697588Y-108499731D01*
X137481355Y-108304822D01*
X137231252Y-108155843D01*
X137182592Y-108138582D01*
X137450000Y-108138582D01*
X137514103Y-108132268D01*
X137575743Y-108113570D01*
X137632550Y-108083206D01*
X137682343Y-108042343D01*
X137723206Y-107992550D01*
X137753570Y-107935743D01*
X137772268Y-107874103D01*
X137778582Y-107810000D01*
X137778582Y-106110000D01*
X137772268Y-106045897D01*
X137753570Y-105984257D01*
X137723206Y-105927450D01*
X137682343Y-105877657D01*
X137632550Y-105836794D01*
X137575743Y-105806430D01*
X137514103Y-105787732D01*
X137450000Y-105781418D01*
X135750000Y-105781418D01*
X135685897Y-105787732D01*
X135624257Y-105806430D01*
X135567450Y-105836794D01*
X135517657Y-105877657D01*
X135476794Y-105927450D01*
X135446430Y-105984257D01*
X135427732Y-106045897D01*
X135421418Y-106110000D01*
X135421418Y-107810000D01*
X135427732Y-107874103D01*
X135446430Y-107935743D01*
X135476794Y-107992550D01*
X135517657Y-108042343D01*
X135567450Y-108083206D01*
X135624257Y-108113570D01*
X135685897Y-108132268D01*
X135750000Y-108138582D01*
X136017408Y-108138582D01*
X135968748Y-108155843D01*
X135718645Y-108304822D01*
X135502412Y-108499731D01*
X135328359Y-108733080D01*
X135203175Y-108995901D01*
X135158524Y-109143110D01*
X132252900Y-109143110D01*
X132252900Y-100324076D01*
X135423000Y-100324076D01*
X135423000Y-100555924D01*
X135468231Y-100783318D01*
X135556956Y-100997519D01*
X135685764Y-101190294D01*
X135849706Y-101354236D01*
X136042481Y-101483044D01*
X136256682Y-101571769D01*
X136484076Y-101617000D01*
X136715924Y-101617000D01*
X136943318Y-101571769D01*
X137157519Y-101483044D01*
X137350294Y-101354236D01*
X137514236Y-101190294D01*
X137643044Y-100997519D01*
X137731769Y-100783318D01*
X137777000Y-100555924D01*
X137777000Y-100424076D01*
X142623000Y-100424076D01*
X142623000Y-100655924D01*
X142668231Y-100883318D01*
X142756956Y-101097519D01*
X142885764Y-101290294D01*
X143049706Y-101454236D01*
X143242481Y-101583044D01*
X143456682Y-101671769D01*
X143684076Y-101717000D01*
X143915924Y-101717000D01*
X144143318Y-101671769D01*
X144357519Y-101583044D01*
X144550294Y-101454236D01*
X144714236Y-101290294D01*
X144843044Y-101097519D01*
X144931769Y-100883318D01*
X144977000Y-100655924D01*
X144977000Y-100424076D01*
X144931769Y-100196682D01*
X144843044Y-99982481D01*
X144714236Y-99789706D01*
X144550294Y-99625764D01*
X144357519Y-99496956D01*
X144143318Y-99408231D01*
X143915924Y-99363000D01*
X143684076Y-99363000D01*
X143456682Y-99408231D01*
X143242481Y-99496956D01*
X143049706Y-99625764D01*
X142885764Y-99789706D01*
X142756956Y-99982481D01*
X142668231Y-100196682D01*
X142623000Y-100424076D01*
X137777000Y-100424076D01*
X137777000Y-100324076D01*
X137731769Y-100096682D01*
X137643044Y-99882481D01*
X137514236Y-99689706D01*
X137350294Y-99525764D01*
X137157519Y-99396956D01*
X136943318Y-99308231D01*
X136715924Y-99263000D01*
X136484076Y-99263000D01*
X136256682Y-99308231D01*
X136042481Y-99396956D01*
X135849706Y-99525764D01*
X135685764Y-99689706D01*
X135556956Y-99882481D01*
X135468231Y-100096682D01*
X135423000Y-100324076D01*
X132252900Y-100324076D01*
X132252900Y-97050000D01*
X135421418Y-97050000D01*
X135421418Y-98750000D01*
X135427732Y-98814103D01*
X135446430Y-98875743D01*
X135476794Y-98932550D01*
X135517657Y-98982343D01*
X135567450Y-99023206D01*
X135624257Y-99053570D01*
X135685897Y-99072268D01*
X135750000Y-99078582D01*
X137450000Y-99078582D01*
X137514103Y-99072268D01*
X137575743Y-99053570D01*
X137632550Y-99023206D01*
X137682343Y-98982343D01*
X137723206Y-98932550D01*
X137753570Y-98875743D01*
X137772268Y-98814103D01*
X137778582Y-98750000D01*
X137778582Y-97150000D01*
X142621418Y-97150000D01*
X142621418Y-98850000D01*
X142627732Y-98914103D01*
X142646430Y-98975743D01*
X142676794Y-99032550D01*
X142717657Y-99082343D01*
X142767450Y-99123206D01*
X142824257Y-99153570D01*
X142885897Y-99172268D01*
X142950000Y-99178582D01*
X144650000Y-99178582D01*
X144714103Y-99172268D01*
X144775743Y-99153570D01*
X144832550Y-99123206D01*
X144882343Y-99082343D01*
X144923206Y-99032550D01*
X144953570Y-98975743D01*
X144972268Y-98914103D01*
X144978582Y-98850000D01*
X144978582Y-97150000D01*
X144972268Y-97085897D01*
X144953570Y-97024257D01*
X144923206Y-96967450D01*
X144882343Y-96917657D01*
X144832550Y-96876794D01*
X144775743Y-96846430D01*
X144714103Y-96827732D01*
X144650000Y-96821418D01*
X142950000Y-96821418D01*
X142885897Y-96827732D01*
X142824257Y-96846430D01*
X142767450Y-96876794D01*
X142717657Y-96917657D01*
X142676794Y-96967450D01*
X142646430Y-97024257D01*
X142627732Y-97085897D01*
X142621418Y-97150000D01*
X137778582Y-97150000D01*
X137778582Y-97050000D01*
X137772268Y-96985897D01*
X137753570Y-96924257D01*
X137723206Y-96867450D01*
X137682343Y-96817657D01*
X137632550Y-96776794D01*
X137575743Y-96746430D01*
X137514103Y-96727732D01*
X137450000Y-96721418D01*
X135750000Y-96721418D01*
X135685897Y-96727732D01*
X135624257Y-96746430D01*
X135567450Y-96776794D01*
X135517657Y-96817657D01*
X135476794Y-96867450D01*
X135446430Y-96924257D01*
X135427732Y-96985897D01*
X135421418Y-97050000D01*
X132252900Y-97050000D01*
X132252900Y-94300000D01*
X165771418Y-94300000D01*
X165771418Y-94700000D01*
X165777732Y-94764103D01*
X165796430Y-94825743D01*
X165826794Y-94882550D01*
X165867657Y-94932343D01*
X165917450Y-94973206D01*
X165974257Y-95003570D01*
X166035897Y-95022268D01*
X166100000Y-95028582D01*
X166900000Y-95028582D01*
X166964103Y-95022268D01*
X167025743Y-95003570D01*
X167082550Y-94973206D01*
X167132343Y-94932343D01*
X167173206Y-94882550D01*
X167203570Y-94825743D01*
X167222268Y-94764103D01*
X167228582Y-94700000D01*
X167228582Y-94300000D01*
X167222268Y-94235897D01*
X167203570Y-94174257D01*
X167173206Y-94117450D01*
X167132343Y-94067657D01*
X167082550Y-94026794D01*
X167025743Y-93996430D01*
X166964103Y-93977732D01*
X166900000Y-93971418D01*
X166100000Y-93971418D01*
X166035897Y-93977732D01*
X165974257Y-93996430D01*
X165917450Y-94026794D01*
X165867657Y-94067657D01*
X165826794Y-94117450D01*
X165796430Y-94174257D01*
X165777732Y-94235897D01*
X165771418Y-94300000D01*
X132252900Y-94300000D01*
X132252900Y-78766851D01*
X132358419Y-78723144D01*
X132551194Y-78594336D01*
X132715136Y-78430394D01*
X132843944Y-78237619D01*
X132932669Y-78023418D01*
X132977900Y-77796024D01*
X132977900Y-77564176D01*
X132932669Y-77336782D01*
X132843944Y-77122581D01*
X132715136Y-76929806D01*
X132551194Y-76765864D01*
X132358419Y-76637056D01*
X132144218Y-76548331D01*
X131916824Y-76503100D01*
X131684976Y-76503100D01*
X131457582Y-76548331D01*
X131243381Y-76637056D01*
X131050606Y-76765864D01*
X130886664Y-76929806D01*
X130757856Y-77122581D01*
X130669131Y-77336782D01*
X130623900Y-77564176D01*
X130623900Y-77796024D01*
X130669131Y-78023418D01*
X130757856Y-78237619D01*
X130886664Y-78430394D01*
X131050606Y-78594336D01*
X131243381Y-78723144D01*
X131348901Y-78766852D01*
X131348900Y-112378695D01*
X131346713Y-112400900D01*
X131355440Y-112489507D01*
X131381286Y-112574709D01*
X131423257Y-112653232D01*
X131479741Y-112722059D01*
X131497000Y-112736223D01*
X138048001Y-119287226D01*
X138048000Y-129177795D01*
X138045813Y-129200000D01*
X138054540Y-129288606D01*
X138080386Y-129373809D01*
X138122357Y-129452332D01*
X138178841Y-129521159D01*
X138196100Y-129535323D01*
X141564760Y-132903984D01*
X141578920Y-132921238D01*
X141647746Y-132977722D01*
X141726269Y-133019693D01*
X141811471Y-133045539D01*
X141900079Y-133054266D01*
X141922284Y-133052079D01*
X167350541Y-133052079D01*
X167372746Y-133054266D01*
X167394951Y-133052079D01*
X167461353Y-133045539D01*
X167546556Y-133019693D01*
X167625079Y-132977722D01*
X167693905Y-132921238D01*
X167708069Y-132903979D01*
X172104004Y-128508049D01*
X172121247Y-128493898D01*
X172135398Y-128476655D01*
X172135401Y-128476652D01*
X172177730Y-128425074D01*
X172219702Y-128346550D01*
X172245548Y-128261348D01*
X172254275Y-128172741D01*
X172252088Y-128150536D01*
X172252086Y-120031015D01*
X172254274Y-120008800D01*
X172245547Y-119920192D01*
X172219701Y-119834990D01*
X172177729Y-119756467D01*
X172135400Y-119704889D01*
X172121245Y-119687641D01*
X172103997Y-119673486D01*
X159551999Y-107121489D01*
X159551999Y-105933374D01*
X161685373Y-103800000D01*
X165771418Y-103800000D01*
X165771418Y-104200000D01*
X165777732Y-104264103D01*
X165796430Y-104325743D01*
X165826794Y-104382550D01*
X165867657Y-104432343D01*
X165917450Y-104473206D01*
X165974257Y-104503570D01*
X166035897Y-104522268D01*
X166100000Y-104528582D01*
X166900000Y-104528582D01*
X166964103Y-104522268D01*
X167025743Y-104503570D01*
X167082550Y-104473206D01*
X167132343Y-104432343D01*
X167173206Y-104382550D01*
X167203570Y-104325743D01*
X167222268Y-104264103D01*
X167228582Y-104200000D01*
X167228582Y-103800000D01*
X167222268Y-103735897D01*
X167203570Y-103674257D01*
X167173206Y-103617450D01*
X167132343Y-103567657D01*
X167082550Y-103526794D01*
X167025743Y-103496430D01*
X166964103Y-103477732D01*
X166900000Y-103471418D01*
X166100000Y-103471418D01*
X166035897Y-103477732D01*
X165974257Y-103496430D01*
X165917450Y-103526794D01*
X165867657Y-103567657D01*
X165826794Y-103617450D01*
X165796430Y-103674257D01*
X165777732Y-103735897D01*
X165771418Y-103800000D01*
X161685373Y-103800000D01*
X162033374Y-103452000D01*
X163471320Y-103452000D01*
X163474257Y-103453570D01*
X163535897Y-103472268D01*
X163600000Y-103478582D01*
X164400000Y-103478582D01*
X164464103Y-103472268D01*
X164525743Y-103453570D01*
X164528680Y-103452000D01*
X170223960Y-103452000D01*
X170246165Y-103454187D01*
X170268370Y-103452000D01*
X170334772Y-103445460D01*
X170419975Y-103419614D01*
X170498498Y-103377643D01*
X170567324Y-103321159D01*
X170581488Y-103303900D01*
X176454071Y-97431318D01*
X176471324Y-97417159D01*
X176527808Y-97348333D01*
X176569779Y-97269810D01*
X176576496Y-97247667D01*
X176595625Y-97184608D01*
X176604352Y-97096000D01*
X176602165Y-97073795D01*
X176602165Y-87426202D01*
X176604352Y-87403999D01*
X176597858Y-87338067D01*
X176595625Y-87315393D01*
X176569779Y-87230190D01*
X176527808Y-87151667D01*
X176471324Y-87082841D01*
X176454076Y-87068686D01*
X157781488Y-68396100D01*
X157767324Y-68378841D01*
X157698498Y-68322357D01*
X157619975Y-68280386D01*
X157534772Y-68254540D01*
X157468370Y-68248000D01*
X157446165Y-68245813D01*
X157423960Y-68248000D01*
X130643205Y-68248000D01*
X130621000Y-68245813D01*
X130532392Y-68254540D01*
X130447190Y-68280386D01*
X130368667Y-68322357D01*
X130299841Y-68378841D01*
X130285681Y-68396095D01*
X124629738Y-74052039D01*
X124524218Y-74008331D01*
X124296824Y-73963100D01*
X124064976Y-73963100D01*
X123837582Y-74008331D01*
X123623381Y-74097056D01*
X123430606Y-74225864D01*
X123266664Y-74389806D01*
X123137856Y-74582581D01*
X123069636Y-74747279D01*
X122985057Y-74508848D01*
X122836078Y-74258745D01*
X122641169Y-74042512D01*
X122407820Y-73868459D01*
X122144999Y-73743275D01*
X121997790Y-73698624D01*
X121767900Y-73819945D01*
X121767900Y-75013100D01*
X121787900Y-75013100D01*
X121787900Y-75267100D01*
X121767900Y-75267100D01*
X121767900Y-75287100D01*
X121513900Y-75287100D01*
X121513900Y-75267100D01*
X121493900Y-75267100D01*
X121493900Y-75013100D01*
X121513900Y-75013100D01*
X121513900Y-73819945D01*
X121284010Y-73698624D01*
X121136801Y-73743275D01*
X120873980Y-73868459D01*
X120640631Y-74042512D01*
X120445722Y-74258745D01*
X120296743Y-74508848D01*
X120212164Y-74747279D01*
X120143944Y-74582581D01*
X120015136Y-74389806D01*
X119851194Y-74225864D01*
X119658419Y-74097056D01*
X119444218Y-74008331D01*
X119216824Y-73963100D01*
X118984976Y-73963100D01*
X118957498Y-73968566D01*
X118790226Y-73801294D01*
X118790217Y-73801283D01*
X115000115Y-70011183D01*
X114977343Y-69983435D01*
X114866642Y-69892586D01*
X114740346Y-69825079D01*
X114603306Y-69783509D01*
X114496497Y-69772989D01*
X114460789Y-69769472D01*
X114425081Y-69772989D01*
X107321487Y-69772989D01*
X107285781Y-69769472D01*
X107250076Y-69772989D01*
X107250074Y-69772989D01*
X107143265Y-69783509D01*
X107006225Y-69825079D01*
X106879929Y-69892586D01*
X106769228Y-69983435D01*
X106746461Y-70011177D01*
X104511178Y-72246461D01*
X104483436Y-72269228D01*
X104398720Y-72372456D01*
X104392587Y-72379929D01*
X104325079Y-72506226D01*
X104283509Y-72643265D01*
X104269472Y-72785782D01*
X103152000Y-72785782D01*
X103152000Y-66921062D01*
X103183130Y-66883130D01*
X103221062Y-66852000D01*
X179978938Y-66852000D01*
X180016870Y-66883130D01*
G04 #@! TA.AperFunction,Conductor*
D18*
G36*
X180016870Y-66883130D02*
G01*
X180048001Y-66921063D01*
X180048000Y-134078938D01*
X180016870Y-134116870D01*
X179978938Y-134148000D01*
X103221062Y-134148000D01*
X103183130Y-134116870D01*
X103152000Y-134078938D01*
X103152000Y-125115000D01*
X116961418Y-125115000D01*
X116961418Y-126815000D01*
X116967732Y-126879103D01*
X116986430Y-126940743D01*
X117016794Y-126997550D01*
X117057657Y-127047343D01*
X117107450Y-127088206D01*
X117164257Y-127118570D01*
X117225897Y-127137268D01*
X117290000Y-127143582D01*
X118990000Y-127143582D01*
X119054103Y-127137268D01*
X119115743Y-127118570D01*
X119172550Y-127088206D01*
X119222343Y-127047343D01*
X119263206Y-126997550D01*
X119293570Y-126940743D01*
X119312268Y-126879103D01*
X119318582Y-126815000D01*
X119318582Y-125849076D01*
X119503000Y-125849076D01*
X119503000Y-126080924D01*
X119548231Y-126308318D01*
X119636956Y-126522519D01*
X119765764Y-126715294D01*
X119929706Y-126879236D01*
X120122481Y-127008044D01*
X120336682Y-127096769D01*
X120564076Y-127142000D01*
X120795924Y-127142000D01*
X121023318Y-127096769D01*
X121237519Y-127008044D01*
X121430294Y-126879236D01*
X121594236Y-126715294D01*
X121723044Y-126522519D01*
X121811769Y-126308318D01*
X121857000Y-126080924D01*
X121857000Y-125849076D01*
X122043000Y-125849076D01*
X122043000Y-126080924D01*
X122088231Y-126308318D01*
X122176956Y-126522519D01*
X122305764Y-126715294D01*
X122469706Y-126879236D01*
X122662481Y-127008044D01*
X122876682Y-127096769D01*
X123104076Y-127142000D01*
X123335924Y-127142000D01*
X123563318Y-127096769D01*
X123777519Y-127008044D01*
X123970294Y-126879236D01*
X124134236Y-126715294D01*
X124263044Y-126522519D01*
X124351769Y-126308318D01*
X124397000Y-126080924D01*
X124397000Y-125849076D01*
X124351769Y-125621682D01*
X124263044Y-125407481D01*
X124134236Y-125214706D01*
X123970294Y-125050764D01*
X123777519Y-124921956D01*
X123563318Y-124833231D01*
X123335924Y-124788000D01*
X123104076Y-124788000D01*
X122876682Y-124833231D01*
X122662481Y-124921956D01*
X122469706Y-125050764D01*
X122305764Y-125214706D01*
X122176956Y-125407481D01*
X122088231Y-125621682D01*
X122043000Y-125849076D01*
X121857000Y-125849076D01*
X121811769Y-125621682D01*
X121723044Y-125407481D01*
X121594236Y-125214706D01*
X121430294Y-125050764D01*
X121237519Y-124921956D01*
X121023318Y-124833231D01*
X120795924Y-124788000D01*
X120564076Y-124788000D01*
X120336682Y-124833231D01*
X120122481Y-124921956D01*
X119929706Y-125050764D01*
X119765764Y-125214706D01*
X119636956Y-125407481D01*
X119548231Y-125621682D01*
X119503000Y-125849076D01*
X119318582Y-125849076D01*
X119318582Y-125115000D01*
X119312268Y-125050897D01*
X119293570Y-124989257D01*
X119263206Y-124932450D01*
X119222343Y-124882657D01*
X119172550Y-124841794D01*
X119115743Y-124811430D01*
X119054103Y-124792732D01*
X118990000Y-124786418D01*
X117290000Y-124786418D01*
X117225897Y-124792732D01*
X117164257Y-124811430D01*
X117107450Y-124841794D01*
X117057657Y-124882657D01*
X117016794Y-124932450D01*
X116986430Y-124989257D01*
X116967732Y-125050897D01*
X116961418Y-125115000D01*
X103152000Y-125115000D01*
X103152000Y-72785782D01*
X104269472Y-72785782D01*
X104272990Y-72821500D01*
X104272989Y-101464281D01*
X104269472Y-101499989D01*
X104283509Y-101642506D01*
X104301308Y-101701182D01*
X104325079Y-101779545D01*
X104392586Y-101905841D01*
X104483435Y-102016542D01*
X104511179Y-102039311D01*
X109680679Y-107208812D01*
X109703446Y-107236554D01*
X109814147Y-107327403D01*
X109940443Y-107394910D01*
X110077483Y-107436480D01*
X110184292Y-107447000D01*
X110184294Y-107447000D01*
X110219999Y-107450517D01*
X110255705Y-107447000D01*
X114602671Y-107447000D01*
X114626426Y-107491443D01*
X114698380Y-107579120D01*
X114786057Y-107651074D01*
X114886086Y-107704540D01*
X114994623Y-107737465D01*
X115107499Y-107748582D01*
X115632501Y-107748582D01*
X115745377Y-107737465D01*
X115853914Y-107704540D01*
X115953943Y-107651074D01*
X116041620Y-107579120D01*
X116113574Y-107491443D01*
X116167040Y-107391414D01*
X116199965Y-107282877D01*
X116211082Y-107170001D01*
X116211082Y-106269999D01*
X116199965Y-106157123D01*
X116167040Y-106048586D01*
X116113574Y-105948557D01*
X116041620Y-105860880D01*
X115953943Y-105788926D01*
X115853914Y-105735460D01*
X115745377Y-105702535D01*
X115632501Y-105691418D01*
X115107499Y-105691418D01*
X114994623Y-105702535D01*
X114886086Y-105735460D01*
X114786057Y-105788926D01*
X114698380Y-105860880D01*
X114626426Y-105948557D01*
X114602671Y-105993000D01*
X110521133Y-105993000D01*
X105726989Y-101198857D01*
X105726989Y-97255121D01*
X111150679Y-102678812D01*
X111173446Y-102706554D01*
X111284147Y-102797403D01*
X111410443Y-102864910D01*
X111515587Y-102896805D01*
X111547482Y-102906480D01*
X111689999Y-102920517D01*
X111725707Y-102917000D01*
X114600171Y-102917000D01*
X114623926Y-102961443D01*
X114695880Y-103049120D01*
X114783557Y-103121074D01*
X114883586Y-103174540D01*
X114992123Y-103207465D01*
X115104999Y-103218582D01*
X115630001Y-103218582D01*
X115742877Y-103207465D01*
X115851414Y-103174540D01*
X115951443Y-103121074D01*
X116039120Y-103049120D01*
X116111074Y-102961443D01*
X116164540Y-102861414D01*
X116197465Y-102752877D01*
X116208582Y-102640001D01*
X116208582Y-101739999D01*
X116197465Y-101627123D01*
X116164540Y-101518586D01*
X116111074Y-101418557D01*
X116039120Y-101330880D01*
X115951443Y-101258926D01*
X115851414Y-101205460D01*
X115742877Y-101172535D01*
X115630001Y-101161418D01*
X115104999Y-101161418D01*
X114992123Y-101172535D01*
X114883586Y-101205460D01*
X114783557Y-101258926D01*
X114695880Y-101330880D01*
X114623926Y-101418557D01*
X114600171Y-101463000D01*
X111991133Y-101463000D01*
X106727000Y-96198868D01*
X106727000Y-84500000D01*
X110169483Y-84500000D01*
X110173001Y-84535718D01*
X110173000Y-94864292D01*
X110169483Y-94900000D01*
X110183520Y-95042517D01*
X110211333Y-95134206D01*
X110225090Y-95179556D01*
X110292597Y-95305852D01*
X110383446Y-95416553D01*
X110411189Y-95439321D01*
X113410679Y-98438812D01*
X113433446Y-98466554D01*
X113544147Y-98557403D01*
X113670443Y-98624910D01*
X113807483Y-98666480D01*
X113914292Y-98677000D01*
X113914294Y-98677000D01*
X113949999Y-98680517D01*
X113985705Y-98677000D01*
X114597671Y-98677000D01*
X114621426Y-98721443D01*
X114693380Y-98809120D01*
X114781057Y-98881074D01*
X114881086Y-98934540D01*
X114989623Y-98967465D01*
X115102499Y-98978582D01*
X115627501Y-98978582D01*
X115740377Y-98967465D01*
X115848914Y-98934540D01*
X115948943Y-98881074D01*
X116036620Y-98809120D01*
X116108574Y-98721443D01*
X116162040Y-98621414D01*
X116194965Y-98512877D01*
X116206082Y-98400001D01*
X116206082Y-97499999D01*
X116348918Y-97499999D01*
X116348918Y-98400001D01*
X116360035Y-98512877D01*
X116392960Y-98621414D01*
X116446426Y-98721443D01*
X116463000Y-98741639D01*
X116463001Y-101401407D01*
X116448926Y-101418557D01*
X116395460Y-101518586D01*
X116362535Y-101627123D01*
X116351418Y-101739999D01*
X116351418Y-102640001D01*
X116362535Y-102752877D01*
X116395460Y-102861414D01*
X116448926Y-102961443D01*
X116465500Y-102981639D01*
X116465501Y-105931407D01*
X116451426Y-105948557D01*
X116397960Y-106048586D01*
X116365035Y-106157123D01*
X116353918Y-106269999D01*
X116353918Y-107170001D01*
X116365035Y-107282877D01*
X116397960Y-107391414D01*
X116451426Y-107491443D01*
X116468000Y-107511639D01*
X116468001Y-111659282D01*
X116464483Y-111695000D01*
X116478520Y-111837517D01*
X116520090Y-111974556D01*
X116546122Y-112023258D01*
X116587598Y-112100853D01*
X116678447Y-112211554D01*
X116706189Y-112234321D01*
X125033000Y-120561133D01*
X125033001Y-125035199D01*
X125009706Y-125050764D01*
X124845764Y-125214706D01*
X124716956Y-125407481D01*
X124628231Y-125621682D01*
X124583000Y-125849076D01*
X124583000Y-126080924D01*
X124628231Y-126308318D01*
X124716956Y-126522519D01*
X124845764Y-126715294D01*
X125009706Y-126879236D01*
X125202481Y-127008044D01*
X125416682Y-127096769D01*
X125644076Y-127142000D01*
X125875924Y-127142000D01*
X126103318Y-127096769D01*
X126317519Y-127008044D01*
X126510294Y-126879236D01*
X126674236Y-126715294D01*
X126803044Y-126522519D01*
X126891769Y-126308318D01*
X126937000Y-126080924D01*
X126937000Y-125849076D01*
X127123000Y-125849076D01*
X127123000Y-126080924D01*
X127168231Y-126308318D01*
X127256956Y-126522519D01*
X127385764Y-126715294D01*
X127549706Y-126879236D01*
X127742481Y-127008044D01*
X127956682Y-127096769D01*
X128184076Y-127142000D01*
X128415924Y-127142000D01*
X128643318Y-127096769D01*
X128857519Y-127008044D01*
X129050294Y-126879236D01*
X129214236Y-126715294D01*
X129343044Y-126522519D01*
X129411264Y-126357821D01*
X129495843Y-126596252D01*
X129644822Y-126846355D01*
X129839731Y-127062588D01*
X130073080Y-127236641D01*
X130335901Y-127361825D01*
X130483110Y-127406476D01*
X130713000Y-127285155D01*
X130713000Y-126092000D01*
X130693000Y-126092000D01*
X130693000Y-125838000D01*
X130713000Y-125838000D01*
X130713000Y-124644845D01*
X130967000Y-124644845D01*
X130967000Y-125838000D01*
X130987000Y-125838000D01*
X130987000Y-126092000D01*
X130967000Y-126092000D01*
X130967000Y-127285155D01*
X131196890Y-127406476D01*
X131344099Y-127361825D01*
X131606920Y-127236641D01*
X131840269Y-127062588D01*
X132035178Y-126846355D01*
X132184157Y-126596252D01*
X132268736Y-126357821D01*
X132336956Y-126522519D01*
X132465764Y-126715294D01*
X132629706Y-126879236D01*
X132822481Y-127008044D01*
X133036682Y-127096769D01*
X133264076Y-127142000D01*
X133495924Y-127142000D01*
X133723318Y-127096769D01*
X133937519Y-127008044D01*
X134130294Y-126879236D01*
X134294236Y-126715294D01*
X134423044Y-126522519D01*
X134511769Y-126308318D01*
X134557000Y-126080924D01*
X134557000Y-125849076D01*
X134743000Y-125849076D01*
X134743000Y-126080924D01*
X134788231Y-126308318D01*
X134876956Y-126522519D01*
X135005764Y-126715294D01*
X135169706Y-126879236D01*
X135362481Y-127008044D01*
X135576682Y-127096769D01*
X135804076Y-127142000D01*
X136035924Y-127142000D01*
X136263318Y-127096769D01*
X136477519Y-127008044D01*
X136670294Y-126879236D01*
X136834236Y-126715294D01*
X136963044Y-126522519D01*
X137051769Y-126308318D01*
X137097000Y-126080924D01*
X137097000Y-125849076D01*
X137051769Y-125621682D01*
X136963044Y-125407481D01*
X136834236Y-125214706D01*
X136670294Y-125050764D01*
X136477519Y-124921956D01*
X136263318Y-124833231D01*
X136035924Y-124788000D01*
X135804076Y-124788000D01*
X135576682Y-124833231D01*
X135362481Y-124921956D01*
X135169706Y-125050764D01*
X135005764Y-125214706D01*
X134876956Y-125407481D01*
X134788231Y-125621682D01*
X134743000Y-125849076D01*
X134557000Y-125849076D01*
X134511769Y-125621682D01*
X134423044Y-125407481D01*
X134294236Y-125214706D01*
X134130294Y-125050764D01*
X133937519Y-124921956D01*
X133723318Y-124833231D01*
X133495924Y-124788000D01*
X133264076Y-124788000D01*
X133036682Y-124833231D01*
X132822481Y-124921956D01*
X132629706Y-125050764D01*
X132465764Y-125214706D01*
X132336956Y-125407481D01*
X132268736Y-125572179D01*
X132184157Y-125333748D01*
X132035178Y-125083645D01*
X131840269Y-124867412D01*
X131606920Y-124693359D01*
X131344099Y-124568175D01*
X131196890Y-124523524D01*
X130967000Y-124644845D01*
X130713000Y-124644845D01*
X130483110Y-124523524D01*
X130335901Y-124568175D01*
X130073080Y-124693359D01*
X129839731Y-124867412D01*
X129644822Y-125083645D01*
X129495843Y-125333748D01*
X129411264Y-125572179D01*
X129343044Y-125407481D01*
X129214236Y-125214706D01*
X129050294Y-125050764D01*
X128857519Y-124921956D01*
X128643318Y-124833231D01*
X128415924Y-124788000D01*
X128184076Y-124788000D01*
X127956682Y-124833231D01*
X127742481Y-124921956D01*
X127549706Y-125050764D01*
X127385764Y-125214706D01*
X127256956Y-125407481D01*
X127168231Y-125621682D01*
X127123000Y-125849076D01*
X126937000Y-125849076D01*
X126891769Y-125621682D01*
X126803044Y-125407481D01*
X126674236Y-125214706D01*
X126510294Y-125050764D01*
X126487000Y-125035199D01*
X126487000Y-120295707D01*
X126490517Y-120259999D01*
X126476480Y-120117482D01*
X126447331Y-120021391D01*
X126434910Y-119980443D01*
X126367403Y-119854147D01*
X126276553Y-119743446D01*
X126248816Y-119720683D01*
X117922000Y-111393868D01*
X117922000Y-107511639D01*
X117938574Y-107491443D01*
X117992040Y-107391414D01*
X118024965Y-107282877D01*
X118036082Y-107170001D01*
X118036082Y-106269999D01*
X118024965Y-106157123D01*
X117992040Y-106048586D01*
X117938574Y-105948557D01*
X117919500Y-105925315D01*
X117919500Y-102981639D01*
X117936074Y-102961443D01*
X117989540Y-102861414D01*
X118022465Y-102752877D01*
X118033582Y-102640001D01*
X118033582Y-101739999D01*
X118022465Y-101627123D01*
X117989540Y-101518586D01*
X117936074Y-101418557D01*
X117917000Y-101395315D01*
X117917000Y-98741639D01*
X117933574Y-98721443D01*
X117987040Y-98621414D01*
X118019965Y-98512877D01*
X118031082Y-98400001D01*
X118031082Y-97499999D01*
X118019965Y-97387123D01*
X117987040Y-97278586D01*
X117933574Y-97178557D01*
X117861620Y-97090880D01*
X117773943Y-97018926D01*
X117673914Y-96965460D01*
X117565377Y-96932535D01*
X117452501Y-96921418D01*
X116927499Y-96921418D01*
X116814623Y-96932535D01*
X116706086Y-96965460D01*
X116606057Y-97018926D01*
X116518380Y-97090880D01*
X116446426Y-97178557D01*
X116392960Y-97278586D01*
X116360035Y-97387123D01*
X116348918Y-97499999D01*
X116206082Y-97499999D01*
X116194965Y-97387123D01*
X116162040Y-97278586D01*
X116108574Y-97178557D01*
X116036620Y-97090880D01*
X115948943Y-97018926D01*
X115848914Y-96965460D01*
X115740377Y-96932535D01*
X115627501Y-96921418D01*
X115102499Y-96921418D01*
X114989623Y-96932535D01*
X114881086Y-96965460D01*
X114781057Y-97018926D01*
X114693380Y-97090880D01*
X114621426Y-97178557D01*
X114597671Y-97223000D01*
X114251133Y-97223000D01*
X111627000Y-94598868D01*
X111627000Y-84801132D01*
X114401133Y-82027000D01*
X125605292Y-82027000D01*
X125641000Y-82030517D01*
X125783517Y-82016480D01*
X125837848Y-81999999D01*
X125920557Y-81974910D01*
X126046853Y-81907403D01*
X126157554Y-81816554D01*
X126180326Y-81788806D01*
X129117499Y-78851635D01*
X129144976Y-78857100D01*
X129376824Y-78857100D01*
X129604218Y-78811869D01*
X129818419Y-78723144D01*
X130011194Y-78594336D01*
X130175136Y-78430394D01*
X130303944Y-78237619D01*
X130392669Y-78023418D01*
X130437900Y-77796024D01*
X130437900Y-77564176D01*
X130392669Y-77336782D01*
X130303944Y-77122581D01*
X130175136Y-76929806D01*
X130011194Y-76765864D01*
X129818419Y-76637056D01*
X129604218Y-76548331D01*
X129376824Y-76503100D01*
X129144976Y-76503100D01*
X128917582Y-76548331D01*
X128703381Y-76637056D01*
X128510606Y-76765864D01*
X128346664Y-76929806D01*
X128217856Y-77122581D01*
X128129131Y-77336782D01*
X128083900Y-77564176D01*
X128083900Y-77796024D01*
X128089365Y-77823501D01*
X127826662Y-78086205D01*
X127852669Y-78023418D01*
X127897900Y-77796024D01*
X127897900Y-77564176D01*
X127852669Y-77336782D01*
X127763944Y-77122581D01*
X127635136Y-76929806D01*
X127471194Y-76765864D01*
X127278419Y-76637056D01*
X127064218Y-76548331D01*
X126836824Y-76503100D01*
X126604976Y-76503100D01*
X126377582Y-76548331D01*
X126163381Y-76637056D01*
X125970606Y-76765864D01*
X125806664Y-76929806D01*
X125677856Y-77122581D01*
X125589131Y-77336782D01*
X125543900Y-77564176D01*
X125543900Y-77796024D01*
X125589131Y-78023418D01*
X125677856Y-78237619D01*
X125806664Y-78430394D01*
X125970606Y-78594336D01*
X126163381Y-78723144D01*
X126377582Y-78811869D01*
X126604976Y-78857100D01*
X126836824Y-78857100D01*
X127064218Y-78811869D01*
X127127005Y-78785862D01*
X125339868Y-80573000D01*
X114135705Y-80573000D01*
X114099999Y-80569483D01*
X114064294Y-80573000D01*
X114064292Y-80573000D01*
X113957483Y-80583520D01*
X113820443Y-80625090D01*
X113694147Y-80692597D01*
X113583446Y-80783446D01*
X113560679Y-80811188D01*
X110411189Y-83960679D01*
X110383447Y-83983446D01*
X110292598Y-84094147D01*
X110225090Y-84220444D01*
X110183520Y-84357483D01*
X110169483Y-84500000D01*
X106727000Y-84500000D01*
X106727000Y-77564176D01*
X107763900Y-77564176D01*
X107763900Y-77796024D01*
X107809131Y-78023418D01*
X107897856Y-78237619D01*
X108026664Y-78430394D01*
X108190606Y-78594336D01*
X108383381Y-78723144D01*
X108597582Y-78811869D01*
X108824976Y-78857100D01*
X109056824Y-78857100D01*
X109284218Y-78811869D01*
X109498419Y-78723144D01*
X109691194Y-78594336D01*
X109855136Y-78430394D01*
X109983944Y-78237619D01*
X110072669Y-78023418D01*
X110117900Y-77796024D01*
X110117900Y-77564176D01*
X110303900Y-77564176D01*
X110303900Y-77796024D01*
X110349131Y-78023418D01*
X110437856Y-78237619D01*
X110566664Y-78430394D01*
X110730606Y-78594336D01*
X110923381Y-78723144D01*
X111137582Y-78811869D01*
X111364976Y-78857100D01*
X111596824Y-78857100D01*
X111824218Y-78811869D01*
X112038419Y-78723144D01*
X112231194Y-78594336D01*
X112395136Y-78430394D01*
X112523944Y-78237619D01*
X112612669Y-78023418D01*
X112657900Y-77796024D01*
X112657900Y-77564176D01*
X112843900Y-77564176D01*
X112843900Y-77796024D01*
X112889131Y-78023418D01*
X112977856Y-78237619D01*
X113106664Y-78430394D01*
X113270606Y-78594336D01*
X113463381Y-78723144D01*
X113677582Y-78811869D01*
X113904976Y-78857100D01*
X114136824Y-78857100D01*
X114364218Y-78811869D01*
X114578419Y-78723144D01*
X114771194Y-78594336D01*
X114935136Y-78430394D01*
X115063944Y-78237619D01*
X115152669Y-78023418D01*
X115197900Y-77796024D01*
X115197900Y-77564176D01*
X115383900Y-77564176D01*
X115383900Y-77796024D01*
X115429131Y-78023418D01*
X115517856Y-78237619D01*
X115646664Y-78430394D01*
X115810606Y-78594336D01*
X116003381Y-78723144D01*
X116217582Y-78811869D01*
X116444976Y-78857100D01*
X116676824Y-78857100D01*
X116904218Y-78811869D01*
X117118419Y-78723144D01*
X117311194Y-78594336D01*
X117475136Y-78430394D01*
X117603944Y-78237619D01*
X117692669Y-78023418D01*
X117737900Y-77796024D01*
X117737900Y-77564176D01*
X117923900Y-77564176D01*
X117923900Y-77796024D01*
X117969131Y-78023418D01*
X118057856Y-78237619D01*
X118186664Y-78430394D01*
X118350606Y-78594336D01*
X118543381Y-78723144D01*
X118757582Y-78811869D01*
X118984976Y-78857100D01*
X119216824Y-78857100D01*
X119444218Y-78811869D01*
X119658419Y-78723144D01*
X119851194Y-78594336D01*
X120015136Y-78430394D01*
X120143944Y-78237619D01*
X120232669Y-78023418D01*
X120277900Y-77796024D01*
X120277900Y-77564176D01*
X120232669Y-77336782D01*
X120143944Y-77122581D01*
X120015136Y-76929806D01*
X119851194Y-76765864D01*
X119658419Y-76637056D01*
X119444218Y-76548331D01*
X119216824Y-76503100D01*
X118984976Y-76503100D01*
X118757582Y-76548331D01*
X118543381Y-76637056D01*
X118350606Y-76765864D01*
X118186664Y-76929806D01*
X118057856Y-77122581D01*
X117969131Y-77336782D01*
X117923900Y-77564176D01*
X117737900Y-77564176D01*
X117692669Y-77336782D01*
X117603944Y-77122581D01*
X117475136Y-76929806D01*
X117311194Y-76765864D01*
X117118419Y-76637056D01*
X116904218Y-76548331D01*
X116676824Y-76503100D01*
X116444976Y-76503100D01*
X116217582Y-76548331D01*
X116003381Y-76637056D01*
X115810606Y-76765864D01*
X115646664Y-76929806D01*
X115517856Y-77122581D01*
X115429131Y-77336782D01*
X115383900Y-77564176D01*
X115197900Y-77564176D01*
X115152669Y-77336782D01*
X115063944Y-77122581D01*
X114935136Y-76929806D01*
X114771194Y-76765864D01*
X114578419Y-76637056D01*
X114364218Y-76548331D01*
X114136824Y-76503100D01*
X113904976Y-76503100D01*
X113677582Y-76548331D01*
X113463381Y-76637056D01*
X113270606Y-76765864D01*
X113106664Y-76929806D01*
X112977856Y-77122581D01*
X112889131Y-77336782D01*
X112843900Y-77564176D01*
X112657900Y-77564176D01*
X112612669Y-77336782D01*
X112523944Y-77122581D01*
X112395136Y-76929806D01*
X112231194Y-76765864D01*
X112038419Y-76637056D01*
X111824218Y-76548331D01*
X111596824Y-76503100D01*
X111364976Y-76503100D01*
X111137582Y-76548331D01*
X110923381Y-76637056D01*
X110730606Y-76765864D01*
X110566664Y-76929806D01*
X110437856Y-77122581D01*
X110349131Y-77336782D01*
X110303900Y-77564176D01*
X110117900Y-77564176D01*
X110072669Y-77336782D01*
X109983944Y-77122581D01*
X109855136Y-76929806D01*
X109691194Y-76765864D01*
X109498419Y-76637056D01*
X109284218Y-76548331D01*
X109056824Y-76503100D01*
X108824976Y-76503100D01*
X108597582Y-76548331D01*
X108383381Y-76637056D01*
X108190606Y-76765864D01*
X108026664Y-76929806D01*
X107897856Y-77122581D01*
X107809131Y-77336782D01*
X107763900Y-77564176D01*
X106727000Y-77564176D01*
X106727000Y-74290100D01*
X107762318Y-74290100D01*
X107762318Y-75990100D01*
X107768632Y-76054203D01*
X107787330Y-76115843D01*
X107817694Y-76172650D01*
X107858557Y-76222443D01*
X107908350Y-76263306D01*
X107965157Y-76293670D01*
X108026797Y-76312368D01*
X108090900Y-76318682D01*
X109790900Y-76318682D01*
X109855003Y-76312368D01*
X109916643Y-76293670D01*
X109973450Y-76263306D01*
X110023243Y-76222443D01*
X110064106Y-76172650D01*
X110094470Y-76115843D01*
X110113168Y-76054203D01*
X110119482Y-75990100D01*
X110119482Y-74290100D01*
X110113168Y-74225997D01*
X110094470Y-74164357D01*
X110064106Y-74107550D01*
X110023243Y-74057757D01*
X109973450Y-74016894D01*
X109916643Y-73986530D01*
X109855003Y-73967832D01*
X109790900Y-73961518D01*
X108090900Y-73961518D01*
X108026797Y-73967832D01*
X107965157Y-73986530D01*
X107908350Y-74016894D01*
X107858557Y-74057757D01*
X107817694Y-74107550D01*
X107787330Y-74164357D01*
X107768632Y-74225997D01*
X107762318Y-74290100D01*
X106727000Y-74290100D01*
X106727000Y-73501132D01*
X108001133Y-72227000D01*
X110079668Y-72227000D01*
X111887005Y-74034338D01*
X111824218Y-74008331D01*
X111596824Y-73963100D01*
X111364976Y-73963100D01*
X111137582Y-74008331D01*
X110923381Y-74097056D01*
X110730606Y-74225864D01*
X110566664Y-74389806D01*
X110437856Y-74582581D01*
X110349131Y-74796782D01*
X110303900Y-75024176D01*
X110303900Y-75256024D01*
X110349131Y-75483418D01*
X110437856Y-75697619D01*
X110566664Y-75890394D01*
X110730606Y-76054336D01*
X110923381Y-76183144D01*
X111137582Y-76271869D01*
X111364976Y-76317100D01*
X111596824Y-76317100D01*
X111824218Y-76271869D01*
X112038419Y-76183144D01*
X112231194Y-76054336D01*
X112395136Y-75890394D01*
X112523944Y-75697619D01*
X112612669Y-75483418D01*
X112657900Y-75256024D01*
X112657900Y-75024176D01*
X112612669Y-74796782D01*
X112586662Y-74733995D01*
X112849365Y-74996699D01*
X112843900Y-75024176D01*
X112843900Y-75256024D01*
X112889131Y-75483418D01*
X112977856Y-75697619D01*
X113106664Y-75890394D01*
X113270606Y-76054336D01*
X113463381Y-76183144D01*
X113677582Y-76271869D01*
X113904976Y-76317100D01*
X114136824Y-76317100D01*
X114364218Y-76271869D01*
X114578419Y-76183144D01*
X114771194Y-76054336D01*
X114935136Y-75890394D01*
X115063944Y-75697619D01*
X115152669Y-75483418D01*
X115197900Y-75256024D01*
X115197900Y-75024176D01*
X115152669Y-74796782D01*
X115063944Y-74582581D01*
X114935136Y-74389806D01*
X114771194Y-74225864D01*
X114578419Y-74097056D01*
X114364218Y-74008331D01*
X114136824Y-73963100D01*
X113904976Y-73963100D01*
X113877499Y-73968565D01*
X111135921Y-71226989D01*
X114159657Y-71226989D01*
X116967004Y-74034338D01*
X116904218Y-74008331D01*
X116676824Y-73963100D01*
X116444976Y-73963100D01*
X116217582Y-74008331D01*
X116003381Y-74097056D01*
X115810606Y-74225864D01*
X115646664Y-74389806D01*
X115517856Y-74582581D01*
X115429131Y-74796782D01*
X115383900Y-75024176D01*
X115383900Y-75256024D01*
X115429131Y-75483418D01*
X115517856Y-75697619D01*
X115646664Y-75890394D01*
X115810606Y-76054336D01*
X116003381Y-76183144D01*
X116217582Y-76271869D01*
X116444976Y-76317100D01*
X116676824Y-76317100D01*
X116904218Y-76271869D01*
X117118419Y-76183144D01*
X117311194Y-76054336D01*
X117475136Y-75890394D01*
X117603944Y-75697619D01*
X117692669Y-75483418D01*
X117737900Y-75256024D01*
X117737900Y-75024176D01*
X117692669Y-74796782D01*
X117666662Y-74733996D01*
X117762083Y-74829417D01*
X117762094Y-74829426D01*
X117929366Y-74996698D01*
X117923900Y-75024176D01*
X117923900Y-75256024D01*
X117969131Y-75483418D01*
X118057856Y-75697619D01*
X118186664Y-75890394D01*
X118350606Y-76054336D01*
X118543381Y-76183144D01*
X118757582Y-76271869D01*
X118984976Y-76317100D01*
X119216824Y-76317100D01*
X119444218Y-76271869D01*
X119658419Y-76183144D01*
X119851194Y-76054336D01*
X120015136Y-75890394D01*
X120143944Y-75697619D01*
X120212164Y-75532921D01*
X120296743Y-75771352D01*
X120445722Y-76021455D01*
X120640631Y-76237688D01*
X120873980Y-76411741D01*
X121136801Y-76536925D01*
X121245512Y-76569899D01*
X121083381Y-76637056D01*
X120890606Y-76765864D01*
X120726664Y-76929806D01*
X120597856Y-77122581D01*
X120509131Y-77336782D01*
X120463900Y-77564176D01*
X120463900Y-77796024D01*
X120509131Y-78023418D01*
X120597856Y-78237619D01*
X120726664Y-78430394D01*
X120890606Y-78594336D01*
X121083381Y-78723144D01*
X121297582Y-78811869D01*
X121524976Y-78857100D01*
X121756824Y-78857100D01*
X121984218Y-78811869D01*
X122198419Y-78723144D01*
X122391194Y-78594336D01*
X122555136Y-78430394D01*
X122683944Y-78237619D01*
X122772669Y-78023418D01*
X122817900Y-77796024D01*
X122817900Y-77564176D01*
X123003900Y-77564176D01*
X123003900Y-77796024D01*
X123049131Y-78023418D01*
X123137856Y-78237619D01*
X123266664Y-78430394D01*
X123430606Y-78594336D01*
X123623381Y-78723144D01*
X123837582Y-78811869D01*
X124064976Y-78857100D01*
X124296824Y-78857100D01*
X124524218Y-78811869D01*
X124738419Y-78723144D01*
X124931194Y-78594336D01*
X125095136Y-78430394D01*
X125223944Y-78237619D01*
X125312669Y-78023418D01*
X125357900Y-77796024D01*
X125357900Y-77564176D01*
X125312669Y-77336782D01*
X125223944Y-77122581D01*
X125095136Y-76929806D01*
X124931194Y-76765864D01*
X124738419Y-76637056D01*
X124524218Y-76548331D01*
X124296824Y-76503100D01*
X124064976Y-76503100D01*
X123837582Y-76548331D01*
X123623381Y-76637056D01*
X123430606Y-76765864D01*
X123266664Y-76929806D01*
X123137856Y-77122581D01*
X123049131Y-77336782D01*
X123003900Y-77564176D01*
X122817900Y-77564176D01*
X122772669Y-77336782D01*
X122683944Y-77122581D01*
X122555136Y-76929806D01*
X122391194Y-76765864D01*
X122198419Y-76637056D01*
X122036288Y-76569899D01*
X122144999Y-76536925D01*
X122407820Y-76411741D01*
X122641169Y-76237688D01*
X122836078Y-76021455D01*
X122985057Y-75771352D01*
X123069636Y-75532921D01*
X123137856Y-75697619D01*
X123266664Y-75890394D01*
X123430606Y-76054336D01*
X123623381Y-76183144D01*
X123837582Y-76271869D01*
X124064976Y-76317100D01*
X124296824Y-76317100D01*
X124524218Y-76271869D01*
X124738419Y-76183144D01*
X124931194Y-76054336D01*
X125095136Y-75890394D01*
X125223944Y-75697619D01*
X125312669Y-75483418D01*
X125357900Y-75256024D01*
X125357900Y-75024176D01*
X125312669Y-74796782D01*
X125268961Y-74691262D01*
X130808224Y-69152000D01*
X132069775Y-69152000D01*
X127169738Y-74052039D01*
X127064218Y-74008331D01*
X126836824Y-73963100D01*
X126604976Y-73963100D01*
X126377582Y-74008331D01*
X126163381Y-74097056D01*
X125970606Y-74225864D01*
X125806664Y-74389806D01*
X125677856Y-74582581D01*
X125589131Y-74796782D01*
X125543900Y-75024176D01*
X125543900Y-75256024D01*
X125589131Y-75483418D01*
X125677856Y-75697619D01*
X125806664Y-75890394D01*
X125970606Y-76054336D01*
X126163381Y-76183144D01*
X126377582Y-76271869D01*
X126604976Y-76317100D01*
X126836824Y-76317100D01*
X127064218Y-76271869D01*
X127278419Y-76183144D01*
X127471194Y-76054336D01*
X127635136Y-75890394D01*
X127763944Y-75697619D01*
X127852669Y-75483418D01*
X127897900Y-75256024D01*
X127897900Y-75024176D01*
X127852669Y-74796782D01*
X127808961Y-74691262D01*
X132898214Y-69602011D01*
X134159764Y-69602011D01*
X129709738Y-74052039D01*
X129604218Y-74008331D01*
X129376824Y-73963100D01*
X129144976Y-73963100D01*
X128917582Y-74008331D01*
X128703381Y-74097056D01*
X128510606Y-74225864D01*
X128346664Y-74389806D01*
X128217856Y-74582581D01*
X128129131Y-74796782D01*
X128083900Y-75024176D01*
X128083900Y-75256024D01*
X128129131Y-75483418D01*
X128217856Y-75697619D01*
X128346664Y-75890394D01*
X128510606Y-76054336D01*
X128703381Y-76183144D01*
X128917582Y-76271869D01*
X129144976Y-76317100D01*
X129376824Y-76317100D01*
X129604218Y-76271869D01*
X129818419Y-76183144D01*
X130011194Y-76054336D01*
X130175136Y-75890394D01*
X130303944Y-75697619D01*
X130392669Y-75483418D01*
X130437900Y-75256024D01*
X130437900Y-75024176D01*
X130392669Y-74796782D01*
X130348961Y-74691262D01*
X134988203Y-70052022D01*
X136249754Y-70052022D01*
X132249738Y-74052039D01*
X132144218Y-74008331D01*
X131916824Y-73963100D01*
X131684976Y-73963100D01*
X131457582Y-74008331D01*
X131243381Y-74097056D01*
X131050606Y-74225864D01*
X130886664Y-74389806D01*
X130757856Y-74582581D01*
X130669131Y-74796782D01*
X130623900Y-75024176D01*
X130623900Y-75256024D01*
X130669131Y-75483418D01*
X130757856Y-75697619D01*
X130886664Y-75890394D01*
X131050606Y-76054336D01*
X131243381Y-76183144D01*
X131457582Y-76271869D01*
X131684976Y-76317100D01*
X131916824Y-76317100D01*
X132144218Y-76271869D01*
X132358419Y-76183144D01*
X132551194Y-76054336D01*
X132715136Y-75890394D01*
X132843944Y-75697619D01*
X132932669Y-75483418D01*
X132977900Y-75256024D01*
X132977900Y-75024176D01*
X132932669Y-74796782D01*
X132888961Y-74691262D01*
X137078191Y-70502033D01*
X139936143Y-70502033D01*
X136459359Y-73978818D01*
X135070000Y-73978818D01*
X135005897Y-73985132D01*
X134944257Y-74003830D01*
X134887450Y-74034194D01*
X134837657Y-74075057D01*
X134796794Y-74124850D01*
X134766430Y-74181657D01*
X134747732Y-74243297D01*
X134741418Y-74307400D01*
X134741418Y-76007400D01*
X134747732Y-76071503D01*
X134766430Y-76133143D01*
X134796794Y-76189950D01*
X134837657Y-76239743D01*
X134887450Y-76280606D01*
X134944257Y-76310970D01*
X135005897Y-76329668D01*
X135070000Y-76335982D01*
X136770000Y-76335982D01*
X136834103Y-76329668D01*
X136895743Y-76310970D01*
X136952550Y-76280606D01*
X137002343Y-76239743D01*
X137043206Y-76189950D01*
X137073570Y-76133143D01*
X137092268Y-76071503D01*
X137098582Y-76007400D01*
X137098582Y-74618041D01*
X140764580Y-70952044D01*
X142026131Y-70952044D01*
X138908838Y-74069339D01*
X138803318Y-74025631D01*
X138575924Y-73980400D01*
X138344076Y-73980400D01*
X138116682Y-74025631D01*
X137902481Y-74114356D01*
X137709706Y-74243164D01*
X137545764Y-74407106D01*
X137416956Y-74599881D01*
X137328231Y-74814082D01*
X137283000Y-75041476D01*
X137283000Y-75273324D01*
X137328231Y-75500718D01*
X137416956Y-75714919D01*
X137545764Y-75907694D01*
X137709706Y-76071636D01*
X137902481Y-76200444D01*
X138116682Y-76289169D01*
X138344076Y-76334400D01*
X138575924Y-76334400D01*
X138803318Y-76289169D01*
X139017519Y-76200444D01*
X139210294Y-76071636D01*
X139374236Y-75907694D01*
X139503044Y-75714919D01*
X139591769Y-75500718D01*
X139637000Y-75273324D01*
X139637000Y-75041476D01*
X139591769Y-74814082D01*
X139548061Y-74708562D01*
X142854570Y-71402055D01*
X144116121Y-71402055D01*
X141448838Y-74069339D01*
X141343318Y-74025631D01*
X141115924Y-73980400D01*
X140884076Y-73980400D01*
X140656682Y-74025631D01*
X140442481Y-74114356D01*
X140249706Y-74243164D01*
X140085764Y-74407106D01*
X139956956Y-74599881D01*
X139868231Y-74814082D01*
X139823000Y-75041476D01*
X139823000Y-75273324D01*
X139868231Y-75500718D01*
X139956956Y-75714919D01*
X140085764Y-75907694D01*
X140249706Y-76071636D01*
X140442481Y-76200444D01*
X140656682Y-76289169D01*
X140884076Y-76334400D01*
X141115924Y-76334400D01*
X141343318Y-76289169D01*
X141557519Y-76200444D01*
X141750294Y-76071636D01*
X141914236Y-75907694D01*
X142043044Y-75714919D01*
X142131769Y-75500718D01*
X142177000Y-75273324D01*
X142177000Y-75041476D01*
X142131769Y-74814082D01*
X142088061Y-74708562D01*
X144944558Y-71852066D01*
X146206110Y-71852066D01*
X143988838Y-74069339D01*
X143883318Y-74025631D01*
X143655924Y-73980400D01*
X143424076Y-73980400D01*
X143196682Y-74025631D01*
X142982481Y-74114356D01*
X142789706Y-74243164D01*
X142625764Y-74407106D01*
X142496956Y-74599881D01*
X142408231Y-74814082D01*
X142363000Y-75041476D01*
X142363000Y-75273324D01*
X142408231Y-75500718D01*
X142496956Y-75714919D01*
X142625764Y-75907694D01*
X142789706Y-76071636D01*
X142982481Y-76200444D01*
X143196682Y-76289169D01*
X143424076Y-76334400D01*
X143655924Y-76334400D01*
X143883318Y-76289169D01*
X144097519Y-76200444D01*
X144290294Y-76071636D01*
X144454236Y-75907694D01*
X144583044Y-75714919D01*
X144671769Y-75500718D01*
X144717000Y-75273324D01*
X144717000Y-75041476D01*
X144671769Y-74814082D01*
X144628061Y-74708562D01*
X147034547Y-72302077D01*
X148296098Y-72302077D01*
X146528838Y-74069339D01*
X146423318Y-74025631D01*
X146195924Y-73980400D01*
X145964076Y-73980400D01*
X145736682Y-74025631D01*
X145522481Y-74114356D01*
X145329706Y-74243164D01*
X145165764Y-74407106D01*
X145036956Y-74599881D01*
X144948231Y-74814082D01*
X144903000Y-75041476D01*
X144903000Y-75273324D01*
X144948231Y-75500718D01*
X145036956Y-75714919D01*
X145165764Y-75907694D01*
X145329706Y-76071636D01*
X145522481Y-76200444D01*
X145736682Y-76289169D01*
X145964076Y-76334400D01*
X146195924Y-76334400D01*
X146423318Y-76289169D01*
X146637519Y-76200444D01*
X146830294Y-76071636D01*
X146994236Y-75907694D01*
X147123044Y-75714919D01*
X147211769Y-75500718D01*
X147257000Y-75273324D01*
X147257000Y-75041476D01*
X147211769Y-74814082D01*
X147168061Y-74708562D01*
X149124537Y-72752088D01*
X150386088Y-72752088D01*
X149068838Y-74069339D01*
X148963318Y-74025631D01*
X148735924Y-73980400D01*
X148504076Y-73980400D01*
X148276682Y-74025631D01*
X148062481Y-74114356D01*
X147869706Y-74243164D01*
X147705764Y-74407106D01*
X147576956Y-74599881D01*
X147488231Y-74814082D01*
X147443000Y-75041476D01*
X147443000Y-75273324D01*
X147488231Y-75500718D01*
X147576956Y-75714919D01*
X147705764Y-75907694D01*
X147869706Y-76071636D01*
X148062481Y-76200444D01*
X148276682Y-76289169D01*
X148504076Y-76334400D01*
X148735924Y-76334400D01*
X148963318Y-76289169D01*
X149177519Y-76200444D01*
X149370294Y-76071636D01*
X149534236Y-75907694D01*
X149663044Y-75714919D01*
X149751769Y-75500718D01*
X149797000Y-75273324D01*
X149797000Y-75041476D01*
X149751769Y-74814082D01*
X149708061Y-74708562D01*
X151214525Y-73202099D01*
X152476076Y-73202099D01*
X151608838Y-74069339D01*
X151503318Y-74025631D01*
X151275924Y-73980400D01*
X151044076Y-73980400D01*
X150816682Y-74025631D01*
X150602481Y-74114356D01*
X150409706Y-74243164D01*
X150245764Y-74407106D01*
X150116956Y-74599881D01*
X150028231Y-74814082D01*
X149983000Y-75041476D01*
X149983000Y-75273324D01*
X150028231Y-75500718D01*
X150116956Y-75714919D01*
X150245764Y-75907694D01*
X150409706Y-76071636D01*
X150602481Y-76200444D01*
X150816682Y-76289169D01*
X151044076Y-76334400D01*
X151275924Y-76334400D01*
X151503318Y-76289169D01*
X151717519Y-76200444D01*
X151910294Y-76071636D01*
X152074236Y-75907694D01*
X152203044Y-75714919D01*
X152291769Y-75500718D01*
X152337000Y-75273324D01*
X152337000Y-75041476D01*
X152291769Y-74814082D01*
X152248061Y-74708562D01*
X153304515Y-73652110D01*
X155394934Y-73652110D01*
X156448224Y-74705400D01*
X154786751Y-74705400D01*
X154743044Y-74599881D01*
X154614236Y-74407106D01*
X154450294Y-74243164D01*
X154257519Y-74114356D01*
X154043318Y-74025631D01*
X153815924Y-73980400D01*
X153584076Y-73980400D01*
X153356682Y-74025631D01*
X153142481Y-74114356D01*
X152949706Y-74243164D01*
X152785764Y-74407106D01*
X152656956Y-74599881D01*
X152568231Y-74814082D01*
X152523000Y-75041476D01*
X152523000Y-75273324D01*
X152568231Y-75500718D01*
X152656956Y-75714919D01*
X152785764Y-75907694D01*
X152949706Y-76071636D01*
X153142481Y-76200444D01*
X153356682Y-76289169D01*
X153584076Y-76334400D01*
X153815924Y-76334400D01*
X154043318Y-76289169D01*
X154257519Y-76200444D01*
X154450294Y-76071636D01*
X154614236Y-75907694D01*
X154743044Y-75714919D01*
X154786751Y-75609400D01*
X156715817Y-75609400D01*
X161304384Y-80197967D01*
X146679792Y-80197967D01*
X144628061Y-78146238D01*
X144671769Y-78040718D01*
X144717000Y-77813324D01*
X144717000Y-77581476D01*
X144903000Y-77581476D01*
X144903000Y-77813324D01*
X144948231Y-78040718D01*
X145036956Y-78254919D01*
X145165764Y-78447694D01*
X145329706Y-78611636D01*
X145522481Y-78740444D01*
X145736682Y-78829169D01*
X145964076Y-78874400D01*
X146195924Y-78874400D01*
X146423318Y-78829169D01*
X146637519Y-78740444D01*
X146830294Y-78611636D01*
X146994236Y-78447694D01*
X147123044Y-78254919D01*
X147211769Y-78040718D01*
X147257000Y-77813324D01*
X147257000Y-77581476D01*
X147443000Y-77581476D01*
X147443000Y-77813324D01*
X147488231Y-78040718D01*
X147576956Y-78254919D01*
X147705764Y-78447694D01*
X147869706Y-78611636D01*
X148062481Y-78740444D01*
X148276682Y-78829169D01*
X148504076Y-78874400D01*
X148735924Y-78874400D01*
X148963318Y-78829169D01*
X149177519Y-78740444D01*
X149370294Y-78611636D01*
X149534236Y-78447694D01*
X149663044Y-78254919D01*
X149751769Y-78040718D01*
X149797000Y-77813324D01*
X149797000Y-77581476D01*
X149983000Y-77581476D01*
X149983000Y-77813324D01*
X150028231Y-78040718D01*
X150116956Y-78254919D01*
X150245764Y-78447694D01*
X150409706Y-78611636D01*
X150602481Y-78740444D01*
X150816682Y-78829169D01*
X151044076Y-78874400D01*
X151275924Y-78874400D01*
X151503318Y-78829169D01*
X151717519Y-78740444D01*
X151910294Y-78611636D01*
X152074236Y-78447694D01*
X152203044Y-78254919D01*
X152291769Y-78040718D01*
X152337000Y-77813324D01*
X152337000Y-77581476D01*
X152523000Y-77581476D01*
X152523000Y-77813324D01*
X152568231Y-78040718D01*
X152656956Y-78254919D01*
X152785764Y-78447694D01*
X152949706Y-78611636D01*
X153142481Y-78740444D01*
X153356682Y-78829169D01*
X153584076Y-78874400D01*
X153815924Y-78874400D01*
X154043318Y-78829169D01*
X154257519Y-78740444D01*
X154450294Y-78611636D01*
X154614236Y-78447694D01*
X154743044Y-78254919D01*
X154831769Y-78040718D01*
X154877000Y-77813324D01*
X154877000Y-77581476D01*
X154831769Y-77354082D01*
X154743044Y-77139881D01*
X154614236Y-76947106D01*
X154450294Y-76783164D01*
X154257519Y-76654356D01*
X154043318Y-76565631D01*
X153815924Y-76520400D01*
X153584076Y-76520400D01*
X153356682Y-76565631D01*
X153142481Y-76654356D01*
X152949706Y-76783164D01*
X152785764Y-76947106D01*
X152656956Y-77139881D01*
X152568231Y-77354082D01*
X152523000Y-77581476D01*
X152337000Y-77581476D01*
X152291769Y-77354082D01*
X152203044Y-77139881D01*
X152074236Y-76947106D01*
X151910294Y-76783164D01*
X151717519Y-76654356D01*
X151503318Y-76565631D01*
X151275924Y-76520400D01*
X151044076Y-76520400D01*
X150816682Y-76565631D01*
X150602481Y-76654356D01*
X150409706Y-76783164D01*
X150245764Y-76947106D01*
X150116956Y-77139881D01*
X150028231Y-77354082D01*
X149983000Y-77581476D01*
X149797000Y-77581476D01*
X149751769Y-77354082D01*
X149663044Y-77139881D01*
X149534236Y-76947106D01*
X149370294Y-76783164D01*
X149177519Y-76654356D01*
X148963318Y-76565631D01*
X148735924Y-76520400D01*
X148504076Y-76520400D01*
X148276682Y-76565631D01*
X148062481Y-76654356D01*
X147869706Y-76783164D01*
X147705764Y-76947106D01*
X147576956Y-77139881D01*
X147488231Y-77354082D01*
X147443000Y-77581476D01*
X147257000Y-77581476D01*
X147211769Y-77354082D01*
X147123044Y-77139881D01*
X146994236Y-76947106D01*
X146830294Y-76783164D01*
X146637519Y-76654356D01*
X146423318Y-76565631D01*
X146195924Y-76520400D01*
X145964076Y-76520400D01*
X145736682Y-76565631D01*
X145522481Y-76654356D01*
X145329706Y-76783164D01*
X145165764Y-76947106D01*
X145036956Y-77139881D01*
X144948231Y-77354082D01*
X144903000Y-77581476D01*
X144717000Y-77581476D01*
X144671769Y-77354082D01*
X144583044Y-77139881D01*
X144454236Y-76947106D01*
X144290294Y-76783164D01*
X144097519Y-76654356D01*
X143883318Y-76565631D01*
X143655924Y-76520400D01*
X143424076Y-76520400D01*
X143196682Y-76565631D01*
X142982481Y-76654356D01*
X142789706Y-76783164D01*
X142625764Y-76947106D01*
X142496956Y-77139881D01*
X142408231Y-77354082D01*
X142363000Y-77581476D01*
X142363000Y-77813324D01*
X142408231Y-78040718D01*
X142496956Y-78254919D01*
X142625764Y-78447694D01*
X142789706Y-78611636D01*
X142982481Y-78740444D01*
X143196682Y-78829169D01*
X143424076Y-78874400D01*
X143655924Y-78874400D01*
X143883318Y-78829169D01*
X143988838Y-78785461D01*
X145851353Y-80647978D01*
X144589802Y-80647978D01*
X142088061Y-78146238D01*
X142131769Y-78040718D01*
X142177000Y-77813324D01*
X142177000Y-77581476D01*
X142131769Y-77354082D01*
X142043044Y-77139881D01*
X141914236Y-76947106D01*
X141750294Y-76783164D01*
X141557519Y-76654356D01*
X141343318Y-76565631D01*
X141115924Y-76520400D01*
X140884076Y-76520400D01*
X140656682Y-76565631D01*
X140442481Y-76654356D01*
X140249706Y-76783164D01*
X140085764Y-76947106D01*
X139956956Y-77139881D01*
X139868231Y-77354082D01*
X139823000Y-77581476D01*
X139823000Y-77813324D01*
X139868231Y-78040718D01*
X139956956Y-78254919D01*
X140085764Y-78447694D01*
X140249706Y-78611636D01*
X140442481Y-78740444D01*
X140656682Y-78829169D01*
X140884076Y-78874400D01*
X141115924Y-78874400D01*
X141343318Y-78829169D01*
X141448838Y-78785461D01*
X143761365Y-81097989D01*
X142499813Y-81097989D01*
X139645321Y-78243498D01*
X139645312Y-78243487D01*
X139548062Y-78146237D01*
X139591769Y-78040718D01*
X139637000Y-77813324D01*
X139637000Y-77581476D01*
X139591769Y-77354082D01*
X139503044Y-77139881D01*
X139374236Y-76947106D01*
X139210294Y-76783164D01*
X139017519Y-76654356D01*
X138803318Y-76565631D01*
X138575924Y-76520400D01*
X138344076Y-76520400D01*
X138116682Y-76565631D01*
X137902481Y-76654356D01*
X137709706Y-76783164D01*
X137545764Y-76947106D01*
X137416956Y-77139881D01*
X137328231Y-77354082D01*
X137283000Y-77581476D01*
X137283000Y-77813324D01*
X137328231Y-78040718D01*
X137416956Y-78254919D01*
X137545764Y-78447694D01*
X137709706Y-78611636D01*
X137902481Y-78740444D01*
X138116682Y-78829169D01*
X138344076Y-78874400D01*
X138575924Y-78874400D01*
X138803318Y-78829169D01*
X138908837Y-78785462D01*
X139006087Y-78882712D01*
X139006098Y-78882721D01*
X141671376Y-81548000D01*
X140409825Y-81548000D01*
X137008061Y-78146238D01*
X137051769Y-78040718D01*
X137097000Y-77813324D01*
X137097000Y-77581476D01*
X137051769Y-77354082D01*
X136963044Y-77139881D01*
X136834236Y-76947106D01*
X136670294Y-76783164D01*
X136477519Y-76654356D01*
X136263318Y-76565631D01*
X136035924Y-76520400D01*
X135804076Y-76520400D01*
X135576682Y-76565631D01*
X135362481Y-76654356D01*
X135169706Y-76783164D01*
X135005764Y-76947106D01*
X134876956Y-77139881D01*
X134788231Y-77354082D01*
X134743000Y-77581476D01*
X134743000Y-77813324D01*
X134788231Y-78040718D01*
X134876956Y-78254919D01*
X135005764Y-78447694D01*
X135169706Y-78611636D01*
X135362481Y-78740444D01*
X135576682Y-78829169D01*
X135804076Y-78874400D01*
X136035924Y-78874400D01*
X136263318Y-78829169D01*
X136368838Y-78785461D01*
X139887285Y-82303910D01*
X139901441Y-82321159D01*
X139970267Y-82377643D01*
X140048790Y-82419614D01*
X140114162Y-82439444D01*
X140133992Y-82445460D01*
X140222599Y-82454187D01*
X140244804Y-82452000D01*
X161012777Y-82452000D01*
X168948001Y-90387226D01*
X168948000Y-94112775D01*
X168012777Y-95048000D01*
X164528680Y-95048000D01*
X164525743Y-95046430D01*
X164464103Y-95027732D01*
X164400000Y-95021418D01*
X163600000Y-95021418D01*
X163535897Y-95027732D01*
X163474257Y-95046430D01*
X163471320Y-95048000D01*
X159822204Y-95048000D01*
X159799999Y-95045813D01*
X159711392Y-95054540D01*
X159699357Y-95058191D01*
X159626190Y-95080386D01*
X159547667Y-95122357D01*
X159478841Y-95178841D01*
X159464686Y-95196089D01*
X152045935Y-102614842D01*
X152028676Y-102629006D01*
X151972192Y-102697833D01*
X151943061Y-102752334D01*
X151930221Y-102776356D01*
X151904375Y-102861558D01*
X151895648Y-102950165D01*
X151897835Y-102972370D01*
X151897836Y-109726529D01*
X140696100Y-120928266D01*
X140678841Y-120942430D01*
X140622357Y-121011257D01*
X140595626Y-121061268D01*
X140580386Y-121089780D01*
X140554540Y-121174982D01*
X140545813Y-121263589D01*
X140548000Y-121285794D01*
X140548001Y-122246418D01*
X140150000Y-122246418D01*
X140085897Y-122252732D01*
X140024257Y-122271430D01*
X139967450Y-122301794D01*
X139917657Y-122342657D01*
X139876794Y-122392450D01*
X139846430Y-122449257D01*
X139827732Y-122510897D01*
X139821418Y-122575000D01*
X139821418Y-124275000D01*
X139827732Y-124339103D01*
X139846430Y-124400743D01*
X139876794Y-124457550D01*
X139917657Y-124507343D01*
X139967450Y-124548206D01*
X140024257Y-124578570D01*
X140085897Y-124597268D01*
X140150000Y-124603582D01*
X141850000Y-124603582D01*
X141914103Y-124597268D01*
X141975743Y-124578570D01*
X142032550Y-124548206D01*
X142082343Y-124507343D01*
X142123206Y-124457550D01*
X142153570Y-124400743D01*
X142172268Y-124339103D01*
X142178582Y-124275000D01*
X142178582Y-122575000D01*
X142172268Y-122510897D01*
X142153570Y-122449257D01*
X142123206Y-122392450D01*
X142082343Y-122342657D01*
X142032550Y-122301794D01*
X141975743Y-122271430D01*
X141914103Y-122252732D01*
X141850000Y-122246418D01*
X141452000Y-122246418D01*
X141452000Y-121450812D01*
X152347846Y-110554967D01*
X152347846Y-112012930D01*
X143236096Y-121124681D01*
X143218842Y-121138841D01*
X143186015Y-121178841D01*
X143162358Y-121207667D01*
X143120386Y-121286191D01*
X143094540Y-121371393D01*
X143085813Y-121460000D01*
X143088001Y-121482215D01*
X143088001Y-122338248D01*
X142982481Y-122381956D01*
X142789706Y-122510764D01*
X142625764Y-122674706D01*
X142496956Y-122867481D01*
X142408231Y-123081682D01*
X142363000Y-123309076D01*
X142363000Y-123540924D01*
X142408231Y-123768318D01*
X142496956Y-123982519D01*
X142625764Y-124175294D01*
X142789706Y-124339236D01*
X142982481Y-124468044D01*
X143196682Y-124556769D01*
X143424076Y-124602000D01*
X143655924Y-124602000D01*
X143883318Y-124556769D01*
X144097519Y-124468044D01*
X144290294Y-124339236D01*
X144454236Y-124175294D01*
X144583044Y-123982519D01*
X144671769Y-123768318D01*
X144717000Y-123540924D01*
X144717000Y-123309076D01*
X144903000Y-123309076D01*
X144903000Y-123540924D01*
X144948231Y-123768318D01*
X145036956Y-123982519D01*
X145165764Y-124175294D01*
X145329706Y-124339236D01*
X145522481Y-124468044D01*
X145736682Y-124556769D01*
X145964076Y-124602000D01*
X146195924Y-124602000D01*
X146423318Y-124556769D01*
X146637519Y-124468044D01*
X146830294Y-124339236D01*
X146994236Y-124175294D01*
X147123044Y-123982519D01*
X147211769Y-123768318D01*
X147257000Y-123540924D01*
X147257000Y-123309076D01*
X147443000Y-123309076D01*
X147443000Y-123540924D01*
X147488231Y-123768318D01*
X147576956Y-123982519D01*
X147705764Y-124175294D01*
X147869706Y-124339236D01*
X148062481Y-124468044D01*
X148276682Y-124556769D01*
X148504076Y-124602000D01*
X148735924Y-124602000D01*
X148963318Y-124556769D01*
X149177519Y-124468044D01*
X149370294Y-124339236D01*
X149534236Y-124175294D01*
X149663044Y-123982519D01*
X149751769Y-123768318D01*
X149797000Y-123540924D01*
X149797000Y-123309076D01*
X149751769Y-123081682D01*
X149663044Y-122867481D01*
X149534236Y-122674706D01*
X149370294Y-122510764D01*
X149177519Y-122381956D01*
X148963318Y-122293231D01*
X148735924Y-122248000D01*
X148504076Y-122248000D01*
X148276682Y-122293231D01*
X148062481Y-122381956D01*
X147869706Y-122510764D01*
X147705764Y-122674706D01*
X147576956Y-122867481D01*
X147488231Y-123081682D01*
X147443000Y-123309076D01*
X147257000Y-123309076D01*
X147211769Y-123081682D01*
X147123044Y-122867481D01*
X146994236Y-122674706D01*
X146830294Y-122510764D01*
X146637519Y-122381956D01*
X146423318Y-122293231D01*
X146195924Y-122248000D01*
X145964076Y-122248000D01*
X145736682Y-122293231D01*
X145522481Y-122381956D01*
X145329706Y-122510764D01*
X145165764Y-122674706D01*
X145036956Y-122867481D01*
X144948231Y-123081682D01*
X144903000Y-123309076D01*
X144717000Y-123309076D01*
X144671769Y-123081682D01*
X144583044Y-122867481D01*
X144454236Y-122674706D01*
X144290294Y-122510764D01*
X144097519Y-122381956D01*
X143992000Y-122338249D01*
X143992000Y-121647223D01*
X152797858Y-112841366D01*
X152797858Y-114562917D01*
X150856100Y-116504677D01*
X150838841Y-116518841D01*
X150782358Y-116587667D01*
X150740386Y-116666191D01*
X150714540Y-116751393D01*
X150705813Y-116840000D01*
X150708000Y-116862205D01*
X150708001Y-122338248D01*
X150602481Y-122381956D01*
X150409706Y-122510764D01*
X150245764Y-122674706D01*
X150116956Y-122867481D01*
X150028231Y-123081682D01*
X149983000Y-123309076D01*
X149983000Y-123540924D01*
X150028231Y-123768318D01*
X150116956Y-123982519D01*
X150245764Y-124175294D01*
X150409706Y-124339236D01*
X150602481Y-124468044D01*
X150816682Y-124556769D01*
X151044076Y-124602000D01*
X151275924Y-124602000D01*
X151503318Y-124556769D01*
X151717519Y-124468044D01*
X151910294Y-124339236D01*
X152074236Y-124175294D01*
X152203044Y-123982519D01*
X152291769Y-123768318D01*
X152337000Y-123540924D01*
X152337000Y-123309076D01*
X152291769Y-123081682D01*
X152203044Y-122867481D01*
X152074236Y-122674706D01*
X151910294Y-122510764D01*
X151717519Y-122381956D01*
X151612000Y-122338249D01*
X151612000Y-117027223D01*
X153247869Y-115391356D01*
X153247869Y-122338303D01*
X153142481Y-122381956D01*
X152949706Y-122510764D01*
X152785764Y-122674706D01*
X152656956Y-122867481D01*
X152568231Y-123081682D01*
X152523000Y-123309076D01*
X152523000Y-123540924D01*
X152568231Y-123768318D01*
X152656956Y-123982519D01*
X152785764Y-124175294D01*
X152949706Y-124339236D01*
X153142481Y-124468044D01*
X153356682Y-124556769D01*
X153584076Y-124602000D01*
X153815924Y-124602000D01*
X154043318Y-124556769D01*
X154257519Y-124468044D01*
X154450294Y-124339236D01*
X154614236Y-124175294D01*
X154743044Y-123982519D01*
X154831769Y-123768318D01*
X154877000Y-123540924D01*
X154877000Y-123309076D01*
X155063000Y-123309076D01*
X155063000Y-123540924D01*
X155108231Y-123768318D01*
X155196956Y-123982519D01*
X155325764Y-124175294D01*
X155489706Y-124339236D01*
X155682481Y-124468044D01*
X155896682Y-124556769D01*
X156124076Y-124602000D01*
X156355924Y-124602000D01*
X156583318Y-124556769D01*
X156797519Y-124468044D01*
X156990294Y-124339236D01*
X157154236Y-124175294D01*
X157283044Y-123982519D01*
X157371769Y-123768318D01*
X157417000Y-123540924D01*
X157417000Y-123309076D01*
X157371769Y-123081682D01*
X157283044Y-122867481D01*
X157154236Y-122674706D01*
X156990294Y-122510764D01*
X156797519Y-122381956D01*
X156583318Y-122293231D01*
X156355924Y-122248000D01*
X156124076Y-122248000D01*
X155896682Y-122293231D01*
X155682481Y-122381956D01*
X155489706Y-122510764D01*
X155325764Y-122674706D01*
X155196956Y-122867481D01*
X155108231Y-123081682D01*
X155063000Y-123309076D01*
X154877000Y-123309076D01*
X154831769Y-123081682D01*
X154743044Y-122867481D01*
X154614236Y-122674706D01*
X154450294Y-122510764D01*
X154257519Y-122381956D01*
X154151868Y-122338194D01*
X154151868Y-110000321D01*
X158328000Y-114176455D01*
X158328001Y-122338248D01*
X158222481Y-122381956D01*
X158029706Y-122510764D01*
X157865764Y-122674706D01*
X157736956Y-122867481D01*
X157648231Y-123081682D01*
X157603000Y-123309076D01*
X157603000Y-123540924D01*
X157648231Y-123768318D01*
X157736956Y-123982519D01*
X157865764Y-124175294D01*
X158029706Y-124339236D01*
X158222481Y-124468044D01*
X158436682Y-124556769D01*
X158664076Y-124602000D01*
X158895924Y-124602000D01*
X159123318Y-124556769D01*
X159337519Y-124468044D01*
X159530294Y-124339236D01*
X159694236Y-124175294D01*
X159823044Y-123982519D01*
X159911769Y-123768318D01*
X159957000Y-123540924D01*
X159957000Y-123309076D01*
X159911769Y-123081682D01*
X159823044Y-122867481D01*
X159694236Y-122674706D01*
X159530294Y-122510764D01*
X159337519Y-122381956D01*
X159232000Y-122338249D01*
X159232000Y-114444044D01*
X160868000Y-116080044D01*
X160868001Y-122338248D01*
X160762481Y-122381956D01*
X160569706Y-122510764D01*
X160405764Y-122674706D01*
X160276956Y-122867481D01*
X160188231Y-123081682D01*
X160143000Y-123309076D01*
X160143000Y-123540924D01*
X160188231Y-123768318D01*
X160276956Y-123982519D01*
X160405764Y-124175294D01*
X160569706Y-124339236D01*
X160762481Y-124468044D01*
X160976682Y-124556769D01*
X161204076Y-124602000D01*
X161435924Y-124602000D01*
X161663318Y-124556769D01*
X161877519Y-124468044D01*
X162070294Y-124339236D01*
X162234236Y-124175294D01*
X162363044Y-123982519D01*
X162451769Y-123768318D01*
X162497000Y-123540924D01*
X162497000Y-123309076D01*
X162451769Y-123081682D01*
X162363044Y-122867481D01*
X162234236Y-122674706D01*
X162070294Y-122510764D01*
X161877519Y-122381956D01*
X161772000Y-122338249D01*
X161772000Y-116347634D01*
X163408000Y-117983634D01*
X163408001Y-122338248D01*
X163302481Y-122381956D01*
X163109706Y-122510764D01*
X162945764Y-122674706D01*
X162816956Y-122867481D01*
X162728231Y-123081682D01*
X162683000Y-123309076D01*
X162683000Y-123540924D01*
X162728231Y-123768318D01*
X162816956Y-123982519D01*
X162945764Y-124175294D01*
X163109706Y-124339236D01*
X163302481Y-124468044D01*
X163516682Y-124556769D01*
X163744076Y-124602000D01*
X163975924Y-124602000D01*
X164203318Y-124556769D01*
X164417519Y-124468044D01*
X164610294Y-124339236D01*
X164774236Y-124175294D01*
X164903044Y-123982519D01*
X164991769Y-123768318D01*
X165037000Y-123540924D01*
X165037000Y-123309076D01*
X164991769Y-123081682D01*
X164903044Y-122867481D01*
X164774236Y-122674706D01*
X164610294Y-122510764D01*
X164417519Y-122381956D01*
X164312000Y-122338249D01*
X164312000Y-118251224D01*
X167748000Y-121687224D01*
X167748001Y-126494314D01*
X166894317Y-127348000D01*
X165882224Y-127348000D01*
X164948061Y-126413838D01*
X164991769Y-126308318D01*
X165037000Y-126080924D01*
X165037000Y-125849076D01*
X164991769Y-125621682D01*
X164903044Y-125407481D01*
X164774236Y-125214706D01*
X164610294Y-125050764D01*
X164417519Y-124921956D01*
X164203318Y-124833231D01*
X163975924Y-124788000D01*
X163744076Y-124788000D01*
X163516682Y-124833231D01*
X163302481Y-124921956D01*
X163109706Y-125050764D01*
X162945764Y-125214706D01*
X162816956Y-125407481D01*
X162728231Y-125621682D01*
X162683000Y-125849076D01*
X162683000Y-126080924D01*
X162728231Y-126308318D01*
X162816956Y-126522519D01*
X162945764Y-126715294D01*
X163109706Y-126879236D01*
X163302481Y-127008044D01*
X163516682Y-127096769D01*
X163744076Y-127142000D01*
X163975924Y-127142000D01*
X164203318Y-127096769D01*
X164308838Y-127053061D01*
X165359681Y-128103905D01*
X165373841Y-128121159D01*
X165442667Y-128177643D01*
X165521078Y-128219554D01*
X165521190Y-128219614D01*
X165606392Y-128245460D01*
X165695000Y-128254187D01*
X165717205Y-128252000D01*
X166626726Y-128252000D01*
X165880723Y-128998003D01*
X164992227Y-128998003D01*
X162408061Y-126413838D01*
X162451769Y-126308318D01*
X162497000Y-126080924D01*
X162497000Y-125849076D01*
X162451769Y-125621682D01*
X162363044Y-125407481D01*
X162234236Y-125214706D01*
X162070294Y-125050764D01*
X161877519Y-124921956D01*
X161663318Y-124833231D01*
X161435924Y-124788000D01*
X161204076Y-124788000D01*
X160976682Y-124833231D01*
X160762481Y-124921956D01*
X160569706Y-125050764D01*
X160405764Y-125214706D01*
X160276956Y-125407481D01*
X160188231Y-125621682D01*
X160143000Y-125849076D01*
X160143000Y-126080924D01*
X160188231Y-126308318D01*
X160276956Y-126522519D01*
X160405764Y-126715294D01*
X160569706Y-126879236D01*
X160762481Y-127008044D01*
X160976682Y-127096769D01*
X161204076Y-127142000D01*
X161435924Y-127142000D01*
X161663318Y-127096769D01*
X161768838Y-127053061D01*
X164163790Y-129448014D01*
X162902239Y-129448014D01*
X159868061Y-126413838D01*
X159911769Y-126308318D01*
X159957000Y-126080924D01*
X159957000Y-125849076D01*
X159911769Y-125621682D01*
X159823044Y-125407481D01*
X159694236Y-125214706D01*
X159530294Y-125050764D01*
X159337519Y-124921956D01*
X159123318Y-124833231D01*
X158895924Y-124788000D01*
X158664076Y-124788000D01*
X158436682Y-124833231D01*
X158222481Y-124921956D01*
X158029706Y-125050764D01*
X157865764Y-125214706D01*
X157736956Y-125407481D01*
X157648231Y-125621682D01*
X157603000Y-125849076D01*
X157603000Y-126080924D01*
X157648231Y-126308318D01*
X157736956Y-126522519D01*
X157865764Y-126715294D01*
X158029706Y-126879236D01*
X158222481Y-127008044D01*
X158436682Y-127096769D01*
X158664076Y-127142000D01*
X158895924Y-127142000D01*
X159123318Y-127096769D01*
X159228838Y-127053061D01*
X162073800Y-129898025D01*
X160812249Y-129898025D01*
X157328061Y-126413838D01*
X157371769Y-126308318D01*
X157417000Y-126080924D01*
X157417000Y-125849076D01*
X157371769Y-125621682D01*
X157283044Y-125407481D01*
X157154236Y-125214706D01*
X156990294Y-125050764D01*
X156797519Y-124921956D01*
X156583318Y-124833231D01*
X156355924Y-124788000D01*
X156124076Y-124788000D01*
X155896682Y-124833231D01*
X155682481Y-124921956D01*
X155489706Y-125050764D01*
X155325764Y-125214706D01*
X155196956Y-125407481D01*
X155108231Y-125621682D01*
X155063000Y-125849076D01*
X155063000Y-126080924D01*
X155108231Y-126308318D01*
X155196956Y-126522519D01*
X155325764Y-126715294D01*
X155489706Y-126879236D01*
X155682481Y-127008044D01*
X155896682Y-127096769D01*
X156124076Y-127142000D01*
X156355924Y-127142000D01*
X156583318Y-127096769D01*
X156688838Y-127053061D01*
X159983812Y-130348036D01*
X158722261Y-130348036D01*
X154788061Y-126413838D01*
X154831769Y-126308318D01*
X154877000Y-126080924D01*
X154877000Y-125849076D01*
X154831769Y-125621682D01*
X154743044Y-125407481D01*
X154614236Y-125214706D01*
X154450294Y-125050764D01*
X154257519Y-124921956D01*
X154043318Y-124833231D01*
X153815924Y-124788000D01*
X153584076Y-124788000D01*
X153356682Y-124833231D01*
X153142481Y-124921956D01*
X152949706Y-125050764D01*
X152785764Y-125214706D01*
X152656956Y-125407481D01*
X152568231Y-125621682D01*
X152523000Y-125849076D01*
X152523000Y-126080924D01*
X152568231Y-126308318D01*
X152656956Y-126522519D01*
X152785764Y-126715294D01*
X152949706Y-126879236D01*
X153142481Y-127008044D01*
X153356682Y-127096769D01*
X153584076Y-127142000D01*
X153815924Y-127142000D01*
X154043318Y-127096769D01*
X154148838Y-127053061D01*
X157893822Y-130798047D01*
X156632272Y-130798047D01*
X152248061Y-126413838D01*
X152291769Y-126308318D01*
X152337000Y-126080924D01*
X152337000Y-125849076D01*
X152291769Y-125621682D01*
X152203044Y-125407481D01*
X152074236Y-125214706D01*
X151910294Y-125050764D01*
X151717519Y-124921956D01*
X151503318Y-124833231D01*
X151275924Y-124788000D01*
X151044076Y-124788000D01*
X150816682Y-124833231D01*
X150602481Y-124921956D01*
X150409706Y-125050764D01*
X150245764Y-125214706D01*
X150116956Y-125407481D01*
X150028231Y-125621682D01*
X149983000Y-125849076D01*
X149983000Y-126080924D01*
X150028231Y-126308318D01*
X150116956Y-126522519D01*
X150245764Y-126715294D01*
X150409706Y-126879236D01*
X150602481Y-127008044D01*
X150816682Y-127096769D01*
X151044076Y-127142000D01*
X151275924Y-127142000D01*
X151503318Y-127096769D01*
X151608838Y-127053061D01*
X155803833Y-131248058D01*
X154542282Y-131248058D01*
X149708061Y-126413838D01*
X149751769Y-126308318D01*
X149797000Y-126080924D01*
X149797000Y-125849076D01*
X149751769Y-125621682D01*
X149663044Y-125407481D01*
X149534236Y-125214706D01*
X149370294Y-125050764D01*
X149177519Y-124921956D01*
X148963318Y-124833231D01*
X148735924Y-124788000D01*
X148504076Y-124788000D01*
X148276682Y-124833231D01*
X148062481Y-124921956D01*
X147869706Y-125050764D01*
X147705764Y-125214706D01*
X147576956Y-125407481D01*
X147488231Y-125621682D01*
X147443000Y-125849076D01*
X147443000Y-126080924D01*
X147488231Y-126308318D01*
X147576956Y-126522519D01*
X147705764Y-126715294D01*
X147869706Y-126879236D01*
X148062481Y-127008044D01*
X148276682Y-127096769D01*
X148504076Y-127142000D01*
X148735924Y-127142000D01*
X148963318Y-127096769D01*
X149068838Y-127053061D01*
X153713844Y-131698068D01*
X152452292Y-131698068D01*
X147168061Y-126413838D01*
X147211769Y-126308318D01*
X147257000Y-126080924D01*
X147257000Y-125849076D01*
X147211769Y-125621682D01*
X147123044Y-125407481D01*
X146994236Y-125214706D01*
X146830294Y-125050764D01*
X146637519Y-124921956D01*
X146423318Y-124833231D01*
X146195924Y-124788000D01*
X145964076Y-124788000D01*
X145736682Y-124833231D01*
X145522481Y-124921956D01*
X145329706Y-125050764D01*
X145165764Y-125214706D01*
X145036956Y-125407481D01*
X144948231Y-125621682D01*
X144903000Y-125849076D01*
X144903000Y-126080924D01*
X144948231Y-126308318D01*
X145036956Y-126522519D01*
X145165764Y-126715294D01*
X145329706Y-126879236D01*
X145522481Y-127008044D01*
X145736682Y-127096769D01*
X145964076Y-127142000D01*
X146195924Y-127142000D01*
X146423318Y-127096769D01*
X146528838Y-127053061D01*
X151623855Y-132148079D01*
X142087303Y-132148079D01*
X138952000Y-129012777D01*
X138952000Y-125849076D01*
X139823000Y-125849076D01*
X139823000Y-126080924D01*
X139868231Y-126308318D01*
X139956956Y-126522519D01*
X140085764Y-126715294D01*
X140249706Y-126879236D01*
X140442481Y-127008044D01*
X140656682Y-127096769D01*
X140884076Y-127142000D01*
X141115924Y-127142000D01*
X141343318Y-127096769D01*
X141557519Y-127008044D01*
X141750294Y-126879236D01*
X141914236Y-126715294D01*
X142043044Y-126522519D01*
X142131769Y-126308318D01*
X142177000Y-126080924D01*
X142177000Y-125849076D01*
X142363000Y-125849076D01*
X142363000Y-126080924D01*
X142408231Y-126308318D01*
X142496956Y-126522519D01*
X142625764Y-126715294D01*
X142789706Y-126879236D01*
X142982481Y-127008044D01*
X143196682Y-127096769D01*
X143424076Y-127142000D01*
X143655924Y-127142000D01*
X143883318Y-127096769D01*
X144097519Y-127008044D01*
X144290294Y-126879236D01*
X144454236Y-126715294D01*
X144583044Y-126522519D01*
X144671769Y-126308318D01*
X144717000Y-126080924D01*
X144717000Y-125849076D01*
X144671769Y-125621682D01*
X144583044Y-125407481D01*
X144454236Y-125214706D01*
X144290294Y-125050764D01*
X144097519Y-124921956D01*
X143883318Y-124833231D01*
X143655924Y-124788000D01*
X143424076Y-124788000D01*
X143196682Y-124833231D01*
X142982481Y-124921956D01*
X142789706Y-125050764D01*
X142625764Y-125214706D01*
X142496956Y-125407481D01*
X142408231Y-125621682D01*
X142363000Y-125849076D01*
X142177000Y-125849076D01*
X142131769Y-125621682D01*
X142043044Y-125407481D01*
X141914236Y-125214706D01*
X141750294Y-125050764D01*
X141557519Y-124921956D01*
X141343318Y-124833231D01*
X141115924Y-124788000D01*
X140884076Y-124788000D01*
X140656682Y-124833231D01*
X140442481Y-124921956D01*
X140249706Y-125050764D01*
X140085764Y-125214706D01*
X139956956Y-125407481D01*
X139868231Y-125621682D01*
X139823000Y-125849076D01*
X138952000Y-125849076D01*
X138952000Y-119122204D01*
X138954187Y-119099999D01*
X138945460Y-119011392D01*
X138919614Y-118926190D01*
X138877642Y-118847666D01*
X138835313Y-118796088D01*
X138821159Y-118778841D01*
X138803911Y-118764686D01*
X132252900Y-112213677D01*
X132252900Y-109856890D01*
X135158524Y-109856890D01*
X135203175Y-110004099D01*
X135328359Y-110266920D01*
X135502412Y-110500269D01*
X135718645Y-110695178D01*
X135968748Y-110844157D01*
X136243109Y-110941481D01*
X136473000Y-110820814D01*
X136473000Y-109627000D01*
X136727000Y-109627000D01*
X136727000Y-110820814D01*
X136956891Y-110941481D01*
X137231252Y-110844157D01*
X137481355Y-110695178D01*
X137697588Y-110500269D01*
X137871641Y-110266920D01*
X137971680Y-110056890D01*
X142358524Y-110056890D01*
X142403175Y-110204099D01*
X142528359Y-110466920D01*
X142702412Y-110700269D01*
X142918645Y-110895178D01*
X143168748Y-111044157D01*
X143443109Y-111141481D01*
X143673000Y-111020814D01*
X143673000Y-109827000D01*
X143927000Y-109827000D01*
X143927000Y-111020814D01*
X144156891Y-111141481D01*
X144431252Y-111044157D01*
X144681355Y-110895178D01*
X144897588Y-110700269D01*
X145071641Y-110466920D01*
X145196825Y-110204099D01*
X145241476Y-110056890D01*
X145120155Y-109827000D01*
X143927000Y-109827000D01*
X143673000Y-109827000D01*
X142479845Y-109827000D01*
X142358524Y-110056890D01*
X137971680Y-110056890D01*
X137996825Y-110004099D01*
X138041476Y-109856890D01*
X137920155Y-109627000D01*
X136727000Y-109627000D01*
X136473000Y-109627000D01*
X135279845Y-109627000D01*
X135158524Y-109856890D01*
X132252900Y-109856890D01*
X132252900Y-109143110D01*
X135158524Y-109143110D01*
X135279845Y-109373000D01*
X136473000Y-109373000D01*
X136473000Y-109353000D01*
X136727000Y-109353000D01*
X136727000Y-109373000D01*
X137920155Y-109373000D01*
X137935928Y-109343110D01*
X142358524Y-109343110D01*
X142479845Y-109573000D01*
X143673000Y-109573000D01*
X143673000Y-109553000D01*
X143927000Y-109553000D01*
X143927000Y-109573000D01*
X145120155Y-109573000D01*
X145241476Y-109343110D01*
X145196825Y-109195901D01*
X145071641Y-108933080D01*
X144897588Y-108699731D01*
X144681355Y-108504822D01*
X144431252Y-108355843D01*
X144382592Y-108338582D01*
X144650000Y-108338582D01*
X144714103Y-108332268D01*
X144775743Y-108313570D01*
X144832550Y-108283206D01*
X144882343Y-108242343D01*
X144923206Y-108192550D01*
X144953570Y-108135743D01*
X144972268Y-108074103D01*
X144978582Y-108010000D01*
X144978582Y-106310000D01*
X144972268Y-106245897D01*
X144953570Y-106184257D01*
X144923206Y-106127450D01*
X144882343Y-106077657D01*
X144832550Y-106036794D01*
X144775743Y-106006430D01*
X144714103Y-105987732D01*
X144650000Y-105981418D01*
X142950000Y-105981418D01*
X142885897Y-105987732D01*
X142824257Y-106006430D01*
X142767450Y-106036794D01*
X142717657Y-106077657D01*
X142676794Y-106127450D01*
X142646430Y-106184257D01*
X142627732Y-106245897D01*
X142621418Y-106310000D01*
X142621418Y-108010000D01*
X142627732Y-108074103D01*
X142646430Y-108135743D01*
X142676794Y-108192550D01*
X142717657Y-108242343D01*
X142767450Y-108283206D01*
X142824257Y-108313570D01*
X142885897Y-108332268D01*
X142950000Y-108338582D01*
X143217408Y-108338582D01*
X143168748Y-108355843D01*
X142918645Y-108504822D01*
X142702412Y-108699731D01*
X142528359Y-108933080D01*
X142403175Y-109195901D01*
X142358524Y-109343110D01*
X137935928Y-109343110D01*
X138041476Y-109143110D01*
X137996825Y-108995901D01*
X137871641Y-108733080D01*
X137697588Y-108499731D01*
X137481355Y-108304822D01*
X137231252Y-108155843D01*
X137182592Y-108138582D01*
X137450000Y-108138582D01*
X137514103Y-108132268D01*
X137575743Y-108113570D01*
X137632550Y-108083206D01*
X137682343Y-108042343D01*
X137723206Y-107992550D01*
X137753570Y-107935743D01*
X137772268Y-107874103D01*
X137778582Y-107810000D01*
X137778582Y-106110000D01*
X137772268Y-106045897D01*
X137753570Y-105984257D01*
X137723206Y-105927450D01*
X137682343Y-105877657D01*
X137632550Y-105836794D01*
X137575743Y-105806430D01*
X137514103Y-105787732D01*
X137450000Y-105781418D01*
X135750000Y-105781418D01*
X135685897Y-105787732D01*
X135624257Y-105806430D01*
X135567450Y-105836794D01*
X135517657Y-105877657D01*
X135476794Y-105927450D01*
X135446430Y-105984257D01*
X135427732Y-106045897D01*
X135421418Y-106110000D01*
X135421418Y-107810000D01*
X135427732Y-107874103D01*
X135446430Y-107935743D01*
X135476794Y-107992550D01*
X135517657Y-108042343D01*
X135567450Y-108083206D01*
X135624257Y-108113570D01*
X135685897Y-108132268D01*
X135750000Y-108138582D01*
X136017408Y-108138582D01*
X135968748Y-108155843D01*
X135718645Y-108304822D01*
X135502412Y-108499731D01*
X135328359Y-108733080D01*
X135203175Y-108995901D01*
X135158524Y-109143110D01*
X132252900Y-109143110D01*
X132252900Y-100324076D01*
X135423000Y-100324076D01*
X135423000Y-100555924D01*
X135468231Y-100783318D01*
X135556956Y-100997519D01*
X135685764Y-101190294D01*
X135849706Y-101354236D01*
X136042481Y-101483044D01*
X136256682Y-101571769D01*
X136484076Y-101617000D01*
X136715924Y-101617000D01*
X136943318Y-101571769D01*
X137157519Y-101483044D01*
X137350294Y-101354236D01*
X137514236Y-101190294D01*
X137643044Y-100997519D01*
X137731769Y-100783318D01*
X137777000Y-100555924D01*
X137777000Y-100424076D01*
X142623000Y-100424076D01*
X142623000Y-100655924D01*
X142668231Y-100883318D01*
X142756956Y-101097519D01*
X142885764Y-101290294D01*
X143049706Y-101454236D01*
X143242481Y-101583044D01*
X143456682Y-101671769D01*
X143684076Y-101717000D01*
X143915924Y-101717000D01*
X144143318Y-101671769D01*
X144357519Y-101583044D01*
X144550294Y-101454236D01*
X144714236Y-101290294D01*
X144843044Y-101097519D01*
X144931769Y-100883318D01*
X144977000Y-100655924D01*
X144977000Y-100424076D01*
X144931769Y-100196682D01*
X144843044Y-99982481D01*
X144714236Y-99789706D01*
X144550294Y-99625764D01*
X144357519Y-99496956D01*
X144143318Y-99408231D01*
X143915924Y-99363000D01*
X143684076Y-99363000D01*
X143456682Y-99408231D01*
X143242481Y-99496956D01*
X143049706Y-99625764D01*
X142885764Y-99789706D01*
X142756956Y-99982481D01*
X142668231Y-100196682D01*
X142623000Y-100424076D01*
X137777000Y-100424076D01*
X137777000Y-100324076D01*
X137731769Y-100096682D01*
X137643044Y-99882481D01*
X137514236Y-99689706D01*
X137350294Y-99525764D01*
X137157519Y-99396956D01*
X136943318Y-99308231D01*
X136715924Y-99263000D01*
X136484076Y-99263000D01*
X136256682Y-99308231D01*
X136042481Y-99396956D01*
X135849706Y-99525764D01*
X135685764Y-99689706D01*
X135556956Y-99882481D01*
X135468231Y-100096682D01*
X135423000Y-100324076D01*
X132252900Y-100324076D01*
X132252900Y-97050000D01*
X135421418Y-97050000D01*
X135421418Y-98750000D01*
X135427732Y-98814103D01*
X135446430Y-98875743D01*
X135476794Y-98932550D01*
X135517657Y-98982343D01*
X135567450Y-99023206D01*
X135624257Y-99053570D01*
X135685897Y-99072268D01*
X135750000Y-99078582D01*
X137450000Y-99078582D01*
X137514103Y-99072268D01*
X137575743Y-99053570D01*
X137632550Y-99023206D01*
X137682343Y-98982343D01*
X137723206Y-98932550D01*
X137753570Y-98875743D01*
X137772268Y-98814103D01*
X137778582Y-98750000D01*
X137778582Y-97150000D01*
X142621418Y-97150000D01*
X142621418Y-98850000D01*
X142627732Y-98914103D01*
X142646430Y-98975743D01*
X142676794Y-99032550D01*
X142717657Y-99082343D01*
X142767450Y-99123206D01*
X142824257Y-99153570D01*
X142885897Y-99172268D01*
X142950000Y-99178582D01*
X144650000Y-99178582D01*
X144714103Y-99172268D01*
X144775743Y-99153570D01*
X144832550Y-99123206D01*
X144882343Y-99082343D01*
X144923206Y-99032550D01*
X144953570Y-98975743D01*
X144972268Y-98914103D01*
X144978582Y-98850000D01*
X144978582Y-97150000D01*
X144972268Y-97085897D01*
X144953570Y-97024257D01*
X144923206Y-96967450D01*
X144882343Y-96917657D01*
X144832550Y-96876794D01*
X144775743Y-96846430D01*
X144714103Y-96827732D01*
X144650000Y-96821418D01*
X142950000Y-96821418D01*
X142885897Y-96827732D01*
X142824257Y-96846430D01*
X142767450Y-96876794D01*
X142717657Y-96917657D01*
X142676794Y-96967450D01*
X142646430Y-97024257D01*
X142627732Y-97085897D01*
X142621418Y-97150000D01*
X137778582Y-97150000D01*
X137778582Y-97050000D01*
X137772268Y-96985897D01*
X137753570Y-96924257D01*
X137723206Y-96867450D01*
X137682343Y-96817657D01*
X137632550Y-96776794D01*
X137575743Y-96746430D01*
X137514103Y-96727732D01*
X137450000Y-96721418D01*
X135750000Y-96721418D01*
X135685897Y-96727732D01*
X135624257Y-96746430D01*
X135567450Y-96776794D01*
X135517657Y-96817657D01*
X135476794Y-96867450D01*
X135446430Y-96924257D01*
X135427732Y-96985897D01*
X135421418Y-97050000D01*
X132252900Y-97050000D01*
X132252900Y-94300000D01*
X165771418Y-94300000D01*
X165771418Y-94700000D01*
X165777732Y-94764103D01*
X165796430Y-94825743D01*
X165826794Y-94882550D01*
X165867657Y-94932343D01*
X165917450Y-94973206D01*
X165974257Y-95003570D01*
X166035897Y-95022268D01*
X166100000Y-95028582D01*
X166900000Y-95028582D01*
X166964103Y-95022268D01*
X167025743Y-95003570D01*
X167082550Y-94973206D01*
X167132343Y-94932343D01*
X167173206Y-94882550D01*
X167203570Y-94825743D01*
X167222268Y-94764103D01*
X167228582Y-94700000D01*
X167228582Y-94300000D01*
X167222268Y-94235897D01*
X167203570Y-94174257D01*
X167173206Y-94117450D01*
X167132343Y-94067657D01*
X167082550Y-94026794D01*
X167025743Y-93996430D01*
X166964103Y-93977732D01*
X166900000Y-93971418D01*
X166100000Y-93971418D01*
X166035897Y-93977732D01*
X165974257Y-93996430D01*
X165917450Y-94026794D01*
X165867657Y-94067657D01*
X165826794Y-94117450D01*
X165796430Y-94174257D01*
X165777732Y-94235897D01*
X165771418Y-94300000D01*
X132252900Y-94300000D01*
X132252900Y-78766851D01*
X132358419Y-78723144D01*
X132551194Y-78594336D01*
X132715136Y-78430394D01*
X132843944Y-78237619D01*
X132932669Y-78023418D01*
X132977900Y-77796024D01*
X132977900Y-77564176D01*
X132932669Y-77336782D01*
X132843944Y-77122581D01*
X132715136Y-76929806D01*
X132551194Y-76765864D01*
X132358419Y-76637056D01*
X132144218Y-76548331D01*
X131916824Y-76503100D01*
X131684976Y-76503100D01*
X131457582Y-76548331D01*
X131243381Y-76637056D01*
X131050606Y-76765864D01*
X130886664Y-76929806D01*
X130757856Y-77122581D01*
X130669131Y-77336782D01*
X130623900Y-77564176D01*
X130623900Y-77796024D01*
X130669131Y-78023418D01*
X130757856Y-78237619D01*
X130886664Y-78430394D01*
X131050606Y-78594336D01*
X131243381Y-78723144D01*
X131348901Y-78766852D01*
X131348900Y-112378695D01*
X131346713Y-112400900D01*
X131355440Y-112489507D01*
X131381286Y-112574709D01*
X131423257Y-112653232D01*
X131479741Y-112722059D01*
X131497000Y-112736223D01*
X138048001Y-119287226D01*
X138048000Y-129177795D01*
X138045813Y-129200000D01*
X138054540Y-129288606D01*
X138080386Y-129373809D01*
X138122357Y-129452332D01*
X138178841Y-129521159D01*
X138196100Y-129535323D01*
X141564760Y-132903984D01*
X141578920Y-132921238D01*
X141647746Y-132977722D01*
X141726269Y-133019693D01*
X141811471Y-133045539D01*
X141900079Y-133054266D01*
X141922284Y-133052079D01*
X167350541Y-133052079D01*
X167372746Y-133054266D01*
X167394951Y-133052079D01*
X167461353Y-133045539D01*
X167546556Y-133019693D01*
X167625079Y-132977722D01*
X167693905Y-132921238D01*
X167708069Y-132903979D01*
X172104004Y-128508049D01*
X172121247Y-128493898D01*
X172135398Y-128476655D01*
X172135401Y-128476652D01*
X172177730Y-128425074D01*
X172219702Y-128346550D01*
X172245548Y-128261348D01*
X172254275Y-128172741D01*
X172252088Y-128150536D01*
X172252086Y-120031015D01*
X172254274Y-120008800D01*
X172245547Y-119920192D01*
X172219701Y-119834990D01*
X172177729Y-119756467D01*
X172135400Y-119704889D01*
X172121245Y-119687641D01*
X172103997Y-119673486D01*
X159551999Y-107121489D01*
X159551999Y-105933374D01*
X161685373Y-103800000D01*
X165771418Y-103800000D01*
X165771418Y-104200000D01*
X165777732Y-104264103D01*
X165796430Y-104325743D01*
X165826794Y-104382550D01*
X165867657Y-104432343D01*
X165917450Y-104473206D01*
X165974257Y-104503570D01*
X166035897Y-104522268D01*
X166100000Y-104528582D01*
X166900000Y-104528582D01*
X166964103Y-104522268D01*
X167025743Y-104503570D01*
X167082550Y-104473206D01*
X167132343Y-104432343D01*
X167173206Y-104382550D01*
X167203570Y-104325743D01*
X167222268Y-104264103D01*
X167228582Y-104200000D01*
X167228582Y-103800000D01*
X167222268Y-103735897D01*
X167203570Y-103674257D01*
X167173206Y-103617450D01*
X167132343Y-103567657D01*
X167082550Y-103526794D01*
X167025743Y-103496430D01*
X166964103Y-103477732D01*
X166900000Y-103471418D01*
X166100000Y-103471418D01*
X166035897Y-103477732D01*
X165974257Y-103496430D01*
X165917450Y-103526794D01*
X165867657Y-103567657D01*
X165826794Y-103617450D01*
X165796430Y-103674257D01*
X165777732Y-103735897D01*
X165771418Y-103800000D01*
X161685373Y-103800000D01*
X162033374Y-103452000D01*
X163471320Y-103452000D01*
X163474257Y-103453570D01*
X163535897Y-103472268D01*
X163600000Y-103478582D01*
X164400000Y-103478582D01*
X164464103Y-103472268D01*
X164525743Y-103453570D01*
X164528680Y-103452000D01*
X170223960Y-103452000D01*
X170246165Y-103454187D01*
X170268370Y-103452000D01*
X170334772Y-103445460D01*
X170419975Y-103419614D01*
X170498498Y-103377643D01*
X170567324Y-103321159D01*
X170581488Y-103303900D01*
X176454071Y-97431318D01*
X176471324Y-97417159D01*
X176527808Y-97348333D01*
X176569779Y-97269810D01*
X176576496Y-97247667D01*
X176595625Y-97184608D01*
X176604352Y-97096000D01*
X176602165Y-97073795D01*
X176602165Y-87426202D01*
X176604352Y-87403999D01*
X176597858Y-87338067D01*
X176595625Y-87315393D01*
X176569779Y-87230190D01*
X176527808Y-87151667D01*
X176471324Y-87082841D01*
X176454076Y-87068686D01*
X157781488Y-68396100D01*
X157767324Y-68378841D01*
X157698498Y-68322357D01*
X157619975Y-68280386D01*
X157534772Y-68254540D01*
X157468370Y-68248000D01*
X157446165Y-68245813D01*
X157423960Y-68248000D01*
X130643205Y-68248000D01*
X130621000Y-68245813D01*
X130532392Y-68254540D01*
X130447190Y-68280386D01*
X130368667Y-68322357D01*
X130299841Y-68378841D01*
X130285681Y-68396095D01*
X124629738Y-74052039D01*
X124524218Y-74008331D01*
X124296824Y-73963100D01*
X124064976Y-73963100D01*
X123837582Y-74008331D01*
X123623381Y-74097056D01*
X123430606Y-74225864D01*
X123266664Y-74389806D01*
X123137856Y-74582581D01*
X123069636Y-74747279D01*
X122985057Y-74508848D01*
X122836078Y-74258745D01*
X122641169Y-74042512D01*
X122407820Y-73868459D01*
X122144999Y-73743275D01*
X121997790Y-73698624D01*
X121767900Y-73819945D01*
X121767900Y-75013100D01*
X121787900Y-75013100D01*
X121787900Y-75267100D01*
X121767900Y-75267100D01*
X121767900Y-75287100D01*
X121513900Y-75287100D01*
X121513900Y-75267100D01*
X121493900Y-75267100D01*
X121493900Y-75013100D01*
X121513900Y-75013100D01*
X121513900Y-73819945D01*
X121284010Y-73698624D01*
X121136801Y-73743275D01*
X120873980Y-73868459D01*
X120640631Y-74042512D01*
X120445722Y-74258745D01*
X120296743Y-74508848D01*
X120212164Y-74747279D01*
X120143944Y-74582581D01*
X120015136Y-74389806D01*
X119851194Y-74225864D01*
X119658419Y-74097056D01*
X119444218Y-74008331D01*
X119216824Y-73963100D01*
X118984976Y-73963100D01*
X118957498Y-73968566D01*
X118790226Y-73801294D01*
X118790217Y-73801283D01*
X115000115Y-70011183D01*
X114977343Y-69983435D01*
X114866642Y-69892586D01*
X114740346Y-69825079D01*
X114603306Y-69783509D01*
X114496497Y-69772989D01*
X114460789Y-69769472D01*
X114425081Y-69772989D01*
X107321487Y-69772989D01*
X107285781Y-69769472D01*
X107250076Y-69772989D01*
X107250074Y-69772989D01*
X107143265Y-69783509D01*
X107006225Y-69825079D01*
X106879929Y-69892586D01*
X106769228Y-69983435D01*
X106746461Y-70011177D01*
X104511178Y-72246461D01*
X104483436Y-72269228D01*
X104398720Y-72372456D01*
X104392587Y-72379929D01*
X104325079Y-72506226D01*
X104283509Y-72643265D01*
X104269472Y-72785782D01*
X103152000Y-72785782D01*
X103152000Y-66921062D01*
X103183130Y-66883130D01*
X103221062Y-66852000D01*
X179978938Y-66852000D01*
X180016870Y-66883130D01*
G37*
G04 #@! TD.AperFunction*
M02*
