G04 #@! TF.GenerationSoftware,KiCad,Pcbnew,(5.1.10)-1*
G04 #@! TF.CreationDate,2022-05-03T13:10:24+02:00*
G04 #@! TF.ProjectId,psoc_shield,70736f63-5f73-4686-9965-6c642e6b6963,rev?*
G04 #@! TF.SameCoordinates,Original*
G04 #@! TF.FileFunction,Legend,Top*
G04 #@! TF.FilePolarity,Positive*
%FSLAX46Y46*%
G04 Gerber Fmt 4.6, Leading zero omitted, Abs format (unit mm)*
G04 Created by KiCad (PCBNEW (5.1.10)-1) date 2022-05-03 13:10:24*
%MOMM*%
%LPD*%
G01*
G04 APERTURE LIST*
%ADD10C,0.150000*%
%ADD11C,0.120000*%
%ADD12C,0.100000*%
%ADD13C,0.200000*%
%ADD14C,0.254000*%
%ADD15O,1.700000X1.700000*%
%ADD16R,1.700000X1.700000*%
%ADD17R,0.800000X0.300000*%
%ADD18R,0.800000X0.400000*%
G04 APERTURE END LIST*
D10*
X153277380Y-82276190D02*
X153277380Y-82752380D01*
X153753571Y-82800000D01*
X153705952Y-82752380D01*
X153658333Y-82657142D01*
X153658333Y-82419047D01*
X153705952Y-82323809D01*
X153753571Y-82276190D01*
X153848809Y-82228571D01*
X154086904Y-82228571D01*
X154182142Y-82276190D01*
X154229761Y-82323809D01*
X154277380Y-82419047D01*
X154277380Y-82657142D01*
X154229761Y-82752380D01*
X154182142Y-82800000D01*
X154182142Y-81800000D02*
X154229761Y-81752380D01*
X154277380Y-81800000D01*
X154229761Y-81847619D01*
X154182142Y-81800000D01*
X154277380Y-81800000D01*
X153277380Y-81133333D02*
X153277380Y-81038095D01*
X153325000Y-80942857D01*
X153372619Y-80895238D01*
X153467857Y-80847619D01*
X153658333Y-80800000D01*
X153896428Y-80800000D01*
X154086904Y-80847619D01*
X154182142Y-80895238D01*
X154229761Y-80942857D01*
X154277380Y-81038095D01*
X154277380Y-81133333D01*
X154229761Y-81228571D01*
X154182142Y-81276190D01*
X154086904Y-81323809D01*
X153896428Y-81371428D01*
X153658333Y-81371428D01*
X153467857Y-81323809D01*
X153372619Y-81276190D01*
X153325000Y-81228571D01*
X153277380Y-81133333D01*
X135652380Y-82561904D02*
X135652380Y-82466666D01*
X135700000Y-82371428D01*
X135747619Y-82323809D01*
X135842857Y-82276190D01*
X136033333Y-82228571D01*
X136271428Y-82228571D01*
X136461904Y-82276190D01*
X136557142Y-82323809D01*
X136604761Y-82371428D01*
X136652380Y-82466666D01*
X136652380Y-82561904D01*
X136604761Y-82657142D01*
X136557142Y-82704761D01*
X136461904Y-82752380D01*
X136271428Y-82800000D01*
X136033333Y-82800000D01*
X135842857Y-82752380D01*
X135747619Y-82704761D01*
X135700000Y-82657142D01*
X135652380Y-82561904D01*
X136557142Y-81800000D02*
X136604761Y-81752380D01*
X136652380Y-81800000D01*
X136604761Y-81847619D01*
X136557142Y-81800000D01*
X136652380Y-81800000D01*
X135747619Y-81371428D02*
X135700000Y-81323809D01*
X135652380Y-81228571D01*
X135652380Y-80990476D01*
X135700000Y-80895238D01*
X135747619Y-80847619D01*
X135842857Y-80800000D01*
X135938095Y-80800000D01*
X136080952Y-80847619D01*
X136652380Y-81419047D01*
X136652380Y-80800000D01*
X143077380Y-82276190D02*
X143077380Y-82752380D01*
X143553571Y-82800000D01*
X143505952Y-82752380D01*
X143458333Y-82657142D01*
X143458333Y-82419047D01*
X143505952Y-82323809D01*
X143553571Y-82276190D01*
X143648809Y-82228571D01*
X143886904Y-82228571D01*
X143982142Y-82276190D01*
X144029761Y-82323809D01*
X144077380Y-82419047D01*
X144077380Y-82657142D01*
X144029761Y-82752380D01*
X143982142Y-82800000D01*
X143982142Y-81800000D02*
X144029761Y-81752380D01*
X144077380Y-81800000D01*
X144029761Y-81847619D01*
X143982142Y-81800000D01*
X144077380Y-81800000D01*
X143410714Y-80895238D02*
X144077380Y-80895238D01*
X143029761Y-81133333D02*
X143744047Y-81371428D01*
X143744047Y-80752380D01*
X140477380Y-82276190D02*
X140477380Y-82752380D01*
X140953571Y-82800000D01*
X140905952Y-82752380D01*
X140858333Y-82657142D01*
X140858333Y-82419047D01*
X140905952Y-82323809D01*
X140953571Y-82276190D01*
X141048809Y-82228571D01*
X141286904Y-82228571D01*
X141382142Y-82276190D01*
X141429761Y-82323809D01*
X141477380Y-82419047D01*
X141477380Y-82657142D01*
X141429761Y-82752380D01*
X141382142Y-82800000D01*
X141382142Y-81800000D02*
X141429761Y-81752380D01*
X141477380Y-81800000D01*
X141429761Y-81847619D01*
X141382142Y-81800000D01*
X141477380Y-81800000D01*
X140477380Y-80847619D02*
X140477380Y-81323809D01*
X140953571Y-81371428D01*
X140905952Y-81323809D01*
X140858333Y-81228571D01*
X140858333Y-80990476D01*
X140905952Y-80895238D01*
X140953571Y-80847619D01*
X141048809Y-80800000D01*
X141286904Y-80800000D01*
X141382142Y-80847619D01*
X141429761Y-80895238D01*
X141477380Y-80990476D01*
X141477380Y-81228571D01*
X141429761Y-81323809D01*
X141382142Y-81371428D01*
X150652380Y-82276190D02*
X150652380Y-82752380D01*
X151128571Y-82800000D01*
X151080952Y-82752380D01*
X151033333Y-82657142D01*
X151033333Y-82419047D01*
X151080952Y-82323809D01*
X151128571Y-82276190D01*
X151223809Y-82228571D01*
X151461904Y-82228571D01*
X151557142Y-82276190D01*
X151604761Y-82323809D01*
X151652380Y-82419047D01*
X151652380Y-82657142D01*
X151604761Y-82752380D01*
X151557142Y-82800000D01*
X151557142Y-81800000D02*
X151604761Y-81752380D01*
X151652380Y-81800000D01*
X151604761Y-81847619D01*
X151557142Y-81800000D01*
X151652380Y-81800000D01*
X151652380Y-80800000D02*
X151652380Y-81371428D01*
X151652380Y-81085714D02*
X150652380Y-81085714D01*
X150795238Y-81180952D01*
X150890476Y-81276190D01*
X150938095Y-81371428D01*
X138052380Y-82276190D02*
X138052380Y-82752380D01*
X138528571Y-82800000D01*
X138480952Y-82752380D01*
X138433333Y-82657142D01*
X138433333Y-82419047D01*
X138480952Y-82323809D01*
X138528571Y-82276190D01*
X138623809Y-82228571D01*
X138861904Y-82228571D01*
X138957142Y-82276190D01*
X139004761Y-82323809D01*
X139052380Y-82419047D01*
X139052380Y-82657142D01*
X139004761Y-82752380D01*
X138957142Y-82800000D01*
X138957142Y-81800000D02*
X139004761Y-81752380D01*
X139052380Y-81800000D01*
X139004761Y-81847619D01*
X138957142Y-81800000D01*
X139052380Y-81800000D01*
X138052380Y-80895238D02*
X138052380Y-81085714D01*
X138100000Y-81180952D01*
X138147619Y-81228571D01*
X138290476Y-81323809D01*
X138480952Y-81371428D01*
X138861904Y-81371428D01*
X138957142Y-81323809D01*
X139004761Y-81276190D01*
X139052380Y-81180952D01*
X139052380Y-80990476D01*
X139004761Y-80895238D01*
X138957142Y-80847619D01*
X138861904Y-80800000D01*
X138623809Y-80800000D01*
X138528571Y-80847619D01*
X138480952Y-80895238D01*
X138433333Y-80990476D01*
X138433333Y-81180952D01*
X138480952Y-81276190D01*
X138528571Y-81323809D01*
X138623809Y-81371428D01*
X145677380Y-82276190D02*
X145677380Y-82752380D01*
X146153571Y-82800000D01*
X146105952Y-82752380D01*
X146058333Y-82657142D01*
X146058333Y-82419047D01*
X146105952Y-82323809D01*
X146153571Y-82276190D01*
X146248809Y-82228571D01*
X146486904Y-82228571D01*
X146582142Y-82276190D01*
X146629761Y-82323809D01*
X146677380Y-82419047D01*
X146677380Y-82657142D01*
X146629761Y-82752380D01*
X146582142Y-82800000D01*
X146582142Y-81800000D02*
X146629761Y-81752380D01*
X146677380Y-81800000D01*
X146629761Y-81847619D01*
X146582142Y-81800000D01*
X146677380Y-81800000D01*
X145677380Y-81419047D02*
X145677380Y-80800000D01*
X146058333Y-81133333D01*
X146058333Y-80990476D01*
X146105952Y-80895238D01*
X146153571Y-80847619D01*
X146248809Y-80800000D01*
X146486904Y-80800000D01*
X146582142Y-80847619D01*
X146629761Y-80895238D01*
X146677380Y-80990476D01*
X146677380Y-81276190D01*
X146629761Y-81371428D01*
X146582142Y-81419047D01*
X148177380Y-82276190D02*
X148177380Y-82752380D01*
X148653571Y-82800000D01*
X148605952Y-82752380D01*
X148558333Y-82657142D01*
X148558333Y-82419047D01*
X148605952Y-82323809D01*
X148653571Y-82276190D01*
X148748809Y-82228571D01*
X148986904Y-82228571D01*
X149082142Y-82276190D01*
X149129761Y-82323809D01*
X149177380Y-82419047D01*
X149177380Y-82657142D01*
X149129761Y-82752380D01*
X149082142Y-82800000D01*
X149082142Y-81800000D02*
X149129761Y-81752380D01*
X149177380Y-81800000D01*
X149129761Y-81847619D01*
X149082142Y-81800000D01*
X149177380Y-81800000D01*
X148272619Y-81371428D02*
X148225000Y-81323809D01*
X148177380Y-81228571D01*
X148177380Y-80990476D01*
X148225000Y-80895238D01*
X148272619Y-80847619D01*
X148367857Y-80800000D01*
X148463095Y-80800000D01*
X148605952Y-80847619D01*
X149177380Y-81419047D01*
X149177380Y-80800000D01*
X111752380Y-71804761D02*
X111752380Y-72376190D01*
X111752380Y-72090476D02*
X110752380Y-72090476D01*
X110895238Y-72185714D01*
X110990476Y-72280952D01*
X111038095Y-72376190D01*
X110847619Y-71423809D02*
X110800000Y-71376190D01*
X110752380Y-71280952D01*
X110752380Y-71042857D01*
X110800000Y-70947619D01*
X110847619Y-70900000D01*
X110942857Y-70852380D01*
X111038095Y-70852380D01*
X111180952Y-70900000D01*
X111752380Y-71471428D01*
X111752380Y-70852380D01*
X111657142Y-70423809D02*
X111704761Y-70376190D01*
X111752380Y-70423809D01*
X111704761Y-70471428D01*
X111657142Y-70423809D01*
X111752380Y-70423809D01*
X110752380Y-69471428D02*
X110752380Y-69947619D01*
X111228571Y-69995238D01*
X111180952Y-69947619D01*
X111133333Y-69852380D01*
X111133333Y-69614285D01*
X111180952Y-69519047D01*
X111228571Y-69471428D01*
X111323809Y-69423809D01*
X111561904Y-69423809D01*
X111657142Y-69471428D01*
X111704761Y-69519047D01*
X111752380Y-69614285D01*
X111752380Y-69852380D01*
X111704761Y-69947619D01*
X111657142Y-69995238D01*
X119477380Y-71804761D02*
X119477380Y-72376190D01*
X119477380Y-72090476D02*
X118477380Y-72090476D01*
X118620238Y-72185714D01*
X118715476Y-72280952D01*
X118763095Y-72376190D01*
X118572619Y-71423809D02*
X118525000Y-71376190D01*
X118477380Y-71280952D01*
X118477380Y-71042857D01*
X118525000Y-70947619D01*
X118572619Y-70900000D01*
X118667857Y-70852380D01*
X118763095Y-70852380D01*
X118905952Y-70900000D01*
X119477380Y-71471428D01*
X119477380Y-70852380D01*
X119382142Y-70423809D02*
X119429761Y-70376190D01*
X119477380Y-70423809D01*
X119429761Y-70471428D01*
X119382142Y-70423809D01*
X119477380Y-70423809D01*
X118477380Y-70042857D02*
X118477380Y-69376190D01*
X119477380Y-69804761D01*
X124452380Y-71828571D02*
X124452380Y-72400000D01*
X124452380Y-72114285D02*
X123452380Y-72114285D01*
X123595238Y-72209523D01*
X123690476Y-72304761D01*
X123738095Y-72400000D01*
X124357142Y-71400000D02*
X124404761Y-71352380D01*
X124452380Y-71400000D01*
X124404761Y-71447619D01*
X124357142Y-71400000D01*
X124452380Y-71400000D01*
X123547619Y-70971428D02*
X123500000Y-70923809D01*
X123452380Y-70828571D01*
X123452380Y-70590476D01*
X123500000Y-70495238D01*
X123547619Y-70447619D01*
X123642857Y-70400000D01*
X123738095Y-70400000D01*
X123880952Y-70447619D01*
X124452380Y-71019047D01*
X124452380Y-70400000D01*
X114452380Y-71804761D02*
X114452380Y-72376190D01*
X114452380Y-72090476D02*
X113452380Y-72090476D01*
X113595238Y-72185714D01*
X113690476Y-72280952D01*
X113738095Y-72376190D01*
X113547619Y-71423809D02*
X113500000Y-71376190D01*
X113452380Y-71280952D01*
X113452380Y-71042857D01*
X113500000Y-70947619D01*
X113547619Y-70900000D01*
X113642857Y-70852380D01*
X113738095Y-70852380D01*
X113880952Y-70900000D01*
X114452380Y-71471428D01*
X114452380Y-70852380D01*
X114357142Y-70423809D02*
X114404761Y-70376190D01*
X114452380Y-70423809D01*
X114404761Y-70471428D01*
X114357142Y-70423809D01*
X114452380Y-70423809D01*
X113452380Y-69519047D02*
X113452380Y-69709523D01*
X113500000Y-69804761D01*
X113547619Y-69852380D01*
X113690476Y-69947619D01*
X113880952Y-69995238D01*
X114261904Y-69995238D01*
X114357142Y-69947619D01*
X114404761Y-69900000D01*
X114452380Y-69804761D01*
X114452380Y-69614285D01*
X114404761Y-69519047D01*
X114357142Y-69471428D01*
X114261904Y-69423809D01*
X114023809Y-69423809D01*
X113928571Y-69471428D01*
X113880952Y-69519047D01*
X113833333Y-69614285D01*
X113833333Y-69804761D01*
X113880952Y-69900000D01*
X113928571Y-69947619D01*
X114023809Y-69995238D01*
X127077380Y-71828571D02*
X127077380Y-72400000D01*
X127077380Y-72114285D02*
X126077380Y-72114285D01*
X126220238Y-72209523D01*
X126315476Y-72304761D01*
X126363095Y-72400000D01*
X126982142Y-71400000D02*
X127029761Y-71352380D01*
X127077380Y-71400000D01*
X127029761Y-71447619D01*
X126982142Y-71400000D01*
X127077380Y-71400000D01*
X126077380Y-71019047D02*
X126077380Y-70400000D01*
X126458333Y-70733333D01*
X126458333Y-70590476D01*
X126505952Y-70495238D01*
X126553571Y-70447619D01*
X126648809Y-70400000D01*
X126886904Y-70400000D01*
X126982142Y-70447619D01*
X127029761Y-70495238D01*
X127077380Y-70590476D01*
X127077380Y-70876190D01*
X127029761Y-70971428D01*
X126982142Y-71019047D01*
X121977380Y-71828571D02*
X121977380Y-72400000D01*
X121977380Y-72114285D02*
X120977380Y-72114285D01*
X121120238Y-72209523D01*
X121215476Y-72304761D01*
X121263095Y-72400000D01*
X121882142Y-71400000D02*
X121929761Y-71352380D01*
X121977380Y-71400000D01*
X121929761Y-71447619D01*
X121882142Y-71400000D01*
X121977380Y-71400000D01*
X120977380Y-70733333D02*
X120977380Y-70638095D01*
X121025000Y-70542857D01*
X121072619Y-70495238D01*
X121167857Y-70447619D01*
X121358333Y-70400000D01*
X121596428Y-70400000D01*
X121786904Y-70447619D01*
X121882142Y-70495238D01*
X121929761Y-70542857D01*
X121977380Y-70638095D01*
X121977380Y-70733333D01*
X121929761Y-70828571D01*
X121882142Y-70876190D01*
X121786904Y-70923809D01*
X121596428Y-70971428D01*
X121358333Y-70971428D01*
X121167857Y-70923809D01*
X121072619Y-70876190D01*
X121025000Y-70828571D01*
X120977380Y-70733333D01*
X109252380Y-71804761D02*
X109252380Y-72376190D01*
X109252380Y-72090476D02*
X108252380Y-72090476D01*
X108395238Y-72185714D01*
X108490476Y-72280952D01*
X108538095Y-72376190D01*
X108347619Y-71423809D02*
X108300000Y-71376190D01*
X108252380Y-71280952D01*
X108252380Y-71042857D01*
X108300000Y-70947619D01*
X108347619Y-70900000D01*
X108442857Y-70852380D01*
X108538095Y-70852380D01*
X108680952Y-70900000D01*
X109252380Y-71471428D01*
X109252380Y-70852380D01*
X109157142Y-70423809D02*
X109204761Y-70376190D01*
X109252380Y-70423809D01*
X109204761Y-70471428D01*
X109157142Y-70423809D01*
X109252380Y-70423809D01*
X108585714Y-69519047D02*
X109252380Y-69519047D01*
X108204761Y-69757142D02*
X108919047Y-69995238D01*
X108919047Y-69376190D01*
X116000000Y-71761904D02*
X115952380Y-71857142D01*
X115952380Y-72000000D01*
X116000000Y-72142857D01*
X116095238Y-72238095D01*
X116190476Y-72285714D01*
X116380952Y-72333333D01*
X116523809Y-72333333D01*
X116714285Y-72285714D01*
X116809523Y-72238095D01*
X116904761Y-72142857D01*
X116952380Y-72000000D01*
X116952380Y-71904761D01*
X116904761Y-71761904D01*
X116857142Y-71714285D01*
X116523809Y-71714285D01*
X116523809Y-71904761D01*
X116952380Y-71285714D02*
X115952380Y-71285714D01*
X116952380Y-70714285D01*
X115952380Y-70714285D01*
X116952380Y-70238095D02*
X115952380Y-70238095D01*
X115952380Y-70000000D01*
X116000000Y-69857142D01*
X116095238Y-69761904D01*
X116190476Y-69714285D01*
X116380952Y-69666666D01*
X116523809Y-69666666D01*
X116714285Y-69714285D01*
X116809523Y-69761904D01*
X116904761Y-69857142D01*
X116952380Y-70000000D01*
X116952380Y-70238095D01*
X129677380Y-71828571D02*
X129677380Y-72400000D01*
X129677380Y-72114285D02*
X128677380Y-72114285D01*
X128820238Y-72209523D01*
X128915476Y-72304761D01*
X128963095Y-72400000D01*
X129582142Y-71400000D02*
X129629761Y-71352380D01*
X129677380Y-71400000D01*
X129629761Y-71447619D01*
X129582142Y-71400000D01*
X129677380Y-71400000D01*
X129010714Y-70495238D02*
X129677380Y-70495238D01*
X128629761Y-70733333D02*
X129344047Y-70971428D01*
X129344047Y-70352380D01*
X132252380Y-71828571D02*
X132252380Y-72400000D01*
X132252380Y-72114285D02*
X131252380Y-72114285D01*
X131395238Y-72209523D01*
X131490476Y-72304761D01*
X131538095Y-72400000D01*
X132157142Y-71400000D02*
X132204761Y-71352380D01*
X132252380Y-71400000D01*
X132204761Y-71447619D01*
X132157142Y-71400000D01*
X132252380Y-71400000D01*
X131252380Y-70447619D02*
X131252380Y-70923809D01*
X131728571Y-70971428D01*
X131680952Y-70923809D01*
X131633333Y-70828571D01*
X131633333Y-70590476D01*
X131680952Y-70495238D01*
X131728571Y-70447619D01*
X131823809Y-70400000D01*
X132061904Y-70400000D01*
X132157142Y-70447619D01*
X132204761Y-70495238D01*
X132252380Y-70590476D01*
X132252380Y-70828571D01*
X132204761Y-70923809D01*
X132157142Y-70971428D01*
X138280952Y-72109523D02*
X138233333Y-72204761D01*
X138185714Y-72252380D01*
X138090476Y-72300000D01*
X138042857Y-72300000D01*
X137947619Y-72252380D01*
X137900000Y-72204761D01*
X137852380Y-72109523D01*
X137852380Y-71919047D01*
X137900000Y-71823809D01*
X137947619Y-71776190D01*
X138042857Y-71728571D01*
X138090476Y-71728571D01*
X138185714Y-71776190D01*
X138233333Y-71823809D01*
X138280952Y-71919047D01*
X138280952Y-72109523D01*
X138328571Y-72204761D01*
X138376190Y-72252380D01*
X138471428Y-72300000D01*
X138661904Y-72300000D01*
X138757142Y-72252380D01*
X138804761Y-72204761D01*
X138852380Y-72109523D01*
X138852380Y-71919047D01*
X138804761Y-71823809D01*
X138757142Y-71776190D01*
X138661904Y-71728571D01*
X138471428Y-71728571D01*
X138376190Y-71776190D01*
X138328571Y-71823809D01*
X138280952Y-71919047D01*
X138757142Y-71300000D02*
X138804761Y-71252380D01*
X138852380Y-71300000D01*
X138804761Y-71347619D01*
X138757142Y-71300000D01*
X138852380Y-71300000D01*
X137852380Y-70395238D02*
X137852380Y-70585714D01*
X137900000Y-70680952D01*
X137947619Y-70728571D01*
X138090476Y-70823809D01*
X138280952Y-70871428D01*
X138661904Y-70871428D01*
X138757142Y-70823809D01*
X138804761Y-70776190D01*
X138852380Y-70680952D01*
X138852380Y-70490476D01*
X138804761Y-70395238D01*
X138757142Y-70347619D01*
X138661904Y-70300000D01*
X138423809Y-70300000D01*
X138328571Y-70347619D01*
X138280952Y-70395238D01*
X138233333Y-70490476D01*
X138233333Y-70680952D01*
X138280952Y-70776190D01*
X138328571Y-70823809D01*
X138423809Y-70871428D01*
X150880952Y-72109523D02*
X150833333Y-72204761D01*
X150785714Y-72252380D01*
X150690476Y-72300000D01*
X150642857Y-72300000D01*
X150547619Y-72252380D01*
X150500000Y-72204761D01*
X150452380Y-72109523D01*
X150452380Y-71919047D01*
X150500000Y-71823809D01*
X150547619Y-71776190D01*
X150642857Y-71728571D01*
X150690476Y-71728571D01*
X150785714Y-71776190D01*
X150833333Y-71823809D01*
X150880952Y-71919047D01*
X150880952Y-72109523D01*
X150928571Y-72204761D01*
X150976190Y-72252380D01*
X151071428Y-72300000D01*
X151261904Y-72300000D01*
X151357142Y-72252380D01*
X151404761Y-72204761D01*
X151452380Y-72109523D01*
X151452380Y-71919047D01*
X151404761Y-71823809D01*
X151357142Y-71776190D01*
X151261904Y-71728571D01*
X151071428Y-71728571D01*
X150976190Y-71776190D01*
X150928571Y-71823809D01*
X150880952Y-71919047D01*
X151357142Y-71300000D02*
X151404761Y-71252380D01*
X151452380Y-71300000D01*
X151404761Y-71347619D01*
X151357142Y-71300000D01*
X151452380Y-71300000D01*
X151452380Y-70300000D02*
X151452380Y-70871428D01*
X151452380Y-70585714D02*
X150452380Y-70585714D01*
X150595238Y-70680952D01*
X150690476Y-70776190D01*
X150738095Y-70871428D01*
X145905952Y-72109523D02*
X145858333Y-72204761D01*
X145810714Y-72252380D01*
X145715476Y-72300000D01*
X145667857Y-72300000D01*
X145572619Y-72252380D01*
X145525000Y-72204761D01*
X145477380Y-72109523D01*
X145477380Y-71919047D01*
X145525000Y-71823809D01*
X145572619Y-71776190D01*
X145667857Y-71728571D01*
X145715476Y-71728571D01*
X145810714Y-71776190D01*
X145858333Y-71823809D01*
X145905952Y-71919047D01*
X145905952Y-72109523D01*
X145953571Y-72204761D01*
X146001190Y-72252380D01*
X146096428Y-72300000D01*
X146286904Y-72300000D01*
X146382142Y-72252380D01*
X146429761Y-72204761D01*
X146477380Y-72109523D01*
X146477380Y-71919047D01*
X146429761Y-71823809D01*
X146382142Y-71776190D01*
X146286904Y-71728571D01*
X146096428Y-71728571D01*
X146001190Y-71776190D01*
X145953571Y-71823809D01*
X145905952Y-71919047D01*
X146382142Y-71300000D02*
X146429761Y-71252380D01*
X146477380Y-71300000D01*
X146429761Y-71347619D01*
X146382142Y-71300000D01*
X146477380Y-71300000D01*
X145477380Y-70919047D02*
X145477380Y-70300000D01*
X145858333Y-70633333D01*
X145858333Y-70490476D01*
X145905952Y-70395238D01*
X145953571Y-70347619D01*
X146048809Y-70300000D01*
X146286904Y-70300000D01*
X146382142Y-70347619D01*
X146429761Y-70395238D01*
X146477380Y-70490476D01*
X146477380Y-70776190D01*
X146429761Y-70871428D01*
X146382142Y-70919047D01*
X153505952Y-72109523D02*
X153458333Y-72204761D01*
X153410714Y-72252380D01*
X153315476Y-72300000D01*
X153267857Y-72300000D01*
X153172619Y-72252380D01*
X153125000Y-72204761D01*
X153077380Y-72109523D01*
X153077380Y-71919047D01*
X153125000Y-71823809D01*
X153172619Y-71776190D01*
X153267857Y-71728571D01*
X153315476Y-71728571D01*
X153410714Y-71776190D01*
X153458333Y-71823809D01*
X153505952Y-71919047D01*
X153505952Y-72109523D01*
X153553571Y-72204761D01*
X153601190Y-72252380D01*
X153696428Y-72300000D01*
X153886904Y-72300000D01*
X153982142Y-72252380D01*
X154029761Y-72204761D01*
X154077380Y-72109523D01*
X154077380Y-71919047D01*
X154029761Y-71823809D01*
X153982142Y-71776190D01*
X153886904Y-71728571D01*
X153696428Y-71728571D01*
X153601190Y-71776190D01*
X153553571Y-71823809D01*
X153505952Y-71919047D01*
X153982142Y-71300000D02*
X154029761Y-71252380D01*
X154077380Y-71300000D01*
X154029761Y-71347619D01*
X153982142Y-71300000D01*
X154077380Y-71300000D01*
X153077380Y-70633333D02*
X153077380Y-70538095D01*
X153125000Y-70442857D01*
X153172619Y-70395238D01*
X153267857Y-70347619D01*
X153458333Y-70300000D01*
X153696428Y-70300000D01*
X153886904Y-70347619D01*
X153982142Y-70395238D01*
X154029761Y-70442857D01*
X154077380Y-70538095D01*
X154077380Y-70633333D01*
X154029761Y-70728571D01*
X153982142Y-70776190D01*
X153886904Y-70823809D01*
X153696428Y-70871428D01*
X153458333Y-70871428D01*
X153267857Y-70823809D01*
X153172619Y-70776190D01*
X153125000Y-70728571D01*
X153077380Y-70633333D01*
X140705952Y-72109523D02*
X140658333Y-72204761D01*
X140610714Y-72252380D01*
X140515476Y-72300000D01*
X140467857Y-72300000D01*
X140372619Y-72252380D01*
X140325000Y-72204761D01*
X140277380Y-72109523D01*
X140277380Y-71919047D01*
X140325000Y-71823809D01*
X140372619Y-71776190D01*
X140467857Y-71728571D01*
X140515476Y-71728571D01*
X140610714Y-71776190D01*
X140658333Y-71823809D01*
X140705952Y-71919047D01*
X140705952Y-72109523D01*
X140753571Y-72204761D01*
X140801190Y-72252380D01*
X140896428Y-72300000D01*
X141086904Y-72300000D01*
X141182142Y-72252380D01*
X141229761Y-72204761D01*
X141277380Y-72109523D01*
X141277380Y-71919047D01*
X141229761Y-71823809D01*
X141182142Y-71776190D01*
X141086904Y-71728571D01*
X140896428Y-71728571D01*
X140801190Y-71776190D01*
X140753571Y-71823809D01*
X140705952Y-71919047D01*
X141182142Y-71300000D02*
X141229761Y-71252380D01*
X141277380Y-71300000D01*
X141229761Y-71347619D01*
X141182142Y-71300000D01*
X141277380Y-71300000D01*
X140277380Y-70347619D02*
X140277380Y-70823809D01*
X140753571Y-70871428D01*
X140705952Y-70823809D01*
X140658333Y-70728571D01*
X140658333Y-70490476D01*
X140705952Y-70395238D01*
X140753571Y-70347619D01*
X140848809Y-70300000D01*
X141086904Y-70300000D01*
X141182142Y-70347619D01*
X141229761Y-70395238D01*
X141277380Y-70490476D01*
X141277380Y-70728571D01*
X141229761Y-70823809D01*
X141182142Y-70871428D01*
X148405952Y-72109523D02*
X148358333Y-72204761D01*
X148310714Y-72252380D01*
X148215476Y-72300000D01*
X148167857Y-72300000D01*
X148072619Y-72252380D01*
X148025000Y-72204761D01*
X147977380Y-72109523D01*
X147977380Y-71919047D01*
X148025000Y-71823809D01*
X148072619Y-71776190D01*
X148167857Y-71728571D01*
X148215476Y-71728571D01*
X148310714Y-71776190D01*
X148358333Y-71823809D01*
X148405952Y-71919047D01*
X148405952Y-72109523D01*
X148453571Y-72204761D01*
X148501190Y-72252380D01*
X148596428Y-72300000D01*
X148786904Y-72300000D01*
X148882142Y-72252380D01*
X148929761Y-72204761D01*
X148977380Y-72109523D01*
X148977380Y-71919047D01*
X148929761Y-71823809D01*
X148882142Y-71776190D01*
X148786904Y-71728571D01*
X148596428Y-71728571D01*
X148501190Y-71776190D01*
X148453571Y-71823809D01*
X148405952Y-71919047D01*
X148882142Y-71300000D02*
X148929761Y-71252380D01*
X148977380Y-71300000D01*
X148929761Y-71347619D01*
X148882142Y-71300000D01*
X148977380Y-71300000D01*
X148072619Y-70871428D02*
X148025000Y-70823809D01*
X147977380Y-70728571D01*
X147977380Y-70490476D01*
X148025000Y-70395238D01*
X148072619Y-70347619D01*
X148167857Y-70300000D01*
X148263095Y-70300000D01*
X148405952Y-70347619D01*
X148977380Y-70919047D01*
X148977380Y-70300000D01*
X143305952Y-72109523D02*
X143258333Y-72204761D01*
X143210714Y-72252380D01*
X143115476Y-72300000D01*
X143067857Y-72300000D01*
X142972619Y-72252380D01*
X142925000Y-72204761D01*
X142877380Y-72109523D01*
X142877380Y-71919047D01*
X142925000Y-71823809D01*
X142972619Y-71776190D01*
X143067857Y-71728571D01*
X143115476Y-71728571D01*
X143210714Y-71776190D01*
X143258333Y-71823809D01*
X143305952Y-71919047D01*
X143305952Y-72109523D01*
X143353571Y-72204761D01*
X143401190Y-72252380D01*
X143496428Y-72300000D01*
X143686904Y-72300000D01*
X143782142Y-72252380D01*
X143829761Y-72204761D01*
X143877380Y-72109523D01*
X143877380Y-71919047D01*
X143829761Y-71823809D01*
X143782142Y-71776190D01*
X143686904Y-71728571D01*
X143496428Y-71728571D01*
X143401190Y-71776190D01*
X143353571Y-71823809D01*
X143305952Y-71919047D01*
X143782142Y-71300000D02*
X143829761Y-71252380D01*
X143877380Y-71300000D01*
X143829761Y-71347619D01*
X143782142Y-71300000D01*
X143877380Y-71300000D01*
X143210714Y-70395238D02*
X143877380Y-70395238D01*
X142829761Y-70633333D02*
X143544047Y-70871428D01*
X143544047Y-70252380D01*
X135880952Y-72109523D02*
X135833333Y-72204761D01*
X135785714Y-72252380D01*
X135690476Y-72300000D01*
X135642857Y-72300000D01*
X135547619Y-72252380D01*
X135500000Y-72204761D01*
X135452380Y-72109523D01*
X135452380Y-71919047D01*
X135500000Y-71823809D01*
X135547619Y-71776190D01*
X135642857Y-71728571D01*
X135690476Y-71728571D01*
X135785714Y-71776190D01*
X135833333Y-71823809D01*
X135880952Y-71919047D01*
X135880952Y-72109523D01*
X135928571Y-72204761D01*
X135976190Y-72252380D01*
X136071428Y-72300000D01*
X136261904Y-72300000D01*
X136357142Y-72252380D01*
X136404761Y-72204761D01*
X136452380Y-72109523D01*
X136452380Y-71919047D01*
X136404761Y-71823809D01*
X136357142Y-71776190D01*
X136261904Y-71728571D01*
X136071428Y-71728571D01*
X135976190Y-71776190D01*
X135928571Y-71823809D01*
X135880952Y-71919047D01*
X136357142Y-71300000D02*
X136404761Y-71252380D01*
X136452380Y-71300000D01*
X136404761Y-71347619D01*
X136357142Y-71300000D01*
X136452380Y-71300000D01*
X135452380Y-70919047D02*
X135452380Y-70252380D01*
X136452380Y-70680952D01*
D11*
X148900000Y-89800000D02*
X131600000Y-89800000D01*
X148900000Y-112300000D02*
X148900000Y-89800000D01*
X131600000Y-112300000D02*
X148900000Y-112300000D01*
X131600000Y-89800000D02*
X131600000Y-112300000D01*
D10*
X135109523Y-92552380D02*
X134633333Y-92552380D01*
X134633333Y-91552380D01*
X135585714Y-92552380D02*
X135490476Y-92504761D01*
X135442857Y-92457142D01*
X135395238Y-92361904D01*
X135395238Y-92076190D01*
X135442857Y-91980952D01*
X135490476Y-91933333D01*
X135585714Y-91885714D01*
X135728571Y-91885714D01*
X135823809Y-91933333D01*
X135871428Y-91980952D01*
X135919047Y-92076190D01*
X135919047Y-92361904D01*
X135871428Y-92457142D01*
X135823809Y-92504761D01*
X135728571Y-92552380D01*
X135585714Y-92552380D01*
X136252380Y-91885714D02*
X136442857Y-92552380D01*
X136633333Y-92076190D01*
X136823809Y-92552380D01*
X137014285Y-91885714D01*
X137395238Y-92171428D02*
X138157142Y-92171428D01*
X138633333Y-91885714D02*
X138633333Y-92885714D01*
X138633333Y-91933333D02*
X138728571Y-91885714D01*
X138919047Y-91885714D01*
X139014285Y-91933333D01*
X139061904Y-91980952D01*
X139109523Y-92076190D01*
X139109523Y-92361904D01*
X139061904Y-92457142D01*
X139014285Y-92504761D01*
X138919047Y-92552380D01*
X138728571Y-92552380D01*
X138633333Y-92504761D01*
X139966666Y-92552380D02*
X139966666Y-92028571D01*
X139919047Y-91933333D01*
X139823809Y-91885714D01*
X139633333Y-91885714D01*
X139538095Y-91933333D01*
X139966666Y-92504761D02*
X139871428Y-92552380D01*
X139633333Y-92552380D01*
X139538095Y-92504761D01*
X139490476Y-92409523D01*
X139490476Y-92314285D01*
X139538095Y-92219047D01*
X139633333Y-92171428D01*
X139871428Y-92171428D01*
X139966666Y-92123809D01*
X140395238Y-92504761D02*
X140490476Y-92552380D01*
X140680952Y-92552380D01*
X140776190Y-92504761D01*
X140823809Y-92409523D01*
X140823809Y-92361904D01*
X140776190Y-92266666D01*
X140680952Y-92219047D01*
X140538095Y-92219047D01*
X140442857Y-92171428D01*
X140395238Y-92076190D01*
X140395238Y-92028571D01*
X140442857Y-91933333D01*
X140538095Y-91885714D01*
X140680952Y-91885714D01*
X140776190Y-91933333D01*
X141204761Y-92504761D02*
X141300000Y-92552380D01*
X141490476Y-92552380D01*
X141585714Y-92504761D01*
X141633333Y-92409523D01*
X141633333Y-92361904D01*
X141585714Y-92266666D01*
X141490476Y-92219047D01*
X141347619Y-92219047D01*
X141252380Y-92171428D01*
X141204761Y-92076190D01*
X141204761Y-92028571D01*
X141252380Y-91933333D01*
X141347619Y-91885714D01*
X141490476Y-91885714D01*
X141585714Y-91933333D01*
X142680952Y-91885714D02*
X143061904Y-91885714D01*
X142823809Y-92552380D02*
X142823809Y-91695238D01*
X142871428Y-91600000D01*
X142966666Y-91552380D01*
X143061904Y-91552380D01*
X143395238Y-92552380D02*
X143395238Y-91885714D01*
X143395238Y-91552380D02*
X143347619Y-91600000D01*
X143395238Y-91647619D01*
X143442857Y-91600000D01*
X143395238Y-91552380D01*
X143395238Y-91647619D01*
X144014285Y-92552380D02*
X143919047Y-92504761D01*
X143871428Y-92409523D01*
X143871428Y-91552380D01*
X144252380Y-91885714D02*
X144633333Y-91885714D01*
X144395238Y-91552380D02*
X144395238Y-92409523D01*
X144442857Y-92504761D01*
X144538095Y-92552380D01*
X144633333Y-92552380D01*
X145347619Y-92504761D02*
X145252380Y-92552380D01*
X145061904Y-92552380D01*
X144966666Y-92504761D01*
X144919047Y-92409523D01*
X144919047Y-92028571D01*
X144966666Y-91933333D01*
X145061904Y-91885714D01*
X145252380Y-91885714D01*
X145347619Y-91933333D01*
X145395238Y-92028571D01*
X145395238Y-92123809D01*
X144919047Y-92219047D01*
X145823809Y-92552380D02*
X145823809Y-91885714D01*
X145823809Y-92076190D02*
X145871428Y-91980952D01*
X145919047Y-91933333D01*
X146014285Y-91885714D01*
X146109523Y-91885714D01*
X147033333Y-99652380D02*
X146700000Y-99176190D01*
X146461904Y-99652380D02*
X146461904Y-98652380D01*
X146842857Y-98652380D01*
X146938095Y-98700000D01*
X146985714Y-98747619D01*
X147033333Y-98842857D01*
X147033333Y-98985714D01*
X146985714Y-99080952D01*
X146938095Y-99128571D01*
X146842857Y-99176190D01*
X146461904Y-99176190D01*
X147414285Y-98747619D02*
X147461904Y-98700000D01*
X147557142Y-98652380D01*
X147795238Y-98652380D01*
X147890476Y-98700000D01*
X147938095Y-98747619D01*
X147985714Y-98842857D01*
X147985714Y-98938095D01*
X147938095Y-99080952D01*
X147366666Y-99652380D01*
X147985714Y-99652380D01*
X147133333Y-108557142D02*
X147085714Y-108604761D01*
X146942857Y-108652380D01*
X146847619Y-108652380D01*
X146704761Y-108604761D01*
X146609523Y-108509523D01*
X146561904Y-108414285D01*
X146514285Y-108223809D01*
X146514285Y-108080952D01*
X146561904Y-107890476D01*
X146609523Y-107795238D01*
X146704761Y-107700000D01*
X146847619Y-107652380D01*
X146942857Y-107652380D01*
X147085714Y-107700000D01*
X147133333Y-107747619D01*
X147514285Y-107747619D02*
X147561904Y-107700000D01*
X147657142Y-107652380D01*
X147895238Y-107652380D01*
X147990476Y-107700000D01*
X148038095Y-107747619D01*
X148085714Y-107842857D01*
X148085714Y-107938095D01*
X148038095Y-108080952D01*
X147466666Y-108652380D01*
X148085714Y-108652380D01*
X133433333Y-108657142D02*
X133385714Y-108704761D01*
X133242857Y-108752380D01*
X133147619Y-108752380D01*
X133004761Y-108704761D01*
X132909523Y-108609523D01*
X132861904Y-108514285D01*
X132814285Y-108323809D01*
X132814285Y-108180952D01*
X132861904Y-107990476D01*
X132909523Y-107895238D01*
X133004761Y-107800000D01*
X133147619Y-107752380D01*
X133242857Y-107752380D01*
X133385714Y-107800000D01*
X133433333Y-107847619D01*
X134385714Y-108752380D02*
X133814285Y-108752380D01*
X134100000Y-108752380D02*
X134100000Y-107752380D01*
X134004761Y-107895238D01*
X133909523Y-107990476D01*
X133814285Y-108038095D01*
X133333333Y-99752380D02*
X133000000Y-99276190D01*
X132761904Y-99752380D02*
X132761904Y-98752380D01*
X133142857Y-98752380D01*
X133238095Y-98800000D01*
X133285714Y-98847619D01*
X133333333Y-98942857D01*
X133333333Y-99085714D01*
X133285714Y-99180952D01*
X133238095Y-99228571D01*
X133142857Y-99276190D01*
X132761904Y-99276190D01*
X134285714Y-99752380D02*
X133714285Y-99752380D01*
X134000000Y-99752380D02*
X134000000Y-98752380D01*
X133904761Y-98895238D01*
X133809523Y-98990476D01*
X133714285Y-99038095D01*
D11*
X177300000Y-84000000D02*
X177300000Y-69250000D01*
X172100000Y-84000000D02*
X177300000Y-84000000D01*
X172100000Y-69250000D02*
X172100000Y-84000000D01*
X177300000Y-69250000D02*
X172100000Y-69250000D01*
X177600000Y-69000000D02*
X171850000Y-69000000D01*
X171850000Y-69000000D02*
X171850000Y-84250000D01*
X177600000Y-84250000D02*
X177600000Y-69000000D01*
X171850000Y-84250000D02*
X177600000Y-84250000D01*
D10*
X173602380Y-80752380D02*
X172602380Y-80752380D01*
X172602380Y-80371428D01*
X172650000Y-80276190D01*
X172697619Y-80228571D01*
X172792857Y-80180952D01*
X172935714Y-80180952D01*
X173030952Y-80228571D01*
X173078571Y-80276190D01*
X173126190Y-80371428D01*
X173126190Y-80752380D01*
X173554761Y-79800000D02*
X173602380Y-79657142D01*
X173602380Y-79419047D01*
X173554761Y-79323809D01*
X173507142Y-79276190D01*
X173411904Y-79228571D01*
X173316666Y-79228571D01*
X173221428Y-79276190D01*
X173173809Y-79323809D01*
X173126190Y-79419047D01*
X173078571Y-79609523D01*
X173030952Y-79704761D01*
X172983333Y-79752380D01*
X172888095Y-79800000D01*
X172792857Y-79800000D01*
X172697619Y-79752380D01*
X172650000Y-79704761D01*
X172602380Y-79609523D01*
X172602380Y-79371428D01*
X172650000Y-79228571D01*
X172602380Y-78609523D02*
X172602380Y-78419047D01*
X172650000Y-78323809D01*
X172745238Y-78228571D01*
X172935714Y-78180952D01*
X173269047Y-78180952D01*
X173459523Y-78228571D01*
X173554761Y-78323809D01*
X173602380Y-78419047D01*
X173602380Y-78609523D01*
X173554761Y-78704761D01*
X173459523Y-78800000D01*
X173269047Y-78847619D01*
X172935714Y-78847619D01*
X172745238Y-78800000D01*
X172650000Y-78704761D01*
X172602380Y-78609523D01*
X173507142Y-77180952D02*
X173554761Y-77228571D01*
X173602380Y-77371428D01*
X173602380Y-77466666D01*
X173554761Y-77609523D01*
X173459523Y-77704761D01*
X173364285Y-77752380D01*
X173173809Y-77800000D01*
X173030952Y-77800000D01*
X172840476Y-77752380D01*
X172745238Y-77704761D01*
X172650000Y-77609523D01*
X172602380Y-77466666D01*
X172602380Y-77371428D01*
X172650000Y-77228571D01*
X172697619Y-77180952D01*
X173554761Y-76038095D02*
X173602380Y-75895238D01*
X173602380Y-75657142D01*
X173554761Y-75561904D01*
X173507142Y-75514285D01*
X173411904Y-75466666D01*
X173316666Y-75466666D01*
X173221428Y-75514285D01*
X173173809Y-75561904D01*
X173126190Y-75657142D01*
X173078571Y-75847619D01*
X173030952Y-75942857D01*
X172983333Y-75990476D01*
X172888095Y-76038095D01*
X172792857Y-76038095D01*
X172697619Y-75990476D01*
X172650000Y-75942857D01*
X172602380Y-75847619D01*
X172602380Y-75609523D01*
X172650000Y-75466666D01*
X173602380Y-75038095D02*
X172602380Y-75038095D01*
X173602380Y-74609523D02*
X173078571Y-74609523D01*
X172983333Y-74657142D01*
X172935714Y-74752380D01*
X172935714Y-74895238D01*
X172983333Y-74990476D01*
X173030952Y-75038095D01*
X173602380Y-74133333D02*
X172935714Y-74133333D01*
X172602380Y-74133333D02*
X172650000Y-74180952D01*
X172697619Y-74133333D01*
X172650000Y-74085714D01*
X172602380Y-74133333D01*
X172697619Y-74133333D01*
X173554761Y-73276190D02*
X173602380Y-73371428D01*
X173602380Y-73561904D01*
X173554761Y-73657142D01*
X173459523Y-73704761D01*
X173078571Y-73704761D01*
X172983333Y-73657142D01*
X172935714Y-73561904D01*
X172935714Y-73371428D01*
X172983333Y-73276190D01*
X173078571Y-73228571D01*
X173173809Y-73228571D01*
X173269047Y-73704761D01*
X173602380Y-72657142D02*
X173554761Y-72752380D01*
X173459523Y-72800000D01*
X172602380Y-72800000D01*
X173602380Y-71847619D02*
X172602380Y-71847619D01*
X173554761Y-71847619D02*
X173602380Y-71942857D01*
X173602380Y-72133333D01*
X173554761Y-72228571D01*
X173507142Y-72276190D01*
X173411904Y-72323809D01*
X173126190Y-72323809D01*
X173030952Y-72276190D01*
X172983333Y-72228571D01*
X172935714Y-72133333D01*
X172935714Y-71942857D01*
X172983333Y-71847619D01*
X174585714Y-79752380D02*
X174585714Y-79371428D01*
X175252380Y-79609523D02*
X174395238Y-79609523D01*
X174300000Y-79561904D01*
X174252380Y-79466666D01*
X174252380Y-79371428D01*
X175252380Y-78895238D02*
X175204761Y-78990476D01*
X175157142Y-79038095D01*
X175061904Y-79085714D01*
X174776190Y-79085714D01*
X174680952Y-79038095D01*
X174633333Y-78990476D01*
X174585714Y-78895238D01*
X174585714Y-78752380D01*
X174633333Y-78657142D01*
X174680952Y-78609523D01*
X174776190Y-78561904D01*
X175061904Y-78561904D01*
X175157142Y-78609523D01*
X175204761Y-78657142D01*
X175252380Y-78752380D01*
X175252380Y-78895238D01*
X175252380Y-78133333D02*
X174585714Y-78133333D01*
X174776190Y-78133333D02*
X174680952Y-78085714D01*
X174633333Y-78038095D01*
X174585714Y-77942857D01*
X174585714Y-77847619D01*
X175252380Y-76752380D02*
X174252380Y-76752380D01*
X174252380Y-76371428D01*
X174300000Y-76276190D01*
X174347619Y-76228571D01*
X174442857Y-76180952D01*
X174585714Y-76180952D01*
X174680952Y-76228571D01*
X174728571Y-76276190D01*
X174776190Y-76371428D01*
X174776190Y-76752380D01*
X175252380Y-75323809D02*
X174728571Y-75323809D01*
X174633333Y-75371428D01*
X174585714Y-75466666D01*
X174585714Y-75657142D01*
X174633333Y-75752380D01*
X175204761Y-75323809D02*
X175252380Y-75419047D01*
X175252380Y-75657142D01*
X175204761Y-75752380D01*
X175109523Y-75800000D01*
X175014285Y-75800000D01*
X174919047Y-75752380D01*
X174871428Y-75657142D01*
X174871428Y-75419047D01*
X174823809Y-75323809D01*
X174585714Y-74990476D02*
X174585714Y-74609523D01*
X174252380Y-74847619D02*
X175109523Y-74847619D01*
X175204761Y-74800000D01*
X175252380Y-74704761D01*
X175252380Y-74609523D01*
X175204761Y-73847619D02*
X175252380Y-73942857D01*
X175252380Y-74133333D01*
X175204761Y-74228571D01*
X175157142Y-74276190D01*
X175061904Y-74323809D01*
X174776190Y-74323809D01*
X174680952Y-74276190D01*
X174633333Y-74228571D01*
X174585714Y-74133333D01*
X174585714Y-73942857D01*
X174633333Y-73847619D01*
X175252380Y-73419047D02*
X174252380Y-73419047D01*
X175252380Y-72990476D02*
X174728571Y-72990476D01*
X174633333Y-73038095D01*
X174585714Y-73133333D01*
X174585714Y-73276190D01*
X174633333Y-73371428D01*
X174680952Y-73419047D01*
X175902380Y-77823809D02*
X176902380Y-77490476D01*
X175902380Y-77157142D01*
X175902380Y-76633333D02*
X175902380Y-76538095D01*
X175950000Y-76442857D01*
X175997619Y-76395238D01*
X176092857Y-76347619D01*
X176283333Y-76300000D01*
X176521428Y-76300000D01*
X176711904Y-76347619D01*
X176807142Y-76395238D01*
X176854761Y-76442857D01*
X176902380Y-76538095D01*
X176902380Y-76633333D01*
X176854761Y-76728571D01*
X176807142Y-76776190D01*
X176711904Y-76823809D01*
X176521428Y-76871428D01*
X176283333Y-76871428D01*
X176092857Y-76823809D01*
X175997619Y-76776190D01*
X175950000Y-76728571D01*
X175902380Y-76633333D01*
X176807142Y-75871428D02*
X176854761Y-75823809D01*
X176902380Y-75871428D01*
X176854761Y-75919047D01*
X176807142Y-75871428D01*
X176902380Y-75871428D01*
X175997619Y-75442857D02*
X175950000Y-75395238D01*
X175902380Y-75300000D01*
X175902380Y-75061904D01*
X175950000Y-74966666D01*
X175997619Y-74919047D01*
X176092857Y-74871428D01*
X176188095Y-74871428D01*
X176330952Y-74919047D01*
X176902380Y-75490476D01*
X176902380Y-74871428D01*
D11*
X107400000Y-110200000D02*
X121900000Y-110200000D01*
X107400000Y-90700000D02*
X107400000Y-110200000D01*
X121900000Y-90700000D02*
X107400000Y-90700000D01*
X121900000Y-110200000D02*
X121900000Y-90700000D01*
D10*
X111972619Y-105852380D02*
X112448809Y-105519047D01*
X111972619Y-105280952D02*
X112972619Y-105280952D01*
X112972619Y-105661904D01*
X112925000Y-105757142D01*
X112877380Y-105804761D01*
X112782142Y-105852380D01*
X112639285Y-105852380D01*
X112544047Y-105804761D01*
X112496428Y-105757142D01*
X112448809Y-105661904D01*
X112448809Y-105280952D01*
X112496428Y-106280952D02*
X112496428Y-106614285D01*
X111972619Y-106757142D02*
X111972619Y-106280952D01*
X112972619Y-106280952D01*
X112972619Y-106757142D01*
X112496428Y-107519047D02*
X112496428Y-107185714D01*
X111972619Y-107185714D02*
X112972619Y-107185714D01*
X112972619Y-107661904D01*
X112877380Y-107995238D02*
X112925000Y-108042857D01*
X112972619Y-108138095D01*
X112972619Y-108376190D01*
X112925000Y-108471428D01*
X112877380Y-108519047D01*
X112782142Y-108566666D01*
X112686904Y-108566666D01*
X112544047Y-108519047D01*
X111972619Y-107947619D01*
X111972619Y-108566666D01*
X110322619Y-106614285D02*
X110322619Y-106042857D01*
X110322619Y-106328571D02*
X111322619Y-106328571D01*
X111179761Y-106233333D01*
X111084523Y-106138095D01*
X111036904Y-106042857D01*
X110322619Y-107042857D02*
X111322619Y-107042857D01*
X110608333Y-107376190D01*
X111322619Y-107709523D01*
X110322619Y-107709523D01*
X111972619Y-101352380D02*
X112448809Y-101019047D01*
X111972619Y-100780952D02*
X112972619Y-100780952D01*
X112972619Y-101161904D01*
X112925000Y-101257142D01*
X112877380Y-101304761D01*
X112782142Y-101352380D01*
X112639285Y-101352380D01*
X112544047Y-101304761D01*
X112496428Y-101257142D01*
X112448809Y-101161904D01*
X112448809Y-100780952D01*
X112496428Y-101780952D02*
X112496428Y-102114285D01*
X111972619Y-102257142D02*
X111972619Y-101780952D01*
X112972619Y-101780952D01*
X112972619Y-102257142D01*
X112496428Y-103019047D02*
X112496428Y-102685714D01*
X111972619Y-102685714D02*
X112972619Y-102685714D01*
X112972619Y-103161904D01*
X111972619Y-104066666D02*
X111972619Y-103495238D01*
X111972619Y-103780952D02*
X112972619Y-103780952D01*
X112829761Y-103685714D01*
X112734523Y-103590476D01*
X112686904Y-103495238D01*
X110322619Y-101233333D02*
X110322619Y-100661904D01*
X110322619Y-100947619D02*
X111322619Y-100947619D01*
X111179761Y-100852380D01*
X111084523Y-100757142D01*
X111036904Y-100661904D01*
X111322619Y-101852380D02*
X111322619Y-101947619D01*
X111275000Y-102042857D01*
X111227380Y-102090476D01*
X111132142Y-102138095D01*
X110941666Y-102185714D01*
X110703571Y-102185714D01*
X110513095Y-102138095D01*
X110417857Y-102090476D01*
X110370238Y-102042857D01*
X110322619Y-101947619D01*
X110322619Y-101852380D01*
X110370238Y-101757142D01*
X110417857Y-101709523D01*
X110513095Y-101661904D01*
X110703571Y-101614285D01*
X110941666Y-101614285D01*
X111132142Y-101661904D01*
X111227380Y-101709523D01*
X111275000Y-101757142D01*
X111322619Y-101852380D01*
X111322619Y-102804761D02*
X111322619Y-102900000D01*
X111275000Y-102995238D01*
X111227380Y-103042857D01*
X111132142Y-103090476D01*
X110941666Y-103138095D01*
X110703571Y-103138095D01*
X110513095Y-103090476D01*
X110417857Y-103042857D01*
X110370238Y-102995238D01*
X110322619Y-102900000D01*
X110322619Y-102804761D01*
X110370238Y-102709523D01*
X110417857Y-102661904D01*
X110513095Y-102614285D01*
X110703571Y-102566666D01*
X110941666Y-102566666D01*
X111132142Y-102614285D01*
X111227380Y-102661904D01*
X111275000Y-102709523D01*
X111322619Y-102804761D01*
X110322619Y-103566666D02*
X111322619Y-103566666D01*
X110322619Y-104138095D02*
X110894047Y-103709523D01*
X111322619Y-104138095D02*
X110751190Y-103566666D01*
X111972619Y-96852380D02*
X112448809Y-96519047D01*
X111972619Y-96280952D02*
X112972619Y-96280952D01*
X112972619Y-96661904D01*
X112925000Y-96757142D01*
X112877380Y-96804761D01*
X112782142Y-96852380D01*
X112639285Y-96852380D01*
X112544047Y-96804761D01*
X112496428Y-96757142D01*
X112448809Y-96661904D01*
X112448809Y-96280952D01*
X112496428Y-97280952D02*
X112496428Y-97614285D01*
X111972619Y-97757142D02*
X111972619Y-97280952D01*
X112972619Y-97280952D01*
X112972619Y-97757142D01*
X112496428Y-98519047D02*
X112496428Y-98185714D01*
X111972619Y-98185714D02*
X112972619Y-98185714D01*
X112972619Y-98661904D01*
X112972619Y-99233333D02*
X112972619Y-99328571D01*
X112925000Y-99423809D01*
X112877380Y-99471428D01*
X112782142Y-99519047D01*
X112591666Y-99566666D01*
X112353571Y-99566666D01*
X112163095Y-99519047D01*
X112067857Y-99471428D01*
X112020238Y-99423809D01*
X111972619Y-99328571D01*
X111972619Y-99233333D01*
X112020238Y-99138095D01*
X112067857Y-99090476D01*
X112163095Y-99042857D01*
X112353571Y-98995238D01*
X112591666Y-98995238D01*
X112782142Y-99042857D01*
X112877380Y-99090476D01*
X112925000Y-99138095D01*
X112972619Y-99233333D01*
X110322619Y-97209523D02*
X110322619Y-96638095D01*
X110322619Y-96923809D02*
X111322619Y-96923809D01*
X111179761Y-96828571D01*
X111084523Y-96733333D01*
X111036904Y-96638095D01*
X111322619Y-97828571D02*
X111322619Y-97923809D01*
X111275000Y-98019047D01*
X111227380Y-98066666D01*
X111132142Y-98114285D01*
X110941666Y-98161904D01*
X110703571Y-98161904D01*
X110513095Y-98114285D01*
X110417857Y-98066666D01*
X110370238Y-98019047D01*
X110322619Y-97923809D01*
X110322619Y-97828571D01*
X110370238Y-97733333D01*
X110417857Y-97685714D01*
X110513095Y-97638095D01*
X110703571Y-97590476D01*
X110941666Y-97590476D01*
X111132142Y-97638095D01*
X111227380Y-97685714D01*
X111275000Y-97733333D01*
X111322619Y-97828571D01*
X110322619Y-98590476D02*
X111322619Y-98590476D01*
X110322619Y-99161904D02*
X110894047Y-98733333D01*
X111322619Y-99161904D02*
X110751190Y-98590476D01*
X111719047Y-93452380D02*
X111385714Y-92976190D01*
X111147619Y-93452380D02*
X111147619Y-92452380D01*
X111528571Y-92452380D01*
X111623809Y-92500000D01*
X111671428Y-92547619D01*
X111719047Y-92642857D01*
X111719047Y-92785714D01*
X111671428Y-92880952D01*
X111623809Y-92928571D01*
X111528571Y-92976190D01*
X111147619Y-92976190D01*
X112528571Y-93404761D02*
X112433333Y-93452380D01*
X112242857Y-93452380D01*
X112147619Y-93404761D01*
X112100000Y-93309523D01*
X112100000Y-92928571D01*
X112147619Y-92833333D01*
X112242857Y-92785714D01*
X112433333Y-92785714D01*
X112528571Y-92833333D01*
X112576190Y-92928571D01*
X112576190Y-93023809D01*
X112100000Y-93119047D01*
X112861904Y-92785714D02*
X113242857Y-92785714D01*
X113004761Y-93452380D02*
X113004761Y-92595238D01*
X113052380Y-92500000D01*
X113147619Y-92452380D01*
X113242857Y-92452380D01*
X113957142Y-93404761D02*
X113861904Y-93452380D01*
X113671428Y-93452380D01*
X113576190Y-93404761D01*
X113528571Y-93309523D01*
X113528571Y-92928571D01*
X113576190Y-92833333D01*
X113671428Y-92785714D01*
X113861904Y-92785714D01*
X113957142Y-92833333D01*
X114004761Y-92928571D01*
X114004761Y-93023809D01*
X113528571Y-93119047D01*
X114433333Y-93452380D02*
X114433333Y-92785714D01*
X114433333Y-92976190D02*
X114480952Y-92880952D01*
X114528571Y-92833333D01*
X114623809Y-92785714D01*
X114719047Y-92785714D01*
X115433333Y-93404761D02*
X115338095Y-93452380D01*
X115147619Y-93452380D01*
X115052380Y-93404761D01*
X115004761Y-93309523D01*
X115004761Y-92928571D01*
X115052380Y-92833333D01*
X115147619Y-92785714D01*
X115338095Y-92785714D01*
X115433333Y-92833333D01*
X115480952Y-92928571D01*
X115480952Y-93023809D01*
X115004761Y-93119047D01*
X115909523Y-92785714D02*
X115909523Y-93452380D01*
X115909523Y-92880952D02*
X115957142Y-92833333D01*
X116052380Y-92785714D01*
X116195238Y-92785714D01*
X116290476Y-92833333D01*
X116338095Y-92928571D01*
X116338095Y-93452380D01*
X117242857Y-93404761D02*
X117147619Y-93452380D01*
X116957142Y-93452380D01*
X116861904Y-93404761D01*
X116814285Y-93357142D01*
X116766666Y-93261904D01*
X116766666Y-92976190D01*
X116814285Y-92880952D01*
X116861904Y-92833333D01*
X116957142Y-92785714D01*
X117147619Y-92785714D01*
X117242857Y-92833333D01*
X118052380Y-93404761D02*
X117957142Y-93452380D01*
X117766666Y-93452380D01*
X117671428Y-93404761D01*
X117623809Y-93309523D01*
X117623809Y-92928571D01*
X117671428Y-92833333D01*
X117766666Y-92785714D01*
X117957142Y-92785714D01*
X118052380Y-92833333D01*
X118100000Y-92928571D01*
X118100000Y-93023809D01*
X117623809Y-93119047D01*
X132352380Y-83104761D02*
X132352380Y-83676190D01*
X132352380Y-83390476D02*
X131352380Y-83390476D01*
X131495238Y-83485714D01*
X131590476Y-83580952D01*
X131638095Y-83676190D01*
X131352380Y-82771428D02*
X131352380Y-82152380D01*
X131733333Y-82485714D01*
X131733333Y-82342857D01*
X131780952Y-82247619D01*
X131828571Y-82200000D01*
X131923809Y-82152380D01*
X132161904Y-82152380D01*
X132257142Y-82200000D01*
X132304761Y-82247619D01*
X132352380Y-82342857D01*
X132352380Y-82628571D01*
X132304761Y-82723809D01*
X132257142Y-82771428D01*
X132257142Y-81723809D02*
X132304761Y-81676190D01*
X132352380Y-81723809D01*
X132304761Y-81771428D01*
X132257142Y-81723809D01*
X132352380Y-81723809D01*
X131352380Y-81057142D02*
X131352380Y-80961904D01*
X131400000Y-80866666D01*
X131447619Y-80819047D01*
X131542857Y-80771428D01*
X131733333Y-80723809D01*
X131971428Y-80723809D01*
X132161904Y-80771428D01*
X132257142Y-80819047D01*
X132304761Y-80866666D01*
X132352380Y-80961904D01*
X132352380Y-81057142D01*
X132304761Y-81152380D01*
X132257142Y-81200000D01*
X132161904Y-81247619D01*
X131971428Y-81295238D01*
X131733333Y-81295238D01*
X131542857Y-81247619D01*
X131447619Y-81200000D01*
X131400000Y-81152380D01*
X131352380Y-81057142D01*
X109733333Y-86414285D02*
X109685714Y-86461904D01*
X109542857Y-86557142D01*
X109447619Y-86604761D01*
X109304761Y-86652380D01*
X109066666Y-86700000D01*
X108876190Y-86700000D01*
X108638095Y-86652380D01*
X108495238Y-86604761D01*
X108400000Y-86557142D01*
X108257142Y-86461904D01*
X108209523Y-86414285D01*
X109304761Y-86080952D02*
X109352380Y-85938095D01*
X109352380Y-85700000D01*
X109304761Y-85604761D01*
X109257142Y-85557142D01*
X109161904Y-85509523D01*
X109066666Y-85509523D01*
X108971428Y-85557142D01*
X108923809Y-85604761D01*
X108876190Y-85700000D01*
X108828571Y-85890476D01*
X108780952Y-85985714D01*
X108733333Y-86033333D01*
X108638095Y-86080952D01*
X108542857Y-86080952D01*
X108447619Y-86033333D01*
X108400000Y-85985714D01*
X108352380Y-85890476D01*
X108352380Y-85652380D01*
X108400000Y-85509523D01*
X109257142Y-84509523D02*
X109304761Y-84557142D01*
X109352380Y-84700000D01*
X109352380Y-84795238D01*
X109304761Y-84938095D01*
X109209523Y-85033333D01*
X109114285Y-85080952D01*
X108923809Y-85128571D01*
X108780952Y-85128571D01*
X108590476Y-85080952D01*
X108495238Y-85033333D01*
X108400000Y-84938095D01*
X108352380Y-84795238D01*
X108352380Y-84700000D01*
X108400000Y-84557142D01*
X108447619Y-84509523D01*
X109352380Y-83604761D02*
X109352380Y-84080952D01*
X108352380Y-84080952D01*
X109733333Y-83366666D02*
X109685714Y-83319047D01*
X109542857Y-83223809D01*
X109447619Y-83176190D01*
X109304761Y-83128571D01*
X109066666Y-83080952D01*
X108876190Y-83080952D01*
X108638095Y-83128571D01*
X108495238Y-83176190D01*
X108400000Y-83223809D01*
X108257142Y-83319047D01*
X108209523Y-83366666D01*
X108352380Y-82176190D02*
X108352380Y-82366666D01*
X108400000Y-82461904D01*
X108447619Y-82509523D01*
X108590476Y-82604761D01*
X108780952Y-82652380D01*
X109161904Y-82652380D01*
X109257142Y-82604761D01*
X109304761Y-82557142D01*
X109352380Y-82461904D01*
X109352380Y-82271428D01*
X109304761Y-82176190D01*
X109257142Y-82128571D01*
X109161904Y-82080952D01*
X108923809Y-82080952D01*
X108828571Y-82128571D01*
X108780952Y-82176190D01*
X108733333Y-82271428D01*
X108733333Y-82461904D01*
X108780952Y-82557142D01*
X108828571Y-82604761D01*
X108923809Y-82652380D01*
X109257142Y-81652380D02*
X109304761Y-81604761D01*
X109352380Y-81652380D01*
X109304761Y-81700000D01*
X109257142Y-81652380D01*
X109352380Y-81652380D01*
X108352380Y-80985714D02*
X108352380Y-80890476D01*
X108400000Y-80795238D01*
X108447619Y-80747619D01*
X108542857Y-80700000D01*
X108733333Y-80652380D01*
X108971428Y-80652380D01*
X109161904Y-80700000D01*
X109257142Y-80747619D01*
X109304761Y-80795238D01*
X109352380Y-80890476D01*
X109352380Y-80985714D01*
X109304761Y-81080952D01*
X109257142Y-81128571D01*
X109161904Y-81176190D01*
X108971428Y-81223809D01*
X108733333Y-81223809D01*
X108542857Y-81176190D01*
X108447619Y-81128571D01*
X108400000Y-81080952D01*
X108352380Y-80985714D01*
X124352380Y-83104761D02*
X124352380Y-83676190D01*
X124352380Y-83390476D02*
X123352380Y-83390476D01*
X123495238Y-83485714D01*
X123590476Y-83580952D01*
X123638095Y-83676190D01*
X123447619Y-82723809D02*
X123400000Y-82676190D01*
X123352380Y-82580952D01*
X123352380Y-82342857D01*
X123400000Y-82247619D01*
X123447619Y-82200000D01*
X123542857Y-82152380D01*
X123638095Y-82152380D01*
X123780952Y-82200000D01*
X124352380Y-82771428D01*
X124352380Y-82152380D01*
X124257142Y-81723809D02*
X124304761Y-81676190D01*
X124352380Y-81723809D01*
X124304761Y-81771428D01*
X124257142Y-81723809D01*
X124352380Y-81723809D01*
X123352380Y-81057142D02*
X123352380Y-80961904D01*
X123400000Y-80866666D01*
X123447619Y-80819047D01*
X123542857Y-80771428D01*
X123733333Y-80723809D01*
X123971428Y-80723809D01*
X124161904Y-80771428D01*
X124257142Y-80819047D01*
X124304761Y-80866666D01*
X124352380Y-80961904D01*
X124352380Y-81057142D01*
X124304761Y-81152380D01*
X124257142Y-81200000D01*
X124161904Y-81247619D01*
X123971428Y-81295238D01*
X123733333Y-81295238D01*
X123542857Y-81247619D01*
X123447619Y-81200000D01*
X123400000Y-81152380D01*
X123352380Y-81057142D01*
X119577380Y-83104761D02*
X119577380Y-83676190D01*
X119577380Y-83390476D02*
X118577380Y-83390476D01*
X118720238Y-83485714D01*
X118815476Y-83580952D01*
X118863095Y-83676190D01*
X118672619Y-82723809D02*
X118625000Y-82676190D01*
X118577380Y-82580952D01*
X118577380Y-82342857D01*
X118625000Y-82247619D01*
X118672619Y-82200000D01*
X118767857Y-82152380D01*
X118863095Y-82152380D01*
X119005952Y-82200000D01*
X119577380Y-82771428D01*
X119577380Y-82152380D01*
X119482142Y-81723809D02*
X119529761Y-81676190D01*
X119577380Y-81723809D01*
X119529761Y-81771428D01*
X119482142Y-81723809D01*
X119577380Y-81723809D01*
X118672619Y-81295238D02*
X118625000Y-81247619D01*
X118577380Y-81152380D01*
X118577380Y-80914285D01*
X118625000Y-80819047D01*
X118672619Y-80771428D01*
X118767857Y-80723809D01*
X118863095Y-80723809D01*
X119005952Y-80771428D01*
X119577380Y-81342857D01*
X119577380Y-80723809D01*
X113377380Y-84114285D02*
X114377380Y-83780952D01*
X113377380Y-83447619D01*
X114377380Y-82542857D02*
X113901190Y-82876190D01*
X114377380Y-83114285D02*
X113377380Y-83114285D01*
X113377380Y-82733333D01*
X113425000Y-82638095D01*
X113472619Y-82590476D01*
X113567857Y-82542857D01*
X113710714Y-82542857D01*
X113805952Y-82590476D01*
X113853571Y-82638095D01*
X113901190Y-82733333D01*
X113901190Y-83114285D01*
X113853571Y-82114285D02*
X113853571Y-81780952D01*
X114377380Y-81638095D02*
X114377380Y-82114285D01*
X113377380Y-82114285D01*
X113377380Y-81638095D01*
X113853571Y-80876190D02*
X113853571Y-81209523D01*
X114377380Y-81209523D02*
X113377380Y-81209523D01*
X113377380Y-80733333D01*
X127177380Y-83104761D02*
X127177380Y-83676190D01*
X127177380Y-83390476D02*
X126177380Y-83390476D01*
X126320238Y-83485714D01*
X126415476Y-83580952D01*
X126463095Y-83676190D01*
X126272619Y-82723809D02*
X126225000Y-82676190D01*
X126177380Y-82580952D01*
X126177380Y-82342857D01*
X126225000Y-82247619D01*
X126272619Y-82200000D01*
X126367857Y-82152380D01*
X126463095Y-82152380D01*
X126605952Y-82200000D01*
X127177380Y-82771428D01*
X127177380Y-82152380D01*
X127082142Y-81723809D02*
X127129761Y-81676190D01*
X127177380Y-81723809D01*
X127129761Y-81771428D01*
X127082142Y-81723809D01*
X127177380Y-81723809D01*
X126177380Y-81342857D02*
X126177380Y-80723809D01*
X126558333Y-81057142D01*
X126558333Y-80914285D01*
X126605952Y-80819047D01*
X126653571Y-80771428D01*
X126748809Y-80723809D01*
X126986904Y-80723809D01*
X127082142Y-80771428D01*
X127129761Y-80819047D01*
X127177380Y-80914285D01*
X127177380Y-81200000D01*
X127129761Y-81295238D01*
X127082142Y-81342857D01*
X129777380Y-83204761D02*
X129777380Y-83776190D01*
X129777380Y-83490476D02*
X128777380Y-83490476D01*
X128920238Y-83585714D01*
X129015476Y-83680952D01*
X129063095Y-83776190D01*
X128777380Y-82871428D02*
X128777380Y-82252380D01*
X129158333Y-82585714D01*
X129158333Y-82442857D01*
X129205952Y-82347619D01*
X129253571Y-82300000D01*
X129348809Y-82252380D01*
X129586904Y-82252380D01*
X129682142Y-82300000D01*
X129729761Y-82347619D01*
X129777380Y-82442857D01*
X129777380Y-82728571D01*
X129729761Y-82823809D01*
X129682142Y-82871428D01*
X129682142Y-81823809D02*
X129729761Y-81776190D01*
X129777380Y-81823809D01*
X129729761Y-81871428D01*
X129682142Y-81823809D01*
X129777380Y-81823809D01*
X129777380Y-80823809D02*
X129777380Y-81395238D01*
X129777380Y-81109523D02*
X128777380Y-81109523D01*
X128920238Y-81204761D01*
X129015476Y-81300000D01*
X129063095Y-81395238D01*
X112233333Y-86438095D02*
X112185714Y-86485714D01*
X112042857Y-86580952D01*
X111947619Y-86628571D01*
X111804761Y-86676190D01*
X111566666Y-86723809D01*
X111376190Y-86723809D01*
X111138095Y-86676190D01*
X110995238Y-86628571D01*
X110900000Y-86580952D01*
X110757142Y-86485714D01*
X110709523Y-86438095D01*
X111804761Y-86104761D02*
X111852380Y-85961904D01*
X111852380Y-85723809D01*
X111804761Y-85628571D01*
X111757142Y-85580952D01*
X111661904Y-85533333D01*
X111566666Y-85533333D01*
X111471428Y-85580952D01*
X111423809Y-85628571D01*
X111376190Y-85723809D01*
X111328571Y-85914285D01*
X111280952Y-86009523D01*
X111233333Y-86057142D01*
X111138095Y-86104761D01*
X111042857Y-86104761D01*
X110947619Y-86057142D01*
X110900000Y-86009523D01*
X110852380Y-85914285D01*
X110852380Y-85676190D01*
X110900000Y-85533333D01*
X111852380Y-85104761D02*
X110852380Y-85104761D01*
X110852380Y-84866666D01*
X110900000Y-84723809D01*
X110995238Y-84628571D01*
X111090476Y-84580952D01*
X111280952Y-84533333D01*
X111423809Y-84533333D01*
X111614285Y-84580952D01*
X111709523Y-84628571D01*
X111804761Y-84723809D01*
X111852380Y-84866666D01*
X111852380Y-85104761D01*
X111566666Y-84152380D02*
X111566666Y-83676190D01*
X111852380Y-84247619D02*
X110852380Y-83914285D01*
X111852380Y-83580952D01*
X112233333Y-83342857D02*
X112185714Y-83295238D01*
X112042857Y-83200000D01*
X111947619Y-83152380D01*
X111804761Y-83104761D01*
X111566666Y-83057142D01*
X111376190Y-83057142D01*
X111138095Y-83104761D01*
X110995238Y-83152380D01*
X110900000Y-83200000D01*
X110757142Y-83295238D01*
X110709523Y-83342857D01*
X110852380Y-82152380D02*
X110852380Y-82342857D01*
X110900000Y-82438095D01*
X110947619Y-82485714D01*
X111090476Y-82580952D01*
X111280952Y-82628571D01*
X111661904Y-82628571D01*
X111757142Y-82580952D01*
X111804761Y-82533333D01*
X111852380Y-82438095D01*
X111852380Y-82247619D01*
X111804761Y-82152380D01*
X111757142Y-82104761D01*
X111661904Y-82057142D01*
X111423809Y-82057142D01*
X111328571Y-82104761D01*
X111280952Y-82152380D01*
X111233333Y-82247619D01*
X111233333Y-82438095D01*
X111280952Y-82533333D01*
X111328571Y-82580952D01*
X111423809Y-82628571D01*
X111757142Y-81628571D02*
X111804761Y-81580952D01*
X111852380Y-81628571D01*
X111804761Y-81676190D01*
X111757142Y-81628571D01*
X111852380Y-81628571D01*
X111852380Y-80628571D02*
X111852380Y-81200000D01*
X111852380Y-80914285D02*
X110852380Y-80914285D01*
X110995238Y-81009523D01*
X111090476Y-81104761D01*
X111138095Y-81200000D01*
X116025000Y-83161904D02*
X115977380Y-83257142D01*
X115977380Y-83400000D01*
X116025000Y-83542857D01*
X116120238Y-83638095D01*
X116215476Y-83685714D01*
X116405952Y-83733333D01*
X116548809Y-83733333D01*
X116739285Y-83685714D01*
X116834523Y-83638095D01*
X116929761Y-83542857D01*
X116977380Y-83400000D01*
X116977380Y-83304761D01*
X116929761Y-83161904D01*
X116882142Y-83114285D01*
X116548809Y-83114285D01*
X116548809Y-83304761D01*
X116977380Y-82685714D02*
X115977380Y-82685714D01*
X116977380Y-82114285D01*
X115977380Y-82114285D01*
X116977380Y-81638095D02*
X115977380Y-81638095D01*
X115977380Y-81400000D01*
X116025000Y-81257142D01*
X116120238Y-81161904D01*
X116215476Y-81114285D01*
X116405952Y-81066666D01*
X116548809Y-81066666D01*
X116739285Y-81114285D01*
X116834523Y-81161904D01*
X116929761Y-81257142D01*
X116977380Y-81400000D01*
X116977380Y-81638095D01*
X122077380Y-83104761D02*
X122077380Y-83676190D01*
X122077380Y-83390476D02*
X121077380Y-83390476D01*
X121220238Y-83485714D01*
X121315476Y-83580952D01*
X121363095Y-83676190D01*
X121172619Y-82723809D02*
X121125000Y-82676190D01*
X121077380Y-82580952D01*
X121077380Y-82342857D01*
X121125000Y-82247619D01*
X121172619Y-82200000D01*
X121267857Y-82152380D01*
X121363095Y-82152380D01*
X121505952Y-82200000D01*
X122077380Y-82771428D01*
X122077380Y-82152380D01*
X121982142Y-81723809D02*
X122029761Y-81676190D01*
X122077380Y-81723809D01*
X122029761Y-81771428D01*
X121982142Y-81723809D01*
X122077380Y-81723809D01*
X122077380Y-80723809D02*
X122077380Y-81295238D01*
X122077380Y-81009523D02*
X121077380Y-81009523D01*
X121220238Y-81104761D01*
X121315476Y-81200000D01*
X121363095Y-81295238D01*
X135452380Y-123395238D02*
X136452380Y-123061904D01*
X135452380Y-122728571D01*
X136452380Y-122395238D02*
X135452380Y-122395238D01*
X136452380Y-121919047D02*
X135452380Y-121919047D01*
X136452380Y-121347619D01*
X135452380Y-121347619D01*
X132900000Y-122861904D02*
X132852380Y-122957142D01*
X132852380Y-123100000D01*
X132900000Y-123242857D01*
X132995238Y-123338095D01*
X133090476Y-123385714D01*
X133280952Y-123433333D01*
X133423809Y-123433333D01*
X133614285Y-123385714D01*
X133709523Y-123338095D01*
X133804761Y-123242857D01*
X133852380Y-123100000D01*
X133852380Y-123004761D01*
X133804761Y-122861904D01*
X133757142Y-122814285D01*
X133423809Y-122814285D01*
X133423809Y-123004761D01*
X133852380Y-122385714D02*
X132852380Y-122385714D01*
X133852380Y-121814285D01*
X132852380Y-121814285D01*
X133852380Y-121338095D02*
X132852380Y-121338095D01*
X132852380Y-121100000D01*
X132900000Y-120957142D01*
X132995238Y-120861904D01*
X133090476Y-120814285D01*
X133280952Y-120766666D01*
X133423809Y-120766666D01*
X133614285Y-120814285D01*
X133709523Y-120861904D01*
X133804761Y-120957142D01*
X133852380Y-121100000D01*
X133852380Y-121338095D01*
X130400000Y-122861904D02*
X130352380Y-122957142D01*
X130352380Y-123100000D01*
X130400000Y-123242857D01*
X130495238Y-123338095D01*
X130590476Y-123385714D01*
X130780952Y-123433333D01*
X130923809Y-123433333D01*
X131114285Y-123385714D01*
X131209523Y-123338095D01*
X131304761Y-123242857D01*
X131352380Y-123100000D01*
X131352380Y-123004761D01*
X131304761Y-122861904D01*
X131257142Y-122814285D01*
X130923809Y-122814285D01*
X130923809Y-123004761D01*
X131352380Y-122385714D02*
X130352380Y-122385714D01*
X131352380Y-121814285D01*
X130352380Y-121814285D01*
X131352380Y-121338095D02*
X130352380Y-121338095D01*
X130352380Y-121100000D01*
X130400000Y-120957142D01*
X130495238Y-120861904D01*
X130590476Y-120814285D01*
X130780952Y-120766666D01*
X130923809Y-120766666D01*
X131114285Y-120814285D01*
X131209523Y-120861904D01*
X131304761Y-120957142D01*
X131352380Y-121100000D01*
X131352380Y-121338095D01*
X127752380Y-123423809D02*
X128752380Y-123090476D01*
X127752380Y-122757142D01*
X127752380Y-121947619D02*
X127752380Y-122423809D01*
X128228571Y-122471428D01*
X128180952Y-122423809D01*
X128133333Y-122328571D01*
X128133333Y-122090476D01*
X128180952Y-121995238D01*
X128228571Y-121947619D01*
X128323809Y-121900000D01*
X128561904Y-121900000D01*
X128657142Y-121947619D01*
X128704761Y-121995238D01*
X128752380Y-122090476D01*
X128752380Y-122328571D01*
X128704761Y-122423809D01*
X128657142Y-122471428D01*
X128657142Y-121471428D02*
X128704761Y-121423809D01*
X128752380Y-121471428D01*
X128704761Y-121519047D01*
X128657142Y-121471428D01*
X128752380Y-121471428D01*
X127752380Y-120804761D02*
X127752380Y-120709523D01*
X127800000Y-120614285D01*
X127847619Y-120566666D01*
X127942857Y-120519047D01*
X128133333Y-120471428D01*
X128371428Y-120471428D01*
X128561904Y-120519047D01*
X128657142Y-120566666D01*
X128704761Y-120614285D01*
X128752380Y-120709523D01*
X128752380Y-120804761D01*
X128704761Y-120900000D01*
X128657142Y-120947619D01*
X128561904Y-120995238D01*
X128371428Y-121042857D01*
X128133333Y-121042857D01*
X127942857Y-120995238D01*
X127847619Y-120947619D01*
X127800000Y-120900000D01*
X127752380Y-120804761D01*
X125252380Y-123423809D02*
X126252380Y-123090476D01*
X125252380Y-122757142D01*
X125252380Y-122519047D02*
X125252380Y-121900000D01*
X125633333Y-122233333D01*
X125633333Y-122090476D01*
X125680952Y-121995238D01*
X125728571Y-121947619D01*
X125823809Y-121900000D01*
X126061904Y-121900000D01*
X126157142Y-121947619D01*
X126204761Y-121995238D01*
X126252380Y-122090476D01*
X126252380Y-122376190D01*
X126204761Y-122471428D01*
X126157142Y-122519047D01*
X126157142Y-121471428D02*
X126204761Y-121423809D01*
X126252380Y-121471428D01*
X126204761Y-121519047D01*
X126157142Y-121471428D01*
X126252380Y-121471428D01*
X125252380Y-121090476D02*
X125252380Y-120471428D01*
X125633333Y-120804761D01*
X125633333Y-120661904D01*
X125680952Y-120566666D01*
X125728571Y-120519047D01*
X125823809Y-120471428D01*
X126061904Y-120471428D01*
X126157142Y-120519047D01*
X126204761Y-120566666D01*
X126252380Y-120661904D01*
X126252380Y-120947619D01*
X126204761Y-121042857D01*
X126157142Y-121090476D01*
X123852380Y-122847619D02*
X123376190Y-123180952D01*
X123852380Y-123419047D02*
X122852380Y-123419047D01*
X122852380Y-123038095D01*
X122900000Y-122942857D01*
X122947619Y-122895238D01*
X123042857Y-122847619D01*
X123185714Y-122847619D01*
X123280952Y-122895238D01*
X123328571Y-122942857D01*
X123376190Y-123038095D01*
X123376190Y-123419047D01*
X123804761Y-122466666D02*
X123852380Y-122323809D01*
X123852380Y-122085714D01*
X123804761Y-121990476D01*
X123757142Y-121942857D01*
X123661904Y-121895238D01*
X123566666Y-121895238D01*
X123471428Y-121942857D01*
X123423809Y-121990476D01*
X123376190Y-122085714D01*
X123328571Y-122276190D01*
X123280952Y-122371428D01*
X123233333Y-122419047D01*
X123138095Y-122466666D01*
X123042857Y-122466666D01*
X122947619Y-122419047D01*
X122900000Y-122371428D01*
X122852380Y-122276190D01*
X122852380Y-122038095D01*
X122900000Y-121895238D01*
X122852380Y-121609523D02*
X122852380Y-121038095D01*
X123852380Y-121323809D02*
X122852380Y-121323809D01*
X121252380Y-123447619D02*
X120252380Y-123447619D01*
X120252380Y-123066666D01*
X120300000Y-122971428D01*
X120347619Y-122923809D01*
X120442857Y-122876190D01*
X120585714Y-122876190D01*
X120680952Y-122923809D01*
X120728571Y-122971428D01*
X120776190Y-123066666D01*
X120776190Y-123447619D01*
X120252380Y-122019047D02*
X120252380Y-122209523D01*
X120300000Y-122304761D01*
X120347619Y-122352380D01*
X120490476Y-122447619D01*
X120680952Y-122495238D01*
X121061904Y-122495238D01*
X121157142Y-122447619D01*
X121204761Y-122400000D01*
X121252380Y-122304761D01*
X121252380Y-122114285D01*
X121204761Y-122019047D01*
X121157142Y-121971428D01*
X121061904Y-121923809D01*
X120823809Y-121923809D01*
X120728571Y-121971428D01*
X120680952Y-122019047D01*
X120633333Y-122114285D01*
X120633333Y-122304761D01*
X120680952Y-122400000D01*
X120728571Y-122447619D01*
X120823809Y-122495238D01*
X121347619Y-121733333D02*
X121347619Y-120971428D01*
X120252380Y-120876190D02*
X121252380Y-120542857D01*
X120252380Y-120209523D01*
X121252380Y-119876190D02*
X120252380Y-119876190D01*
X120252380Y-119638095D01*
X120300000Y-119495238D01*
X120395238Y-119400000D01*
X120490476Y-119352380D01*
X120680952Y-119304761D01*
X120823809Y-119304761D01*
X121014285Y-119352380D01*
X121109523Y-119400000D01*
X121204761Y-119495238D01*
X121252380Y-119638095D01*
X121252380Y-119876190D01*
X121252380Y-118876190D02*
X120252380Y-118876190D01*
X120252380Y-118638095D01*
X120300000Y-118495238D01*
X120395238Y-118400000D01*
X120490476Y-118352380D01*
X120680952Y-118304761D01*
X120823809Y-118304761D01*
X121014285Y-118352380D01*
X121109523Y-118400000D01*
X121204761Y-118495238D01*
X121252380Y-118638095D01*
X121252380Y-118876190D01*
X118652380Y-123385714D02*
X117652380Y-123385714D01*
X118652380Y-122814285D01*
X117652380Y-122814285D01*
X118557142Y-121766666D02*
X118604761Y-121814285D01*
X118652380Y-121957142D01*
X118652380Y-122052380D01*
X118604761Y-122195238D01*
X118509523Y-122290476D01*
X118414285Y-122338095D01*
X118223809Y-122385714D01*
X118080952Y-122385714D01*
X117890476Y-122338095D01*
X117795238Y-122290476D01*
X117700000Y-122195238D01*
X117652380Y-122052380D01*
X117652380Y-121957142D01*
X117700000Y-121814285D01*
X117747619Y-121766666D01*
X143952380Y-130904761D02*
X143952380Y-131476190D01*
X143952380Y-131190476D02*
X142952380Y-131190476D01*
X143095238Y-131285714D01*
X143190476Y-131380952D01*
X143238095Y-131476190D01*
X142952380Y-130285714D02*
X142952380Y-130190476D01*
X143000000Y-130095238D01*
X143047619Y-130047619D01*
X143142857Y-130000000D01*
X143333333Y-129952380D01*
X143571428Y-129952380D01*
X143761904Y-130000000D01*
X143857142Y-130047619D01*
X143904761Y-130095238D01*
X143952380Y-130190476D01*
X143952380Y-130285714D01*
X143904761Y-130380952D01*
X143857142Y-130428571D01*
X143761904Y-130476190D01*
X143571428Y-130523809D01*
X143333333Y-130523809D01*
X143142857Y-130476190D01*
X143047619Y-130428571D01*
X143000000Y-130380952D01*
X142952380Y-130285714D01*
X143857142Y-129523809D02*
X143904761Y-129476190D01*
X143952380Y-129523809D01*
X143904761Y-129571428D01*
X143857142Y-129523809D01*
X143952380Y-129523809D01*
X143952380Y-128523809D02*
X143952380Y-129095238D01*
X143952380Y-128809523D02*
X142952380Y-128809523D01*
X143095238Y-128904761D01*
X143190476Y-129000000D01*
X143238095Y-129095238D01*
X164327380Y-119929761D02*
X164327380Y-120501190D01*
X164327380Y-120215476D02*
X163327380Y-120215476D01*
X163470238Y-120310714D01*
X163565476Y-120405952D01*
X163613095Y-120501190D01*
X163327380Y-119596428D02*
X163327380Y-118977380D01*
X163708333Y-119310714D01*
X163708333Y-119167857D01*
X163755952Y-119072619D01*
X163803571Y-119025000D01*
X163898809Y-118977380D01*
X164136904Y-118977380D01*
X164232142Y-119025000D01*
X164279761Y-119072619D01*
X164327380Y-119167857D01*
X164327380Y-119453571D01*
X164279761Y-119548809D01*
X164232142Y-119596428D01*
X164232142Y-118548809D02*
X164279761Y-118501190D01*
X164327380Y-118548809D01*
X164279761Y-118596428D01*
X164232142Y-118548809D01*
X164327380Y-118548809D01*
X163327380Y-118167857D02*
X163327380Y-117501190D01*
X164327380Y-117929761D01*
X161827380Y-120504761D02*
X161827380Y-120314285D01*
X161779761Y-120219047D01*
X161732142Y-120171428D01*
X161589285Y-120076190D01*
X161398809Y-120028571D01*
X161017857Y-120028571D01*
X160922619Y-120076190D01*
X160875000Y-120123809D01*
X160827380Y-120219047D01*
X160827380Y-120409523D01*
X160875000Y-120504761D01*
X160922619Y-120552380D01*
X161017857Y-120600000D01*
X161255952Y-120600000D01*
X161351190Y-120552380D01*
X161398809Y-120504761D01*
X161446428Y-120409523D01*
X161446428Y-120219047D01*
X161398809Y-120123809D01*
X161351190Y-120076190D01*
X161255952Y-120028571D01*
X161732142Y-119600000D02*
X161779761Y-119552380D01*
X161827380Y-119600000D01*
X161779761Y-119647619D01*
X161732142Y-119600000D01*
X161827380Y-119600000D01*
X160827380Y-119219047D02*
X160827380Y-118552380D01*
X161827380Y-118980952D01*
X159227380Y-120504761D02*
X159227380Y-120314285D01*
X159179761Y-120219047D01*
X159132142Y-120171428D01*
X158989285Y-120076190D01*
X158798809Y-120028571D01*
X158417857Y-120028571D01*
X158322619Y-120076190D01*
X158275000Y-120123809D01*
X158227380Y-120219047D01*
X158227380Y-120409523D01*
X158275000Y-120504761D01*
X158322619Y-120552380D01*
X158417857Y-120600000D01*
X158655952Y-120600000D01*
X158751190Y-120552380D01*
X158798809Y-120504761D01*
X158846428Y-120409523D01*
X158846428Y-120219047D01*
X158798809Y-120123809D01*
X158751190Y-120076190D01*
X158655952Y-120028571D01*
X159132142Y-119600000D02*
X159179761Y-119552380D01*
X159227380Y-119600000D01*
X159179761Y-119647619D01*
X159132142Y-119600000D01*
X159227380Y-119600000D01*
X158227380Y-118695238D02*
X158227380Y-118885714D01*
X158275000Y-118980952D01*
X158322619Y-119028571D01*
X158465476Y-119123809D01*
X158655952Y-119171428D01*
X159036904Y-119171428D01*
X159132142Y-119123809D01*
X159179761Y-119076190D01*
X159227380Y-118980952D01*
X159227380Y-118790476D01*
X159179761Y-118695238D01*
X159132142Y-118647619D01*
X159036904Y-118600000D01*
X158798809Y-118600000D01*
X158703571Y-118647619D01*
X158655952Y-118695238D01*
X158608333Y-118790476D01*
X158608333Y-118980952D01*
X158655952Y-119076190D01*
X158703571Y-119123809D01*
X158798809Y-119171428D01*
X155775000Y-119961904D02*
X155727380Y-120057142D01*
X155727380Y-120200000D01*
X155775000Y-120342857D01*
X155870238Y-120438095D01*
X155965476Y-120485714D01*
X156155952Y-120533333D01*
X156298809Y-120533333D01*
X156489285Y-120485714D01*
X156584523Y-120438095D01*
X156679761Y-120342857D01*
X156727380Y-120200000D01*
X156727380Y-120104761D01*
X156679761Y-119961904D01*
X156632142Y-119914285D01*
X156298809Y-119914285D01*
X156298809Y-120104761D01*
X156727380Y-119485714D02*
X155727380Y-119485714D01*
X156727380Y-118914285D01*
X155727380Y-118914285D01*
X156727380Y-118438095D02*
X155727380Y-118438095D01*
X155727380Y-118200000D01*
X155775000Y-118057142D01*
X155870238Y-117961904D01*
X155965476Y-117914285D01*
X156155952Y-117866666D01*
X156298809Y-117866666D01*
X156489285Y-117914285D01*
X156584523Y-117961904D01*
X156679761Y-118057142D01*
X156727380Y-118200000D01*
X156727380Y-118438095D01*
X154177380Y-120504761D02*
X154177380Y-120314285D01*
X154129761Y-120219047D01*
X154082142Y-120171428D01*
X153939285Y-120076190D01*
X153748809Y-120028571D01*
X153367857Y-120028571D01*
X153272619Y-120076190D01*
X153225000Y-120123809D01*
X153177380Y-120219047D01*
X153177380Y-120409523D01*
X153225000Y-120504761D01*
X153272619Y-120552380D01*
X153367857Y-120600000D01*
X153605952Y-120600000D01*
X153701190Y-120552380D01*
X153748809Y-120504761D01*
X153796428Y-120409523D01*
X153796428Y-120219047D01*
X153748809Y-120123809D01*
X153701190Y-120076190D01*
X153605952Y-120028571D01*
X154082142Y-119600000D02*
X154129761Y-119552380D01*
X154177380Y-119600000D01*
X154129761Y-119647619D01*
X154082142Y-119600000D01*
X154177380Y-119600000D01*
X153177380Y-118647619D02*
X153177380Y-119123809D01*
X153653571Y-119171428D01*
X153605952Y-119123809D01*
X153558333Y-119028571D01*
X153558333Y-118790476D01*
X153605952Y-118695238D01*
X153653571Y-118647619D01*
X153748809Y-118600000D01*
X153986904Y-118600000D01*
X154082142Y-118647619D01*
X154129761Y-118695238D01*
X154177380Y-118790476D01*
X154177380Y-119028571D01*
X154129761Y-119123809D01*
X154082142Y-119171428D01*
X151627380Y-120489761D02*
X151627380Y-120299285D01*
X151579761Y-120204047D01*
X151532142Y-120156428D01*
X151389285Y-120061190D01*
X151198809Y-120013571D01*
X150817857Y-120013571D01*
X150722619Y-120061190D01*
X150675000Y-120108809D01*
X150627380Y-120204047D01*
X150627380Y-120394523D01*
X150675000Y-120489761D01*
X150722619Y-120537380D01*
X150817857Y-120585000D01*
X151055952Y-120585000D01*
X151151190Y-120537380D01*
X151198809Y-120489761D01*
X151246428Y-120394523D01*
X151246428Y-120204047D01*
X151198809Y-120108809D01*
X151151190Y-120061190D01*
X151055952Y-120013571D01*
X151532142Y-119585000D02*
X151579761Y-119537380D01*
X151627380Y-119585000D01*
X151579761Y-119632619D01*
X151532142Y-119585000D01*
X151627380Y-119585000D01*
X150960714Y-118680238D02*
X151627380Y-118680238D01*
X150579761Y-118918333D02*
X151294047Y-119156428D01*
X151294047Y-118537380D01*
X149097380Y-120489761D02*
X149097380Y-120299285D01*
X149049761Y-120204047D01*
X149002142Y-120156428D01*
X148859285Y-120061190D01*
X148668809Y-120013571D01*
X148287857Y-120013571D01*
X148192619Y-120061190D01*
X148145000Y-120108809D01*
X148097380Y-120204047D01*
X148097380Y-120394523D01*
X148145000Y-120489761D01*
X148192619Y-120537380D01*
X148287857Y-120585000D01*
X148525952Y-120585000D01*
X148621190Y-120537380D01*
X148668809Y-120489761D01*
X148716428Y-120394523D01*
X148716428Y-120204047D01*
X148668809Y-120108809D01*
X148621190Y-120061190D01*
X148525952Y-120013571D01*
X149002142Y-119585000D02*
X149049761Y-119537380D01*
X149097380Y-119585000D01*
X149049761Y-119632619D01*
X149002142Y-119585000D01*
X149097380Y-119585000D01*
X148097380Y-119204047D02*
X148097380Y-118585000D01*
X148478333Y-118918333D01*
X148478333Y-118775476D01*
X148525952Y-118680238D01*
X148573571Y-118632619D01*
X148668809Y-118585000D01*
X148906904Y-118585000D01*
X149002142Y-118632619D01*
X149049761Y-118680238D01*
X149097380Y-118775476D01*
X149097380Y-119061190D01*
X149049761Y-119156428D01*
X149002142Y-119204047D01*
X146597380Y-120489761D02*
X146597380Y-120299285D01*
X146549761Y-120204047D01*
X146502142Y-120156428D01*
X146359285Y-120061190D01*
X146168809Y-120013571D01*
X145787857Y-120013571D01*
X145692619Y-120061190D01*
X145645000Y-120108809D01*
X145597380Y-120204047D01*
X145597380Y-120394523D01*
X145645000Y-120489761D01*
X145692619Y-120537380D01*
X145787857Y-120585000D01*
X146025952Y-120585000D01*
X146121190Y-120537380D01*
X146168809Y-120489761D01*
X146216428Y-120394523D01*
X146216428Y-120204047D01*
X146168809Y-120108809D01*
X146121190Y-120061190D01*
X146025952Y-120013571D01*
X146502142Y-119585000D02*
X146549761Y-119537380D01*
X146597380Y-119585000D01*
X146549761Y-119632619D01*
X146502142Y-119585000D01*
X146597380Y-119585000D01*
X145692619Y-119156428D02*
X145645000Y-119108809D01*
X145597380Y-119013571D01*
X145597380Y-118775476D01*
X145645000Y-118680238D01*
X145692619Y-118632619D01*
X145787857Y-118585000D01*
X145883095Y-118585000D01*
X146025952Y-118632619D01*
X146597380Y-119204047D01*
X146597380Y-118585000D01*
X143997380Y-120589761D02*
X143997380Y-120399285D01*
X143949761Y-120304047D01*
X143902142Y-120256428D01*
X143759285Y-120161190D01*
X143568809Y-120113571D01*
X143187857Y-120113571D01*
X143092619Y-120161190D01*
X143045000Y-120208809D01*
X142997380Y-120304047D01*
X142997380Y-120494523D01*
X143045000Y-120589761D01*
X143092619Y-120637380D01*
X143187857Y-120685000D01*
X143425952Y-120685000D01*
X143521190Y-120637380D01*
X143568809Y-120589761D01*
X143616428Y-120494523D01*
X143616428Y-120304047D01*
X143568809Y-120208809D01*
X143521190Y-120161190D01*
X143425952Y-120113571D01*
X143902142Y-119685000D02*
X143949761Y-119637380D01*
X143997380Y-119685000D01*
X143949761Y-119732619D01*
X143902142Y-119685000D01*
X143997380Y-119685000D01*
X143997380Y-118685000D02*
X143997380Y-119256428D01*
X143997380Y-118970714D02*
X142997380Y-118970714D01*
X143140238Y-119065952D01*
X143235476Y-119161190D01*
X143283095Y-119256428D01*
X141397380Y-120539761D02*
X141397380Y-120349285D01*
X141349761Y-120254047D01*
X141302142Y-120206428D01*
X141159285Y-120111190D01*
X140968809Y-120063571D01*
X140587857Y-120063571D01*
X140492619Y-120111190D01*
X140445000Y-120158809D01*
X140397380Y-120254047D01*
X140397380Y-120444523D01*
X140445000Y-120539761D01*
X140492619Y-120587380D01*
X140587857Y-120635000D01*
X140825952Y-120635000D01*
X140921190Y-120587380D01*
X140968809Y-120539761D01*
X141016428Y-120444523D01*
X141016428Y-120254047D01*
X140968809Y-120158809D01*
X140921190Y-120111190D01*
X140825952Y-120063571D01*
X141302142Y-119635000D02*
X141349761Y-119587380D01*
X141397380Y-119635000D01*
X141349761Y-119682619D01*
X141302142Y-119635000D01*
X141397380Y-119635000D01*
X140397380Y-118968333D02*
X140397380Y-118873095D01*
X140445000Y-118777857D01*
X140492619Y-118730238D01*
X140587857Y-118682619D01*
X140778333Y-118635000D01*
X141016428Y-118635000D01*
X141206904Y-118682619D01*
X141302142Y-118730238D01*
X141349761Y-118777857D01*
X141397380Y-118873095D01*
X141397380Y-118968333D01*
X141349761Y-119063571D01*
X141302142Y-119111190D01*
X141206904Y-119158809D01*
X141016428Y-119206428D01*
X140778333Y-119206428D01*
X140587857Y-119158809D01*
X140492619Y-119111190D01*
X140445000Y-119063571D01*
X140397380Y-118968333D01*
X164452380Y-130904761D02*
X164452380Y-131476190D01*
X164452380Y-131190476D02*
X163452380Y-131190476D01*
X163595238Y-131285714D01*
X163690476Y-131380952D01*
X163738095Y-131476190D01*
X163452380Y-130571428D02*
X163452380Y-129952380D01*
X163833333Y-130285714D01*
X163833333Y-130142857D01*
X163880952Y-130047619D01*
X163928571Y-130000000D01*
X164023809Y-129952380D01*
X164261904Y-129952380D01*
X164357142Y-130000000D01*
X164404761Y-130047619D01*
X164452380Y-130142857D01*
X164452380Y-130428571D01*
X164404761Y-130523809D01*
X164357142Y-130571428D01*
X164357142Y-129523809D02*
X164404761Y-129476190D01*
X164452380Y-129523809D01*
X164404761Y-129571428D01*
X164357142Y-129523809D01*
X164452380Y-129523809D01*
X163452380Y-128619047D02*
X163452380Y-128809523D01*
X163500000Y-128904761D01*
X163547619Y-128952380D01*
X163690476Y-129047619D01*
X163880952Y-129095238D01*
X164261904Y-129095238D01*
X164357142Y-129047619D01*
X164404761Y-129000000D01*
X164452380Y-128904761D01*
X164452380Y-128714285D01*
X164404761Y-128619047D01*
X164357142Y-128571428D01*
X164261904Y-128523809D01*
X164023809Y-128523809D01*
X163928571Y-128571428D01*
X163880952Y-128619047D01*
X163833333Y-128714285D01*
X163833333Y-128904761D01*
X163880952Y-129000000D01*
X163928571Y-129047619D01*
X164023809Y-129095238D01*
X160877380Y-130123809D02*
X160877380Y-130314285D01*
X160925000Y-130409523D01*
X160972619Y-130457142D01*
X161115476Y-130552380D01*
X161305952Y-130600000D01*
X161686904Y-130600000D01*
X161782142Y-130552380D01*
X161829761Y-130504761D01*
X161877380Y-130409523D01*
X161877380Y-130219047D01*
X161829761Y-130123809D01*
X161782142Y-130076190D01*
X161686904Y-130028571D01*
X161448809Y-130028571D01*
X161353571Y-130076190D01*
X161305952Y-130123809D01*
X161258333Y-130219047D01*
X161258333Y-130409523D01*
X161305952Y-130504761D01*
X161353571Y-130552380D01*
X161448809Y-130600000D01*
X161782142Y-129600000D02*
X161829761Y-129552380D01*
X161877380Y-129600000D01*
X161829761Y-129647619D01*
X161782142Y-129600000D01*
X161877380Y-129600000D01*
X160877380Y-129219047D02*
X160877380Y-128600000D01*
X161258333Y-128933333D01*
X161258333Y-128790476D01*
X161305952Y-128695238D01*
X161353571Y-128647619D01*
X161448809Y-128600000D01*
X161686904Y-128600000D01*
X161782142Y-128647619D01*
X161829761Y-128695238D01*
X161877380Y-128790476D01*
X161877380Y-129076190D01*
X161829761Y-129171428D01*
X161782142Y-129219047D01*
X154177380Y-130904761D02*
X154177380Y-131476190D01*
X154177380Y-131190476D02*
X153177380Y-131190476D01*
X153320238Y-131285714D01*
X153415476Y-131380952D01*
X153463095Y-131476190D01*
X153177380Y-130285714D02*
X153177380Y-130190476D01*
X153225000Y-130095238D01*
X153272619Y-130047619D01*
X153367857Y-130000000D01*
X153558333Y-129952380D01*
X153796428Y-129952380D01*
X153986904Y-130000000D01*
X154082142Y-130047619D01*
X154129761Y-130095238D01*
X154177380Y-130190476D01*
X154177380Y-130285714D01*
X154129761Y-130380952D01*
X154082142Y-130428571D01*
X153986904Y-130476190D01*
X153796428Y-130523809D01*
X153558333Y-130523809D01*
X153367857Y-130476190D01*
X153272619Y-130428571D01*
X153225000Y-130380952D01*
X153177380Y-130285714D01*
X154082142Y-129523809D02*
X154129761Y-129476190D01*
X154177380Y-129523809D01*
X154129761Y-129571428D01*
X154082142Y-129523809D01*
X154177380Y-129523809D01*
X153177380Y-128571428D02*
X153177380Y-129047619D01*
X153653571Y-129095238D01*
X153605952Y-129047619D01*
X153558333Y-128952380D01*
X153558333Y-128714285D01*
X153605952Y-128619047D01*
X153653571Y-128571428D01*
X153748809Y-128523809D01*
X153986904Y-128523809D01*
X154082142Y-128571428D01*
X154129761Y-128619047D01*
X154177380Y-128714285D01*
X154177380Y-128952380D01*
X154129761Y-129047619D01*
X154082142Y-129095238D01*
X151677380Y-130904761D02*
X151677380Y-131476190D01*
X151677380Y-131190476D02*
X150677380Y-131190476D01*
X150820238Y-131285714D01*
X150915476Y-131380952D01*
X150963095Y-131476190D01*
X150677380Y-130285714D02*
X150677380Y-130190476D01*
X150725000Y-130095238D01*
X150772619Y-130047619D01*
X150867857Y-130000000D01*
X151058333Y-129952380D01*
X151296428Y-129952380D01*
X151486904Y-130000000D01*
X151582142Y-130047619D01*
X151629761Y-130095238D01*
X151677380Y-130190476D01*
X151677380Y-130285714D01*
X151629761Y-130380952D01*
X151582142Y-130428571D01*
X151486904Y-130476190D01*
X151296428Y-130523809D01*
X151058333Y-130523809D01*
X150867857Y-130476190D01*
X150772619Y-130428571D01*
X150725000Y-130380952D01*
X150677380Y-130285714D01*
X151582142Y-129523809D02*
X151629761Y-129476190D01*
X151677380Y-129523809D01*
X151629761Y-129571428D01*
X151582142Y-129523809D01*
X151677380Y-129523809D01*
X151010714Y-128619047D02*
X151677380Y-128619047D01*
X150629761Y-128857142D02*
X151344047Y-129095238D01*
X151344047Y-128476190D01*
X149077380Y-130904761D02*
X149077380Y-131476190D01*
X149077380Y-131190476D02*
X148077380Y-131190476D01*
X148220238Y-131285714D01*
X148315476Y-131380952D01*
X148363095Y-131476190D01*
X148077380Y-130285714D02*
X148077380Y-130190476D01*
X148125000Y-130095238D01*
X148172619Y-130047619D01*
X148267857Y-130000000D01*
X148458333Y-129952380D01*
X148696428Y-129952380D01*
X148886904Y-130000000D01*
X148982142Y-130047619D01*
X149029761Y-130095238D01*
X149077380Y-130190476D01*
X149077380Y-130285714D01*
X149029761Y-130380952D01*
X148982142Y-130428571D01*
X148886904Y-130476190D01*
X148696428Y-130523809D01*
X148458333Y-130523809D01*
X148267857Y-130476190D01*
X148172619Y-130428571D01*
X148125000Y-130380952D01*
X148077380Y-130285714D01*
X148982142Y-129523809D02*
X149029761Y-129476190D01*
X149077380Y-129523809D01*
X149029761Y-129571428D01*
X148982142Y-129523809D01*
X149077380Y-129523809D01*
X148077380Y-129142857D02*
X148077380Y-128523809D01*
X148458333Y-128857142D01*
X148458333Y-128714285D01*
X148505952Y-128619047D01*
X148553571Y-128571428D01*
X148648809Y-128523809D01*
X148886904Y-128523809D01*
X148982142Y-128571428D01*
X149029761Y-128619047D01*
X149077380Y-128714285D01*
X149077380Y-129000000D01*
X149029761Y-129095238D01*
X148982142Y-129142857D01*
X158277380Y-130123809D02*
X158277380Y-130314285D01*
X158325000Y-130409523D01*
X158372619Y-130457142D01*
X158515476Y-130552380D01*
X158705952Y-130600000D01*
X159086904Y-130600000D01*
X159182142Y-130552380D01*
X159229761Y-130504761D01*
X159277380Y-130409523D01*
X159277380Y-130219047D01*
X159229761Y-130123809D01*
X159182142Y-130076190D01*
X159086904Y-130028571D01*
X158848809Y-130028571D01*
X158753571Y-130076190D01*
X158705952Y-130123809D01*
X158658333Y-130219047D01*
X158658333Y-130409523D01*
X158705952Y-130504761D01*
X158753571Y-130552380D01*
X158848809Y-130600000D01*
X159182142Y-129600000D02*
X159229761Y-129552380D01*
X159277380Y-129600000D01*
X159229761Y-129647619D01*
X159182142Y-129600000D01*
X159277380Y-129600000D01*
X158372619Y-129171428D02*
X158325000Y-129123809D01*
X158277380Y-129028571D01*
X158277380Y-128790476D01*
X158325000Y-128695238D01*
X158372619Y-128647619D01*
X158467857Y-128600000D01*
X158563095Y-128600000D01*
X158705952Y-128647619D01*
X159277380Y-129219047D01*
X159277380Y-128600000D01*
X156452380Y-130904761D02*
X156452380Y-131476190D01*
X156452380Y-131190476D02*
X155452380Y-131190476D01*
X155595238Y-131285714D01*
X155690476Y-131380952D01*
X155738095Y-131476190D01*
X155452380Y-130285714D02*
X155452380Y-130190476D01*
X155500000Y-130095238D01*
X155547619Y-130047619D01*
X155642857Y-130000000D01*
X155833333Y-129952380D01*
X156071428Y-129952380D01*
X156261904Y-130000000D01*
X156357142Y-130047619D01*
X156404761Y-130095238D01*
X156452380Y-130190476D01*
X156452380Y-130285714D01*
X156404761Y-130380952D01*
X156357142Y-130428571D01*
X156261904Y-130476190D01*
X156071428Y-130523809D01*
X155833333Y-130523809D01*
X155642857Y-130476190D01*
X155547619Y-130428571D01*
X155500000Y-130380952D01*
X155452380Y-130285714D01*
X156357142Y-129523809D02*
X156404761Y-129476190D01*
X156452380Y-129523809D01*
X156404761Y-129571428D01*
X156357142Y-129523809D01*
X156452380Y-129523809D01*
X155452380Y-128619047D02*
X155452380Y-128809523D01*
X155500000Y-128904761D01*
X155547619Y-128952380D01*
X155690476Y-129047619D01*
X155880952Y-129095238D01*
X156261904Y-129095238D01*
X156357142Y-129047619D01*
X156404761Y-129000000D01*
X156452380Y-128904761D01*
X156452380Y-128714285D01*
X156404761Y-128619047D01*
X156357142Y-128571428D01*
X156261904Y-128523809D01*
X156023809Y-128523809D01*
X155928571Y-128571428D01*
X155880952Y-128619047D01*
X155833333Y-128714285D01*
X155833333Y-128904761D01*
X155880952Y-129000000D01*
X155928571Y-129047619D01*
X156023809Y-129095238D01*
X146552380Y-130904761D02*
X146552380Y-131476190D01*
X146552380Y-131190476D02*
X145552380Y-131190476D01*
X145695238Y-131285714D01*
X145790476Y-131380952D01*
X145838095Y-131476190D01*
X145552380Y-130285714D02*
X145552380Y-130190476D01*
X145600000Y-130095238D01*
X145647619Y-130047619D01*
X145742857Y-130000000D01*
X145933333Y-129952380D01*
X146171428Y-129952380D01*
X146361904Y-130000000D01*
X146457142Y-130047619D01*
X146504761Y-130095238D01*
X146552380Y-130190476D01*
X146552380Y-130285714D01*
X146504761Y-130380952D01*
X146457142Y-130428571D01*
X146361904Y-130476190D01*
X146171428Y-130523809D01*
X145933333Y-130523809D01*
X145742857Y-130476190D01*
X145647619Y-130428571D01*
X145600000Y-130380952D01*
X145552380Y-130285714D01*
X146457142Y-129523809D02*
X146504761Y-129476190D01*
X146552380Y-129523809D01*
X146504761Y-129571428D01*
X146457142Y-129523809D01*
X146552380Y-129523809D01*
X145647619Y-129095238D02*
X145600000Y-129047619D01*
X145552380Y-128952380D01*
X145552380Y-128714285D01*
X145600000Y-128619047D01*
X145647619Y-128571428D01*
X145742857Y-128523809D01*
X145838095Y-128523809D01*
X145980952Y-128571428D01*
X146552380Y-129142857D01*
X146552380Y-128523809D01*
X141477380Y-130904761D02*
X141477380Y-131476190D01*
X141477380Y-131190476D02*
X140477380Y-131190476D01*
X140620238Y-131285714D01*
X140715476Y-131380952D01*
X140763095Y-131476190D01*
X140477380Y-130285714D02*
X140477380Y-130190476D01*
X140525000Y-130095238D01*
X140572619Y-130047619D01*
X140667857Y-130000000D01*
X140858333Y-129952380D01*
X141096428Y-129952380D01*
X141286904Y-130000000D01*
X141382142Y-130047619D01*
X141429761Y-130095238D01*
X141477380Y-130190476D01*
X141477380Y-130285714D01*
X141429761Y-130380952D01*
X141382142Y-130428571D01*
X141286904Y-130476190D01*
X141096428Y-130523809D01*
X140858333Y-130523809D01*
X140667857Y-130476190D01*
X140572619Y-130428571D01*
X140525000Y-130380952D01*
X140477380Y-130285714D01*
X141382142Y-129523809D02*
X141429761Y-129476190D01*
X141477380Y-129523809D01*
X141429761Y-129571428D01*
X141382142Y-129523809D01*
X141477380Y-129523809D01*
X140477380Y-128857142D02*
X140477380Y-128761904D01*
X140525000Y-128666666D01*
X140572619Y-128619047D01*
X140667857Y-128571428D01*
X140858333Y-128523809D01*
X141096428Y-128523809D01*
X141286904Y-128571428D01*
X141382142Y-128619047D01*
X141429761Y-128666666D01*
X141477380Y-128761904D01*
X141477380Y-128857142D01*
X141429761Y-128952380D01*
X141382142Y-129000000D01*
X141286904Y-129047619D01*
X141096428Y-129095238D01*
X140858333Y-129095238D01*
X140667857Y-129047619D01*
X140572619Y-129000000D01*
X140525000Y-128952380D01*
X140477380Y-128857142D01*
D11*
X116509564Y-105985000D02*
X116055436Y-105985000D01*
X116509564Y-107455000D02*
X116055436Y-107455000D01*
X116507064Y-101455000D02*
X116052936Y-101455000D01*
X116507064Y-102925000D02*
X116052936Y-102925000D01*
X116504564Y-97215000D02*
X116050436Y-97215000D01*
X116504564Y-98685000D02*
X116050436Y-98685000D01*
X134590000Y-75157400D02*
X134590000Y-73827400D01*
X134590000Y-73827400D02*
X135920000Y-73827400D01*
X134590000Y-76427400D02*
X137190000Y-76427400D01*
X137190000Y-76427400D02*
X137190000Y-73827400D01*
X137190000Y-73827400D02*
X155030000Y-73827400D01*
X155030000Y-79027400D02*
X155030000Y-73827400D01*
X134590000Y-79027400D02*
X155030000Y-79027400D01*
X134590000Y-79027400D02*
X134590000Y-76427400D01*
X107610900Y-75140100D02*
X107610900Y-73810100D01*
X107610900Y-73810100D02*
X108940900Y-73810100D01*
X107610900Y-76410100D02*
X110210900Y-76410100D01*
X110210900Y-76410100D02*
X110210900Y-73810100D01*
X110210900Y-73810100D02*
X133130900Y-73810100D01*
X133130900Y-79010100D02*
X133130900Y-73810100D01*
X107610900Y-79010100D02*
X133130900Y-79010100D01*
X107610900Y-79010100D02*
X107610900Y-76410100D01*
D12*
X163025000Y-103050000D02*
X163025000Y-103050000D01*
X163125000Y-103050000D02*
X163125000Y-103050000D01*
D13*
X164250000Y-103650000D02*
X164250000Y-104250000D01*
X164250000Y-104250000D02*
X165625000Y-104250000D01*
X166750000Y-103535000D02*
X166750000Y-94965000D01*
X166750000Y-103535000D02*
X167250000Y-103535000D01*
X167250000Y-103535000D02*
X167250000Y-94965000D01*
X167250000Y-94965000D02*
X166750000Y-94965000D01*
X164250000Y-94850000D02*
X164250000Y-94250000D01*
X164250000Y-94250000D02*
X165625000Y-94250000D01*
D12*
X163125000Y-103050000D02*
G75*
G02*
X163025000Y-103050000I-50000J0D01*
G01*
X163025000Y-103050000D02*
G75*
G02*
X163125000Y-103050000I50000J0D01*
G01*
D11*
X143800000Y-96670000D02*
X145130000Y-96670000D01*
X145130000Y-96670000D02*
X145130000Y-98000000D01*
X145130000Y-99270000D02*
X145130000Y-101870000D01*
X142470000Y-101870000D02*
X145130000Y-101870000D01*
X142470000Y-99270000D02*
X142470000Y-101870000D01*
X142470000Y-99270000D02*
X145130000Y-99270000D01*
X143800000Y-105830000D02*
X145130000Y-105830000D01*
X145130000Y-105830000D02*
X145130000Y-107160000D01*
X145130000Y-108430000D02*
X145130000Y-111030000D01*
X142470000Y-111030000D02*
X145130000Y-111030000D01*
X142470000Y-108430000D02*
X142470000Y-111030000D01*
X142470000Y-108430000D02*
X145130000Y-108430000D01*
X136600000Y-105630000D02*
X137930000Y-105630000D01*
X137930000Y-105630000D02*
X137930000Y-106960000D01*
X137930000Y-108230000D02*
X137930000Y-110830000D01*
X135270000Y-110830000D02*
X137930000Y-110830000D01*
X135270000Y-108230000D02*
X135270000Y-110830000D01*
X135270000Y-108230000D02*
X137930000Y-108230000D01*
X136600000Y-96570000D02*
X137930000Y-96570000D01*
X137930000Y-96570000D02*
X137930000Y-97900000D01*
X137930000Y-99170000D02*
X137930000Y-101770000D01*
X135270000Y-101770000D02*
X137930000Y-101770000D01*
X135270000Y-99170000D02*
X135270000Y-101770000D01*
X135270000Y-99170000D02*
X137930000Y-99170000D01*
X119410000Y-127295000D02*
X119410000Y-124635000D01*
X119410000Y-127295000D02*
X137250000Y-127295000D01*
X137250000Y-127295000D02*
X137250000Y-124635000D01*
X119410000Y-124635000D02*
X137250000Y-124635000D01*
X116810000Y-124635000D02*
X118140000Y-124635000D01*
X116810000Y-125965000D02*
X116810000Y-124635000D01*
X139670000Y-123425000D02*
X139670000Y-122095000D01*
X139670000Y-122095000D02*
X141000000Y-122095000D01*
X139670000Y-124695000D02*
X142270000Y-124695000D01*
X142270000Y-124695000D02*
X142270000Y-122095000D01*
X142270000Y-122095000D02*
X165190000Y-122095000D01*
X165190000Y-127295000D02*
X165190000Y-122095000D01*
X139670000Y-127295000D02*
X165190000Y-127295000D01*
X139670000Y-127295000D02*
X139670000Y-124695000D01*
D10*
X116115833Y-108822380D02*
X115782500Y-108346190D01*
X115544404Y-108822380D02*
X115544404Y-107822380D01*
X115925357Y-107822380D01*
X116020595Y-107870000D01*
X116068214Y-107917619D01*
X116115833Y-108012857D01*
X116115833Y-108155714D01*
X116068214Y-108250952D01*
X116020595Y-108298571D01*
X115925357Y-108346190D01*
X115544404Y-108346190D01*
X116449166Y-107822380D02*
X117068214Y-107822380D01*
X116734880Y-108203333D01*
X116877738Y-108203333D01*
X116972976Y-108250952D01*
X117020595Y-108298571D01*
X117068214Y-108393809D01*
X117068214Y-108631904D01*
X117020595Y-108727142D01*
X116972976Y-108774761D01*
X116877738Y-108822380D01*
X116592023Y-108822380D01*
X116496785Y-108774761D01*
X116449166Y-108727142D01*
X116113333Y-104292380D02*
X115780000Y-103816190D01*
X115541904Y-104292380D02*
X115541904Y-103292380D01*
X115922857Y-103292380D01*
X116018095Y-103340000D01*
X116065714Y-103387619D01*
X116113333Y-103482857D01*
X116113333Y-103625714D01*
X116065714Y-103720952D01*
X116018095Y-103768571D01*
X115922857Y-103816190D01*
X115541904Y-103816190D01*
X116494285Y-103387619D02*
X116541904Y-103340000D01*
X116637142Y-103292380D01*
X116875238Y-103292380D01*
X116970476Y-103340000D01*
X117018095Y-103387619D01*
X117065714Y-103482857D01*
X117065714Y-103578095D01*
X117018095Y-103720952D01*
X116446666Y-104292380D01*
X117065714Y-104292380D01*
X116110833Y-100052380D02*
X115777500Y-99576190D01*
X115539404Y-100052380D02*
X115539404Y-99052380D01*
X115920357Y-99052380D01*
X116015595Y-99100000D01*
X116063214Y-99147619D01*
X116110833Y-99242857D01*
X116110833Y-99385714D01*
X116063214Y-99480952D01*
X116015595Y-99528571D01*
X115920357Y-99576190D01*
X115539404Y-99576190D01*
X117063214Y-100052380D02*
X116491785Y-100052380D01*
X116777500Y-100052380D02*
X116777500Y-99052380D01*
X116682261Y-99195238D01*
X116587023Y-99290476D01*
X116491785Y-99338095D01*
X155952380Y-76760733D02*
X156666666Y-76760733D01*
X156809523Y-76808352D01*
X156904761Y-76903590D01*
X156952380Y-77046447D01*
X156952380Y-77141685D01*
X156285714Y-75855971D02*
X156952380Y-75855971D01*
X155904761Y-76094066D02*
X156619047Y-76332161D01*
X156619047Y-75713114D01*
X105623280Y-76743433D02*
X106337566Y-76743433D01*
X106480423Y-76791052D01*
X106575661Y-76886290D01*
X106623280Y-77029147D01*
X106623280Y-77124385D01*
X105623280Y-76362480D02*
X105623280Y-75743433D01*
X106004233Y-76076766D01*
X106004233Y-75933909D01*
X106051852Y-75838671D01*
X106099471Y-75791052D01*
X106194709Y-75743433D01*
X106432804Y-75743433D01*
X106528042Y-75791052D01*
X106575661Y-75838671D01*
X106623280Y-75933909D01*
X106623280Y-76219623D01*
X106575661Y-76314861D01*
X106528042Y-76362480D01*
D14*
X164729523Y-99673333D02*
X165636666Y-99673333D01*
X165818095Y-99733809D01*
X165939047Y-99854761D01*
X165999523Y-100036190D01*
X165999523Y-100157142D01*
X165999523Y-99008095D02*
X165999523Y-98766190D01*
X165939047Y-98645238D01*
X165878571Y-98584761D01*
X165697142Y-98463809D01*
X165455238Y-98403333D01*
X164971428Y-98403333D01*
X164850476Y-98463809D01*
X164790000Y-98524285D01*
X164729523Y-98645238D01*
X164729523Y-98887142D01*
X164790000Y-99008095D01*
X164850476Y-99068571D01*
X164971428Y-99129047D01*
X165273809Y-99129047D01*
X165394761Y-99068571D01*
X165455238Y-99008095D01*
X165515714Y-98887142D01*
X165515714Y-98645238D01*
X165455238Y-98524285D01*
X165394761Y-98463809D01*
X165273809Y-98403333D01*
D10*
X143466666Y-94682380D02*
X143466666Y-95396666D01*
X143419047Y-95539523D01*
X143323809Y-95634761D01*
X143180952Y-95682380D01*
X143085714Y-95682380D01*
X143847619Y-94682380D02*
X144514285Y-94682380D01*
X144085714Y-95682380D01*
X143466666Y-103842380D02*
X143466666Y-104556666D01*
X143419047Y-104699523D01*
X143323809Y-104794761D01*
X143180952Y-104842380D01*
X143085714Y-104842380D01*
X144085714Y-104270952D02*
X143990476Y-104223333D01*
X143942857Y-104175714D01*
X143895238Y-104080476D01*
X143895238Y-104032857D01*
X143942857Y-103937619D01*
X143990476Y-103890000D01*
X144085714Y-103842380D01*
X144276190Y-103842380D01*
X144371428Y-103890000D01*
X144419047Y-103937619D01*
X144466666Y-104032857D01*
X144466666Y-104080476D01*
X144419047Y-104175714D01*
X144371428Y-104223333D01*
X144276190Y-104270952D01*
X144085714Y-104270952D01*
X143990476Y-104318571D01*
X143942857Y-104366190D01*
X143895238Y-104461428D01*
X143895238Y-104651904D01*
X143942857Y-104747142D01*
X143990476Y-104794761D01*
X144085714Y-104842380D01*
X144276190Y-104842380D01*
X144371428Y-104794761D01*
X144419047Y-104747142D01*
X144466666Y-104651904D01*
X144466666Y-104461428D01*
X144419047Y-104366190D01*
X144371428Y-104318571D01*
X144276190Y-104270952D01*
X136266666Y-103642380D02*
X136266666Y-104356666D01*
X136219047Y-104499523D01*
X136123809Y-104594761D01*
X135980952Y-104642380D01*
X135885714Y-104642380D01*
X137171428Y-103642380D02*
X136980952Y-103642380D01*
X136885714Y-103690000D01*
X136838095Y-103737619D01*
X136742857Y-103880476D01*
X136695238Y-104070952D01*
X136695238Y-104451904D01*
X136742857Y-104547142D01*
X136790476Y-104594761D01*
X136885714Y-104642380D01*
X137076190Y-104642380D01*
X137171428Y-104594761D01*
X137219047Y-104547142D01*
X137266666Y-104451904D01*
X137266666Y-104213809D01*
X137219047Y-104118571D01*
X137171428Y-104070952D01*
X137076190Y-104023333D01*
X136885714Y-104023333D01*
X136790476Y-104070952D01*
X136742857Y-104118571D01*
X136695238Y-104213809D01*
X136266666Y-94582380D02*
X136266666Y-95296666D01*
X136219047Y-95439523D01*
X136123809Y-95534761D01*
X135980952Y-95582380D01*
X135885714Y-95582380D01*
X137219047Y-94582380D02*
X136742857Y-94582380D01*
X136695238Y-95058571D01*
X136742857Y-95010952D01*
X136838095Y-94963333D01*
X137076190Y-94963333D01*
X137171428Y-95010952D01*
X137219047Y-95058571D01*
X137266666Y-95153809D01*
X137266666Y-95391904D01*
X137219047Y-95487142D01*
X137171428Y-95534761D01*
X137076190Y-95582380D01*
X136838095Y-95582380D01*
X136742857Y-95534761D01*
X136695238Y-95487142D01*
X114822380Y-126298333D02*
X115536666Y-126298333D01*
X115679523Y-126345952D01*
X115774761Y-126441190D01*
X115822380Y-126584047D01*
X115822380Y-126679285D01*
X115822380Y-125298333D02*
X115822380Y-125869761D01*
X115822380Y-125584047D02*
X114822380Y-125584047D01*
X114965238Y-125679285D01*
X115060476Y-125774523D01*
X115108095Y-125869761D01*
X137682380Y-125028333D02*
X138396666Y-125028333D01*
X138539523Y-125075952D01*
X138634761Y-125171190D01*
X138682380Y-125314047D01*
X138682380Y-125409285D01*
X137777619Y-124599761D02*
X137730000Y-124552142D01*
X137682380Y-124456904D01*
X137682380Y-124218809D01*
X137730000Y-124123571D01*
X137777619Y-124075952D01*
X137872857Y-124028333D01*
X137968095Y-124028333D01*
X138110952Y-124075952D01*
X138682380Y-124647380D01*
X138682380Y-124028333D01*
%LPC*%
G36*
G01*
X115882500Y-106269999D02*
X115882500Y-107170001D01*
G75*
G02*
X115632501Y-107420000I-249999J0D01*
G01*
X115107499Y-107420000D01*
G75*
G02*
X114857500Y-107170001I0J249999D01*
G01*
X114857500Y-106269999D01*
G75*
G02*
X115107499Y-106020000I249999J0D01*
G01*
X115632501Y-106020000D01*
G75*
G02*
X115882500Y-106269999I0J-249999D01*
G01*
G37*
G36*
G01*
X117707500Y-106269999D02*
X117707500Y-107170001D01*
G75*
G02*
X117457501Y-107420000I-249999J0D01*
G01*
X116932499Y-107420000D01*
G75*
G02*
X116682500Y-107170001I0J249999D01*
G01*
X116682500Y-106269999D01*
G75*
G02*
X116932499Y-106020000I249999J0D01*
G01*
X117457501Y-106020000D01*
G75*
G02*
X117707500Y-106269999I0J-249999D01*
G01*
G37*
G36*
G01*
X115880000Y-101739999D02*
X115880000Y-102640001D01*
G75*
G02*
X115630001Y-102890000I-249999J0D01*
G01*
X115104999Y-102890000D01*
G75*
G02*
X114855000Y-102640001I0J249999D01*
G01*
X114855000Y-101739999D01*
G75*
G02*
X115104999Y-101490000I249999J0D01*
G01*
X115630001Y-101490000D01*
G75*
G02*
X115880000Y-101739999I0J-249999D01*
G01*
G37*
G36*
G01*
X117705000Y-101739999D02*
X117705000Y-102640001D01*
G75*
G02*
X117455001Y-102890000I-249999J0D01*
G01*
X116929999Y-102890000D01*
G75*
G02*
X116680000Y-102640001I0J249999D01*
G01*
X116680000Y-101739999D01*
G75*
G02*
X116929999Y-101490000I249999J0D01*
G01*
X117455001Y-101490000D01*
G75*
G02*
X117705000Y-101739999I0J-249999D01*
G01*
G37*
G36*
G01*
X115877500Y-97499999D02*
X115877500Y-98400001D01*
G75*
G02*
X115627501Y-98650000I-249999J0D01*
G01*
X115102499Y-98650000D01*
G75*
G02*
X114852500Y-98400001I0J249999D01*
G01*
X114852500Y-97499999D01*
G75*
G02*
X115102499Y-97250000I249999J0D01*
G01*
X115627501Y-97250000D01*
G75*
G02*
X115877500Y-97499999I0J-249999D01*
G01*
G37*
G36*
G01*
X117702500Y-97499999D02*
X117702500Y-98400001D01*
G75*
G02*
X117452501Y-98650000I-249999J0D01*
G01*
X116927499Y-98650000D01*
G75*
G02*
X116677500Y-98400001I0J249999D01*
G01*
X116677500Y-97499999D01*
G75*
G02*
X116927499Y-97250000I249999J0D01*
G01*
X117452501Y-97250000D01*
G75*
G02*
X117702500Y-97499999I0J-249999D01*
G01*
G37*
D15*
X153700000Y-77697400D03*
X153700000Y-75157400D03*
X151160000Y-77697400D03*
X151160000Y-75157400D03*
X148620000Y-77697400D03*
X148620000Y-75157400D03*
X146080000Y-77697400D03*
X146080000Y-75157400D03*
X143540000Y-77697400D03*
X143540000Y-75157400D03*
X141000000Y-77697400D03*
X141000000Y-75157400D03*
X138460000Y-77697400D03*
X138460000Y-75157400D03*
X135920000Y-77697400D03*
D16*
X135920000Y-75157400D03*
D15*
X131800900Y-77680100D03*
X131800900Y-75140100D03*
X129260900Y-77680100D03*
X129260900Y-75140100D03*
X126720900Y-77680100D03*
X126720900Y-75140100D03*
X124180900Y-77680100D03*
X124180900Y-75140100D03*
X121640900Y-77680100D03*
X121640900Y-75140100D03*
X119100900Y-77680100D03*
X119100900Y-75140100D03*
X116560900Y-77680100D03*
X116560900Y-75140100D03*
X114020900Y-77680100D03*
X114020900Y-75140100D03*
X111480900Y-77680100D03*
X111480900Y-75140100D03*
X108940900Y-77680100D03*
D16*
X108940900Y-75140100D03*
D17*
X164000000Y-103000000D03*
X164000000Y-102500000D03*
X164000000Y-102000000D03*
X164000000Y-101500000D03*
X164000000Y-101000000D03*
X164000000Y-100500000D03*
X164000000Y-100000000D03*
X164000000Y-99500000D03*
X164000000Y-99000000D03*
X164000000Y-98500000D03*
X164000000Y-98000000D03*
X164000000Y-97500000D03*
X164000000Y-97000000D03*
X164000000Y-96500000D03*
X164000000Y-96000000D03*
X164000000Y-95500000D03*
D18*
X166500000Y-104000000D03*
X166500000Y-94500000D03*
D15*
X143800000Y-100540000D03*
D16*
X143800000Y-98000000D03*
D15*
X143800000Y-109700000D03*
D16*
X143800000Y-107160000D03*
D15*
X136600000Y-109500000D03*
D16*
X136600000Y-106960000D03*
D15*
X136600000Y-100440000D03*
D16*
X136600000Y-97900000D03*
X118140000Y-125965000D03*
D15*
X120680000Y-125965000D03*
X123220000Y-125965000D03*
X125760000Y-125965000D03*
X128300000Y-125965000D03*
X130840000Y-125965000D03*
X133380000Y-125965000D03*
X135920000Y-125965000D03*
X163860000Y-125965000D03*
X163860000Y-123425000D03*
X161320000Y-125965000D03*
X161320000Y-123425000D03*
X158780000Y-125965000D03*
X158780000Y-123425000D03*
X156240000Y-125965000D03*
X156240000Y-123425000D03*
X153700000Y-125965000D03*
X153700000Y-123425000D03*
X151160000Y-125965000D03*
X151160000Y-123425000D03*
X148620000Y-125965000D03*
X148620000Y-123425000D03*
X146080000Y-125965000D03*
X146080000Y-123425000D03*
X143540000Y-125965000D03*
X143540000Y-123425000D03*
X141000000Y-125965000D03*
D16*
X141000000Y-123425000D03*
M02*
