G04 #@! TF.GenerationSoftware,KiCad,Pcbnew,(5.1.10)-1*
G04 #@! TF.CreationDate,2022-05-03T13:10:24+02:00*
G04 #@! TF.ProjectId,psoc_shield,70736f63-5f73-4686-9965-6c642e6b6963,rev?*
G04 #@! TF.SameCoordinates,Original*
G04 #@! TF.FileFunction,Soldermask,Top*
G04 #@! TF.FilePolarity,Negative*
%FSLAX46Y46*%
G04 Gerber Fmt 4.6, Leading zero omitted, Abs format (unit mm)*
G04 Created by KiCad (PCBNEW (5.1.10)-1) date 2022-05-03 13:10:24*
%MOMM*%
%LPD*%
G01*
G04 APERTURE LIST*
%ADD10O,1.700000X1.700000*%
%ADD11R,1.700000X1.700000*%
%ADD12R,0.800000X0.300000*%
%ADD13R,0.800000X0.400000*%
G04 APERTURE END LIST*
G36*
G01*
X115882500Y-106269999D02*
X115882500Y-107170001D01*
G75*
G02*
X115632501Y-107420000I-249999J0D01*
G01*
X115107499Y-107420000D01*
G75*
G02*
X114857500Y-107170001I0J249999D01*
G01*
X114857500Y-106269999D01*
G75*
G02*
X115107499Y-106020000I249999J0D01*
G01*
X115632501Y-106020000D01*
G75*
G02*
X115882500Y-106269999I0J-249999D01*
G01*
G37*
G36*
G01*
X117707500Y-106269999D02*
X117707500Y-107170001D01*
G75*
G02*
X117457501Y-107420000I-249999J0D01*
G01*
X116932499Y-107420000D01*
G75*
G02*
X116682500Y-107170001I0J249999D01*
G01*
X116682500Y-106269999D01*
G75*
G02*
X116932499Y-106020000I249999J0D01*
G01*
X117457501Y-106020000D01*
G75*
G02*
X117707500Y-106269999I0J-249999D01*
G01*
G37*
G36*
G01*
X115880000Y-101739999D02*
X115880000Y-102640001D01*
G75*
G02*
X115630001Y-102890000I-249999J0D01*
G01*
X115104999Y-102890000D01*
G75*
G02*
X114855000Y-102640001I0J249999D01*
G01*
X114855000Y-101739999D01*
G75*
G02*
X115104999Y-101490000I249999J0D01*
G01*
X115630001Y-101490000D01*
G75*
G02*
X115880000Y-101739999I0J-249999D01*
G01*
G37*
G36*
G01*
X117705000Y-101739999D02*
X117705000Y-102640001D01*
G75*
G02*
X117455001Y-102890000I-249999J0D01*
G01*
X116929999Y-102890000D01*
G75*
G02*
X116680000Y-102640001I0J249999D01*
G01*
X116680000Y-101739999D01*
G75*
G02*
X116929999Y-101490000I249999J0D01*
G01*
X117455001Y-101490000D01*
G75*
G02*
X117705000Y-101739999I0J-249999D01*
G01*
G37*
G36*
G01*
X115877500Y-97499999D02*
X115877500Y-98400001D01*
G75*
G02*
X115627501Y-98650000I-249999J0D01*
G01*
X115102499Y-98650000D01*
G75*
G02*
X114852500Y-98400001I0J249999D01*
G01*
X114852500Y-97499999D01*
G75*
G02*
X115102499Y-97250000I249999J0D01*
G01*
X115627501Y-97250000D01*
G75*
G02*
X115877500Y-97499999I0J-249999D01*
G01*
G37*
G36*
G01*
X117702500Y-97499999D02*
X117702500Y-98400001D01*
G75*
G02*
X117452501Y-98650000I-249999J0D01*
G01*
X116927499Y-98650000D01*
G75*
G02*
X116677500Y-98400001I0J249999D01*
G01*
X116677500Y-97499999D01*
G75*
G02*
X116927499Y-97250000I249999J0D01*
G01*
X117452501Y-97250000D01*
G75*
G02*
X117702500Y-97499999I0J-249999D01*
G01*
G37*
D10*
X153700000Y-77697400D03*
X153700000Y-75157400D03*
X151160000Y-77697400D03*
X151160000Y-75157400D03*
X148620000Y-77697400D03*
X148620000Y-75157400D03*
X146080000Y-77697400D03*
X146080000Y-75157400D03*
X143540000Y-77697400D03*
X143540000Y-75157400D03*
X141000000Y-77697400D03*
X141000000Y-75157400D03*
X138460000Y-77697400D03*
X138460000Y-75157400D03*
X135920000Y-77697400D03*
D11*
X135920000Y-75157400D03*
D10*
X131800900Y-77680100D03*
X131800900Y-75140100D03*
X129260900Y-77680100D03*
X129260900Y-75140100D03*
X126720900Y-77680100D03*
X126720900Y-75140100D03*
X124180900Y-77680100D03*
X124180900Y-75140100D03*
X121640900Y-77680100D03*
X121640900Y-75140100D03*
X119100900Y-77680100D03*
X119100900Y-75140100D03*
X116560900Y-77680100D03*
X116560900Y-75140100D03*
X114020900Y-77680100D03*
X114020900Y-75140100D03*
X111480900Y-77680100D03*
X111480900Y-75140100D03*
X108940900Y-77680100D03*
D11*
X108940900Y-75140100D03*
D12*
X164000000Y-103000000D03*
X164000000Y-102500000D03*
X164000000Y-102000000D03*
X164000000Y-101500000D03*
X164000000Y-101000000D03*
X164000000Y-100500000D03*
X164000000Y-100000000D03*
X164000000Y-99500000D03*
X164000000Y-99000000D03*
X164000000Y-98500000D03*
X164000000Y-98000000D03*
X164000000Y-97500000D03*
X164000000Y-97000000D03*
X164000000Y-96500000D03*
X164000000Y-96000000D03*
X164000000Y-95500000D03*
D13*
X166500000Y-104000000D03*
X166500000Y-94500000D03*
D10*
X143800000Y-100540000D03*
D11*
X143800000Y-98000000D03*
D10*
X143800000Y-109700000D03*
D11*
X143800000Y-107160000D03*
D10*
X136600000Y-109500000D03*
D11*
X136600000Y-106960000D03*
D10*
X136600000Y-100440000D03*
D11*
X136600000Y-97900000D03*
X118140000Y-125965000D03*
D10*
X120680000Y-125965000D03*
X123220000Y-125965000D03*
X125760000Y-125965000D03*
X128300000Y-125965000D03*
X130840000Y-125965000D03*
X133380000Y-125965000D03*
X135920000Y-125965000D03*
X163860000Y-125965000D03*
X163860000Y-123425000D03*
X161320000Y-125965000D03*
X161320000Y-123425000D03*
X158780000Y-125965000D03*
X158780000Y-123425000D03*
X156240000Y-125965000D03*
X156240000Y-123425000D03*
X153700000Y-125965000D03*
X153700000Y-123425000D03*
X151160000Y-125965000D03*
X151160000Y-123425000D03*
X148620000Y-125965000D03*
X148620000Y-123425000D03*
X146080000Y-125965000D03*
X146080000Y-123425000D03*
X143540000Y-125965000D03*
X143540000Y-123425000D03*
X141000000Y-125965000D03*
D11*
X141000000Y-123425000D03*
M02*
