M48
; DRILL file {KiCad (5.1.10)-1} date 05/03/22 13:10:27
; FORMAT={-:-/ absolute / inch / decimal}
; #@! TF.CreationDate,2022-05-03T13:10:27+02:00
; #@! TF.GenerationSoftware,Kicad,Pcbnew,(5.1.10)-1
FMAT,2
INCH
T1C0.0394
%
G90
G05
T1
X4.289Y-2.9583
X4.289Y-3.0583
X4.389Y-2.9583
X4.389Y-3.0583
X4.489Y-2.9583
X4.489Y-3.0583
X4.589Y-2.9583
X4.589Y-3.0583
X4.6512Y-4.9593
X4.689Y-2.9583
X4.689Y-3.0583
X4.7512Y-4.9593
X4.789Y-2.9583
X4.789Y-3.0583
X4.8512Y-4.9593
X4.889Y-2.9583
X4.889Y-3.0583
X4.9512Y-4.9593
X4.989Y-2.9583
X4.989Y-3.0583
X5.0512Y-4.9593
X5.089Y-2.9583
X5.089Y-3.0583
X5.1512Y-4.9593
X5.189Y-2.9583
X5.189Y-3.0583
X5.2512Y-4.9593
X5.3512Y-2.959
X5.3512Y-3.059
X5.3512Y-4.9593
X5.378Y-3.8543
X5.378Y-3.9543
X5.378Y-4.211
X5.378Y-4.311
X5.4512Y-2.959
X5.4512Y-3.059
X5.5512Y-2.959
X5.5512Y-3.059
X5.5512Y-4.8593
X5.5512Y-4.9593
X5.6512Y-2.959
X5.6512Y-3.059
X5.6512Y-4.8593
X5.6512Y-4.9593
X5.6614Y-3.8583
X5.6614Y-3.9583
X5.6614Y-4.2189
X5.6614Y-4.3189
X5.7512Y-2.959
X5.7512Y-3.059
X5.7512Y-4.8593
X5.7512Y-4.9593
X5.8512Y-2.959
X5.8512Y-3.059
X5.8512Y-4.8593
X5.8512Y-4.9593
X5.9512Y-2.959
X5.9512Y-3.059
X5.9512Y-4.8593
X5.9512Y-4.9593
X6.0512Y-2.959
X6.0512Y-3.059
X6.0512Y-4.8593
X6.0512Y-4.9593
X6.1512Y-4.8593
X6.1512Y-4.9593
X6.2512Y-4.8593
X6.2512Y-4.9593
X6.3512Y-4.8593
X6.3512Y-4.9593
X6.4512Y-4.8593
X6.4512Y-4.9593
T0
M30
