G04 #@! TF.GenerationSoftware,KiCad,Pcbnew,(5.1.10)-1*
G04 #@! TF.CreationDate,2022-01-31T14:32:23+01:00*
G04 #@! TF.ProjectId,psoc_shield,70736f63-5f73-4686-9965-6c642e6b6963,rev?*
G04 #@! TF.SameCoordinates,Original*
G04 #@! TF.FileFunction,Soldermask,Bot*
G04 #@! TF.FilePolarity,Negative*
%FSLAX46Y46*%
G04 Gerber Fmt 4.6, Leading zero omitted, Abs format (unit mm)*
G04 Created by KiCad (PCBNEW (5.1.10)-1) date 2022-01-31 14:32:23*
%MOMM*%
%LPD*%
G01*
G04 APERTURE LIST*
%ADD10O,1.700000X1.700000*%
%ADD11R,1.700000X1.700000*%
G04 APERTURE END LIST*
D10*
X143800000Y-109700000D03*
D11*
X143800000Y-107160000D03*
D10*
X143800000Y-100540000D03*
D11*
X143800000Y-98000000D03*
D10*
X136600000Y-109500000D03*
D11*
X136600000Y-106960000D03*
D10*
X136700000Y-100440000D03*
D11*
X136700000Y-97900000D03*
D10*
X114360000Y-107200000D03*
D11*
X116900000Y-107200000D03*
D10*
X114310000Y-102500000D03*
D11*
X116850000Y-102500000D03*
D10*
X114310000Y-97900000D03*
D11*
X116850000Y-97900000D03*
D10*
X135920000Y-75157400D03*
X138460000Y-75157400D03*
X141000000Y-75157400D03*
X143540000Y-75157400D03*
X146080000Y-75157400D03*
X148620000Y-75157400D03*
X151160000Y-75157400D03*
D11*
X153700000Y-75157400D03*
X108996000Y-77705000D03*
D10*
X111536000Y-77705000D03*
X114076000Y-77705000D03*
X116616000Y-77705000D03*
X119156000Y-77705000D03*
X121696000Y-77705000D03*
X124236000Y-77705000D03*
X126776000Y-77705000D03*
X129316000Y-77705000D03*
X131856000Y-77705000D03*
D11*
X118140000Y-125965000D03*
D10*
X120680000Y-125965000D03*
X123220000Y-125965000D03*
X125760000Y-125965000D03*
X128300000Y-125965000D03*
X130840000Y-125965000D03*
X133380000Y-125965000D03*
X135920000Y-125965000D03*
X163860000Y-125965000D03*
X163860000Y-123425000D03*
X161320000Y-125965000D03*
X161320000Y-123425000D03*
X158780000Y-125965000D03*
X158780000Y-123425000D03*
X156240000Y-125965000D03*
X156240000Y-123425000D03*
X153700000Y-125965000D03*
X153700000Y-123425000D03*
X151160000Y-125965000D03*
X151160000Y-123425000D03*
X148620000Y-125965000D03*
X148620000Y-123425000D03*
X146080000Y-125965000D03*
X146080000Y-123425000D03*
X143540000Y-125965000D03*
X143540000Y-123425000D03*
X141000000Y-125965000D03*
D11*
X141000000Y-123425000D03*
M02*
