G04 #@! TF.GenerationSoftware,KiCad,Pcbnew,(5.1.10)-1*
G04 #@! TF.CreationDate,2022-01-31T14:32:23+01:00*
G04 #@! TF.ProjectId,psoc_shield,70736f63-5f73-4686-9965-6c642e6b6963,rev?*
G04 #@! TF.SameCoordinates,Original*
G04 #@! TF.FileFunction,Copper,L2,Bot*
G04 #@! TF.FilePolarity,Positive*
%FSLAX46Y46*%
G04 Gerber Fmt 4.6, Leading zero omitted, Abs format (unit mm)*
G04 Created by KiCad (PCBNEW (5.1.10)-1) date 2022-01-31 14:32:23*
%MOMM*%
%LPD*%
G01*
G04 APERTURE LIST*
G04 #@! TA.AperFunction,ComponentPad*
%ADD10O,1.700000X1.700000*%
G04 #@! TD*
G04 #@! TA.AperFunction,ComponentPad*
%ADD11R,1.700000X1.700000*%
G04 #@! TD*
G04 #@! TA.AperFunction,Conductor*
%ADD12C,0.500000*%
G04 #@! TD*
G04 #@! TA.AperFunction,Conductor*
%ADD13C,0.254000*%
G04 #@! TD*
G04 #@! TA.AperFunction,Conductor*
%ADD14C,0.100000*%
G04 #@! TD*
G04 APERTURE END LIST*
D10*
X143800000Y-109700000D03*
D11*
X143800000Y-107160000D03*
D10*
X143800000Y-100540000D03*
D11*
X143800000Y-98000000D03*
D10*
X136600000Y-109500000D03*
D11*
X136600000Y-106960000D03*
D10*
X136700000Y-100440000D03*
D11*
X136700000Y-97900000D03*
D10*
X114360000Y-107200000D03*
D11*
X116900000Y-107200000D03*
D10*
X114310000Y-102500000D03*
D11*
X116850000Y-102500000D03*
D10*
X114310000Y-97900000D03*
D11*
X116850000Y-97900000D03*
D10*
X135920000Y-75157400D03*
X138460000Y-75157400D03*
X141000000Y-75157400D03*
X143540000Y-75157400D03*
X146080000Y-75157400D03*
X148620000Y-75157400D03*
X151160000Y-75157400D03*
D11*
X153700000Y-75157400D03*
X108996000Y-77705000D03*
D10*
X111536000Y-77705000D03*
X114076000Y-77705000D03*
X116616000Y-77705000D03*
X119156000Y-77705000D03*
X121696000Y-77705000D03*
X124236000Y-77705000D03*
X126776000Y-77705000D03*
X129316000Y-77705000D03*
X131856000Y-77705000D03*
D11*
X118140000Y-125965000D03*
D10*
X120680000Y-125965000D03*
X123220000Y-125965000D03*
X125760000Y-125965000D03*
X128300000Y-125965000D03*
X130840000Y-125965000D03*
X133380000Y-125965000D03*
X135920000Y-125965000D03*
X163860000Y-125965000D03*
X163860000Y-123425000D03*
X161320000Y-125965000D03*
X161320000Y-123425000D03*
X158780000Y-125965000D03*
X158780000Y-123425000D03*
X156240000Y-125965000D03*
X156240000Y-123425000D03*
X153700000Y-125965000D03*
X153700000Y-123425000D03*
X151160000Y-125965000D03*
X151160000Y-123425000D03*
X148620000Y-125965000D03*
X148620000Y-123425000D03*
X146080000Y-125965000D03*
X146080000Y-123425000D03*
X143540000Y-125965000D03*
X143540000Y-123425000D03*
X141000000Y-125965000D03*
D11*
X141000000Y-123425000D03*
D12*
X150100022Y-71899978D02*
X148620000Y-73380000D01*
X162000022Y-82079908D02*
X162000022Y-74520092D01*
X153379908Y-90700022D02*
X162000022Y-82079908D01*
X148620000Y-73380000D02*
X148620000Y-75157400D01*
X159379908Y-71899978D02*
X150100022Y-71899978D01*
X135299978Y-90700022D02*
X153379908Y-90700022D01*
X118800000Y-107200000D02*
X135299978Y-90700022D01*
X162000022Y-74520092D02*
X159379908Y-71899978D01*
X116900000Y-107200000D02*
X118800000Y-107200000D01*
X151160000Y-73540000D02*
X151160000Y-75157400D01*
X159089954Y-72599989D02*
X152100011Y-72599989D01*
X161300011Y-74810046D02*
X159089954Y-72599989D01*
X161300011Y-81789954D02*
X161300011Y-74810046D01*
X131499989Y-90000011D02*
X153089954Y-90000011D01*
X119000000Y-102500000D02*
X131499989Y-90000011D01*
X152100011Y-72599989D02*
X151160000Y-73540000D01*
X153089954Y-90000011D02*
X161300011Y-81789954D01*
X116850000Y-102500000D02*
X119000000Y-102500000D01*
X116850000Y-97900000D02*
X119000000Y-97900000D01*
X119000000Y-97900000D02*
X127600000Y-89300000D01*
X127600000Y-89300000D02*
X152800000Y-89300000D01*
X152800000Y-89300000D02*
X160600000Y-81500000D01*
X160600000Y-81500000D02*
X160600000Y-75100000D01*
X155557400Y-73300000D02*
X153700000Y-75157400D01*
X160600000Y-75100000D02*
X158800000Y-73300000D01*
X158800000Y-73300000D02*
X155557400Y-73300000D01*
X156240000Y-129040000D02*
X158300000Y-131100000D01*
X163760000Y-107160000D02*
X143800000Y-107160000D01*
X158300000Y-131100000D02*
X165600000Y-131100000D01*
X167400000Y-110800000D02*
X163760000Y-107160000D01*
X156240000Y-125965000D02*
X156240000Y-129040000D01*
X167400000Y-129300000D02*
X167400000Y-110800000D01*
X165600000Y-131100000D02*
X167400000Y-129300000D01*
X134940000Y-106960000D02*
X136600000Y-106960000D01*
X133400000Y-108500000D02*
X134940000Y-106960000D01*
X133400000Y-117200000D02*
X133400000Y-108500000D01*
X138300000Y-128300000D02*
X138300000Y-122100000D01*
X138300000Y-122100000D02*
X133400000Y-117200000D01*
X140900000Y-130900000D02*
X138300000Y-128300000D01*
X152000000Y-130900000D02*
X140900000Y-130900000D01*
X153700000Y-129200000D02*
X152000000Y-130900000D01*
X153700000Y-125965000D02*
X153700000Y-129200000D01*
X143800000Y-98000000D02*
X141800000Y-98000000D01*
X140500010Y-117010048D02*
X141689952Y-118199990D01*
X141689952Y-118199990D02*
X145089953Y-118199990D01*
X141800000Y-98000000D02*
X140500010Y-99299990D01*
X145089953Y-118199990D02*
X148620000Y-121730037D01*
X148620000Y-121730037D02*
X148620000Y-123425000D01*
X140500010Y-99299990D02*
X140500010Y-117010048D01*
X139800000Y-99100000D02*
X139800000Y-117300000D01*
X139800000Y-117300000D02*
X141400000Y-118900000D01*
X141400000Y-118900000D02*
X144800000Y-118900000D01*
X144800000Y-118900000D02*
X146080000Y-120180000D01*
X146080000Y-120180000D02*
X146080000Y-123425000D01*
X138600000Y-97900000D02*
X139800000Y-99100000D01*
X136700000Y-97900000D02*
X138600000Y-97900000D01*
D13*
X180048000Y-134148000D02*
X104852000Y-134148000D01*
X104852000Y-125115000D01*
X116961418Y-125115000D01*
X116961418Y-126815000D01*
X116967732Y-126879103D01*
X116986430Y-126940743D01*
X117016794Y-126997550D01*
X117057657Y-127047343D01*
X117107450Y-127088206D01*
X117164257Y-127118570D01*
X117225897Y-127137268D01*
X117290000Y-127143582D01*
X118990000Y-127143582D01*
X119054103Y-127137268D01*
X119115743Y-127118570D01*
X119172550Y-127088206D01*
X119222343Y-127047343D01*
X119263206Y-126997550D01*
X119293570Y-126940743D01*
X119312268Y-126879103D01*
X119318582Y-126815000D01*
X119318582Y-125849076D01*
X119503000Y-125849076D01*
X119503000Y-126080924D01*
X119548231Y-126308318D01*
X119636956Y-126522519D01*
X119765764Y-126715294D01*
X119929706Y-126879236D01*
X120122481Y-127008044D01*
X120336682Y-127096769D01*
X120564076Y-127142000D01*
X120795924Y-127142000D01*
X121023318Y-127096769D01*
X121237519Y-127008044D01*
X121430294Y-126879236D01*
X121594236Y-126715294D01*
X121723044Y-126522519D01*
X121811769Y-126308318D01*
X121857000Y-126080924D01*
X121857000Y-125849076D01*
X122043000Y-125849076D01*
X122043000Y-126080924D01*
X122088231Y-126308318D01*
X122176956Y-126522519D01*
X122305764Y-126715294D01*
X122469706Y-126879236D01*
X122662481Y-127008044D01*
X122876682Y-127096769D01*
X123104076Y-127142000D01*
X123335924Y-127142000D01*
X123563318Y-127096769D01*
X123777519Y-127008044D01*
X123970294Y-126879236D01*
X124134236Y-126715294D01*
X124263044Y-126522519D01*
X124351769Y-126308318D01*
X124397000Y-126080924D01*
X124397000Y-125849076D01*
X124583000Y-125849076D01*
X124583000Y-126080924D01*
X124628231Y-126308318D01*
X124716956Y-126522519D01*
X124845764Y-126715294D01*
X125009706Y-126879236D01*
X125202481Y-127008044D01*
X125416682Y-127096769D01*
X125644076Y-127142000D01*
X125875924Y-127142000D01*
X126103318Y-127096769D01*
X126317519Y-127008044D01*
X126510294Y-126879236D01*
X126674236Y-126715294D01*
X126803044Y-126522519D01*
X126891769Y-126308318D01*
X126937000Y-126080924D01*
X126937000Y-125849076D01*
X127123000Y-125849076D01*
X127123000Y-126080924D01*
X127168231Y-126308318D01*
X127256956Y-126522519D01*
X127385764Y-126715294D01*
X127549706Y-126879236D01*
X127742481Y-127008044D01*
X127956682Y-127096769D01*
X128184076Y-127142000D01*
X128415924Y-127142000D01*
X128643318Y-127096769D01*
X128857519Y-127008044D01*
X129050294Y-126879236D01*
X129214236Y-126715294D01*
X129343044Y-126522519D01*
X129411264Y-126357821D01*
X129495843Y-126596252D01*
X129644822Y-126846355D01*
X129839731Y-127062588D01*
X130073080Y-127236641D01*
X130335901Y-127361825D01*
X130483110Y-127406476D01*
X130713000Y-127285155D01*
X130713000Y-126092000D01*
X130693000Y-126092000D01*
X130693000Y-125838000D01*
X130713000Y-125838000D01*
X130713000Y-124644845D01*
X130967000Y-124644845D01*
X130967000Y-125838000D01*
X130987000Y-125838000D01*
X130987000Y-126092000D01*
X130967000Y-126092000D01*
X130967000Y-127285155D01*
X131196890Y-127406476D01*
X131344099Y-127361825D01*
X131606920Y-127236641D01*
X131840269Y-127062588D01*
X132035178Y-126846355D01*
X132184157Y-126596252D01*
X132268736Y-126357821D01*
X132336956Y-126522519D01*
X132465764Y-126715294D01*
X132629706Y-126879236D01*
X132822481Y-127008044D01*
X133036682Y-127096769D01*
X133264076Y-127142000D01*
X133495924Y-127142000D01*
X133723318Y-127096769D01*
X133937519Y-127008044D01*
X134130294Y-126879236D01*
X134294236Y-126715294D01*
X134423044Y-126522519D01*
X134511769Y-126308318D01*
X134557000Y-126080924D01*
X134557000Y-125849076D01*
X134743000Y-125849076D01*
X134743000Y-126080924D01*
X134788231Y-126308318D01*
X134876956Y-126522519D01*
X135005764Y-126715294D01*
X135169706Y-126879236D01*
X135362481Y-127008044D01*
X135576682Y-127096769D01*
X135804076Y-127142000D01*
X136035924Y-127142000D01*
X136263318Y-127096769D01*
X136477519Y-127008044D01*
X136670294Y-126879236D01*
X136834236Y-126715294D01*
X136963044Y-126522519D01*
X137051769Y-126308318D01*
X137097000Y-126080924D01*
X137097000Y-125849076D01*
X137051769Y-125621682D01*
X136963044Y-125407481D01*
X136834236Y-125214706D01*
X136670294Y-125050764D01*
X136477519Y-124921956D01*
X136263318Y-124833231D01*
X136035924Y-124788000D01*
X135804076Y-124788000D01*
X135576682Y-124833231D01*
X135362481Y-124921956D01*
X135169706Y-125050764D01*
X135005764Y-125214706D01*
X134876956Y-125407481D01*
X134788231Y-125621682D01*
X134743000Y-125849076D01*
X134557000Y-125849076D01*
X134511769Y-125621682D01*
X134423044Y-125407481D01*
X134294236Y-125214706D01*
X134130294Y-125050764D01*
X133937519Y-124921956D01*
X133723318Y-124833231D01*
X133495924Y-124788000D01*
X133264076Y-124788000D01*
X133036682Y-124833231D01*
X132822481Y-124921956D01*
X132629706Y-125050764D01*
X132465764Y-125214706D01*
X132336956Y-125407481D01*
X132268736Y-125572179D01*
X132184157Y-125333748D01*
X132035178Y-125083645D01*
X131840269Y-124867412D01*
X131606920Y-124693359D01*
X131344099Y-124568175D01*
X131196890Y-124523524D01*
X130967000Y-124644845D01*
X130713000Y-124644845D01*
X130483110Y-124523524D01*
X130335901Y-124568175D01*
X130073080Y-124693359D01*
X129839731Y-124867412D01*
X129644822Y-125083645D01*
X129495843Y-125333748D01*
X129411264Y-125572179D01*
X129343044Y-125407481D01*
X129214236Y-125214706D01*
X129050294Y-125050764D01*
X128857519Y-124921956D01*
X128643318Y-124833231D01*
X128415924Y-124788000D01*
X128184076Y-124788000D01*
X127956682Y-124833231D01*
X127742481Y-124921956D01*
X127549706Y-125050764D01*
X127385764Y-125214706D01*
X127256956Y-125407481D01*
X127168231Y-125621682D01*
X127123000Y-125849076D01*
X126937000Y-125849076D01*
X126891769Y-125621682D01*
X126803044Y-125407481D01*
X126674236Y-125214706D01*
X126510294Y-125050764D01*
X126317519Y-124921956D01*
X126103318Y-124833231D01*
X125875924Y-124788000D01*
X125644076Y-124788000D01*
X125416682Y-124833231D01*
X125202481Y-124921956D01*
X125009706Y-125050764D01*
X124845764Y-125214706D01*
X124716956Y-125407481D01*
X124628231Y-125621682D01*
X124583000Y-125849076D01*
X124397000Y-125849076D01*
X124351769Y-125621682D01*
X124263044Y-125407481D01*
X124134236Y-125214706D01*
X123970294Y-125050764D01*
X123777519Y-124921956D01*
X123563318Y-124833231D01*
X123335924Y-124788000D01*
X123104076Y-124788000D01*
X122876682Y-124833231D01*
X122662481Y-124921956D01*
X122469706Y-125050764D01*
X122305764Y-125214706D01*
X122176956Y-125407481D01*
X122088231Y-125621682D01*
X122043000Y-125849076D01*
X121857000Y-125849076D01*
X121811769Y-125621682D01*
X121723044Y-125407481D01*
X121594236Y-125214706D01*
X121430294Y-125050764D01*
X121237519Y-124921956D01*
X121023318Y-124833231D01*
X120795924Y-124788000D01*
X120564076Y-124788000D01*
X120336682Y-124833231D01*
X120122481Y-124921956D01*
X119929706Y-125050764D01*
X119765764Y-125214706D01*
X119636956Y-125407481D01*
X119548231Y-125621682D01*
X119503000Y-125849076D01*
X119318582Y-125849076D01*
X119318582Y-125115000D01*
X119312268Y-125050897D01*
X119293570Y-124989257D01*
X119263206Y-124932450D01*
X119222343Y-124882657D01*
X119172550Y-124841794D01*
X119115743Y-124811430D01*
X119054103Y-124792732D01*
X118990000Y-124786418D01*
X117290000Y-124786418D01*
X117225897Y-124792732D01*
X117164257Y-124811430D01*
X117107450Y-124841794D01*
X117057657Y-124882657D01*
X117016794Y-124932450D01*
X116986430Y-124989257D01*
X116967732Y-125050897D01*
X116961418Y-125115000D01*
X104852000Y-125115000D01*
X104852000Y-108500000D01*
X132820210Y-108500000D01*
X132823001Y-108528341D01*
X132823000Y-117171669D01*
X132820210Y-117200000D01*
X132823000Y-117228331D01*
X132823000Y-117228335D01*
X132825334Y-117252028D01*
X132831349Y-117313111D01*
X132837129Y-117332163D01*
X132864343Y-117421875D01*
X132917921Y-117522114D01*
X132990026Y-117609974D01*
X133012038Y-117628039D01*
X137723001Y-122339002D01*
X137723000Y-128271669D01*
X137720210Y-128300000D01*
X137731349Y-128413111D01*
X137745637Y-128460210D01*
X137764343Y-128521875D01*
X137817921Y-128622114D01*
X137890026Y-128709974D01*
X137912038Y-128728039D01*
X140471965Y-131287967D01*
X140490026Y-131309974D01*
X140512033Y-131328035D01*
X140512035Y-131328037D01*
X140531980Y-131344405D01*
X140577885Y-131382079D01*
X140678124Y-131435657D01*
X140786888Y-131468650D01*
X140871664Y-131477000D01*
X140871670Y-131477000D01*
X140899999Y-131479790D01*
X140928328Y-131477000D01*
X151971669Y-131477000D01*
X152000000Y-131479790D01*
X152028331Y-131477000D01*
X152028336Y-131477000D01*
X152058045Y-131474074D01*
X152113111Y-131468651D01*
X152157770Y-131455103D01*
X152221876Y-131435657D01*
X152322115Y-131382079D01*
X152409974Y-131309974D01*
X152428039Y-131287962D01*
X154087967Y-129628035D01*
X154109974Y-129609974D01*
X154182079Y-129522115D01*
X154235657Y-129421876D01*
X154268650Y-129313112D01*
X154277000Y-129228336D01*
X154277000Y-129228330D01*
X154279790Y-129200001D01*
X154277000Y-129171672D01*
X154277000Y-126995027D01*
X154450294Y-126879236D01*
X154614236Y-126715294D01*
X154743044Y-126522519D01*
X154831769Y-126308318D01*
X154877000Y-126080924D01*
X154877000Y-125849076D01*
X154831769Y-125621682D01*
X154743044Y-125407481D01*
X154614236Y-125214706D01*
X154450294Y-125050764D01*
X154257519Y-124921956D01*
X154043318Y-124833231D01*
X153815924Y-124788000D01*
X153584076Y-124788000D01*
X153356682Y-124833231D01*
X153142481Y-124921956D01*
X152949706Y-125050764D01*
X152785764Y-125214706D01*
X152656956Y-125407481D01*
X152568231Y-125621682D01*
X152523000Y-125849076D01*
X152523000Y-126080924D01*
X152568231Y-126308318D01*
X152656956Y-126522519D01*
X152785764Y-126715294D01*
X152949706Y-126879236D01*
X153123000Y-126995027D01*
X153123001Y-128960997D01*
X151760999Y-130323000D01*
X141139002Y-130323000D01*
X138877000Y-128060999D01*
X138877000Y-125849076D01*
X139823000Y-125849076D01*
X139823000Y-126080924D01*
X139868231Y-126308318D01*
X139956956Y-126522519D01*
X140085764Y-126715294D01*
X140249706Y-126879236D01*
X140442481Y-127008044D01*
X140656682Y-127096769D01*
X140884076Y-127142000D01*
X141115924Y-127142000D01*
X141343318Y-127096769D01*
X141557519Y-127008044D01*
X141750294Y-126879236D01*
X141914236Y-126715294D01*
X142043044Y-126522519D01*
X142131769Y-126308318D01*
X142177000Y-126080924D01*
X142177000Y-125849076D01*
X142363000Y-125849076D01*
X142363000Y-126080924D01*
X142408231Y-126308318D01*
X142496956Y-126522519D01*
X142625764Y-126715294D01*
X142789706Y-126879236D01*
X142982481Y-127008044D01*
X143196682Y-127096769D01*
X143424076Y-127142000D01*
X143655924Y-127142000D01*
X143883318Y-127096769D01*
X144097519Y-127008044D01*
X144290294Y-126879236D01*
X144454236Y-126715294D01*
X144583044Y-126522519D01*
X144671769Y-126308318D01*
X144717000Y-126080924D01*
X144717000Y-125849076D01*
X144903000Y-125849076D01*
X144903000Y-126080924D01*
X144948231Y-126308318D01*
X145036956Y-126522519D01*
X145165764Y-126715294D01*
X145329706Y-126879236D01*
X145522481Y-127008044D01*
X145736682Y-127096769D01*
X145964076Y-127142000D01*
X146195924Y-127142000D01*
X146423318Y-127096769D01*
X146637519Y-127008044D01*
X146830294Y-126879236D01*
X146994236Y-126715294D01*
X147123044Y-126522519D01*
X147211769Y-126308318D01*
X147257000Y-126080924D01*
X147257000Y-125849076D01*
X147443000Y-125849076D01*
X147443000Y-126080924D01*
X147488231Y-126308318D01*
X147576956Y-126522519D01*
X147705764Y-126715294D01*
X147869706Y-126879236D01*
X148062481Y-127008044D01*
X148276682Y-127096769D01*
X148504076Y-127142000D01*
X148735924Y-127142000D01*
X148963318Y-127096769D01*
X149177519Y-127008044D01*
X149370294Y-126879236D01*
X149534236Y-126715294D01*
X149663044Y-126522519D01*
X149751769Y-126308318D01*
X149797000Y-126080924D01*
X149797000Y-125849076D01*
X149983000Y-125849076D01*
X149983000Y-126080924D01*
X150028231Y-126308318D01*
X150116956Y-126522519D01*
X150245764Y-126715294D01*
X150409706Y-126879236D01*
X150602481Y-127008044D01*
X150816682Y-127096769D01*
X151044076Y-127142000D01*
X151275924Y-127142000D01*
X151503318Y-127096769D01*
X151717519Y-127008044D01*
X151910294Y-126879236D01*
X152074236Y-126715294D01*
X152203044Y-126522519D01*
X152291769Y-126308318D01*
X152337000Y-126080924D01*
X152337000Y-125849076D01*
X152291769Y-125621682D01*
X152203044Y-125407481D01*
X152074236Y-125214706D01*
X151910294Y-125050764D01*
X151717519Y-124921956D01*
X151503318Y-124833231D01*
X151275924Y-124788000D01*
X151044076Y-124788000D01*
X150816682Y-124833231D01*
X150602481Y-124921956D01*
X150409706Y-125050764D01*
X150245764Y-125214706D01*
X150116956Y-125407481D01*
X150028231Y-125621682D01*
X149983000Y-125849076D01*
X149797000Y-125849076D01*
X149751769Y-125621682D01*
X149663044Y-125407481D01*
X149534236Y-125214706D01*
X149370294Y-125050764D01*
X149177519Y-124921956D01*
X148963318Y-124833231D01*
X148735924Y-124788000D01*
X148504076Y-124788000D01*
X148276682Y-124833231D01*
X148062481Y-124921956D01*
X147869706Y-125050764D01*
X147705764Y-125214706D01*
X147576956Y-125407481D01*
X147488231Y-125621682D01*
X147443000Y-125849076D01*
X147257000Y-125849076D01*
X147211769Y-125621682D01*
X147123044Y-125407481D01*
X146994236Y-125214706D01*
X146830294Y-125050764D01*
X146637519Y-124921956D01*
X146423318Y-124833231D01*
X146195924Y-124788000D01*
X145964076Y-124788000D01*
X145736682Y-124833231D01*
X145522481Y-124921956D01*
X145329706Y-125050764D01*
X145165764Y-125214706D01*
X145036956Y-125407481D01*
X144948231Y-125621682D01*
X144903000Y-125849076D01*
X144717000Y-125849076D01*
X144671769Y-125621682D01*
X144583044Y-125407481D01*
X144454236Y-125214706D01*
X144290294Y-125050764D01*
X144097519Y-124921956D01*
X143883318Y-124833231D01*
X143655924Y-124788000D01*
X143424076Y-124788000D01*
X143196682Y-124833231D01*
X142982481Y-124921956D01*
X142789706Y-125050764D01*
X142625764Y-125214706D01*
X142496956Y-125407481D01*
X142408231Y-125621682D01*
X142363000Y-125849076D01*
X142177000Y-125849076D01*
X142131769Y-125621682D01*
X142043044Y-125407481D01*
X141914236Y-125214706D01*
X141750294Y-125050764D01*
X141557519Y-124921956D01*
X141343318Y-124833231D01*
X141115924Y-124788000D01*
X140884076Y-124788000D01*
X140656682Y-124833231D01*
X140442481Y-124921956D01*
X140249706Y-125050764D01*
X140085764Y-125214706D01*
X139956956Y-125407481D01*
X139868231Y-125621682D01*
X139823000Y-125849076D01*
X138877000Y-125849076D01*
X138877000Y-122575000D01*
X139821418Y-122575000D01*
X139821418Y-124275000D01*
X139827732Y-124339103D01*
X139846430Y-124400743D01*
X139876794Y-124457550D01*
X139917657Y-124507343D01*
X139967450Y-124548206D01*
X140024257Y-124578570D01*
X140085897Y-124597268D01*
X140150000Y-124603582D01*
X141850000Y-124603582D01*
X141914103Y-124597268D01*
X141975743Y-124578570D01*
X142032550Y-124548206D01*
X142082343Y-124507343D01*
X142123206Y-124457550D01*
X142153570Y-124400743D01*
X142172268Y-124339103D01*
X142178582Y-124275000D01*
X142178582Y-123309076D01*
X142363000Y-123309076D01*
X142363000Y-123540924D01*
X142408231Y-123768318D01*
X142496956Y-123982519D01*
X142625764Y-124175294D01*
X142789706Y-124339236D01*
X142982481Y-124468044D01*
X143196682Y-124556769D01*
X143424076Y-124602000D01*
X143655924Y-124602000D01*
X143883318Y-124556769D01*
X144097519Y-124468044D01*
X144290294Y-124339236D01*
X144454236Y-124175294D01*
X144583044Y-123982519D01*
X144671769Y-123768318D01*
X144717000Y-123540924D01*
X144717000Y-123309076D01*
X144671769Y-123081682D01*
X144583044Y-122867481D01*
X144454236Y-122674706D01*
X144290294Y-122510764D01*
X144097519Y-122381956D01*
X143883318Y-122293231D01*
X143655924Y-122248000D01*
X143424076Y-122248000D01*
X143196682Y-122293231D01*
X142982481Y-122381956D01*
X142789706Y-122510764D01*
X142625764Y-122674706D01*
X142496956Y-122867481D01*
X142408231Y-123081682D01*
X142363000Y-123309076D01*
X142178582Y-123309076D01*
X142178582Y-122575000D01*
X142172268Y-122510897D01*
X142153570Y-122449257D01*
X142123206Y-122392450D01*
X142082343Y-122342657D01*
X142032550Y-122301794D01*
X141975743Y-122271430D01*
X141914103Y-122252732D01*
X141850000Y-122246418D01*
X140150000Y-122246418D01*
X140085897Y-122252732D01*
X140024257Y-122271430D01*
X139967450Y-122301794D01*
X139917657Y-122342657D01*
X139876794Y-122392450D01*
X139846430Y-122449257D01*
X139827732Y-122510897D01*
X139821418Y-122575000D01*
X138877000Y-122575000D01*
X138877000Y-122128328D01*
X138879790Y-122099999D01*
X138877000Y-122071670D01*
X138877000Y-122071664D01*
X138868650Y-121986888D01*
X138835657Y-121878124D01*
X138782079Y-121777885D01*
X138709974Y-121690026D01*
X138687962Y-121671961D01*
X133977000Y-116960999D01*
X133977000Y-109856890D01*
X135158524Y-109856890D01*
X135203175Y-110004099D01*
X135328359Y-110266920D01*
X135502412Y-110500269D01*
X135718645Y-110695178D01*
X135968748Y-110844157D01*
X136243109Y-110941481D01*
X136473000Y-110820814D01*
X136473000Y-109627000D01*
X136727000Y-109627000D01*
X136727000Y-110820814D01*
X136956891Y-110941481D01*
X137231252Y-110844157D01*
X137481355Y-110695178D01*
X137697588Y-110500269D01*
X137871641Y-110266920D01*
X137996825Y-110004099D01*
X138041476Y-109856890D01*
X137920155Y-109627000D01*
X136727000Y-109627000D01*
X136473000Y-109627000D01*
X135279845Y-109627000D01*
X135158524Y-109856890D01*
X133977000Y-109856890D01*
X133977000Y-108739001D01*
X135179001Y-107537000D01*
X135421418Y-107537000D01*
X135421418Y-107810000D01*
X135427732Y-107874103D01*
X135446430Y-107935743D01*
X135476794Y-107992550D01*
X135517657Y-108042343D01*
X135567450Y-108083206D01*
X135624257Y-108113570D01*
X135685897Y-108132268D01*
X135750000Y-108138582D01*
X136017408Y-108138582D01*
X135968748Y-108155843D01*
X135718645Y-108304822D01*
X135502412Y-108499731D01*
X135328359Y-108733080D01*
X135203175Y-108995901D01*
X135158524Y-109143110D01*
X135279845Y-109373000D01*
X136473000Y-109373000D01*
X136473000Y-109353000D01*
X136727000Y-109353000D01*
X136727000Y-109373000D01*
X137920155Y-109373000D01*
X138041476Y-109143110D01*
X137996825Y-108995901D01*
X137871641Y-108733080D01*
X137697588Y-108499731D01*
X137481355Y-108304822D01*
X137231252Y-108155843D01*
X137182592Y-108138582D01*
X137450000Y-108138582D01*
X137514103Y-108132268D01*
X137575743Y-108113570D01*
X137632550Y-108083206D01*
X137682343Y-108042343D01*
X137723206Y-107992550D01*
X137753570Y-107935743D01*
X137772268Y-107874103D01*
X137778582Y-107810000D01*
X137778582Y-106110000D01*
X137772268Y-106045897D01*
X137753570Y-105984257D01*
X137723206Y-105927450D01*
X137682343Y-105877657D01*
X137632550Y-105836794D01*
X137575743Y-105806430D01*
X137514103Y-105787732D01*
X137450000Y-105781418D01*
X135750000Y-105781418D01*
X135685897Y-105787732D01*
X135624257Y-105806430D01*
X135567450Y-105836794D01*
X135517657Y-105877657D01*
X135476794Y-105927450D01*
X135446430Y-105984257D01*
X135427732Y-106045897D01*
X135421418Y-106110000D01*
X135421418Y-106383000D01*
X134968331Y-106383000D01*
X134940000Y-106380210D01*
X134911669Y-106383000D01*
X134911664Y-106383000D01*
X134884886Y-106385637D01*
X134826888Y-106391349D01*
X134762782Y-106410796D01*
X134718124Y-106424343D01*
X134617885Y-106477921D01*
X134530026Y-106550026D01*
X134511961Y-106572038D01*
X133012034Y-108071965D01*
X132990027Y-108090026D01*
X132971966Y-108112033D01*
X132971963Y-108112036D01*
X132950178Y-108138582D01*
X132917922Y-108177885D01*
X132874823Y-108258519D01*
X132864344Y-108278124D01*
X132831349Y-108386889D01*
X132820210Y-108500000D01*
X104852000Y-108500000D01*
X104852000Y-107084076D01*
X113183000Y-107084076D01*
X113183000Y-107315924D01*
X113228231Y-107543318D01*
X113316956Y-107757519D01*
X113445764Y-107950294D01*
X113609706Y-108114236D01*
X113802481Y-108243044D01*
X114016682Y-108331769D01*
X114244076Y-108377000D01*
X114475924Y-108377000D01*
X114703318Y-108331769D01*
X114917519Y-108243044D01*
X115110294Y-108114236D01*
X115274236Y-107950294D01*
X115403044Y-107757519D01*
X115491769Y-107543318D01*
X115537000Y-107315924D01*
X115537000Y-107084076D01*
X115491769Y-106856682D01*
X115403044Y-106642481D01*
X115274236Y-106449706D01*
X115110294Y-106285764D01*
X114917519Y-106156956D01*
X114703318Y-106068231D01*
X114475924Y-106023000D01*
X114244076Y-106023000D01*
X114016682Y-106068231D01*
X113802481Y-106156956D01*
X113609706Y-106285764D01*
X113445764Y-106449706D01*
X113316956Y-106642481D01*
X113228231Y-106856682D01*
X113183000Y-107084076D01*
X104852000Y-107084076D01*
X104852000Y-102384076D01*
X113133000Y-102384076D01*
X113133000Y-102615924D01*
X113178231Y-102843318D01*
X113266956Y-103057519D01*
X113395764Y-103250294D01*
X113559706Y-103414236D01*
X113752481Y-103543044D01*
X113966682Y-103631769D01*
X114194076Y-103677000D01*
X114425924Y-103677000D01*
X114653318Y-103631769D01*
X114867519Y-103543044D01*
X115060294Y-103414236D01*
X115224236Y-103250294D01*
X115353044Y-103057519D01*
X115441769Y-102843318D01*
X115487000Y-102615924D01*
X115487000Y-102384076D01*
X115441769Y-102156682D01*
X115353044Y-101942481D01*
X115224236Y-101749706D01*
X115060294Y-101585764D01*
X114867519Y-101456956D01*
X114653318Y-101368231D01*
X114425924Y-101323000D01*
X114194076Y-101323000D01*
X113966682Y-101368231D01*
X113752481Y-101456956D01*
X113559706Y-101585764D01*
X113395764Y-101749706D01*
X113266956Y-101942481D01*
X113178231Y-102156682D01*
X113133000Y-102384076D01*
X104852000Y-102384076D01*
X104852000Y-97784076D01*
X113133000Y-97784076D01*
X113133000Y-98015924D01*
X113178231Y-98243318D01*
X113266956Y-98457519D01*
X113395764Y-98650294D01*
X113559706Y-98814236D01*
X113752481Y-98943044D01*
X113966682Y-99031769D01*
X114194076Y-99077000D01*
X114425924Y-99077000D01*
X114653318Y-99031769D01*
X114867519Y-98943044D01*
X115060294Y-98814236D01*
X115224236Y-98650294D01*
X115353044Y-98457519D01*
X115441769Y-98243318D01*
X115487000Y-98015924D01*
X115487000Y-97784076D01*
X115441769Y-97556682D01*
X115353044Y-97342481D01*
X115224236Y-97149706D01*
X115124530Y-97050000D01*
X115671418Y-97050000D01*
X115671418Y-98750000D01*
X115677732Y-98814103D01*
X115696430Y-98875743D01*
X115726794Y-98932550D01*
X115767657Y-98982343D01*
X115817450Y-99023206D01*
X115874257Y-99053570D01*
X115935897Y-99072268D01*
X116000000Y-99078582D01*
X117700000Y-99078582D01*
X117764103Y-99072268D01*
X117825743Y-99053570D01*
X117882550Y-99023206D01*
X117932343Y-98982343D01*
X117973206Y-98932550D01*
X118003570Y-98875743D01*
X118022268Y-98814103D01*
X118028582Y-98750000D01*
X118028582Y-98477000D01*
X118971669Y-98477000D01*
X119000000Y-98479790D01*
X119028331Y-98477000D01*
X119028336Y-98477000D01*
X119058045Y-98474074D01*
X119113111Y-98468651D01*
X119157770Y-98455103D01*
X119221876Y-98435657D01*
X119322115Y-98382079D01*
X119409974Y-98309974D01*
X119428039Y-98287962D01*
X127839001Y-89877000D01*
X130806998Y-89877000D01*
X118760999Y-101923000D01*
X118028582Y-101923000D01*
X118028582Y-101650000D01*
X118022268Y-101585897D01*
X118003570Y-101524257D01*
X117973206Y-101467450D01*
X117932343Y-101417657D01*
X117882550Y-101376794D01*
X117825743Y-101346430D01*
X117764103Y-101327732D01*
X117700000Y-101321418D01*
X116000000Y-101321418D01*
X115935897Y-101327732D01*
X115874257Y-101346430D01*
X115817450Y-101376794D01*
X115767657Y-101417657D01*
X115726794Y-101467450D01*
X115696430Y-101524257D01*
X115677732Y-101585897D01*
X115671418Y-101650000D01*
X115671418Y-103350000D01*
X115677732Y-103414103D01*
X115696430Y-103475743D01*
X115726794Y-103532550D01*
X115767657Y-103582343D01*
X115817450Y-103623206D01*
X115874257Y-103653570D01*
X115935897Y-103672268D01*
X116000000Y-103678582D01*
X117700000Y-103678582D01*
X117764103Y-103672268D01*
X117825743Y-103653570D01*
X117882550Y-103623206D01*
X117932343Y-103582343D01*
X117973206Y-103532550D01*
X118003570Y-103475743D01*
X118022268Y-103414103D01*
X118028582Y-103350000D01*
X118028582Y-103077000D01*
X118971669Y-103077000D01*
X119000000Y-103079790D01*
X119028331Y-103077000D01*
X119028336Y-103077000D01*
X119058045Y-103074074D01*
X119113111Y-103068651D01*
X119157770Y-103055103D01*
X119221876Y-103035657D01*
X119322115Y-102982079D01*
X119409974Y-102909974D01*
X119428039Y-102887962D01*
X131738991Y-90577011D01*
X134606988Y-90577011D01*
X118560999Y-106623000D01*
X118078582Y-106623000D01*
X118078582Y-106350000D01*
X118072268Y-106285897D01*
X118053570Y-106224257D01*
X118023206Y-106167450D01*
X117982343Y-106117657D01*
X117932550Y-106076794D01*
X117875743Y-106046430D01*
X117814103Y-106027732D01*
X117750000Y-106021418D01*
X116050000Y-106021418D01*
X115985897Y-106027732D01*
X115924257Y-106046430D01*
X115867450Y-106076794D01*
X115817657Y-106117657D01*
X115776794Y-106167450D01*
X115746430Y-106224257D01*
X115727732Y-106285897D01*
X115721418Y-106350000D01*
X115721418Y-108050000D01*
X115727732Y-108114103D01*
X115746430Y-108175743D01*
X115776794Y-108232550D01*
X115817657Y-108282343D01*
X115867450Y-108323206D01*
X115924257Y-108353570D01*
X115985897Y-108372268D01*
X116050000Y-108378582D01*
X117750000Y-108378582D01*
X117814103Y-108372268D01*
X117875743Y-108353570D01*
X117932550Y-108323206D01*
X117982343Y-108282343D01*
X118023206Y-108232550D01*
X118053570Y-108175743D01*
X118072268Y-108114103D01*
X118078582Y-108050000D01*
X118078582Y-107777000D01*
X118771669Y-107777000D01*
X118800000Y-107779790D01*
X118828331Y-107777000D01*
X118828336Y-107777000D01*
X118858045Y-107774074D01*
X118913111Y-107768651D01*
X118957770Y-107755103D01*
X119021876Y-107735657D01*
X119122115Y-107682079D01*
X119209974Y-107609974D01*
X119228039Y-107587962D01*
X126491925Y-100324076D01*
X135523000Y-100324076D01*
X135523000Y-100555924D01*
X135568231Y-100783318D01*
X135656956Y-100997519D01*
X135785764Y-101190294D01*
X135949706Y-101354236D01*
X136142481Y-101483044D01*
X136356682Y-101571769D01*
X136584076Y-101617000D01*
X136815924Y-101617000D01*
X137043318Y-101571769D01*
X137257519Y-101483044D01*
X137450294Y-101354236D01*
X137614236Y-101190294D01*
X137743044Y-100997519D01*
X137831769Y-100783318D01*
X137877000Y-100555924D01*
X137877000Y-100324076D01*
X137831769Y-100096682D01*
X137743044Y-99882481D01*
X137614236Y-99689706D01*
X137450294Y-99525764D01*
X137257519Y-99396956D01*
X137043318Y-99308231D01*
X136815924Y-99263000D01*
X136584076Y-99263000D01*
X136356682Y-99308231D01*
X136142481Y-99396956D01*
X135949706Y-99525764D01*
X135785764Y-99689706D01*
X135656956Y-99882481D01*
X135568231Y-100096682D01*
X135523000Y-100324076D01*
X126491925Y-100324076D01*
X129766001Y-97050000D01*
X135521418Y-97050000D01*
X135521418Y-98750000D01*
X135527732Y-98814103D01*
X135546430Y-98875743D01*
X135576794Y-98932550D01*
X135617657Y-98982343D01*
X135667450Y-99023206D01*
X135724257Y-99053570D01*
X135785897Y-99072268D01*
X135850000Y-99078582D01*
X137550000Y-99078582D01*
X137614103Y-99072268D01*
X137675743Y-99053570D01*
X137732550Y-99023206D01*
X137782343Y-98982343D01*
X137823206Y-98932550D01*
X137853570Y-98875743D01*
X137872268Y-98814103D01*
X137878582Y-98750000D01*
X137878582Y-98477000D01*
X138360999Y-98477000D01*
X139223000Y-99339001D01*
X139223001Y-117271659D01*
X139220210Y-117300000D01*
X139231349Y-117413111D01*
X139264344Y-117521876D01*
X139317922Y-117622115D01*
X139325493Y-117631340D01*
X139371963Y-117687964D01*
X139371966Y-117687967D01*
X139390027Y-117709974D01*
X139412034Y-117728035D01*
X140971961Y-119287962D01*
X140990026Y-119309974D01*
X141077885Y-119382079D01*
X141178124Y-119435657D01*
X141222782Y-119449204D01*
X141286888Y-119468651D01*
X141400000Y-119479791D01*
X141428339Y-119477000D01*
X144560999Y-119477000D01*
X145503000Y-120419001D01*
X145503001Y-122394972D01*
X145329706Y-122510764D01*
X145165764Y-122674706D01*
X145036956Y-122867481D01*
X144948231Y-123081682D01*
X144903000Y-123309076D01*
X144903000Y-123540924D01*
X144948231Y-123768318D01*
X145036956Y-123982519D01*
X145165764Y-124175294D01*
X145329706Y-124339236D01*
X145522481Y-124468044D01*
X145736682Y-124556769D01*
X145964076Y-124602000D01*
X146195924Y-124602000D01*
X146423318Y-124556769D01*
X146637519Y-124468044D01*
X146830294Y-124339236D01*
X146994236Y-124175294D01*
X147123044Y-123982519D01*
X147211769Y-123768318D01*
X147257000Y-123540924D01*
X147257000Y-123309076D01*
X147211769Y-123081682D01*
X147123044Y-122867481D01*
X146994236Y-122674706D01*
X146830294Y-122510764D01*
X146657000Y-122394973D01*
X146657000Y-120583038D01*
X148043000Y-121969038D01*
X148043000Y-122394973D01*
X147869706Y-122510764D01*
X147705764Y-122674706D01*
X147576956Y-122867481D01*
X147488231Y-123081682D01*
X147443000Y-123309076D01*
X147443000Y-123540924D01*
X147488231Y-123768318D01*
X147576956Y-123982519D01*
X147705764Y-124175294D01*
X147869706Y-124339236D01*
X148062481Y-124468044D01*
X148276682Y-124556769D01*
X148504076Y-124602000D01*
X148735924Y-124602000D01*
X148963318Y-124556769D01*
X149177519Y-124468044D01*
X149370294Y-124339236D01*
X149534236Y-124175294D01*
X149663044Y-123982519D01*
X149751769Y-123768318D01*
X149797000Y-123540924D01*
X149797000Y-123309076D01*
X149983000Y-123309076D01*
X149983000Y-123540924D01*
X150028231Y-123768318D01*
X150116956Y-123982519D01*
X150245764Y-124175294D01*
X150409706Y-124339236D01*
X150602481Y-124468044D01*
X150816682Y-124556769D01*
X151044076Y-124602000D01*
X151275924Y-124602000D01*
X151503318Y-124556769D01*
X151717519Y-124468044D01*
X151910294Y-124339236D01*
X152074236Y-124175294D01*
X152203044Y-123982519D01*
X152291769Y-123768318D01*
X152337000Y-123540924D01*
X152337000Y-123309076D01*
X152523000Y-123309076D01*
X152523000Y-123540924D01*
X152568231Y-123768318D01*
X152656956Y-123982519D01*
X152785764Y-124175294D01*
X152949706Y-124339236D01*
X153142481Y-124468044D01*
X153356682Y-124556769D01*
X153584076Y-124602000D01*
X153815924Y-124602000D01*
X154043318Y-124556769D01*
X154257519Y-124468044D01*
X154450294Y-124339236D01*
X154614236Y-124175294D01*
X154743044Y-123982519D01*
X154831769Y-123768318D01*
X154877000Y-123540924D01*
X154877000Y-123309076D01*
X155063000Y-123309076D01*
X155063000Y-123540924D01*
X155108231Y-123768318D01*
X155196956Y-123982519D01*
X155325764Y-124175294D01*
X155489706Y-124339236D01*
X155682481Y-124468044D01*
X155896682Y-124556769D01*
X156124076Y-124602000D01*
X156355924Y-124602000D01*
X156583318Y-124556769D01*
X156797519Y-124468044D01*
X156990294Y-124339236D01*
X157154236Y-124175294D01*
X157283044Y-123982519D01*
X157371769Y-123768318D01*
X157417000Y-123540924D01*
X157417000Y-123309076D01*
X157603000Y-123309076D01*
X157603000Y-123540924D01*
X157648231Y-123768318D01*
X157736956Y-123982519D01*
X157865764Y-124175294D01*
X158029706Y-124339236D01*
X158222481Y-124468044D01*
X158436682Y-124556769D01*
X158664076Y-124602000D01*
X158895924Y-124602000D01*
X159123318Y-124556769D01*
X159337519Y-124468044D01*
X159530294Y-124339236D01*
X159694236Y-124175294D01*
X159823044Y-123982519D01*
X159911769Y-123768318D01*
X159957000Y-123540924D01*
X159957000Y-123309076D01*
X160143000Y-123309076D01*
X160143000Y-123540924D01*
X160188231Y-123768318D01*
X160276956Y-123982519D01*
X160405764Y-124175294D01*
X160569706Y-124339236D01*
X160762481Y-124468044D01*
X160976682Y-124556769D01*
X161204076Y-124602000D01*
X161435924Y-124602000D01*
X161663318Y-124556769D01*
X161877519Y-124468044D01*
X162070294Y-124339236D01*
X162234236Y-124175294D01*
X162363044Y-123982519D01*
X162451769Y-123768318D01*
X162497000Y-123540924D01*
X162497000Y-123309076D01*
X162683000Y-123309076D01*
X162683000Y-123540924D01*
X162728231Y-123768318D01*
X162816956Y-123982519D01*
X162945764Y-124175294D01*
X163109706Y-124339236D01*
X163302481Y-124468044D01*
X163516682Y-124556769D01*
X163744076Y-124602000D01*
X163975924Y-124602000D01*
X164203318Y-124556769D01*
X164417519Y-124468044D01*
X164610294Y-124339236D01*
X164774236Y-124175294D01*
X164903044Y-123982519D01*
X164991769Y-123768318D01*
X165037000Y-123540924D01*
X165037000Y-123309076D01*
X164991769Y-123081682D01*
X164903044Y-122867481D01*
X164774236Y-122674706D01*
X164610294Y-122510764D01*
X164417519Y-122381956D01*
X164203318Y-122293231D01*
X163975924Y-122248000D01*
X163744076Y-122248000D01*
X163516682Y-122293231D01*
X163302481Y-122381956D01*
X163109706Y-122510764D01*
X162945764Y-122674706D01*
X162816956Y-122867481D01*
X162728231Y-123081682D01*
X162683000Y-123309076D01*
X162497000Y-123309076D01*
X162451769Y-123081682D01*
X162363044Y-122867481D01*
X162234236Y-122674706D01*
X162070294Y-122510764D01*
X161877519Y-122381956D01*
X161663318Y-122293231D01*
X161435924Y-122248000D01*
X161204076Y-122248000D01*
X160976682Y-122293231D01*
X160762481Y-122381956D01*
X160569706Y-122510764D01*
X160405764Y-122674706D01*
X160276956Y-122867481D01*
X160188231Y-123081682D01*
X160143000Y-123309076D01*
X159957000Y-123309076D01*
X159911769Y-123081682D01*
X159823044Y-122867481D01*
X159694236Y-122674706D01*
X159530294Y-122510764D01*
X159337519Y-122381956D01*
X159123318Y-122293231D01*
X158895924Y-122248000D01*
X158664076Y-122248000D01*
X158436682Y-122293231D01*
X158222481Y-122381956D01*
X158029706Y-122510764D01*
X157865764Y-122674706D01*
X157736956Y-122867481D01*
X157648231Y-123081682D01*
X157603000Y-123309076D01*
X157417000Y-123309076D01*
X157371769Y-123081682D01*
X157283044Y-122867481D01*
X157154236Y-122674706D01*
X156990294Y-122510764D01*
X156797519Y-122381956D01*
X156583318Y-122293231D01*
X156355924Y-122248000D01*
X156124076Y-122248000D01*
X155896682Y-122293231D01*
X155682481Y-122381956D01*
X155489706Y-122510764D01*
X155325764Y-122674706D01*
X155196956Y-122867481D01*
X155108231Y-123081682D01*
X155063000Y-123309076D01*
X154877000Y-123309076D01*
X154831769Y-123081682D01*
X154743044Y-122867481D01*
X154614236Y-122674706D01*
X154450294Y-122510764D01*
X154257519Y-122381956D01*
X154043318Y-122293231D01*
X153815924Y-122248000D01*
X153584076Y-122248000D01*
X153356682Y-122293231D01*
X153142481Y-122381956D01*
X152949706Y-122510764D01*
X152785764Y-122674706D01*
X152656956Y-122867481D01*
X152568231Y-123081682D01*
X152523000Y-123309076D01*
X152337000Y-123309076D01*
X152291769Y-123081682D01*
X152203044Y-122867481D01*
X152074236Y-122674706D01*
X151910294Y-122510764D01*
X151717519Y-122381956D01*
X151503318Y-122293231D01*
X151275924Y-122248000D01*
X151044076Y-122248000D01*
X150816682Y-122293231D01*
X150602481Y-122381956D01*
X150409706Y-122510764D01*
X150245764Y-122674706D01*
X150116956Y-122867481D01*
X150028231Y-123081682D01*
X149983000Y-123309076D01*
X149797000Y-123309076D01*
X149751769Y-123081682D01*
X149663044Y-122867481D01*
X149534236Y-122674706D01*
X149370294Y-122510764D01*
X149197000Y-122394973D01*
X149197000Y-121758365D01*
X149199790Y-121730036D01*
X149197000Y-121701707D01*
X149197000Y-121701701D01*
X149188650Y-121616925D01*
X149155657Y-121508161D01*
X149102079Y-121407922D01*
X149029974Y-121320063D01*
X149007963Y-121301999D01*
X145517992Y-117812028D01*
X145499927Y-117790016D01*
X145412068Y-117717911D01*
X145311829Y-117664333D01*
X145247723Y-117644887D01*
X145203064Y-117631339D01*
X145147998Y-117625916D01*
X145118289Y-117622990D01*
X145118284Y-117622990D01*
X145089953Y-117620200D01*
X145061622Y-117622990D01*
X141928954Y-117622990D01*
X141077010Y-116771047D01*
X141077010Y-110056890D01*
X142358524Y-110056890D01*
X142403175Y-110204099D01*
X142528359Y-110466920D01*
X142702412Y-110700269D01*
X142918645Y-110895178D01*
X143168748Y-111044157D01*
X143443109Y-111141481D01*
X143673000Y-111020814D01*
X143673000Y-109827000D01*
X143927000Y-109827000D01*
X143927000Y-111020814D01*
X144156891Y-111141481D01*
X144431252Y-111044157D01*
X144681355Y-110895178D01*
X144897588Y-110700269D01*
X145071641Y-110466920D01*
X145196825Y-110204099D01*
X145241476Y-110056890D01*
X145120155Y-109827000D01*
X143927000Y-109827000D01*
X143673000Y-109827000D01*
X142479845Y-109827000D01*
X142358524Y-110056890D01*
X141077010Y-110056890D01*
X141077010Y-109343110D01*
X142358524Y-109343110D01*
X142479845Y-109573000D01*
X143673000Y-109573000D01*
X143673000Y-109553000D01*
X143927000Y-109553000D01*
X143927000Y-109573000D01*
X145120155Y-109573000D01*
X145241476Y-109343110D01*
X145196825Y-109195901D01*
X145071641Y-108933080D01*
X144897588Y-108699731D01*
X144681355Y-108504822D01*
X144431252Y-108355843D01*
X144382592Y-108338582D01*
X144650000Y-108338582D01*
X144714103Y-108332268D01*
X144775743Y-108313570D01*
X144832550Y-108283206D01*
X144882343Y-108242343D01*
X144923206Y-108192550D01*
X144953570Y-108135743D01*
X144972268Y-108074103D01*
X144978582Y-108010000D01*
X144978582Y-107737000D01*
X163520999Y-107737000D01*
X166823001Y-111039002D01*
X166823000Y-129060999D01*
X165360999Y-130523000D01*
X158539001Y-130523000D01*
X156817000Y-128800999D01*
X156817000Y-126995027D01*
X156990294Y-126879236D01*
X157154236Y-126715294D01*
X157283044Y-126522519D01*
X157371769Y-126308318D01*
X157417000Y-126080924D01*
X157417000Y-125849076D01*
X157603000Y-125849076D01*
X157603000Y-126080924D01*
X157648231Y-126308318D01*
X157736956Y-126522519D01*
X157865764Y-126715294D01*
X158029706Y-126879236D01*
X158222481Y-127008044D01*
X158436682Y-127096769D01*
X158664076Y-127142000D01*
X158895924Y-127142000D01*
X159123318Y-127096769D01*
X159337519Y-127008044D01*
X159530294Y-126879236D01*
X159694236Y-126715294D01*
X159823044Y-126522519D01*
X159911769Y-126308318D01*
X159957000Y-126080924D01*
X159957000Y-125849076D01*
X160143000Y-125849076D01*
X160143000Y-126080924D01*
X160188231Y-126308318D01*
X160276956Y-126522519D01*
X160405764Y-126715294D01*
X160569706Y-126879236D01*
X160762481Y-127008044D01*
X160976682Y-127096769D01*
X161204076Y-127142000D01*
X161435924Y-127142000D01*
X161663318Y-127096769D01*
X161877519Y-127008044D01*
X162070294Y-126879236D01*
X162234236Y-126715294D01*
X162363044Y-126522519D01*
X162451769Y-126308318D01*
X162497000Y-126080924D01*
X162497000Y-125849076D01*
X162683000Y-125849076D01*
X162683000Y-126080924D01*
X162728231Y-126308318D01*
X162816956Y-126522519D01*
X162945764Y-126715294D01*
X163109706Y-126879236D01*
X163302481Y-127008044D01*
X163516682Y-127096769D01*
X163744076Y-127142000D01*
X163975924Y-127142000D01*
X164203318Y-127096769D01*
X164417519Y-127008044D01*
X164610294Y-126879236D01*
X164774236Y-126715294D01*
X164903044Y-126522519D01*
X164991769Y-126308318D01*
X165037000Y-126080924D01*
X165037000Y-125849076D01*
X164991769Y-125621682D01*
X164903044Y-125407481D01*
X164774236Y-125214706D01*
X164610294Y-125050764D01*
X164417519Y-124921956D01*
X164203318Y-124833231D01*
X163975924Y-124788000D01*
X163744076Y-124788000D01*
X163516682Y-124833231D01*
X163302481Y-124921956D01*
X163109706Y-125050764D01*
X162945764Y-125214706D01*
X162816956Y-125407481D01*
X162728231Y-125621682D01*
X162683000Y-125849076D01*
X162497000Y-125849076D01*
X162451769Y-125621682D01*
X162363044Y-125407481D01*
X162234236Y-125214706D01*
X162070294Y-125050764D01*
X161877519Y-124921956D01*
X161663318Y-124833231D01*
X161435924Y-124788000D01*
X161204076Y-124788000D01*
X160976682Y-124833231D01*
X160762481Y-124921956D01*
X160569706Y-125050764D01*
X160405764Y-125214706D01*
X160276956Y-125407481D01*
X160188231Y-125621682D01*
X160143000Y-125849076D01*
X159957000Y-125849076D01*
X159911769Y-125621682D01*
X159823044Y-125407481D01*
X159694236Y-125214706D01*
X159530294Y-125050764D01*
X159337519Y-124921956D01*
X159123318Y-124833231D01*
X158895924Y-124788000D01*
X158664076Y-124788000D01*
X158436682Y-124833231D01*
X158222481Y-124921956D01*
X158029706Y-125050764D01*
X157865764Y-125214706D01*
X157736956Y-125407481D01*
X157648231Y-125621682D01*
X157603000Y-125849076D01*
X157417000Y-125849076D01*
X157371769Y-125621682D01*
X157283044Y-125407481D01*
X157154236Y-125214706D01*
X156990294Y-125050764D01*
X156797519Y-124921956D01*
X156583318Y-124833231D01*
X156355924Y-124788000D01*
X156124076Y-124788000D01*
X155896682Y-124833231D01*
X155682481Y-124921956D01*
X155489706Y-125050764D01*
X155325764Y-125214706D01*
X155196956Y-125407481D01*
X155108231Y-125621682D01*
X155063000Y-125849076D01*
X155063000Y-126080924D01*
X155108231Y-126308318D01*
X155196956Y-126522519D01*
X155325764Y-126715294D01*
X155489706Y-126879236D01*
X155663000Y-126995027D01*
X155663001Y-129011659D01*
X155660210Y-129040000D01*
X155671349Y-129153111D01*
X155704344Y-129261876D01*
X155757922Y-129362115D01*
X155788840Y-129399788D01*
X155811963Y-129427964D01*
X155811966Y-129427967D01*
X155830027Y-129449974D01*
X155852034Y-129468035D01*
X157871961Y-131487962D01*
X157890026Y-131509974D01*
X157977885Y-131582079D01*
X158078124Y-131635657D01*
X158122782Y-131649204D01*
X158186888Y-131668651D01*
X158244886Y-131674363D01*
X158271664Y-131677000D01*
X158271669Y-131677000D01*
X158300000Y-131679790D01*
X158328331Y-131677000D01*
X165571669Y-131677000D01*
X165600000Y-131679790D01*
X165628331Y-131677000D01*
X165628336Y-131677000D01*
X165658045Y-131674074D01*
X165713111Y-131668651D01*
X165757770Y-131655103D01*
X165821876Y-131635657D01*
X165922115Y-131582079D01*
X166009974Y-131509974D01*
X166028039Y-131487962D01*
X167787963Y-129728038D01*
X167809974Y-129709974D01*
X167882079Y-129622115D01*
X167935657Y-129521876D01*
X167968650Y-129413112D01*
X167977000Y-129328336D01*
X167977000Y-129328330D01*
X167979790Y-129300001D01*
X167977000Y-129271672D01*
X167977000Y-110828328D01*
X167979790Y-110799999D01*
X167977000Y-110771670D01*
X167977000Y-110771664D01*
X167968650Y-110686888D01*
X167935657Y-110578124D01*
X167882079Y-110477885D01*
X167809974Y-110390026D01*
X167787962Y-110371961D01*
X164188039Y-106772038D01*
X164169974Y-106750026D01*
X164082115Y-106677921D01*
X163981876Y-106624343D01*
X163917770Y-106604897D01*
X163873111Y-106591349D01*
X163818045Y-106585926D01*
X163788336Y-106583000D01*
X163788331Y-106583000D01*
X163760000Y-106580210D01*
X163731669Y-106583000D01*
X144978582Y-106583000D01*
X144978582Y-106310000D01*
X144972268Y-106245897D01*
X144953570Y-106184257D01*
X144923206Y-106127450D01*
X144882343Y-106077657D01*
X144832550Y-106036794D01*
X144775743Y-106006430D01*
X144714103Y-105987732D01*
X144650000Y-105981418D01*
X142950000Y-105981418D01*
X142885897Y-105987732D01*
X142824257Y-106006430D01*
X142767450Y-106036794D01*
X142717657Y-106077657D01*
X142676794Y-106127450D01*
X142646430Y-106184257D01*
X142627732Y-106245897D01*
X142621418Y-106310000D01*
X142621418Y-108010000D01*
X142627732Y-108074103D01*
X142646430Y-108135743D01*
X142676794Y-108192550D01*
X142717657Y-108242343D01*
X142767450Y-108283206D01*
X142824257Y-108313570D01*
X142885897Y-108332268D01*
X142950000Y-108338582D01*
X143217408Y-108338582D01*
X143168748Y-108355843D01*
X142918645Y-108504822D01*
X142702412Y-108699731D01*
X142528359Y-108933080D01*
X142403175Y-109195901D01*
X142358524Y-109343110D01*
X141077010Y-109343110D01*
X141077010Y-100424076D01*
X142623000Y-100424076D01*
X142623000Y-100655924D01*
X142668231Y-100883318D01*
X142756956Y-101097519D01*
X142885764Y-101290294D01*
X143049706Y-101454236D01*
X143242481Y-101583044D01*
X143456682Y-101671769D01*
X143684076Y-101717000D01*
X143915924Y-101717000D01*
X144143318Y-101671769D01*
X144357519Y-101583044D01*
X144550294Y-101454236D01*
X144714236Y-101290294D01*
X144843044Y-101097519D01*
X144931769Y-100883318D01*
X144977000Y-100655924D01*
X144977000Y-100424076D01*
X144931769Y-100196682D01*
X144843044Y-99982481D01*
X144714236Y-99789706D01*
X144550294Y-99625764D01*
X144357519Y-99496956D01*
X144143318Y-99408231D01*
X143915924Y-99363000D01*
X143684076Y-99363000D01*
X143456682Y-99408231D01*
X143242481Y-99496956D01*
X143049706Y-99625764D01*
X142885764Y-99789706D01*
X142756956Y-99982481D01*
X142668231Y-100196682D01*
X142623000Y-100424076D01*
X141077010Y-100424076D01*
X141077010Y-99538991D01*
X142039001Y-98577000D01*
X142621418Y-98577000D01*
X142621418Y-98850000D01*
X142627732Y-98914103D01*
X142646430Y-98975743D01*
X142676794Y-99032550D01*
X142717657Y-99082343D01*
X142767450Y-99123206D01*
X142824257Y-99153570D01*
X142885897Y-99172268D01*
X142950000Y-99178582D01*
X144650000Y-99178582D01*
X144714103Y-99172268D01*
X144775743Y-99153570D01*
X144832550Y-99123206D01*
X144882343Y-99082343D01*
X144923206Y-99032550D01*
X144953570Y-98975743D01*
X144972268Y-98914103D01*
X144978582Y-98850000D01*
X144978582Y-97150000D01*
X144972268Y-97085897D01*
X144953570Y-97024257D01*
X144923206Y-96967450D01*
X144882343Y-96917657D01*
X144832550Y-96876794D01*
X144775743Y-96846430D01*
X144714103Y-96827732D01*
X144650000Y-96821418D01*
X142950000Y-96821418D01*
X142885897Y-96827732D01*
X142824257Y-96846430D01*
X142767450Y-96876794D01*
X142717657Y-96917657D01*
X142676794Y-96967450D01*
X142646430Y-97024257D01*
X142627732Y-97085897D01*
X142621418Y-97150000D01*
X142621418Y-97423000D01*
X141828328Y-97423000D01*
X141799999Y-97420210D01*
X141771670Y-97423000D01*
X141771664Y-97423000D01*
X141686888Y-97431350D01*
X141578124Y-97464343D01*
X141477885Y-97517921D01*
X141390026Y-97590026D01*
X141371961Y-97612038D01*
X140247837Y-98736162D01*
X140209974Y-98690026D01*
X140187963Y-98671962D01*
X139028037Y-97512036D01*
X139009974Y-97490026D01*
X138922115Y-97417921D01*
X138821876Y-97364343D01*
X138757770Y-97344897D01*
X138713111Y-97331349D01*
X138658045Y-97325926D01*
X138628336Y-97323000D01*
X138628331Y-97323000D01*
X138600000Y-97320210D01*
X138571669Y-97323000D01*
X137878582Y-97323000D01*
X137878582Y-97050000D01*
X137872268Y-96985897D01*
X137853570Y-96924257D01*
X137823206Y-96867450D01*
X137782343Y-96817657D01*
X137732550Y-96776794D01*
X137675743Y-96746430D01*
X137614103Y-96727732D01*
X137550000Y-96721418D01*
X135850000Y-96721418D01*
X135785897Y-96727732D01*
X135724257Y-96746430D01*
X135667450Y-96776794D01*
X135617657Y-96817657D01*
X135576794Y-96867450D01*
X135546430Y-96924257D01*
X135527732Y-96985897D01*
X135521418Y-97050000D01*
X129766001Y-97050000D01*
X135538979Y-91277022D01*
X153351577Y-91277022D01*
X153379908Y-91279812D01*
X153408239Y-91277022D01*
X153408244Y-91277022D01*
X153437953Y-91274096D01*
X153493019Y-91268673D01*
X153537678Y-91255125D01*
X153601784Y-91235679D01*
X153702023Y-91182101D01*
X153789882Y-91109996D01*
X153807947Y-91087984D01*
X162387991Y-82507941D01*
X162409996Y-82489882D01*
X162482101Y-82402023D01*
X162535679Y-82301784D01*
X162568672Y-82193020D01*
X162577022Y-82108244D01*
X162577022Y-82108238D01*
X162579812Y-82079909D01*
X162577022Y-82051580D01*
X162577022Y-74548423D01*
X162579812Y-74520092D01*
X162568673Y-74406980D01*
X162544704Y-74327967D01*
X162535679Y-74298216D01*
X162482101Y-74197977D01*
X162409996Y-74110118D01*
X162387984Y-74092053D01*
X159807947Y-71512016D01*
X159789882Y-71490004D01*
X159702023Y-71417899D01*
X159601784Y-71364321D01*
X159537678Y-71344875D01*
X159493019Y-71331327D01*
X159437953Y-71325904D01*
X159408244Y-71322978D01*
X159408239Y-71322978D01*
X159379908Y-71320188D01*
X159351577Y-71322978D01*
X150128350Y-71322978D01*
X150100021Y-71320188D01*
X150071692Y-71322978D01*
X150071686Y-71322978D01*
X149986910Y-71331328D01*
X149878146Y-71364321D01*
X149777907Y-71417899D01*
X149732002Y-71455573D01*
X149712057Y-71471941D01*
X149712055Y-71471943D01*
X149690048Y-71490004D01*
X149671987Y-71512011D01*
X148232038Y-72951961D01*
X148210026Y-72970026D01*
X148137921Y-73057886D01*
X148084343Y-73158125D01*
X148081154Y-73168639D01*
X148051349Y-73266889D01*
X148040210Y-73380000D01*
X148043000Y-73408331D01*
X148043000Y-74127372D01*
X147869706Y-74243164D01*
X147705764Y-74407106D01*
X147576956Y-74599881D01*
X147488231Y-74814082D01*
X147443000Y-75041476D01*
X147443000Y-75273324D01*
X147488231Y-75500718D01*
X147576956Y-75714919D01*
X147705764Y-75907694D01*
X147869706Y-76071636D01*
X148062481Y-76200444D01*
X148276682Y-76289169D01*
X148504076Y-76334400D01*
X148735924Y-76334400D01*
X148963318Y-76289169D01*
X149177519Y-76200444D01*
X149370294Y-76071636D01*
X149534236Y-75907694D01*
X149663044Y-75714919D01*
X149751769Y-75500718D01*
X149797000Y-75273324D01*
X149797000Y-75041476D01*
X149751769Y-74814082D01*
X149663044Y-74599881D01*
X149534236Y-74407106D01*
X149370294Y-74243164D01*
X149197000Y-74127373D01*
X149197000Y-73619001D01*
X150339024Y-72476978D01*
X151407021Y-72476978D01*
X150772038Y-73111961D01*
X150750026Y-73130026D01*
X150677921Y-73217886D01*
X150624343Y-73318125D01*
X150614169Y-73351664D01*
X150591349Y-73426889D01*
X150585334Y-73487972D01*
X150584828Y-73493111D01*
X150580210Y-73540000D01*
X150583000Y-73568331D01*
X150583000Y-74127373D01*
X150409706Y-74243164D01*
X150245764Y-74407106D01*
X150116956Y-74599881D01*
X150028231Y-74814082D01*
X149983000Y-75041476D01*
X149983000Y-75273324D01*
X150028231Y-75500718D01*
X150116956Y-75714919D01*
X150245764Y-75907694D01*
X150409706Y-76071636D01*
X150602481Y-76200444D01*
X150816682Y-76289169D01*
X151044076Y-76334400D01*
X151275924Y-76334400D01*
X151503318Y-76289169D01*
X151717519Y-76200444D01*
X151910294Y-76071636D01*
X152074236Y-75907694D01*
X152203044Y-75714919D01*
X152291769Y-75500718D01*
X152337000Y-75273324D01*
X152337000Y-75041476D01*
X152291769Y-74814082D01*
X152203044Y-74599881D01*
X152074236Y-74407106D01*
X151910294Y-74243164D01*
X151737000Y-74127373D01*
X151737000Y-73779001D01*
X152339012Y-73176989D01*
X154864410Y-73176989D01*
X154062581Y-73978818D01*
X152850000Y-73978818D01*
X152785897Y-73985132D01*
X152724257Y-74003830D01*
X152667450Y-74034194D01*
X152617657Y-74075057D01*
X152576794Y-74124850D01*
X152546430Y-74181657D01*
X152527732Y-74243297D01*
X152521418Y-74307400D01*
X152521418Y-76007400D01*
X152527732Y-76071503D01*
X152546430Y-76133143D01*
X152576794Y-76189950D01*
X152617657Y-76239743D01*
X152667450Y-76280606D01*
X152724257Y-76310970D01*
X152785897Y-76329668D01*
X152850000Y-76335982D01*
X154550000Y-76335982D01*
X154614103Y-76329668D01*
X154675743Y-76310970D01*
X154732550Y-76280606D01*
X154782343Y-76239743D01*
X154823206Y-76189950D01*
X154853570Y-76133143D01*
X154872268Y-76071503D01*
X154878582Y-76007400D01*
X154878582Y-74794819D01*
X155796401Y-73877000D01*
X158560999Y-73877000D01*
X160023001Y-75339002D01*
X160023000Y-81260999D01*
X152560999Y-88723000D01*
X127628339Y-88723000D01*
X127600000Y-88720209D01*
X127486888Y-88731349D01*
X127422782Y-88750796D01*
X127378124Y-88764343D01*
X127277885Y-88817921D01*
X127190026Y-88890026D01*
X127171963Y-88912036D01*
X118760999Y-97323000D01*
X118028582Y-97323000D01*
X118028582Y-97050000D01*
X118022268Y-96985897D01*
X118003570Y-96924257D01*
X117973206Y-96867450D01*
X117932343Y-96817657D01*
X117882550Y-96776794D01*
X117825743Y-96746430D01*
X117764103Y-96727732D01*
X117700000Y-96721418D01*
X116000000Y-96721418D01*
X115935897Y-96727732D01*
X115874257Y-96746430D01*
X115817450Y-96776794D01*
X115767657Y-96817657D01*
X115726794Y-96867450D01*
X115696430Y-96924257D01*
X115677732Y-96985897D01*
X115671418Y-97050000D01*
X115124530Y-97050000D01*
X115060294Y-96985764D01*
X114867519Y-96856956D01*
X114653318Y-96768231D01*
X114425924Y-96723000D01*
X114194076Y-96723000D01*
X113966682Y-96768231D01*
X113752481Y-96856956D01*
X113559706Y-96985764D01*
X113395764Y-97149706D01*
X113266956Y-97342481D01*
X113178231Y-97556682D01*
X113133000Y-97784076D01*
X104852000Y-97784076D01*
X104852000Y-76855000D01*
X107817418Y-76855000D01*
X107817418Y-78555000D01*
X107823732Y-78619103D01*
X107842430Y-78680743D01*
X107872794Y-78737550D01*
X107913657Y-78787343D01*
X107963450Y-78828206D01*
X108020257Y-78858570D01*
X108081897Y-78877268D01*
X108146000Y-78883582D01*
X109846000Y-78883582D01*
X109910103Y-78877268D01*
X109971743Y-78858570D01*
X110028550Y-78828206D01*
X110078343Y-78787343D01*
X110119206Y-78737550D01*
X110149570Y-78680743D01*
X110168268Y-78619103D01*
X110174582Y-78555000D01*
X110174582Y-77589076D01*
X110359000Y-77589076D01*
X110359000Y-77820924D01*
X110404231Y-78048318D01*
X110492956Y-78262519D01*
X110621764Y-78455294D01*
X110785706Y-78619236D01*
X110978481Y-78748044D01*
X111192682Y-78836769D01*
X111420076Y-78882000D01*
X111651924Y-78882000D01*
X111879318Y-78836769D01*
X112093519Y-78748044D01*
X112286294Y-78619236D01*
X112450236Y-78455294D01*
X112579044Y-78262519D01*
X112667769Y-78048318D01*
X112713000Y-77820924D01*
X112713000Y-77589076D01*
X112899000Y-77589076D01*
X112899000Y-77820924D01*
X112944231Y-78048318D01*
X113032956Y-78262519D01*
X113161764Y-78455294D01*
X113325706Y-78619236D01*
X113518481Y-78748044D01*
X113732682Y-78836769D01*
X113960076Y-78882000D01*
X114191924Y-78882000D01*
X114419318Y-78836769D01*
X114633519Y-78748044D01*
X114826294Y-78619236D01*
X114990236Y-78455294D01*
X115119044Y-78262519D01*
X115207769Y-78048318D01*
X115253000Y-77820924D01*
X115253000Y-77589076D01*
X115439000Y-77589076D01*
X115439000Y-77820924D01*
X115484231Y-78048318D01*
X115572956Y-78262519D01*
X115701764Y-78455294D01*
X115865706Y-78619236D01*
X116058481Y-78748044D01*
X116272682Y-78836769D01*
X116500076Y-78882000D01*
X116731924Y-78882000D01*
X116959318Y-78836769D01*
X117173519Y-78748044D01*
X117366294Y-78619236D01*
X117530236Y-78455294D01*
X117659044Y-78262519D01*
X117747769Y-78048318D01*
X117793000Y-77820924D01*
X117793000Y-77589076D01*
X117979000Y-77589076D01*
X117979000Y-77820924D01*
X118024231Y-78048318D01*
X118112956Y-78262519D01*
X118241764Y-78455294D01*
X118405706Y-78619236D01*
X118598481Y-78748044D01*
X118812682Y-78836769D01*
X119040076Y-78882000D01*
X119271924Y-78882000D01*
X119499318Y-78836769D01*
X119713519Y-78748044D01*
X119906294Y-78619236D01*
X120070236Y-78455294D01*
X120199044Y-78262519D01*
X120287769Y-78048318D01*
X120333000Y-77820924D01*
X120333000Y-77589076D01*
X120519000Y-77589076D01*
X120519000Y-77820924D01*
X120564231Y-78048318D01*
X120652956Y-78262519D01*
X120781764Y-78455294D01*
X120945706Y-78619236D01*
X121138481Y-78748044D01*
X121352682Y-78836769D01*
X121580076Y-78882000D01*
X121811924Y-78882000D01*
X122039318Y-78836769D01*
X122253519Y-78748044D01*
X122446294Y-78619236D01*
X122610236Y-78455294D01*
X122739044Y-78262519D01*
X122827769Y-78048318D01*
X122873000Y-77820924D01*
X122873000Y-77589076D01*
X123059000Y-77589076D01*
X123059000Y-77820924D01*
X123104231Y-78048318D01*
X123192956Y-78262519D01*
X123321764Y-78455294D01*
X123485706Y-78619236D01*
X123678481Y-78748044D01*
X123892682Y-78836769D01*
X124120076Y-78882000D01*
X124351924Y-78882000D01*
X124579318Y-78836769D01*
X124793519Y-78748044D01*
X124986294Y-78619236D01*
X125150236Y-78455294D01*
X125279044Y-78262519D01*
X125367769Y-78048318D01*
X125413000Y-77820924D01*
X125413000Y-77589076D01*
X125599000Y-77589076D01*
X125599000Y-77820924D01*
X125644231Y-78048318D01*
X125732956Y-78262519D01*
X125861764Y-78455294D01*
X126025706Y-78619236D01*
X126218481Y-78748044D01*
X126432682Y-78836769D01*
X126660076Y-78882000D01*
X126891924Y-78882000D01*
X127119318Y-78836769D01*
X127333519Y-78748044D01*
X127526294Y-78619236D01*
X127690236Y-78455294D01*
X127819044Y-78262519D01*
X127907769Y-78048318D01*
X127953000Y-77820924D01*
X127953000Y-77589076D01*
X128139000Y-77589076D01*
X128139000Y-77820924D01*
X128184231Y-78048318D01*
X128272956Y-78262519D01*
X128401764Y-78455294D01*
X128565706Y-78619236D01*
X128758481Y-78748044D01*
X128972682Y-78836769D01*
X129200076Y-78882000D01*
X129431924Y-78882000D01*
X129659318Y-78836769D01*
X129873519Y-78748044D01*
X130066294Y-78619236D01*
X130230236Y-78455294D01*
X130359044Y-78262519D01*
X130447769Y-78048318D01*
X130493000Y-77820924D01*
X130493000Y-77589076D01*
X130679000Y-77589076D01*
X130679000Y-77820924D01*
X130724231Y-78048318D01*
X130812956Y-78262519D01*
X130941764Y-78455294D01*
X131105706Y-78619236D01*
X131298481Y-78748044D01*
X131512682Y-78836769D01*
X131740076Y-78882000D01*
X131971924Y-78882000D01*
X132199318Y-78836769D01*
X132413519Y-78748044D01*
X132606294Y-78619236D01*
X132770236Y-78455294D01*
X132899044Y-78262519D01*
X132987769Y-78048318D01*
X133033000Y-77820924D01*
X133033000Y-77589076D01*
X132987769Y-77361682D01*
X132899044Y-77147481D01*
X132770236Y-76954706D01*
X132606294Y-76790764D01*
X132413519Y-76661956D01*
X132199318Y-76573231D01*
X131971924Y-76528000D01*
X131740076Y-76528000D01*
X131512682Y-76573231D01*
X131298481Y-76661956D01*
X131105706Y-76790764D01*
X130941764Y-76954706D01*
X130812956Y-77147481D01*
X130724231Y-77361682D01*
X130679000Y-77589076D01*
X130493000Y-77589076D01*
X130447769Y-77361682D01*
X130359044Y-77147481D01*
X130230236Y-76954706D01*
X130066294Y-76790764D01*
X129873519Y-76661956D01*
X129659318Y-76573231D01*
X129431924Y-76528000D01*
X129200076Y-76528000D01*
X128972682Y-76573231D01*
X128758481Y-76661956D01*
X128565706Y-76790764D01*
X128401764Y-76954706D01*
X128272956Y-77147481D01*
X128184231Y-77361682D01*
X128139000Y-77589076D01*
X127953000Y-77589076D01*
X127907769Y-77361682D01*
X127819044Y-77147481D01*
X127690236Y-76954706D01*
X127526294Y-76790764D01*
X127333519Y-76661956D01*
X127119318Y-76573231D01*
X126891924Y-76528000D01*
X126660076Y-76528000D01*
X126432682Y-76573231D01*
X126218481Y-76661956D01*
X126025706Y-76790764D01*
X125861764Y-76954706D01*
X125732956Y-77147481D01*
X125644231Y-77361682D01*
X125599000Y-77589076D01*
X125413000Y-77589076D01*
X125367769Y-77361682D01*
X125279044Y-77147481D01*
X125150236Y-76954706D01*
X124986294Y-76790764D01*
X124793519Y-76661956D01*
X124579318Y-76573231D01*
X124351924Y-76528000D01*
X124120076Y-76528000D01*
X123892682Y-76573231D01*
X123678481Y-76661956D01*
X123485706Y-76790764D01*
X123321764Y-76954706D01*
X123192956Y-77147481D01*
X123104231Y-77361682D01*
X123059000Y-77589076D01*
X122873000Y-77589076D01*
X122827769Y-77361682D01*
X122739044Y-77147481D01*
X122610236Y-76954706D01*
X122446294Y-76790764D01*
X122253519Y-76661956D01*
X122039318Y-76573231D01*
X121811924Y-76528000D01*
X121580076Y-76528000D01*
X121352682Y-76573231D01*
X121138481Y-76661956D01*
X120945706Y-76790764D01*
X120781764Y-76954706D01*
X120652956Y-77147481D01*
X120564231Y-77361682D01*
X120519000Y-77589076D01*
X120333000Y-77589076D01*
X120287769Y-77361682D01*
X120199044Y-77147481D01*
X120070236Y-76954706D01*
X119906294Y-76790764D01*
X119713519Y-76661956D01*
X119499318Y-76573231D01*
X119271924Y-76528000D01*
X119040076Y-76528000D01*
X118812682Y-76573231D01*
X118598481Y-76661956D01*
X118405706Y-76790764D01*
X118241764Y-76954706D01*
X118112956Y-77147481D01*
X118024231Y-77361682D01*
X117979000Y-77589076D01*
X117793000Y-77589076D01*
X117747769Y-77361682D01*
X117659044Y-77147481D01*
X117530236Y-76954706D01*
X117366294Y-76790764D01*
X117173519Y-76661956D01*
X116959318Y-76573231D01*
X116731924Y-76528000D01*
X116500076Y-76528000D01*
X116272682Y-76573231D01*
X116058481Y-76661956D01*
X115865706Y-76790764D01*
X115701764Y-76954706D01*
X115572956Y-77147481D01*
X115484231Y-77361682D01*
X115439000Y-77589076D01*
X115253000Y-77589076D01*
X115207769Y-77361682D01*
X115119044Y-77147481D01*
X114990236Y-76954706D01*
X114826294Y-76790764D01*
X114633519Y-76661956D01*
X114419318Y-76573231D01*
X114191924Y-76528000D01*
X113960076Y-76528000D01*
X113732682Y-76573231D01*
X113518481Y-76661956D01*
X113325706Y-76790764D01*
X113161764Y-76954706D01*
X113032956Y-77147481D01*
X112944231Y-77361682D01*
X112899000Y-77589076D01*
X112713000Y-77589076D01*
X112667769Y-77361682D01*
X112579044Y-77147481D01*
X112450236Y-76954706D01*
X112286294Y-76790764D01*
X112093519Y-76661956D01*
X111879318Y-76573231D01*
X111651924Y-76528000D01*
X111420076Y-76528000D01*
X111192682Y-76573231D01*
X110978481Y-76661956D01*
X110785706Y-76790764D01*
X110621764Y-76954706D01*
X110492956Y-77147481D01*
X110404231Y-77361682D01*
X110359000Y-77589076D01*
X110174582Y-77589076D01*
X110174582Y-76855000D01*
X110168268Y-76790897D01*
X110149570Y-76729257D01*
X110119206Y-76672450D01*
X110078343Y-76622657D01*
X110028550Y-76581794D01*
X109971743Y-76551430D01*
X109910103Y-76532732D01*
X109846000Y-76526418D01*
X108146000Y-76526418D01*
X108081897Y-76532732D01*
X108020257Y-76551430D01*
X107963450Y-76581794D01*
X107913657Y-76622657D01*
X107872794Y-76672450D01*
X107842430Y-76729257D01*
X107823732Y-76790897D01*
X107817418Y-76855000D01*
X104852000Y-76855000D01*
X104852000Y-75852000D01*
X133682708Y-75852000D01*
X133700000Y-75853703D01*
X133717291Y-75852000D01*
X133717292Y-75852000D01*
X133769004Y-75846907D01*
X133835356Y-75826779D01*
X133896507Y-75794093D01*
X133950106Y-75750106D01*
X133994093Y-75696507D01*
X134026779Y-75635356D01*
X134046907Y-75569004D01*
X134052295Y-75514291D01*
X134478519Y-75514291D01*
X134575843Y-75788652D01*
X134724822Y-76038755D01*
X134919731Y-76254988D01*
X135153080Y-76429041D01*
X135415901Y-76554225D01*
X135563110Y-76598876D01*
X135793000Y-76477555D01*
X135793000Y-75284400D01*
X134599186Y-75284400D01*
X134478519Y-75514291D01*
X134052295Y-75514291D01*
X134053703Y-75500000D01*
X134052000Y-75482708D01*
X134052000Y-74800509D01*
X134478519Y-74800509D01*
X134599186Y-75030400D01*
X135793000Y-75030400D01*
X135793000Y-73837245D01*
X136047000Y-73837245D01*
X136047000Y-75030400D01*
X136067000Y-75030400D01*
X136067000Y-75284400D01*
X136047000Y-75284400D01*
X136047000Y-76477555D01*
X136276890Y-76598876D01*
X136424099Y-76554225D01*
X136686920Y-76429041D01*
X136920269Y-76254988D01*
X137115178Y-76038755D01*
X137264157Y-75788652D01*
X137348736Y-75550221D01*
X137416956Y-75714919D01*
X137545764Y-75907694D01*
X137709706Y-76071636D01*
X137902481Y-76200444D01*
X138116682Y-76289169D01*
X138344076Y-76334400D01*
X138575924Y-76334400D01*
X138803318Y-76289169D01*
X139017519Y-76200444D01*
X139210294Y-76071636D01*
X139374236Y-75907694D01*
X139503044Y-75714919D01*
X139591769Y-75500718D01*
X139637000Y-75273324D01*
X139637000Y-75041476D01*
X139823000Y-75041476D01*
X139823000Y-75273324D01*
X139868231Y-75500718D01*
X139956956Y-75714919D01*
X140085764Y-75907694D01*
X140249706Y-76071636D01*
X140442481Y-76200444D01*
X140656682Y-76289169D01*
X140884076Y-76334400D01*
X141115924Y-76334400D01*
X141343318Y-76289169D01*
X141557519Y-76200444D01*
X141750294Y-76071636D01*
X141914236Y-75907694D01*
X142043044Y-75714919D01*
X142131769Y-75500718D01*
X142177000Y-75273324D01*
X142177000Y-75041476D01*
X142363000Y-75041476D01*
X142363000Y-75273324D01*
X142408231Y-75500718D01*
X142496956Y-75714919D01*
X142625764Y-75907694D01*
X142789706Y-76071636D01*
X142982481Y-76200444D01*
X143196682Y-76289169D01*
X143424076Y-76334400D01*
X143655924Y-76334400D01*
X143883318Y-76289169D01*
X144097519Y-76200444D01*
X144290294Y-76071636D01*
X144454236Y-75907694D01*
X144583044Y-75714919D01*
X144671769Y-75500718D01*
X144717000Y-75273324D01*
X144717000Y-75041476D01*
X144903000Y-75041476D01*
X144903000Y-75273324D01*
X144948231Y-75500718D01*
X145036956Y-75714919D01*
X145165764Y-75907694D01*
X145329706Y-76071636D01*
X145522481Y-76200444D01*
X145736682Y-76289169D01*
X145964076Y-76334400D01*
X146195924Y-76334400D01*
X146423318Y-76289169D01*
X146637519Y-76200444D01*
X146830294Y-76071636D01*
X146994236Y-75907694D01*
X147123044Y-75714919D01*
X147211769Y-75500718D01*
X147257000Y-75273324D01*
X147257000Y-75041476D01*
X147211769Y-74814082D01*
X147123044Y-74599881D01*
X146994236Y-74407106D01*
X146830294Y-74243164D01*
X146637519Y-74114356D01*
X146423318Y-74025631D01*
X146195924Y-73980400D01*
X145964076Y-73980400D01*
X145736682Y-74025631D01*
X145522481Y-74114356D01*
X145329706Y-74243164D01*
X145165764Y-74407106D01*
X145036956Y-74599881D01*
X144948231Y-74814082D01*
X144903000Y-75041476D01*
X144717000Y-75041476D01*
X144671769Y-74814082D01*
X144583044Y-74599881D01*
X144454236Y-74407106D01*
X144290294Y-74243164D01*
X144097519Y-74114356D01*
X143883318Y-74025631D01*
X143655924Y-73980400D01*
X143424076Y-73980400D01*
X143196682Y-74025631D01*
X142982481Y-74114356D01*
X142789706Y-74243164D01*
X142625764Y-74407106D01*
X142496956Y-74599881D01*
X142408231Y-74814082D01*
X142363000Y-75041476D01*
X142177000Y-75041476D01*
X142131769Y-74814082D01*
X142043044Y-74599881D01*
X141914236Y-74407106D01*
X141750294Y-74243164D01*
X141557519Y-74114356D01*
X141343318Y-74025631D01*
X141115924Y-73980400D01*
X140884076Y-73980400D01*
X140656682Y-74025631D01*
X140442481Y-74114356D01*
X140249706Y-74243164D01*
X140085764Y-74407106D01*
X139956956Y-74599881D01*
X139868231Y-74814082D01*
X139823000Y-75041476D01*
X139637000Y-75041476D01*
X139591769Y-74814082D01*
X139503044Y-74599881D01*
X139374236Y-74407106D01*
X139210294Y-74243164D01*
X139017519Y-74114356D01*
X138803318Y-74025631D01*
X138575924Y-73980400D01*
X138344076Y-73980400D01*
X138116682Y-74025631D01*
X137902481Y-74114356D01*
X137709706Y-74243164D01*
X137545764Y-74407106D01*
X137416956Y-74599881D01*
X137348736Y-74764579D01*
X137264157Y-74526148D01*
X137115178Y-74276045D01*
X136920269Y-74059812D01*
X136686920Y-73885759D01*
X136424099Y-73760575D01*
X136276890Y-73715924D01*
X136047000Y-73837245D01*
X135793000Y-73837245D01*
X135563110Y-73715924D01*
X135415901Y-73760575D01*
X135153080Y-73885759D01*
X134919731Y-74059812D01*
X134724822Y-74276045D01*
X134575843Y-74526148D01*
X134478519Y-74800509D01*
X134052000Y-74800509D01*
X134052000Y-70852000D01*
X180048001Y-70852000D01*
X180048000Y-134148000D01*
G04 #@! TA.AperFunction,Conductor*
D14*
G36*
X180048000Y-134148000D02*
G01*
X104852000Y-134148000D01*
X104852000Y-125115000D01*
X116961418Y-125115000D01*
X116961418Y-126815000D01*
X116967732Y-126879103D01*
X116986430Y-126940743D01*
X117016794Y-126997550D01*
X117057657Y-127047343D01*
X117107450Y-127088206D01*
X117164257Y-127118570D01*
X117225897Y-127137268D01*
X117290000Y-127143582D01*
X118990000Y-127143582D01*
X119054103Y-127137268D01*
X119115743Y-127118570D01*
X119172550Y-127088206D01*
X119222343Y-127047343D01*
X119263206Y-126997550D01*
X119293570Y-126940743D01*
X119312268Y-126879103D01*
X119318582Y-126815000D01*
X119318582Y-125849076D01*
X119503000Y-125849076D01*
X119503000Y-126080924D01*
X119548231Y-126308318D01*
X119636956Y-126522519D01*
X119765764Y-126715294D01*
X119929706Y-126879236D01*
X120122481Y-127008044D01*
X120336682Y-127096769D01*
X120564076Y-127142000D01*
X120795924Y-127142000D01*
X121023318Y-127096769D01*
X121237519Y-127008044D01*
X121430294Y-126879236D01*
X121594236Y-126715294D01*
X121723044Y-126522519D01*
X121811769Y-126308318D01*
X121857000Y-126080924D01*
X121857000Y-125849076D01*
X122043000Y-125849076D01*
X122043000Y-126080924D01*
X122088231Y-126308318D01*
X122176956Y-126522519D01*
X122305764Y-126715294D01*
X122469706Y-126879236D01*
X122662481Y-127008044D01*
X122876682Y-127096769D01*
X123104076Y-127142000D01*
X123335924Y-127142000D01*
X123563318Y-127096769D01*
X123777519Y-127008044D01*
X123970294Y-126879236D01*
X124134236Y-126715294D01*
X124263044Y-126522519D01*
X124351769Y-126308318D01*
X124397000Y-126080924D01*
X124397000Y-125849076D01*
X124583000Y-125849076D01*
X124583000Y-126080924D01*
X124628231Y-126308318D01*
X124716956Y-126522519D01*
X124845764Y-126715294D01*
X125009706Y-126879236D01*
X125202481Y-127008044D01*
X125416682Y-127096769D01*
X125644076Y-127142000D01*
X125875924Y-127142000D01*
X126103318Y-127096769D01*
X126317519Y-127008044D01*
X126510294Y-126879236D01*
X126674236Y-126715294D01*
X126803044Y-126522519D01*
X126891769Y-126308318D01*
X126937000Y-126080924D01*
X126937000Y-125849076D01*
X127123000Y-125849076D01*
X127123000Y-126080924D01*
X127168231Y-126308318D01*
X127256956Y-126522519D01*
X127385764Y-126715294D01*
X127549706Y-126879236D01*
X127742481Y-127008044D01*
X127956682Y-127096769D01*
X128184076Y-127142000D01*
X128415924Y-127142000D01*
X128643318Y-127096769D01*
X128857519Y-127008044D01*
X129050294Y-126879236D01*
X129214236Y-126715294D01*
X129343044Y-126522519D01*
X129411264Y-126357821D01*
X129495843Y-126596252D01*
X129644822Y-126846355D01*
X129839731Y-127062588D01*
X130073080Y-127236641D01*
X130335901Y-127361825D01*
X130483110Y-127406476D01*
X130713000Y-127285155D01*
X130713000Y-126092000D01*
X130693000Y-126092000D01*
X130693000Y-125838000D01*
X130713000Y-125838000D01*
X130713000Y-124644845D01*
X130967000Y-124644845D01*
X130967000Y-125838000D01*
X130987000Y-125838000D01*
X130987000Y-126092000D01*
X130967000Y-126092000D01*
X130967000Y-127285155D01*
X131196890Y-127406476D01*
X131344099Y-127361825D01*
X131606920Y-127236641D01*
X131840269Y-127062588D01*
X132035178Y-126846355D01*
X132184157Y-126596252D01*
X132268736Y-126357821D01*
X132336956Y-126522519D01*
X132465764Y-126715294D01*
X132629706Y-126879236D01*
X132822481Y-127008044D01*
X133036682Y-127096769D01*
X133264076Y-127142000D01*
X133495924Y-127142000D01*
X133723318Y-127096769D01*
X133937519Y-127008044D01*
X134130294Y-126879236D01*
X134294236Y-126715294D01*
X134423044Y-126522519D01*
X134511769Y-126308318D01*
X134557000Y-126080924D01*
X134557000Y-125849076D01*
X134743000Y-125849076D01*
X134743000Y-126080924D01*
X134788231Y-126308318D01*
X134876956Y-126522519D01*
X135005764Y-126715294D01*
X135169706Y-126879236D01*
X135362481Y-127008044D01*
X135576682Y-127096769D01*
X135804076Y-127142000D01*
X136035924Y-127142000D01*
X136263318Y-127096769D01*
X136477519Y-127008044D01*
X136670294Y-126879236D01*
X136834236Y-126715294D01*
X136963044Y-126522519D01*
X137051769Y-126308318D01*
X137097000Y-126080924D01*
X137097000Y-125849076D01*
X137051769Y-125621682D01*
X136963044Y-125407481D01*
X136834236Y-125214706D01*
X136670294Y-125050764D01*
X136477519Y-124921956D01*
X136263318Y-124833231D01*
X136035924Y-124788000D01*
X135804076Y-124788000D01*
X135576682Y-124833231D01*
X135362481Y-124921956D01*
X135169706Y-125050764D01*
X135005764Y-125214706D01*
X134876956Y-125407481D01*
X134788231Y-125621682D01*
X134743000Y-125849076D01*
X134557000Y-125849076D01*
X134511769Y-125621682D01*
X134423044Y-125407481D01*
X134294236Y-125214706D01*
X134130294Y-125050764D01*
X133937519Y-124921956D01*
X133723318Y-124833231D01*
X133495924Y-124788000D01*
X133264076Y-124788000D01*
X133036682Y-124833231D01*
X132822481Y-124921956D01*
X132629706Y-125050764D01*
X132465764Y-125214706D01*
X132336956Y-125407481D01*
X132268736Y-125572179D01*
X132184157Y-125333748D01*
X132035178Y-125083645D01*
X131840269Y-124867412D01*
X131606920Y-124693359D01*
X131344099Y-124568175D01*
X131196890Y-124523524D01*
X130967000Y-124644845D01*
X130713000Y-124644845D01*
X130483110Y-124523524D01*
X130335901Y-124568175D01*
X130073080Y-124693359D01*
X129839731Y-124867412D01*
X129644822Y-125083645D01*
X129495843Y-125333748D01*
X129411264Y-125572179D01*
X129343044Y-125407481D01*
X129214236Y-125214706D01*
X129050294Y-125050764D01*
X128857519Y-124921956D01*
X128643318Y-124833231D01*
X128415924Y-124788000D01*
X128184076Y-124788000D01*
X127956682Y-124833231D01*
X127742481Y-124921956D01*
X127549706Y-125050764D01*
X127385764Y-125214706D01*
X127256956Y-125407481D01*
X127168231Y-125621682D01*
X127123000Y-125849076D01*
X126937000Y-125849076D01*
X126891769Y-125621682D01*
X126803044Y-125407481D01*
X126674236Y-125214706D01*
X126510294Y-125050764D01*
X126317519Y-124921956D01*
X126103318Y-124833231D01*
X125875924Y-124788000D01*
X125644076Y-124788000D01*
X125416682Y-124833231D01*
X125202481Y-124921956D01*
X125009706Y-125050764D01*
X124845764Y-125214706D01*
X124716956Y-125407481D01*
X124628231Y-125621682D01*
X124583000Y-125849076D01*
X124397000Y-125849076D01*
X124351769Y-125621682D01*
X124263044Y-125407481D01*
X124134236Y-125214706D01*
X123970294Y-125050764D01*
X123777519Y-124921956D01*
X123563318Y-124833231D01*
X123335924Y-124788000D01*
X123104076Y-124788000D01*
X122876682Y-124833231D01*
X122662481Y-124921956D01*
X122469706Y-125050764D01*
X122305764Y-125214706D01*
X122176956Y-125407481D01*
X122088231Y-125621682D01*
X122043000Y-125849076D01*
X121857000Y-125849076D01*
X121811769Y-125621682D01*
X121723044Y-125407481D01*
X121594236Y-125214706D01*
X121430294Y-125050764D01*
X121237519Y-124921956D01*
X121023318Y-124833231D01*
X120795924Y-124788000D01*
X120564076Y-124788000D01*
X120336682Y-124833231D01*
X120122481Y-124921956D01*
X119929706Y-125050764D01*
X119765764Y-125214706D01*
X119636956Y-125407481D01*
X119548231Y-125621682D01*
X119503000Y-125849076D01*
X119318582Y-125849076D01*
X119318582Y-125115000D01*
X119312268Y-125050897D01*
X119293570Y-124989257D01*
X119263206Y-124932450D01*
X119222343Y-124882657D01*
X119172550Y-124841794D01*
X119115743Y-124811430D01*
X119054103Y-124792732D01*
X118990000Y-124786418D01*
X117290000Y-124786418D01*
X117225897Y-124792732D01*
X117164257Y-124811430D01*
X117107450Y-124841794D01*
X117057657Y-124882657D01*
X117016794Y-124932450D01*
X116986430Y-124989257D01*
X116967732Y-125050897D01*
X116961418Y-125115000D01*
X104852000Y-125115000D01*
X104852000Y-108500000D01*
X132820210Y-108500000D01*
X132823001Y-108528341D01*
X132823000Y-117171669D01*
X132820210Y-117200000D01*
X132823000Y-117228331D01*
X132823000Y-117228335D01*
X132825334Y-117252028D01*
X132831349Y-117313111D01*
X132837129Y-117332163D01*
X132864343Y-117421875D01*
X132917921Y-117522114D01*
X132990026Y-117609974D01*
X133012038Y-117628039D01*
X137723001Y-122339002D01*
X137723000Y-128271669D01*
X137720210Y-128300000D01*
X137731349Y-128413111D01*
X137745637Y-128460210D01*
X137764343Y-128521875D01*
X137817921Y-128622114D01*
X137890026Y-128709974D01*
X137912038Y-128728039D01*
X140471965Y-131287967D01*
X140490026Y-131309974D01*
X140512033Y-131328035D01*
X140512035Y-131328037D01*
X140531980Y-131344405D01*
X140577885Y-131382079D01*
X140678124Y-131435657D01*
X140786888Y-131468650D01*
X140871664Y-131477000D01*
X140871670Y-131477000D01*
X140899999Y-131479790D01*
X140928328Y-131477000D01*
X151971669Y-131477000D01*
X152000000Y-131479790D01*
X152028331Y-131477000D01*
X152028336Y-131477000D01*
X152058045Y-131474074D01*
X152113111Y-131468651D01*
X152157770Y-131455103D01*
X152221876Y-131435657D01*
X152322115Y-131382079D01*
X152409974Y-131309974D01*
X152428039Y-131287962D01*
X154087967Y-129628035D01*
X154109974Y-129609974D01*
X154182079Y-129522115D01*
X154235657Y-129421876D01*
X154268650Y-129313112D01*
X154277000Y-129228336D01*
X154277000Y-129228330D01*
X154279790Y-129200001D01*
X154277000Y-129171672D01*
X154277000Y-126995027D01*
X154450294Y-126879236D01*
X154614236Y-126715294D01*
X154743044Y-126522519D01*
X154831769Y-126308318D01*
X154877000Y-126080924D01*
X154877000Y-125849076D01*
X154831769Y-125621682D01*
X154743044Y-125407481D01*
X154614236Y-125214706D01*
X154450294Y-125050764D01*
X154257519Y-124921956D01*
X154043318Y-124833231D01*
X153815924Y-124788000D01*
X153584076Y-124788000D01*
X153356682Y-124833231D01*
X153142481Y-124921956D01*
X152949706Y-125050764D01*
X152785764Y-125214706D01*
X152656956Y-125407481D01*
X152568231Y-125621682D01*
X152523000Y-125849076D01*
X152523000Y-126080924D01*
X152568231Y-126308318D01*
X152656956Y-126522519D01*
X152785764Y-126715294D01*
X152949706Y-126879236D01*
X153123000Y-126995027D01*
X153123001Y-128960997D01*
X151760999Y-130323000D01*
X141139002Y-130323000D01*
X138877000Y-128060999D01*
X138877000Y-125849076D01*
X139823000Y-125849076D01*
X139823000Y-126080924D01*
X139868231Y-126308318D01*
X139956956Y-126522519D01*
X140085764Y-126715294D01*
X140249706Y-126879236D01*
X140442481Y-127008044D01*
X140656682Y-127096769D01*
X140884076Y-127142000D01*
X141115924Y-127142000D01*
X141343318Y-127096769D01*
X141557519Y-127008044D01*
X141750294Y-126879236D01*
X141914236Y-126715294D01*
X142043044Y-126522519D01*
X142131769Y-126308318D01*
X142177000Y-126080924D01*
X142177000Y-125849076D01*
X142363000Y-125849076D01*
X142363000Y-126080924D01*
X142408231Y-126308318D01*
X142496956Y-126522519D01*
X142625764Y-126715294D01*
X142789706Y-126879236D01*
X142982481Y-127008044D01*
X143196682Y-127096769D01*
X143424076Y-127142000D01*
X143655924Y-127142000D01*
X143883318Y-127096769D01*
X144097519Y-127008044D01*
X144290294Y-126879236D01*
X144454236Y-126715294D01*
X144583044Y-126522519D01*
X144671769Y-126308318D01*
X144717000Y-126080924D01*
X144717000Y-125849076D01*
X144903000Y-125849076D01*
X144903000Y-126080924D01*
X144948231Y-126308318D01*
X145036956Y-126522519D01*
X145165764Y-126715294D01*
X145329706Y-126879236D01*
X145522481Y-127008044D01*
X145736682Y-127096769D01*
X145964076Y-127142000D01*
X146195924Y-127142000D01*
X146423318Y-127096769D01*
X146637519Y-127008044D01*
X146830294Y-126879236D01*
X146994236Y-126715294D01*
X147123044Y-126522519D01*
X147211769Y-126308318D01*
X147257000Y-126080924D01*
X147257000Y-125849076D01*
X147443000Y-125849076D01*
X147443000Y-126080924D01*
X147488231Y-126308318D01*
X147576956Y-126522519D01*
X147705764Y-126715294D01*
X147869706Y-126879236D01*
X148062481Y-127008044D01*
X148276682Y-127096769D01*
X148504076Y-127142000D01*
X148735924Y-127142000D01*
X148963318Y-127096769D01*
X149177519Y-127008044D01*
X149370294Y-126879236D01*
X149534236Y-126715294D01*
X149663044Y-126522519D01*
X149751769Y-126308318D01*
X149797000Y-126080924D01*
X149797000Y-125849076D01*
X149983000Y-125849076D01*
X149983000Y-126080924D01*
X150028231Y-126308318D01*
X150116956Y-126522519D01*
X150245764Y-126715294D01*
X150409706Y-126879236D01*
X150602481Y-127008044D01*
X150816682Y-127096769D01*
X151044076Y-127142000D01*
X151275924Y-127142000D01*
X151503318Y-127096769D01*
X151717519Y-127008044D01*
X151910294Y-126879236D01*
X152074236Y-126715294D01*
X152203044Y-126522519D01*
X152291769Y-126308318D01*
X152337000Y-126080924D01*
X152337000Y-125849076D01*
X152291769Y-125621682D01*
X152203044Y-125407481D01*
X152074236Y-125214706D01*
X151910294Y-125050764D01*
X151717519Y-124921956D01*
X151503318Y-124833231D01*
X151275924Y-124788000D01*
X151044076Y-124788000D01*
X150816682Y-124833231D01*
X150602481Y-124921956D01*
X150409706Y-125050764D01*
X150245764Y-125214706D01*
X150116956Y-125407481D01*
X150028231Y-125621682D01*
X149983000Y-125849076D01*
X149797000Y-125849076D01*
X149751769Y-125621682D01*
X149663044Y-125407481D01*
X149534236Y-125214706D01*
X149370294Y-125050764D01*
X149177519Y-124921956D01*
X148963318Y-124833231D01*
X148735924Y-124788000D01*
X148504076Y-124788000D01*
X148276682Y-124833231D01*
X148062481Y-124921956D01*
X147869706Y-125050764D01*
X147705764Y-125214706D01*
X147576956Y-125407481D01*
X147488231Y-125621682D01*
X147443000Y-125849076D01*
X147257000Y-125849076D01*
X147211769Y-125621682D01*
X147123044Y-125407481D01*
X146994236Y-125214706D01*
X146830294Y-125050764D01*
X146637519Y-124921956D01*
X146423318Y-124833231D01*
X146195924Y-124788000D01*
X145964076Y-124788000D01*
X145736682Y-124833231D01*
X145522481Y-124921956D01*
X145329706Y-125050764D01*
X145165764Y-125214706D01*
X145036956Y-125407481D01*
X144948231Y-125621682D01*
X144903000Y-125849076D01*
X144717000Y-125849076D01*
X144671769Y-125621682D01*
X144583044Y-125407481D01*
X144454236Y-125214706D01*
X144290294Y-125050764D01*
X144097519Y-124921956D01*
X143883318Y-124833231D01*
X143655924Y-124788000D01*
X143424076Y-124788000D01*
X143196682Y-124833231D01*
X142982481Y-124921956D01*
X142789706Y-125050764D01*
X142625764Y-125214706D01*
X142496956Y-125407481D01*
X142408231Y-125621682D01*
X142363000Y-125849076D01*
X142177000Y-125849076D01*
X142131769Y-125621682D01*
X142043044Y-125407481D01*
X141914236Y-125214706D01*
X141750294Y-125050764D01*
X141557519Y-124921956D01*
X141343318Y-124833231D01*
X141115924Y-124788000D01*
X140884076Y-124788000D01*
X140656682Y-124833231D01*
X140442481Y-124921956D01*
X140249706Y-125050764D01*
X140085764Y-125214706D01*
X139956956Y-125407481D01*
X139868231Y-125621682D01*
X139823000Y-125849076D01*
X138877000Y-125849076D01*
X138877000Y-122575000D01*
X139821418Y-122575000D01*
X139821418Y-124275000D01*
X139827732Y-124339103D01*
X139846430Y-124400743D01*
X139876794Y-124457550D01*
X139917657Y-124507343D01*
X139967450Y-124548206D01*
X140024257Y-124578570D01*
X140085897Y-124597268D01*
X140150000Y-124603582D01*
X141850000Y-124603582D01*
X141914103Y-124597268D01*
X141975743Y-124578570D01*
X142032550Y-124548206D01*
X142082343Y-124507343D01*
X142123206Y-124457550D01*
X142153570Y-124400743D01*
X142172268Y-124339103D01*
X142178582Y-124275000D01*
X142178582Y-123309076D01*
X142363000Y-123309076D01*
X142363000Y-123540924D01*
X142408231Y-123768318D01*
X142496956Y-123982519D01*
X142625764Y-124175294D01*
X142789706Y-124339236D01*
X142982481Y-124468044D01*
X143196682Y-124556769D01*
X143424076Y-124602000D01*
X143655924Y-124602000D01*
X143883318Y-124556769D01*
X144097519Y-124468044D01*
X144290294Y-124339236D01*
X144454236Y-124175294D01*
X144583044Y-123982519D01*
X144671769Y-123768318D01*
X144717000Y-123540924D01*
X144717000Y-123309076D01*
X144671769Y-123081682D01*
X144583044Y-122867481D01*
X144454236Y-122674706D01*
X144290294Y-122510764D01*
X144097519Y-122381956D01*
X143883318Y-122293231D01*
X143655924Y-122248000D01*
X143424076Y-122248000D01*
X143196682Y-122293231D01*
X142982481Y-122381956D01*
X142789706Y-122510764D01*
X142625764Y-122674706D01*
X142496956Y-122867481D01*
X142408231Y-123081682D01*
X142363000Y-123309076D01*
X142178582Y-123309076D01*
X142178582Y-122575000D01*
X142172268Y-122510897D01*
X142153570Y-122449257D01*
X142123206Y-122392450D01*
X142082343Y-122342657D01*
X142032550Y-122301794D01*
X141975743Y-122271430D01*
X141914103Y-122252732D01*
X141850000Y-122246418D01*
X140150000Y-122246418D01*
X140085897Y-122252732D01*
X140024257Y-122271430D01*
X139967450Y-122301794D01*
X139917657Y-122342657D01*
X139876794Y-122392450D01*
X139846430Y-122449257D01*
X139827732Y-122510897D01*
X139821418Y-122575000D01*
X138877000Y-122575000D01*
X138877000Y-122128328D01*
X138879790Y-122099999D01*
X138877000Y-122071670D01*
X138877000Y-122071664D01*
X138868650Y-121986888D01*
X138835657Y-121878124D01*
X138782079Y-121777885D01*
X138709974Y-121690026D01*
X138687962Y-121671961D01*
X133977000Y-116960999D01*
X133977000Y-109856890D01*
X135158524Y-109856890D01*
X135203175Y-110004099D01*
X135328359Y-110266920D01*
X135502412Y-110500269D01*
X135718645Y-110695178D01*
X135968748Y-110844157D01*
X136243109Y-110941481D01*
X136473000Y-110820814D01*
X136473000Y-109627000D01*
X136727000Y-109627000D01*
X136727000Y-110820814D01*
X136956891Y-110941481D01*
X137231252Y-110844157D01*
X137481355Y-110695178D01*
X137697588Y-110500269D01*
X137871641Y-110266920D01*
X137996825Y-110004099D01*
X138041476Y-109856890D01*
X137920155Y-109627000D01*
X136727000Y-109627000D01*
X136473000Y-109627000D01*
X135279845Y-109627000D01*
X135158524Y-109856890D01*
X133977000Y-109856890D01*
X133977000Y-108739001D01*
X135179001Y-107537000D01*
X135421418Y-107537000D01*
X135421418Y-107810000D01*
X135427732Y-107874103D01*
X135446430Y-107935743D01*
X135476794Y-107992550D01*
X135517657Y-108042343D01*
X135567450Y-108083206D01*
X135624257Y-108113570D01*
X135685897Y-108132268D01*
X135750000Y-108138582D01*
X136017408Y-108138582D01*
X135968748Y-108155843D01*
X135718645Y-108304822D01*
X135502412Y-108499731D01*
X135328359Y-108733080D01*
X135203175Y-108995901D01*
X135158524Y-109143110D01*
X135279845Y-109373000D01*
X136473000Y-109373000D01*
X136473000Y-109353000D01*
X136727000Y-109353000D01*
X136727000Y-109373000D01*
X137920155Y-109373000D01*
X138041476Y-109143110D01*
X137996825Y-108995901D01*
X137871641Y-108733080D01*
X137697588Y-108499731D01*
X137481355Y-108304822D01*
X137231252Y-108155843D01*
X137182592Y-108138582D01*
X137450000Y-108138582D01*
X137514103Y-108132268D01*
X137575743Y-108113570D01*
X137632550Y-108083206D01*
X137682343Y-108042343D01*
X137723206Y-107992550D01*
X137753570Y-107935743D01*
X137772268Y-107874103D01*
X137778582Y-107810000D01*
X137778582Y-106110000D01*
X137772268Y-106045897D01*
X137753570Y-105984257D01*
X137723206Y-105927450D01*
X137682343Y-105877657D01*
X137632550Y-105836794D01*
X137575743Y-105806430D01*
X137514103Y-105787732D01*
X137450000Y-105781418D01*
X135750000Y-105781418D01*
X135685897Y-105787732D01*
X135624257Y-105806430D01*
X135567450Y-105836794D01*
X135517657Y-105877657D01*
X135476794Y-105927450D01*
X135446430Y-105984257D01*
X135427732Y-106045897D01*
X135421418Y-106110000D01*
X135421418Y-106383000D01*
X134968331Y-106383000D01*
X134940000Y-106380210D01*
X134911669Y-106383000D01*
X134911664Y-106383000D01*
X134884886Y-106385637D01*
X134826888Y-106391349D01*
X134762782Y-106410796D01*
X134718124Y-106424343D01*
X134617885Y-106477921D01*
X134530026Y-106550026D01*
X134511961Y-106572038D01*
X133012034Y-108071965D01*
X132990027Y-108090026D01*
X132971966Y-108112033D01*
X132971963Y-108112036D01*
X132950178Y-108138582D01*
X132917922Y-108177885D01*
X132874823Y-108258519D01*
X132864344Y-108278124D01*
X132831349Y-108386889D01*
X132820210Y-108500000D01*
X104852000Y-108500000D01*
X104852000Y-107084076D01*
X113183000Y-107084076D01*
X113183000Y-107315924D01*
X113228231Y-107543318D01*
X113316956Y-107757519D01*
X113445764Y-107950294D01*
X113609706Y-108114236D01*
X113802481Y-108243044D01*
X114016682Y-108331769D01*
X114244076Y-108377000D01*
X114475924Y-108377000D01*
X114703318Y-108331769D01*
X114917519Y-108243044D01*
X115110294Y-108114236D01*
X115274236Y-107950294D01*
X115403044Y-107757519D01*
X115491769Y-107543318D01*
X115537000Y-107315924D01*
X115537000Y-107084076D01*
X115491769Y-106856682D01*
X115403044Y-106642481D01*
X115274236Y-106449706D01*
X115110294Y-106285764D01*
X114917519Y-106156956D01*
X114703318Y-106068231D01*
X114475924Y-106023000D01*
X114244076Y-106023000D01*
X114016682Y-106068231D01*
X113802481Y-106156956D01*
X113609706Y-106285764D01*
X113445764Y-106449706D01*
X113316956Y-106642481D01*
X113228231Y-106856682D01*
X113183000Y-107084076D01*
X104852000Y-107084076D01*
X104852000Y-102384076D01*
X113133000Y-102384076D01*
X113133000Y-102615924D01*
X113178231Y-102843318D01*
X113266956Y-103057519D01*
X113395764Y-103250294D01*
X113559706Y-103414236D01*
X113752481Y-103543044D01*
X113966682Y-103631769D01*
X114194076Y-103677000D01*
X114425924Y-103677000D01*
X114653318Y-103631769D01*
X114867519Y-103543044D01*
X115060294Y-103414236D01*
X115224236Y-103250294D01*
X115353044Y-103057519D01*
X115441769Y-102843318D01*
X115487000Y-102615924D01*
X115487000Y-102384076D01*
X115441769Y-102156682D01*
X115353044Y-101942481D01*
X115224236Y-101749706D01*
X115060294Y-101585764D01*
X114867519Y-101456956D01*
X114653318Y-101368231D01*
X114425924Y-101323000D01*
X114194076Y-101323000D01*
X113966682Y-101368231D01*
X113752481Y-101456956D01*
X113559706Y-101585764D01*
X113395764Y-101749706D01*
X113266956Y-101942481D01*
X113178231Y-102156682D01*
X113133000Y-102384076D01*
X104852000Y-102384076D01*
X104852000Y-97784076D01*
X113133000Y-97784076D01*
X113133000Y-98015924D01*
X113178231Y-98243318D01*
X113266956Y-98457519D01*
X113395764Y-98650294D01*
X113559706Y-98814236D01*
X113752481Y-98943044D01*
X113966682Y-99031769D01*
X114194076Y-99077000D01*
X114425924Y-99077000D01*
X114653318Y-99031769D01*
X114867519Y-98943044D01*
X115060294Y-98814236D01*
X115224236Y-98650294D01*
X115353044Y-98457519D01*
X115441769Y-98243318D01*
X115487000Y-98015924D01*
X115487000Y-97784076D01*
X115441769Y-97556682D01*
X115353044Y-97342481D01*
X115224236Y-97149706D01*
X115124530Y-97050000D01*
X115671418Y-97050000D01*
X115671418Y-98750000D01*
X115677732Y-98814103D01*
X115696430Y-98875743D01*
X115726794Y-98932550D01*
X115767657Y-98982343D01*
X115817450Y-99023206D01*
X115874257Y-99053570D01*
X115935897Y-99072268D01*
X116000000Y-99078582D01*
X117700000Y-99078582D01*
X117764103Y-99072268D01*
X117825743Y-99053570D01*
X117882550Y-99023206D01*
X117932343Y-98982343D01*
X117973206Y-98932550D01*
X118003570Y-98875743D01*
X118022268Y-98814103D01*
X118028582Y-98750000D01*
X118028582Y-98477000D01*
X118971669Y-98477000D01*
X119000000Y-98479790D01*
X119028331Y-98477000D01*
X119028336Y-98477000D01*
X119058045Y-98474074D01*
X119113111Y-98468651D01*
X119157770Y-98455103D01*
X119221876Y-98435657D01*
X119322115Y-98382079D01*
X119409974Y-98309974D01*
X119428039Y-98287962D01*
X127839001Y-89877000D01*
X130806998Y-89877000D01*
X118760999Y-101923000D01*
X118028582Y-101923000D01*
X118028582Y-101650000D01*
X118022268Y-101585897D01*
X118003570Y-101524257D01*
X117973206Y-101467450D01*
X117932343Y-101417657D01*
X117882550Y-101376794D01*
X117825743Y-101346430D01*
X117764103Y-101327732D01*
X117700000Y-101321418D01*
X116000000Y-101321418D01*
X115935897Y-101327732D01*
X115874257Y-101346430D01*
X115817450Y-101376794D01*
X115767657Y-101417657D01*
X115726794Y-101467450D01*
X115696430Y-101524257D01*
X115677732Y-101585897D01*
X115671418Y-101650000D01*
X115671418Y-103350000D01*
X115677732Y-103414103D01*
X115696430Y-103475743D01*
X115726794Y-103532550D01*
X115767657Y-103582343D01*
X115817450Y-103623206D01*
X115874257Y-103653570D01*
X115935897Y-103672268D01*
X116000000Y-103678582D01*
X117700000Y-103678582D01*
X117764103Y-103672268D01*
X117825743Y-103653570D01*
X117882550Y-103623206D01*
X117932343Y-103582343D01*
X117973206Y-103532550D01*
X118003570Y-103475743D01*
X118022268Y-103414103D01*
X118028582Y-103350000D01*
X118028582Y-103077000D01*
X118971669Y-103077000D01*
X119000000Y-103079790D01*
X119028331Y-103077000D01*
X119028336Y-103077000D01*
X119058045Y-103074074D01*
X119113111Y-103068651D01*
X119157770Y-103055103D01*
X119221876Y-103035657D01*
X119322115Y-102982079D01*
X119409974Y-102909974D01*
X119428039Y-102887962D01*
X131738991Y-90577011D01*
X134606988Y-90577011D01*
X118560999Y-106623000D01*
X118078582Y-106623000D01*
X118078582Y-106350000D01*
X118072268Y-106285897D01*
X118053570Y-106224257D01*
X118023206Y-106167450D01*
X117982343Y-106117657D01*
X117932550Y-106076794D01*
X117875743Y-106046430D01*
X117814103Y-106027732D01*
X117750000Y-106021418D01*
X116050000Y-106021418D01*
X115985897Y-106027732D01*
X115924257Y-106046430D01*
X115867450Y-106076794D01*
X115817657Y-106117657D01*
X115776794Y-106167450D01*
X115746430Y-106224257D01*
X115727732Y-106285897D01*
X115721418Y-106350000D01*
X115721418Y-108050000D01*
X115727732Y-108114103D01*
X115746430Y-108175743D01*
X115776794Y-108232550D01*
X115817657Y-108282343D01*
X115867450Y-108323206D01*
X115924257Y-108353570D01*
X115985897Y-108372268D01*
X116050000Y-108378582D01*
X117750000Y-108378582D01*
X117814103Y-108372268D01*
X117875743Y-108353570D01*
X117932550Y-108323206D01*
X117982343Y-108282343D01*
X118023206Y-108232550D01*
X118053570Y-108175743D01*
X118072268Y-108114103D01*
X118078582Y-108050000D01*
X118078582Y-107777000D01*
X118771669Y-107777000D01*
X118800000Y-107779790D01*
X118828331Y-107777000D01*
X118828336Y-107777000D01*
X118858045Y-107774074D01*
X118913111Y-107768651D01*
X118957770Y-107755103D01*
X119021876Y-107735657D01*
X119122115Y-107682079D01*
X119209974Y-107609974D01*
X119228039Y-107587962D01*
X126491925Y-100324076D01*
X135523000Y-100324076D01*
X135523000Y-100555924D01*
X135568231Y-100783318D01*
X135656956Y-100997519D01*
X135785764Y-101190294D01*
X135949706Y-101354236D01*
X136142481Y-101483044D01*
X136356682Y-101571769D01*
X136584076Y-101617000D01*
X136815924Y-101617000D01*
X137043318Y-101571769D01*
X137257519Y-101483044D01*
X137450294Y-101354236D01*
X137614236Y-101190294D01*
X137743044Y-100997519D01*
X137831769Y-100783318D01*
X137877000Y-100555924D01*
X137877000Y-100324076D01*
X137831769Y-100096682D01*
X137743044Y-99882481D01*
X137614236Y-99689706D01*
X137450294Y-99525764D01*
X137257519Y-99396956D01*
X137043318Y-99308231D01*
X136815924Y-99263000D01*
X136584076Y-99263000D01*
X136356682Y-99308231D01*
X136142481Y-99396956D01*
X135949706Y-99525764D01*
X135785764Y-99689706D01*
X135656956Y-99882481D01*
X135568231Y-100096682D01*
X135523000Y-100324076D01*
X126491925Y-100324076D01*
X129766001Y-97050000D01*
X135521418Y-97050000D01*
X135521418Y-98750000D01*
X135527732Y-98814103D01*
X135546430Y-98875743D01*
X135576794Y-98932550D01*
X135617657Y-98982343D01*
X135667450Y-99023206D01*
X135724257Y-99053570D01*
X135785897Y-99072268D01*
X135850000Y-99078582D01*
X137550000Y-99078582D01*
X137614103Y-99072268D01*
X137675743Y-99053570D01*
X137732550Y-99023206D01*
X137782343Y-98982343D01*
X137823206Y-98932550D01*
X137853570Y-98875743D01*
X137872268Y-98814103D01*
X137878582Y-98750000D01*
X137878582Y-98477000D01*
X138360999Y-98477000D01*
X139223000Y-99339001D01*
X139223001Y-117271659D01*
X139220210Y-117300000D01*
X139231349Y-117413111D01*
X139264344Y-117521876D01*
X139317922Y-117622115D01*
X139325493Y-117631340D01*
X139371963Y-117687964D01*
X139371966Y-117687967D01*
X139390027Y-117709974D01*
X139412034Y-117728035D01*
X140971961Y-119287962D01*
X140990026Y-119309974D01*
X141077885Y-119382079D01*
X141178124Y-119435657D01*
X141222782Y-119449204D01*
X141286888Y-119468651D01*
X141400000Y-119479791D01*
X141428339Y-119477000D01*
X144560999Y-119477000D01*
X145503000Y-120419001D01*
X145503001Y-122394972D01*
X145329706Y-122510764D01*
X145165764Y-122674706D01*
X145036956Y-122867481D01*
X144948231Y-123081682D01*
X144903000Y-123309076D01*
X144903000Y-123540924D01*
X144948231Y-123768318D01*
X145036956Y-123982519D01*
X145165764Y-124175294D01*
X145329706Y-124339236D01*
X145522481Y-124468044D01*
X145736682Y-124556769D01*
X145964076Y-124602000D01*
X146195924Y-124602000D01*
X146423318Y-124556769D01*
X146637519Y-124468044D01*
X146830294Y-124339236D01*
X146994236Y-124175294D01*
X147123044Y-123982519D01*
X147211769Y-123768318D01*
X147257000Y-123540924D01*
X147257000Y-123309076D01*
X147211769Y-123081682D01*
X147123044Y-122867481D01*
X146994236Y-122674706D01*
X146830294Y-122510764D01*
X146657000Y-122394973D01*
X146657000Y-120583038D01*
X148043000Y-121969038D01*
X148043000Y-122394973D01*
X147869706Y-122510764D01*
X147705764Y-122674706D01*
X147576956Y-122867481D01*
X147488231Y-123081682D01*
X147443000Y-123309076D01*
X147443000Y-123540924D01*
X147488231Y-123768318D01*
X147576956Y-123982519D01*
X147705764Y-124175294D01*
X147869706Y-124339236D01*
X148062481Y-124468044D01*
X148276682Y-124556769D01*
X148504076Y-124602000D01*
X148735924Y-124602000D01*
X148963318Y-124556769D01*
X149177519Y-124468044D01*
X149370294Y-124339236D01*
X149534236Y-124175294D01*
X149663044Y-123982519D01*
X149751769Y-123768318D01*
X149797000Y-123540924D01*
X149797000Y-123309076D01*
X149983000Y-123309076D01*
X149983000Y-123540924D01*
X150028231Y-123768318D01*
X150116956Y-123982519D01*
X150245764Y-124175294D01*
X150409706Y-124339236D01*
X150602481Y-124468044D01*
X150816682Y-124556769D01*
X151044076Y-124602000D01*
X151275924Y-124602000D01*
X151503318Y-124556769D01*
X151717519Y-124468044D01*
X151910294Y-124339236D01*
X152074236Y-124175294D01*
X152203044Y-123982519D01*
X152291769Y-123768318D01*
X152337000Y-123540924D01*
X152337000Y-123309076D01*
X152523000Y-123309076D01*
X152523000Y-123540924D01*
X152568231Y-123768318D01*
X152656956Y-123982519D01*
X152785764Y-124175294D01*
X152949706Y-124339236D01*
X153142481Y-124468044D01*
X153356682Y-124556769D01*
X153584076Y-124602000D01*
X153815924Y-124602000D01*
X154043318Y-124556769D01*
X154257519Y-124468044D01*
X154450294Y-124339236D01*
X154614236Y-124175294D01*
X154743044Y-123982519D01*
X154831769Y-123768318D01*
X154877000Y-123540924D01*
X154877000Y-123309076D01*
X155063000Y-123309076D01*
X155063000Y-123540924D01*
X155108231Y-123768318D01*
X155196956Y-123982519D01*
X155325764Y-124175294D01*
X155489706Y-124339236D01*
X155682481Y-124468044D01*
X155896682Y-124556769D01*
X156124076Y-124602000D01*
X156355924Y-124602000D01*
X156583318Y-124556769D01*
X156797519Y-124468044D01*
X156990294Y-124339236D01*
X157154236Y-124175294D01*
X157283044Y-123982519D01*
X157371769Y-123768318D01*
X157417000Y-123540924D01*
X157417000Y-123309076D01*
X157603000Y-123309076D01*
X157603000Y-123540924D01*
X157648231Y-123768318D01*
X157736956Y-123982519D01*
X157865764Y-124175294D01*
X158029706Y-124339236D01*
X158222481Y-124468044D01*
X158436682Y-124556769D01*
X158664076Y-124602000D01*
X158895924Y-124602000D01*
X159123318Y-124556769D01*
X159337519Y-124468044D01*
X159530294Y-124339236D01*
X159694236Y-124175294D01*
X159823044Y-123982519D01*
X159911769Y-123768318D01*
X159957000Y-123540924D01*
X159957000Y-123309076D01*
X160143000Y-123309076D01*
X160143000Y-123540924D01*
X160188231Y-123768318D01*
X160276956Y-123982519D01*
X160405764Y-124175294D01*
X160569706Y-124339236D01*
X160762481Y-124468044D01*
X160976682Y-124556769D01*
X161204076Y-124602000D01*
X161435924Y-124602000D01*
X161663318Y-124556769D01*
X161877519Y-124468044D01*
X162070294Y-124339236D01*
X162234236Y-124175294D01*
X162363044Y-123982519D01*
X162451769Y-123768318D01*
X162497000Y-123540924D01*
X162497000Y-123309076D01*
X162683000Y-123309076D01*
X162683000Y-123540924D01*
X162728231Y-123768318D01*
X162816956Y-123982519D01*
X162945764Y-124175294D01*
X163109706Y-124339236D01*
X163302481Y-124468044D01*
X163516682Y-124556769D01*
X163744076Y-124602000D01*
X163975924Y-124602000D01*
X164203318Y-124556769D01*
X164417519Y-124468044D01*
X164610294Y-124339236D01*
X164774236Y-124175294D01*
X164903044Y-123982519D01*
X164991769Y-123768318D01*
X165037000Y-123540924D01*
X165037000Y-123309076D01*
X164991769Y-123081682D01*
X164903044Y-122867481D01*
X164774236Y-122674706D01*
X164610294Y-122510764D01*
X164417519Y-122381956D01*
X164203318Y-122293231D01*
X163975924Y-122248000D01*
X163744076Y-122248000D01*
X163516682Y-122293231D01*
X163302481Y-122381956D01*
X163109706Y-122510764D01*
X162945764Y-122674706D01*
X162816956Y-122867481D01*
X162728231Y-123081682D01*
X162683000Y-123309076D01*
X162497000Y-123309076D01*
X162451769Y-123081682D01*
X162363044Y-122867481D01*
X162234236Y-122674706D01*
X162070294Y-122510764D01*
X161877519Y-122381956D01*
X161663318Y-122293231D01*
X161435924Y-122248000D01*
X161204076Y-122248000D01*
X160976682Y-122293231D01*
X160762481Y-122381956D01*
X160569706Y-122510764D01*
X160405764Y-122674706D01*
X160276956Y-122867481D01*
X160188231Y-123081682D01*
X160143000Y-123309076D01*
X159957000Y-123309076D01*
X159911769Y-123081682D01*
X159823044Y-122867481D01*
X159694236Y-122674706D01*
X159530294Y-122510764D01*
X159337519Y-122381956D01*
X159123318Y-122293231D01*
X158895924Y-122248000D01*
X158664076Y-122248000D01*
X158436682Y-122293231D01*
X158222481Y-122381956D01*
X158029706Y-122510764D01*
X157865764Y-122674706D01*
X157736956Y-122867481D01*
X157648231Y-123081682D01*
X157603000Y-123309076D01*
X157417000Y-123309076D01*
X157371769Y-123081682D01*
X157283044Y-122867481D01*
X157154236Y-122674706D01*
X156990294Y-122510764D01*
X156797519Y-122381956D01*
X156583318Y-122293231D01*
X156355924Y-122248000D01*
X156124076Y-122248000D01*
X155896682Y-122293231D01*
X155682481Y-122381956D01*
X155489706Y-122510764D01*
X155325764Y-122674706D01*
X155196956Y-122867481D01*
X155108231Y-123081682D01*
X155063000Y-123309076D01*
X154877000Y-123309076D01*
X154831769Y-123081682D01*
X154743044Y-122867481D01*
X154614236Y-122674706D01*
X154450294Y-122510764D01*
X154257519Y-122381956D01*
X154043318Y-122293231D01*
X153815924Y-122248000D01*
X153584076Y-122248000D01*
X153356682Y-122293231D01*
X153142481Y-122381956D01*
X152949706Y-122510764D01*
X152785764Y-122674706D01*
X152656956Y-122867481D01*
X152568231Y-123081682D01*
X152523000Y-123309076D01*
X152337000Y-123309076D01*
X152291769Y-123081682D01*
X152203044Y-122867481D01*
X152074236Y-122674706D01*
X151910294Y-122510764D01*
X151717519Y-122381956D01*
X151503318Y-122293231D01*
X151275924Y-122248000D01*
X151044076Y-122248000D01*
X150816682Y-122293231D01*
X150602481Y-122381956D01*
X150409706Y-122510764D01*
X150245764Y-122674706D01*
X150116956Y-122867481D01*
X150028231Y-123081682D01*
X149983000Y-123309076D01*
X149797000Y-123309076D01*
X149751769Y-123081682D01*
X149663044Y-122867481D01*
X149534236Y-122674706D01*
X149370294Y-122510764D01*
X149197000Y-122394973D01*
X149197000Y-121758365D01*
X149199790Y-121730036D01*
X149197000Y-121701707D01*
X149197000Y-121701701D01*
X149188650Y-121616925D01*
X149155657Y-121508161D01*
X149102079Y-121407922D01*
X149029974Y-121320063D01*
X149007963Y-121301999D01*
X145517992Y-117812028D01*
X145499927Y-117790016D01*
X145412068Y-117717911D01*
X145311829Y-117664333D01*
X145247723Y-117644887D01*
X145203064Y-117631339D01*
X145147998Y-117625916D01*
X145118289Y-117622990D01*
X145118284Y-117622990D01*
X145089953Y-117620200D01*
X145061622Y-117622990D01*
X141928954Y-117622990D01*
X141077010Y-116771047D01*
X141077010Y-110056890D01*
X142358524Y-110056890D01*
X142403175Y-110204099D01*
X142528359Y-110466920D01*
X142702412Y-110700269D01*
X142918645Y-110895178D01*
X143168748Y-111044157D01*
X143443109Y-111141481D01*
X143673000Y-111020814D01*
X143673000Y-109827000D01*
X143927000Y-109827000D01*
X143927000Y-111020814D01*
X144156891Y-111141481D01*
X144431252Y-111044157D01*
X144681355Y-110895178D01*
X144897588Y-110700269D01*
X145071641Y-110466920D01*
X145196825Y-110204099D01*
X145241476Y-110056890D01*
X145120155Y-109827000D01*
X143927000Y-109827000D01*
X143673000Y-109827000D01*
X142479845Y-109827000D01*
X142358524Y-110056890D01*
X141077010Y-110056890D01*
X141077010Y-109343110D01*
X142358524Y-109343110D01*
X142479845Y-109573000D01*
X143673000Y-109573000D01*
X143673000Y-109553000D01*
X143927000Y-109553000D01*
X143927000Y-109573000D01*
X145120155Y-109573000D01*
X145241476Y-109343110D01*
X145196825Y-109195901D01*
X145071641Y-108933080D01*
X144897588Y-108699731D01*
X144681355Y-108504822D01*
X144431252Y-108355843D01*
X144382592Y-108338582D01*
X144650000Y-108338582D01*
X144714103Y-108332268D01*
X144775743Y-108313570D01*
X144832550Y-108283206D01*
X144882343Y-108242343D01*
X144923206Y-108192550D01*
X144953570Y-108135743D01*
X144972268Y-108074103D01*
X144978582Y-108010000D01*
X144978582Y-107737000D01*
X163520999Y-107737000D01*
X166823001Y-111039002D01*
X166823000Y-129060999D01*
X165360999Y-130523000D01*
X158539001Y-130523000D01*
X156817000Y-128800999D01*
X156817000Y-126995027D01*
X156990294Y-126879236D01*
X157154236Y-126715294D01*
X157283044Y-126522519D01*
X157371769Y-126308318D01*
X157417000Y-126080924D01*
X157417000Y-125849076D01*
X157603000Y-125849076D01*
X157603000Y-126080924D01*
X157648231Y-126308318D01*
X157736956Y-126522519D01*
X157865764Y-126715294D01*
X158029706Y-126879236D01*
X158222481Y-127008044D01*
X158436682Y-127096769D01*
X158664076Y-127142000D01*
X158895924Y-127142000D01*
X159123318Y-127096769D01*
X159337519Y-127008044D01*
X159530294Y-126879236D01*
X159694236Y-126715294D01*
X159823044Y-126522519D01*
X159911769Y-126308318D01*
X159957000Y-126080924D01*
X159957000Y-125849076D01*
X160143000Y-125849076D01*
X160143000Y-126080924D01*
X160188231Y-126308318D01*
X160276956Y-126522519D01*
X160405764Y-126715294D01*
X160569706Y-126879236D01*
X160762481Y-127008044D01*
X160976682Y-127096769D01*
X161204076Y-127142000D01*
X161435924Y-127142000D01*
X161663318Y-127096769D01*
X161877519Y-127008044D01*
X162070294Y-126879236D01*
X162234236Y-126715294D01*
X162363044Y-126522519D01*
X162451769Y-126308318D01*
X162497000Y-126080924D01*
X162497000Y-125849076D01*
X162683000Y-125849076D01*
X162683000Y-126080924D01*
X162728231Y-126308318D01*
X162816956Y-126522519D01*
X162945764Y-126715294D01*
X163109706Y-126879236D01*
X163302481Y-127008044D01*
X163516682Y-127096769D01*
X163744076Y-127142000D01*
X163975924Y-127142000D01*
X164203318Y-127096769D01*
X164417519Y-127008044D01*
X164610294Y-126879236D01*
X164774236Y-126715294D01*
X164903044Y-126522519D01*
X164991769Y-126308318D01*
X165037000Y-126080924D01*
X165037000Y-125849076D01*
X164991769Y-125621682D01*
X164903044Y-125407481D01*
X164774236Y-125214706D01*
X164610294Y-125050764D01*
X164417519Y-124921956D01*
X164203318Y-124833231D01*
X163975924Y-124788000D01*
X163744076Y-124788000D01*
X163516682Y-124833231D01*
X163302481Y-124921956D01*
X163109706Y-125050764D01*
X162945764Y-125214706D01*
X162816956Y-125407481D01*
X162728231Y-125621682D01*
X162683000Y-125849076D01*
X162497000Y-125849076D01*
X162451769Y-125621682D01*
X162363044Y-125407481D01*
X162234236Y-125214706D01*
X162070294Y-125050764D01*
X161877519Y-124921956D01*
X161663318Y-124833231D01*
X161435924Y-124788000D01*
X161204076Y-124788000D01*
X160976682Y-124833231D01*
X160762481Y-124921956D01*
X160569706Y-125050764D01*
X160405764Y-125214706D01*
X160276956Y-125407481D01*
X160188231Y-125621682D01*
X160143000Y-125849076D01*
X159957000Y-125849076D01*
X159911769Y-125621682D01*
X159823044Y-125407481D01*
X159694236Y-125214706D01*
X159530294Y-125050764D01*
X159337519Y-124921956D01*
X159123318Y-124833231D01*
X158895924Y-124788000D01*
X158664076Y-124788000D01*
X158436682Y-124833231D01*
X158222481Y-124921956D01*
X158029706Y-125050764D01*
X157865764Y-125214706D01*
X157736956Y-125407481D01*
X157648231Y-125621682D01*
X157603000Y-125849076D01*
X157417000Y-125849076D01*
X157371769Y-125621682D01*
X157283044Y-125407481D01*
X157154236Y-125214706D01*
X156990294Y-125050764D01*
X156797519Y-124921956D01*
X156583318Y-124833231D01*
X156355924Y-124788000D01*
X156124076Y-124788000D01*
X155896682Y-124833231D01*
X155682481Y-124921956D01*
X155489706Y-125050764D01*
X155325764Y-125214706D01*
X155196956Y-125407481D01*
X155108231Y-125621682D01*
X155063000Y-125849076D01*
X155063000Y-126080924D01*
X155108231Y-126308318D01*
X155196956Y-126522519D01*
X155325764Y-126715294D01*
X155489706Y-126879236D01*
X155663000Y-126995027D01*
X155663001Y-129011659D01*
X155660210Y-129040000D01*
X155671349Y-129153111D01*
X155704344Y-129261876D01*
X155757922Y-129362115D01*
X155788840Y-129399788D01*
X155811963Y-129427964D01*
X155811966Y-129427967D01*
X155830027Y-129449974D01*
X155852034Y-129468035D01*
X157871961Y-131487962D01*
X157890026Y-131509974D01*
X157977885Y-131582079D01*
X158078124Y-131635657D01*
X158122782Y-131649204D01*
X158186888Y-131668651D01*
X158244886Y-131674363D01*
X158271664Y-131677000D01*
X158271669Y-131677000D01*
X158300000Y-131679790D01*
X158328331Y-131677000D01*
X165571669Y-131677000D01*
X165600000Y-131679790D01*
X165628331Y-131677000D01*
X165628336Y-131677000D01*
X165658045Y-131674074D01*
X165713111Y-131668651D01*
X165757770Y-131655103D01*
X165821876Y-131635657D01*
X165922115Y-131582079D01*
X166009974Y-131509974D01*
X166028039Y-131487962D01*
X167787963Y-129728038D01*
X167809974Y-129709974D01*
X167882079Y-129622115D01*
X167935657Y-129521876D01*
X167968650Y-129413112D01*
X167977000Y-129328336D01*
X167977000Y-129328330D01*
X167979790Y-129300001D01*
X167977000Y-129271672D01*
X167977000Y-110828328D01*
X167979790Y-110799999D01*
X167977000Y-110771670D01*
X167977000Y-110771664D01*
X167968650Y-110686888D01*
X167935657Y-110578124D01*
X167882079Y-110477885D01*
X167809974Y-110390026D01*
X167787962Y-110371961D01*
X164188039Y-106772038D01*
X164169974Y-106750026D01*
X164082115Y-106677921D01*
X163981876Y-106624343D01*
X163917770Y-106604897D01*
X163873111Y-106591349D01*
X163818045Y-106585926D01*
X163788336Y-106583000D01*
X163788331Y-106583000D01*
X163760000Y-106580210D01*
X163731669Y-106583000D01*
X144978582Y-106583000D01*
X144978582Y-106310000D01*
X144972268Y-106245897D01*
X144953570Y-106184257D01*
X144923206Y-106127450D01*
X144882343Y-106077657D01*
X144832550Y-106036794D01*
X144775743Y-106006430D01*
X144714103Y-105987732D01*
X144650000Y-105981418D01*
X142950000Y-105981418D01*
X142885897Y-105987732D01*
X142824257Y-106006430D01*
X142767450Y-106036794D01*
X142717657Y-106077657D01*
X142676794Y-106127450D01*
X142646430Y-106184257D01*
X142627732Y-106245897D01*
X142621418Y-106310000D01*
X142621418Y-108010000D01*
X142627732Y-108074103D01*
X142646430Y-108135743D01*
X142676794Y-108192550D01*
X142717657Y-108242343D01*
X142767450Y-108283206D01*
X142824257Y-108313570D01*
X142885897Y-108332268D01*
X142950000Y-108338582D01*
X143217408Y-108338582D01*
X143168748Y-108355843D01*
X142918645Y-108504822D01*
X142702412Y-108699731D01*
X142528359Y-108933080D01*
X142403175Y-109195901D01*
X142358524Y-109343110D01*
X141077010Y-109343110D01*
X141077010Y-100424076D01*
X142623000Y-100424076D01*
X142623000Y-100655924D01*
X142668231Y-100883318D01*
X142756956Y-101097519D01*
X142885764Y-101290294D01*
X143049706Y-101454236D01*
X143242481Y-101583044D01*
X143456682Y-101671769D01*
X143684076Y-101717000D01*
X143915924Y-101717000D01*
X144143318Y-101671769D01*
X144357519Y-101583044D01*
X144550294Y-101454236D01*
X144714236Y-101290294D01*
X144843044Y-101097519D01*
X144931769Y-100883318D01*
X144977000Y-100655924D01*
X144977000Y-100424076D01*
X144931769Y-100196682D01*
X144843044Y-99982481D01*
X144714236Y-99789706D01*
X144550294Y-99625764D01*
X144357519Y-99496956D01*
X144143318Y-99408231D01*
X143915924Y-99363000D01*
X143684076Y-99363000D01*
X143456682Y-99408231D01*
X143242481Y-99496956D01*
X143049706Y-99625764D01*
X142885764Y-99789706D01*
X142756956Y-99982481D01*
X142668231Y-100196682D01*
X142623000Y-100424076D01*
X141077010Y-100424076D01*
X141077010Y-99538991D01*
X142039001Y-98577000D01*
X142621418Y-98577000D01*
X142621418Y-98850000D01*
X142627732Y-98914103D01*
X142646430Y-98975743D01*
X142676794Y-99032550D01*
X142717657Y-99082343D01*
X142767450Y-99123206D01*
X142824257Y-99153570D01*
X142885897Y-99172268D01*
X142950000Y-99178582D01*
X144650000Y-99178582D01*
X144714103Y-99172268D01*
X144775743Y-99153570D01*
X144832550Y-99123206D01*
X144882343Y-99082343D01*
X144923206Y-99032550D01*
X144953570Y-98975743D01*
X144972268Y-98914103D01*
X144978582Y-98850000D01*
X144978582Y-97150000D01*
X144972268Y-97085897D01*
X144953570Y-97024257D01*
X144923206Y-96967450D01*
X144882343Y-96917657D01*
X144832550Y-96876794D01*
X144775743Y-96846430D01*
X144714103Y-96827732D01*
X144650000Y-96821418D01*
X142950000Y-96821418D01*
X142885897Y-96827732D01*
X142824257Y-96846430D01*
X142767450Y-96876794D01*
X142717657Y-96917657D01*
X142676794Y-96967450D01*
X142646430Y-97024257D01*
X142627732Y-97085897D01*
X142621418Y-97150000D01*
X142621418Y-97423000D01*
X141828328Y-97423000D01*
X141799999Y-97420210D01*
X141771670Y-97423000D01*
X141771664Y-97423000D01*
X141686888Y-97431350D01*
X141578124Y-97464343D01*
X141477885Y-97517921D01*
X141390026Y-97590026D01*
X141371961Y-97612038D01*
X140247837Y-98736162D01*
X140209974Y-98690026D01*
X140187963Y-98671962D01*
X139028037Y-97512036D01*
X139009974Y-97490026D01*
X138922115Y-97417921D01*
X138821876Y-97364343D01*
X138757770Y-97344897D01*
X138713111Y-97331349D01*
X138658045Y-97325926D01*
X138628336Y-97323000D01*
X138628331Y-97323000D01*
X138600000Y-97320210D01*
X138571669Y-97323000D01*
X137878582Y-97323000D01*
X137878582Y-97050000D01*
X137872268Y-96985897D01*
X137853570Y-96924257D01*
X137823206Y-96867450D01*
X137782343Y-96817657D01*
X137732550Y-96776794D01*
X137675743Y-96746430D01*
X137614103Y-96727732D01*
X137550000Y-96721418D01*
X135850000Y-96721418D01*
X135785897Y-96727732D01*
X135724257Y-96746430D01*
X135667450Y-96776794D01*
X135617657Y-96817657D01*
X135576794Y-96867450D01*
X135546430Y-96924257D01*
X135527732Y-96985897D01*
X135521418Y-97050000D01*
X129766001Y-97050000D01*
X135538979Y-91277022D01*
X153351577Y-91277022D01*
X153379908Y-91279812D01*
X153408239Y-91277022D01*
X153408244Y-91277022D01*
X153437953Y-91274096D01*
X153493019Y-91268673D01*
X153537678Y-91255125D01*
X153601784Y-91235679D01*
X153702023Y-91182101D01*
X153789882Y-91109996D01*
X153807947Y-91087984D01*
X162387991Y-82507941D01*
X162409996Y-82489882D01*
X162482101Y-82402023D01*
X162535679Y-82301784D01*
X162568672Y-82193020D01*
X162577022Y-82108244D01*
X162577022Y-82108238D01*
X162579812Y-82079909D01*
X162577022Y-82051580D01*
X162577022Y-74548423D01*
X162579812Y-74520092D01*
X162568673Y-74406980D01*
X162544704Y-74327967D01*
X162535679Y-74298216D01*
X162482101Y-74197977D01*
X162409996Y-74110118D01*
X162387984Y-74092053D01*
X159807947Y-71512016D01*
X159789882Y-71490004D01*
X159702023Y-71417899D01*
X159601784Y-71364321D01*
X159537678Y-71344875D01*
X159493019Y-71331327D01*
X159437953Y-71325904D01*
X159408244Y-71322978D01*
X159408239Y-71322978D01*
X159379908Y-71320188D01*
X159351577Y-71322978D01*
X150128350Y-71322978D01*
X150100021Y-71320188D01*
X150071692Y-71322978D01*
X150071686Y-71322978D01*
X149986910Y-71331328D01*
X149878146Y-71364321D01*
X149777907Y-71417899D01*
X149732002Y-71455573D01*
X149712057Y-71471941D01*
X149712055Y-71471943D01*
X149690048Y-71490004D01*
X149671987Y-71512011D01*
X148232038Y-72951961D01*
X148210026Y-72970026D01*
X148137921Y-73057886D01*
X148084343Y-73158125D01*
X148081154Y-73168639D01*
X148051349Y-73266889D01*
X148040210Y-73380000D01*
X148043000Y-73408331D01*
X148043000Y-74127372D01*
X147869706Y-74243164D01*
X147705764Y-74407106D01*
X147576956Y-74599881D01*
X147488231Y-74814082D01*
X147443000Y-75041476D01*
X147443000Y-75273324D01*
X147488231Y-75500718D01*
X147576956Y-75714919D01*
X147705764Y-75907694D01*
X147869706Y-76071636D01*
X148062481Y-76200444D01*
X148276682Y-76289169D01*
X148504076Y-76334400D01*
X148735924Y-76334400D01*
X148963318Y-76289169D01*
X149177519Y-76200444D01*
X149370294Y-76071636D01*
X149534236Y-75907694D01*
X149663044Y-75714919D01*
X149751769Y-75500718D01*
X149797000Y-75273324D01*
X149797000Y-75041476D01*
X149751769Y-74814082D01*
X149663044Y-74599881D01*
X149534236Y-74407106D01*
X149370294Y-74243164D01*
X149197000Y-74127373D01*
X149197000Y-73619001D01*
X150339024Y-72476978D01*
X151407021Y-72476978D01*
X150772038Y-73111961D01*
X150750026Y-73130026D01*
X150677921Y-73217886D01*
X150624343Y-73318125D01*
X150614169Y-73351664D01*
X150591349Y-73426889D01*
X150585334Y-73487972D01*
X150584828Y-73493111D01*
X150580210Y-73540000D01*
X150583000Y-73568331D01*
X150583000Y-74127373D01*
X150409706Y-74243164D01*
X150245764Y-74407106D01*
X150116956Y-74599881D01*
X150028231Y-74814082D01*
X149983000Y-75041476D01*
X149983000Y-75273324D01*
X150028231Y-75500718D01*
X150116956Y-75714919D01*
X150245764Y-75907694D01*
X150409706Y-76071636D01*
X150602481Y-76200444D01*
X150816682Y-76289169D01*
X151044076Y-76334400D01*
X151275924Y-76334400D01*
X151503318Y-76289169D01*
X151717519Y-76200444D01*
X151910294Y-76071636D01*
X152074236Y-75907694D01*
X152203044Y-75714919D01*
X152291769Y-75500718D01*
X152337000Y-75273324D01*
X152337000Y-75041476D01*
X152291769Y-74814082D01*
X152203044Y-74599881D01*
X152074236Y-74407106D01*
X151910294Y-74243164D01*
X151737000Y-74127373D01*
X151737000Y-73779001D01*
X152339012Y-73176989D01*
X154864410Y-73176989D01*
X154062581Y-73978818D01*
X152850000Y-73978818D01*
X152785897Y-73985132D01*
X152724257Y-74003830D01*
X152667450Y-74034194D01*
X152617657Y-74075057D01*
X152576794Y-74124850D01*
X152546430Y-74181657D01*
X152527732Y-74243297D01*
X152521418Y-74307400D01*
X152521418Y-76007400D01*
X152527732Y-76071503D01*
X152546430Y-76133143D01*
X152576794Y-76189950D01*
X152617657Y-76239743D01*
X152667450Y-76280606D01*
X152724257Y-76310970D01*
X152785897Y-76329668D01*
X152850000Y-76335982D01*
X154550000Y-76335982D01*
X154614103Y-76329668D01*
X154675743Y-76310970D01*
X154732550Y-76280606D01*
X154782343Y-76239743D01*
X154823206Y-76189950D01*
X154853570Y-76133143D01*
X154872268Y-76071503D01*
X154878582Y-76007400D01*
X154878582Y-74794819D01*
X155796401Y-73877000D01*
X158560999Y-73877000D01*
X160023001Y-75339002D01*
X160023000Y-81260999D01*
X152560999Y-88723000D01*
X127628339Y-88723000D01*
X127600000Y-88720209D01*
X127486888Y-88731349D01*
X127422782Y-88750796D01*
X127378124Y-88764343D01*
X127277885Y-88817921D01*
X127190026Y-88890026D01*
X127171963Y-88912036D01*
X118760999Y-97323000D01*
X118028582Y-97323000D01*
X118028582Y-97050000D01*
X118022268Y-96985897D01*
X118003570Y-96924257D01*
X117973206Y-96867450D01*
X117932343Y-96817657D01*
X117882550Y-96776794D01*
X117825743Y-96746430D01*
X117764103Y-96727732D01*
X117700000Y-96721418D01*
X116000000Y-96721418D01*
X115935897Y-96727732D01*
X115874257Y-96746430D01*
X115817450Y-96776794D01*
X115767657Y-96817657D01*
X115726794Y-96867450D01*
X115696430Y-96924257D01*
X115677732Y-96985897D01*
X115671418Y-97050000D01*
X115124530Y-97050000D01*
X115060294Y-96985764D01*
X114867519Y-96856956D01*
X114653318Y-96768231D01*
X114425924Y-96723000D01*
X114194076Y-96723000D01*
X113966682Y-96768231D01*
X113752481Y-96856956D01*
X113559706Y-96985764D01*
X113395764Y-97149706D01*
X113266956Y-97342481D01*
X113178231Y-97556682D01*
X113133000Y-97784076D01*
X104852000Y-97784076D01*
X104852000Y-76855000D01*
X107817418Y-76855000D01*
X107817418Y-78555000D01*
X107823732Y-78619103D01*
X107842430Y-78680743D01*
X107872794Y-78737550D01*
X107913657Y-78787343D01*
X107963450Y-78828206D01*
X108020257Y-78858570D01*
X108081897Y-78877268D01*
X108146000Y-78883582D01*
X109846000Y-78883582D01*
X109910103Y-78877268D01*
X109971743Y-78858570D01*
X110028550Y-78828206D01*
X110078343Y-78787343D01*
X110119206Y-78737550D01*
X110149570Y-78680743D01*
X110168268Y-78619103D01*
X110174582Y-78555000D01*
X110174582Y-77589076D01*
X110359000Y-77589076D01*
X110359000Y-77820924D01*
X110404231Y-78048318D01*
X110492956Y-78262519D01*
X110621764Y-78455294D01*
X110785706Y-78619236D01*
X110978481Y-78748044D01*
X111192682Y-78836769D01*
X111420076Y-78882000D01*
X111651924Y-78882000D01*
X111879318Y-78836769D01*
X112093519Y-78748044D01*
X112286294Y-78619236D01*
X112450236Y-78455294D01*
X112579044Y-78262519D01*
X112667769Y-78048318D01*
X112713000Y-77820924D01*
X112713000Y-77589076D01*
X112899000Y-77589076D01*
X112899000Y-77820924D01*
X112944231Y-78048318D01*
X113032956Y-78262519D01*
X113161764Y-78455294D01*
X113325706Y-78619236D01*
X113518481Y-78748044D01*
X113732682Y-78836769D01*
X113960076Y-78882000D01*
X114191924Y-78882000D01*
X114419318Y-78836769D01*
X114633519Y-78748044D01*
X114826294Y-78619236D01*
X114990236Y-78455294D01*
X115119044Y-78262519D01*
X115207769Y-78048318D01*
X115253000Y-77820924D01*
X115253000Y-77589076D01*
X115439000Y-77589076D01*
X115439000Y-77820924D01*
X115484231Y-78048318D01*
X115572956Y-78262519D01*
X115701764Y-78455294D01*
X115865706Y-78619236D01*
X116058481Y-78748044D01*
X116272682Y-78836769D01*
X116500076Y-78882000D01*
X116731924Y-78882000D01*
X116959318Y-78836769D01*
X117173519Y-78748044D01*
X117366294Y-78619236D01*
X117530236Y-78455294D01*
X117659044Y-78262519D01*
X117747769Y-78048318D01*
X117793000Y-77820924D01*
X117793000Y-77589076D01*
X117979000Y-77589076D01*
X117979000Y-77820924D01*
X118024231Y-78048318D01*
X118112956Y-78262519D01*
X118241764Y-78455294D01*
X118405706Y-78619236D01*
X118598481Y-78748044D01*
X118812682Y-78836769D01*
X119040076Y-78882000D01*
X119271924Y-78882000D01*
X119499318Y-78836769D01*
X119713519Y-78748044D01*
X119906294Y-78619236D01*
X120070236Y-78455294D01*
X120199044Y-78262519D01*
X120287769Y-78048318D01*
X120333000Y-77820924D01*
X120333000Y-77589076D01*
X120519000Y-77589076D01*
X120519000Y-77820924D01*
X120564231Y-78048318D01*
X120652956Y-78262519D01*
X120781764Y-78455294D01*
X120945706Y-78619236D01*
X121138481Y-78748044D01*
X121352682Y-78836769D01*
X121580076Y-78882000D01*
X121811924Y-78882000D01*
X122039318Y-78836769D01*
X122253519Y-78748044D01*
X122446294Y-78619236D01*
X122610236Y-78455294D01*
X122739044Y-78262519D01*
X122827769Y-78048318D01*
X122873000Y-77820924D01*
X122873000Y-77589076D01*
X123059000Y-77589076D01*
X123059000Y-77820924D01*
X123104231Y-78048318D01*
X123192956Y-78262519D01*
X123321764Y-78455294D01*
X123485706Y-78619236D01*
X123678481Y-78748044D01*
X123892682Y-78836769D01*
X124120076Y-78882000D01*
X124351924Y-78882000D01*
X124579318Y-78836769D01*
X124793519Y-78748044D01*
X124986294Y-78619236D01*
X125150236Y-78455294D01*
X125279044Y-78262519D01*
X125367769Y-78048318D01*
X125413000Y-77820924D01*
X125413000Y-77589076D01*
X125599000Y-77589076D01*
X125599000Y-77820924D01*
X125644231Y-78048318D01*
X125732956Y-78262519D01*
X125861764Y-78455294D01*
X126025706Y-78619236D01*
X126218481Y-78748044D01*
X126432682Y-78836769D01*
X126660076Y-78882000D01*
X126891924Y-78882000D01*
X127119318Y-78836769D01*
X127333519Y-78748044D01*
X127526294Y-78619236D01*
X127690236Y-78455294D01*
X127819044Y-78262519D01*
X127907769Y-78048318D01*
X127953000Y-77820924D01*
X127953000Y-77589076D01*
X128139000Y-77589076D01*
X128139000Y-77820924D01*
X128184231Y-78048318D01*
X128272956Y-78262519D01*
X128401764Y-78455294D01*
X128565706Y-78619236D01*
X128758481Y-78748044D01*
X128972682Y-78836769D01*
X129200076Y-78882000D01*
X129431924Y-78882000D01*
X129659318Y-78836769D01*
X129873519Y-78748044D01*
X130066294Y-78619236D01*
X130230236Y-78455294D01*
X130359044Y-78262519D01*
X130447769Y-78048318D01*
X130493000Y-77820924D01*
X130493000Y-77589076D01*
X130679000Y-77589076D01*
X130679000Y-77820924D01*
X130724231Y-78048318D01*
X130812956Y-78262519D01*
X130941764Y-78455294D01*
X131105706Y-78619236D01*
X131298481Y-78748044D01*
X131512682Y-78836769D01*
X131740076Y-78882000D01*
X131971924Y-78882000D01*
X132199318Y-78836769D01*
X132413519Y-78748044D01*
X132606294Y-78619236D01*
X132770236Y-78455294D01*
X132899044Y-78262519D01*
X132987769Y-78048318D01*
X133033000Y-77820924D01*
X133033000Y-77589076D01*
X132987769Y-77361682D01*
X132899044Y-77147481D01*
X132770236Y-76954706D01*
X132606294Y-76790764D01*
X132413519Y-76661956D01*
X132199318Y-76573231D01*
X131971924Y-76528000D01*
X131740076Y-76528000D01*
X131512682Y-76573231D01*
X131298481Y-76661956D01*
X131105706Y-76790764D01*
X130941764Y-76954706D01*
X130812956Y-77147481D01*
X130724231Y-77361682D01*
X130679000Y-77589076D01*
X130493000Y-77589076D01*
X130447769Y-77361682D01*
X130359044Y-77147481D01*
X130230236Y-76954706D01*
X130066294Y-76790764D01*
X129873519Y-76661956D01*
X129659318Y-76573231D01*
X129431924Y-76528000D01*
X129200076Y-76528000D01*
X128972682Y-76573231D01*
X128758481Y-76661956D01*
X128565706Y-76790764D01*
X128401764Y-76954706D01*
X128272956Y-77147481D01*
X128184231Y-77361682D01*
X128139000Y-77589076D01*
X127953000Y-77589076D01*
X127907769Y-77361682D01*
X127819044Y-77147481D01*
X127690236Y-76954706D01*
X127526294Y-76790764D01*
X127333519Y-76661956D01*
X127119318Y-76573231D01*
X126891924Y-76528000D01*
X126660076Y-76528000D01*
X126432682Y-76573231D01*
X126218481Y-76661956D01*
X126025706Y-76790764D01*
X125861764Y-76954706D01*
X125732956Y-77147481D01*
X125644231Y-77361682D01*
X125599000Y-77589076D01*
X125413000Y-77589076D01*
X125367769Y-77361682D01*
X125279044Y-77147481D01*
X125150236Y-76954706D01*
X124986294Y-76790764D01*
X124793519Y-76661956D01*
X124579318Y-76573231D01*
X124351924Y-76528000D01*
X124120076Y-76528000D01*
X123892682Y-76573231D01*
X123678481Y-76661956D01*
X123485706Y-76790764D01*
X123321764Y-76954706D01*
X123192956Y-77147481D01*
X123104231Y-77361682D01*
X123059000Y-77589076D01*
X122873000Y-77589076D01*
X122827769Y-77361682D01*
X122739044Y-77147481D01*
X122610236Y-76954706D01*
X122446294Y-76790764D01*
X122253519Y-76661956D01*
X122039318Y-76573231D01*
X121811924Y-76528000D01*
X121580076Y-76528000D01*
X121352682Y-76573231D01*
X121138481Y-76661956D01*
X120945706Y-76790764D01*
X120781764Y-76954706D01*
X120652956Y-77147481D01*
X120564231Y-77361682D01*
X120519000Y-77589076D01*
X120333000Y-77589076D01*
X120287769Y-77361682D01*
X120199044Y-77147481D01*
X120070236Y-76954706D01*
X119906294Y-76790764D01*
X119713519Y-76661956D01*
X119499318Y-76573231D01*
X119271924Y-76528000D01*
X119040076Y-76528000D01*
X118812682Y-76573231D01*
X118598481Y-76661956D01*
X118405706Y-76790764D01*
X118241764Y-76954706D01*
X118112956Y-77147481D01*
X118024231Y-77361682D01*
X117979000Y-77589076D01*
X117793000Y-77589076D01*
X117747769Y-77361682D01*
X117659044Y-77147481D01*
X117530236Y-76954706D01*
X117366294Y-76790764D01*
X117173519Y-76661956D01*
X116959318Y-76573231D01*
X116731924Y-76528000D01*
X116500076Y-76528000D01*
X116272682Y-76573231D01*
X116058481Y-76661956D01*
X115865706Y-76790764D01*
X115701764Y-76954706D01*
X115572956Y-77147481D01*
X115484231Y-77361682D01*
X115439000Y-77589076D01*
X115253000Y-77589076D01*
X115207769Y-77361682D01*
X115119044Y-77147481D01*
X114990236Y-76954706D01*
X114826294Y-76790764D01*
X114633519Y-76661956D01*
X114419318Y-76573231D01*
X114191924Y-76528000D01*
X113960076Y-76528000D01*
X113732682Y-76573231D01*
X113518481Y-76661956D01*
X113325706Y-76790764D01*
X113161764Y-76954706D01*
X113032956Y-77147481D01*
X112944231Y-77361682D01*
X112899000Y-77589076D01*
X112713000Y-77589076D01*
X112667769Y-77361682D01*
X112579044Y-77147481D01*
X112450236Y-76954706D01*
X112286294Y-76790764D01*
X112093519Y-76661956D01*
X111879318Y-76573231D01*
X111651924Y-76528000D01*
X111420076Y-76528000D01*
X111192682Y-76573231D01*
X110978481Y-76661956D01*
X110785706Y-76790764D01*
X110621764Y-76954706D01*
X110492956Y-77147481D01*
X110404231Y-77361682D01*
X110359000Y-77589076D01*
X110174582Y-77589076D01*
X110174582Y-76855000D01*
X110168268Y-76790897D01*
X110149570Y-76729257D01*
X110119206Y-76672450D01*
X110078343Y-76622657D01*
X110028550Y-76581794D01*
X109971743Y-76551430D01*
X109910103Y-76532732D01*
X109846000Y-76526418D01*
X108146000Y-76526418D01*
X108081897Y-76532732D01*
X108020257Y-76551430D01*
X107963450Y-76581794D01*
X107913657Y-76622657D01*
X107872794Y-76672450D01*
X107842430Y-76729257D01*
X107823732Y-76790897D01*
X107817418Y-76855000D01*
X104852000Y-76855000D01*
X104852000Y-75852000D01*
X133682708Y-75852000D01*
X133700000Y-75853703D01*
X133717291Y-75852000D01*
X133717292Y-75852000D01*
X133769004Y-75846907D01*
X133835356Y-75826779D01*
X133896507Y-75794093D01*
X133950106Y-75750106D01*
X133994093Y-75696507D01*
X134026779Y-75635356D01*
X134046907Y-75569004D01*
X134052295Y-75514291D01*
X134478519Y-75514291D01*
X134575843Y-75788652D01*
X134724822Y-76038755D01*
X134919731Y-76254988D01*
X135153080Y-76429041D01*
X135415901Y-76554225D01*
X135563110Y-76598876D01*
X135793000Y-76477555D01*
X135793000Y-75284400D01*
X134599186Y-75284400D01*
X134478519Y-75514291D01*
X134052295Y-75514291D01*
X134053703Y-75500000D01*
X134052000Y-75482708D01*
X134052000Y-74800509D01*
X134478519Y-74800509D01*
X134599186Y-75030400D01*
X135793000Y-75030400D01*
X135793000Y-73837245D01*
X136047000Y-73837245D01*
X136047000Y-75030400D01*
X136067000Y-75030400D01*
X136067000Y-75284400D01*
X136047000Y-75284400D01*
X136047000Y-76477555D01*
X136276890Y-76598876D01*
X136424099Y-76554225D01*
X136686920Y-76429041D01*
X136920269Y-76254988D01*
X137115178Y-76038755D01*
X137264157Y-75788652D01*
X137348736Y-75550221D01*
X137416956Y-75714919D01*
X137545764Y-75907694D01*
X137709706Y-76071636D01*
X137902481Y-76200444D01*
X138116682Y-76289169D01*
X138344076Y-76334400D01*
X138575924Y-76334400D01*
X138803318Y-76289169D01*
X139017519Y-76200444D01*
X139210294Y-76071636D01*
X139374236Y-75907694D01*
X139503044Y-75714919D01*
X139591769Y-75500718D01*
X139637000Y-75273324D01*
X139637000Y-75041476D01*
X139823000Y-75041476D01*
X139823000Y-75273324D01*
X139868231Y-75500718D01*
X139956956Y-75714919D01*
X140085764Y-75907694D01*
X140249706Y-76071636D01*
X140442481Y-76200444D01*
X140656682Y-76289169D01*
X140884076Y-76334400D01*
X141115924Y-76334400D01*
X141343318Y-76289169D01*
X141557519Y-76200444D01*
X141750294Y-76071636D01*
X141914236Y-75907694D01*
X142043044Y-75714919D01*
X142131769Y-75500718D01*
X142177000Y-75273324D01*
X142177000Y-75041476D01*
X142363000Y-75041476D01*
X142363000Y-75273324D01*
X142408231Y-75500718D01*
X142496956Y-75714919D01*
X142625764Y-75907694D01*
X142789706Y-76071636D01*
X142982481Y-76200444D01*
X143196682Y-76289169D01*
X143424076Y-76334400D01*
X143655924Y-76334400D01*
X143883318Y-76289169D01*
X144097519Y-76200444D01*
X144290294Y-76071636D01*
X144454236Y-75907694D01*
X144583044Y-75714919D01*
X144671769Y-75500718D01*
X144717000Y-75273324D01*
X144717000Y-75041476D01*
X144903000Y-75041476D01*
X144903000Y-75273324D01*
X144948231Y-75500718D01*
X145036956Y-75714919D01*
X145165764Y-75907694D01*
X145329706Y-76071636D01*
X145522481Y-76200444D01*
X145736682Y-76289169D01*
X145964076Y-76334400D01*
X146195924Y-76334400D01*
X146423318Y-76289169D01*
X146637519Y-76200444D01*
X146830294Y-76071636D01*
X146994236Y-75907694D01*
X147123044Y-75714919D01*
X147211769Y-75500718D01*
X147257000Y-75273324D01*
X147257000Y-75041476D01*
X147211769Y-74814082D01*
X147123044Y-74599881D01*
X146994236Y-74407106D01*
X146830294Y-74243164D01*
X146637519Y-74114356D01*
X146423318Y-74025631D01*
X146195924Y-73980400D01*
X145964076Y-73980400D01*
X145736682Y-74025631D01*
X145522481Y-74114356D01*
X145329706Y-74243164D01*
X145165764Y-74407106D01*
X145036956Y-74599881D01*
X144948231Y-74814082D01*
X144903000Y-75041476D01*
X144717000Y-75041476D01*
X144671769Y-74814082D01*
X144583044Y-74599881D01*
X144454236Y-74407106D01*
X144290294Y-74243164D01*
X144097519Y-74114356D01*
X143883318Y-74025631D01*
X143655924Y-73980400D01*
X143424076Y-73980400D01*
X143196682Y-74025631D01*
X142982481Y-74114356D01*
X142789706Y-74243164D01*
X142625764Y-74407106D01*
X142496956Y-74599881D01*
X142408231Y-74814082D01*
X142363000Y-75041476D01*
X142177000Y-75041476D01*
X142131769Y-74814082D01*
X142043044Y-74599881D01*
X141914236Y-74407106D01*
X141750294Y-74243164D01*
X141557519Y-74114356D01*
X141343318Y-74025631D01*
X141115924Y-73980400D01*
X140884076Y-73980400D01*
X140656682Y-74025631D01*
X140442481Y-74114356D01*
X140249706Y-74243164D01*
X140085764Y-74407106D01*
X139956956Y-74599881D01*
X139868231Y-74814082D01*
X139823000Y-75041476D01*
X139637000Y-75041476D01*
X139591769Y-74814082D01*
X139503044Y-74599881D01*
X139374236Y-74407106D01*
X139210294Y-74243164D01*
X139017519Y-74114356D01*
X138803318Y-74025631D01*
X138575924Y-73980400D01*
X138344076Y-73980400D01*
X138116682Y-74025631D01*
X137902481Y-74114356D01*
X137709706Y-74243164D01*
X137545764Y-74407106D01*
X137416956Y-74599881D01*
X137348736Y-74764579D01*
X137264157Y-74526148D01*
X137115178Y-74276045D01*
X136920269Y-74059812D01*
X136686920Y-73885759D01*
X136424099Y-73760575D01*
X136276890Y-73715924D01*
X136047000Y-73837245D01*
X135793000Y-73837245D01*
X135563110Y-73715924D01*
X135415901Y-73760575D01*
X135153080Y-73885759D01*
X134919731Y-74059812D01*
X134724822Y-74276045D01*
X134575843Y-74526148D01*
X134478519Y-74800509D01*
X134052000Y-74800509D01*
X134052000Y-70852000D01*
X180048001Y-70852000D01*
X180048000Y-134148000D01*
G37*
G04 #@! TD.AperFunction*
M02*
