G04 #@! TF.GenerationSoftware,KiCad,Pcbnew,(5.1.10)-1*
G04 #@! TF.CreationDate,2022-01-31T14:32:23+01:00*
G04 #@! TF.ProjectId,psoc_shield,70736f63-5f73-4686-9965-6c642e6b6963,rev?*
G04 #@! TF.SameCoordinates,Original*
G04 #@! TF.FileFunction,Copper,L1,Top*
G04 #@! TF.FilePolarity,Positive*
%FSLAX46Y46*%
G04 Gerber Fmt 4.6, Leading zero omitted, Abs format (unit mm)*
G04 Created by KiCad (PCBNEW (5.1.10)-1) date 2022-01-31 14:32:23*
%MOMM*%
%LPD*%
G01*
G04 APERTURE LIST*
G04 #@! TA.AperFunction,ComponentPad*
%ADD10O,1.700000X1.700000*%
G04 #@! TD*
G04 #@! TA.AperFunction,ComponentPad*
%ADD11R,1.700000X1.700000*%
G04 #@! TD*
G04 #@! TA.AperFunction,SMDPad,CuDef*
%ADD12R,0.800000X0.300000*%
G04 #@! TD*
G04 #@! TA.AperFunction,SMDPad,CuDef*
%ADD13R,0.800000X0.400000*%
G04 #@! TD*
G04 #@! TA.AperFunction,Conductor*
%ADD14C,1.000000*%
G04 #@! TD*
G04 #@! TA.AperFunction,Conductor*
%ADD15C,0.200000*%
G04 #@! TD*
G04 #@! TA.AperFunction,Conductor*
%ADD16C,0.500000*%
G04 #@! TD*
G04 #@! TA.AperFunction,Conductor*
%ADD17C,0.254000*%
G04 #@! TD*
G04 #@! TA.AperFunction,Conductor*
%ADD18C,0.100000*%
G04 #@! TD*
G04 APERTURE END LIST*
D10*
X143800000Y-109700000D03*
D11*
X143800000Y-107160000D03*
D10*
X143800000Y-100540000D03*
D11*
X143800000Y-98000000D03*
D10*
X136600000Y-109500000D03*
D11*
X136600000Y-106960000D03*
D10*
X136700000Y-100440000D03*
D11*
X136700000Y-97900000D03*
D12*
X163700000Y-103450000D03*
X163700000Y-102950000D03*
X163700000Y-102450000D03*
X163700000Y-101950000D03*
X163700000Y-101450000D03*
X163700000Y-100950000D03*
X163700000Y-100450000D03*
X163700000Y-99950000D03*
X163700000Y-99450000D03*
X163700000Y-98950000D03*
X163700000Y-98450000D03*
X163700000Y-97950000D03*
X163700000Y-97450000D03*
X163700000Y-96950000D03*
X163700000Y-96450000D03*
X163700000Y-95950000D03*
D13*
X166200000Y-104450000D03*
X166200000Y-94950000D03*
D10*
X114360000Y-107200000D03*
D11*
X116900000Y-107200000D03*
D10*
X114310000Y-102500000D03*
D11*
X116850000Y-102500000D03*
D10*
X114310000Y-97900000D03*
D11*
X116850000Y-97900000D03*
D10*
X135920000Y-75157400D03*
X138460000Y-75157400D03*
X141000000Y-75157400D03*
X143540000Y-75157400D03*
X146080000Y-75157400D03*
X148620000Y-75157400D03*
X151160000Y-75157400D03*
D11*
X153700000Y-75157400D03*
X108996000Y-77705000D03*
D10*
X111536000Y-77705000D03*
X114076000Y-77705000D03*
X116616000Y-77705000D03*
X119156000Y-77705000D03*
X121696000Y-77705000D03*
X124236000Y-77705000D03*
X126776000Y-77705000D03*
X129316000Y-77705000D03*
X131856000Y-77705000D03*
D11*
X118140000Y-125965000D03*
D10*
X120680000Y-125965000D03*
X123220000Y-125965000D03*
X125760000Y-125965000D03*
X128300000Y-125965000D03*
X130840000Y-125965000D03*
X133380000Y-125965000D03*
X135920000Y-125965000D03*
X163860000Y-125965000D03*
X163860000Y-123425000D03*
X161320000Y-125965000D03*
X161320000Y-123425000D03*
X158780000Y-125965000D03*
X158780000Y-123425000D03*
X156240000Y-125965000D03*
X156240000Y-123425000D03*
X153700000Y-125965000D03*
X153700000Y-123425000D03*
X151160000Y-125965000D03*
X151160000Y-123425000D03*
X148620000Y-125965000D03*
X148620000Y-123425000D03*
X146080000Y-125965000D03*
X146080000Y-123425000D03*
X143540000Y-125965000D03*
X143540000Y-123425000D03*
X141000000Y-125965000D03*
D11*
X141000000Y-123425000D03*
D14*
X125760000Y-125965000D02*
X125760000Y-122460000D01*
X125760000Y-122460000D02*
X114360000Y-111060000D01*
X114310000Y-97900000D02*
X114310000Y-102500000D01*
X114360000Y-111060000D02*
X114360000Y-107200000D01*
X114360000Y-102550000D02*
X114310000Y-102500000D01*
X114360000Y-107200000D02*
X114360000Y-102550000D01*
D15*
X163860000Y-127760000D02*
X163860000Y-125965000D01*
X165000000Y-128900000D02*
X163860000Y-127760000D01*
X168000000Y-128900000D02*
X165000000Y-128900000D01*
X169700000Y-127200000D02*
X168000000Y-128900000D01*
X169700000Y-104600000D02*
X169700000Y-127200000D01*
X168550000Y-103450000D02*
X169700000Y-104600000D01*
X163700000Y-103450000D02*
X168550000Y-103450000D01*
X161320000Y-127720000D02*
X161320000Y-125965000D01*
X162900000Y-129300000D02*
X161320000Y-127720000D01*
X168165699Y-129300000D02*
X162900000Y-129300000D01*
X170100010Y-127365689D02*
X168165699Y-129300000D01*
X170100010Y-104434311D02*
X170100010Y-127365689D01*
X168615698Y-102950000D02*
X170100010Y-104434311D01*
X163700000Y-102950000D02*
X168615698Y-102950000D01*
X160750010Y-129700010D02*
X158780000Y-127730000D01*
X158780000Y-127730000D02*
X158780000Y-125965000D01*
X168331388Y-129700010D02*
X160750010Y-129700010D01*
X170500020Y-127531378D02*
X168331388Y-129700010D01*
X170500020Y-104268622D02*
X170500020Y-127531378D01*
X168681397Y-102450000D02*
X170500020Y-104268622D01*
X163700000Y-102450000D02*
X168681397Y-102450000D01*
X151100000Y-126025000D02*
X151160000Y-125965000D01*
X151100000Y-127800000D02*
X151100000Y-126025000D01*
X168497077Y-130100020D02*
X153400020Y-130100020D01*
X170900030Y-127697067D02*
X168497077Y-130100020D01*
X170900030Y-104102933D02*
X170900030Y-127697067D01*
X153400020Y-130100020D02*
X151100000Y-127800000D01*
X168747097Y-101950000D02*
X170900030Y-104102933D01*
X163700000Y-101950000D02*
X168747097Y-101950000D01*
X171300040Y-127862756D02*
X168662766Y-130500030D01*
X148620000Y-127820000D02*
X148620000Y-125965000D01*
X171300040Y-103937244D02*
X171300040Y-127862756D01*
X168812795Y-101450000D02*
X171300040Y-103937244D01*
X151300030Y-130500030D02*
X148620000Y-127820000D01*
X168662766Y-130500030D02*
X151300030Y-130500030D01*
X163700000Y-101450000D02*
X168812795Y-101450000D01*
X146080000Y-127780000D02*
X146080000Y-125965000D01*
X149200040Y-130900040D02*
X146080000Y-127780000D01*
X168828455Y-130900040D02*
X149200040Y-130900040D01*
X171700050Y-103771555D02*
X171700050Y-128028445D01*
X168878495Y-100950000D02*
X171700050Y-103771555D01*
X171700050Y-128028445D02*
X168828455Y-130900040D01*
X163700000Y-100950000D02*
X168878495Y-100950000D01*
X147100050Y-131300050D02*
X143540000Y-127740000D01*
X168994144Y-131300050D02*
X147100050Y-131300050D01*
X172100060Y-128194134D02*
X168994144Y-131300050D01*
X172100060Y-103605866D02*
X172100060Y-128194134D01*
X143540000Y-127740000D02*
X143540000Y-125965000D01*
X168944194Y-100450000D02*
X172100060Y-103605866D01*
X163700000Y-100450000D02*
X168944194Y-100450000D01*
X138460000Y-73540000D02*
X138460000Y-75157400D01*
X139900000Y-72100000D02*
X138460000Y-73540000D01*
X169000000Y-72100000D02*
X139900000Y-72100000D01*
X170700000Y-73800000D02*
X169000000Y-72100000D01*
X170700000Y-97800000D02*
X170700000Y-73800000D01*
X169050000Y-99450000D02*
X170700000Y-97800000D01*
X163700000Y-99450000D02*
X169050000Y-99450000D01*
X163860000Y-121060000D02*
X163860000Y-123425000D01*
X162600000Y-119800000D02*
X163860000Y-121060000D01*
X160700000Y-119800000D02*
X162600000Y-119800000D01*
X159580021Y-118680021D02*
X160700000Y-119800000D01*
X161750000Y-98950000D02*
X159580021Y-101119979D01*
X159580021Y-101119979D02*
X159580021Y-118680021D01*
X163700000Y-98950000D02*
X161750000Y-98950000D01*
X161300000Y-123405000D02*
X161320000Y-123425000D01*
X161320000Y-121020000D02*
X161320000Y-123425000D01*
X159180010Y-100954290D02*
X159180010Y-118880010D01*
X159180010Y-118880010D02*
X161320000Y-121020000D01*
X161684300Y-98450000D02*
X159180010Y-100954290D01*
X163700000Y-98450000D02*
X161684300Y-98450000D01*
X163700000Y-97950000D02*
X161550000Y-97950000D01*
X158780000Y-100720000D02*
X158780000Y-123425000D01*
X161550000Y-97950000D02*
X158780000Y-100720000D01*
X153700000Y-121100000D02*
X153700000Y-123425000D01*
X154700000Y-120100000D02*
X153700000Y-121100000D01*
X156900000Y-120100000D02*
X154700000Y-120100000D01*
X161484300Y-97450000D02*
X158379990Y-100554311D01*
X158379990Y-118620010D02*
X156900000Y-120100000D01*
X158379990Y-100554311D02*
X158379990Y-118620010D01*
X163700000Y-97450000D02*
X161484300Y-97450000D01*
X151160000Y-120840000D02*
X151160000Y-123425000D01*
X152300010Y-119699990D02*
X151160000Y-120840000D01*
X156734312Y-119699990D02*
X152300010Y-119699990D01*
X157979979Y-118454323D02*
X156734312Y-119699990D01*
X157979979Y-100388622D02*
X157979979Y-118454323D01*
X161418600Y-96950000D02*
X157979979Y-100388622D01*
X163700000Y-96950000D02*
X161418600Y-96950000D01*
X143600000Y-123365000D02*
X143540000Y-123425000D01*
X145200020Y-119299980D02*
X143540000Y-120960000D01*
X143540000Y-120960000D02*
X143540000Y-123425000D01*
X156568624Y-119299980D02*
X145200020Y-119299980D01*
X157579968Y-118288636D02*
X156568624Y-119299980D01*
X161352900Y-96450000D02*
X157579968Y-100222933D01*
X157579968Y-100222933D02*
X157579968Y-118288636D01*
X163700000Y-96450000D02*
X161352900Y-96450000D01*
D16*
X143800000Y-107160000D02*
X143800000Y-100540000D01*
X136600000Y-100540000D02*
X136700000Y-100440000D01*
X136600000Y-106960000D02*
X136600000Y-100540000D01*
D15*
X141000000Y-127800000D02*
X141000000Y-125965000D01*
X144900060Y-131700060D02*
X141000000Y-127800000D01*
X169159833Y-131700060D02*
X144900060Y-131700060D01*
X172500070Y-128359823D02*
X169159833Y-131700060D01*
X172500070Y-103440177D02*
X172500070Y-128359823D01*
X169009893Y-99950000D02*
X172500070Y-103440177D01*
X163700000Y-99950000D02*
X169009893Y-99950000D01*
X141000000Y-120800000D02*
X141000000Y-123425000D01*
X142900030Y-118899970D02*
X141000000Y-120800000D01*
X156400030Y-118899970D02*
X142900030Y-118899970D01*
X157179957Y-118120043D02*
X156400030Y-118899970D01*
X157179957Y-100057244D02*
X157179957Y-118120043D01*
X161287200Y-95950000D02*
X157179957Y-100057244D01*
X163700000Y-95950000D02*
X161287200Y-95950000D01*
D17*
X180048000Y-134148000D02*
X104852000Y-134148000D01*
X104852000Y-125115000D01*
X116961418Y-125115000D01*
X116961418Y-126815000D01*
X116967732Y-126879103D01*
X116986430Y-126940743D01*
X117016794Y-126997550D01*
X117057657Y-127047343D01*
X117107450Y-127088206D01*
X117164257Y-127118570D01*
X117225897Y-127137268D01*
X117290000Y-127143582D01*
X118990000Y-127143582D01*
X119054103Y-127137268D01*
X119115743Y-127118570D01*
X119172550Y-127088206D01*
X119222343Y-127047343D01*
X119263206Y-126997550D01*
X119293570Y-126940743D01*
X119312268Y-126879103D01*
X119318582Y-126815000D01*
X119318582Y-125849076D01*
X119503000Y-125849076D01*
X119503000Y-126080924D01*
X119548231Y-126308318D01*
X119636956Y-126522519D01*
X119765764Y-126715294D01*
X119929706Y-126879236D01*
X120122481Y-127008044D01*
X120336682Y-127096769D01*
X120564076Y-127142000D01*
X120795924Y-127142000D01*
X121023318Y-127096769D01*
X121237519Y-127008044D01*
X121430294Y-126879236D01*
X121594236Y-126715294D01*
X121723044Y-126522519D01*
X121811769Y-126308318D01*
X121857000Y-126080924D01*
X121857000Y-125849076D01*
X122043000Y-125849076D01*
X122043000Y-126080924D01*
X122088231Y-126308318D01*
X122176956Y-126522519D01*
X122305764Y-126715294D01*
X122469706Y-126879236D01*
X122662481Y-127008044D01*
X122876682Y-127096769D01*
X123104076Y-127142000D01*
X123335924Y-127142000D01*
X123563318Y-127096769D01*
X123777519Y-127008044D01*
X123970294Y-126879236D01*
X124134236Y-126715294D01*
X124263044Y-126522519D01*
X124351769Y-126308318D01*
X124397000Y-126080924D01*
X124397000Y-125849076D01*
X124351769Y-125621682D01*
X124263044Y-125407481D01*
X124134236Y-125214706D01*
X123970294Y-125050764D01*
X123777519Y-124921956D01*
X123563318Y-124833231D01*
X123335924Y-124788000D01*
X123104076Y-124788000D01*
X122876682Y-124833231D01*
X122662481Y-124921956D01*
X122469706Y-125050764D01*
X122305764Y-125214706D01*
X122176956Y-125407481D01*
X122088231Y-125621682D01*
X122043000Y-125849076D01*
X121857000Y-125849076D01*
X121811769Y-125621682D01*
X121723044Y-125407481D01*
X121594236Y-125214706D01*
X121430294Y-125050764D01*
X121237519Y-124921956D01*
X121023318Y-124833231D01*
X120795924Y-124788000D01*
X120564076Y-124788000D01*
X120336682Y-124833231D01*
X120122481Y-124921956D01*
X119929706Y-125050764D01*
X119765764Y-125214706D01*
X119636956Y-125407481D01*
X119548231Y-125621682D01*
X119503000Y-125849076D01*
X119318582Y-125849076D01*
X119318582Y-125115000D01*
X119312268Y-125050897D01*
X119293570Y-124989257D01*
X119263206Y-124932450D01*
X119222343Y-124882657D01*
X119172550Y-124841794D01*
X119115743Y-124811430D01*
X119054103Y-124792732D01*
X118990000Y-124786418D01*
X117290000Y-124786418D01*
X117225897Y-124792732D01*
X117164257Y-124811430D01*
X117107450Y-124841794D01*
X117057657Y-124882657D01*
X117016794Y-124932450D01*
X116986430Y-124989257D01*
X116967732Y-125050897D01*
X116961418Y-125115000D01*
X104852000Y-125115000D01*
X104852000Y-97784076D01*
X113133000Y-97784076D01*
X113133000Y-98015924D01*
X113178231Y-98243318D01*
X113266956Y-98457519D01*
X113395764Y-98650294D01*
X113483000Y-98737530D01*
X113483001Y-101662469D01*
X113395764Y-101749706D01*
X113266956Y-101942481D01*
X113178231Y-102156682D01*
X113133000Y-102384076D01*
X113133000Y-102615924D01*
X113178231Y-102843318D01*
X113266956Y-103057519D01*
X113395764Y-103250294D01*
X113533001Y-103387531D01*
X113533000Y-106362470D01*
X113445764Y-106449706D01*
X113316956Y-106642481D01*
X113228231Y-106856682D01*
X113183000Y-107084076D01*
X113183000Y-107315924D01*
X113228231Y-107543318D01*
X113316956Y-107757519D01*
X113445764Y-107950294D01*
X113533001Y-108037531D01*
X113533000Y-111019386D01*
X113529000Y-111060000D01*
X113533000Y-111100614D01*
X113533000Y-111100623D01*
X113544966Y-111222119D01*
X113592255Y-111378009D01*
X113592256Y-111378010D01*
X113669048Y-111521679D01*
X113720725Y-111584647D01*
X113772394Y-111647606D01*
X113803952Y-111673505D01*
X124933001Y-122802556D01*
X124933000Y-125127470D01*
X124845764Y-125214706D01*
X124716956Y-125407481D01*
X124628231Y-125621682D01*
X124583000Y-125849076D01*
X124583000Y-126080924D01*
X124628231Y-126308318D01*
X124716956Y-126522519D01*
X124845764Y-126715294D01*
X125009706Y-126879236D01*
X125202481Y-127008044D01*
X125416682Y-127096769D01*
X125644076Y-127142000D01*
X125875924Y-127142000D01*
X126103318Y-127096769D01*
X126317519Y-127008044D01*
X126510294Y-126879236D01*
X126674236Y-126715294D01*
X126803044Y-126522519D01*
X126891769Y-126308318D01*
X126937000Y-126080924D01*
X126937000Y-125849076D01*
X127123000Y-125849076D01*
X127123000Y-126080924D01*
X127168231Y-126308318D01*
X127256956Y-126522519D01*
X127385764Y-126715294D01*
X127549706Y-126879236D01*
X127742481Y-127008044D01*
X127956682Y-127096769D01*
X128184076Y-127142000D01*
X128415924Y-127142000D01*
X128643318Y-127096769D01*
X128857519Y-127008044D01*
X129050294Y-126879236D01*
X129214236Y-126715294D01*
X129343044Y-126522519D01*
X129411264Y-126357821D01*
X129495843Y-126596252D01*
X129644822Y-126846355D01*
X129839731Y-127062588D01*
X130073080Y-127236641D01*
X130335901Y-127361825D01*
X130483110Y-127406476D01*
X130713000Y-127285155D01*
X130713000Y-126092000D01*
X130693000Y-126092000D01*
X130693000Y-125838000D01*
X130713000Y-125838000D01*
X130713000Y-124644845D01*
X130967000Y-124644845D01*
X130967000Y-125838000D01*
X130987000Y-125838000D01*
X130987000Y-126092000D01*
X130967000Y-126092000D01*
X130967000Y-127285155D01*
X131196890Y-127406476D01*
X131344099Y-127361825D01*
X131606920Y-127236641D01*
X131840269Y-127062588D01*
X132035178Y-126846355D01*
X132184157Y-126596252D01*
X132268736Y-126357821D01*
X132336956Y-126522519D01*
X132465764Y-126715294D01*
X132629706Y-126879236D01*
X132822481Y-127008044D01*
X133036682Y-127096769D01*
X133264076Y-127142000D01*
X133495924Y-127142000D01*
X133723318Y-127096769D01*
X133937519Y-127008044D01*
X134130294Y-126879236D01*
X134294236Y-126715294D01*
X134423044Y-126522519D01*
X134511769Y-126308318D01*
X134557000Y-126080924D01*
X134557000Y-125849076D01*
X134743000Y-125849076D01*
X134743000Y-126080924D01*
X134788231Y-126308318D01*
X134876956Y-126522519D01*
X135005764Y-126715294D01*
X135169706Y-126879236D01*
X135362481Y-127008044D01*
X135576682Y-127096769D01*
X135804076Y-127142000D01*
X136035924Y-127142000D01*
X136263318Y-127096769D01*
X136477519Y-127008044D01*
X136670294Y-126879236D01*
X136834236Y-126715294D01*
X136963044Y-126522519D01*
X137051769Y-126308318D01*
X137097000Y-126080924D01*
X137097000Y-125849076D01*
X137051769Y-125621682D01*
X136963044Y-125407481D01*
X136834236Y-125214706D01*
X136670294Y-125050764D01*
X136477519Y-124921956D01*
X136263318Y-124833231D01*
X136035924Y-124788000D01*
X135804076Y-124788000D01*
X135576682Y-124833231D01*
X135362481Y-124921956D01*
X135169706Y-125050764D01*
X135005764Y-125214706D01*
X134876956Y-125407481D01*
X134788231Y-125621682D01*
X134743000Y-125849076D01*
X134557000Y-125849076D01*
X134511769Y-125621682D01*
X134423044Y-125407481D01*
X134294236Y-125214706D01*
X134130294Y-125050764D01*
X133937519Y-124921956D01*
X133723318Y-124833231D01*
X133495924Y-124788000D01*
X133264076Y-124788000D01*
X133036682Y-124833231D01*
X132822481Y-124921956D01*
X132629706Y-125050764D01*
X132465764Y-125214706D01*
X132336956Y-125407481D01*
X132268736Y-125572179D01*
X132184157Y-125333748D01*
X132035178Y-125083645D01*
X131840269Y-124867412D01*
X131606920Y-124693359D01*
X131344099Y-124568175D01*
X131196890Y-124523524D01*
X130967000Y-124644845D01*
X130713000Y-124644845D01*
X130483110Y-124523524D01*
X130335901Y-124568175D01*
X130073080Y-124693359D01*
X129839731Y-124867412D01*
X129644822Y-125083645D01*
X129495843Y-125333748D01*
X129411264Y-125572179D01*
X129343044Y-125407481D01*
X129214236Y-125214706D01*
X129050294Y-125050764D01*
X128857519Y-124921956D01*
X128643318Y-124833231D01*
X128415924Y-124788000D01*
X128184076Y-124788000D01*
X127956682Y-124833231D01*
X127742481Y-124921956D01*
X127549706Y-125050764D01*
X127385764Y-125214706D01*
X127256956Y-125407481D01*
X127168231Y-125621682D01*
X127123000Y-125849076D01*
X126937000Y-125849076D01*
X126891769Y-125621682D01*
X126803044Y-125407481D01*
X126674236Y-125214706D01*
X126587000Y-125127470D01*
X126587000Y-122500614D01*
X126591000Y-122460000D01*
X126587000Y-122419386D01*
X126587000Y-122419376D01*
X126575034Y-122297880D01*
X126527745Y-122141990D01*
X126491998Y-122075113D01*
X126450952Y-121998320D01*
X126373503Y-121903948D01*
X126373496Y-121903941D01*
X126347606Y-121872394D01*
X126316059Y-121846504D01*
X115187000Y-110717447D01*
X115187000Y-109856890D01*
X135158524Y-109856890D01*
X135203175Y-110004099D01*
X135328359Y-110266920D01*
X135502412Y-110500269D01*
X135718645Y-110695178D01*
X135968748Y-110844157D01*
X136243109Y-110941481D01*
X136473000Y-110820814D01*
X136473000Y-109627000D01*
X136727000Y-109627000D01*
X136727000Y-110820814D01*
X136956891Y-110941481D01*
X137231252Y-110844157D01*
X137481355Y-110695178D01*
X137697588Y-110500269D01*
X137871641Y-110266920D01*
X137971680Y-110056890D01*
X142358524Y-110056890D01*
X142403175Y-110204099D01*
X142528359Y-110466920D01*
X142702412Y-110700269D01*
X142918645Y-110895178D01*
X143168748Y-111044157D01*
X143443109Y-111141481D01*
X143673000Y-111020814D01*
X143673000Y-109827000D01*
X143927000Y-109827000D01*
X143927000Y-111020814D01*
X144156891Y-111141481D01*
X144431252Y-111044157D01*
X144681355Y-110895178D01*
X144897588Y-110700269D01*
X145071641Y-110466920D01*
X145196825Y-110204099D01*
X145241476Y-110056890D01*
X145120155Y-109827000D01*
X143927000Y-109827000D01*
X143673000Y-109827000D01*
X142479845Y-109827000D01*
X142358524Y-110056890D01*
X137971680Y-110056890D01*
X137996825Y-110004099D01*
X138041476Y-109856890D01*
X137920155Y-109627000D01*
X136727000Y-109627000D01*
X136473000Y-109627000D01*
X135279845Y-109627000D01*
X135158524Y-109856890D01*
X115187000Y-109856890D01*
X115187000Y-109143110D01*
X135158524Y-109143110D01*
X135279845Y-109373000D01*
X136473000Y-109373000D01*
X136473000Y-109353000D01*
X136727000Y-109353000D01*
X136727000Y-109373000D01*
X137920155Y-109373000D01*
X137935928Y-109343110D01*
X142358524Y-109343110D01*
X142479845Y-109573000D01*
X143673000Y-109573000D01*
X143673000Y-109553000D01*
X143927000Y-109553000D01*
X143927000Y-109573000D01*
X145120155Y-109573000D01*
X145241476Y-109343110D01*
X145196825Y-109195901D01*
X145071641Y-108933080D01*
X144897588Y-108699731D01*
X144681355Y-108504822D01*
X144431252Y-108355843D01*
X144382592Y-108338582D01*
X144650000Y-108338582D01*
X144714103Y-108332268D01*
X144775743Y-108313570D01*
X144832550Y-108283206D01*
X144882343Y-108242343D01*
X144923206Y-108192550D01*
X144953570Y-108135743D01*
X144972268Y-108074103D01*
X144978582Y-108010000D01*
X144978582Y-106310000D01*
X144972268Y-106245897D01*
X144953570Y-106184257D01*
X144923206Y-106127450D01*
X144882343Y-106077657D01*
X144832550Y-106036794D01*
X144775743Y-106006430D01*
X144714103Y-105987732D01*
X144650000Y-105981418D01*
X144377000Y-105981418D01*
X144377000Y-101570027D01*
X144550294Y-101454236D01*
X144714236Y-101290294D01*
X144843044Y-101097519D01*
X144931769Y-100883318D01*
X144977000Y-100655924D01*
X144977000Y-100424076D01*
X144931769Y-100196682D01*
X144843044Y-99982481D01*
X144714236Y-99789706D01*
X144550294Y-99625764D01*
X144357519Y-99496956D01*
X144143318Y-99408231D01*
X143915924Y-99363000D01*
X143684076Y-99363000D01*
X143456682Y-99408231D01*
X143242481Y-99496956D01*
X143049706Y-99625764D01*
X142885764Y-99789706D01*
X142756956Y-99982481D01*
X142668231Y-100196682D01*
X142623000Y-100424076D01*
X142623000Y-100655924D01*
X142668231Y-100883318D01*
X142756956Y-101097519D01*
X142885764Y-101290294D01*
X143049706Y-101454236D01*
X143223001Y-101570028D01*
X143223000Y-105981418D01*
X142950000Y-105981418D01*
X142885897Y-105987732D01*
X142824257Y-106006430D01*
X142767450Y-106036794D01*
X142717657Y-106077657D01*
X142676794Y-106127450D01*
X142646430Y-106184257D01*
X142627732Y-106245897D01*
X142621418Y-106310000D01*
X142621418Y-108010000D01*
X142627732Y-108074103D01*
X142646430Y-108135743D01*
X142676794Y-108192550D01*
X142717657Y-108242343D01*
X142767450Y-108283206D01*
X142824257Y-108313570D01*
X142885897Y-108332268D01*
X142950000Y-108338582D01*
X143217408Y-108338582D01*
X143168748Y-108355843D01*
X142918645Y-108504822D01*
X142702412Y-108699731D01*
X142528359Y-108933080D01*
X142403175Y-109195901D01*
X142358524Y-109343110D01*
X137935928Y-109343110D01*
X138041476Y-109143110D01*
X137996825Y-108995901D01*
X137871641Y-108733080D01*
X137697588Y-108499731D01*
X137481355Y-108304822D01*
X137231252Y-108155843D01*
X137182592Y-108138582D01*
X137450000Y-108138582D01*
X137514103Y-108132268D01*
X137575743Y-108113570D01*
X137632550Y-108083206D01*
X137682343Y-108042343D01*
X137723206Y-107992550D01*
X137753570Y-107935743D01*
X137772268Y-107874103D01*
X137778582Y-107810000D01*
X137778582Y-106110000D01*
X137772268Y-106045897D01*
X137753570Y-105984257D01*
X137723206Y-105927450D01*
X137682343Y-105877657D01*
X137632550Y-105836794D01*
X137575743Y-105806430D01*
X137514103Y-105787732D01*
X137450000Y-105781418D01*
X137177000Y-105781418D01*
X137177000Y-101516396D01*
X137257519Y-101483044D01*
X137450294Y-101354236D01*
X137614236Y-101190294D01*
X137743044Y-100997519D01*
X137831769Y-100783318D01*
X137877000Y-100555924D01*
X137877000Y-100324076D01*
X137831769Y-100096682D01*
X137743044Y-99882481D01*
X137614236Y-99689706D01*
X137450294Y-99525764D01*
X137257519Y-99396956D01*
X137043318Y-99308231D01*
X136815924Y-99263000D01*
X136584076Y-99263000D01*
X136356682Y-99308231D01*
X136142481Y-99396956D01*
X135949706Y-99525764D01*
X135785764Y-99689706D01*
X135656956Y-99882481D01*
X135568231Y-100096682D01*
X135523000Y-100324076D01*
X135523000Y-100555924D01*
X135568231Y-100783318D01*
X135656956Y-100997519D01*
X135785764Y-101190294D01*
X135949706Y-101354236D01*
X136023001Y-101403210D01*
X136023000Y-105781418D01*
X135750000Y-105781418D01*
X135685897Y-105787732D01*
X135624257Y-105806430D01*
X135567450Y-105836794D01*
X135517657Y-105877657D01*
X135476794Y-105927450D01*
X135446430Y-105984257D01*
X135427732Y-106045897D01*
X135421418Y-106110000D01*
X135421418Y-107810000D01*
X135427732Y-107874103D01*
X135446430Y-107935743D01*
X135476794Y-107992550D01*
X135517657Y-108042343D01*
X135567450Y-108083206D01*
X135624257Y-108113570D01*
X135685897Y-108132268D01*
X135750000Y-108138582D01*
X136017408Y-108138582D01*
X135968748Y-108155843D01*
X135718645Y-108304822D01*
X135502412Y-108499731D01*
X135328359Y-108733080D01*
X135203175Y-108995901D01*
X135158524Y-109143110D01*
X115187000Y-109143110D01*
X115187000Y-108037530D01*
X115274236Y-107950294D01*
X115403044Y-107757519D01*
X115491769Y-107543318D01*
X115537000Y-107315924D01*
X115537000Y-107084076D01*
X115491769Y-106856682D01*
X115403044Y-106642481D01*
X115274236Y-106449706D01*
X115187000Y-106362470D01*
X115187000Y-106350000D01*
X115721418Y-106350000D01*
X115721418Y-108050000D01*
X115727732Y-108114103D01*
X115746430Y-108175743D01*
X115776794Y-108232550D01*
X115817657Y-108282343D01*
X115867450Y-108323206D01*
X115924257Y-108353570D01*
X115985897Y-108372268D01*
X116050000Y-108378582D01*
X117750000Y-108378582D01*
X117814103Y-108372268D01*
X117875743Y-108353570D01*
X117932550Y-108323206D01*
X117982343Y-108282343D01*
X118023206Y-108232550D01*
X118053570Y-108175743D01*
X118072268Y-108114103D01*
X118078582Y-108050000D01*
X118078582Y-106350000D01*
X118072268Y-106285897D01*
X118053570Y-106224257D01*
X118023206Y-106167450D01*
X117982343Y-106117657D01*
X117932550Y-106076794D01*
X117875743Y-106046430D01*
X117814103Y-106027732D01*
X117750000Y-106021418D01*
X116050000Y-106021418D01*
X115985897Y-106027732D01*
X115924257Y-106046430D01*
X115867450Y-106076794D01*
X115817657Y-106117657D01*
X115776794Y-106167450D01*
X115746430Y-106224257D01*
X115727732Y-106285897D01*
X115721418Y-106350000D01*
X115187000Y-106350000D01*
X115187000Y-103287530D01*
X115224236Y-103250294D01*
X115353044Y-103057519D01*
X115441769Y-102843318D01*
X115487000Y-102615924D01*
X115487000Y-102384076D01*
X115441769Y-102156682D01*
X115353044Y-101942481D01*
X115224236Y-101749706D01*
X115137000Y-101662470D01*
X115137000Y-101650000D01*
X115671418Y-101650000D01*
X115671418Y-103350000D01*
X115677732Y-103414103D01*
X115696430Y-103475743D01*
X115726794Y-103532550D01*
X115767657Y-103582343D01*
X115817450Y-103623206D01*
X115874257Y-103653570D01*
X115935897Y-103672268D01*
X116000000Y-103678582D01*
X117700000Y-103678582D01*
X117764103Y-103672268D01*
X117825743Y-103653570D01*
X117882550Y-103623206D01*
X117932343Y-103582343D01*
X117973206Y-103532550D01*
X118003570Y-103475743D01*
X118022268Y-103414103D01*
X118028582Y-103350000D01*
X118028582Y-101650000D01*
X118022268Y-101585897D01*
X118003570Y-101524257D01*
X117973206Y-101467450D01*
X117932343Y-101417657D01*
X117882550Y-101376794D01*
X117825743Y-101346430D01*
X117764103Y-101327732D01*
X117700000Y-101321418D01*
X116000000Y-101321418D01*
X115935897Y-101327732D01*
X115874257Y-101346430D01*
X115817450Y-101376794D01*
X115767657Y-101417657D01*
X115726794Y-101467450D01*
X115696430Y-101524257D01*
X115677732Y-101585897D01*
X115671418Y-101650000D01*
X115137000Y-101650000D01*
X115137000Y-98737530D01*
X115224236Y-98650294D01*
X115353044Y-98457519D01*
X115441769Y-98243318D01*
X115487000Y-98015924D01*
X115487000Y-97784076D01*
X115441769Y-97556682D01*
X115353044Y-97342481D01*
X115224236Y-97149706D01*
X115124530Y-97050000D01*
X115671418Y-97050000D01*
X115671418Y-98750000D01*
X115677732Y-98814103D01*
X115696430Y-98875743D01*
X115726794Y-98932550D01*
X115767657Y-98982343D01*
X115817450Y-99023206D01*
X115874257Y-99053570D01*
X115935897Y-99072268D01*
X116000000Y-99078582D01*
X117700000Y-99078582D01*
X117764103Y-99072268D01*
X117825743Y-99053570D01*
X117882550Y-99023206D01*
X117932343Y-98982343D01*
X117973206Y-98932550D01*
X118003570Y-98875743D01*
X118022268Y-98814103D01*
X118028582Y-98750000D01*
X118028582Y-97050000D01*
X135521418Y-97050000D01*
X135521418Y-98750000D01*
X135527732Y-98814103D01*
X135546430Y-98875743D01*
X135576794Y-98932550D01*
X135617657Y-98982343D01*
X135667450Y-99023206D01*
X135724257Y-99053570D01*
X135785897Y-99072268D01*
X135850000Y-99078582D01*
X137550000Y-99078582D01*
X137614103Y-99072268D01*
X137675743Y-99053570D01*
X137732550Y-99023206D01*
X137782343Y-98982343D01*
X137823206Y-98932550D01*
X137853570Y-98875743D01*
X137872268Y-98814103D01*
X137878582Y-98750000D01*
X137878582Y-97150000D01*
X142621418Y-97150000D01*
X142621418Y-98850000D01*
X142627732Y-98914103D01*
X142646430Y-98975743D01*
X142676794Y-99032550D01*
X142717657Y-99082343D01*
X142767450Y-99123206D01*
X142824257Y-99153570D01*
X142885897Y-99172268D01*
X142950000Y-99178582D01*
X144650000Y-99178582D01*
X144714103Y-99172268D01*
X144775743Y-99153570D01*
X144832550Y-99123206D01*
X144882343Y-99082343D01*
X144923206Y-99032550D01*
X144953570Y-98975743D01*
X144972268Y-98914103D01*
X144978582Y-98850000D01*
X144978582Y-97150000D01*
X144972268Y-97085897D01*
X144953570Y-97024257D01*
X144923206Y-96967450D01*
X144882343Y-96917657D01*
X144832550Y-96876794D01*
X144775743Y-96846430D01*
X144714103Y-96827732D01*
X144650000Y-96821418D01*
X142950000Y-96821418D01*
X142885897Y-96827732D01*
X142824257Y-96846430D01*
X142767450Y-96876794D01*
X142717657Y-96917657D01*
X142676794Y-96967450D01*
X142646430Y-97024257D01*
X142627732Y-97085897D01*
X142621418Y-97150000D01*
X137878582Y-97150000D01*
X137878582Y-97050000D01*
X137872268Y-96985897D01*
X137853570Y-96924257D01*
X137823206Y-96867450D01*
X137782343Y-96817657D01*
X137732550Y-96776794D01*
X137675743Y-96746430D01*
X137614103Y-96727732D01*
X137550000Y-96721418D01*
X135850000Y-96721418D01*
X135785897Y-96727732D01*
X135724257Y-96746430D01*
X135667450Y-96776794D01*
X135617657Y-96817657D01*
X135576794Y-96867450D01*
X135546430Y-96924257D01*
X135527732Y-96985897D01*
X135521418Y-97050000D01*
X118028582Y-97050000D01*
X118022268Y-96985897D01*
X118003570Y-96924257D01*
X117973206Y-96867450D01*
X117932343Y-96817657D01*
X117882550Y-96776794D01*
X117825743Y-96746430D01*
X117764103Y-96727732D01*
X117700000Y-96721418D01*
X116000000Y-96721418D01*
X115935897Y-96727732D01*
X115874257Y-96746430D01*
X115817450Y-96776794D01*
X115767657Y-96817657D01*
X115726794Y-96867450D01*
X115696430Y-96924257D01*
X115677732Y-96985897D01*
X115671418Y-97050000D01*
X115124530Y-97050000D01*
X115060294Y-96985764D01*
X114867519Y-96856956D01*
X114653318Y-96768231D01*
X114425924Y-96723000D01*
X114194076Y-96723000D01*
X113966682Y-96768231D01*
X113752481Y-96856956D01*
X113559706Y-96985764D01*
X113395764Y-97149706D01*
X113266956Y-97342481D01*
X113178231Y-97556682D01*
X113133000Y-97784076D01*
X104852000Y-97784076D01*
X104852000Y-94750000D01*
X165471418Y-94750000D01*
X165471418Y-95150000D01*
X165477732Y-95214103D01*
X165496430Y-95275743D01*
X165526794Y-95332550D01*
X165567657Y-95382343D01*
X165617450Y-95423206D01*
X165674257Y-95453570D01*
X165735897Y-95472268D01*
X165800000Y-95478582D01*
X166600000Y-95478582D01*
X166664103Y-95472268D01*
X166725743Y-95453570D01*
X166782550Y-95423206D01*
X166832343Y-95382343D01*
X166873206Y-95332550D01*
X166903570Y-95275743D01*
X166922268Y-95214103D01*
X166928582Y-95150000D01*
X166928582Y-94750000D01*
X166922268Y-94685897D01*
X166903570Y-94624257D01*
X166873206Y-94567450D01*
X166832343Y-94517657D01*
X166782550Y-94476794D01*
X166725743Y-94446430D01*
X166664103Y-94427732D01*
X166600000Y-94421418D01*
X165800000Y-94421418D01*
X165735897Y-94427732D01*
X165674257Y-94446430D01*
X165617450Y-94476794D01*
X165567657Y-94517657D01*
X165526794Y-94567450D01*
X165496430Y-94624257D01*
X165477732Y-94685897D01*
X165471418Y-94750000D01*
X104852000Y-94750000D01*
X104852000Y-76855000D01*
X107817418Y-76855000D01*
X107817418Y-78555000D01*
X107823732Y-78619103D01*
X107842430Y-78680743D01*
X107872794Y-78737550D01*
X107913657Y-78787343D01*
X107963450Y-78828206D01*
X108020257Y-78858570D01*
X108081897Y-78877268D01*
X108146000Y-78883582D01*
X109846000Y-78883582D01*
X109910103Y-78877268D01*
X109971743Y-78858570D01*
X110028550Y-78828206D01*
X110078343Y-78787343D01*
X110119206Y-78737550D01*
X110149570Y-78680743D01*
X110168268Y-78619103D01*
X110174582Y-78555000D01*
X110174582Y-77589076D01*
X110359000Y-77589076D01*
X110359000Y-77820924D01*
X110404231Y-78048318D01*
X110492956Y-78262519D01*
X110621764Y-78455294D01*
X110785706Y-78619236D01*
X110978481Y-78748044D01*
X111192682Y-78836769D01*
X111420076Y-78882000D01*
X111651924Y-78882000D01*
X111879318Y-78836769D01*
X112093519Y-78748044D01*
X112286294Y-78619236D01*
X112450236Y-78455294D01*
X112579044Y-78262519D01*
X112667769Y-78048318D01*
X112713000Y-77820924D01*
X112713000Y-77589076D01*
X112899000Y-77589076D01*
X112899000Y-77820924D01*
X112944231Y-78048318D01*
X113032956Y-78262519D01*
X113161764Y-78455294D01*
X113325706Y-78619236D01*
X113518481Y-78748044D01*
X113732682Y-78836769D01*
X113960076Y-78882000D01*
X114191924Y-78882000D01*
X114419318Y-78836769D01*
X114633519Y-78748044D01*
X114826294Y-78619236D01*
X114990236Y-78455294D01*
X115119044Y-78262519D01*
X115207769Y-78048318D01*
X115253000Y-77820924D01*
X115253000Y-77589076D01*
X115439000Y-77589076D01*
X115439000Y-77820924D01*
X115484231Y-78048318D01*
X115572956Y-78262519D01*
X115701764Y-78455294D01*
X115865706Y-78619236D01*
X116058481Y-78748044D01*
X116272682Y-78836769D01*
X116500076Y-78882000D01*
X116731924Y-78882000D01*
X116959318Y-78836769D01*
X117173519Y-78748044D01*
X117366294Y-78619236D01*
X117530236Y-78455294D01*
X117659044Y-78262519D01*
X117747769Y-78048318D01*
X117793000Y-77820924D01*
X117793000Y-77589076D01*
X117979000Y-77589076D01*
X117979000Y-77820924D01*
X118024231Y-78048318D01*
X118112956Y-78262519D01*
X118241764Y-78455294D01*
X118405706Y-78619236D01*
X118598481Y-78748044D01*
X118812682Y-78836769D01*
X119040076Y-78882000D01*
X119271924Y-78882000D01*
X119499318Y-78836769D01*
X119713519Y-78748044D01*
X119906294Y-78619236D01*
X120070236Y-78455294D01*
X120199044Y-78262519D01*
X120287769Y-78048318D01*
X120333000Y-77820924D01*
X120333000Y-77589076D01*
X120519000Y-77589076D01*
X120519000Y-77820924D01*
X120564231Y-78048318D01*
X120652956Y-78262519D01*
X120781764Y-78455294D01*
X120945706Y-78619236D01*
X121138481Y-78748044D01*
X121352682Y-78836769D01*
X121580076Y-78882000D01*
X121811924Y-78882000D01*
X122039318Y-78836769D01*
X122253519Y-78748044D01*
X122446294Y-78619236D01*
X122610236Y-78455294D01*
X122739044Y-78262519D01*
X122827769Y-78048318D01*
X122873000Y-77820924D01*
X122873000Y-77589076D01*
X123059000Y-77589076D01*
X123059000Y-77820924D01*
X123104231Y-78048318D01*
X123192956Y-78262519D01*
X123321764Y-78455294D01*
X123485706Y-78619236D01*
X123678481Y-78748044D01*
X123892682Y-78836769D01*
X124120076Y-78882000D01*
X124351924Y-78882000D01*
X124579318Y-78836769D01*
X124793519Y-78748044D01*
X124986294Y-78619236D01*
X125150236Y-78455294D01*
X125279044Y-78262519D01*
X125367769Y-78048318D01*
X125413000Y-77820924D01*
X125413000Y-77589076D01*
X125599000Y-77589076D01*
X125599000Y-77820924D01*
X125644231Y-78048318D01*
X125732956Y-78262519D01*
X125861764Y-78455294D01*
X126025706Y-78619236D01*
X126218481Y-78748044D01*
X126432682Y-78836769D01*
X126660076Y-78882000D01*
X126891924Y-78882000D01*
X127119318Y-78836769D01*
X127333519Y-78748044D01*
X127526294Y-78619236D01*
X127690236Y-78455294D01*
X127819044Y-78262519D01*
X127907769Y-78048318D01*
X127953000Y-77820924D01*
X127953000Y-77589076D01*
X128139000Y-77589076D01*
X128139000Y-77820924D01*
X128184231Y-78048318D01*
X128272956Y-78262519D01*
X128401764Y-78455294D01*
X128565706Y-78619236D01*
X128758481Y-78748044D01*
X128972682Y-78836769D01*
X129200076Y-78882000D01*
X129431924Y-78882000D01*
X129659318Y-78836769D01*
X129873519Y-78748044D01*
X130066294Y-78619236D01*
X130230236Y-78455294D01*
X130359044Y-78262519D01*
X130447769Y-78048318D01*
X130493000Y-77820924D01*
X130493000Y-77589076D01*
X130679000Y-77589076D01*
X130679000Y-77820924D01*
X130724231Y-78048318D01*
X130812956Y-78262519D01*
X130941764Y-78455294D01*
X131105706Y-78619236D01*
X131298481Y-78748044D01*
X131512682Y-78836769D01*
X131740076Y-78882000D01*
X131971924Y-78882000D01*
X132199318Y-78836769D01*
X132413519Y-78748044D01*
X132606294Y-78619236D01*
X132770236Y-78455294D01*
X132899044Y-78262519D01*
X132987769Y-78048318D01*
X133033000Y-77820924D01*
X133033000Y-77589076D01*
X132987769Y-77361682D01*
X132899044Y-77147481D01*
X132770236Y-76954706D01*
X132606294Y-76790764D01*
X132413519Y-76661956D01*
X132199318Y-76573231D01*
X131971924Y-76528000D01*
X131740076Y-76528000D01*
X131512682Y-76573231D01*
X131298481Y-76661956D01*
X131105706Y-76790764D01*
X130941764Y-76954706D01*
X130812956Y-77147481D01*
X130724231Y-77361682D01*
X130679000Y-77589076D01*
X130493000Y-77589076D01*
X130447769Y-77361682D01*
X130359044Y-77147481D01*
X130230236Y-76954706D01*
X130066294Y-76790764D01*
X129873519Y-76661956D01*
X129659318Y-76573231D01*
X129431924Y-76528000D01*
X129200076Y-76528000D01*
X128972682Y-76573231D01*
X128758481Y-76661956D01*
X128565706Y-76790764D01*
X128401764Y-76954706D01*
X128272956Y-77147481D01*
X128184231Y-77361682D01*
X128139000Y-77589076D01*
X127953000Y-77589076D01*
X127907769Y-77361682D01*
X127819044Y-77147481D01*
X127690236Y-76954706D01*
X127526294Y-76790764D01*
X127333519Y-76661956D01*
X127119318Y-76573231D01*
X126891924Y-76528000D01*
X126660076Y-76528000D01*
X126432682Y-76573231D01*
X126218481Y-76661956D01*
X126025706Y-76790764D01*
X125861764Y-76954706D01*
X125732956Y-77147481D01*
X125644231Y-77361682D01*
X125599000Y-77589076D01*
X125413000Y-77589076D01*
X125367769Y-77361682D01*
X125279044Y-77147481D01*
X125150236Y-76954706D01*
X124986294Y-76790764D01*
X124793519Y-76661956D01*
X124579318Y-76573231D01*
X124351924Y-76528000D01*
X124120076Y-76528000D01*
X123892682Y-76573231D01*
X123678481Y-76661956D01*
X123485706Y-76790764D01*
X123321764Y-76954706D01*
X123192956Y-77147481D01*
X123104231Y-77361682D01*
X123059000Y-77589076D01*
X122873000Y-77589076D01*
X122827769Y-77361682D01*
X122739044Y-77147481D01*
X122610236Y-76954706D01*
X122446294Y-76790764D01*
X122253519Y-76661956D01*
X122039318Y-76573231D01*
X121811924Y-76528000D01*
X121580076Y-76528000D01*
X121352682Y-76573231D01*
X121138481Y-76661956D01*
X120945706Y-76790764D01*
X120781764Y-76954706D01*
X120652956Y-77147481D01*
X120564231Y-77361682D01*
X120519000Y-77589076D01*
X120333000Y-77589076D01*
X120287769Y-77361682D01*
X120199044Y-77147481D01*
X120070236Y-76954706D01*
X119906294Y-76790764D01*
X119713519Y-76661956D01*
X119499318Y-76573231D01*
X119271924Y-76528000D01*
X119040076Y-76528000D01*
X118812682Y-76573231D01*
X118598481Y-76661956D01*
X118405706Y-76790764D01*
X118241764Y-76954706D01*
X118112956Y-77147481D01*
X118024231Y-77361682D01*
X117979000Y-77589076D01*
X117793000Y-77589076D01*
X117747769Y-77361682D01*
X117659044Y-77147481D01*
X117530236Y-76954706D01*
X117366294Y-76790764D01*
X117173519Y-76661956D01*
X116959318Y-76573231D01*
X116731924Y-76528000D01*
X116500076Y-76528000D01*
X116272682Y-76573231D01*
X116058481Y-76661956D01*
X115865706Y-76790764D01*
X115701764Y-76954706D01*
X115572956Y-77147481D01*
X115484231Y-77361682D01*
X115439000Y-77589076D01*
X115253000Y-77589076D01*
X115207769Y-77361682D01*
X115119044Y-77147481D01*
X114990236Y-76954706D01*
X114826294Y-76790764D01*
X114633519Y-76661956D01*
X114419318Y-76573231D01*
X114191924Y-76528000D01*
X113960076Y-76528000D01*
X113732682Y-76573231D01*
X113518481Y-76661956D01*
X113325706Y-76790764D01*
X113161764Y-76954706D01*
X113032956Y-77147481D01*
X112944231Y-77361682D01*
X112899000Y-77589076D01*
X112713000Y-77589076D01*
X112667769Y-77361682D01*
X112579044Y-77147481D01*
X112450236Y-76954706D01*
X112286294Y-76790764D01*
X112093519Y-76661956D01*
X111879318Y-76573231D01*
X111651924Y-76528000D01*
X111420076Y-76528000D01*
X111192682Y-76573231D01*
X110978481Y-76661956D01*
X110785706Y-76790764D01*
X110621764Y-76954706D01*
X110492956Y-77147481D01*
X110404231Y-77361682D01*
X110359000Y-77589076D01*
X110174582Y-77589076D01*
X110174582Y-76855000D01*
X110168268Y-76790897D01*
X110149570Y-76729257D01*
X110119206Y-76672450D01*
X110078343Y-76622657D01*
X110028550Y-76581794D01*
X109971743Y-76551430D01*
X109910103Y-76532732D01*
X109846000Y-76526418D01*
X108146000Y-76526418D01*
X108081897Y-76532732D01*
X108020257Y-76551430D01*
X107963450Y-76581794D01*
X107913657Y-76622657D01*
X107872794Y-76672450D01*
X107842430Y-76729257D01*
X107823732Y-76790897D01*
X107817418Y-76855000D01*
X104852000Y-76855000D01*
X104852000Y-75852000D01*
X133682708Y-75852000D01*
X133700000Y-75853703D01*
X133717291Y-75852000D01*
X133717292Y-75852000D01*
X133769004Y-75846907D01*
X133835356Y-75826779D01*
X133896507Y-75794093D01*
X133950106Y-75750106D01*
X133994093Y-75696507D01*
X134026779Y-75635356D01*
X134046907Y-75569004D01*
X134052295Y-75514291D01*
X134478519Y-75514291D01*
X134575843Y-75788652D01*
X134724822Y-76038755D01*
X134919731Y-76254988D01*
X135153080Y-76429041D01*
X135415901Y-76554225D01*
X135563110Y-76598876D01*
X135793000Y-76477555D01*
X135793000Y-75284400D01*
X134599186Y-75284400D01*
X134478519Y-75514291D01*
X134052295Y-75514291D01*
X134053703Y-75500000D01*
X134052000Y-75482708D01*
X134052000Y-74800509D01*
X134478519Y-74800509D01*
X134599186Y-75030400D01*
X135793000Y-75030400D01*
X135793000Y-73837245D01*
X136047000Y-73837245D01*
X136047000Y-75030400D01*
X136067000Y-75030400D01*
X136067000Y-75284400D01*
X136047000Y-75284400D01*
X136047000Y-76477555D01*
X136276890Y-76598876D01*
X136424099Y-76554225D01*
X136686920Y-76429041D01*
X136920269Y-76254988D01*
X137115178Y-76038755D01*
X137264157Y-75788652D01*
X137348736Y-75550221D01*
X137416956Y-75714919D01*
X137545764Y-75907694D01*
X137709706Y-76071636D01*
X137902481Y-76200444D01*
X138116682Y-76289169D01*
X138344076Y-76334400D01*
X138575924Y-76334400D01*
X138803318Y-76289169D01*
X139017519Y-76200444D01*
X139210294Y-76071636D01*
X139374236Y-75907694D01*
X139503044Y-75714919D01*
X139591769Y-75500718D01*
X139637000Y-75273324D01*
X139637000Y-75041476D01*
X139823000Y-75041476D01*
X139823000Y-75273324D01*
X139868231Y-75500718D01*
X139956956Y-75714919D01*
X140085764Y-75907694D01*
X140249706Y-76071636D01*
X140442481Y-76200444D01*
X140656682Y-76289169D01*
X140884076Y-76334400D01*
X141115924Y-76334400D01*
X141343318Y-76289169D01*
X141557519Y-76200444D01*
X141750294Y-76071636D01*
X141914236Y-75907694D01*
X142043044Y-75714919D01*
X142131769Y-75500718D01*
X142177000Y-75273324D01*
X142177000Y-75041476D01*
X142363000Y-75041476D01*
X142363000Y-75273324D01*
X142408231Y-75500718D01*
X142496956Y-75714919D01*
X142625764Y-75907694D01*
X142789706Y-76071636D01*
X142982481Y-76200444D01*
X143196682Y-76289169D01*
X143424076Y-76334400D01*
X143655924Y-76334400D01*
X143883318Y-76289169D01*
X144097519Y-76200444D01*
X144290294Y-76071636D01*
X144454236Y-75907694D01*
X144583044Y-75714919D01*
X144671769Y-75500718D01*
X144717000Y-75273324D01*
X144717000Y-75041476D01*
X144903000Y-75041476D01*
X144903000Y-75273324D01*
X144948231Y-75500718D01*
X145036956Y-75714919D01*
X145165764Y-75907694D01*
X145329706Y-76071636D01*
X145522481Y-76200444D01*
X145736682Y-76289169D01*
X145964076Y-76334400D01*
X146195924Y-76334400D01*
X146423318Y-76289169D01*
X146637519Y-76200444D01*
X146830294Y-76071636D01*
X146994236Y-75907694D01*
X147123044Y-75714919D01*
X147211769Y-75500718D01*
X147257000Y-75273324D01*
X147257000Y-75041476D01*
X147443000Y-75041476D01*
X147443000Y-75273324D01*
X147488231Y-75500718D01*
X147576956Y-75714919D01*
X147705764Y-75907694D01*
X147869706Y-76071636D01*
X148062481Y-76200444D01*
X148276682Y-76289169D01*
X148504076Y-76334400D01*
X148735924Y-76334400D01*
X148963318Y-76289169D01*
X149177519Y-76200444D01*
X149370294Y-76071636D01*
X149534236Y-75907694D01*
X149663044Y-75714919D01*
X149751769Y-75500718D01*
X149797000Y-75273324D01*
X149797000Y-75041476D01*
X149983000Y-75041476D01*
X149983000Y-75273324D01*
X150028231Y-75500718D01*
X150116956Y-75714919D01*
X150245764Y-75907694D01*
X150409706Y-76071636D01*
X150602481Y-76200444D01*
X150816682Y-76289169D01*
X151044076Y-76334400D01*
X151275924Y-76334400D01*
X151503318Y-76289169D01*
X151717519Y-76200444D01*
X151910294Y-76071636D01*
X152074236Y-75907694D01*
X152203044Y-75714919D01*
X152291769Y-75500718D01*
X152337000Y-75273324D01*
X152337000Y-75041476D01*
X152291769Y-74814082D01*
X152203044Y-74599881D01*
X152074236Y-74407106D01*
X151974530Y-74307400D01*
X152521418Y-74307400D01*
X152521418Y-76007400D01*
X152527732Y-76071503D01*
X152546430Y-76133143D01*
X152576794Y-76189950D01*
X152617657Y-76239743D01*
X152667450Y-76280606D01*
X152724257Y-76310970D01*
X152785897Y-76329668D01*
X152850000Y-76335982D01*
X154550000Y-76335982D01*
X154614103Y-76329668D01*
X154675743Y-76310970D01*
X154732550Y-76280606D01*
X154782343Y-76239743D01*
X154823206Y-76189950D01*
X154853570Y-76133143D01*
X154872268Y-76071503D01*
X154878582Y-76007400D01*
X154878582Y-74307400D01*
X154872268Y-74243297D01*
X154853570Y-74181657D01*
X154823206Y-74124850D01*
X154782343Y-74075057D01*
X154732550Y-74034194D01*
X154675743Y-74003830D01*
X154614103Y-73985132D01*
X154550000Y-73978818D01*
X152850000Y-73978818D01*
X152785897Y-73985132D01*
X152724257Y-74003830D01*
X152667450Y-74034194D01*
X152617657Y-74075057D01*
X152576794Y-74124850D01*
X152546430Y-74181657D01*
X152527732Y-74243297D01*
X152521418Y-74307400D01*
X151974530Y-74307400D01*
X151910294Y-74243164D01*
X151717519Y-74114356D01*
X151503318Y-74025631D01*
X151275924Y-73980400D01*
X151044076Y-73980400D01*
X150816682Y-74025631D01*
X150602481Y-74114356D01*
X150409706Y-74243164D01*
X150245764Y-74407106D01*
X150116956Y-74599881D01*
X150028231Y-74814082D01*
X149983000Y-75041476D01*
X149797000Y-75041476D01*
X149751769Y-74814082D01*
X149663044Y-74599881D01*
X149534236Y-74407106D01*
X149370294Y-74243164D01*
X149177519Y-74114356D01*
X148963318Y-74025631D01*
X148735924Y-73980400D01*
X148504076Y-73980400D01*
X148276682Y-74025631D01*
X148062481Y-74114356D01*
X147869706Y-74243164D01*
X147705764Y-74407106D01*
X147576956Y-74599881D01*
X147488231Y-74814082D01*
X147443000Y-75041476D01*
X147257000Y-75041476D01*
X147211769Y-74814082D01*
X147123044Y-74599881D01*
X146994236Y-74407106D01*
X146830294Y-74243164D01*
X146637519Y-74114356D01*
X146423318Y-74025631D01*
X146195924Y-73980400D01*
X145964076Y-73980400D01*
X145736682Y-74025631D01*
X145522481Y-74114356D01*
X145329706Y-74243164D01*
X145165764Y-74407106D01*
X145036956Y-74599881D01*
X144948231Y-74814082D01*
X144903000Y-75041476D01*
X144717000Y-75041476D01*
X144671769Y-74814082D01*
X144583044Y-74599881D01*
X144454236Y-74407106D01*
X144290294Y-74243164D01*
X144097519Y-74114356D01*
X143883318Y-74025631D01*
X143655924Y-73980400D01*
X143424076Y-73980400D01*
X143196682Y-74025631D01*
X142982481Y-74114356D01*
X142789706Y-74243164D01*
X142625764Y-74407106D01*
X142496956Y-74599881D01*
X142408231Y-74814082D01*
X142363000Y-75041476D01*
X142177000Y-75041476D01*
X142131769Y-74814082D01*
X142043044Y-74599881D01*
X141914236Y-74407106D01*
X141750294Y-74243164D01*
X141557519Y-74114356D01*
X141343318Y-74025631D01*
X141115924Y-73980400D01*
X140884076Y-73980400D01*
X140656682Y-74025631D01*
X140442481Y-74114356D01*
X140249706Y-74243164D01*
X140085764Y-74407106D01*
X139956956Y-74599881D01*
X139868231Y-74814082D01*
X139823000Y-75041476D01*
X139637000Y-75041476D01*
X139591769Y-74814082D01*
X139503044Y-74599881D01*
X139374236Y-74407106D01*
X139210294Y-74243164D01*
X139017519Y-74114356D01*
X138887000Y-74060293D01*
X138887000Y-73716868D01*
X140076869Y-72527000D01*
X168823132Y-72527000D01*
X170273001Y-73976870D01*
X170273000Y-97623130D01*
X168873132Y-99023000D01*
X164428582Y-99023000D01*
X164428582Y-98800000D01*
X164422268Y-98735897D01*
X164411379Y-98700000D01*
X164422268Y-98664103D01*
X164428582Y-98600000D01*
X164428582Y-98300000D01*
X164422268Y-98235897D01*
X164411379Y-98200000D01*
X164422268Y-98164103D01*
X164428582Y-98100000D01*
X164428582Y-97800000D01*
X164422268Y-97735897D01*
X164411379Y-97700000D01*
X164422268Y-97664103D01*
X164428582Y-97600000D01*
X164428582Y-97300000D01*
X164422268Y-97235897D01*
X164411379Y-97200000D01*
X164422268Y-97164103D01*
X164428582Y-97100000D01*
X164428582Y-96800000D01*
X164422268Y-96735897D01*
X164411379Y-96700000D01*
X164422268Y-96664103D01*
X164428582Y-96600000D01*
X164428582Y-96300000D01*
X164422268Y-96235897D01*
X164411379Y-96200000D01*
X164422268Y-96164103D01*
X164428582Y-96100000D01*
X164428582Y-95800000D01*
X164422268Y-95735897D01*
X164403570Y-95674257D01*
X164373206Y-95617450D01*
X164332343Y-95567657D01*
X164282550Y-95526794D01*
X164225743Y-95496430D01*
X164164103Y-95477732D01*
X164100000Y-95471418D01*
X163300000Y-95471418D01*
X163235897Y-95477732D01*
X163174257Y-95496430D01*
X163124548Y-95523000D01*
X161308156Y-95523000D01*
X161287199Y-95520936D01*
X161266242Y-95523000D01*
X161266222Y-95523000D01*
X161203493Y-95529178D01*
X161123004Y-95553595D01*
X161096696Y-95567657D01*
X161048823Y-95593245D01*
X161000098Y-95633233D01*
X161000095Y-95633236D01*
X160983805Y-95646605D01*
X160970436Y-95662895D01*
X156892857Y-99740476D01*
X156876562Y-99753849D01*
X156863190Y-99770143D01*
X156863189Y-99770144D01*
X156823202Y-99818868D01*
X156819108Y-99826528D01*
X156783552Y-99893049D01*
X156759135Y-99973538D01*
X156752957Y-100036267D01*
X156752957Y-100036277D01*
X156750892Y-100057244D01*
X156752957Y-100078211D01*
X156752958Y-117943172D01*
X156223162Y-118472970D01*
X142920996Y-118472970D01*
X142900029Y-118470905D01*
X142879062Y-118472970D01*
X142879052Y-118472970D01*
X142816323Y-118479148D01*
X142735834Y-118503565D01*
X142712897Y-118515825D01*
X142661653Y-118543215D01*
X142612928Y-118583202D01*
X142612919Y-118583211D01*
X142596635Y-118596575D01*
X142583271Y-118612859D01*
X140712900Y-120483232D01*
X140696605Y-120496605D01*
X140683233Y-120512899D01*
X140683232Y-120512900D01*
X140643245Y-120561624D01*
X140622052Y-120601274D01*
X140603595Y-120635805D01*
X140579178Y-120716294D01*
X140573000Y-120779023D01*
X140573000Y-120779033D01*
X140570935Y-120800000D01*
X140573000Y-120820967D01*
X140573001Y-122246418D01*
X140150000Y-122246418D01*
X140085897Y-122252732D01*
X140024257Y-122271430D01*
X139967450Y-122301794D01*
X139917657Y-122342657D01*
X139876794Y-122392450D01*
X139846430Y-122449257D01*
X139827732Y-122510897D01*
X139821418Y-122575000D01*
X139821418Y-124275000D01*
X139827732Y-124339103D01*
X139846430Y-124400743D01*
X139876794Y-124457550D01*
X139917657Y-124507343D01*
X139967450Y-124548206D01*
X140024257Y-124578570D01*
X140085897Y-124597268D01*
X140150000Y-124603582D01*
X141850000Y-124603582D01*
X141914103Y-124597268D01*
X141975743Y-124578570D01*
X142032550Y-124548206D01*
X142082343Y-124507343D01*
X142123206Y-124457550D01*
X142153570Y-124400743D01*
X142172268Y-124339103D01*
X142178582Y-124275000D01*
X142178582Y-122575000D01*
X142172268Y-122510897D01*
X142153570Y-122449257D01*
X142123206Y-122392450D01*
X142082343Y-122342657D01*
X142032550Y-122301794D01*
X141975743Y-122271430D01*
X141914103Y-122252732D01*
X141850000Y-122246418D01*
X141427000Y-122246418D01*
X141427000Y-120976868D01*
X143076900Y-119326970D01*
X144569161Y-119326970D01*
X143252900Y-120643232D01*
X143236605Y-120656605D01*
X143223233Y-120672899D01*
X143223232Y-120672900D01*
X143183245Y-120721624D01*
X143177219Y-120732899D01*
X143143595Y-120795805D01*
X143119178Y-120876294D01*
X143113000Y-120939023D01*
X143113000Y-120939033D01*
X143110935Y-120960000D01*
X143113000Y-120980967D01*
X143113001Y-122327893D01*
X142982481Y-122381956D01*
X142789706Y-122510764D01*
X142625764Y-122674706D01*
X142496956Y-122867481D01*
X142408231Y-123081682D01*
X142363000Y-123309076D01*
X142363000Y-123540924D01*
X142408231Y-123768318D01*
X142496956Y-123982519D01*
X142625764Y-124175294D01*
X142789706Y-124339236D01*
X142982481Y-124468044D01*
X143196682Y-124556769D01*
X143424076Y-124602000D01*
X143655924Y-124602000D01*
X143883318Y-124556769D01*
X144097519Y-124468044D01*
X144290294Y-124339236D01*
X144454236Y-124175294D01*
X144583044Y-123982519D01*
X144671769Y-123768318D01*
X144717000Y-123540924D01*
X144717000Y-123309076D01*
X144903000Y-123309076D01*
X144903000Y-123540924D01*
X144948231Y-123768318D01*
X145036956Y-123982519D01*
X145165764Y-124175294D01*
X145329706Y-124339236D01*
X145522481Y-124468044D01*
X145736682Y-124556769D01*
X145964076Y-124602000D01*
X146195924Y-124602000D01*
X146423318Y-124556769D01*
X146637519Y-124468044D01*
X146830294Y-124339236D01*
X146994236Y-124175294D01*
X147123044Y-123982519D01*
X147211769Y-123768318D01*
X147257000Y-123540924D01*
X147257000Y-123309076D01*
X147443000Y-123309076D01*
X147443000Y-123540924D01*
X147488231Y-123768318D01*
X147576956Y-123982519D01*
X147705764Y-124175294D01*
X147869706Y-124339236D01*
X148062481Y-124468044D01*
X148276682Y-124556769D01*
X148504076Y-124602000D01*
X148735924Y-124602000D01*
X148963318Y-124556769D01*
X149177519Y-124468044D01*
X149370294Y-124339236D01*
X149534236Y-124175294D01*
X149663044Y-123982519D01*
X149751769Y-123768318D01*
X149797000Y-123540924D01*
X149797000Y-123309076D01*
X149751769Y-123081682D01*
X149663044Y-122867481D01*
X149534236Y-122674706D01*
X149370294Y-122510764D01*
X149177519Y-122381956D01*
X148963318Y-122293231D01*
X148735924Y-122248000D01*
X148504076Y-122248000D01*
X148276682Y-122293231D01*
X148062481Y-122381956D01*
X147869706Y-122510764D01*
X147705764Y-122674706D01*
X147576956Y-122867481D01*
X147488231Y-123081682D01*
X147443000Y-123309076D01*
X147257000Y-123309076D01*
X147211769Y-123081682D01*
X147123044Y-122867481D01*
X146994236Y-122674706D01*
X146830294Y-122510764D01*
X146637519Y-122381956D01*
X146423318Y-122293231D01*
X146195924Y-122248000D01*
X145964076Y-122248000D01*
X145736682Y-122293231D01*
X145522481Y-122381956D01*
X145329706Y-122510764D01*
X145165764Y-122674706D01*
X145036956Y-122867481D01*
X144948231Y-123081682D01*
X144903000Y-123309076D01*
X144717000Y-123309076D01*
X144671769Y-123081682D01*
X144583044Y-122867481D01*
X144454236Y-122674706D01*
X144290294Y-122510764D01*
X144097519Y-122381956D01*
X143967000Y-122327893D01*
X143967000Y-121136868D01*
X145376889Y-119726980D01*
X151669151Y-119726980D01*
X150872900Y-120523232D01*
X150856605Y-120536605D01*
X150843233Y-120552899D01*
X150843232Y-120552900D01*
X150803245Y-120601624D01*
X150782052Y-120641274D01*
X150763595Y-120675805D01*
X150739178Y-120756294D01*
X150733000Y-120819023D01*
X150733000Y-120819033D01*
X150730935Y-120840000D01*
X150733000Y-120860967D01*
X150733001Y-122327893D01*
X150602481Y-122381956D01*
X150409706Y-122510764D01*
X150245764Y-122674706D01*
X150116956Y-122867481D01*
X150028231Y-123081682D01*
X149983000Y-123309076D01*
X149983000Y-123540924D01*
X150028231Y-123768318D01*
X150116956Y-123982519D01*
X150245764Y-124175294D01*
X150409706Y-124339236D01*
X150602481Y-124468044D01*
X150816682Y-124556769D01*
X151044076Y-124602000D01*
X151275924Y-124602000D01*
X151503318Y-124556769D01*
X151717519Y-124468044D01*
X151910294Y-124339236D01*
X152074236Y-124175294D01*
X152203044Y-123982519D01*
X152291769Y-123768318D01*
X152337000Y-123540924D01*
X152337000Y-123309076D01*
X152291769Y-123081682D01*
X152203044Y-122867481D01*
X152074236Y-122674706D01*
X151910294Y-122510764D01*
X151717519Y-122381956D01*
X151587000Y-122327893D01*
X151587000Y-121016868D01*
X152476879Y-120126990D01*
X154069141Y-120126990D01*
X153412900Y-120783232D01*
X153396605Y-120796605D01*
X153383233Y-120812899D01*
X153383232Y-120812900D01*
X153343245Y-120861624D01*
X153335404Y-120876294D01*
X153303595Y-120935805D01*
X153279178Y-121016294D01*
X153273000Y-121079023D01*
X153273000Y-121079033D01*
X153270935Y-121100000D01*
X153273000Y-121120967D01*
X153273001Y-122327893D01*
X153142481Y-122381956D01*
X152949706Y-122510764D01*
X152785764Y-122674706D01*
X152656956Y-122867481D01*
X152568231Y-123081682D01*
X152523000Y-123309076D01*
X152523000Y-123540924D01*
X152568231Y-123768318D01*
X152656956Y-123982519D01*
X152785764Y-124175294D01*
X152949706Y-124339236D01*
X153142481Y-124468044D01*
X153356682Y-124556769D01*
X153584076Y-124602000D01*
X153815924Y-124602000D01*
X154043318Y-124556769D01*
X154257519Y-124468044D01*
X154450294Y-124339236D01*
X154614236Y-124175294D01*
X154743044Y-123982519D01*
X154831769Y-123768318D01*
X154877000Y-123540924D01*
X154877000Y-123309076D01*
X155063000Y-123309076D01*
X155063000Y-123540924D01*
X155108231Y-123768318D01*
X155196956Y-123982519D01*
X155325764Y-124175294D01*
X155489706Y-124339236D01*
X155682481Y-124468044D01*
X155896682Y-124556769D01*
X156124076Y-124602000D01*
X156355924Y-124602000D01*
X156583318Y-124556769D01*
X156797519Y-124468044D01*
X156990294Y-124339236D01*
X157154236Y-124175294D01*
X157283044Y-123982519D01*
X157371769Y-123768318D01*
X157417000Y-123540924D01*
X157417000Y-123309076D01*
X157371769Y-123081682D01*
X157283044Y-122867481D01*
X157154236Y-122674706D01*
X156990294Y-122510764D01*
X156797519Y-122381956D01*
X156583318Y-122293231D01*
X156355924Y-122248000D01*
X156124076Y-122248000D01*
X155896682Y-122293231D01*
X155682481Y-122381956D01*
X155489706Y-122510764D01*
X155325764Y-122674706D01*
X155196956Y-122867481D01*
X155108231Y-123081682D01*
X155063000Y-123309076D01*
X154877000Y-123309076D01*
X154831769Y-123081682D01*
X154743044Y-122867481D01*
X154614236Y-122674706D01*
X154450294Y-122510764D01*
X154257519Y-122381956D01*
X154127000Y-122327893D01*
X154127000Y-121276868D01*
X154876869Y-120527000D01*
X156879033Y-120527000D01*
X156900000Y-120529065D01*
X156920967Y-120527000D01*
X156920978Y-120527000D01*
X156983707Y-120520822D01*
X157064196Y-120496405D01*
X157138376Y-120456755D01*
X157203395Y-120403395D01*
X157216768Y-120387100D01*
X158353001Y-119250868D01*
X158353001Y-122327893D01*
X158222481Y-122381956D01*
X158029706Y-122510764D01*
X157865764Y-122674706D01*
X157736956Y-122867481D01*
X157648231Y-123081682D01*
X157603000Y-123309076D01*
X157603000Y-123540924D01*
X157648231Y-123768318D01*
X157736956Y-123982519D01*
X157865764Y-124175294D01*
X158029706Y-124339236D01*
X158222481Y-124468044D01*
X158436682Y-124556769D01*
X158664076Y-124602000D01*
X158895924Y-124602000D01*
X159123318Y-124556769D01*
X159337519Y-124468044D01*
X159530294Y-124339236D01*
X159694236Y-124175294D01*
X159823044Y-123982519D01*
X159911769Y-123768318D01*
X159957000Y-123540924D01*
X159957000Y-123309076D01*
X159911769Y-123081682D01*
X159823044Y-122867481D01*
X159694236Y-122674706D01*
X159530294Y-122510764D01*
X159337519Y-122381956D01*
X159207000Y-122327893D01*
X159207000Y-119510868D01*
X160893000Y-121196869D01*
X160893001Y-122327893D01*
X160762481Y-122381956D01*
X160569706Y-122510764D01*
X160405764Y-122674706D01*
X160276956Y-122867481D01*
X160188231Y-123081682D01*
X160143000Y-123309076D01*
X160143000Y-123540924D01*
X160188231Y-123768318D01*
X160276956Y-123982519D01*
X160405764Y-124175294D01*
X160569706Y-124339236D01*
X160762481Y-124468044D01*
X160976682Y-124556769D01*
X161204076Y-124602000D01*
X161435924Y-124602000D01*
X161663318Y-124556769D01*
X161877519Y-124468044D01*
X162070294Y-124339236D01*
X162234236Y-124175294D01*
X162363044Y-123982519D01*
X162451769Y-123768318D01*
X162497000Y-123540924D01*
X162497000Y-123309076D01*
X162451769Y-123081682D01*
X162363044Y-122867481D01*
X162234236Y-122674706D01*
X162070294Y-122510764D01*
X161877519Y-122381956D01*
X161747000Y-122327893D01*
X161747000Y-121040967D01*
X161749065Y-121020000D01*
X161747000Y-120999033D01*
X161747000Y-120999022D01*
X161740822Y-120936293D01*
X161716405Y-120855804D01*
X161684335Y-120795805D01*
X161676755Y-120781623D01*
X161636768Y-120732899D01*
X161636764Y-120732895D01*
X161623395Y-120716605D01*
X161607106Y-120703237D01*
X161130869Y-120227000D01*
X162423132Y-120227000D01*
X163433000Y-121236869D01*
X163433001Y-122327893D01*
X163302481Y-122381956D01*
X163109706Y-122510764D01*
X162945764Y-122674706D01*
X162816956Y-122867481D01*
X162728231Y-123081682D01*
X162683000Y-123309076D01*
X162683000Y-123540924D01*
X162728231Y-123768318D01*
X162816956Y-123982519D01*
X162945764Y-124175294D01*
X163109706Y-124339236D01*
X163302481Y-124468044D01*
X163516682Y-124556769D01*
X163744076Y-124602000D01*
X163975924Y-124602000D01*
X164203318Y-124556769D01*
X164417519Y-124468044D01*
X164610294Y-124339236D01*
X164774236Y-124175294D01*
X164903044Y-123982519D01*
X164991769Y-123768318D01*
X165037000Y-123540924D01*
X165037000Y-123309076D01*
X164991769Y-123081682D01*
X164903044Y-122867481D01*
X164774236Y-122674706D01*
X164610294Y-122510764D01*
X164417519Y-122381956D01*
X164287000Y-122327893D01*
X164287000Y-121080966D01*
X164289065Y-121059999D01*
X164287000Y-121039032D01*
X164287000Y-121039022D01*
X164280822Y-120976293D01*
X164256405Y-120895804D01*
X164216756Y-120821625D01*
X164216755Y-120821623D01*
X164176768Y-120772899D01*
X164176764Y-120772895D01*
X164163395Y-120756605D01*
X164147106Y-120743237D01*
X162916766Y-119512898D01*
X162903395Y-119496605D01*
X162838376Y-119443245D01*
X162764196Y-119403595D01*
X162683707Y-119379178D01*
X162620978Y-119373000D01*
X162620967Y-119373000D01*
X162600000Y-119370935D01*
X162579033Y-119373000D01*
X160876869Y-119373000D01*
X160007021Y-118503153D01*
X160007021Y-104250000D01*
X165471418Y-104250000D01*
X165471418Y-104650000D01*
X165477732Y-104714103D01*
X165496430Y-104775743D01*
X165526794Y-104832550D01*
X165567657Y-104882343D01*
X165617450Y-104923206D01*
X165674257Y-104953570D01*
X165735897Y-104972268D01*
X165800000Y-104978582D01*
X166600000Y-104978582D01*
X166664103Y-104972268D01*
X166725743Y-104953570D01*
X166782550Y-104923206D01*
X166832343Y-104882343D01*
X166873206Y-104832550D01*
X166903570Y-104775743D01*
X166922268Y-104714103D01*
X166928582Y-104650000D01*
X166928582Y-104250000D01*
X166922268Y-104185897D01*
X166903570Y-104124257D01*
X166873206Y-104067450D01*
X166832343Y-104017657D01*
X166782550Y-103976794D01*
X166725743Y-103946430D01*
X166664103Y-103927732D01*
X166600000Y-103921418D01*
X165800000Y-103921418D01*
X165735897Y-103927732D01*
X165674257Y-103946430D01*
X165617450Y-103976794D01*
X165567657Y-104017657D01*
X165526794Y-104067450D01*
X165496430Y-104124257D01*
X165477732Y-104185897D01*
X165471418Y-104250000D01*
X160007021Y-104250000D01*
X160007021Y-101296847D01*
X161926869Y-99377000D01*
X162971418Y-99377000D01*
X162971418Y-99600000D01*
X162977732Y-99664103D01*
X162988621Y-99700000D01*
X162977732Y-99735897D01*
X162971418Y-99800000D01*
X162971418Y-100100000D01*
X162977732Y-100164103D01*
X162988621Y-100200000D01*
X162977732Y-100235897D01*
X162971418Y-100300000D01*
X162971418Y-100600000D01*
X162977732Y-100664103D01*
X162988621Y-100700000D01*
X162977732Y-100735897D01*
X162971418Y-100800000D01*
X162971418Y-101100000D01*
X162977732Y-101164103D01*
X162988621Y-101200000D01*
X162977732Y-101235897D01*
X162971418Y-101300000D01*
X162971418Y-101600000D01*
X162977732Y-101664103D01*
X162988621Y-101700000D01*
X162977732Y-101735897D01*
X162971418Y-101800000D01*
X162971418Y-102100000D01*
X162977732Y-102164103D01*
X162988621Y-102200000D01*
X162977732Y-102235897D01*
X162971418Y-102300000D01*
X162971418Y-102600000D01*
X162977732Y-102664103D01*
X162988621Y-102700000D01*
X162977732Y-102735897D01*
X162971418Y-102800000D01*
X162971418Y-103100000D01*
X162977732Y-103164103D01*
X162988621Y-103200000D01*
X162977732Y-103235897D01*
X162971418Y-103300000D01*
X162971418Y-103600000D01*
X162977732Y-103664103D01*
X162996430Y-103725743D01*
X163026794Y-103782550D01*
X163067657Y-103832343D01*
X163117450Y-103873206D01*
X163174257Y-103903570D01*
X163235897Y-103922268D01*
X163300000Y-103928582D01*
X164100000Y-103928582D01*
X164164103Y-103922268D01*
X164225743Y-103903570D01*
X164275452Y-103877000D01*
X168373132Y-103877000D01*
X169273000Y-104776869D01*
X169273001Y-127023130D01*
X167823132Y-128473000D01*
X165176869Y-128473000D01*
X164287000Y-127583132D01*
X164287000Y-127062107D01*
X164417519Y-127008044D01*
X164610294Y-126879236D01*
X164774236Y-126715294D01*
X164903044Y-126522519D01*
X164991769Y-126308318D01*
X165037000Y-126080924D01*
X165037000Y-125849076D01*
X164991769Y-125621682D01*
X164903044Y-125407481D01*
X164774236Y-125214706D01*
X164610294Y-125050764D01*
X164417519Y-124921956D01*
X164203318Y-124833231D01*
X163975924Y-124788000D01*
X163744076Y-124788000D01*
X163516682Y-124833231D01*
X163302481Y-124921956D01*
X163109706Y-125050764D01*
X162945764Y-125214706D01*
X162816956Y-125407481D01*
X162728231Y-125621682D01*
X162683000Y-125849076D01*
X162683000Y-126080924D01*
X162728231Y-126308318D01*
X162816956Y-126522519D01*
X162945764Y-126715294D01*
X163109706Y-126879236D01*
X163302481Y-127008044D01*
X163433000Y-127062107D01*
X163433000Y-127739033D01*
X163430935Y-127760000D01*
X163433000Y-127780967D01*
X163433000Y-127780977D01*
X163439178Y-127843706D01*
X163463595Y-127924195D01*
X163478564Y-127952200D01*
X163503245Y-127998376D01*
X163543232Y-128047100D01*
X163556605Y-128063395D01*
X163572900Y-128076768D01*
X164369131Y-128873000D01*
X163076869Y-128873000D01*
X161747000Y-127543132D01*
X161747000Y-127062107D01*
X161877519Y-127008044D01*
X162070294Y-126879236D01*
X162234236Y-126715294D01*
X162363044Y-126522519D01*
X162451769Y-126308318D01*
X162497000Y-126080924D01*
X162497000Y-125849076D01*
X162451769Y-125621682D01*
X162363044Y-125407481D01*
X162234236Y-125214706D01*
X162070294Y-125050764D01*
X161877519Y-124921956D01*
X161663318Y-124833231D01*
X161435924Y-124788000D01*
X161204076Y-124788000D01*
X160976682Y-124833231D01*
X160762481Y-124921956D01*
X160569706Y-125050764D01*
X160405764Y-125214706D01*
X160276956Y-125407481D01*
X160188231Y-125621682D01*
X160143000Y-125849076D01*
X160143000Y-126080924D01*
X160188231Y-126308318D01*
X160276956Y-126522519D01*
X160405764Y-126715294D01*
X160569706Y-126879236D01*
X160762481Y-127008044D01*
X160893000Y-127062107D01*
X160893000Y-127699033D01*
X160890935Y-127720000D01*
X160893000Y-127740967D01*
X160893000Y-127740977D01*
X160899178Y-127803706D01*
X160923595Y-127884195D01*
X160934285Y-127904195D01*
X160963245Y-127958376D01*
X160999923Y-128003068D01*
X161016605Y-128023395D01*
X161032900Y-128036768D01*
X162269141Y-129273010D01*
X160926879Y-129273010D01*
X159207000Y-127553132D01*
X159207000Y-127062107D01*
X159337519Y-127008044D01*
X159530294Y-126879236D01*
X159694236Y-126715294D01*
X159823044Y-126522519D01*
X159911769Y-126308318D01*
X159957000Y-126080924D01*
X159957000Y-125849076D01*
X159911769Y-125621682D01*
X159823044Y-125407481D01*
X159694236Y-125214706D01*
X159530294Y-125050764D01*
X159337519Y-124921956D01*
X159123318Y-124833231D01*
X158895924Y-124788000D01*
X158664076Y-124788000D01*
X158436682Y-124833231D01*
X158222481Y-124921956D01*
X158029706Y-125050764D01*
X157865764Y-125214706D01*
X157736956Y-125407481D01*
X157648231Y-125621682D01*
X157603000Y-125849076D01*
X157603000Y-126080924D01*
X157648231Y-126308318D01*
X157736956Y-126522519D01*
X157865764Y-126715294D01*
X158029706Y-126879236D01*
X158222481Y-127008044D01*
X158353000Y-127062107D01*
X158353000Y-127709033D01*
X158350935Y-127730000D01*
X158353000Y-127750967D01*
X158353000Y-127750977D01*
X158359178Y-127813706D01*
X158383595Y-127894195D01*
X158388940Y-127904195D01*
X158423245Y-127968376D01*
X158455025Y-128007100D01*
X158476605Y-128033395D01*
X158492900Y-128046768D01*
X160119151Y-129673020D01*
X153576889Y-129673020D01*
X151527000Y-127623132D01*
X151527000Y-127086960D01*
X151717519Y-127008044D01*
X151910294Y-126879236D01*
X152074236Y-126715294D01*
X152203044Y-126522519D01*
X152291769Y-126308318D01*
X152337000Y-126080924D01*
X152337000Y-125849076D01*
X152523000Y-125849076D01*
X152523000Y-126080924D01*
X152568231Y-126308318D01*
X152656956Y-126522519D01*
X152785764Y-126715294D01*
X152949706Y-126879236D01*
X153142481Y-127008044D01*
X153356682Y-127096769D01*
X153584076Y-127142000D01*
X153815924Y-127142000D01*
X154043318Y-127096769D01*
X154257519Y-127008044D01*
X154450294Y-126879236D01*
X154614236Y-126715294D01*
X154743044Y-126522519D01*
X154831769Y-126308318D01*
X154877000Y-126080924D01*
X154877000Y-125849076D01*
X155063000Y-125849076D01*
X155063000Y-126080924D01*
X155108231Y-126308318D01*
X155196956Y-126522519D01*
X155325764Y-126715294D01*
X155489706Y-126879236D01*
X155682481Y-127008044D01*
X155896682Y-127096769D01*
X156124076Y-127142000D01*
X156355924Y-127142000D01*
X156583318Y-127096769D01*
X156797519Y-127008044D01*
X156990294Y-126879236D01*
X157154236Y-126715294D01*
X157283044Y-126522519D01*
X157371769Y-126308318D01*
X157417000Y-126080924D01*
X157417000Y-125849076D01*
X157371769Y-125621682D01*
X157283044Y-125407481D01*
X157154236Y-125214706D01*
X156990294Y-125050764D01*
X156797519Y-124921956D01*
X156583318Y-124833231D01*
X156355924Y-124788000D01*
X156124076Y-124788000D01*
X155896682Y-124833231D01*
X155682481Y-124921956D01*
X155489706Y-125050764D01*
X155325764Y-125214706D01*
X155196956Y-125407481D01*
X155108231Y-125621682D01*
X155063000Y-125849076D01*
X154877000Y-125849076D01*
X154831769Y-125621682D01*
X154743044Y-125407481D01*
X154614236Y-125214706D01*
X154450294Y-125050764D01*
X154257519Y-124921956D01*
X154043318Y-124833231D01*
X153815924Y-124788000D01*
X153584076Y-124788000D01*
X153356682Y-124833231D01*
X153142481Y-124921956D01*
X152949706Y-125050764D01*
X152785764Y-125214706D01*
X152656956Y-125407481D01*
X152568231Y-125621682D01*
X152523000Y-125849076D01*
X152337000Y-125849076D01*
X152291769Y-125621682D01*
X152203044Y-125407481D01*
X152074236Y-125214706D01*
X151910294Y-125050764D01*
X151717519Y-124921956D01*
X151503318Y-124833231D01*
X151275924Y-124788000D01*
X151044076Y-124788000D01*
X150816682Y-124833231D01*
X150602481Y-124921956D01*
X150409706Y-125050764D01*
X150245764Y-125214706D01*
X150116956Y-125407481D01*
X150028231Y-125621682D01*
X149983000Y-125849076D01*
X149983000Y-126080924D01*
X150028231Y-126308318D01*
X150116956Y-126522519D01*
X150245764Y-126715294D01*
X150409706Y-126879236D01*
X150602481Y-127008044D01*
X150673000Y-127037254D01*
X150673000Y-127779033D01*
X150670935Y-127800000D01*
X150673000Y-127820967D01*
X150673000Y-127820977D01*
X150679178Y-127883706D01*
X150703595Y-127964195D01*
X150711175Y-127978376D01*
X150743245Y-128038376D01*
X150782949Y-128086755D01*
X150796605Y-128103395D01*
X150812900Y-128116768D01*
X152769161Y-130073030D01*
X151476899Y-130073030D01*
X149047000Y-127643132D01*
X149047000Y-127062107D01*
X149177519Y-127008044D01*
X149370294Y-126879236D01*
X149534236Y-126715294D01*
X149663044Y-126522519D01*
X149751769Y-126308318D01*
X149797000Y-126080924D01*
X149797000Y-125849076D01*
X149751769Y-125621682D01*
X149663044Y-125407481D01*
X149534236Y-125214706D01*
X149370294Y-125050764D01*
X149177519Y-124921956D01*
X148963318Y-124833231D01*
X148735924Y-124788000D01*
X148504076Y-124788000D01*
X148276682Y-124833231D01*
X148062481Y-124921956D01*
X147869706Y-125050764D01*
X147705764Y-125214706D01*
X147576956Y-125407481D01*
X147488231Y-125621682D01*
X147443000Y-125849076D01*
X147443000Y-126080924D01*
X147488231Y-126308318D01*
X147576956Y-126522519D01*
X147705764Y-126715294D01*
X147869706Y-126879236D01*
X148062481Y-127008044D01*
X148193000Y-127062107D01*
X148193000Y-127799033D01*
X148190935Y-127820000D01*
X148193000Y-127840967D01*
X148193000Y-127840977D01*
X148199178Y-127903706D01*
X148223595Y-127984195D01*
X148231175Y-127998376D01*
X148263245Y-128058376D01*
X148303232Y-128107100D01*
X148316605Y-128123395D01*
X148332900Y-128136768D01*
X150669171Y-130473040D01*
X149376909Y-130473040D01*
X146507000Y-127603132D01*
X146507000Y-127062107D01*
X146637519Y-127008044D01*
X146830294Y-126879236D01*
X146994236Y-126715294D01*
X147123044Y-126522519D01*
X147211769Y-126308318D01*
X147257000Y-126080924D01*
X147257000Y-125849076D01*
X147211769Y-125621682D01*
X147123044Y-125407481D01*
X146994236Y-125214706D01*
X146830294Y-125050764D01*
X146637519Y-124921956D01*
X146423318Y-124833231D01*
X146195924Y-124788000D01*
X145964076Y-124788000D01*
X145736682Y-124833231D01*
X145522481Y-124921956D01*
X145329706Y-125050764D01*
X145165764Y-125214706D01*
X145036956Y-125407481D01*
X144948231Y-125621682D01*
X144903000Y-125849076D01*
X144903000Y-126080924D01*
X144948231Y-126308318D01*
X145036956Y-126522519D01*
X145165764Y-126715294D01*
X145329706Y-126879236D01*
X145522481Y-127008044D01*
X145653000Y-127062107D01*
X145653000Y-127759033D01*
X145650935Y-127780000D01*
X145653000Y-127800967D01*
X145653000Y-127800977D01*
X145659178Y-127863706D01*
X145683595Y-127944195D01*
X145696520Y-127968376D01*
X145723245Y-128018376D01*
X145763232Y-128067100D01*
X145776605Y-128083395D01*
X145792900Y-128096768D01*
X148569181Y-130873050D01*
X147276919Y-130873050D01*
X143967000Y-127563132D01*
X143967000Y-127062107D01*
X144097519Y-127008044D01*
X144290294Y-126879236D01*
X144454236Y-126715294D01*
X144583044Y-126522519D01*
X144671769Y-126308318D01*
X144717000Y-126080924D01*
X144717000Y-125849076D01*
X144671769Y-125621682D01*
X144583044Y-125407481D01*
X144454236Y-125214706D01*
X144290294Y-125050764D01*
X144097519Y-124921956D01*
X143883318Y-124833231D01*
X143655924Y-124788000D01*
X143424076Y-124788000D01*
X143196682Y-124833231D01*
X142982481Y-124921956D01*
X142789706Y-125050764D01*
X142625764Y-125214706D01*
X142496956Y-125407481D01*
X142408231Y-125621682D01*
X142363000Y-125849076D01*
X142363000Y-126080924D01*
X142408231Y-126308318D01*
X142496956Y-126522519D01*
X142625764Y-126715294D01*
X142789706Y-126879236D01*
X142982481Y-127008044D01*
X143113000Y-127062107D01*
X143113000Y-127719033D01*
X143110935Y-127740000D01*
X143113000Y-127760967D01*
X143113000Y-127760977D01*
X143119178Y-127823706D01*
X143143595Y-127904195D01*
X143143596Y-127904196D01*
X143183245Y-127978376D01*
X143223232Y-128027100D01*
X143236605Y-128043395D01*
X143252900Y-128056768D01*
X146469191Y-131273060D01*
X145076929Y-131273060D01*
X141427000Y-127623132D01*
X141427000Y-127062107D01*
X141557519Y-127008044D01*
X141750294Y-126879236D01*
X141914236Y-126715294D01*
X142043044Y-126522519D01*
X142131769Y-126308318D01*
X142177000Y-126080924D01*
X142177000Y-125849076D01*
X142131769Y-125621682D01*
X142043044Y-125407481D01*
X141914236Y-125214706D01*
X141750294Y-125050764D01*
X141557519Y-124921956D01*
X141343318Y-124833231D01*
X141115924Y-124788000D01*
X140884076Y-124788000D01*
X140656682Y-124833231D01*
X140442481Y-124921956D01*
X140249706Y-125050764D01*
X140085764Y-125214706D01*
X139956956Y-125407481D01*
X139868231Y-125621682D01*
X139823000Y-125849076D01*
X139823000Y-126080924D01*
X139868231Y-126308318D01*
X139956956Y-126522519D01*
X140085764Y-126715294D01*
X140249706Y-126879236D01*
X140442481Y-127008044D01*
X140573000Y-127062107D01*
X140573000Y-127779033D01*
X140570935Y-127800000D01*
X140573000Y-127820967D01*
X140573000Y-127820977D01*
X140579178Y-127883706D01*
X140603595Y-127964195D01*
X140611175Y-127978376D01*
X140643245Y-128038376D01*
X140682949Y-128086755D01*
X140696605Y-128103395D01*
X140712900Y-128116768D01*
X144583296Y-131987165D01*
X144596665Y-132003455D01*
X144612955Y-132016824D01*
X144612959Y-132016828D01*
X144661683Y-132056816D01*
X144718598Y-132087236D01*
X144735864Y-132096465D01*
X144816353Y-132120882D01*
X144879082Y-132127060D01*
X144879093Y-132127060D01*
X144900060Y-132129125D01*
X144921027Y-132127060D01*
X169138866Y-132127060D01*
X169159833Y-132129125D01*
X169180800Y-132127060D01*
X169180811Y-132127060D01*
X169243540Y-132120882D01*
X169324029Y-132096465D01*
X169398209Y-132056815D01*
X169463228Y-132003455D01*
X169476601Y-131987160D01*
X172787175Y-128676587D01*
X172803465Y-128663218D01*
X172816834Y-128646928D01*
X172816837Y-128646925D01*
X172856825Y-128598200D01*
X172896474Y-128524020D01*
X172896475Y-128524019D01*
X172920892Y-128443530D01*
X172927070Y-128380801D01*
X172927070Y-128380781D01*
X172929134Y-128359824D01*
X172927070Y-128338867D01*
X172927070Y-103461144D01*
X172929135Y-103440177D01*
X172927070Y-103419210D01*
X172927070Y-103419199D01*
X172920892Y-103356470D01*
X172898468Y-103282550D01*
X172896475Y-103275980D01*
X172856826Y-103201800D01*
X172816838Y-103153076D01*
X172816834Y-103153072D01*
X172803465Y-103136782D01*
X172787176Y-103123415D01*
X169383815Y-99720054D01*
X170987112Y-98116758D01*
X171003395Y-98103395D01*
X171016759Y-98087111D01*
X171016768Y-98087102D01*
X171056755Y-98038377D01*
X171089170Y-97977732D01*
X171096405Y-97964196D01*
X171120822Y-97883707D01*
X171127000Y-97820978D01*
X171127000Y-97820966D01*
X171129065Y-97800001D01*
X171127000Y-97779036D01*
X171127000Y-73820966D01*
X171129065Y-73799999D01*
X171127000Y-73779032D01*
X171127000Y-73779022D01*
X171120822Y-73716293D01*
X171096405Y-73635804D01*
X171077948Y-73601273D01*
X171056755Y-73561623D01*
X171016768Y-73512899D01*
X171016764Y-73512895D01*
X171003395Y-73496605D01*
X170987105Y-73483236D01*
X169316768Y-71812900D01*
X169303395Y-71796605D01*
X169238376Y-71743245D01*
X169164196Y-71703595D01*
X169083707Y-71679178D01*
X169020978Y-71673000D01*
X169020967Y-71673000D01*
X169000000Y-71670935D01*
X168979033Y-71673000D01*
X139920967Y-71673000D01*
X139900000Y-71670935D01*
X139879033Y-71673000D01*
X139879022Y-71673000D01*
X139816293Y-71679178D01*
X139754537Y-71697912D01*
X139735803Y-71703595D01*
X139661624Y-71743244D01*
X139612899Y-71783232D01*
X139612895Y-71783236D01*
X139596605Y-71796605D01*
X139583236Y-71812895D01*
X138172900Y-73223232D01*
X138156605Y-73236605D01*
X138143233Y-73252899D01*
X138143232Y-73252900D01*
X138103245Y-73301624D01*
X138082052Y-73341274D01*
X138063595Y-73375805D01*
X138039178Y-73456294D01*
X138033000Y-73519023D01*
X138033000Y-73519033D01*
X138030935Y-73540000D01*
X138033000Y-73560967D01*
X138033000Y-74060293D01*
X137902481Y-74114356D01*
X137709706Y-74243164D01*
X137545764Y-74407106D01*
X137416956Y-74599881D01*
X137348736Y-74764579D01*
X137264157Y-74526148D01*
X137115178Y-74276045D01*
X136920269Y-74059812D01*
X136686920Y-73885759D01*
X136424099Y-73760575D01*
X136276890Y-73715924D01*
X136047000Y-73837245D01*
X135793000Y-73837245D01*
X135563110Y-73715924D01*
X135415901Y-73760575D01*
X135153080Y-73885759D01*
X134919731Y-74059812D01*
X134724822Y-74276045D01*
X134575843Y-74526148D01*
X134478519Y-74800509D01*
X134052000Y-74800509D01*
X134052000Y-70852000D01*
X180048001Y-70852000D01*
X180048000Y-134148000D01*
G04 #@! TA.AperFunction,Conductor*
D18*
G36*
X180048000Y-134148000D02*
G01*
X104852000Y-134148000D01*
X104852000Y-125115000D01*
X116961418Y-125115000D01*
X116961418Y-126815000D01*
X116967732Y-126879103D01*
X116986430Y-126940743D01*
X117016794Y-126997550D01*
X117057657Y-127047343D01*
X117107450Y-127088206D01*
X117164257Y-127118570D01*
X117225897Y-127137268D01*
X117290000Y-127143582D01*
X118990000Y-127143582D01*
X119054103Y-127137268D01*
X119115743Y-127118570D01*
X119172550Y-127088206D01*
X119222343Y-127047343D01*
X119263206Y-126997550D01*
X119293570Y-126940743D01*
X119312268Y-126879103D01*
X119318582Y-126815000D01*
X119318582Y-125849076D01*
X119503000Y-125849076D01*
X119503000Y-126080924D01*
X119548231Y-126308318D01*
X119636956Y-126522519D01*
X119765764Y-126715294D01*
X119929706Y-126879236D01*
X120122481Y-127008044D01*
X120336682Y-127096769D01*
X120564076Y-127142000D01*
X120795924Y-127142000D01*
X121023318Y-127096769D01*
X121237519Y-127008044D01*
X121430294Y-126879236D01*
X121594236Y-126715294D01*
X121723044Y-126522519D01*
X121811769Y-126308318D01*
X121857000Y-126080924D01*
X121857000Y-125849076D01*
X122043000Y-125849076D01*
X122043000Y-126080924D01*
X122088231Y-126308318D01*
X122176956Y-126522519D01*
X122305764Y-126715294D01*
X122469706Y-126879236D01*
X122662481Y-127008044D01*
X122876682Y-127096769D01*
X123104076Y-127142000D01*
X123335924Y-127142000D01*
X123563318Y-127096769D01*
X123777519Y-127008044D01*
X123970294Y-126879236D01*
X124134236Y-126715294D01*
X124263044Y-126522519D01*
X124351769Y-126308318D01*
X124397000Y-126080924D01*
X124397000Y-125849076D01*
X124351769Y-125621682D01*
X124263044Y-125407481D01*
X124134236Y-125214706D01*
X123970294Y-125050764D01*
X123777519Y-124921956D01*
X123563318Y-124833231D01*
X123335924Y-124788000D01*
X123104076Y-124788000D01*
X122876682Y-124833231D01*
X122662481Y-124921956D01*
X122469706Y-125050764D01*
X122305764Y-125214706D01*
X122176956Y-125407481D01*
X122088231Y-125621682D01*
X122043000Y-125849076D01*
X121857000Y-125849076D01*
X121811769Y-125621682D01*
X121723044Y-125407481D01*
X121594236Y-125214706D01*
X121430294Y-125050764D01*
X121237519Y-124921956D01*
X121023318Y-124833231D01*
X120795924Y-124788000D01*
X120564076Y-124788000D01*
X120336682Y-124833231D01*
X120122481Y-124921956D01*
X119929706Y-125050764D01*
X119765764Y-125214706D01*
X119636956Y-125407481D01*
X119548231Y-125621682D01*
X119503000Y-125849076D01*
X119318582Y-125849076D01*
X119318582Y-125115000D01*
X119312268Y-125050897D01*
X119293570Y-124989257D01*
X119263206Y-124932450D01*
X119222343Y-124882657D01*
X119172550Y-124841794D01*
X119115743Y-124811430D01*
X119054103Y-124792732D01*
X118990000Y-124786418D01*
X117290000Y-124786418D01*
X117225897Y-124792732D01*
X117164257Y-124811430D01*
X117107450Y-124841794D01*
X117057657Y-124882657D01*
X117016794Y-124932450D01*
X116986430Y-124989257D01*
X116967732Y-125050897D01*
X116961418Y-125115000D01*
X104852000Y-125115000D01*
X104852000Y-97784076D01*
X113133000Y-97784076D01*
X113133000Y-98015924D01*
X113178231Y-98243318D01*
X113266956Y-98457519D01*
X113395764Y-98650294D01*
X113483000Y-98737530D01*
X113483001Y-101662469D01*
X113395764Y-101749706D01*
X113266956Y-101942481D01*
X113178231Y-102156682D01*
X113133000Y-102384076D01*
X113133000Y-102615924D01*
X113178231Y-102843318D01*
X113266956Y-103057519D01*
X113395764Y-103250294D01*
X113533001Y-103387531D01*
X113533000Y-106362470D01*
X113445764Y-106449706D01*
X113316956Y-106642481D01*
X113228231Y-106856682D01*
X113183000Y-107084076D01*
X113183000Y-107315924D01*
X113228231Y-107543318D01*
X113316956Y-107757519D01*
X113445764Y-107950294D01*
X113533001Y-108037531D01*
X113533000Y-111019386D01*
X113529000Y-111060000D01*
X113533000Y-111100614D01*
X113533000Y-111100623D01*
X113544966Y-111222119D01*
X113592255Y-111378009D01*
X113592256Y-111378010D01*
X113669048Y-111521679D01*
X113720725Y-111584647D01*
X113772394Y-111647606D01*
X113803952Y-111673505D01*
X124933001Y-122802556D01*
X124933000Y-125127470D01*
X124845764Y-125214706D01*
X124716956Y-125407481D01*
X124628231Y-125621682D01*
X124583000Y-125849076D01*
X124583000Y-126080924D01*
X124628231Y-126308318D01*
X124716956Y-126522519D01*
X124845764Y-126715294D01*
X125009706Y-126879236D01*
X125202481Y-127008044D01*
X125416682Y-127096769D01*
X125644076Y-127142000D01*
X125875924Y-127142000D01*
X126103318Y-127096769D01*
X126317519Y-127008044D01*
X126510294Y-126879236D01*
X126674236Y-126715294D01*
X126803044Y-126522519D01*
X126891769Y-126308318D01*
X126937000Y-126080924D01*
X126937000Y-125849076D01*
X127123000Y-125849076D01*
X127123000Y-126080924D01*
X127168231Y-126308318D01*
X127256956Y-126522519D01*
X127385764Y-126715294D01*
X127549706Y-126879236D01*
X127742481Y-127008044D01*
X127956682Y-127096769D01*
X128184076Y-127142000D01*
X128415924Y-127142000D01*
X128643318Y-127096769D01*
X128857519Y-127008044D01*
X129050294Y-126879236D01*
X129214236Y-126715294D01*
X129343044Y-126522519D01*
X129411264Y-126357821D01*
X129495843Y-126596252D01*
X129644822Y-126846355D01*
X129839731Y-127062588D01*
X130073080Y-127236641D01*
X130335901Y-127361825D01*
X130483110Y-127406476D01*
X130713000Y-127285155D01*
X130713000Y-126092000D01*
X130693000Y-126092000D01*
X130693000Y-125838000D01*
X130713000Y-125838000D01*
X130713000Y-124644845D01*
X130967000Y-124644845D01*
X130967000Y-125838000D01*
X130987000Y-125838000D01*
X130987000Y-126092000D01*
X130967000Y-126092000D01*
X130967000Y-127285155D01*
X131196890Y-127406476D01*
X131344099Y-127361825D01*
X131606920Y-127236641D01*
X131840269Y-127062588D01*
X132035178Y-126846355D01*
X132184157Y-126596252D01*
X132268736Y-126357821D01*
X132336956Y-126522519D01*
X132465764Y-126715294D01*
X132629706Y-126879236D01*
X132822481Y-127008044D01*
X133036682Y-127096769D01*
X133264076Y-127142000D01*
X133495924Y-127142000D01*
X133723318Y-127096769D01*
X133937519Y-127008044D01*
X134130294Y-126879236D01*
X134294236Y-126715294D01*
X134423044Y-126522519D01*
X134511769Y-126308318D01*
X134557000Y-126080924D01*
X134557000Y-125849076D01*
X134743000Y-125849076D01*
X134743000Y-126080924D01*
X134788231Y-126308318D01*
X134876956Y-126522519D01*
X135005764Y-126715294D01*
X135169706Y-126879236D01*
X135362481Y-127008044D01*
X135576682Y-127096769D01*
X135804076Y-127142000D01*
X136035924Y-127142000D01*
X136263318Y-127096769D01*
X136477519Y-127008044D01*
X136670294Y-126879236D01*
X136834236Y-126715294D01*
X136963044Y-126522519D01*
X137051769Y-126308318D01*
X137097000Y-126080924D01*
X137097000Y-125849076D01*
X137051769Y-125621682D01*
X136963044Y-125407481D01*
X136834236Y-125214706D01*
X136670294Y-125050764D01*
X136477519Y-124921956D01*
X136263318Y-124833231D01*
X136035924Y-124788000D01*
X135804076Y-124788000D01*
X135576682Y-124833231D01*
X135362481Y-124921956D01*
X135169706Y-125050764D01*
X135005764Y-125214706D01*
X134876956Y-125407481D01*
X134788231Y-125621682D01*
X134743000Y-125849076D01*
X134557000Y-125849076D01*
X134511769Y-125621682D01*
X134423044Y-125407481D01*
X134294236Y-125214706D01*
X134130294Y-125050764D01*
X133937519Y-124921956D01*
X133723318Y-124833231D01*
X133495924Y-124788000D01*
X133264076Y-124788000D01*
X133036682Y-124833231D01*
X132822481Y-124921956D01*
X132629706Y-125050764D01*
X132465764Y-125214706D01*
X132336956Y-125407481D01*
X132268736Y-125572179D01*
X132184157Y-125333748D01*
X132035178Y-125083645D01*
X131840269Y-124867412D01*
X131606920Y-124693359D01*
X131344099Y-124568175D01*
X131196890Y-124523524D01*
X130967000Y-124644845D01*
X130713000Y-124644845D01*
X130483110Y-124523524D01*
X130335901Y-124568175D01*
X130073080Y-124693359D01*
X129839731Y-124867412D01*
X129644822Y-125083645D01*
X129495843Y-125333748D01*
X129411264Y-125572179D01*
X129343044Y-125407481D01*
X129214236Y-125214706D01*
X129050294Y-125050764D01*
X128857519Y-124921956D01*
X128643318Y-124833231D01*
X128415924Y-124788000D01*
X128184076Y-124788000D01*
X127956682Y-124833231D01*
X127742481Y-124921956D01*
X127549706Y-125050764D01*
X127385764Y-125214706D01*
X127256956Y-125407481D01*
X127168231Y-125621682D01*
X127123000Y-125849076D01*
X126937000Y-125849076D01*
X126891769Y-125621682D01*
X126803044Y-125407481D01*
X126674236Y-125214706D01*
X126587000Y-125127470D01*
X126587000Y-122500614D01*
X126591000Y-122460000D01*
X126587000Y-122419386D01*
X126587000Y-122419376D01*
X126575034Y-122297880D01*
X126527745Y-122141990D01*
X126491998Y-122075113D01*
X126450952Y-121998320D01*
X126373503Y-121903948D01*
X126373496Y-121903941D01*
X126347606Y-121872394D01*
X126316059Y-121846504D01*
X115187000Y-110717447D01*
X115187000Y-109856890D01*
X135158524Y-109856890D01*
X135203175Y-110004099D01*
X135328359Y-110266920D01*
X135502412Y-110500269D01*
X135718645Y-110695178D01*
X135968748Y-110844157D01*
X136243109Y-110941481D01*
X136473000Y-110820814D01*
X136473000Y-109627000D01*
X136727000Y-109627000D01*
X136727000Y-110820814D01*
X136956891Y-110941481D01*
X137231252Y-110844157D01*
X137481355Y-110695178D01*
X137697588Y-110500269D01*
X137871641Y-110266920D01*
X137971680Y-110056890D01*
X142358524Y-110056890D01*
X142403175Y-110204099D01*
X142528359Y-110466920D01*
X142702412Y-110700269D01*
X142918645Y-110895178D01*
X143168748Y-111044157D01*
X143443109Y-111141481D01*
X143673000Y-111020814D01*
X143673000Y-109827000D01*
X143927000Y-109827000D01*
X143927000Y-111020814D01*
X144156891Y-111141481D01*
X144431252Y-111044157D01*
X144681355Y-110895178D01*
X144897588Y-110700269D01*
X145071641Y-110466920D01*
X145196825Y-110204099D01*
X145241476Y-110056890D01*
X145120155Y-109827000D01*
X143927000Y-109827000D01*
X143673000Y-109827000D01*
X142479845Y-109827000D01*
X142358524Y-110056890D01*
X137971680Y-110056890D01*
X137996825Y-110004099D01*
X138041476Y-109856890D01*
X137920155Y-109627000D01*
X136727000Y-109627000D01*
X136473000Y-109627000D01*
X135279845Y-109627000D01*
X135158524Y-109856890D01*
X115187000Y-109856890D01*
X115187000Y-109143110D01*
X135158524Y-109143110D01*
X135279845Y-109373000D01*
X136473000Y-109373000D01*
X136473000Y-109353000D01*
X136727000Y-109353000D01*
X136727000Y-109373000D01*
X137920155Y-109373000D01*
X137935928Y-109343110D01*
X142358524Y-109343110D01*
X142479845Y-109573000D01*
X143673000Y-109573000D01*
X143673000Y-109553000D01*
X143927000Y-109553000D01*
X143927000Y-109573000D01*
X145120155Y-109573000D01*
X145241476Y-109343110D01*
X145196825Y-109195901D01*
X145071641Y-108933080D01*
X144897588Y-108699731D01*
X144681355Y-108504822D01*
X144431252Y-108355843D01*
X144382592Y-108338582D01*
X144650000Y-108338582D01*
X144714103Y-108332268D01*
X144775743Y-108313570D01*
X144832550Y-108283206D01*
X144882343Y-108242343D01*
X144923206Y-108192550D01*
X144953570Y-108135743D01*
X144972268Y-108074103D01*
X144978582Y-108010000D01*
X144978582Y-106310000D01*
X144972268Y-106245897D01*
X144953570Y-106184257D01*
X144923206Y-106127450D01*
X144882343Y-106077657D01*
X144832550Y-106036794D01*
X144775743Y-106006430D01*
X144714103Y-105987732D01*
X144650000Y-105981418D01*
X144377000Y-105981418D01*
X144377000Y-101570027D01*
X144550294Y-101454236D01*
X144714236Y-101290294D01*
X144843044Y-101097519D01*
X144931769Y-100883318D01*
X144977000Y-100655924D01*
X144977000Y-100424076D01*
X144931769Y-100196682D01*
X144843044Y-99982481D01*
X144714236Y-99789706D01*
X144550294Y-99625764D01*
X144357519Y-99496956D01*
X144143318Y-99408231D01*
X143915924Y-99363000D01*
X143684076Y-99363000D01*
X143456682Y-99408231D01*
X143242481Y-99496956D01*
X143049706Y-99625764D01*
X142885764Y-99789706D01*
X142756956Y-99982481D01*
X142668231Y-100196682D01*
X142623000Y-100424076D01*
X142623000Y-100655924D01*
X142668231Y-100883318D01*
X142756956Y-101097519D01*
X142885764Y-101290294D01*
X143049706Y-101454236D01*
X143223001Y-101570028D01*
X143223000Y-105981418D01*
X142950000Y-105981418D01*
X142885897Y-105987732D01*
X142824257Y-106006430D01*
X142767450Y-106036794D01*
X142717657Y-106077657D01*
X142676794Y-106127450D01*
X142646430Y-106184257D01*
X142627732Y-106245897D01*
X142621418Y-106310000D01*
X142621418Y-108010000D01*
X142627732Y-108074103D01*
X142646430Y-108135743D01*
X142676794Y-108192550D01*
X142717657Y-108242343D01*
X142767450Y-108283206D01*
X142824257Y-108313570D01*
X142885897Y-108332268D01*
X142950000Y-108338582D01*
X143217408Y-108338582D01*
X143168748Y-108355843D01*
X142918645Y-108504822D01*
X142702412Y-108699731D01*
X142528359Y-108933080D01*
X142403175Y-109195901D01*
X142358524Y-109343110D01*
X137935928Y-109343110D01*
X138041476Y-109143110D01*
X137996825Y-108995901D01*
X137871641Y-108733080D01*
X137697588Y-108499731D01*
X137481355Y-108304822D01*
X137231252Y-108155843D01*
X137182592Y-108138582D01*
X137450000Y-108138582D01*
X137514103Y-108132268D01*
X137575743Y-108113570D01*
X137632550Y-108083206D01*
X137682343Y-108042343D01*
X137723206Y-107992550D01*
X137753570Y-107935743D01*
X137772268Y-107874103D01*
X137778582Y-107810000D01*
X137778582Y-106110000D01*
X137772268Y-106045897D01*
X137753570Y-105984257D01*
X137723206Y-105927450D01*
X137682343Y-105877657D01*
X137632550Y-105836794D01*
X137575743Y-105806430D01*
X137514103Y-105787732D01*
X137450000Y-105781418D01*
X137177000Y-105781418D01*
X137177000Y-101516396D01*
X137257519Y-101483044D01*
X137450294Y-101354236D01*
X137614236Y-101190294D01*
X137743044Y-100997519D01*
X137831769Y-100783318D01*
X137877000Y-100555924D01*
X137877000Y-100324076D01*
X137831769Y-100096682D01*
X137743044Y-99882481D01*
X137614236Y-99689706D01*
X137450294Y-99525764D01*
X137257519Y-99396956D01*
X137043318Y-99308231D01*
X136815924Y-99263000D01*
X136584076Y-99263000D01*
X136356682Y-99308231D01*
X136142481Y-99396956D01*
X135949706Y-99525764D01*
X135785764Y-99689706D01*
X135656956Y-99882481D01*
X135568231Y-100096682D01*
X135523000Y-100324076D01*
X135523000Y-100555924D01*
X135568231Y-100783318D01*
X135656956Y-100997519D01*
X135785764Y-101190294D01*
X135949706Y-101354236D01*
X136023001Y-101403210D01*
X136023000Y-105781418D01*
X135750000Y-105781418D01*
X135685897Y-105787732D01*
X135624257Y-105806430D01*
X135567450Y-105836794D01*
X135517657Y-105877657D01*
X135476794Y-105927450D01*
X135446430Y-105984257D01*
X135427732Y-106045897D01*
X135421418Y-106110000D01*
X135421418Y-107810000D01*
X135427732Y-107874103D01*
X135446430Y-107935743D01*
X135476794Y-107992550D01*
X135517657Y-108042343D01*
X135567450Y-108083206D01*
X135624257Y-108113570D01*
X135685897Y-108132268D01*
X135750000Y-108138582D01*
X136017408Y-108138582D01*
X135968748Y-108155843D01*
X135718645Y-108304822D01*
X135502412Y-108499731D01*
X135328359Y-108733080D01*
X135203175Y-108995901D01*
X135158524Y-109143110D01*
X115187000Y-109143110D01*
X115187000Y-108037530D01*
X115274236Y-107950294D01*
X115403044Y-107757519D01*
X115491769Y-107543318D01*
X115537000Y-107315924D01*
X115537000Y-107084076D01*
X115491769Y-106856682D01*
X115403044Y-106642481D01*
X115274236Y-106449706D01*
X115187000Y-106362470D01*
X115187000Y-106350000D01*
X115721418Y-106350000D01*
X115721418Y-108050000D01*
X115727732Y-108114103D01*
X115746430Y-108175743D01*
X115776794Y-108232550D01*
X115817657Y-108282343D01*
X115867450Y-108323206D01*
X115924257Y-108353570D01*
X115985897Y-108372268D01*
X116050000Y-108378582D01*
X117750000Y-108378582D01*
X117814103Y-108372268D01*
X117875743Y-108353570D01*
X117932550Y-108323206D01*
X117982343Y-108282343D01*
X118023206Y-108232550D01*
X118053570Y-108175743D01*
X118072268Y-108114103D01*
X118078582Y-108050000D01*
X118078582Y-106350000D01*
X118072268Y-106285897D01*
X118053570Y-106224257D01*
X118023206Y-106167450D01*
X117982343Y-106117657D01*
X117932550Y-106076794D01*
X117875743Y-106046430D01*
X117814103Y-106027732D01*
X117750000Y-106021418D01*
X116050000Y-106021418D01*
X115985897Y-106027732D01*
X115924257Y-106046430D01*
X115867450Y-106076794D01*
X115817657Y-106117657D01*
X115776794Y-106167450D01*
X115746430Y-106224257D01*
X115727732Y-106285897D01*
X115721418Y-106350000D01*
X115187000Y-106350000D01*
X115187000Y-103287530D01*
X115224236Y-103250294D01*
X115353044Y-103057519D01*
X115441769Y-102843318D01*
X115487000Y-102615924D01*
X115487000Y-102384076D01*
X115441769Y-102156682D01*
X115353044Y-101942481D01*
X115224236Y-101749706D01*
X115137000Y-101662470D01*
X115137000Y-101650000D01*
X115671418Y-101650000D01*
X115671418Y-103350000D01*
X115677732Y-103414103D01*
X115696430Y-103475743D01*
X115726794Y-103532550D01*
X115767657Y-103582343D01*
X115817450Y-103623206D01*
X115874257Y-103653570D01*
X115935897Y-103672268D01*
X116000000Y-103678582D01*
X117700000Y-103678582D01*
X117764103Y-103672268D01*
X117825743Y-103653570D01*
X117882550Y-103623206D01*
X117932343Y-103582343D01*
X117973206Y-103532550D01*
X118003570Y-103475743D01*
X118022268Y-103414103D01*
X118028582Y-103350000D01*
X118028582Y-101650000D01*
X118022268Y-101585897D01*
X118003570Y-101524257D01*
X117973206Y-101467450D01*
X117932343Y-101417657D01*
X117882550Y-101376794D01*
X117825743Y-101346430D01*
X117764103Y-101327732D01*
X117700000Y-101321418D01*
X116000000Y-101321418D01*
X115935897Y-101327732D01*
X115874257Y-101346430D01*
X115817450Y-101376794D01*
X115767657Y-101417657D01*
X115726794Y-101467450D01*
X115696430Y-101524257D01*
X115677732Y-101585897D01*
X115671418Y-101650000D01*
X115137000Y-101650000D01*
X115137000Y-98737530D01*
X115224236Y-98650294D01*
X115353044Y-98457519D01*
X115441769Y-98243318D01*
X115487000Y-98015924D01*
X115487000Y-97784076D01*
X115441769Y-97556682D01*
X115353044Y-97342481D01*
X115224236Y-97149706D01*
X115124530Y-97050000D01*
X115671418Y-97050000D01*
X115671418Y-98750000D01*
X115677732Y-98814103D01*
X115696430Y-98875743D01*
X115726794Y-98932550D01*
X115767657Y-98982343D01*
X115817450Y-99023206D01*
X115874257Y-99053570D01*
X115935897Y-99072268D01*
X116000000Y-99078582D01*
X117700000Y-99078582D01*
X117764103Y-99072268D01*
X117825743Y-99053570D01*
X117882550Y-99023206D01*
X117932343Y-98982343D01*
X117973206Y-98932550D01*
X118003570Y-98875743D01*
X118022268Y-98814103D01*
X118028582Y-98750000D01*
X118028582Y-97050000D01*
X135521418Y-97050000D01*
X135521418Y-98750000D01*
X135527732Y-98814103D01*
X135546430Y-98875743D01*
X135576794Y-98932550D01*
X135617657Y-98982343D01*
X135667450Y-99023206D01*
X135724257Y-99053570D01*
X135785897Y-99072268D01*
X135850000Y-99078582D01*
X137550000Y-99078582D01*
X137614103Y-99072268D01*
X137675743Y-99053570D01*
X137732550Y-99023206D01*
X137782343Y-98982343D01*
X137823206Y-98932550D01*
X137853570Y-98875743D01*
X137872268Y-98814103D01*
X137878582Y-98750000D01*
X137878582Y-97150000D01*
X142621418Y-97150000D01*
X142621418Y-98850000D01*
X142627732Y-98914103D01*
X142646430Y-98975743D01*
X142676794Y-99032550D01*
X142717657Y-99082343D01*
X142767450Y-99123206D01*
X142824257Y-99153570D01*
X142885897Y-99172268D01*
X142950000Y-99178582D01*
X144650000Y-99178582D01*
X144714103Y-99172268D01*
X144775743Y-99153570D01*
X144832550Y-99123206D01*
X144882343Y-99082343D01*
X144923206Y-99032550D01*
X144953570Y-98975743D01*
X144972268Y-98914103D01*
X144978582Y-98850000D01*
X144978582Y-97150000D01*
X144972268Y-97085897D01*
X144953570Y-97024257D01*
X144923206Y-96967450D01*
X144882343Y-96917657D01*
X144832550Y-96876794D01*
X144775743Y-96846430D01*
X144714103Y-96827732D01*
X144650000Y-96821418D01*
X142950000Y-96821418D01*
X142885897Y-96827732D01*
X142824257Y-96846430D01*
X142767450Y-96876794D01*
X142717657Y-96917657D01*
X142676794Y-96967450D01*
X142646430Y-97024257D01*
X142627732Y-97085897D01*
X142621418Y-97150000D01*
X137878582Y-97150000D01*
X137878582Y-97050000D01*
X137872268Y-96985897D01*
X137853570Y-96924257D01*
X137823206Y-96867450D01*
X137782343Y-96817657D01*
X137732550Y-96776794D01*
X137675743Y-96746430D01*
X137614103Y-96727732D01*
X137550000Y-96721418D01*
X135850000Y-96721418D01*
X135785897Y-96727732D01*
X135724257Y-96746430D01*
X135667450Y-96776794D01*
X135617657Y-96817657D01*
X135576794Y-96867450D01*
X135546430Y-96924257D01*
X135527732Y-96985897D01*
X135521418Y-97050000D01*
X118028582Y-97050000D01*
X118022268Y-96985897D01*
X118003570Y-96924257D01*
X117973206Y-96867450D01*
X117932343Y-96817657D01*
X117882550Y-96776794D01*
X117825743Y-96746430D01*
X117764103Y-96727732D01*
X117700000Y-96721418D01*
X116000000Y-96721418D01*
X115935897Y-96727732D01*
X115874257Y-96746430D01*
X115817450Y-96776794D01*
X115767657Y-96817657D01*
X115726794Y-96867450D01*
X115696430Y-96924257D01*
X115677732Y-96985897D01*
X115671418Y-97050000D01*
X115124530Y-97050000D01*
X115060294Y-96985764D01*
X114867519Y-96856956D01*
X114653318Y-96768231D01*
X114425924Y-96723000D01*
X114194076Y-96723000D01*
X113966682Y-96768231D01*
X113752481Y-96856956D01*
X113559706Y-96985764D01*
X113395764Y-97149706D01*
X113266956Y-97342481D01*
X113178231Y-97556682D01*
X113133000Y-97784076D01*
X104852000Y-97784076D01*
X104852000Y-94750000D01*
X165471418Y-94750000D01*
X165471418Y-95150000D01*
X165477732Y-95214103D01*
X165496430Y-95275743D01*
X165526794Y-95332550D01*
X165567657Y-95382343D01*
X165617450Y-95423206D01*
X165674257Y-95453570D01*
X165735897Y-95472268D01*
X165800000Y-95478582D01*
X166600000Y-95478582D01*
X166664103Y-95472268D01*
X166725743Y-95453570D01*
X166782550Y-95423206D01*
X166832343Y-95382343D01*
X166873206Y-95332550D01*
X166903570Y-95275743D01*
X166922268Y-95214103D01*
X166928582Y-95150000D01*
X166928582Y-94750000D01*
X166922268Y-94685897D01*
X166903570Y-94624257D01*
X166873206Y-94567450D01*
X166832343Y-94517657D01*
X166782550Y-94476794D01*
X166725743Y-94446430D01*
X166664103Y-94427732D01*
X166600000Y-94421418D01*
X165800000Y-94421418D01*
X165735897Y-94427732D01*
X165674257Y-94446430D01*
X165617450Y-94476794D01*
X165567657Y-94517657D01*
X165526794Y-94567450D01*
X165496430Y-94624257D01*
X165477732Y-94685897D01*
X165471418Y-94750000D01*
X104852000Y-94750000D01*
X104852000Y-76855000D01*
X107817418Y-76855000D01*
X107817418Y-78555000D01*
X107823732Y-78619103D01*
X107842430Y-78680743D01*
X107872794Y-78737550D01*
X107913657Y-78787343D01*
X107963450Y-78828206D01*
X108020257Y-78858570D01*
X108081897Y-78877268D01*
X108146000Y-78883582D01*
X109846000Y-78883582D01*
X109910103Y-78877268D01*
X109971743Y-78858570D01*
X110028550Y-78828206D01*
X110078343Y-78787343D01*
X110119206Y-78737550D01*
X110149570Y-78680743D01*
X110168268Y-78619103D01*
X110174582Y-78555000D01*
X110174582Y-77589076D01*
X110359000Y-77589076D01*
X110359000Y-77820924D01*
X110404231Y-78048318D01*
X110492956Y-78262519D01*
X110621764Y-78455294D01*
X110785706Y-78619236D01*
X110978481Y-78748044D01*
X111192682Y-78836769D01*
X111420076Y-78882000D01*
X111651924Y-78882000D01*
X111879318Y-78836769D01*
X112093519Y-78748044D01*
X112286294Y-78619236D01*
X112450236Y-78455294D01*
X112579044Y-78262519D01*
X112667769Y-78048318D01*
X112713000Y-77820924D01*
X112713000Y-77589076D01*
X112899000Y-77589076D01*
X112899000Y-77820924D01*
X112944231Y-78048318D01*
X113032956Y-78262519D01*
X113161764Y-78455294D01*
X113325706Y-78619236D01*
X113518481Y-78748044D01*
X113732682Y-78836769D01*
X113960076Y-78882000D01*
X114191924Y-78882000D01*
X114419318Y-78836769D01*
X114633519Y-78748044D01*
X114826294Y-78619236D01*
X114990236Y-78455294D01*
X115119044Y-78262519D01*
X115207769Y-78048318D01*
X115253000Y-77820924D01*
X115253000Y-77589076D01*
X115439000Y-77589076D01*
X115439000Y-77820924D01*
X115484231Y-78048318D01*
X115572956Y-78262519D01*
X115701764Y-78455294D01*
X115865706Y-78619236D01*
X116058481Y-78748044D01*
X116272682Y-78836769D01*
X116500076Y-78882000D01*
X116731924Y-78882000D01*
X116959318Y-78836769D01*
X117173519Y-78748044D01*
X117366294Y-78619236D01*
X117530236Y-78455294D01*
X117659044Y-78262519D01*
X117747769Y-78048318D01*
X117793000Y-77820924D01*
X117793000Y-77589076D01*
X117979000Y-77589076D01*
X117979000Y-77820924D01*
X118024231Y-78048318D01*
X118112956Y-78262519D01*
X118241764Y-78455294D01*
X118405706Y-78619236D01*
X118598481Y-78748044D01*
X118812682Y-78836769D01*
X119040076Y-78882000D01*
X119271924Y-78882000D01*
X119499318Y-78836769D01*
X119713519Y-78748044D01*
X119906294Y-78619236D01*
X120070236Y-78455294D01*
X120199044Y-78262519D01*
X120287769Y-78048318D01*
X120333000Y-77820924D01*
X120333000Y-77589076D01*
X120519000Y-77589076D01*
X120519000Y-77820924D01*
X120564231Y-78048318D01*
X120652956Y-78262519D01*
X120781764Y-78455294D01*
X120945706Y-78619236D01*
X121138481Y-78748044D01*
X121352682Y-78836769D01*
X121580076Y-78882000D01*
X121811924Y-78882000D01*
X122039318Y-78836769D01*
X122253519Y-78748044D01*
X122446294Y-78619236D01*
X122610236Y-78455294D01*
X122739044Y-78262519D01*
X122827769Y-78048318D01*
X122873000Y-77820924D01*
X122873000Y-77589076D01*
X123059000Y-77589076D01*
X123059000Y-77820924D01*
X123104231Y-78048318D01*
X123192956Y-78262519D01*
X123321764Y-78455294D01*
X123485706Y-78619236D01*
X123678481Y-78748044D01*
X123892682Y-78836769D01*
X124120076Y-78882000D01*
X124351924Y-78882000D01*
X124579318Y-78836769D01*
X124793519Y-78748044D01*
X124986294Y-78619236D01*
X125150236Y-78455294D01*
X125279044Y-78262519D01*
X125367769Y-78048318D01*
X125413000Y-77820924D01*
X125413000Y-77589076D01*
X125599000Y-77589076D01*
X125599000Y-77820924D01*
X125644231Y-78048318D01*
X125732956Y-78262519D01*
X125861764Y-78455294D01*
X126025706Y-78619236D01*
X126218481Y-78748044D01*
X126432682Y-78836769D01*
X126660076Y-78882000D01*
X126891924Y-78882000D01*
X127119318Y-78836769D01*
X127333519Y-78748044D01*
X127526294Y-78619236D01*
X127690236Y-78455294D01*
X127819044Y-78262519D01*
X127907769Y-78048318D01*
X127953000Y-77820924D01*
X127953000Y-77589076D01*
X128139000Y-77589076D01*
X128139000Y-77820924D01*
X128184231Y-78048318D01*
X128272956Y-78262519D01*
X128401764Y-78455294D01*
X128565706Y-78619236D01*
X128758481Y-78748044D01*
X128972682Y-78836769D01*
X129200076Y-78882000D01*
X129431924Y-78882000D01*
X129659318Y-78836769D01*
X129873519Y-78748044D01*
X130066294Y-78619236D01*
X130230236Y-78455294D01*
X130359044Y-78262519D01*
X130447769Y-78048318D01*
X130493000Y-77820924D01*
X130493000Y-77589076D01*
X130679000Y-77589076D01*
X130679000Y-77820924D01*
X130724231Y-78048318D01*
X130812956Y-78262519D01*
X130941764Y-78455294D01*
X131105706Y-78619236D01*
X131298481Y-78748044D01*
X131512682Y-78836769D01*
X131740076Y-78882000D01*
X131971924Y-78882000D01*
X132199318Y-78836769D01*
X132413519Y-78748044D01*
X132606294Y-78619236D01*
X132770236Y-78455294D01*
X132899044Y-78262519D01*
X132987769Y-78048318D01*
X133033000Y-77820924D01*
X133033000Y-77589076D01*
X132987769Y-77361682D01*
X132899044Y-77147481D01*
X132770236Y-76954706D01*
X132606294Y-76790764D01*
X132413519Y-76661956D01*
X132199318Y-76573231D01*
X131971924Y-76528000D01*
X131740076Y-76528000D01*
X131512682Y-76573231D01*
X131298481Y-76661956D01*
X131105706Y-76790764D01*
X130941764Y-76954706D01*
X130812956Y-77147481D01*
X130724231Y-77361682D01*
X130679000Y-77589076D01*
X130493000Y-77589076D01*
X130447769Y-77361682D01*
X130359044Y-77147481D01*
X130230236Y-76954706D01*
X130066294Y-76790764D01*
X129873519Y-76661956D01*
X129659318Y-76573231D01*
X129431924Y-76528000D01*
X129200076Y-76528000D01*
X128972682Y-76573231D01*
X128758481Y-76661956D01*
X128565706Y-76790764D01*
X128401764Y-76954706D01*
X128272956Y-77147481D01*
X128184231Y-77361682D01*
X128139000Y-77589076D01*
X127953000Y-77589076D01*
X127907769Y-77361682D01*
X127819044Y-77147481D01*
X127690236Y-76954706D01*
X127526294Y-76790764D01*
X127333519Y-76661956D01*
X127119318Y-76573231D01*
X126891924Y-76528000D01*
X126660076Y-76528000D01*
X126432682Y-76573231D01*
X126218481Y-76661956D01*
X126025706Y-76790764D01*
X125861764Y-76954706D01*
X125732956Y-77147481D01*
X125644231Y-77361682D01*
X125599000Y-77589076D01*
X125413000Y-77589076D01*
X125367769Y-77361682D01*
X125279044Y-77147481D01*
X125150236Y-76954706D01*
X124986294Y-76790764D01*
X124793519Y-76661956D01*
X124579318Y-76573231D01*
X124351924Y-76528000D01*
X124120076Y-76528000D01*
X123892682Y-76573231D01*
X123678481Y-76661956D01*
X123485706Y-76790764D01*
X123321764Y-76954706D01*
X123192956Y-77147481D01*
X123104231Y-77361682D01*
X123059000Y-77589076D01*
X122873000Y-77589076D01*
X122827769Y-77361682D01*
X122739044Y-77147481D01*
X122610236Y-76954706D01*
X122446294Y-76790764D01*
X122253519Y-76661956D01*
X122039318Y-76573231D01*
X121811924Y-76528000D01*
X121580076Y-76528000D01*
X121352682Y-76573231D01*
X121138481Y-76661956D01*
X120945706Y-76790764D01*
X120781764Y-76954706D01*
X120652956Y-77147481D01*
X120564231Y-77361682D01*
X120519000Y-77589076D01*
X120333000Y-77589076D01*
X120287769Y-77361682D01*
X120199044Y-77147481D01*
X120070236Y-76954706D01*
X119906294Y-76790764D01*
X119713519Y-76661956D01*
X119499318Y-76573231D01*
X119271924Y-76528000D01*
X119040076Y-76528000D01*
X118812682Y-76573231D01*
X118598481Y-76661956D01*
X118405706Y-76790764D01*
X118241764Y-76954706D01*
X118112956Y-77147481D01*
X118024231Y-77361682D01*
X117979000Y-77589076D01*
X117793000Y-77589076D01*
X117747769Y-77361682D01*
X117659044Y-77147481D01*
X117530236Y-76954706D01*
X117366294Y-76790764D01*
X117173519Y-76661956D01*
X116959318Y-76573231D01*
X116731924Y-76528000D01*
X116500076Y-76528000D01*
X116272682Y-76573231D01*
X116058481Y-76661956D01*
X115865706Y-76790764D01*
X115701764Y-76954706D01*
X115572956Y-77147481D01*
X115484231Y-77361682D01*
X115439000Y-77589076D01*
X115253000Y-77589076D01*
X115207769Y-77361682D01*
X115119044Y-77147481D01*
X114990236Y-76954706D01*
X114826294Y-76790764D01*
X114633519Y-76661956D01*
X114419318Y-76573231D01*
X114191924Y-76528000D01*
X113960076Y-76528000D01*
X113732682Y-76573231D01*
X113518481Y-76661956D01*
X113325706Y-76790764D01*
X113161764Y-76954706D01*
X113032956Y-77147481D01*
X112944231Y-77361682D01*
X112899000Y-77589076D01*
X112713000Y-77589076D01*
X112667769Y-77361682D01*
X112579044Y-77147481D01*
X112450236Y-76954706D01*
X112286294Y-76790764D01*
X112093519Y-76661956D01*
X111879318Y-76573231D01*
X111651924Y-76528000D01*
X111420076Y-76528000D01*
X111192682Y-76573231D01*
X110978481Y-76661956D01*
X110785706Y-76790764D01*
X110621764Y-76954706D01*
X110492956Y-77147481D01*
X110404231Y-77361682D01*
X110359000Y-77589076D01*
X110174582Y-77589076D01*
X110174582Y-76855000D01*
X110168268Y-76790897D01*
X110149570Y-76729257D01*
X110119206Y-76672450D01*
X110078343Y-76622657D01*
X110028550Y-76581794D01*
X109971743Y-76551430D01*
X109910103Y-76532732D01*
X109846000Y-76526418D01*
X108146000Y-76526418D01*
X108081897Y-76532732D01*
X108020257Y-76551430D01*
X107963450Y-76581794D01*
X107913657Y-76622657D01*
X107872794Y-76672450D01*
X107842430Y-76729257D01*
X107823732Y-76790897D01*
X107817418Y-76855000D01*
X104852000Y-76855000D01*
X104852000Y-75852000D01*
X133682708Y-75852000D01*
X133700000Y-75853703D01*
X133717291Y-75852000D01*
X133717292Y-75852000D01*
X133769004Y-75846907D01*
X133835356Y-75826779D01*
X133896507Y-75794093D01*
X133950106Y-75750106D01*
X133994093Y-75696507D01*
X134026779Y-75635356D01*
X134046907Y-75569004D01*
X134052295Y-75514291D01*
X134478519Y-75514291D01*
X134575843Y-75788652D01*
X134724822Y-76038755D01*
X134919731Y-76254988D01*
X135153080Y-76429041D01*
X135415901Y-76554225D01*
X135563110Y-76598876D01*
X135793000Y-76477555D01*
X135793000Y-75284400D01*
X134599186Y-75284400D01*
X134478519Y-75514291D01*
X134052295Y-75514291D01*
X134053703Y-75500000D01*
X134052000Y-75482708D01*
X134052000Y-74800509D01*
X134478519Y-74800509D01*
X134599186Y-75030400D01*
X135793000Y-75030400D01*
X135793000Y-73837245D01*
X136047000Y-73837245D01*
X136047000Y-75030400D01*
X136067000Y-75030400D01*
X136067000Y-75284400D01*
X136047000Y-75284400D01*
X136047000Y-76477555D01*
X136276890Y-76598876D01*
X136424099Y-76554225D01*
X136686920Y-76429041D01*
X136920269Y-76254988D01*
X137115178Y-76038755D01*
X137264157Y-75788652D01*
X137348736Y-75550221D01*
X137416956Y-75714919D01*
X137545764Y-75907694D01*
X137709706Y-76071636D01*
X137902481Y-76200444D01*
X138116682Y-76289169D01*
X138344076Y-76334400D01*
X138575924Y-76334400D01*
X138803318Y-76289169D01*
X139017519Y-76200444D01*
X139210294Y-76071636D01*
X139374236Y-75907694D01*
X139503044Y-75714919D01*
X139591769Y-75500718D01*
X139637000Y-75273324D01*
X139637000Y-75041476D01*
X139823000Y-75041476D01*
X139823000Y-75273324D01*
X139868231Y-75500718D01*
X139956956Y-75714919D01*
X140085764Y-75907694D01*
X140249706Y-76071636D01*
X140442481Y-76200444D01*
X140656682Y-76289169D01*
X140884076Y-76334400D01*
X141115924Y-76334400D01*
X141343318Y-76289169D01*
X141557519Y-76200444D01*
X141750294Y-76071636D01*
X141914236Y-75907694D01*
X142043044Y-75714919D01*
X142131769Y-75500718D01*
X142177000Y-75273324D01*
X142177000Y-75041476D01*
X142363000Y-75041476D01*
X142363000Y-75273324D01*
X142408231Y-75500718D01*
X142496956Y-75714919D01*
X142625764Y-75907694D01*
X142789706Y-76071636D01*
X142982481Y-76200444D01*
X143196682Y-76289169D01*
X143424076Y-76334400D01*
X143655924Y-76334400D01*
X143883318Y-76289169D01*
X144097519Y-76200444D01*
X144290294Y-76071636D01*
X144454236Y-75907694D01*
X144583044Y-75714919D01*
X144671769Y-75500718D01*
X144717000Y-75273324D01*
X144717000Y-75041476D01*
X144903000Y-75041476D01*
X144903000Y-75273324D01*
X144948231Y-75500718D01*
X145036956Y-75714919D01*
X145165764Y-75907694D01*
X145329706Y-76071636D01*
X145522481Y-76200444D01*
X145736682Y-76289169D01*
X145964076Y-76334400D01*
X146195924Y-76334400D01*
X146423318Y-76289169D01*
X146637519Y-76200444D01*
X146830294Y-76071636D01*
X146994236Y-75907694D01*
X147123044Y-75714919D01*
X147211769Y-75500718D01*
X147257000Y-75273324D01*
X147257000Y-75041476D01*
X147443000Y-75041476D01*
X147443000Y-75273324D01*
X147488231Y-75500718D01*
X147576956Y-75714919D01*
X147705764Y-75907694D01*
X147869706Y-76071636D01*
X148062481Y-76200444D01*
X148276682Y-76289169D01*
X148504076Y-76334400D01*
X148735924Y-76334400D01*
X148963318Y-76289169D01*
X149177519Y-76200444D01*
X149370294Y-76071636D01*
X149534236Y-75907694D01*
X149663044Y-75714919D01*
X149751769Y-75500718D01*
X149797000Y-75273324D01*
X149797000Y-75041476D01*
X149983000Y-75041476D01*
X149983000Y-75273324D01*
X150028231Y-75500718D01*
X150116956Y-75714919D01*
X150245764Y-75907694D01*
X150409706Y-76071636D01*
X150602481Y-76200444D01*
X150816682Y-76289169D01*
X151044076Y-76334400D01*
X151275924Y-76334400D01*
X151503318Y-76289169D01*
X151717519Y-76200444D01*
X151910294Y-76071636D01*
X152074236Y-75907694D01*
X152203044Y-75714919D01*
X152291769Y-75500718D01*
X152337000Y-75273324D01*
X152337000Y-75041476D01*
X152291769Y-74814082D01*
X152203044Y-74599881D01*
X152074236Y-74407106D01*
X151974530Y-74307400D01*
X152521418Y-74307400D01*
X152521418Y-76007400D01*
X152527732Y-76071503D01*
X152546430Y-76133143D01*
X152576794Y-76189950D01*
X152617657Y-76239743D01*
X152667450Y-76280606D01*
X152724257Y-76310970D01*
X152785897Y-76329668D01*
X152850000Y-76335982D01*
X154550000Y-76335982D01*
X154614103Y-76329668D01*
X154675743Y-76310970D01*
X154732550Y-76280606D01*
X154782343Y-76239743D01*
X154823206Y-76189950D01*
X154853570Y-76133143D01*
X154872268Y-76071503D01*
X154878582Y-76007400D01*
X154878582Y-74307400D01*
X154872268Y-74243297D01*
X154853570Y-74181657D01*
X154823206Y-74124850D01*
X154782343Y-74075057D01*
X154732550Y-74034194D01*
X154675743Y-74003830D01*
X154614103Y-73985132D01*
X154550000Y-73978818D01*
X152850000Y-73978818D01*
X152785897Y-73985132D01*
X152724257Y-74003830D01*
X152667450Y-74034194D01*
X152617657Y-74075057D01*
X152576794Y-74124850D01*
X152546430Y-74181657D01*
X152527732Y-74243297D01*
X152521418Y-74307400D01*
X151974530Y-74307400D01*
X151910294Y-74243164D01*
X151717519Y-74114356D01*
X151503318Y-74025631D01*
X151275924Y-73980400D01*
X151044076Y-73980400D01*
X150816682Y-74025631D01*
X150602481Y-74114356D01*
X150409706Y-74243164D01*
X150245764Y-74407106D01*
X150116956Y-74599881D01*
X150028231Y-74814082D01*
X149983000Y-75041476D01*
X149797000Y-75041476D01*
X149751769Y-74814082D01*
X149663044Y-74599881D01*
X149534236Y-74407106D01*
X149370294Y-74243164D01*
X149177519Y-74114356D01*
X148963318Y-74025631D01*
X148735924Y-73980400D01*
X148504076Y-73980400D01*
X148276682Y-74025631D01*
X148062481Y-74114356D01*
X147869706Y-74243164D01*
X147705764Y-74407106D01*
X147576956Y-74599881D01*
X147488231Y-74814082D01*
X147443000Y-75041476D01*
X147257000Y-75041476D01*
X147211769Y-74814082D01*
X147123044Y-74599881D01*
X146994236Y-74407106D01*
X146830294Y-74243164D01*
X146637519Y-74114356D01*
X146423318Y-74025631D01*
X146195924Y-73980400D01*
X145964076Y-73980400D01*
X145736682Y-74025631D01*
X145522481Y-74114356D01*
X145329706Y-74243164D01*
X145165764Y-74407106D01*
X145036956Y-74599881D01*
X144948231Y-74814082D01*
X144903000Y-75041476D01*
X144717000Y-75041476D01*
X144671769Y-74814082D01*
X144583044Y-74599881D01*
X144454236Y-74407106D01*
X144290294Y-74243164D01*
X144097519Y-74114356D01*
X143883318Y-74025631D01*
X143655924Y-73980400D01*
X143424076Y-73980400D01*
X143196682Y-74025631D01*
X142982481Y-74114356D01*
X142789706Y-74243164D01*
X142625764Y-74407106D01*
X142496956Y-74599881D01*
X142408231Y-74814082D01*
X142363000Y-75041476D01*
X142177000Y-75041476D01*
X142131769Y-74814082D01*
X142043044Y-74599881D01*
X141914236Y-74407106D01*
X141750294Y-74243164D01*
X141557519Y-74114356D01*
X141343318Y-74025631D01*
X141115924Y-73980400D01*
X140884076Y-73980400D01*
X140656682Y-74025631D01*
X140442481Y-74114356D01*
X140249706Y-74243164D01*
X140085764Y-74407106D01*
X139956956Y-74599881D01*
X139868231Y-74814082D01*
X139823000Y-75041476D01*
X139637000Y-75041476D01*
X139591769Y-74814082D01*
X139503044Y-74599881D01*
X139374236Y-74407106D01*
X139210294Y-74243164D01*
X139017519Y-74114356D01*
X138887000Y-74060293D01*
X138887000Y-73716868D01*
X140076869Y-72527000D01*
X168823132Y-72527000D01*
X170273001Y-73976870D01*
X170273000Y-97623130D01*
X168873132Y-99023000D01*
X164428582Y-99023000D01*
X164428582Y-98800000D01*
X164422268Y-98735897D01*
X164411379Y-98700000D01*
X164422268Y-98664103D01*
X164428582Y-98600000D01*
X164428582Y-98300000D01*
X164422268Y-98235897D01*
X164411379Y-98200000D01*
X164422268Y-98164103D01*
X164428582Y-98100000D01*
X164428582Y-97800000D01*
X164422268Y-97735897D01*
X164411379Y-97700000D01*
X164422268Y-97664103D01*
X164428582Y-97600000D01*
X164428582Y-97300000D01*
X164422268Y-97235897D01*
X164411379Y-97200000D01*
X164422268Y-97164103D01*
X164428582Y-97100000D01*
X164428582Y-96800000D01*
X164422268Y-96735897D01*
X164411379Y-96700000D01*
X164422268Y-96664103D01*
X164428582Y-96600000D01*
X164428582Y-96300000D01*
X164422268Y-96235897D01*
X164411379Y-96200000D01*
X164422268Y-96164103D01*
X164428582Y-96100000D01*
X164428582Y-95800000D01*
X164422268Y-95735897D01*
X164403570Y-95674257D01*
X164373206Y-95617450D01*
X164332343Y-95567657D01*
X164282550Y-95526794D01*
X164225743Y-95496430D01*
X164164103Y-95477732D01*
X164100000Y-95471418D01*
X163300000Y-95471418D01*
X163235897Y-95477732D01*
X163174257Y-95496430D01*
X163124548Y-95523000D01*
X161308156Y-95523000D01*
X161287199Y-95520936D01*
X161266242Y-95523000D01*
X161266222Y-95523000D01*
X161203493Y-95529178D01*
X161123004Y-95553595D01*
X161096696Y-95567657D01*
X161048823Y-95593245D01*
X161000098Y-95633233D01*
X161000095Y-95633236D01*
X160983805Y-95646605D01*
X160970436Y-95662895D01*
X156892857Y-99740476D01*
X156876562Y-99753849D01*
X156863190Y-99770143D01*
X156863189Y-99770144D01*
X156823202Y-99818868D01*
X156819108Y-99826528D01*
X156783552Y-99893049D01*
X156759135Y-99973538D01*
X156752957Y-100036267D01*
X156752957Y-100036277D01*
X156750892Y-100057244D01*
X156752957Y-100078211D01*
X156752958Y-117943172D01*
X156223162Y-118472970D01*
X142920996Y-118472970D01*
X142900029Y-118470905D01*
X142879062Y-118472970D01*
X142879052Y-118472970D01*
X142816323Y-118479148D01*
X142735834Y-118503565D01*
X142712897Y-118515825D01*
X142661653Y-118543215D01*
X142612928Y-118583202D01*
X142612919Y-118583211D01*
X142596635Y-118596575D01*
X142583271Y-118612859D01*
X140712900Y-120483232D01*
X140696605Y-120496605D01*
X140683233Y-120512899D01*
X140683232Y-120512900D01*
X140643245Y-120561624D01*
X140622052Y-120601274D01*
X140603595Y-120635805D01*
X140579178Y-120716294D01*
X140573000Y-120779023D01*
X140573000Y-120779033D01*
X140570935Y-120800000D01*
X140573000Y-120820967D01*
X140573001Y-122246418D01*
X140150000Y-122246418D01*
X140085897Y-122252732D01*
X140024257Y-122271430D01*
X139967450Y-122301794D01*
X139917657Y-122342657D01*
X139876794Y-122392450D01*
X139846430Y-122449257D01*
X139827732Y-122510897D01*
X139821418Y-122575000D01*
X139821418Y-124275000D01*
X139827732Y-124339103D01*
X139846430Y-124400743D01*
X139876794Y-124457550D01*
X139917657Y-124507343D01*
X139967450Y-124548206D01*
X140024257Y-124578570D01*
X140085897Y-124597268D01*
X140150000Y-124603582D01*
X141850000Y-124603582D01*
X141914103Y-124597268D01*
X141975743Y-124578570D01*
X142032550Y-124548206D01*
X142082343Y-124507343D01*
X142123206Y-124457550D01*
X142153570Y-124400743D01*
X142172268Y-124339103D01*
X142178582Y-124275000D01*
X142178582Y-122575000D01*
X142172268Y-122510897D01*
X142153570Y-122449257D01*
X142123206Y-122392450D01*
X142082343Y-122342657D01*
X142032550Y-122301794D01*
X141975743Y-122271430D01*
X141914103Y-122252732D01*
X141850000Y-122246418D01*
X141427000Y-122246418D01*
X141427000Y-120976868D01*
X143076900Y-119326970D01*
X144569161Y-119326970D01*
X143252900Y-120643232D01*
X143236605Y-120656605D01*
X143223233Y-120672899D01*
X143223232Y-120672900D01*
X143183245Y-120721624D01*
X143177219Y-120732899D01*
X143143595Y-120795805D01*
X143119178Y-120876294D01*
X143113000Y-120939023D01*
X143113000Y-120939033D01*
X143110935Y-120960000D01*
X143113000Y-120980967D01*
X143113001Y-122327893D01*
X142982481Y-122381956D01*
X142789706Y-122510764D01*
X142625764Y-122674706D01*
X142496956Y-122867481D01*
X142408231Y-123081682D01*
X142363000Y-123309076D01*
X142363000Y-123540924D01*
X142408231Y-123768318D01*
X142496956Y-123982519D01*
X142625764Y-124175294D01*
X142789706Y-124339236D01*
X142982481Y-124468044D01*
X143196682Y-124556769D01*
X143424076Y-124602000D01*
X143655924Y-124602000D01*
X143883318Y-124556769D01*
X144097519Y-124468044D01*
X144290294Y-124339236D01*
X144454236Y-124175294D01*
X144583044Y-123982519D01*
X144671769Y-123768318D01*
X144717000Y-123540924D01*
X144717000Y-123309076D01*
X144903000Y-123309076D01*
X144903000Y-123540924D01*
X144948231Y-123768318D01*
X145036956Y-123982519D01*
X145165764Y-124175294D01*
X145329706Y-124339236D01*
X145522481Y-124468044D01*
X145736682Y-124556769D01*
X145964076Y-124602000D01*
X146195924Y-124602000D01*
X146423318Y-124556769D01*
X146637519Y-124468044D01*
X146830294Y-124339236D01*
X146994236Y-124175294D01*
X147123044Y-123982519D01*
X147211769Y-123768318D01*
X147257000Y-123540924D01*
X147257000Y-123309076D01*
X147443000Y-123309076D01*
X147443000Y-123540924D01*
X147488231Y-123768318D01*
X147576956Y-123982519D01*
X147705764Y-124175294D01*
X147869706Y-124339236D01*
X148062481Y-124468044D01*
X148276682Y-124556769D01*
X148504076Y-124602000D01*
X148735924Y-124602000D01*
X148963318Y-124556769D01*
X149177519Y-124468044D01*
X149370294Y-124339236D01*
X149534236Y-124175294D01*
X149663044Y-123982519D01*
X149751769Y-123768318D01*
X149797000Y-123540924D01*
X149797000Y-123309076D01*
X149751769Y-123081682D01*
X149663044Y-122867481D01*
X149534236Y-122674706D01*
X149370294Y-122510764D01*
X149177519Y-122381956D01*
X148963318Y-122293231D01*
X148735924Y-122248000D01*
X148504076Y-122248000D01*
X148276682Y-122293231D01*
X148062481Y-122381956D01*
X147869706Y-122510764D01*
X147705764Y-122674706D01*
X147576956Y-122867481D01*
X147488231Y-123081682D01*
X147443000Y-123309076D01*
X147257000Y-123309076D01*
X147211769Y-123081682D01*
X147123044Y-122867481D01*
X146994236Y-122674706D01*
X146830294Y-122510764D01*
X146637519Y-122381956D01*
X146423318Y-122293231D01*
X146195924Y-122248000D01*
X145964076Y-122248000D01*
X145736682Y-122293231D01*
X145522481Y-122381956D01*
X145329706Y-122510764D01*
X145165764Y-122674706D01*
X145036956Y-122867481D01*
X144948231Y-123081682D01*
X144903000Y-123309076D01*
X144717000Y-123309076D01*
X144671769Y-123081682D01*
X144583044Y-122867481D01*
X144454236Y-122674706D01*
X144290294Y-122510764D01*
X144097519Y-122381956D01*
X143967000Y-122327893D01*
X143967000Y-121136868D01*
X145376889Y-119726980D01*
X151669151Y-119726980D01*
X150872900Y-120523232D01*
X150856605Y-120536605D01*
X150843233Y-120552899D01*
X150843232Y-120552900D01*
X150803245Y-120601624D01*
X150782052Y-120641274D01*
X150763595Y-120675805D01*
X150739178Y-120756294D01*
X150733000Y-120819023D01*
X150733000Y-120819033D01*
X150730935Y-120840000D01*
X150733000Y-120860967D01*
X150733001Y-122327893D01*
X150602481Y-122381956D01*
X150409706Y-122510764D01*
X150245764Y-122674706D01*
X150116956Y-122867481D01*
X150028231Y-123081682D01*
X149983000Y-123309076D01*
X149983000Y-123540924D01*
X150028231Y-123768318D01*
X150116956Y-123982519D01*
X150245764Y-124175294D01*
X150409706Y-124339236D01*
X150602481Y-124468044D01*
X150816682Y-124556769D01*
X151044076Y-124602000D01*
X151275924Y-124602000D01*
X151503318Y-124556769D01*
X151717519Y-124468044D01*
X151910294Y-124339236D01*
X152074236Y-124175294D01*
X152203044Y-123982519D01*
X152291769Y-123768318D01*
X152337000Y-123540924D01*
X152337000Y-123309076D01*
X152291769Y-123081682D01*
X152203044Y-122867481D01*
X152074236Y-122674706D01*
X151910294Y-122510764D01*
X151717519Y-122381956D01*
X151587000Y-122327893D01*
X151587000Y-121016868D01*
X152476879Y-120126990D01*
X154069141Y-120126990D01*
X153412900Y-120783232D01*
X153396605Y-120796605D01*
X153383233Y-120812899D01*
X153383232Y-120812900D01*
X153343245Y-120861624D01*
X153335404Y-120876294D01*
X153303595Y-120935805D01*
X153279178Y-121016294D01*
X153273000Y-121079023D01*
X153273000Y-121079033D01*
X153270935Y-121100000D01*
X153273000Y-121120967D01*
X153273001Y-122327893D01*
X153142481Y-122381956D01*
X152949706Y-122510764D01*
X152785764Y-122674706D01*
X152656956Y-122867481D01*
X152568231Y-123081682D01*
X152523000Y-123309076D01*
X152523000Y-123540924D01*
X152568231Y-123768318D01*
X152656956Y-123982519D01*
X152785764Y-124175294D01*
X152949706Y-124339236D01*
X153142481Y-124468044D01*
X153356682Y-124556769D01*
X153584076Y-124602000D01*
X153815924Y-124602000D01*
X154043318Y-124556769D01*
X154257519Y-124468044D01*
X154450294Y-124339236D01*
X154614236Y-124175294D01*
X154743044Y-123982519D01*
X154831769Y-123768318D01*
X154877000Y-123540924D01*
X154877000Y-123309076D01*
X155063000Y-123309076D01*
X155063000Y-123540924D01*
X155108231Y-123768318D01*
X155196956Y-123982519D01*
X155325764Y-124175294D01*
X155489706Y-124339236D01*
X155682481Y-124468044D01*
X155896682Y-124556769D01*
X156124076Y-124602000D01*
X156355924Y-124602000D01*
X156583318Y-124556769D01*
X156797519Y-124468044D01*
X156990294Y-124339236D01*
X157154236Y-124175294D01*
X157283044Y-123982519D01*
X157371769Y-123768318D01*
X157417000Y-123540924D01*
X157417000Y-123309076D01*
X157371769Y-123081682D01*
X157283044Y-122867481D01*
X157154236Y-122674706D01*
X156990294Y-122510764D01*
X156797519Y-122381956D01*
X156583318Y-122293231D01*
X156355924Y-122248000D01*
X156124076Y-122248000D01*
X155896682Y-122293231D01*
X155682481Y-122381956D01*
X155489706Y-122510764D01*
X155325764Y-122674706D01*
X155196956Y-122867481D01*
X155108231Y-123081682D01*
X155063000Y-123309076D01*
X154877000Y-123309076D01*
X154831769Y-123081682D01*
X154743044Y-122867481D01*
X154614236Y-122674706D01*
X154450294Y-122510764D01*
X154257519Y-122381956D01*
X154127000Y-122327893D01*
X154127000Y-121276868D01*
X154876869Y-120527000D01*
X156879033Y-120527000D01*
X156900000Y-120529065D01*
X156920967Y-120527000D01*
X156920978Y-120527000D01*
X156983707Y-120520822D01*
X157064196Y-120496405D01*
X157138376Y-120456755D01*
X157203395Y-120403395D01*
X157216768Y-120387100D01*
X158353001Y-119250868D01*
X158353001Y-122327893D01*
X158222481Y-122381956D01*
X158029706Y-122510764D01*
X157865764Y-122674706D01*
X157736956Y-122867481D01*
X157648231Y-123081682D01*
X157603000Y-123309076D01*
X157603000Y-123540924D01*
X157648231Y-123768318D01*
X157736956Y-123982519D01*
X157865764Y-124175294D01*
X158029706Y-124339236D01*
X158222481Y-124468044D01*
X158436682Y-124556769D01*
X158664076Y-124602000D01*
X158895924Y-124602000D01*
X159123318Y-124556769D01*
X159337519Y-124468044D01*
X159530294Y-124339236D01*
X159694236Y-124175294D01*
X159823044Y-123982519D01*
X159911769Y-123768318D01*
X159957000Y-123540924D01*
X159957000Y-123309076D01*
X159911769Y-123081682D01*
X159823044Y-122867481D01*
X159694236Y-122674706D01*
X159530294Y-122510764D01*
X159337519Y-122381956D01*
X159207000Y-122327893D01*
X159207000Y-119510868D01*
X160893000Y-121196869D01*
X160893001Y-122327893D01*
X160762481Y-122381956D01*
X160569706Y-122510764D01*
X160405764Y-122674706D01*
X160276956Y-122867481D01*
X160188231Y-123081682D01*
X160143000Y-123309076D01*
X160143000Y-123540924D01*
X160188231Y-123768318D01*
X160276956Y-123982519D01*
X160405764Y-124175294D01*
X160569706Y-124339236D01*
X160762481Y-124468044D01*
X160976682Y-124556769D01*
X161204076Y-124602000D01*
X161435924Y-124602000D01*
X161663318Y-124556769D01*
X161877519Y-124468044D01*
X162070294Y-124339236D01*
X162234236Y-124175294D01*
X162363044Y-123982519D01*
X162451769Y-123768318D01*
X162497000Y-123540924D01*
X162497000Y-123309076D01*
X162451769Y-123081682D01*
X162363044Y-122867481D01*
X162234236Y-122674706D01*
X162070294Y-122510764D01*
X161877519Y-122381956D01*
X161747000Y-122327893D01*
X161747000Y-121040967D01*
X161749065Y-121020000D01*
X161747000Y-120999033D01*
X161747000Y-120999022D01*
X161740822Y-120936293D01*
X161716405Y-120855804D01*
X161684335Y-120795805D01*
X161676755Y-120781623D01*
X161636768Y-120732899D01*
X161636764Y-120732895D01*
X161623395Y-120716605D01*
X161607106Y-120703237D01*
X161130869Y-120227000D01*
X162423132Y-120227000D01*
X163433000Y-121236869D01*
X163433001Y-122327893D01*
X163302481Y-122381956D01*
X163109706Y-122510764D01*
X162945764Y-122674706D01*
X162816956Y-122867481D01*
X162728231Y-123081682D01*
X162683000Y-123309076D01*
X162683000Y-123540924D01*
X162728231Y-123768318D01*
X162816956Y-123982519D01*
X162945764Y-124175294D01*
X163109706Y-124339236D01*
X163302481Y-124468044D01*
X163516682Y-124556769D01*
X163744076Y-124602000D01*
X163975924Y-124602000D01*
X164203318Y-124556769D01*
X164417519Y-124468044D01*
X164610294Y-124339236D01*
X164774236Y-124175294D01*
X164903044Y-123982519D01*
X164991769Y-123768318D01*
X165037000Y-123540924D01*
X165037000Y-123309076D01*
X164991769Y-123081682D01*
X164903044Y-122867481D01*
X164774236Y-122674706D01*
X164610294Y-122510764D01*
X164417519Y-122381956D01*
X164287000Y-122327893D01*
X164287000Y-121080966D01*
X164289065Y-121059999D01*
X164287000Y-121039032D01*
X164287000Y-121039022D01*
X164280822Y-120976293D01*
X164256405Y-120895804D01*
X164216756Y-120821625D01*
X164216755Y-120821623D01*
X164176768Y-120772899D01*
X164176764Y-120772895D01*
X164163395Y-120756605D01*
X164147106Y-120743237D01*
X162916766Y-119512898D01*
X162903395Y-119496605D01*
X162838376Y-119443245D01*
X162764196Y-119403595D01*
X162683707Y-119379178D01*
X162620978Y-119373000D01*
X162620967Y-119373000D01*
X162600000Y-119370935D01*
X162579033Y-119373000D01*
X160876869Y-119373000D01*
X160007021Y-118503153D01*
X160007021Y-104250000D01*
X165471418Y-104250000D01*
X165471418Y-104650000D01*
X165477732Y-104714103D01*
X165496430Y-104775743D01*
X165526794Y-104832550D01*
X165567657Y-104882343D01*
X165617450Y-104923206D01*
X165674257Y-104953570D01*
X165735897Y-104972268D01*
X165800000Y-104978582D01*
X166600000Y-104978582D01*
X166664103Y-104972268D01*
X166725743Y-104953570D01*
X166782550Y-104923206D01*
X166832343Y-104882343D01*
X166873206Y-104832550D01*
X166903570Y-104775743D01*
X166922268Y-104714103D01*
X166928582Y-104650000D01*
X166928582Y-104250000D01*
X166922268Y-104185897D01*
X166903570Y-104124257D01*
X166873206Y-104067450D01*
X166832343Y-104017657D01*
X166782550Y-103976794D01*
X166725743Y-103946430D01*
X166664103Y-103927732D01*
X166600000Y-103921418D01*
X165800000Y-103921418D01*
X165735897Y-103927732D01*
X165674257Y-103946430D01*
X165617450Y-103976794D01*
X165567657Y-104017657D01*
X165526794Y-104067450D01*
X165496430Y-104124257D01*
X165477732Y-104185897D01*
X165471418Y-104250000D01*
X160007021Y-104250000D01*
X160007021Y-101296847D01*
X161926869Y-99377000D01*
X162971418Y-99377000D01*
X162971418Y-99600000D01*
X162977732Y-99664103D01*
X162988621Y-99700000D01*
X162977732Y-99735897D01*
X162971418Y-99800000D01*
X162971418Y-100100000D01*
X162977732Y-100164103D01*
X162988621Y-100200000D01*
X162977732Y-100235897D01*
X162971418Y-100300000D01*
X162971418Y-100600000D01*
X162977732Y-100664103D01*
X162988621Y-100700000D01*
X162977732Y-100735897D01*
X162971418Y-100800000D01*
X162971418Y-101100000D01*
X162977732Y-101164103D01*
X162988621Y-101200000D01*
X162977732Y-101235897D01*
X162971418Y-101300000D01*
X162971418Y-101600000D01*
X162977732Y-101664103D01*
X162988621Y-101700000D01*
X162977732Y-101735897D01*
X162971418Y-101800000D01*
X162971418Y-102100000D01*
X162977732Y-102164103D01*
X162988621Y-102200000D01*
X162977732Y-102235897D01*
X162971418Y-102300000D01*
X162971418Y-102600000D01*
X162977732Y-102664103D01*
X162988621Y-102700000D01*
X162977732Y-102735897D01*
X162971418Y-102800000D01*
X162971418Y-103100000D01*
X162977732Y-103164103D01*
X162988621Y-103200000D01*
X162977732Y-103235897D01*
X162971418Y-103300000D01*
X162971418Y-103600000D01*
X162977732Y-103664103D01*
X162996430Y-103725743D01*
X163026794Y-103782550D01*
X163067657Y-103832343D01*
X163117450Y-103873206D01*
X163174257Y-103903570D01*
X163235897Y-103922268D01*
X163300000Y-103928582D01*
X164100000Y-103928582D01*
X164164103Y-103922268D01*
X164225743Y-103903570D01*
X164275452Y-103877000D01*
X168373132Y-103877000D01*
X169273000Y-104776869D01*
X169273001Y-127023130D01*
X167823132Y-128473000D01*
X165176869Y-128473000D01*
X164287000Y-127583132D01*
X164287000Y-127062107D01*
X164417519Y-127008044D01*
X164610294Y-126879236D01*
X164774236Y-126715294D01*
X164903044Y-126522519D01*
X164991769Y-126308318D01*
X165037000Y-126080924D01*
X165037000Y-125849076D01*
X164991769Y-125621682D01*
X164903044Y-125407481D01*
X164774236Y-125214706D01*
X164610294Y-125050764D01*
X164417519Y-124921956D01*
X164203318Y-124833231D01*
X163975924Y-124788000D01*
X163744076Y-124788000D01*
X163516682Y-124833231D01*
X163302481Y-124921956D01*
X163109706Y-125050764D01*
X162945764Y-125214706D01*
X162816956Y-125407481D01*
X162728231Y-125621682D01*
X162683000Y-125849076D01*
X162683000Y-126080924D01*
X162728231Y-126308318D01*
X162816956Y-126522519D01*
X162945764Y-126715294D01*
X163109706Y-126879236D01*
X163302481Y-127008044D01*
X163433000Y-127062107D01*
X163433000Y-127739033D01*
X163430935Y-127760000D01*
X163433000Y-127780967D01*
X163433000Y-127780977D01*
X163439178Y-127843706D01*
X163463595Y-127924195D01*
X163478564Y-127952200D01*
X163503245Y-127998376D01*
X163543232Y-128047100D01*
X163556605Y-128063395D01*
X163572900Y-128076768D01*
X164369131Y-128873000D01*
X163076869Y-128873000D01*
X161747000Y-127543132D01*
X161747000Y-127062107D01*
X161877519Y-127008044D01*
X162070294Y-126879236D01*
X162234236Y-126715294D01*
X162363044Y-126522519D01*
X162451769Y-126308318D01*
X162497000Y-126080924D01*
X162497000Y-125849076D01*
X162451769Y-125621682D01*
X162363044Y-125407481D01*
X162234236Y-125214706D01*
X162070294Y-125050764D01*
X161877519Y-124921956D01*
X161663318Y-124833231D01*
X161435924Y-124788000D01*
X161204076Y-124788000D01*
X160976682Y-124833231D01*
X160762481Y-124921956D01*
X160569706Y-125050764D01*
X160405764Y-125214706D01*
X160276956Y-125407481D01*
X160188231Y-125621682D01*
X160143000Y-125849076D01*
X160143000Y-126080924D01*
X160188231Y-126308318D01*
X160276956Y-126522519D01*
X160405764Y-126715294D01*
X160569706Y-126879236D01*
X160762481Y-127008044D01*
X160893000Y-127062107D01*
X160893000Y-127699033D01*
X160890935Y-127720000D01*
X160893000Y-127740967D01*
X160893000Y-127740977D01*
X160899178Y-127803706D01*
X160923595Y-127884195D01*
X160934285Y-127904195D01*
X160963245Y-127958376D01*
X160999923Y-128003068D01*
X161016605Y-128023395D01*
X161032900Y-128036768D01*
X162269141Y-129273010D01*
X160926879Y-129273010D01*
X159207000Y-127553132D01*
X159207000Y-127062107D01*
X159337519Y-127008044D01*
X159530294Y-126879236D01*
X159694236Y-126715294D01*
X159823044Y-126522519D01*
X159911769Y-126308318D01*
X159957000Y-126080924D01*
X159957000Y-125849076D01*
X159911769Y-125621682D01*
X159823044Y-125407481D01*
X159694236Y-125214706D01*
X159530294Y-125050764D01*
X159337519Y-124921956D01*
X159123318Y-124833231D01*
X158895924Y-124788000D01*
X158664076Y-124788000D01*
X158436682Y-124833231D01*
X158222481Y-124921956D01*
X158029706Y-125050764D01*
X157865764Y-125214706D01*
X157736956Y-125407481D01*
X157648231Y-125621682D01*
X157603000Y-125849076D01*
X157603000Y-126080924D01*
X157648231Y-126308318D01*
X157736956Y-126522519D01*
X157865764Y-126715294D01*
X158029706Y-126879236D01*
X158222481Y-127008044D01*
X158353000Y-127062107D01*
X158353000Y-127709033D01*
X158350935Y-127730000D01*
X158353000Y-127750967D01*
X158353000Y-127750977D01*
X158359178Y-127813706D01*
X158383595Y-127894195D01*
X158388940Y-127904195D01*
X158423245Y-127968376D01*
X158455025Y-128007100D01*
X158476605Y-128033395D01*
X158492900Y-128046768D01*
X160119151Y-129673020D01*
X153576889Y-129673020D01*
X151527000Y-127623132D01*
X151527000Y-127086960D01*
X151717519Y-127008044D01*
X151910294Y-126879236D01*
X152074236Y-126715294D01*
X152203044Y-126522519D01*
X152291769Y-126308318D01*
X152337000Y-126080924D01*
X152337000Y-125849076D01*
X152523000Y-125849076D01*
X152523000Y-126080924D01*
X152568231Y-126308318D01*
X152656956Y-126522519D01*
X152785764Y-126715294D01*
X152949706Y-126879236D01*
X153142481Y-127008044D01*
X153356682Y-127096769D01*
X153584076Y-127142000D01*
X153815924Y-127142000D01*
X154043318Y-127096769D01*
X154257519Y-127008044D01*
X154450294Y-126879236D01*
X154614236Y-126715294D01*
X154743044Y-126522519D01*
X154831769Y-126308318D01*
X154877000Y-126080924D01*
X154877000Y-125849076D01*
X155063000Y-125849076D01*
X155063000Y-126080924D01*
X155108231Y-126308318D01*
X155196956Y-126522519D01*
X155325764Y-126715294D01*
X155489706Y-126879236D01*
X155682481Y-127008044D01*
X155896682Y-127096769D01*
X156124076Y-127142000D01*
X156355924Y-127142000D01*
X156583318Y-127096769D01*
X156797519Y-127008044D01*
X156990294Y-126879236D01*
X157154236Y-126715294D01*
X157283044Y-126522519D01*
X157371769Y-126308318D01*
X157417000Y-126080924D01*
X157417000Y-125849076D01*
X157371769Y-125621682D01*
X157283044Y-125407481D01*
X157154236Y-125214706D01*
X156990294Y-125050764D01*
X156797519Y-124921956D01*
X156583318Y-124833231D01*
X156355924Y-124788000D01*
X156124076Y-124788000D01*
X155896682Y-124833231D01*
X155682481Y-124921956D01*
X155489706Y-125050764D01*
X155325764Y-125214706D01*
X155196956Y-125407481D01*
X155108231Y-125621682D01*
X155063000Y-125849076D01*
X154877000Y-125849076D01*
X154831769Y-125621682D01*
X154743044Y-125407481D01*
X154614236Y-125214706D01*
X154450294Y-125050764D01*
X154257519Y-124921956D01*
X154043318Y-124833231D01*
X153815924Y-124788000D01*
X153584076Y-124788000D01*
X153356682Y-124833231D01*
X153142481Y-124921956D01*
X152949706Y-125050764D01*
X152785764Y-125214706D01*
X152656956Y-125407481D01*
X152568231Y-125621682D01*
X152523000Y-125849076D01*
X152337000Y-125849076D01*
X152291769Y-125621682D01*
X152203044Y-125407481D01*
X152074236Y-125214706D01*
X151910294Y-125050764D01*
X151717519Y-124921956D01*
X151503318Y-124833231D01*
X151275924Y-124788000D01*
X151044076Y-124788000D01*
X150816682Y-124833231D01*
X150602481Y-124921956D01*
X150409706Y-125050764D01*
X150245764Y-125214706D01*
X150116956Y-125407481D01*
X150028231Y-125621682D01*
X149983000Y-125849076D01*
X149983000Y-126080924D01*
X150028231Y-126308318D01*
X150116956Y-126522519D01*
X150245764Y-126715294D01*
X150409706Y-126879236D01*
X150602481Y-127008044D01*
X150673000Y-127037254D01*
X150673000Y-127779033D01*
X150670935Y-127800000D01*
X150673000Y-127820967D01*
X150673000Y-127820977D01*
X150679178Y-127883706D01*
X150703595Y-127964195D01*
X150711175Y-127978376D01*
X150743245Y-128038376D01*
X150782949Y-128086755D01*
X150796605Y-128103395D01*
X150812900Y-128116768D01*
X152769161Y-130073030D01*
X151476899Y-130073030D01*
X149047000Y-127643132D01*
X149047000Y-127062107D01*
X149177519Y-127008044D01*
X149370294Y-126879236D01*
X149534236Y-126715294D01*
X149663044Y-126522519D01*
X149751769Y-126308318D01*
X149797000Y-126080924D01*
X149797000Y-125849076D01*
X149751769Y-125621682D01*
X149663044Y-125407481D01*
X149534236Y-125214706D01*
X149370294Y-125050764D01*
X149177519Y-124921956D01*
X148963318Y-124833231D01*
X148735924Y-124788000D01*
X148504076Y-124788000D01*
X148276682Y-124833231D01*
X148062481Y-124921956D01*
X147869706Y-125050764D01*
X147705764Y-125214706D01*
X147576956Y-125407481D01*
X147488231Y-125621682D01*
X147443000Y-125849076D01*
X147443000Y-126080924D01*
X147488231Y-126308318D01*
X147576956Y-126522519D01*
X147705764Y-126715294D01*
X147869706Y-126879236D01*
X148062481Y-127008044D01*
X148193000Y-127062107D01*
X148193000Y-127799033D01*
X148190935Y-127820000D01*
X148193000Y-127840967D01*
X148193000Y-127840977D01*
X148199178Y-127903706D01*
X148223595Y-127984195D01*
X148231175Y-127998376D01*
X148263245Y-128058376D01*
X148303232Y-128107100D01*
X148316605Y-128123395D01*
X148332900Y-128136768D01*
X150669171Y-130473040D01*
X149376909Y-130473040D01*
X146507000Y-127603132D01*
X146507000Y-127062107D01*
X146637519Y-127008044D01*
X146830294Y-126879236D01*
X146994236Y-126715294D01*
X147123044Y-126522519D01*
X147211769Y-126308318D01*
X147257000Y-126080924D01*
X147257000Y-125849076D01*
X147211769Y-125621682D01*
X147123044Y-125407481D01*
X146994236Y-125214706D01*
X146830294Y-125050764D01*
X146637519Y-124921956D01*
X146423318Y-124833231D01*
X146195924Y-124788000D01*
X145964076Y-124788000D01*
X145736682Y-124833231D01*
X145522481Y-124921956D01*
X145329706Y-125050764D01*
X145165764Y-125214706D01*
X145036956Y-125407481D01*
X144948231Y-125621682D01*
X144903000Y-125849076D01*
X144903000Y-126080924D01*
X144948231Y-126308318D01*
X145036956Y-126522519D01*
X145165764Y-126715294D01*
X145329706Y-126879236D01*
X145522481Y-127008044D01*
X145653000Y-127062107D01*
X145653000Y-127759033D01*
X145650935Y-127780000D01*
X145653000Y-127800967D01*
X145653000Y-127800977D01*
X145659178Y-127863706D01*
X145683595Y-127944195D01*
X145696520Y-127968376D01*
X145723245Y-128018376D01*
X145763232Y-128067100D01*
X145776605Y-128083395D01*
X145792900Y-128096768D01*
X148569181Y-130873050D01*
X147276919Y-130873050D01*
X143967000Y-127563132D01*
X143967000Y-127062107D01*
X144097519Y-127008044D01*
X144290294Y-126879236D01*
X144454236Y-126715294D01*
X144583044Y-126522519D01*
X144671769Y-126308318D01*
X144717000Y-126080924D01*
X144717000Y-125849076D01*
X144671769Y-125621682D01*
X144583044Y-125407481D01*
X144454236Y-125214706D01*
X144290294Y-125050764D01*
X144097519Y-124921956D01*
X143883318Y-124833231D01*
X143655924Y-124788000D01*
X143424076Y-124788000D01*
X143196682Y-124833231D01*
X142982481Y-124921956D01*
X142789706Y-125050764D01*
X142625764Y-125214706D01*
X142496956Y-125407481D01*
X142408231Y-125621682D01*
X142363000Y-125849076D01*
X142363000Y-126080924D01*
X142408231Y-126308318D01*
X142496956Y-126522519D01*
X142625764Y-126715294D01*
X142789706Y-126879236D01*
X142982481Y-127008044D01*
X143113000Y-127062107D01*
X143113000Y-127719033D01*
X143110935Y-127740000D01*
X143113000Y-127760967D01*
X143113000Y-127760977D01*
X143119178Y-127823706D01*
X143143595Y-127904195D01*
X143143596Y-127904196D01*
X143183245Y-127978376D01*
X143223232Y-128027100D01*
X143236605Y-128043395D01*
X143252900Y-128056768D01*
X146469191Y-131273060D01*
X145076929Y-131273060D01*
X141427000Y-127623132D01*
X141427000Y-127062107D01*
X141557519Y-127008044D01*
X141750294Y-126879236D01*
X141914236Y-126715294D01*
X142043044Y-126522519D01*
X142131769Y-126308318D01*
X142177000Y-126080924D01*
X142177000Y-125849076D01*
X142131769Y-125621682D01*
X142043044Y-125407481D01*
X141914236Y-125214706D01*
X141750294Y-125050764D01*
X141557519Y-124921956D01*
X141343318Y-124833231D01*
X141115924Y-124788000D01*
X140884076Y-124788000D01*
X140656682Y-124833231D01*
X140442481Y-124921956D01*
X140249706Y-125050764D01*
X140085764Y-125214706D01*
X139956956Y-125407481D01*
X139868231Y-125621682D01*
X139823000Y-125849076D01*
X139823000Y-126080924D01*
X139868231Y-126308318D01*
X139956956Y-126522519D01*
X140085764Y-126715294D01*
X140249706Y-126879236D01*
X140442481Y-127008044D01*
X140573000Y-127062107D01*
X140573000Y-127779033D01*
X140570935Y-127800000D01*
X140573000Y-127820967D01*
X140573000Y-127820977D01*
X140579178Y-127883706D01*
X140603595Y-127964195D01*
X140611175Y-127978376D01*
X140643245Y-128038376D01*
X140682949Y-128086755D01*
X140696605Y-128103395D01*
X140712900Y-128116768D01*
X144583296Y-131987165D01*
X144596665Y-132003455D01*
X144612955Y-132016824D01*
X144612959Y-132016828D01*
X144661683Y-132056816D01*
X144718598Y-132087236D01*
X144735864Y-132096465D01*
X144816353Y-132120882D01*
X144879082Y-132127060D01*
X144879093Y-132127060D01*
X144900060Y-132129125D01*
X144921027Y-132127060D01*
X169138866Y-132127060D01*
X169159833Y-132129125D01*
X169180800Y-132127060D01*
X169180811Y-132127060D01*
X169243540Y-132120882D01*
X169324029Y-132096465D01*
X169398209Y-132056815D01*
X169463228Y-132003455D01*
X169476601Y-131987160D01*
X172787175Y-128676587D01*
X172803465Y-128663218D01*
X172816834Y-128646928D01*
X172816837Y-128646925D01*
X172856825Y-128598200D01*
X172896474Y-128524020D01*
X172896475Y-128524019D01*
X172920892Y-128443530D01*
X172927070Y-128380801D01*
X172927070Y-128380781D01*
X172929134Y-128359824D01*
X172927070Y-128338867D01*
X172927070Y-103461144D01*
X172929135Y-103440177D01*
X172927070Y-103419210D01*
X172927070Y-103419199D01*
X172920892Y-103356470D01*
X172898468Y-103282550D01*
X172896475Y-103275980D01*
X172856826Y-103201800D01*
X172816838Y-103153076D01*
X172816834Y-103153072D01*
X172803465Y-103136782D01*
X172787176Y-103123415D01*
X169383815Y-99720054D01*
X170987112Y-98116758D01*
X171003395Y-98103395D01*
X171016759Y-98087111D01*
X171016768Y-98087102D01*
X171056755Y-98038377D01*
X171089170Y-97977732D01*
X171096405Y-97964196D01*
X171120822Y-97883707D01*
X171127000Y-97820978D01*
X171127000Y-97820966D01*
X171129065Y-97800001D01*
X171127000Y-97779036D01*
X171127000Y-73820966D01*
X171129065Y-73799999D01*
X171127000Y-73779032D01*
X171127000Y-73779022D01*
X171120822Y-73716293D01*
X171096405Y-73635804D01*
X171077948Y-73601273D01*
X171056755Y-73561623D01*
X171016768Y-73512899D01*
X171016764Y-73512895D01*
X171003395Y-73496605D01*
X170987105Y-73483236D01*
X169316768Y-71812900D01*
X169303395Y-71796605D01*
X169238376Y-71743245D01*
X169164196Y-71703595D01*
X169083707Y-71679178D01*
X169020978Y-71673000D01*
X169020967Y-71673000D01*
X169000000Y-71670935D01*
X168979033Y-71673000D01*
X139920967Y-71673000D01*
X139900000Y-71670935D01*
X139879033Y-71673000D01*
X139879022Y-71673000D01*
X139816293Y-71679178D01*
X139754537Y-71697912D01*
X139735803Y-71703595D01*
X139661624Y-71743244D01*
X139612899Y-71783232D01*
X139612895Y-71783236D01*
X139596605Y-71796605D01*
X139583236Y-71812895D01*
X138172900Y-73223232D01*
X138156605Y-73236605D01*
X138143233Y-73252899D01*
X138143232Y-73252900D01*
X138103245Y-73301624D01*
X138082052Y-73341274D01*
X138063595Y-73375805D01*
X138039178Y-73456294D01*
X138033000Y-73519023D01*
X138033000Y-73519033D01*
X138030935Y-73540000D01*
X138033000Y-73560967D01*
X138033000Y-74060293D01*
X137902481Y-74114356D01*
X137709706Y-74243164D01*
X137545764Y-74407106D01*
X137416956Y-74599881D01*
X137348736Y-74764579D01*
X137264157Y-74526148D01*
X137115178Y-74276045D01*
X136920269Y-74059812D01*
X136686920Y-73885759D01*
X136424099Y-73760575D01*
X136276890Y-73715924D01*
X136047000Y-73837245D01*
X135793000Y-73837245D01*
X135563110Y-73715924D01*
X135415901Y-73760575D01*
X135153080Y-73885759D01*
X134919731Y-74059812D01*
X134724822Y-74276045D01*
X134575843Y-74526148D01*
X134478519Y-74800509D01*
X134052000Y-74800509D01*
X134052000Y-70852000D01*
X180048001Y-70852000D01*
X180048000Y-134148000D01*
G37*
G04 #@! TD.AperFunction*
M02*
