M48
; DRILL file {KiCad (5.1.10)-1} date 01/31/22 14:32:26
; FORMAT={-:-/ absolute / inch / decimal}
; #@! TF.CreationDate,2022-01-31T14:32:26+01:00
; #@! TF.GenerationSoftware,Kicad,Pcbnew,(5.1.10)-1
FMAT,2
INCH
T1C0.0394
%
G90
G05
T1
X4.2912Y-3.0593
X4.3912Y-3.0593
X4.4912Y-3.0593
X4.5004Y-3.8543
X4.5004Y-4.0354
X4.5024Y-4.2205
X4.5912Y-3.0593
X4.6004Y-3.8543
X4.6004Y-4.0354
X4.6024Y-4.2205
X4.6512Y-4.9593
X4.6912Y-3.0593
X4.7512Y-4.9593
X4.7912Y-3.0593
X4.8512Y-4.9593
X4.8912Y-3.0593
X4.9512Y-4.9593
X4.9912Y-3.0593
X5.0512Y-4.9593
X5.0912Y-3.0593
X5.1512Y-4.9593
X5.1912Y-3.0593
X5.2512Y-4.9593
X5.3512Y-2.959
X5.3512Y-4.9593
X5.378Y-4.211
X5.378Y-4.311
X5.3819Y-3.8543
X5.3819Y-3.9543
X5.4512Y-2.959
X5.5512Y-2.959
X5.5512Y-4.8593
X5.5512Y-4.9593
X5.6512Y-2.959
X5.6512Y-4.8593
X5.6512Y-4.9593
X5.6614Y-3.8583
X5.6614Y-3.9583
X5.6614Y-4.2189
X5.6614Y-4.3189
X5.7512Y-2.959
X5.7512Y-4.8593
X5.7512Y-4.9593
X5.8512Y-2.959
X5.8512Y-4.8593
X5.8512Y-4.9593
X5.9512Y-2.959
X5.9512Y-4.8593
X5.9512Y-4.9593
X6.0512Y-2.959
X6.0512Y-4.8593
X6.0512Y-4.9593
X6.1512Y-4.8593
X6.1512Y-4.9593
X6.2512Y-4.8593
X6.2512Y-4.9593
X6.3512Y-4.8593
X6.3512Y-4.9593
X6.4512Y-4.8593
X6.4512Y-4.9593
T0
M30
